<?xml version="1.0" encoding="utf-8" standalone="no"?>
<!DOCTYPE svg PUBLIC "-//W3C//DTD SVG 1.1//EN"
  "http://www.w3.org/Graphics/SVG/1.1/DTD/svg11.dtd">
<svg xmlns:xlink="http://www.w3.org/1999/xlink" width="436.32pt" height="148.32pt" viewBox="0 0 436.32 148.32" xmlns="http://www.w3.org/2000/svg" version="1.1">
 <metadata>
  <rdf:RDF xmlns:dc="http://purl.org/dc/elements/1.1/" xmlns:cc="http://creativecommons.org/ns#" xmlns:rdf="http://www.w3.org/1999/02/22-rdf-syntax-ns#">
   <cc:Work>
    <dc:type rdf:resource="http://purl.org/dc/dcmitype/StillImage"/>
    <dc:date>2025-01-09T11:59:31.647013</dc:date>
    <dc:format>image/svg+xml</dc:format>
    <dc:creator>
     <cc:Agent>
      <dc:title>Matplotlib v3.8.0, https://matplotlib.org/</dc:title>
     </cc:Agent>
    </dc:creator>
   </cc:Work>
  </rdf:RDF>
 </metadata>
 <defs>
  <style type="text/css">*{stroke-linejoin: round; stroke-linecap: butt}</style>
 </defs>
 <g id="figure_1">
  <g id="patch_1">
   <path d="M 0 148.32 
L 436.32 148.32 
L 436.32 0 
L 0 0 
z
" style="fill: #ffffff"/>
  </g>
  <g id="axes_1">
   <g id="patch_2">
    <path d="M 64.930016 103.173556 
L 214.421578 103.173556 
L 214.421578 16.856519 
L 64.930016 16.856519 
z
" style="fill: #ffffff"/>
   </g>
   <g id="matplotlib.axis_1">
    <g id="xtick_1">
     <g id="line2d_1">
      <defs>
       <path id="m4bb461161a" d="M 0 0 
L 0 3.5 
" style="stroke: #000000; stroke-width: 0.8"/>
      </defs>
      <g>
       <use xlink:href="#m4bb461161a" x="80.218926" y="103.173556" style="stroke: #000000; stroke-width: 0.8"/>
      </g>
     </g>
     <g id="text_1">
      <!-- $\mathdefault{5}$ -->
      <g transform="translate(77.479192 117.981709) scale(0.11 -0.11)">
       <defs>
        <path id="CMR17-35" d="M 730 3692 
C 794 3666 1056 3584 1325 3584 
C 1920 3584 2246 3911 2432 4100 
C 2432 4157 2432 4192 2394 4192 
C 2387 4192 2374 4192 2323 4163 
C 2099 4058 1837 3973 1517 3973 
C 1325 3973 1037 3999 723 4139 
C 653 4171 640 4171 634 4171 
C 602 4171 595 4164 595 4037 
L 595 2203 
C 595 2089 595 2057 659 2057 
C 691 2057 704 2070 736 2114 
C 941 2401 1222 2522 1542 2522 
C 1766 2522 2246 2382 2246 1289 
C 2246 1085 2246 715 2054 421 
C 1894 159 1645 25 1370 25 
C 947 25 518 320 403 814 
C 429 807 480 795 506 795 
C 589 795 749 840 749 1038 
C 749 1210 627 1280 506 1280 
C 358 1280 262 1190 262 1011 
C 262 454 704 -128 1382 -128 
C 2042 -128 2669 440 2669 1264 
C 2669 2030 2170 2624 1549 2624 
C 1222 2624 947 2503 730 2274 
L 730 3692 
z
" transform="scale(0.015625)"/>
       </defs>
       <use xlink:href="#CMR17-35" transform="scale(0.996264)"/>
      </g>
     </g>
    </g>
    <g id="xtick_2">
     <g id="line2d_2">
      <g>
       <use xlink:href="#m4bb461161a" x="122.688119" y="103.173556" style="stroke: #000000; stroke-width: 0.8"/>
      </g>
     </g>
     <g id="text_2">
      <!-- $\mathdefault{10}$ -->
      <g transform="translate(117.208652 117.981709) scale(0.11 -0.11)">
       <defs>
        <path id="CMR17-31" d="M 1702 4058 
C 1702 4192 1696 4192 1606 4192 
C 1357 3916 979 3827 621 3827 
C 602 3827 570 3827 563 3808 
C 557 3795 557 3782 557 3648 
C 755 3648 1088 3686 1344 3839 
L 1344 461 
C 1344 236 1331 160 781 160 
L 589 160 
L 589 0 
C 896 0 1216 0 1523 0 
C 1830 0 2150 0 2458 0 
L 2458 160 
L 2266 160 
C 1715 160 1702 230 1702 458 
L 1702 4058 
z
" transform="scale(0.015625)"/>
        <path id="CMR17-30" d="M 2688 2025 
C 2688 2416 2682 3080 2413 3591 
C 2176 4039 1798 4198 1466 4198 
C 1158 4198 768 4058 525 3597 
C 269 3118 243 2524 243 2025 
C 243 1661 250 1106 448 619 
C 723 -39 1216 -128 1466 -128 
C 1760 -128 2208 -7 2470 600 
C 2662 1042 2688 1559 2688 2025 
z
M 1466 -26 
C 1056 -26 813 325 723 812 
C 653 1188 653 1738 653 2096 
C 653 2588 653 2997 736 3387 
C 858 3929 1216 4096 1466 4096 
C 1728 4096 2067 3923 2189 3400 
C 2272 3036 2278 2607 2278 2096 
C 2278 1680 2278 1169 2202 792 
C 2067 95 1690 -26 1466 -26 
z
" transform="scale(0.015625)"/>
       </defs>
       <use xlink:href="#CMR17-31" transform="scale(0.996264)"/>
       <use xlink:href="#CMR17-30" transform="translate(45.690477 0) scale(0.996264)"/>
      </g>
     </g>
    </g>
    <g id="xtick_3">
     <g id="line2d_3">
      <g>
       <use xlink:href="#m4bb461161a" x="165.157313" y="103.173556" style="stroke: #000000; stroke-width: 0.8"/>
      </g>
     </g>
     <g id="text_3">
      <!-- $\mathdefault{15}$ -->
      <g transform="translate(159.677846 117.981709) scale(0.11 -0.11)">
       <use xlink:href="#CMR17-31" transform="scale(0.996264)"/>
       <use xlink:href="#CMR17-35" transform="translate(45.690477 0) scale(0.996264)"/>
      </g>
     </g>
    </g>
    <g id="xtick_4">
     <g id="line2d_4">
      <g>
       <use xlink:href="#m4bb461161a" x="207.626507" y="103.173556" style="stroke: #000000; stroke-width: 0.8"/>
      </g>
     </g>
     <g id="text_4">
      <!-- $\mathdefault{20}$ -->
      <g transform="translate(202.14704 117.981709) scale(0.11 -0.11)">
       <defs>
        <path id="CMR17-32" d="M 2669 989 
L 2554 989 
C 2490 536 2438 459 2413 420 
C 2381 369 1920 369 1830 369 
L 602 369 
C 832 619 1280 1072 1824 1597 
C 2214 1967 2669 2402 2669 3035 
C 2669 3790 2067 4224 1395 4224 
C 691 4224 262 3604 262 3030 
C 262 2780 448 2748 525 2748 
C 589 2748 781 2787 781 3010 
C 781 3207 614 3264 525 3264 
C 486 3264 448 3258 422 3245 
C 544 3790 915 4058 1306 4058 
C 1862 4058 2227 3617 2227 3035 
C 2227 2479 1901 2000 1536 1584 
L 262 146 
L 262 0 
L 2515 0 
L 2669 989 
z
" transform="scale(0.015625)"/>
       </defs>
       <use xlink:href="#CMR17-32" transform="scale(0.996264)"/>
       <use xlink:href="#CMR17-30" transform="translate(45.690477 0) scale(0.996264)"/>
      </g>
     </g>
    </g>
    <g id="xtick_5">
     <g id="line2d_5">
      <defs>
       <path id="mbabb172b6d" d="M 0 0 
L 0 2 
" style="stroke: #000000; stroke-width: 0.6"/>
      </defs>
      <g>
       <use xlink:href="#mbabb172b6d" x="101.453523" y="103.173556" style="stroke: #000000; stroke-width: 0.6"/>
      </g>
     </g>
    </g>
    <g id="xtick_6">
     <g id="line2d_6">
      <g>
       <use xlink:href="#mbabb172b6d" x="143.922716" y="103.173556" style="stroke: #000000; stroke-width: 0.6"/>
      </g>
     </g>
    </g>
    <g id="xtick_7">
     <g id="line2d_7">
      <g>
       <use xlink:href="#mbabb172b6d" x="186.39191" y="103.173556" style="stroke: #000000; stroke-width: 0.6"/>
      </g>
     </g>
    </g>
    <g id="text_5">
     <!-- $\mathrm{N_{max}}$ -->
     <g transform="translate(127.407845 132.833866) scale(0.12 -0.12)">
      <defs>
       <path id="CMR17-4e" d="M 1312 4250 
C 1267 4320 1261 4320 1139 4320 
L 326 4320 
L 326 4160 
L 448 4160 
C 704 4160 819 4129 838 4122 
L 838 610 
C 838 451 838 153 326 153 
L 326 -13 
C 474 0 742 0 902 0 
C 1062 0 1331 0 1478 -13 
L 1478 153 
C 966 153 966 451 966 610 
L 966 4033 
C 1011 3995 1011 3982 1056 3919 
L 3430 76 
C 3475 0 3494 0 3526 0 
C 3590 0 3590 19 3590 139 
L 3590 3705 
C 3590 3863 3590 4160 4102 4160 
L 4102 4326 
C 3955 4320 3686 4320 3526 4320 
C 3366 4320 3098 4320 2950 4326 
L 2950 4160 
C 3462 4160 3462 3862 3462 3703 
L 3462 763 
L 1312 4250 
z
" transform="scale(0.015625)"/>
       <path id="CMR17-6d" d="M 4326 1933 
C 4326 2252 4269 2790 3507 2790 
C 3072 2790 2771 2496 2656 2151 
L 2650 2151 
C 2573 2676 2195 2790 1837 2790 
C 1331 2790 1069 2400 973 2144 
L 966 2144 
L 966 2790 
L 211 2720 
L 211 2554 
C 589 2554 646 2515 646 2208 
L 646 428 
C 646 184 621 153 211 153 
L 211 -13 
C 365 0 646 0 813 0 
C 979 0 1267 0 1421 -13 
L 1421 153 
C 1011 153 986 178 986 428 
L 986 1658 
C 986 2247 1344 2688 1792 2688 
C 2266 2688 2317 2266 2317 1958 
L 2317 428 
C 2317 184 2291 153 1882 153 
L 1882 -13 
C 2035 0 2317 0 2483 0 
C 2650 0 2938 0 3091 -13 
L 3091 153 
C 2682 153 2656 178 2656 428 
L 2656 1658 
C 2656 2247 3014 2688 3462 2688 
C 3936 2688 3987 2266 3987 1958 
L 3987 428 
C 3987 184 3962 153 3552 153 
L 3552 -13 
C 3706 0 3987 0 4154 0 
C 4320 0 4608 0 4762 -13 
L 4762 153 
C 4352 153 4326 178 4326 428 
L 4326 1933 
z
" transform="scale(0.015625)"/>
       <path id="CMR17-61" d="M 2304 1653 
C 2304 2072 2304 2294 2035 2543 
C 1798 2752 1523 2816 1306 2816 
C 800 2816 435 2407 435 1971 
C 435 1728 627 1728 666 1728 
C 749 1728 896 1778 896 1954 
C 896 2112 774 2181 666 2181 
C 640 2181 608 2174 589 2168 
C 723 2592 1069 2714 1293 2714 
C 1613 2714 1965 2429 1965 1885 
L 1965 1600 
C 1587 1600 1133 1549 774 1357 
C 371 1133 256 813 256 570 
C 256 77 832 -64 1171 -64 
C 1523 -64 1850 139 1990 511 
C 2003 233 2182 -18 2464 -18 
C 2598 -18 2938 70 2938 567 
L 2938 920 
L 2822 920 
L 2822 562 
C 2822 178 2650 128 2566 128 
C 2304 128 2304 458 2304 738 
L 2304 1653 
z
M 1965 870 
C 1965 317 1568 38 1216 38 
C 896 38 646 275 646 570 
C 646 761 730 1100 1101 1305 
C 1408 1478 1760 1504 1965 1504 
L 1965 870 
z
" transform="scale(0.015625)"/>
       <path id="CMR17-78" d="M 1664 1477 
C 1856 1726 2074 2006 2253 2216 
C 2464 2458 2707 2560 2989 2560 
L 2989 2726 
C 2880 2726 2656 2726 2541 2726 
C 2368 2726 2170 2726 2022 2732 
L 2022 2566 
C 2112 2553 2163 2489 2163 2400 
C 2163 2285 2099 2215 2067 2171 
L 1594 1573 
L 1030 2306 
C 973 2376 973 2388 973 2420 
C 973 2497 1037 2560 1146 2560 
L 1146 2732 
C 992 2726 717 2726 557 2726 
C 384 2726 179 2726 38 2732 
L 38 2560 
C 384 2560 461 2534 614 2343 
L 1350 1395 
C 1363 1382 1395 1344 1395 1325 
C 1395 1299 838 619 768 530 
C 480 185 179 160 6 160 
L 6 0 
C 115 0 339 0 454 0 
C 582 0 864 0 979 -6 
L 979 160 
C 941 166 838 179 838 325 
C 838 440 890 510 947 586 
L 1478 1236 
L 2035 512 
C 2086 442 2163 346 2163 301 
C 2163 211 2086 160 1984 160 
L 1984 -6 
C 2138 0 2413 0 2573 0 
C 2746 0 2950 0 3091 -6 
L 3091 160 
C 2771 160 2675 172 2522 370 
L 1664 1477 
z
" transform="scale(0.015625)"/>
      </defs>
      <use xlink:href="#CMR17-4e" transform="scale(0.996264)"/>
      <use xlink:href="#CMR17-6d" transform="translate(69.07243 -14.943915) scale(0.697382)"/>
      <use xlink:href="#CMR17-61" transform="translate(122.915896 -14.943915) scale(0.697382)"/>
      <use xlink:href="#CMR17-78" transform="translate(154.899078 -14.943915) scale(0.697382)"/>
     </g>
    </g>
   </g>
   <g id="matplotlib.axis_2">
    <g id="ytick_1">
     <g id="line2d_8">
      <defs>
       <path id="mdb69fe8a51" d="M 0 0 
L -3.5 0 
" style="stroke: #000000; stroke-width: 0.8"/>
      </defs>
      <g>
       <use xlink:href="#mdb69fe8a51" x="64.930016" y="103.173556" style="stroke: #000000; stroke-width: 0.8"/>
      </g>
     </g>
     <g id="text_6">
      <!-- $\mathdefault{−10}$ -->
      <g transform="translate(38.447472 107.077633) scale(0.11 -0.11)">
       <defs>
        <path id="CMSY10-0" d="M 4218 1472 
C 4326 1472 4442 1472 4442 1600 
C 4442 1728 4326 1728 4218 1728 
L 755 1728 
C 646 1728 531 1728 531 1600 
C 531 1472 646 1472 755 1472 
L 4218 1472 
z
" transform="scale(0.015625)"/>
       </defs>
       <use xlink:href="#CMSY10-0" transform="scale(0.996264)"/>
       <use xlink:href="#CMR17-31" transform="translate(77.487468 0) scale(0.996264)"/>
       <use xlink:href="#CMR17-30" transform="translate(123.177945 0) scale(0.996264)"/>
      </g>
     </g>
    </g>
    <g id="ytick_2">
     <g id="line2d_9">
      <g>
       <use xlink:href="#mdb69fe8a51" x="64.930016" y="60.015038" style="stroke: #000000; stroke-width: 0.8"/>
      </g>
     </g>
     <g id="text_7">
      <!-- $\mathdefault{−8}$ -->
      <g transform="translate(43.92694 63.919114) scale(0.11 -0.11)">
       <defs>
        <path id="CMR17-38" d="M 1741 2264 
C 2144 2467 2554 2773 2554 3263 
C 2554 3841 1990 4179 1472 4179 
C 890 4179 378 3759 378 3180 
C 378 3021 416 2747 666 2505 
C 730 2442 998 2251 1171 2130 
C 883 1983 211 1634 211 934 
C 211 279 838 -128 1459 -128 
C 2144 -128 2720 362 2720 1010 
C 2720 1590 2330 1857 2074 2029 
L 1741 2264 
z
M 902 2822 
C 851 2854 595 3051 595 3351 
C 595 3739 998 4032 1459 4032 
C 1965 4032 2336 3676 2336 3262 
C 2336 2669 1670 2331 1638 2331 
C 1632 2331 1626 2331 1574 2370 
L 902 2822 
z
M 2080 1519 
C 2176 1449 2483 1240 2483 851 
C 2483 381 2010 25 1472 25 
C 890 25 448 438 448 940 
C 448 1443 838 1862 1280 2060 
L 2080 1519 
z
" transform="scale(0.015625)"/>
       </defs>
       <use xlink:href="#CMSY10-0" transform="scale(0.996264)"/>
       <use xlink:href="#CMR17-38" transform="translate(77.487468 0) scale(0.996264)"/>
      </g>
     </g>
    </g>
    <g id="ytick_3">
     <g id="line2d_10">
      <g>
       <use xlink:href="#mdb69fe8a51" x="64.930016" y="16.856519" style="stroke: #000000; stroke-width: 0.8"/>
      </g>
     </g>
     <g id="text_8">
      <!-- $\mathdefault{−6}$ -->
      <g transform="translate(43.92694 20.760595) scale(0.11 -0.11)">
       <defs>
        <path id="CMR17-36" d="M 678 2176 
C 678 3690 1395 4032 1811 4032 
C 1946 4032 2272 4009 2400 3776 
C 2298 3776 2106 3776 2106 3553 
C 2106 3381 2246 3323 2336 3323 
C 2394 3323 2566 3348 2566 3560 
C 2566 3954 2246 4179 1805 4179 
C 1043 4179 243 3390 243 1984 
C 243 253 966 -128 1478 -128 
C 2099 -128 2688 427 2688 1283 
C 2688 2081 2170 2662 1517 2662 
C 1126 2662 838 2407 678 1960 
L 678 2176 
z
M 1478 25 
C 691 25 691 1200 691 1436 
C 691 1896 909 2560 1504 2560 
C 1613 2560 1926 2560 2138 2120 
C 2253 1870 2253 1609 2253 1289 
C 2253 944 2253 690 2118 434 
C 1978 171 1773 25 1478 25 
z
" transform="scale(0.015625)"/>
       </defs>
       <use xlink:href="#CMSY10-0" transform="scale(0.996264)"/>
       <use xlink:href="#CMR17-36" transform="translate(77.487468 0) scale(0.996264)"/>
      </g>
     </g>
    </g>
    <g id="ytick_4">
     <g id="line2d_11">
      <defs>
       <path id="m691550d0cf" d="M 0 0 
L -2 0 
" style="stroke: #000000; stroke-width: 0.6"/>
      </defs>
      <g>
       <use xlink:href="#m691550d0cf" x="64.930016" y="92.383927" style="stroke: #000000; stroke-width: 0.6"/>
      </g>
     </g>
    </g>
    <g id="ytick_5">
     <g id="line2d_12">
      <g>
       <use xlink:href="#m691550d0cf" x="64.930016" y="81.594297" style="stroke: #000000; stroke-width: 0.6"/>
      </g>
     </g>
    </g>
    <g id="ytick_6">
     <g id="line2d_13">
      <g>
       <use xlink:href="#m691550d0cf" x="64.930016" y="70.804667" style="stroke: #000000; stroke-width: 0.6"/>
      </g>
     </g>
    </g>
    <g id="ytick_7">
     <g id="line2d_14">
      <g>
       <use xlink:href="#m691550d0cf" x="64.930016" y="49.225408" style="stroke: #000000; stroke-width: 0.6"/>
      </g>
     </g>
    </g>
    <g id="ytick_8">
     <g id="line2d_15">
      <g>
       <use xlink:href="#m691550d0cf" x="64.930016" y="38.435778" style="stroke: #000000; stroke-width: 0.6"/>
      </g>
     </g>
    </g>
    <g id="ytick_9">
     <g id="line2d_16">
      <g>
       <use xlink:href="#m691550d0cf" x="64.930016" y="27.646149" style="stroke: #000000; stroke-width: 0.6"/>
      </g>
     </g>
    </g>
    <g id="text_9">
     <!-- $\mathcal{R}e\left(\mathrm{E^{0^{+}0}_{1}}\right)[\SI[]{}{\mega\eV}]$ -->
     <g transform="translate(26.676504 104.120919) rotate(-90) scale(0.12 -0.12)">
      <defs>
       <path id="CMSY10-52" d="M 2592 4032 
C 3821 4032 4141 3727 4141 3299 
C 4141 2904 3834 2125 2778 2125 
C 2464 2125 2246 1881 2246 1805 
C 2246 1767 2272 1767 2278 1767 
C 2547 1722 2675 1594 3008 839 
C 3302 167 3469 -128 3846 -128 
C 4621 -128 5357 659 5357 800 
C 5357 845 5306 845 5286 845 
C 5210 845 4960 755 4826 570 
C 4723 423 4582 224 4269 224 
C 3942 224 3744 679 3526 1178 
C 3392 1498 3277 1735 3130 1907 
C 4058 2247 4685 2919 4685 3584 
C 4685 4384 3610 4384 2643 4384 
C 2003 4384 1645 4384 1107 4154 
C 250 3776 134 3245 134 3194 
C 134 3155 160 3143 198 3143 
C 301 3143 448 3234 499 3267 
C 634 3359 653 3398 691 3522 
C 781 3784 960 4013 1766 4013 
C 1734 3625 1677 3033 1459 2102 
C 1286 1388 1050 687 768 6 
C 736 -64 736 -77 736 -83 
C 736 -128 787 -128 800 -128 
C 928 -128 1197 26 1267 147 
C 1280 179 2093 1984 2291 4032 
L 2592 4032 
z
" transform="scale(0.015625)"/>
       <path id="CMMI12-65" d="M 1146 1479 
C 1318 1479 1754 1479 2061 1595 
C 2547 1783 2592 2158 2592 2274 
C 2592 2558 2349 2816 1926 2816 
C 1254 2816 288 2210 288 1073 
C 288 402 672 -64 1254 -64 
C 2125 -64 2675 609 2675 692 
C 2675 730 2637 762 2611 762 
C 2592 762 2586 756 2528 699 
C 2118 159 1510 64 1267 64 
C 902 64 710 350 710 822 
C 710 911 710 1071 806 1479 
L 1146 1479 
z
M 838 1600 
C 1114 2592 1722 2689 1926 2689 
C 2208 2689 2400 2522 2400 2277 
C 2400 1600 1376 1600 1107 1600 
L 838 1600 
z
" transform="scale(0.015625)"/>
       <path id="CMEX10-10" d="M 3296 -11187 
C 3309 -11194 3366 -11258 3373 -11258 
L 3514 -11258 
C 3533 -11258 3584 -11251 3584 -11194 
C 3584 -11168 3571 -11155 3558 -11136 
C 3328 -10906 2982 -10554 2586 -9850 
C 1894 -8621 1638 -7040 1638 -5504 
C 1638 -2662 2445 -992 3565 141 
C 3584 160 3584 179 3584 192 
C 3584 256 3539 256 3462 256 
C 3379 256 3366 256 3309 205 
C 2701 -320 2016 -1210 1574 -2560 
C 1299 -3405 1152 -4435 1152 -5498 
C 1152 -7014 1427 -8730 2432 -10214 
C 2605 -10464 2842 -10726 2842 -10733 
C 2906 -10810 2995 -10912 3046 -10957 
L 3296 -11187 
z
" transform="scale(0.015625)"/>
       <path id="CMR17-45" d="M 3885 1615 
L 3770 1615 
C 3629 676 3546 166 2419 166 
L 1530 166 
C 1274 166 1261 197 1261 414 
L 1261 2176 
L 1862 2176 
C 2464 2176 2522 1960 2522 1430 
L 2637 1430 
L 2637 3081 
L 2522 3081 
C 2522 2557 2464 2342 1862 2342 
L 1261 2342 
L 1261 3913 
C 1261 4128 1274 4160 1530 4160 
L 2406 4160 
C 3398 4160 3514 3769 3603 2929 
L 3718 2929 
L 3565 4325 
L 326 4325 
L 326 4160 
C 768 4160 838 4160 838 3874 
L 838 451 
C 838 166 768 166 326 166 
L 326 0 
L 3654 0 
L 3885 1615 
z
" transform="scale(0.015625)"/>
       <path id="CMR17-2b" d="M 2413 1472 
L 4109 1472 
C 4198 1472 4307 1472 4307 1580 
C 4307 1695 4205 1695 4109 1695 
L 2413 1695 
L 2413 3386 
C 2413 3475 2413 3584 2304 3584 
C 2189 3584 2189 3482 2189 3386 
L 2189 1695 
L 493 1695 
C 403 1695 294 1695 294 1587 
C 294 1472 397 1472 493 1472 
L 2189 1472 
L 2189 -218 
C 2189 -307 2189 -416 2298 -416 
C 2413 -416 2413 -314 2413 -218 
L 2413 1472 
z
" transform="scale(0.015625)"/>
       <path id="CMEX10-11" d="M 2662 -5498 
C 2662 -3661 2234 -1709 973 -269 
C 883 -166 646 83 493 218 
C 448 256 435 256 352 256 
C 288 256 230 256 230 192 
C 230 166 256 141 269 128 
C 486 -96 832 -448 1229 -1152 
C 1920 -2381 2176 -3962 2176 -5498 
C 2176 -8275 1408 -9971 256 -11142 
C 243 -11155 230 -11174 230 -11194 
C 230 -11258 288 -11258 352 -11258 
C 435 -11258 448 -11258 506 -11206 
C 1114 -10682 1798 -9792 2240 -8442 
C 2522 -7565 2662 -6528 2662 -5498 
z
" transform="scale(0.015625)"/>
       <path id="CMR17-5b" d="M 1504 -1600 
L 1504 -1377 
L 902 -1377 
L 902 4544 
L 1504 4544 
L 1504 4767 
L 678 4767 
L 678 -1600 
L 1504 -1600 
z
" transform="scale(0.015625)"/>
       <path id="CMR17-4d" d="M 1338 4224 
C 1299 4320 1293 4320 1158 4320 
L 339 4320 
L 339 4160 
C 781 4160 851 4160 851 3875 
L 851 610 
C 851 451 851 153 339 153 
L 339 -13 
C 486 0 755 0 915 0 
C 1075 0 1344 0 1491 -13 
L 1491 153 
C 979 153 979 451 979 610 
L 979 4135 
L 986 4135 
L 2490 89 
C 2515 25 2528 -13 2579 -13 
C 2630 -13 2643 25 2669 89 
L 4186 4166 
L 4192 4166 
L 4192 438 
C 4192 153 4122 153 3680 153 
L 3680 -13 
C 3853 0 4198 0 4384 0 
C 4570 0 4922 0 5094 -13 
L 5094 153 
C 4653 153 4582 153 4582 438 
L 4582 3875 
C 4582 4160 4653 4160 5094 4160 
L 5094 4320 
L 4282 4320 
C 4147 4320 4141 4314 4102 4218 
L 2720 502 
L 1338 4224 
z
" transform="scale(0.015625)"/>
       <path id="CMR17-65" d="M 2438 1472 
C 2464 1498 2464 1511 2464 1576 
C 2464 2238 2118 2816 1389 2816 
C 710 2816 173 2169 173 1383 
C 173 551 781 -64 1459 -64 
C 2176 -64 2458 607 2458 740 
C 2458 784 2419 784 2406 784 
C 2362 784 2355 771 2330 696 
C 2189 265 1837 51 1504 51 
C 1229 51 954 203 781 480 
C 582 803 582 1176 582 1472 
L 2438 1472 
z
M 589 1568 
C 634 2505 1126 2714 1382 2714 
C 1818 2714 2112 2297 2118 1568 
L 589 1568 
z
" transform="scale(0.015625)"/>
       <path id="CMR17-56" d="M 3776 3745 
C 3834 3886 3936 4160 4365 4160 
L 4365 4332 
C 4218 4319 4051 4319 3891 4319 
C 3738 4319 3475 4319 3328 4332 
L 3328 4160 
C 3648 4160 3661 3936 3661 3898 
C 3661 3827 3642 3783 3622 3732 
L 2362 446 
L 1043 3886 
C 1024 3931 1011 3963 1011 3994 
C 1011 4160 1267 4160 1402 4160 
L 1402 4319 
C 1197 4319 896 4319 685 4319 
C 518 4319 218 4319 64 4332 
L 64 4160 
C 435 4160 506 4135 582 3931 
L 2106 -26 
C 2138 -115 2144 -128 2214 -128 
C 2285 -128 2291 -115 2323 -26 
L 3776 3745 
z
" transform="scale(0.015625)"/>
       <path id="CMR17-5d" d="M 915 4767 
L 90 4767 
L 90 4544 
L 691 4544 
L 691 -1377 
L 90 -1377 
L 90 -1600 
L 915 -1600 
L 915 4767 
z
" transform="scale(0.015625)"/>
      </defs>
      <use xlink:href="#CMSY10-52" transform="scale(0.996264)"/>
      <use xlink:href="#CMMI12-65" transform="translate(84.43374 0) scale(0.996264)"/>
      <use xlink:href="#CMEX10-10" transform="translate(146.250146 110.586308) scale(0.996264)"/>
      <use xlink:href="#CMR17-45" transform="translate(205.749436 0) scale(0.996264)"/>
      <use xlink:href="#CMR17-30" transform="translate(268.335736 36.153639) scale(0.697382)"/>
      <use xlink:href="#CMR17-2b" transform="translate(300.318918 61.461065) scale(0.498132)"/>
      <use xlink:href="#CMR17-30" transform="translate(336.674437 36.153639) scale(0.697382)"/>
      <use xlink:href="#CMR17-31" transform="translate(268.335736 -24.740171) scale(0.697382)"/>
      <use xlink:href="#CMEX10-11" transform="translate(369.155751 110.586308) scale(0.996264)"/>
      <use xlink:href="#CMR17-5b" transform="translate(445.259446 0) scale(0.996264)"/>
      <use xlink:href="#CMR17-4d" transform="translate(470.130504 0) scale(0.996264)"/>
      <use xlink:href="#CMR17-65" transform="translate(554.817445 0) scale(0.996264)"/>
      <use xlink:href="#CMR17-56" transform="translate(595.303105 0) scale(0.996264)"/>
      <use xlink:href="#CMR17-5d" transform="translate(665.676701 0) scale(0.996264)"/>
     </g>
    </g>
   </g>
   <g id="line2d_17">
    <path d="M 71.725087 96.494776 
L 78.711613 149.32 
M 177.241562 149.32 
L 190.63883 40.484945 
L 207.626507 41.840338 
" clip-path="url(#p2187c14b55)" style="fill: none; stroke: #1f77b4; stroke-width: 0.7; stroke-linecap: square"/>
    <defs>
     <path id="m01bcd0ee67" d="M -1.5 1.5 
L 1.5 1.5 
L 1.5 -1.5 
L -1.5 -1.5 
z
" style="stroke: #1f77b4; stroke-linejoin: miter"/>
    </defs>
    <g clip-path="url(#p2187c14b55)">
     <use xlink:href="#m01bcd0ee67" x="71.725087" y="96.494776" style="fill: #1f77b4; stroke: #1f77b4; stroke-linejoin: miter"/>
     <use xlink:href="#m01bcd0ee67" x="88.712764" y="224.938843" style="fill: #1f77b4; stroke: #1f77b4; stroke-linejoin: miter"/>
     <use xlink:href="#m01bcd0ee67" x="105.700442" y="324.069645" style="fill: #1f77b4; stroke: #1f77b4; stroke-linejoin: miter"/>
     <use xlink:href="#m01bcd0ee67" x="122.688119" y="336.294296" style="fill: #1f77b4; stroke: #1f77b4; stroke-linejoin: miter"/>
     <use xlink:href="#m01bcd0ee67" x="139.675797" y="437.341336" style="fill: #1f77b4; stroke: #1f77b4; stroke-linejoin: miter"/>
     <use xlink:href="#m01bcd0ee67" x="156.663474" y="529.575406" style="fill: #1f77b4; stroke: #1f77b4; stroke-linejoin: miter"/>
     <use xlink:href="#m01bcd0ee67" x="173.651152" y="178.48733" style="fill: #1f77b4; stroke: #1f77b4; stroke-linejoin: miter"/>
     <use xlink:href="#m01bcd0ee67" x="190.63883" y="40.484945" style="fill: #1f77b4; stroke: #1f77b4; stroke-linejoin: miter"/>
     <use xlink:href="#m01bcd0ee67" x="207.626507" y="41.840338" style="fill: #1f77b4; stroke: #1f77b4; stroke-linejoin: miter"/>
    </g>
   </g>
   <g id="line2d_18">
    <path d="M 64.930016 41.840338 
L 214.421578 41.840338 
" clip-path="url(#p2187c14b55)" style="fill: none; stroke-dasharray: 1,1.65; stroke-dashoffset: 0; stroke: #000000"/>
   </g>
   <g id="line2d_19">
    <path d="M 157.226948 149.32 
L 173.651152 65.4515 
L 190.63883 38.49469 
L 207.626507 43.561931 
" clip-path="url(#p2187c14b55)" style="fill: none; stroke: #ff7f0e; stroke-width: 0.7; stroke-linecap: square"/>
    <defs>
     <path id="m4e11dcfbc9" d="M -1.5 1.5 
L 1.5 1.5 
L 1.5 -1.5 
L -1.5 -1.5 
z
" style="stroke: #ff7f0e; stroke-linejoin: miter"/>
    </defs>
    <g clip-path="url(#p2187c14b55)">
     <use xlink:href="#m4e11dcfbc9" x="71.725087" y="200.897391" style="fill: #ff7f0e; stroke: #ff7f0e; stroke-linejoin: miter"/>
     <use xlink:href="#m4e11dcfbc9" x="88.712764" y="287.289956" style="fill: #ff7f0e; stroke: #ff7f0e; stroke-linejoin: miter"/>
     <use xlink:href="#m4e11dcfbc9" x="105.700442" y="347.032135" style="fill: #ff7f0e; stroke: #ff7f0e; stroke-linejoin: miter"/>
     <use xlink:href="#m4e11dcfbc9" x="122.688119" y="418.947175" style="fill: #ff7f0e; stroke: #ff7f0e; stroke-linejoin: miter"/>
     <use xlink:href="#m4e11dcfbc9" x="139.675797" y="527.961278" style="fill: #ff7f0e; stroke: #ff7f0e; stroke-linejoin: miter"/>
     <use xlink:href="#m4e11dcfbc9" x="156.663474" y="152.197318" style="fill: #ff7f0e; stroke: #ff7f0e; stroke-linejoin: miter"/>
     <use xlink:href="#m4e11dcfbc9" x="173.651152" y="65.4515" style="fill: #ff7f0e; stroke: #ff7f0e; stroke-linejoin: miter"/>
     <use xlink:href="#m4e11dcfbc9" x="190.63883" y="38.49469" style="fill: #ff7f0e; stroke: #ff7f0e; stroke-linejoin: miter"/>
     <use xlink:href="#m4e11dcfbc9" x="207.626507" y="43.561931" style="fill: #ff7f0e; stroke: #ff7f0e; stroke-linejoin: miter"/>
    </g>
   </g>
   <g id="line2d_20">
    <path d="M 151.738581 149.32 
L 156.663474 43.749671 
L 173.651152 45.7505 
L 190.63883 47.90562 
L 207.626507 48.296637 
" clip-path="url(#p2187c14b55)" style="fill: none; stroke: #2ca02c; stroke-width: 0.7; stroke-linecap: square"/>
    <defs>
     <path id="mf537220b71" d="M -1.5 1.5 
L 1.5 1.5 
L 1.5 -1.5 
L -1.5 -1.5 
z
" style="stroke: #2ca02c; stroke-linejoin: miter"/>
    </defs>
    <g clip-path="url(#p2187c14b55)">
     <use xlink:href="#mf537220b71" x="71.725087" y="288.099178" style="fill: #2ca02c; stroke: #2ca02c; stroke-linejoin: miter"/>
     <use xlink:href="#mf537220b71" x="88.712764" y="328.845135" style="fill: #2ca02c; stroke: #2ca02c; stroke-linejoin: miter"/>
     <use xlink:href="#mf537220b71" x="105.700442" y="396.506903" style="fill: #2ca02c; stroke: #2ca02c; stroke-linejoin: miter"/>
     <use xlink:href="#mf537220b71" x="122.688119" y="505.041946" style="fill: #2ca02c; stroke: #2ca02c; stroke-linejoin: miter"/>
     <use xlink:href="#mf537220b71" x="139.675797" y="407.898594" style="fill: #2ca02c; stroke: #2ca02c; stroke-linejoin: miter"/>
     <use xlink:href="#mf537220b71" x="156.663474" y="43.749671" style="fill: #2ca02c; stroke: #2ca02c; stroke-linejoin: miter"/>
     <use xlink:href="#mf537220b71" x="173.651152" y="45.7505" style="fill: #2ca02c; stroke: #2ca02c; stroke-linejoin: miter"/>
     <use xlink:href="#mf537220b71" x="190.63883" y="47.90562" style="fill: #2ca02c; stroke: #2ca02c; stroke-linejoin: miter"/>
     <use xlink:href="#mf537220b71" x="207.626507" y="48.296637" style="fill: #2ca02c; stroke: #2ca02c; stroke-linejoin: miter"/>
    </g>
   </g>
   <g id="line2d_21">
    <path d="M 138.030595 149.32 
L 139.675797 107.679306 
L 156.663474 40.526593 
L 173.651152 43.332975 
L 190.63883 60.058628 
L 207.626507 49.620308 
" clip-path="url(#p2187c14b55)" style="fill: none; stroke: #d62728; stroke-width: 0.7; stroke-linecap: square"/>
    <defs>
     <path id="mb79178fa67" d="M -1.5 1.5 
L 1.5 1.5 
L 1.5 -1.5 
L -1.5 -1.5 
z
" style="stroke: #d62728; stroke-linejoin: miter"/>
    </defs>
    <g clip-path="url(#p2187c14b55)">
     <use xlink:href="#mb79178fa67" x="71.725087" y="335.899395" style="fill: #d62728; stroke: #d62728; stroke-linejoin: miter"/>
     <use xlink:href="#mb79178fa67" x="88.712764" y="368.714975" style="fill: #d62728; stroke: #d62728; stroke-linejoin: miter"/>
     <use xlink:href="#mb79178fa67" x="105.700442" y="463.948563" style="fill: #d62728; stroke: #d62728; stroke-linejoin: miter"/>
     <use xlink:href="#mb79178fa67" x="122.688119" y="537.643891" style="fill: #d62728; stroke: #d62728; stroke-linejoin: miter"/>
     <use xlink:href="#mb79178fa67" x="139.675797" y="107.679306" style="fill: #d62728; stroke: #d62728; stroke-linejoin: miter"/>
     <use xlink:href="#mb79178fa67" x="156.663474" y="40.526593" style="fill: #d62728; stroke: #d62728; stroke-linejoin: miter"/>
     <use xlink:href="#mb79178fa67" x="173.651152" y="43.332975" style="fill: #d62728; stroke: #d62728; stroke-linejoin: miter"/>
     <use xlink:href="#mb79178fa67" x="190.63883" y="60.058628" style="fill: #d62728; stroke: #d62728; stroke-linejoin: miter"/>
     <use xlink:href="#mb79178fa67" x="207.626507" y="49.620308" style="fill: #d62728; stroke: #d62728; stroke-linejoin: miter"/>
    </g>
   </g>
   <g id="line2d_22">
    <path d="M 135.389526 149.32 
L 139.675797 86.873879 
L 156.663474 45.348478 
L 173.651152 49.539602 
L 190.63883 63.412692 
L 207.626507 52.694058 
" clip-path="url(#p2187c14b55)" style="fill: none; stroke: #9467bd; stroke-width: 0.7; stroke-linecap: square"/>
    <defs>
     <path id="md3aac1aa14" d="M -1.5 1.5 
L 1.5 1.5 
L 1.5 -1.5 
L -1.5 -1.5 
z
" style="stroke: #9467bd; stroke-linejoin: miter"/>
    </defs>
    <g clip-path="url(#p2187c14b55)">
     <use xlink:href="#md3aac1aa14" x="71.725087" y="369.657989" style="fill: #9467bd; stroke: #9467bd; stroke-linejoin: miter"/>
     <use xlink:href="#md3aac1aa14" x="88.712764" y="416.267031" style="fill: #9467bd; stroke: #9467bd; stroke-linejoin: miter"/>
     <use xlink:href="#md3aac1aa14" x="105.700442" y="531.998757" style="fill: #9467bd; stroke: #9467bd; stroke-linejoin: miter"/>
     <use xlink:href="#md3aac1aa14" x="122.688119" y="334.36511" style="fill: #9467bd; stroke: #9467bd; stroke-linejoin: miter"/>
     <use xlink:href="#md3aac1aa14" x="139.675797" y="86.873879" style="fill: #9467bd; stroke: #9467bd; stroke-linejoin: miter"/>
     <use xlink:href="#md3aac1aa14" x="156.663474" y="45.348478" style="fill: #9467bd; stroke: #9467bd; stroke-linejoin: miter"/>
     <use xlink:href="#md3aac1aa14" x="173.651152" y="49.539602" style="fill: #9467bd; stroke: #9467bd; stroke-linejoin: miter"/>
     <use xlink:href="#md3aac1aa14" x="190.63883" y="63.412692" style="fill: #9467bd; stroke: #9467bd; stroke-linejoin: miter"/>
     <use xlink:href="#md3aac1aa14" x="207.626507" y="52.694058" style="fill: #9467bd; stroke: #9467bd; stroke-linejoin: miter"/>
    </g>
   </g>
   <g id="patch_3">
    <path d="M 64.930016 103.173556 
L 64.930016 16.856519 
" style="fill: none; stroke: #000000; stroke-width: 0.8; stroke-linejoin: miter; stroke-linecap: square"/>
   </g>
   <g id="patch_4">
    <path d="M 214.421578 103.173556 
L 214.421578 16.856519 
" style="fill: none; stroke: #000000; stroke-width: 0.8; stroke-linejoin: miter; stroke-linecap: square"/>
   </g>
   <g id="patch_5">
    <path d="M 64.930016 103.173556 
L 214.421578 103.173556 
" style="fill: none; stroke: #000000; stroke-width: 0.8; stroke-linejoin: miter; stroke-linecap: square"/>
   </g>
   <g id="patch_6">
    <path d="M 64.930016 16.856519 
L 214.421578 16.856519 
" style="fill: none; stroke: #000000; stroke-width: 0.8; stroke-linejoin: miter; stroke-linecap: square"/>
   </g>
   <g id="legend_1">
    <g id="patch_7">
     <path d="M 71.230016 77.247884 
L 130.702926 77.247884 
Q 132.502926 77.247884 132.502926 75.447884 
L 132.502926 23.156519 
Q 132.502926 21.356519 130.702926 21.356519 
L 71.230016 21.356519 
Q 69.430016 21.356519 69.430016 23.156519 
L 69.430016 75.447884 
Q 69.430016 77.247884 71.230016 77.247884 
z
" style="fill: #ffffff; opacity: 0.8; stroke: #cccccc; stroke-linejoin: miter"/>
    </g>
    <g id="line2d_23">
     <path d="M 73.030016 28.195007 
L 82.030016 28.195007 
L 91.030016 28.195007 
" style="fill: none; stroke: #1f77b4; stroke-width: 0.7; stroke-linecap: square"/>
     <g>
      <use xlink:href="#m01bcd0ee67" x="82.030016" y="28.195007" style="fill: #1f77b4; stroke: #1f77b4; stroke-linejoin: miter"/>
     </g>
    </g>
    <g id="text_10">
     <!-- $\hbar\omega$$ =18$ -->
     <g transform="translate(98.230016 31.345007) scale(0.09 -0.09)">
      <defs>
       <path id="MSBM10-7e" d="M 1632 3520 
L 2874 3520 
C 2982 3520 3053 3520 3053 3597 
C 3053 3680 2976 3680 2854 3680 
L 1670 3680 
C 1715 3840 1715 3853 1754 4013 
C 1786 4128 1843 4352 1843 4365 
C 1843 4422 1805 4442 1754 4442 
C 1632 4442 1126 4390 973 4378 
C 922 4371 851 4365 851 4243 
C 851 4173 915 4173 1005 4173 
C 1312 4173 1325 4128 1325 4064 
C 1325 4019 1267 3808 1235 3680 
L 877 3680 
C 749 3680 678 3680 678 3597 
C 678 3520 736 3520 858 3520 
L 1197 3520 
L 378 256 
C 352 160 352 147 352 109 
C 352 -32 461 -70 538 -70 
C 659 -70 749 19 774 102 
C 787 134 858 422 896 582 
L 1043 1152 
C 1062 1248 1126 1491 1146 1587 
C 1178 1690 1222 1888 1229 1907 
C 1280 2016 1626 2688 2266 2688 
C 2547 2688 2611 2458 2611 2246 
C 2611 1850 2317 1069 2202 774 
C 2163 672 2131 582 2131 461 
C 2131 128 2368 -70 2656 -70 
C 3270 -70 3494 877 3494 915 
C 3494 979 3437 979 3418 979 
C 3354 979 3354 960 3322 864 
C 3136 211 2848 70 2675 70 
C 2554 70 2515 147 2515 282 
C 2515 442 2586 621 2624 730 
C 2733 1011 3021 1779 3021 2138 
C 3021 2605 2726 2829 2285 2829 
C 2086 2829 1702 2784 1338 2342 
L 1632 3520 
z
" transform="scale(0.015625)"/>
       <path id="CMMI12-21" d="M 3802 2395 
C 3802 2580 3750 2816 3526 2816 
C 3398 2816 3251 2657 3251 2529 
C 3251 2472 3277 2434 3328 2376 
C 3424 2268 3546 2096 3546 1797 
C 3546 1567 3405 1204 3302 1007 
C 3123 656 2829 357 2496 357 
C 2093 357 1939 615 1869 975 
C 1939 1143 2086 1560 2086 1728 
C 2086 1798 2061 1856 1978 1856 
C 1933 1856 1882 1831 1850 1779 
C 1760 1638 1677 1129 1683 994 
C 1562 756 1216 357 806 357 
C 378 357 262 733 262 1096 
C 262 1758 678 2338 794 2497 
C 858 2593 902 2657 902 2669 
C 902 2714 877 2784 819 2784 
C 717 2784 685 2701 634 2625 
C 307 2121 77 1414 77 803 
C 77 408 224 -64 704 -64 
C 1235 -64 1568 391 1702 634 
C 1754 275 1946 -64 2413 -64 
C 2899 -64 3206 363 3437 879 
C 3603 1249 3802 2045 3802 2395 
z
" transform="scale(0.015625)"/>
       <path id="CMR17-3d" d="M 4115 2017 
C 4211 2017 4307 2017 4307 2125 
C 4307 2240 4198 2240 4090 2240 
L 512 2240 
C 403 2240 294 2240 294 2125 
C 294 2017 390 2017 486 2017 
L 4115 2017 
z
M 4090 896 
C 4198 896 4307 896 4307 1011 
C 4307 1119 4211 1119 4115 1119 
L 486 1119 
C 390 1119 294 1119 294 1011 
C 294 896 403 896 512 896 
L 4090 896 
z
" transform="scale(0.015625)"/>
      </defs>
      <use xlink:href="#MSBM10-7e" transform="scale(0.996264)"/>
      <use xlink:href="#CMMI12-21" transform="translate(53.826182 0) scale(0.996264)"/>
      <use xlink:href="#CMR17-3d" transform="translate(118.144528 0) scale(0.996264)"/>
      <use xlink:href="#CMR17-31" transform="translate(217.533325 0) scale(0.996264)"/>
      <use xlink:href="#CMR17-38" transform="translate(263.223802 0) scale(0.996264)"/>
     </g>
    </g>
    <g id="line2d_24">
     <path d="M 73.030016 38.29328 
L 82.030016 38.29328 
L 91.030016 38.29328 
" style="fill: none; stroke: #ff7f0e; stroke-width: 0.7; stroke-linecap: square"/>
     <g>
      <use xlink:href="#m4e11dcfbc9" x="82.030016" y="38.29328" style="fill: #ff7f0e; stroke: #ff7f0e; stroke-linejoin: miter"/>
     </g>
    </g>
    <g id="text_11">
     <!-- $\hbar\omega$$ =20$ -->
     <g transform="translate(98.230016 41.44328) scale(0.09 -0.09)">
      <use xlink:href="#MSBM10-7e" transform="scale(0.996264)"/>
      <use xlink:href="#CMMI12-21" transform="translate(53.826182 0) scale(0.996264)"/>
      <use xlink:href="#CMR17-3d" transform="translate(118.144528 0) scale(0.996264)"/>
      <use xlink:href="#CMR17-32" transform="translate(217.533325 0) scale(0.996264)"/>
      <use xlink:href="#CMR17-30" transform="translate(263.223802 0) scale(0.996264)"/>
     </g>
    </g>
    <g id="line2d_25">
     <path d="M 73.030016 48.391553 
L 82.030016 48.391553 
L 91.030016 48.391553 
" style="fill: none; stroke: #2ca02c; stroke-width: 0.7; stroke-linecap: square"/>
     <g>
      <use xlink:href="#mf537220b71" x="82.030016" y="48.391553" style="fill: #2ca02c; stroke: #2ca02c; stroke-linejoin: miter"/>
     </g>
    </g>
    <g id="text_12">
     <!-- $\hbar\omega$$ =22$ -->
     <g transform="translate(98.230016 51.541553) scale(0.09 -0.09)">
      <use xlink:href="#MSBM10-7e" transform="scale(0.996264)"/>
      <use xlink:href="#CMMI12-21" transform="translate(53.826182 0) scale(0.996264)"/>
      <use xlink:href="#CMR17-3d" transform="translate(118.144528 0) scale(0.996264)"/>
      <use xlink:href="#CMR17-32" transform="translate(217.533325 0) scale(0.996264)"/>
      <use xlink:href="#CMR17-32" transform="translate(263.223802 0) scale(0.996264)"/>
     </g>
    </g>
    <g id="line2d_26">
     <path d="M 73.030016 58.489826 
L 82.030016 58.489826 
L 91.030016 58.489826 
" style="fill: none; stroke: #d62728; stroke-width: 0.7; stroke-linecap: square"/>
     <g>
      <use xlink:href="#mb79178fa67" x="82.030016" y="58.489826" style="fill: #d62728; stroke: #d62728; stroke-linejoin: miter"/>
     </g>
    </g>
    <g id="text_13">
     <!-- $\hbar\omega$$ =24$ -->
     <g transform="translate(98.230016 61.639826) scale(0.09 -0.09)">
      <defs>
       <path id="CMR17-34" d="M 2150 4122 
C 2150 4256 2144 4256 2029 4256 
L 128 1254 
L 128 1088 
L 1779 1088 
L 1779 457 
C 1779 224 1766 160 1318 160 
L 1197 160 
L 1197 0 
C 1402 0 1747 0 1965 0 
C 2182 0 2528 0 2733 0 
L 2733 160 
L 2611 160 
C 2163 160 2150 224 2150 457 
L 2150 1088 
L 2803 1088 
L 2803 1254 
L 2150 1254 
L 2150 4122 
z
M 1798 3703 
L 1798 1254 
L 256 1254 
L 1798 3703 
z
" transform="scale(0.015625)"/>
      </defs>
      <use xlink:href="#MSBM10-7e" transform="scale(0.996264)"/>
      <use xlink:href="#CMMI12-21" transform="translate(53.826182 0) scale(0.996264)"/>
      <use xlink:href="#CMR17-3d" transform="translate(118.144528 0) scale(0.996264)"/>
      <use xlink:href="#CMR17-32" transform="translate(217.533325 0) scale(0.996264)"/>
      <use xlink:href="#CMR17-34" transform="translate(263.223802 0) scale(0.996264)"/>
     </g>
    </g>
    <g id="line2d_27">
     <path d="M 73.030016 68.588099 
L 82.030016 68.588099 
L 91.030016 68.588099 
" style="fill: none; stroke: #9467bd; stroke-width: 0.7; stroke-linecap: square"/>
     <g>
      <use xlink:href="#md3aac1aa14" x="82.030016" y="68.588099" style="fill: #9467bd; stroke: #9467bd; stroke-linejoin: miter"/>
     </g>
    </g>
    <g id="text_14">
     <!-- $\hbar\omega$$ =26$ -->
     <g transform="translate(98.230016 71.738099) scale(0.09 -0.09)">
      <use xlink:href="#MSBM10-7e" transform="scale(0.996264)"/>
      <use xlink:href="#CMMI12-21" transform="translate(53.826182 0) scale(0.996264)"/>
      <use xlink:href="#CMR17-3d" transform="translate(118.144528 0) scale(0.996264)"/>
      <use xlink:href="#CMR17-32" transform="translate(217.533325 0) scale(0.996264)"/>
      <use xlink:href="#CMR17-36" transform="translate(263.223802 0) scale(0.996264)"/>
     </g>
    </g>
   </g>
  </g>
  <g id="axes_2">
   <g id="patch_8">
    <path d="M 273.874829 103.173556 
L 423.366391 103.173556 
L 423.366391 16.856519 
L 273.874829 16.856519 
z
" style="fill: #ffffff"/>
   </g>
   <g id="matplotlib.axis_3">
    <g id="xtick_8">
     <g id="line2d_28">
      <g>
       <use xlink:href="#m4bb461161a" x="289.163738" y="103.173556" style="stroke: #000000; stroke-width: 0.8"/>
      </g>
     </g>
     <g id="text_15">
      <!-- $\mathdefault{5}$ -->
      <g transform="translate(286.424005 117.981709) scale(0.11 -0.11)">
       <use xlink:href="#CMR17-35" transform="scale(0.996264)"/>
      </g>
     </g>
    </g>
    <g id="xtick_9">
     <g id="line2d_29">
      <g>
       <use xlink:href="#m4bb461161a" x="331.632932" y="103.173556" style="stroke: #000000; stroke-width: 0.8"/>
      </g>
     </g>
     <g id="text_16">
      <!-- $\mathdefault{10}$ -->
      <g transform="translate(326.153465 117.981709) scale(0.11 -0.11)">
       <use xlink:href="#CMR17-31" transform="scale(0.996264)"/>
       <use xlink:href="#CMR17-30" transform="translate(45.690477 0) scale(0.996264)"/>
      </g>
     </g>
    </g>
    <g id="xtick_10">
     <g id="line2d_30">
      <g>
       <use xlink:href="#m4bb461161a" x="374.102126" y="103.173556" style="stroke: #000000; stroke-width: 0.8"/>
      </g>
     </g>
     <g id="text_17">
      <!-- $\mathdefault{15}$ -->
      <g transform="translate(368.622659 117.981709) scale(0.11 -0.11)">
       <use xlink:href="#CMR17-31" transform="scale(0.996264)"/>
       <use xlink:href="#CMR17-35" transform="translate(45.690477 0) scale(0.996264)"/>
      </g>
     </g>
    </g>
    <g id="xtick_11">
     <g id="line2d_31">
      <g>
       <use xlink:href="#m4bb461161a" x="416.57132" y="103.173556" style="stroke: #000000; stroke-width: 0.8"/>
      </g>
     </g>
     <g id="text_18">
      <!-- $\mathdefault{20}$ -->
      <g transform="translate(411.091853 117.981709) scale(0.11 -0.11)">
       <use xlink:href="#CMR17-32" transform="scale(0.996264)"/>
       <use xlink:href="#CMR17-30" transform="translate(45.690477 0) scale(0.996264)"/>
      </g>
     </g>
    </g>
    <g id="xtick_12">
     <g id="line2d_32">
      <g>
       <use xlink:href="#mbabb172b6d" x="310.398335" y="103.173556" style="stroke: #000000; stroke-width: 0.6"/>
      </g>
     </g>
    </g>
    <g id="xtick_13">
     <g id="line2d_33">
      <g>
       <use xlink:href="#mbabb172b6d" x="352.867529" y="103.173556" style="stroke: #000000; stroke-width: 0.6"/>
      </g>
     </g>
    </g>
    <g id="xtick_14">
     <g id="line2d_34">
      <g>
       <use xlink:href="#mbabb172b6d" x="395.336723" y="103.173556" style="stroke: #000000; stroke-width: 0.6"/>
      </g>
     </g>
    </g>
    <g id="text_19">
     <!-- $\mathrm{N_{max}}$ -->
     <g transform="translate(336.352657 132.833866) scale(0.12 -0.12)">
      <use xlink:href="#CMR17-4e" transform="scale(0.996264)"/>
      <use xlink:href="#CMR17-6d" transform="translate(69.07243 -14.943915) scale(0.697382)"/>
      <use xlink:href="#CMR17-61" transform="translate(122.915896 -14.943915) scale(0.697382)"/>
      <use xlink:href="#CMR17-78" transform="translate(154.899078 -14.943915) scale(0.697382)"/>
     </g>
    </g>
   </g>
   <g id="matplotlib.axis_4">
    <g id="ytick_10">
     <g id="line2d_35">
      <g>
       <use xlink:href="#mdb69fe8a51" x="273.874829" y="92.383927" style="stroke: #000000; stroke-width: 0.8"/>
      </g>
     </g>
     <g id="text_20">
      <!-- $\mathdefault{−4}$ -->
      <g transform="translate(252.871752 96.288003) scale(0.11 -0.11)">
       <use xlink:href="#CMSY10-0" transform="scale(0.996264)"/>
       <use xlink:href="#CMR17-34" transform="translate(77.487468 0) scale(0.996264)"/>
      </g>
     </g>
    </g>
    <g id="ytick_11">
     <g id="line2d_36">
      <g>
       <use xlink:href="#mdb69fe8a51" x="273.874829" y="49.225408" style="stroke: #000000; stroke-width: 0.8"/>
      </g>
     </g>
     <g id="text_21">
      <!-- $\mathdefault{−2}$ -->
      <g transform="translate(252.871752 53.129484) scale(0.11 -0.11)">
       <use xlink:href="#CMSY10-0" transform="scale(0.996264)"/>
       <use xlink:href="#CMR17-32" transform="translate(77.487468 0) scale(0.996264)"/>
      </g>
     </g>
    </g>
    <g id="ytick_12">
     <g id="line2d_37">
      <g>
       <use xlink:href="#m691550d0cf" x="273.874829" y="103.173556" style="stroke: #000000; stroke-width: 0.6"/>
      </g>
     </g>
    </g>
    <g id="ytick_13">
     <g id="line2d_38">
      <g>
       <use xlink:href="#m691550d0cf" x="273.874829" y="81.594297" style="stroke: #000000; stroke-width: 0.6"/>
      </g>
     </g>
    </g>
    <g id="ytick_14">
     <g id="line2d_39">
      <g>
       <use xlink:href="#m691550d0cf" x="273.874829" y="70.804667" style="stroke: #000000; stroke-width: 0.6"/>
      </g>
     </g>
    </g>
    <g id="ytick_15">
     <g id="line2d_40">
      <g>
       <use xlink:href="#m691550d0cf" x="273.874829" y="60.015038" style="stroke: #000000; stroke-width: 0.6"/>
      </g>
     </g>
    </g>
    <g id="ytick_16">
     <g id="line2d_41">
      <g>
       <use xlink:href="#m691550d0cf" x="273.874829" y="38.435778" style="stroke: #000000; stroke-width: 0.6"/>
      </g>
     </g>
    </g>
    <g id="ytick_17">
     <g id="line2d_42">
      <g>
       <use xlink:href="#m691550d0cf" x="273.874829" y="27.646149" style="stroke: #000000; stroke-width: 0.6"/>
      </g>
     </g>
    </g>
    <g id="ytick_18">
     <g id="line2d_43">
      <g>
       <use xlink:href="#m691550d0cf" x="273.874829" y="16.856519" style="stroke: #000000; stroke-width: 0.6"/>
      </g>
     </g>
    </g>
    <g id="text_22">
     <!-- $\mathcal{I}m\left(\mathrm{E^{0^{+}0}_{1}}\right)\ [\SI[]{}{\mega\eV}]$ -->
     <g transform="translate(241.100784 106.819676) rotate(-90) scale(0.12 -0.12)">
      <defs>
       <path id="CMSY10-49" d="M 2272 4352 
C 1478 4352 1133 4206 979 4148 
C 326 3874 179 3441 179 3358 
C 179 3313 211 3307 250 3307 
C 365 3307 672 3468 723 3608 
C 800 3853 819 3911 1248 3969 
C 1466 3994 1677 3994 1894 3994 
L 2477 3994 
C 2074 3606 1888 2925 1658 2007 
C 1472 1256 1325 760 1062 423 
C 998 352 992 352 819 352 
L 410 352 
C 288 352 218 352 58 256 
C -13 218 -154 109 -154 45 
C -154 6 -147 0 -6 0 
L 2182 0 
C 2931 0 3488 556 3488 785 
C 3488 830 3437 830 3418 830 
C 3309 830 3008 684 2944 524 
C 2899 390 2880 352 2560 352 
L 1338 352 
C 1792 740 1984 1371 2202 2236 
C 2374 2931 2528 3548 2790 3936 
C 2829 3994 2835 3994 2963 3994 
L 3507 3994 
C 3635 3994 3693 3994 3859 4092 
C 3917 4125 4064 4230 4064 4307 
C 4064 4346 4058 4352 3917 4352 
L 2272 4352 
z
" transform="scale(0.015625)"/>
       <path id="CMMI12-6d" d="M 1318 1871 
C 1331 1910 1491 2229 1728 2433 
C 1894 2586 2112 2689 2362 2689 
C 2618 2689 2707 2497 2707 2242 
C 2707 2203 2707 2076 2630 1775 
L 2470 1118 
C 2419 926 2298 453 2285 383 
C 2259 287 2221 121 2221 96 
C 2221 6 2291 -64 2387 -64 
C 2579 -64 2611 83 2669 313 
L 3053 1839 
C 3066 1890 3398 2689 4102 2689 
C 4358 2689 4448 2497 4448 2242 
C 4448 1884 4198 1188 4058 805 
C 4000 651 3968 568 3968 453 
C 3968 166 4166 -64 4474 -64 
C 5069 -64 5293 875 5293 913 
C 5293 945 5267 971 5229 971 
C 5171 971 5165 952 5133 843 
C 4986 332 4749 64 4493 64 
C 4429 64 4326 64 4326 269 
C 4326 436 4403 640 4429 710 
C 4544 1018 4832 1773 4832 2145 
C 4832 2528 4608 2816 4122 2816 
C 3693 2816 3347 2574 3091 2197 
C 3072 2542 2861 2816 2381 2816 
C 1811 2816 1510 2415 1395 2255 
C 1376 2618 1114 2816 832 2816 
C 646 2816 499 2727 378 2484 
C 262 2254 173 1865 173 1839 
C 173 1814 198 1782 243 1782 
C 294 1782 301 1788 339 1935 
C 435 2312 557 2689 813 2689 
C 960 2689 1011 2586 1011 2395 
C 1011 2254 947 2005 902 1807 
L 723 1118 
C 698 996 627 709 595 594 
C 550 428 480 128 480 96 
C 480 6 550 -64 646 -64 
C 723 -64 813 -26 864 70 
C 877 102 934 326 966 453 
L 1107 1028 
L 1318 1871 
z
" transform="scale(0.015625)"/>
      </defs>
      <use xlink:href="#CMSY10-49" transform="scale(0.996264)"/>
      <use xlink:href="#CMMI12-6d" transform="translate(61.602745 0) scale(0.996264)"/>
      <use xlink:href="#CMEX10-10" transform="translate(163.534375 110.586308) scale(0.996264)"/>
      <use xlink:href="#CMR17-45" transform="translate(223.033665 0) scale(0.996264)"/>
      <use xlink:href="#CMR17-30" transform="translate(285.619965 36.153639) scale(0.697382)"/>
      <use xlink:href="#CMR17-2b" transform="translate(317.603147 61.461065) scale(0.498132)"/>
      <use xlink:href="#CMR17-30" transform="translate(353.958666 36.153639) scale(0.697382)"/>
      <use xlink:href="#CMR17-31" transform="translate(285.619965 -24.740171) scale(0.697382)"/>
      <use xlink:href="#CMEX10-11" transform="translate(386.43998 110.586308) scale(0.996264)"/>
      <use xlink:href="#CMR17-5b" transform="translate(490.238844 0) scale(0.996264)"/>
      <use xlink:href="#CMR17-4d" transform="translate(515.109903 0) scale(0.996264)"/>
      <use xlink:href="#CMR17-65" transform="translate(599.796843 0) scale(0.996264)"/>
      <use xlink:href="#CMR17-56" transform="translate(640.282504 0) scale(0.996264)"/>
      <use xlink:href="#CMR17-5d" transform="translate(710.6561 0) scale(0.996264)"/>
     </g>
    </g>
   </g>
   <g id="line2d_44">
    <path d="M 280.6699 142.11743 
L 297.657577 36.390712 
L 314.645255 51.168836 
L 324.804031 -1 
M 365.666699 -1 
L 366.047569 149.32 
M 399.325254 149.32 
L 399.583642 48.44316 
L 416.57132 41.540818 
" clip-path="url(#pf87666de43)" style="fill: none; stroke: #1f77b4; stroke-width: 0.7; stroke-linecap: square"/>
    <g clip-path="url(#pf87666de43)">
     <use xlink:href="#m01bcd0ee67" x="280.6699" y="142.11743" style="fill: #1f77b4; stroke: #1f77b4; stroke-linejoin: miter"/>
     <use xlink:href="#m01bcd0ee67" x="297.657577" y="36.390712" style="fill: #1f77b4; stroke: #1f77b4; stroke-linejoin: miter"/>
     <use xlink:href="#m01bcd0ee67" x="314.645255" y="51.168836" style="fill: #1f77b4; stroke: #1f77b4; stroke-linejoin: miter"/>
     <use xlink:href="#m01bcd0ee67" x="324.804031" y="-1" style="fill: #1f77b4; stroke: #1f77b4; stroke-linejoin: miter"/>
     <use xlink:href="#m01bcd0ee67" x="365.666699" y="-1" style="fill: #1f77b4; stroke: #1f77b4; stroke-linejoin: miter"/>
     <use xlink:href="#m01bcd0ee67" x="382.595965" y="6680.574981" style="fill: #1f77b4; stroke: #1f77b4; stroke-linejoin: miter"/>
     <use xlink:href="#m01bcd0ee67" x="399.583642" y="48.44316" style="fill: #1f77b4; stroke: #1f77b4; stroke-linejoin: miter"/>
     <use xlink:href="#m01bcd0ee67" x="416.57132" y="41.540818" style="fill: #1f77b4; stroke: #1f77b4; stroke-linejoin: miter"/>
    </g>
   </g>
   <g id="line2d_45">
    <path d="M 273.874829 41.540818 
L 423.366391 41.540818 
" clip-path="url(#pf87666de43)" style="fill: none; stroke-dasharray: 1,1.65; stroke-dashoffset: 0; stroke: #000000"/>
   </g>
   <g id="line2d_46">
    <path d="M 281.951448 149.32 
L 297.657577 16.040154 
L 314.645255 2.399537 
L 315.430204 -1 
M 348.679491 -1 
L 349.053903 149.32 
M 382.403356 149.32 
L 382.595965 73.09919 
L 399.583642 40.418912 
L 416.57132 37.938376 
" clip-path="url(#pf87666de43)" style="fill: none; stroke: #ff7f0e; stroke-width: 0.7; stroke-linecap: square"/>
    <g clip-path="url(#pf87666de43)">
     <use xlink:href="#m4e11dcfbc9" x="280.6699" y="160.195023" style="fill: #ff7f0e; stroke: #ff7f0e; stroke-linejoin: miter"/>
     <use xlink:href="#m4e11dcfbc9" x="297.657577" y="16.040154" style="fill: #ff7f0e; stroke: #ff7f0e; stroke-linejoin: miter"/>
     <use xlink:href="#m4e11dcfbc9" x="314.645255" y="2.399537" style="fill: #ff7f0e; stroke: #ff7f0e; stroke-linejoin: miter"/>
     <use xlink:href="#m4e11dcfbc9" x="315.430204" y="-1" style="fill: #ff7f0e; stroke: #ff7f0e; stroke-linejoin: miter"/>
     <use xlink:href="#m4e11dcfbc9" x="348.679491" y="-1" style="fill: #ff7f0e; stroke: #ff7f0e; stroke-linejoin: miter"/>
     <use xlink:href="#m4e11dcfbc9" x="365.608287" y="6795.614013" style="fill: #ff7f0e; stroke: #ff7f0e; stroke-linejoin: miter"/>
     <use xlink:href="#m4e11dcfbc9" x="382.595965" y="73.09919" style="fill: #ff7f0e; stroke: #ff7f0e; stroke-linejoin: miter"/>
     <use xlink:href="#m4e11dcfbc9" x="399.583642" y="40.418912" style="fill: #ff7f0e; stroke: #ff7f0e; stroke-linejoin: miter"/>
     <use xlink:href="#m4e11dcfbc9" x="416.57132" y="37.938376" style="fill: #ff7f0e; stroke: #ff7f0e; stroke-linejoin: miter"/>
    </g>
   </g>
   <g id="line2d_47">
    <path d="M 280.6699 125.539596 
L 296.465891 -1 
M 331.752923 -1 
L 332.141316 149.32 
M 365.420739 149.32 
L 365.608287 78.119389 
L 382.595965 77.024457 
L 399.583642 39.434466 
L 416.57132 41.768911 
" clip-path="url(#pf87666de43)" style="fill: none; stroke: #2ca02c; stroke-width: 0.7; stroke-linecap: square"/>
    <g clip-path="url(#pf87666de43)">
     <use xlink:href="#mf537220b71" x="280.6699" y="125.539596" style="fill: #2ca02c; stroke: #2ca02c; stroke-linejoin: miter"/>
     <use xlink:href="#mf537220b71" x="296.465891" y="-1" style="fill: #2ca02c; stroke: #2ca02c; stroke-linejoin: miter"/>
     <use xlink:href="#mf537220b71" x="331.752923" y="-1" style="fill: #2ca02c; stroke: #2ca02c; stroke-linejoin: miter"/>
     <use xlink:href="#mf537220b71" x="348.62061" y="6527.31908" style="fill: #2ca02c; stroke: #2ca02c; stroke-linejoin: miter"/>
     <use xlink:href="#mf537220b71" x="365.608287" y="78.119389" style="fill: #2ca02c; stroke: #2ca02c; stroke-linejoin: miter"/>
     <use xlink:href="#mf537220b71" x="382.595965" y="77.024457" style="fill: #2ca02c; stroke: #2ca02c; stroke-linejoin: miter"/>
     <use xlink:href="#mf537220b71" x="399.583642" y="39.434466" style="fill: #2ca02c; stroke: #2ca02c; stroke-linejoin: miter"/>
     <use xlink:href="#mf537220b71" x="416.57132" y="41.768911" style="fill: #2ca02c; stroke: #2ca02c; stroke-linejoin: miter"/>
    </g>
   </g>
   <g id="line2d_48">
    <path d="M 280.6699 96.489812 
L 292.881954 -1 
M 323.652916 -1 
L 331.632932 39.612279 
L 348.62061 124.0038 
L 365.608287 81.084163 
L 382.595965 74.53119 
L 399.583642 49.109959 
L 416.57132 47.725865 
" clip-path="url(#pf87666de43)" style="fill: none; stroke: #d62728; stroke-width: 0.7; stroke-linecap: square"/>
    <g clip-path="url(#pf87666de43)">
     <use xlink:href="#mb79178fa67" x="280.6699" y="96.489812" style="fill: #d62728; stroke: #d62728; stroke-linejoin: miter"/>
     <use xlink:href="#mb79178fa67" x="292.881954" y="-1" style="fill: #d62728; stroke: #d62728; stroke-linejoin: miter"/>
     <use xlink:href="#mb79178fa67" x="323.652916" y="-1" style="fill: #d62728; stroke: #d62728; stroke-linejoin: miter"/>
     <use xlink:href="#mb79178fa67" x="331.632932" y="39.612279" style="fill: #d62728; stroke: #d62728; stroke-linejoin: miter"/>
     <use xlink:href="#mb79178fa67" x="348.62061" y="124.0038" style="fill: #d62728; stroke: #d62728; stroke-linejoin: miter"/>
     <use xlink:href="#mb79178fa67" x="365.608287" y="81.084163" style="fill: #d62728; stroke: #d62728; stroke-linejoin: miter"/>
     <use xlink:href="#mb79178fa67" x="382.595965" y="74.53119" style="fill: #d62728; stroke: #d62728; stroke-linejoin: miter"/>
     <use xlink:href="#mb79178fa67" x="399.583642" y="49.109959" style="fill: #d62728; stroke: #d62728; stroke-linejoin: miter"/>
     <use xlink:href="#mb79178fa67" x="416.57132" y="47.725865" style="fill: #d62728; stroke: #d62728; stroke-linejoin: miter"/>
    </g>
   </g>
   <g id="line2d_49">
    <path d="M 280.6699 79.865583 
L 290.369448 -1 
M 314.664291 -1 
L 315.019975 149.32 
M 352.388357 149.32 
L 365.608287 82.747493 
L 382.595965 78.83431 
L 399.583642 67.982532 
L 416.57132 52.699885 
" clip-path="url(#pf87666de43)" style="fill: none; stroke: #9467bd; stroke-width: 0.7; stroke-linecap: square"/>
    <g clip-path="url(#pf87666de43)">
     <use xlink:href="#md3aac1aa14" x="280.6699" y="79.865583" style="fill: #9467bd; stroke: #9467bd; stroke-linejoin: miter"/>
     <use xlink:href="#md3aac1aa14" x="290.369448" y="-1" style="fill: #9467bd; stroke: #9467bd; stroke-linejoin: miter"/>
     <use xlink:href="#md3aac1aa14" x="314.664291" y="-1" style="fill: #9467bd; stroke: #9467bd; stroke-linejoin: miter"/>
     <use xlink:href="#md3aac1aa14" x="331.632932" y="7170.316273" style="fill: #9467bd; stroke: #9467bd; stroke-linejoin: miter"/>
     <use xlink:href="#md3aac1aa14" x="348.62061" y="168.293503" style="fill: #9467bd; stroke: #9467bd; stroke-linejoin: miter"/>
     <use xlink:href="#md3aac1aa14" x="365.608287" y="82.747493" style="fill: #9467bd; stroke: #9467bd; stroke-linejoin: miter"/>
     <use xlink:href="#md3aac1aa14" x="382.595965" y="78.83431" style="fill: #9467bd; stroke: #9467bd; stroke-linejoin: miter"/>
     <use xlink:href="#md3aac1aa14" x="399.583642" y="67.982532" style="fill: #9467bd; stroke: #9467bd; stroke-linejoin: miter"/>
     <use xlink:href="#md3aac1aa14" x="416.57132" y="52.699885" style="fill: #9467bd; stroke: #9467bd; stroke-linejoin: miter"/>
    </g>
   </g>
   <g id="patch_9">
    <path d="M 273.874829 103.173556 
L 273.874829 16.856519 
" style="fill: none; stroke: #000000; stroke-width: 0.8; stroke-linejoin: miter; stroke-linecap: square"/>
   </g>
   <g id="patch_10">
    <path d="M 423.366391 103.173556 
L 423.366391 16.856519 
" style="fill: none; stroke: #000000; stroke-width: 0.8; stroke-linejoin: miter; stroke-linecap: square"/>
   </g>
   <g id="patch_11">
    <path d="M 273.874829 103.173556 
L 423.366391 103.173556 
" style="fill: none; stroke: #000000; stroke-width: 0.8; stroke-linejoin: miter; stroke-linecap: square"/>
   </g>
   <g id="patch_12">
    <path d="M 273.874829 16.856519 
L 423.366391 16.856519 
" style="fill: none; stroke: #000000; stroke-width: 0.8; stroke-linejoin: miter; stroke-linecap: square"/>
   </g>
  </g>
 </g>
 <defs>
  <clipPath id="p2187c14b55">
   <rect x="64.930016" y="16.856519" width="149.491562" height="86.317038"/>
  </clipPath>
  <clipPath id="pf87666de43">
   <rect x="273.874829" y="16.856519" width="149.491562" height="86.317038"/>
  </clipPath>
 </defs>
</svg>
