<?xml version="1.0" encoding="utf-8" standalone="no"?>
<!DOCTYPE svg PUBLIC "-//W3C//DTD SVG 1.1//EN"
  "http://www.w3.org/Graphics/SVG/1.1/DTD/svg11.dtd">
<svg xmlns:xlink="http://www.w3.org/1999/xlink" width="436.32pt" height="296.64pt" viewBox="0 0 436.32 296.64" xmlns="http://www.w3.org/2000/svg" version="1.1">
 <metadata>
  <rdf:RDF xmlns:dc="http://purl.org/dc/elements/1.1/" xmlns:cc="http://creativecommons.org/ns#" xmlns:rdf="http://www.w3.org/1999/02/22-rdf-syntax-ns#">
   <cc:Work>
    <dc:type rdf:resource="http://purl.org/dc/dcmitype/StillImage"/>
    <dc:date>2024-08-21T15:17:08.604373</dc:date>
    <dc:format>image/svg+xml</dc:format>
    <dc:creator>
     <cc:Agent>
      <dc:title>Matplotlib v3.8.0, https://matplotlib.org/</dc:title>
     </cc:Agent>
    </dc:creator>
   </cc:Work>
  </rdf:RDF>
 </metadata>
 <defs>
  <style type="text/css">*{stroke-linejoin: round; stroke-linecap: butt}</style>
 </defs>
 <g id="figure_1">
  <g id="patch_1">
   <path d="M 0 296.64 
L 436.32 296.64 
L 436.32 0 
L 0 0 
z
" style="fill: #ffffff"/>
  </g>
  <g id="axes_1">
   <g id="patch_2">
    <path d="M 56.7216 134.027345 
L 209.4336 134.027345 
L 209.4336 35.5968 
L 56.7216 35.5968 
z
" style="fill: #ffffff"/>
   </g>
   <g id="PathCollection_1">
    <defs>
     <path id="m69ffcc354c" d="M -5 5 
L 5 -5 
M -5 -5 
L 5 5 
" style="stroke: #0000ff"/>
    </defs>
    <g clip-path="url(#p3ace819035)">
     <use xlink:href="#m69ffcc354c" x="62.079428" y="53.745602" style="fill: #0000ff; stroke: #0000ff"/>
     <use xlink:href="#m69ffcc354c" x="139.407552" y="53.959773" style="fill: #0000ff; stroke: #0000ff"/>
     <use xlink:href="#m69ffcc354c" x="170.580053" y="55.576241" style="fill: #0000ff; stroke: #0000ff"/>
     <use xlink:href="#m69ffcc354c" x="175.582365" y="55.278104" style="fill: #0000ff; stroke: #0000ff"/>
     <use xlink:href="#m69ffcc354c" x="178.154043" y="55.224003" style="fill: #0000ff; stroke: #0000ff"/>
     <use xlink:href="#m69ffcc354c" x="194.710595" y="55.281289" style="fill: #0000ff; stroke: #0000ff"/>
     <use xlink:href="#m69ffcc354c" x="196.117941" y="55.783321" style="fill: #0000ff; stroke: #0000ff"/>
    </g>
   </g>
   <g id="matplotlib.axis_1">
    <g id="xtick_1">
     <g id="line2d_1">
      <defs>
       <path id="m6e82707938" d="M 0 0 
L 0 3.5 
" style="stroke: #000000; stroke-width: 0.8"/>
      </defs>
      <g>
       <use xlink:href="#m6e82707938" x="57.888855" y="134.027345" style="stroke: #000000; stroke-width: 0.8"/>
      </g>
     </g>
     <g id="text_1">
      <!-- $\mathdefault{−30}$ -->
      <g transform="translate(48.147584 148.835498) scale(0.11 -0.11)">
       <defs>
        <path id="CMSY10-0" d="M 4218 1472 
C 4326 1472 4442 1472 4442 1600 
C 4442 1728 4326 1728 4218 1728 
L 755 1728 
C 646 1728 531 1728 531 1600 
C 531 1472 646 1472 755 1472 
L 4218 1472 
z
" transform="scale(0.015625)"/>
        <path id="CMR17-33" d="M 1414 2157 
C 1984 2157 2234 1662 2234 1090 
C 2234 320 1824 25 1453 25 
C 1114 25 563 194 390 693 
C 422 680 454 680 486 680 
C 640 680 755 782 755 948 
C 755 1133 614 1216 486 1216 
C 378 1216 211 1165 211 926 
C 211 335 787 -128 1466 -128 
C 2176 -128 2720 430 2720 1085 
C 2720 1707 2208 2157 1600 2227 
C 2086 2328 2554 2756 2554 3329 
C 2554 3820 2048 4179 1472 4179 
C 890 4179 378 3829 378 3329 
C 378 3110 544 3072 627 3072 
C 762 3072 877 3155 877 3321 
C 877 3486 762 3569 627 3569 
C 602 3569 570 3569 544 3557 
C 730 3959 1235 4032 1459 4032 
C 1683 4032 2106 3925 2106 3320 
C 2106 3143 2080 2828 1862 2550 
C 1670 2304 1453 2304 1242 2284 
C 1210 2284 1062 2269 1037 2269 
C 992 2263 966 2257 966 2208 
C 966 2163 973 2157 1101 2157 
L 1414 2157 
z
" transform="scale(0.015625)"/>
        <path id="CMR17-30" d="M 2688 2025 
C 2688 2416 2682 3080 2413 3591 
C 2176 4039 1798 4198 1466 4198 
C 1158 4198 768 4058 525 3597 
C 269 3118 243 2524 243 2025 
C 243 1661 250 1106 448 619 
C 723 -39 1216 -128 1466 -128 
C 1760 -128 2208 -7 2470 600 
C 2662 1042 2688 1559 2688 2025 
z
M 1466 -26 
C 1056 -26 813 325 723 812 
C 653 1188 653 1738 653 2096 
C 653 2588 653 2997 736 3387 
C 858 3929 1216 4096 1466 4096 
C 1728 4096 2067 3923 2189 3400 
C 2272 3036 2278 2607 2278 2096 
C 2278 1680 2278 1169 2202 792 
C 2067 95 1690 -26 1466 -26 
z
" transform="scale(0.015625)"/>
       </defs>
       <use xlink:href="#CMSY10-0" transform="scale(0.996264)"/>
       <use xlink:href="#CMR17-33" transform="translate(77.487468 0) scale(0.996264)"/>
       <use xlink:href="#CMR17-30" transform="translate(123.177945 0) scale(0.996264)"/>
      </g>
     </g>
    </g>
    <g id="xtick_2">
     <g id="line2d_2">
      <g>
       <use xlink:href="#m6e82707938" x="93.970937" y="134.027345" style="stroke: #000000; stroke-width: 0.8"/>
      </g>
     </g>
     <g id="text_2">
      <!-- $\mathdefault{−20}$ -->
      <g transform="translate(84.229666 148.835498) scale(0.11 -0.11)">
       <defs>
        <path id="CMR17-32" d="M 2669 989 
L 2554 989 
C 2490 536 2438 459 2413 420 
C 2381 369 1920 369 1830 369 
L 602 369 
C 832 619 1280 1072 1824 1597 
C 2214 1967 2669 2402 2669 3035 
C 2669 3790 2067 4224 1395 4224 
C 691 4224 262 3604 262 3030 
C 262 2780 448 2748 525 2748 
C 589 2748 781 2787 781 3010 
C 781 3207 614 3264 525 3264 
C 486 3264 448 3258 422 3245 
C 544 3790 915 4058 1306 4058 
C 1862 4058 2227 3617 2227 3035 
C 2227 2479 1901 2000 1536 1584 
L 262 146 
L 262 0 
L 2515 0 
L 2669 989 
z
" transform="scale(0.015625)"/>
       </defs>
       <use xlink:href="#CMSY10-0" transform="scale(0.996264)"/>
       <use xlink:href="#CMR17-32" transform="translate(77.487468 0) scale(0.996264)"/>
       <use xlink:href="#CMR17-30" transform="translate(123.177945 0) scale(0.996264)"/>
      </g>
     </g>
    </g>
    <g id="xtick_3">
     <g id="line2d_3">
      <g>
       <use xlink:href="#m6e82707938" x="130.053019" y="134.027345" style="stroke: #000000; stroke-width: 0.8"/>
      </g>
     </g>
     <g id="text_3">
      <!-- $\mathdefault{−10}$ -->
      <g transform="translate(120.311748 148.835498) scale(0.11 -0.11)">
       <defs>
        <path id="CMR17-31" d="M 1702 4058 
C 1702 4192 1696 4192 1606 4192 
C 1357 3916 979 3827 621 3827 
C 602 3827 570 3827 563 3808 
C 557 3795 557 3782 557 3648 
C 755 3648 1088 3686 1344 3839 
L 1344 461 
C 1344 236 1331 160 781 160 
L 589 160 
L 589 0 
C 896 0 1216 0 1523 0 
C 1830 0 2150 0 2458 0 
L 2458 160 
L 2266 160 
C 1715 160 1702 230 1702 458 
L 1702 4058 
z
" transform="scale(0.015625)"/>
       </defs>
       <use xlink:href="#CMSY10-0" transform="scale(0.996264)"/>
       <use xlink:href="#CMR17-31" transform="translate(77.487468 0) scale(0.996264)"/>
       <use xlink:href="#CMR17-30" transform="translate(123.177945 0) scale(0.996264)"/>
      </g>
     </g>
    </g>
    <g id="xtick_4">
     <g id="line2d_4">
      <g>
       <use xlink:href="#m6e82707938" x="166.135102" y="134.027345" style="stroke: #000000; stroke-width: 0.8"/>
      </g>
     </g>
     <g id="text_4">
      <!-- $\mathdefault{0}$ -->
      <g transform="translate(163.395368 148.835498) scale(0.11 -0.11)">
       <use xlink:href="#CMR17-30" transform="scale(0.996264)"/>
      </g>
     </g>
    </g>
    <g id="xtick_5">
     <g id="line2d_5">
      <g>
       <use xlink:href="#m6e82707938" x="202.217184" y="134.027345" style="stroke: #000000; stroke-width: 0.8"/>
      </g>
     </g>
     <g id="text_5">
      <!-- $\mathdefault{10}$ -->
      <g transform="translate(196.737716 148.835498) scale(0.11 -0.11)">
       <use xlink:href="#CMR17-31" transform="scale(0.996264)"/>
       <use xlink:href="#CMR17-30" transform="translate(45.690477 0) scale(0.996264)"/>
      </g>
     </g>
    </g>
   </g>
   <g id="matplotlib.axis_2">
    <g id="ytick_1">
     <g id="line2d_6">
      <defs>
       <path id="mc286d0aa77" d="M 0 0 
L -3.5 0 
" style="stroke: #000000; stroke-width: 0.8"/>
      </defs>
      <g>
       <use xlink:href="#mc286d0aa77" x="56.7216" y="120.604998" style="stroke: #000000; stroke-width: 0.8"/>
      </g>
     </g>
     <g id="text_6">
      <!-- $\mathdefault{−7.5}$ -->
      <g transform="translate(27.194915 124.509074) scale(0.11 -0.11)">
       <defs>
        <path id="CMR17-37" d="M 2886 3941 
L 2886 4081 
L 1382 4081 
C 634 4081 621 4165 595 4288 
L 480 4288 
L 294 3094 
L 410 3094 
C 429 3215 474 3540 550 3661 
C 589 3712 1062 3712 1171 3712 
L 2579 3712 
L 1869 2661 
C 1395 1954 1069 999 1069 165 
C 1069 89 1069 -128 1299 -128 
C 1530 -128 1530 89 1530 171 
L 1530 465 
C 1530 1508 1709 2196 2003 2636 
L 2886 3941 
z
" transform="scale(0.015625)"/>
        <path id="CMMI12-3a" d="M 1178 307 
C 1178 492 1024 619 870 619 
C 685 619 557 466 557 313 
C 557 128 710 0 864 0 
C 1050 0 1178 153 1178 307 
z
" transform="scale(0.015625)"/>
        <path id="CMR17-35" d="M 730 3692 
C 794 3666 1056 3584 1325 3584 
C 1920 3584 2246 3911 2432 4100 
C 2432 4157 2432 4192 2394 4192 
C 2387 4192 2374 4192 2323 4163 
C 2099 4058 1837 3973 1517 3973 
C 1325 3973 1037 3999 723 4139 
C 653 4171 640 4171 634 4171 
C 602 4171 595 4164 595 4037 
L 595 2203 
C 595 2089 595 2057 659 2057 
C 691 2057 704 2070 736 2114 
C 941 2401 1222 2522 1542 2522 
C 1766 2522 2246 2382 2246 1289 
C 2246 1085 2246 715 2054 421 
C 1894 159 1645 25 1370 25 
C 947 25 518 320 403 814 
C 429 807 480 795 506 795 
C 589 795 749 840 749 1038 
C 749 1210 627 1280 506 1280 
C 358 1280 262 1190 262 1011 
C 262 454 704 -128 1382 -128 
C 2042 -128 2669 440 2669 1264 
C 2669 2030 2170 2624 1549 2624 
C 1222 2624 947 2503 730 2274 
L 730 3692 
z
" transform="scale(0.015625)"/>
       </defs>
       <use xlink:href="#CMSY10-0" transform="scale(0.996264)"/>
       <use xlink:href="#CMR17-37" transform="translate(77.487468 0) scale(0.996264)"/>
       <use xlink:href="#CMMI12-3a" transform="translate(123.177945 0) scale(0.996264)"/>
       <use xlink:href="#CMR17-35" transform="translate(150.275122 0) scale(0.996264)"/>
      </g>
     </g>
    </g>
    <g id="ytick_2">
     <g id="line2d_7">
      <g>
       <use xlink:href="#mc286d0aa77" x="56.7216" y="98.23442" style="stroke: #000000; stroke-width: 0.8"/>
      </g>
     </g>
     <g id="text_7">
      <!-- $\mathdefault{−5.0}$ -->
      <g transform="translate(27.194915 102.138496) scale(0.11 -0.11)">
       <use xlink:href="#CMSY10-0" transform="scale(0.996264)"/>
       <use xlink:href="#CMR17-35" transform="translate(77.487468 0) scale(0.996264)"/>
       <use xlink:href="#CMMI12-3a" transform="translate(123.177945 0) scale(0.996264)"/>
       <use xlink:href="#CMR17-30" transform="translate(150.275122 0) scale(0.996264)"/>
      </g>
     </g>
    </g>
    <g id="ytick_3">
     <g id="line2d_8">
      <g>
       <use xlink:href="#mc286d0aa77" x="56.7216" y="75.863841" style="stroke: #000000; stroke-width: 0.8"/>
      </g>
     </g>
     <g id="text_8">
      <!-- $\mathdefault{−2.5}$ -->
      <g transform="translate(27.194915 79.767917) scale(0.11 -0.11)">
       <use xlink:href="#CMSY10-0" transform="scale(0.996264)"/>
       <use xlink:href="#CMR17-32" transform="translate(77.487468 0) scale(0.996264)"/>
       <use xlink:href="#CMMI12-3a" transform="translate(123.177945 0) scale(0.996264)"/>
       <use xlink:href="#CMR17-35" transform="translate(150.275122 0) scale(0.996264)"/>
      </g>
     </g>
    </g>
    <g id="ytick_4">
     <g id="line2d_9">
      <g>
       <use xlink:href="#mc286d0aa77" x="56.7216" y="53.493263" style="stroke: #000000; stroke-width: 0.8"/>
      </g>
     </g>
     <g id="text_9">
      <!-- $\mathdefault{0.0}$ -->
      <g transform="translate(35.718524 57.397339) scale(0.11 -0.11)">
       <use xlink:href="#CMR17-30" transform="scale(0.996264)"/>
       <use xlink:href="#CMMI12-3a" transform="translate(45.690477 0) scale(0.996264)"/>
       <use xlink:href="#CMR17-30" transform="translate(72.787654 0) scale(0.996264)"/>
      </g>
     </g>
    </g>
   </g>
   <g id="line2d_10">
    <path d="M 137.16119 53.493263 
L 140.861916 53.676841 
L 144.562642 53.860419 
L 148.263369 54.043997 
L 151.964095 54.227575 
L 155.664821 54.411153 
L 159.365548 54.59473 
L 163.066274 54.778308 
L 166.767001 54.961886 
L 170.467727 55.145464 
L 174.168453 55.329042 
L 177.86918 55.51262 
L 181.569906 55.696198 
L 185.270632 55.879776 
L 188.971359 56.063354 
L 192.672085 56.246932 
L 196.372811 56.43051 
L 200.073538 56.614088 
L 203.774264 56.797666 
L 207.474991 56.981244 
L 211.175717 57.164822 
L 214.876443 57.3484 
L 218.57717 57.531978 
L 222.277896 57.715555 
L 225.978622 57.899133 
L 229.679349 58.082711 
L 233.380075 58.266289 
L 237.080801 58.449867 
L 240.781528 58.633445 
L 244.482254 58.817023 
L 248.182981 59.000601 
L 251.883707 59.184179 
L 255.584433 59.367757 
L 259.28516 59.551335 
L 262.985886 59.734913 
L 266.686612 59.918491 
L 270.387339 60.102069 
L 274.088065 60.285647 
L 277.788792 60.469225 
L 281.489518 60.652803 
" clip-path="url(#p3ace819035)" style="fill: none; stroke-dasharray: 5.55,2.4; stroke-dashoffset: 0; stroke: #000000; stroke-width: 1.5"/>
   </g>
   <g id="line2d_11">
    <path d="M 139.181786 53.493263 
L 142.882513 53.676841 
L 146.583239 53.860419 
L 150.283965 54.043997 
L 153.984692 54.227575 
L 157.685418 54.411153 
L 161.386144 54.59473 
L 165.086871 54.778308 
L 168.787597 54.961886 
L 172.488324 55.145464 
L 176.18905 55.329042 
L 179.889776 55.51262 
L 183.590503 55.696198 
L 187.291229 55.879776 
L 190.991955 56.063354 
L 194.692682 56.246932 
L 198.393408 56.43051 
L 202.094134 56.614088 
L 205.794861 56.797666 
L 209.495587 56.981244 
L 213.196314 57.164822 
L 216.89704 57.3484 
L 220.597766 57.531978 
L 224.298493 57.715555 
L 227.999219 57.899133 
L 231.699945 58.082711 
L 235.400672 58.266289 
L 239.101398 58.449867 
L 242.802124 58.633445 
L 246.502851 58.817023 
L 250.203577 59.000601 
L 253.904304 59.184179 
L 257.60503 59.367757 
L 261.305756 59.551335 
L 265.006483 59.734913 
L 268.707209 59.918491 
L 272.407935 60.102069 
L 276.108662 60.285647 
L 279.809388 60.469225 
L 283.510114 60.652803 
" clip-path="url(#p3ace819035)" style="fill: none; stroke-dasharray: 5.55,2.4; stroke-dashoffset: 0; stroke: #000000; stroke-width: 1.5"/>
   </g>
   <g id="line2d_12">
    <path d="M 149.595075 53.493263 
L 153.295801 53.676841 
L 156.996528 53.860419 
L 160.697254 54.043997 
L 164.397981 54.227575 
L 168.098707 54.411153 
L 171.799433 54.59473 
L 175.50016 54.778308 
L 179.200886 54.961886 
L 182.901612 55.145464 
L 186.602339 55.329042 
L 190.303065 55.51262 
L 194.003791 55.696198 
L 197.704518 55.879776 
L 201.405244 56.063354 
L 205.105971 56.246932 
L 208.806697 56.43051 
L 212.507423 56.614088 
L 216.20815 56.797666 
L 219.908876 56.981244 
L 223.609602 57.164822 
L 227.310329 57.3484 
L 231.011055 57.531978 
L 234.711782 57.715555 
L 238.412508 57.899133 
L 242.113234 58.082711 
L 245.813961 58.266289 
L 249.514687 58.449867 
L 253.215413 58.633445 
L 256.91614 58.817023 
L 260.616866 59.000601 
L 264.317592 59.184179 
L 268.018319 59.367757 
L 271.719045 59.551335 
L 275.419772 59.734913 
L 279.120498 59.918491 
L 282.821224 60.102069 
L 286.521951 60.285647 
L 290.222677 60.469225 
L 293.923403 60.652803 
" clip-path="url(#p3ace819035)" style="fill: none; stroke-dasharray: 5.55,2.4; stroke-dashoffset: 0; stroke: #000000; stroke-width: 1.5"/>
   </g>
   <g id="line2d_13">
    <path d="M 157.865088 53.493263 
L 161.565815 53.676841 
L 165.266541 53.860419 
L 168.967267 54.043997 
L 172.667994 54.227575 
L 176.36872 54.411153 
L 180.069447 54.59473 
L 183.770173 54.778308 
L 187.470899 54.961886 
L 191.171626 55.145464 
L 194.872352 55.329042 
L 198.573078 55.51262 
L 202.273805 55.696198 
L 205.974531 55.879776 
L 209.675257 56.063354 
L 213.375984 56.246932 
L 217.07671 56.43051 
L 220.777437 56.614088 
L 224.478163 56.797666 
L 228.178889 56.981244 
L 231.879616 57.164822 
L 235.580342 57.3484 
L 239.281068 57.531978 
L 242.981795 57.715555 
L 246.682521 57.899133 
L 250.383247 58.082711 
L 254.083974 58.266289 
L 257.7847 58.449867 
L 261.485427 58.633445 
L 265.186153 58.817023 
L 268.886879 59.000601 
L 272.587606 59.184179 
L 276.288332 59.367757 
L 279.989058 59.551335 
L 283.689785 59.734913 
L 287.390511 59.918491 
L 291.091237 60.102069 
L 294.791964 60.285647 
L 298.49269 60.469225 
L 302.193417 60.652803 
" clip-path="url(#p3ace819035)" style="fill: none; stroke-dasharray: 5.55,2.4; stroke-dashoffset: 0; stroke: #000000; stroke-width: 1.5"/>
   </g>
   <g id="line2d_14">
    <path d="M 166.135102 53.493263 
L 169.835828 53.676841 
L 173.536554 53.860419 
L 177.237281 54.043997 
L 180.938007 54.227575 
L 184.638733 54.411153 
L 188.33946 54.59473 
L 192.040186 54.778308 
L 195.740912 54.961886 
L 199.441639 55.145464 
L 203.142365 55.329042 
L 206.843092 55.51262 
L 210.543818 55.696198 
L 214.244544 55.879776 
L 217.945271 56.063354 
L 221.645997 56.246932 
L 225.346723 56.43051 
L 229.04745 56.614088 
L 232.748176 56.797666 
L 236.448902 56.981244 
L 240.149629 57.164822 
L 243.850355 57.3484 
L 247.551082 57.531978 
L 251.251808 57.715555 
L 254.952534 57.899133 
L 258.653261 58.082711 
L 262.353987 58.266289 
L 266.054713 58.449867 
L 269.75544 58.633445 
L 273.456166 58.817023 
L 277.156892 59.000601 
L 280.857619 59.184179 
L 284.558345 59.367757 
L 288.259072 59.551335 
L 291.959798 59.734913 
L 295.660524 59.918491 
L 299.361251 60.102069 
L 303.061977 60.285647 
L 306.762703 60.469225 
L 310.46343 60.652803 
" clip-path="url(#p3ace819035)" style="fill: none; stroke-dasharray: 5.55,2.4; stroke-dashoffset: 0; stroke: #000000; stroke-width: 1.5"/>
   </g>
   <g id="line2d_15">
    <path d="M 56.7216 53.493263 
L 209.4336 53.493263 
" clip-path="url(#p3ace819035)" style="fill: none; stroke: #000000; stroke-width: 1.5; stroke-linecap: square"/>
   </g>
   <g id="line2d_16">
    <path d="M 166.135102 134.027345 
L 166.135102 35.5968 
" clip-path="url(#p3ace819035)" style="fill: none; stroke: #000000; stroke-width: 1.5; stroke-linecap: square"/>
   </g>
   <g id="patch_3">
    <path d="M 56.7216 134.027345 
L 56.7216 35.5968 
" style="fill: none; stroke: #000000; stroke-width: 0.8; stroke-linejoin: miter; stroke-linecap: square"/>
   </g>
   <g id="patch_4">
    <path d="M 209.4336 134.027345 
L 209.4336 35.5968 
" style="fill: none; stroke: #000000; stroke-width: 0.8; stroke-linejoin: miter; stroke-linecap: square"/>
   </g>
   <g id="patch_5">
    <path d="M 56.7216 134.027345 
L 209.4336 134.027345 
" style="fill: none; stroke: #000000; stroke-width: 0.8; stroke-linejoin: miter; stroke-linecap: square"/>
   </g>
   <g id="patch_6">
    <path d="M 56.7216 35.5968 
L 209.4336 35.5968 
" style="fill: none; stroke: #000000; stroke-width: 0.8; stroke-linejoin: miter; stroke-linecap: square"/>
   </g>
   <g id="legend_1">
    <g id="patch_7">
     <path d="M 63.0216 129.527345 
L 132.740086 129.527345 
Q 134.540086 129.527345 134.540086 127.727345 
L 134.540086 115.829072 
Q 134.540086 114.029072 132.740086 114.029072 
L 63.0216 114.029072 
Q 61.2216 114.029072 61.2216 115.829072 
L 61.2216 127.727345 
Q 61.2216 129.527345 63.0216 129.527345 
z
" style="fill: #ffffff; opacity: 0.8; stroke: #cccccc; stroke-linejoin: miter"/>
    </g>
    <g id="PathCollection_2">
     <defs>
      <path id="mb3be7e0a7b" d="M -3.5 3.5 
L 3.5 -3.5 
M -3.5 -3.5 
L 3.5 3.5 
" style="stroke: #0000ff"/>
     </defs>
     <g>
      <use xlink:href="#mb3be7e0a7b" x="73.8216" y="121.655061" style="fill: #0000ff; stroke: #0000ff"/>
     </g>
    </g>
    <g id="text_10">
     <!-- $2\theta=1.15\degree$ -->
     <g transform="translate(90.0216 124.017561) scale(0.09 -0.09)">
      <defs>
       <path id="CMMI12-12" d="M 2835 3200 
C 2835 3850 2630 4480 2106 4480 
C 1210 4480 256 2615 256 1216 
C 256 923 320 -64 992 -64 
C 1862 -64 2835 1756 2835 3200 
z
M 896 2304 
C 992 2679 1126 3214 1382 3665 
C 1594 4047 1818 4352 2099 4352 
C 2310 4352 2451 4174 2451 3564 
C 2451 3334 2432 3017 2246 2304 
L 896 2304 
z
M 2202 2113 
C 2042 1490 1907 1088 1677 687 
C 1491 363 1267 64 998 64 
C 800 64 640 217 640 846 
C 640 1260 742 1693 845 2113 
L 2202 2113 
z
" transform="scale(0.015625)"/>
       <path id="CMR17-3d" d="M 4115 2017 
C 4211 2017 4307 2017 4307 2125 
C 4307 2240 4198 2240 4090 2240 
L 512 2240 
C 403 2240 294 2240 294 2125 
C 294 2017 390 2017 486 2017 
L 4115 2017 
z
M 4090 896 
C 4198 896 4307 896 4307 1011 
C 4307 1119 4211 1119 4115 1119 
L 486 1119 
C 390 1119 294 1119 294 1011 
C 294 896 403 896 512 896 
L 4090 896 
z
" transform="scale(0.015625)"/>
       <path id="SFRM3583-b0" d="M 890 4416 
C 544 4371 326 4080 326 3776 
C 326 3453 576 3136 960 3136 
L 1018 3136 
C 1357 3181 1587 3472 1587 3776 
C 1587 4105 1312 4416 947 4416 
L 890 4416 
z
M 525 3737 
L 525 3776 
C 525 4003 723 4204 947 4204 
C 1178 4204 1338 4026 1382 3815 
L 1382 3776 
C 1382 3545 1184 3341 960 3341 
C 730 3341 570 3522 525 3737 
z
" transform="scale(0.015625)"/>
      </defs>
      <use xlink:href="#CMR17-32" transform="scale(0.996264)"/>
      <use xlink:href="#CMMI12-12" transform="translate(45.690477 0) scale(0.996264)"/>
      <use xlink:href="#CMR17-3d" transform="translate(121.533994 0) scale(0.996264)"/>
      <use xlink:href="#CMR17-31" transform="translate(220.922791 0) scale(0.996264)"/>
      <use xlink:href="#CMMI12-3a" transform="translate(266.613268 0) scale(0.996264)"/>
      <use xlink:href="#CMR17-31" transform="translate(293.710445 0) scale(0.996264)"/>
      <use xlink:href="#CMR17-35" transform="translate(339.400922 0) scale(0.996264)"/>
      <use xlink:href="#SFRM3583-b0" transform="translate(385.091399 0) scale(0.356961)"/>
     </g>
    </g>
   </g>
  </g>
  <g id="axes_2">
   <g id="patch_8">
    <path d="M 239.976 134.027345 
L 392.688 134.027345 
L 392.688 35.5968 
L 239.976 35.5968 
z
" style="fill: #ffffff"/>
   </g>
   <g id="PathCollection_3">
    <g clip-path="url(#pa7c78be980)">
     <use xlink:href="#m69ffcc354c" x="245.132851" y="56.146574" style="fill: #0000ff; stroke: #0000ff"/>
     <use xlink:href="#m69ffcc354c" x="322.248415" y="58.02905" style="fill: #0000ff; stroke: #0000ff"/>
     <use xlink:href="#m69ffcc354c" x="353.345577" y="74.959712" style="fill: #0000ff; stroke: #0000ff"/>
     <use xlink:href="#m69ffcc354c" x="357.733555" y="72.981258" style="fill: #0000ff; stroke: #0000ff"/>
     <use xlink:href="#m69ffcc354c" x="359.890795" y="67.905642" style="fill: #0000ff; stroke: #0000ff"/>
     <use xlink:href="#m69ffcc354c" x="377.212431" y="71.213535" style="fill: #0000ff; stroke: #0000ff"/>
     <use xlink:href="#m69ffcc354c" x="378.143241" y="76.082536" style="fill: #0000ff; stroke: #0000ff"/>
    </g>
   </g>
   <g id="matplotlib.axis_3">
    <g id="xtick_6">
     <g id="line2d_17">
      <g>
       <use xlink:href="#m6e82707938" x="241.143255" y="134.027345" style="stroke: #000000; stroke-width: 0.8"/>
      </g>
     </g>
     <g id="text_11">
      <!-- $\mathdefault{−30}$ -->
      <g transform="translate(231.401984 148.835498) scale(0.11 -0.11)">
       <use xlink:href="#CMSY10-0" transform="scale(0.996264)"/>
       <use xlink:href="#CMR17-33" transform="translate(77.487468 0) scale(0.996264)"/>
       <use xlink:href="#CMR17-30" transform="translate(123.177945 0) scale(0.996264)"/>
      </g>
     </g>
    </g>
    <g id="xtick_7">
     <g id="line2d_18">
      <g>
       <use xlink:href="#m6e82707938" x="277.225337" y="134.027345" style="stroke: #000000; stroke-width: 0.8"/>
      </g>
     </g>
     <g id="text_12">
      <!-- $\mathdefault{−20}$ -->
      <g transform="translate(267.484066 148.835498) scale(0.11 -0.11)">
       <use xlink:href="#CMSY10-0" transform="scale(0.996264)"/>
       <use xlink:href="#CMR17-32" transform="translate(77.487468 0) scale(0.996264)"/>
       <use xlink:href="#CMR17-30" transform="translate(123.177945 0) scale(0.996264)"/>
      </g>
     </g>
    </g>
    <g id="xtick_8">
     <g id="line2d_19">
      <g>
       <use xlink:href="#m6e82707938" x="313.307419" y="134.027345" style="stroke: #000000; stroke-width: 0.8"/>
      </g>
     </g>
     <g id="text_13">
      <!-- $\mathdefault{−10}$ -->
      <g transform="translate(303.566148 148.835498) scale(0.11 -0.11)">
       <use xlink:href="#CMSY10-0" transform="scale(0.996264)"/>
       <use xlink:href="#CMR17-31" transform="translate(77.487468 0) scale(0.996264)"/>
       <use xlink:href="#CMR17-30" transform="translate(123.177945 0) scale(0.996264)"/>
      </g>
     </g>
    </g>
    <g id="xtick_9">
     <g id="line2d_20">
      <g>
       <use xlink:href="#m6e82707938" x="349.389502" y="134.027345" style="stroke: #000000; stroke-width: 0.8"/>
      </g>
     </g>
     <g id="text_14">
      <!-- $\mathdefault{0}$ -->
      <g transform="translate(346.649768 148.835498) scale(0.11 -0.11)">
       <use xlink:href="#CMR17-30" transform="scale(0.996264)"/>
      </g>
     </g>
    </g>
    <g id="xtick_10">
     <g id="line2d_21">
      <g>
       <use xlink:href="#m6e82707938" x="385.471584" y="134.027345" style="stroke: #000000; stroke-width: 0.8"/>
      </g>
     </g>
     <g id="text_15">
      <!-- $\mathdefault{10}$ -->
      <g transform="translate(379.992116 148.835498) scale(0.11 -0.11)">
       <use xlink:href="#CMR17-31" transform="scale(0.996264)"/>
       <use xlink:href="#CMR17-30" transform="translate(45.690477 0) scale(0.996264)"/>
      </g>
     </g>
    </g>
   </g>
   <g id="matplotlib.axis_4">
    <g id="ytick_5">
     <g id="line2d_22">
      <g>
       <use xlink:href="#mc286d0aa77" x="239.976" y="120.604998" style="stroke: #000000; stroke-width: 0.8"/>
      </g>
     </g>
     <g id="text_16">
      <!-- $\mathdefault{−7.5}$ -->
      <g transform="translate(210.449315 124.509074) scale(0.11 -0.11)">
       <use xlink:href="#CMSY10-0" transform="scale(0.996264)"/>
       <use xlink:href="#CMR17-37" transform="translate(77.487468 0) scale(0.996264)"/>
       <use xlink:href="#CMMI12-3a" transform="translate(123.177945 0) scale(0.996264)"/>
       <use xlink:href="#CMR17-35" transform="translate(150.275122 0) scale(0.996264)"/>
      </g>
     </g>
    </g>
    <g id="ytick_6">
     <g id="line2d_23">
      <g>
       <use xlink:href="#mc286d0aa77" x="239.976" y="98.23442" style="stroke: #000000; stroke-width: 0.8"/>
      </g>
     </g>
     <g id="text_17">
      <!-- $\mathdefault{−5.0}$ -->
      <g transform="translate(210.449315 102.138496) scale(0.11 -0.11)">
       <use xlink:href="#CMSY10-0" transform="scale(0.996264)"/>
       <use xlink:href="#CMR17-35" transform="translate(77.487468 0) scale(0.996264)"/>
       <use xlink:href="#CMMI12-3a" transform="translate(123.177945 0) scale(0.996264)"/>
       <use xlink:href="#CMR17-30" transform="translate(150.275122 0) scale(0.996264)"/>
      </g>
     </g>
    </g>
    <g id="ytick_7">
     <g id="line2d_24">
      <g>
       <use xlink:href="#mc286d0aa77" x="239.976" y="75.863841" style="stroke: #000000; stroke-width: 0.8"/>
      </g>
     </g>
     <g id="text_18">
      <!-- $\mathdefault{−2.5}$ -->
      <g transform="translate(210.449315 79.767917) scale(0.11 -0.11)">
       <use xlink:href="#CMSY10-0" transform="scale(0.996264)"/>
       <use xlink:href="#CMR17-32" transform="translate(77.487468 0) scale(0.996264)"/>
       <use xlink:href="#CMMI12-3a" transform="translate(123.177945 0) scale(0.996264)"/>
       <use xlink:href="#CMR17-35" transform="translate(150.275122 0) scale(0.996264)"/>
      </g>
     </g>
    </g>
    <g id="ytick_8">
     <g id="line2d_25">
      <g>
       <use xlink:href="#mc286d0aa77" x="239.976" y="53.493263" style="stroke: #000000; stroke-width: 0.8"/>
      </g>
     </g>
     <g id="text_19">
      <!-- $\mathdefault{0.0}$ -->
      <g transform="translate(218.972924 57.397339) scale(0.11 -0.11)">
       <use xlink:href="#CMR17-30" transform="scale(0.996264)"/>
       <use xlink:href="#CMMI12-3a" transform="translate(45.690477 0) scale(0.996264)"/>
       <use xlink:href="#CMR17-30" transform="translate(72.787654 0) scale(0.996264)"/>
      </g>
     </g>
    </g>
   </g>
   <g id="line2d_26">
    <path d="M 320.41559 53.493263 
L 324.116316 55.353669 
L 327.817042 57.214076 
L 331.517769 59.074482 
L 335.218495 60.934889 
L 338.919221 62.795295 
L 342.619948 64.655702 
L 346.320674 66.516108 
L 350.021401 68.376515 
L 353.722127 70.236921 
L 357.422853 72.097327 
L 361.12358 73.957734 
L 364.824306 75.81814 
L 368.525032 77.678547 
L 372.225759 79.538953 
L 375.926485 81.39936 
L 379.627211 83.259766 
L 383.327938 85.120173 
L 387.028664 86.980579 
L 390.729391 88.840986 
L 394.430117 90.701392 
L 398.130843 92.561799 
L 401.83157 94.422205 
L 405.532296 96.282612 
L 409.233022 98.143018 
L 412.933749 100.003424 
L 416.634475 101.863831 
L 420.335201 103.724237 
L 424.035928 105.584644 
L 427.736654 107.44505 
L 431.437381 109.305457 
L 435.138107 111.165863 
L 437.32 112.262731 
" clip-path="url(#pa7c78be980)" style="fill: none; stroke-dasharray: 5.55,2.4; stroke-dashoffset: 0; stroke: #000000; stroke-width: 1.5"/>
   </g>
   <g id="line2d_27">
    <path d="M 322.436186 53.493263 
L 326.136913 55.353669 
L 329.837639 57.214076 
L 333.538365 59.074482 
L 337.239092 60.934889 
L 340.939818 62.795295 
L 344.640544 64.655702 
L 348.341271 66.516108 
L 352.041997 68.376515 
L 355.742724 70.236921 
L 359.44345 72.097327 
L 363.144176 73.957734 
L 366.844903 75.81814 
L 370.545629 77.678547 
L 374.246355 79.538953 
L 377.947082 81.39936 
L 381.647808 83.259766 
L 385.348534 85.120173 
L 389.049261 86.980579 
L 392.749987 88.840986 
L 396.450714 90.701392 
L 400.15144 92.561799 
L 403.852166 94.422205 
L 407.552893 96.282612 
L 411.253619 98.143018 
L 414.954345 100.003424 
L 418.655072 101.863831 
L 422.355798 103.724237 
L 426.056524 105.584644 
L 429.757251 107.44505 
L 433.457977 109.305457 
L 437.158704 111.165863 
L 437.32 111.246949 
" clip-path="url(#pa7c78be980)" style="fill: none; stroke-dasharray: 5.55,2.4; stroke-dashoffset: 0; stroke: #000000; stroke-width: 1.5"/>
   </g>
   <g id="line2d_28">
    <path d="M 332.849475 53.493263 
L 336.550201 55.353669 
L 340.250928 57.214076 
L 343.951654 59.074482 
L 347.652381 60.934889 
L 351.353107 62.795295 
L 355.053833 64.655702 
L 358.75456 66.516108 
L 362.455286 68.376515 
L 366.156012 70.236921 
L 369.856739 72.097327 
L 373.557465 73.957734 
L 377.258191 75.81814 
L 380.958918 77.678547 
L 384.659644 79.538953 
L 388.360371 81.39936 
L 392.061097 83.259766 
L 395.761823 85.120173 
L 399.46255 86.980579 
L 403.163276 88.840986 
L 406.864002 90.701392 
L 410.564729 92.561799 
L 414.265455 94.422205 
L 417.966182 96.282612 
L 421.666908 98.143018 
L 425.367634 100.003424 
L 429.068361 101.863831 
L 432.769087 103.724237 
L 436.469813 105.584644 
L 437.32 106.012045 
" clip-path="url(#pa7c78be980)" style="fill: none; stroke-dasharray: 5.55,2.4; stroke-dashoffset: 0; stroke: #000000; stroke-width: 1.5"/>
   </g>
   <g id="line2d_29">
    <path d="M 341.119488 53.493263 
L 344.820215 55.353669 
L 348.520941 57.214076 
L 352.221667 59.074482 
L 355.922394 60.934889 
L 359.62312 62.795295 
L 363.323847 64.655702 
L 367.024573 66.516108 
L 370.725299 68.376515 
L 374.426026 70.236921 
L 378.126752 72.097327 
L 381.827478 73.957734 
L 385.528205 75.81814 
L 389.228931 77.678547 
L 392.929657 79.538953 
L 396.630384 81.39936 
L 400.33111 83.259766 
L 404.031837 85.120173 
L 407.732563 86.980579 
L 411.433289 88.840986 
L 415.134016 90.701392 
L 418.834742 92.561799 
L 422.535468 94.422205 
L 426.236195 96.282612 
L 429.936921 98.143018 
L 433.637647 100.003424 
L 437.32 101.854594 
" clip-path="url(#pa7c78be980)" style="fill: none; stroke-dasharray: 5.55,2.4; stroke-dashoffset: 0; stroke: #000000; stroke-width: 1.5"/>
   </g>
   <g id="line2d_30">
    <path d="M 349.389502 53.493263 
L 353.090228 55.353669 
L 356.790954 57.214076 
L 360.491681 59.074482 
L 364.192407 60.934889 
L 367.893133 62.795295 
L 371.59386 64.655702 
L 375.294586 66.516108 
L 378.995312 68.376515 
L 382.696039 70.236921 
L 386.396765 72.097327 
L 390.097492 73.957734 
L 393.798218 75.81814 
L 397.498944 77.678547 
L 401.199671 79.538953 
L 404.900397 81.39936 
L 408.601123 83.259766 
L 412.30185 85.120173 
L 416.002576 86.980579 
L 419.703302 88.840986 
L 423.404029 90.701392 
L 427.104755 92.561799 
L 430.805482 94.422205 
L 434.506208 96.282612 
L 437.32 97.697144 
" clip-path="url(#pa7c78be980)" style="fill: none; stroke-dasharray: 5.55,2.4; stroke-dashoffset: 0; stroke: #000000; stroke-width: 1.5"/>
   </g>
   <g id="line2d_31">
    <path d="M 239.976 53.493263 
L 392.688 53.493263 
" clip-path="url(#pa7c78be980)" style="fill: none; stroke: #000000; stroke-width: 1.5; stroke-linecap: square"/>
   </g>
   <g id="line2d_32">
    <path d="M 349.389502 134.027345 
L 349.389502 35.5968 
" clip-path="url(#pa7c78be980)" style="fill: none; stroke: #000000; stroke-width: 1.5; stroke-linecap: square"/>
   </g>
   <g id="patch_9">
    <path d="M 239.976 134.027345 
L 239.976 35.5968 
" style="fill: none; stroke: #000000; stroke-width: 0.8; stroke-linejoin: miter; stroke-linecap: square"/>
   </g>
   <g id="patch_10">
    <path d="M 392.688 134.027345 
L 392.688 35.5968 
" style="fill: none; stroke: #000000; stroke-width: 0.8; stroke-linejoin: miter; stroke-linecap: square"/>
   </g>
   <g id="patch_11">
    <path d="M 239.976 134.027345 
L 392.688 134.027345 
" style="fill: none; stroke: #000000; stroke-width: 0.8; stroke-linejoin: miter; stroke-linecap: square"/>
   </g>
   <g id="patch_12">
    <path d="M 239.976 35.5968 
L 392.688 35.5968 
" style="fill: none; stroke: #000000; stroke-width: 0.8; stroke-linejoin: miter; stroke-linecap: square"/>
   </g>
   <g id="legend_2">
    <g id="patch_13">
     <path d="M 246.276 129.527345 
L 320.602176 129.527345 
Q 322.402176 129.527345 322.402176 127.727345 
L 322.402176 115.829072 
Q 322.402176 114.029072 320.602176 114.029072 
L 246.276 114.029072 
Q 244.476 114.029072 244.476 115.829072 
L 244.476 127.727345 
Q 244.476 129.527345 246.276 129.527345 
z
" style="fill: #ffffff; opacity: 0.8; stroke: #cccccc; stroke-linejoin: miter"/>
    </g>
    <g id="PathCollection_4">
     <g>
      <use xlink:href="#mb3be7e0a7b" x="257.076" y="121.655061" style="fill: #0000ff; stroke: #0000ff"/>
     </g>
    </g>
    <g id="text_20">
     <!-- $2\theta=11.46\degree$ -->
     <g transform="translate(273.276 124.017561) scale(0.09 -0.09)">
      <defs>
       <path id="CMR17-34" d="M 2150 4122 
C 2150 4256 2144 4256 2029 4256 
L 128 1254 
L 128 1088 
L 1779 1088 
L 1779 457 
C 1779 224 1766 160 1318 160 
L 1197 160 
L 1197 0 
C 1402 0 1747 0 1965 0 
C 2182 0 2528 0 2733 0 
L 2733 160 
L 2611 160 
C 2163 160 2150 224 2150 457 
L 2150 1088 
L 2803 1088 
L 2803 1254 
L 2150 1254 
L 2150 4122 
z
M 1798 3703 
L 1798 1254 
L 256 1254 
L 1798 3703 
z
" transform="scale(0.015625)"/>
       <path id="CMR17-36" d="M 678 2176 
C 678 3690 1395 4032 1811 4032 
C 1946 4032 2272 4009 2400 3776 
C 2298 3776 2106 3776 2106 3553 
C 2106 3381 2246 3323 2336 3323 
C 2394 3323 2566 3348 2566 3560 
C 2566 3954 2246 4179 1805 4179 
C 1043 4179 243 3390 243 1984 
C 243 253 966 -128 1478 -128 
C 2099 -128 2688 427 2688 1283 
C 2688 2081 2170 2662 1517 2662 
C 1126 2662 838 2407 678 1960 
L 678 2176 
z
M 1478 25 
C 691 25 691 1200 691 1436 
C 691 1896 909 2560 1504 2560 
C 1613 2560 1926 2560 2138 2120 
C 2253 1870 2253 1609 2253 1289 
C 2253 944 2253 690 2118 434 
C 1978 171 1773 25 1478 25 
z
" transform="scale(0.015625)"/>
      </defs>
      <use xlink:href="#CMR17-32" transform="scale(0.996264)"/>
      <use xlink:href="#CMMI12-12" transform="translate(45.690477 0) scale(0.996264)"/>
      <use xlink:href="#CMR17-3d" transform="translate(121.533994 0) scale(0.996264)"/>
      <use xlink:href="#CMR17-31" transform="translate(220.922791 0) scale(0.996264)"/>
      <use xlink:href="#CMR17-31" transform="translate(266.613268 0) scale(0.996264)"/>
      <use xlink:href="#CMMI12-3a" transform="translate(312.303745 0) scale(0.996264)"/>
      <use xlink:href="#CMR17-34" transform="translate(339.400922 0) scale(0.996264)"/>
      <use xlink:href="#CMR17-36" transform="translate(385.091399 0) scale(0.996264)"/>
      <use xlink:href="#SFRM3583-b0" transform="translate(430.781876 0) scale(0.356961)"/>
     </g>
    </g>
   </g>
  </g>
  <g id="axes_3">
   <g id="patch_14">
    <path d="M 56.7216 252.144 
L 209.4336 252.144 
L 209.4336 153.713455 
L 56.7216 153.713455 
z
" style="fill: #ffffff"/>
   </g>
   <g id="PathCollection_5">
    <g clip-path="url(#p91e56f3d42)">
     <use xlink:href="#m69ffcc354c" x="61.270829" y="177.780689" style="fill: #0000ff; stroke: #0000ff"/>
     <use xlink:href="#m69ffcc354c" x="137.818641" y="179.95528" style="fill: #0000ff; stroke: #0000ff"/>
     <use xlink:href="#m69ffcc354c" x="166.589115" y="218.544017" style="fill: #0000ff; stroke: #0000ff"/>
     <use xlink:href="#m69ffcc354c" x="170.480214" y="205.6523" style="fill: #0000ff; stroke: #0000ff"/>
     <use xlink:href="#m69ffcc354c" x="174.804363" y="197.684885" style="fill: #0000ff; stroke: #0000ff"/>
     <use xlink:href="#m69ffcc354c" x="191.29088" y="214.874437" style="fill: #0000ff; stroke: #0000ff"/>
     <use xlink:href="#m69ffcc354c" x="191.699329" y="206.190805" style="fill: #0000ff; stroke: #0000ff"/>
    </g>
   </g>
   <g id="matplotlib.axis_5">
    <g id="xtick_11">
     <g id="line2d_33">
      <g>
       <use xlink:href="#m6e82707938" x="57.888855" y="252.144" style="stroke: #000000; stroke-width: 0.8"/>
      </g>
     </g>
     <g id="text_21">
      <!-- $\mathdefault{−30}$ -->
      <g transform="translate(48.147584 266.952152) scale(0.11 -0.11)">
       <use xlink:href="#CMSY10-0" transform="scale(0.996264)"/>
       <use xlink:href="#CMR17-33" transform="translate(77.487468 0) scale(0.996264)"/>
       <use xlink:href="#CMR17-30" transform="translate(123.177945 0) scale(0.996264)"/>
      </g>
     </g>
    </g>
    <g id="xtick_12">
     <g id="line2d_34">
      <g>
       <use xlink:href="#m6e82707938" x="93.970937" y="252.144" style="stroke: #000000; stroke-width: 0.8"/>
      </g>
     </g>
     <g id="text_22">
      <!-- $\mathdefault{−20}$ -->
      <g transform="translate(84.229666 266.952152) scale(0.11 -0.11)">
       <use xlink:href="#CMSY10-0" transform="scale(0.996264)"/>
       <use xlink:href="#CMR17-32" transform="translate(77.487468 0) scale(0.996264)"/>
       <use xlink:href="#CMR17-30" transform="translate(123.177945 0) scale(0.996264)"/>
      </g>
     </g>
    </g>
    <g id="xtick_13">
     <g id="line2d_35">
      <g>
       <use xlink:href="#m6e82707938" x="130.053019" y="252.144" style="stroke: #000000; stroke-width: 0.8"/>
      </g>
     </g>
     <g id="text_23">
      <!-- $\mathdefault{−10}$ -->
      <g transform="translate(120.311748 266.952152) scale(0.11 -0.11)">
       <use xlink:href="#CMSY10-0" transform="scale(0.996264)"/>
       <use xlink:href="#CMR17-31" transform="translate(77.487468 0) scale(0.996264)"/>
       <use xlink:href="#CMR17-30" transform="translate(123.177945 0) scale(0.996264)"/>
      </g>
     </g>
    </g>
    <g id="xtick_14">
     <g id="line2d_36">
      <g>
       <use xlink:href="#m6e82707938" x="166.135102" y="252.144" style="stroke: #000000; stroke-width: 0.8"/>
      </g>
     </g>
     <g id="text_24">
      <!-- $\mathdefault{0}$ -->
      <g transform="translate(163.395368 266.952152) scale(0.11 -0.11)">
       <use xlink:href="#CMR17-30" transform="scale(0.996264)"/>
      </g>
     </g>
    </g>
    <g id="xtick_15">
     <g id="line2d_37">
      <g>
       <use xlink:href="#m6e82707938" x="202.217184" y="252.144" style="stroke: #000000; stroke-width: 0.8"/>
      </g>
     </g>
     <g id="text_25">
      <!-- $\mathdefault{10}$ -->
      <g transform="translate(196.737716 266.952152) scale(0.11 -0.11)">
       <use xlink:href="#CMR17-31" transform="scale(0.996264)"/>
       <use xlink:href="#CMR17-30" transform="translate(45.690477 0) scale(0.996264)"/>
      </g>
     </g>
    </g>
   </g>
   <g id="matplotlib.axis_6">
    <g id="ytick_9">
     <g id="line2d_38">
      <g>
       <use xlink:href="#mc286d0aa77" x="56.7216" y="238.721653" style="stroke: #000000; stroke-width: 0.8"/>
      </g>
     </g>
     <g id="text_26">
      <!-- $\mathdefault{−7.5}$ -->
      <g transform="translate(27.194915 242.625729) scale(0.11 -0.11)">
       <use xlink:href="#CMSY10-0" transform="scale(0.996264)"/>
       <use xlink:href="#CMR17-37" transform="translate(77.487468 0) scale(0.996264)"/>
       <use xlink:href="#CMMI12-3a" transform="translate(123.177945 0) scale(0.996264)"/>
       <use xlink:href="#CMR17-35" transform="translate(150.275122 0) scale(0.996264)"/>
      </g>
     </g>
    </g>
    <g id="ytick_10">
     <g id="line2d_39">
      <g>
       <use xlink:href="#mc286d0aa77" x="56.7216" y="216.351074" style="stroke: #000000; stroke-width: 0.8"/>
      </g>
     </g>
     <g id="text_27">
      <!-- $\mathdefault{−5.0}$ -->
      <g transform="translate(27.194915 220.255151) scale(0.11 -0.11)">
       <use xlink:href="#CMSY10-0" transform="scale(0.996264)"/>
       <use xlink:href="#CMR17-35" transform="translate(77.487468 0) scale(0.996264)"/>
       <use xlink:href="#CMMI12-3a" transform="translate(123.177945 0) scale(0.996264)"/>
       <use xlink:href="#CMR17-30" transform="translate(150.275122 0) scale(0.996264)"/>
      </g>
     </g>
    </g>
    <g id="ytick_11">
     <g id="line2d_40">
      <g>
       <use xlink:href="#mc286d0aa77" x="56.7216" y="193.980496" style="stroke: #000000; stroke-width: 0.8"/>
      </g>
     </g>
     <g id="text_28">
      <!-- $\mathdefault{−2.5}$ -->
      <g transform="translate(27.194915 197.884572) scale(0.11 -0.11)">
       <use xlink:href="#CMSY10-0" transform="scale(0.996264)"/>
       <use xlink:href="#CMR17-32" transform="translate(77.487468 0) scale(0.996264)"/>
       <use xlink:href="#CMMI12-3a" transform="translate(123.177945 0) scale(0.996264)"/>
       <use xlink:href="#CMR17-35" transform="translate(150.275122 0) scale(0.996264)"/>
      </g>
     </g>
    </g>
    <g id="ytick_12">
     <g id="line2d_41">
      <g>
       <use xlink:href="#mc286d0aa77" x="56.7216" y="171.609917" style="stroke: #000000; stroke-width: 0.8"/>
      </g>
     </g>
     <g id="text_29">
      <!-- $\mathdefault{0.0}$ -->
      <g transform="translate(35.718524 175.513994) scale(0.11 -0.11)">
       <use xlink:href="#CMR17-30" transform="scale(0.996264)"/>
       <use xlink:href="#CMMI12-3a" transform="translate(45.690477 0) scale(0.996264)"/>
       <use xlink:href="#CMR17-30" transform="translate(72.787654 0) scale(0.996264)"/>
      </g>
     </g>
    </g>
   </g>
   <g id="line2d_42">
    <path d="M 137.16119 171.609917 
L 140.861916 175.490175 
L 144.562642 179.370433 
L 148.263369 183.250691 
L 151.964095 187.130949 
L 155.664821 191.011207 
L 159.365548 194.891465 
L 163.066274 198.771723 
L 166.767001 202.651981 
L 170.467727 206.532239 
L 174.168453 210.412497 
L 177.86918 214.292755 
L 181.569906 218.173013 
L 185.270632 222.053271 
L 188.971359 225.933529 
L 192.672085 229.813787 
L 196.372811 233.694045 
L 200.073538 237.574303 
L 203.774264 241.454561 
L 207.474991 245.33482 
L 211.175717 249.215078 
L 214.876443 253.095336 
L 218.57717 256.975594 
L 222.277896 260.855852 
L 225.978622 264.73611 
L 229.679349 268.616368 
L 233.380075 272.496626 
L 237.080801 276.376884 
L 240.781528 280.257142 
L 244.482254 284.1374 
L 248.182981 288.017658 
L 251.883707 291.897916 
L 255.584433 295.778174 
L 257.360117 297.64 
" clip-path="url(#p91e56f3d42)" style="fill: none; stroke-dasharray: 5.55,2.4; stroke-dashoffset: 0; stroke: #000000; stroke-width: 1.5"/>
   </g>
   <g id="line2d_43">
    <path d="M 139.181786 171.609917 
L 142.882513 175.490175 
L 146.583239 179.370433 
L 150.283965 183.250691 
L 153.984692 187.130949 
L 157.685418 191.011207 
L 161.386144 194.891465 
L 165.086871 198.771723 
L 168.787597 202.651981 
L 172.488324 206.532239 
L 176.18905 210.412497 
L 179.889776 214.292755 
L 183.590503 218.173013 
L 187.291229 222.053271 
L 190.991955 225.933529 
L 194.692682 229.813787 
L 198.393408 233.694045 
L 202.094134 237.574303 
L 205.794861 241.454561 
L 209.495587 245.33482 
L 213.196314 249.215078 
L 216.89704 253.095336 
L 220.597766 256.975594 
L 224.298493 260.855852 
L 227.999219 264.73611 
L 231.699945 268.616368 
L 235.400672 272.496626 
L 239.101398 276.376884 
L 242.802124 280.257142 
L 246.502851 284.1374 
L 250.203577 288.017658 
L 253.904304 291.897916 
L 257.60503 295.778174 
L 259.380713 297.64 
" clip-path="url(#p91e56f3d42)" style="fill: none; stroke-dasharray: 5.55,2.4; stroke-dashoffset: 0; stroke: #000000; stroke-width: 1.5"/>
   </g>
   <g id="line2d_44">
    <path d="M 149.595075 171.609917 
L 153.295801 175.490175 
L 156.996528 179.370433 
L 160.697254 183.250691 
L 164.397981 187.130949 
L 168.098707 191.011207 
L 171.799433 194.891465 
L 175.50016 198.771723 
L 179.200886 202.651981 
L 182.901612 206.532239 
L 186.602339 210.412497 
L 190.303065 214.292755 
L 194.003791 218.173013 
L 197.704518 222.053271 
L 201.405244 225.933529 
L 205.105971 229.813787 
L 208.806697 233.694045 
L 212.507423 237.574303 
L 216.20815 241.454561 
L 219.908876 245.33482 
L 223.609602 249.215078 
L 227.310329 253.095336 
L 231.011055 256.975594 
L 234.711782 260.855852 
L 238.412508 264.73611 
L 242.113234 268.616368 
L 245.813961 272.496626 
L 249.514687 276.376884 
L 253.215413 280.257142 
L 256.91614 284.1374 
L 260.616866 288.017658 
L 264.317592 291.897916 
L 268.018319 295.778174 
L 269.794002 297.64 
" clip-path="url(#p91e56f3d42)" style="fill: none; stroke-dasharray: 5.55,2.4; stroke-dashoffset: 0; stroke: #000000; stroke-width: 1.5"/>
   </g>
   <g id="line2d_45">
    <path d="M 157.865088 171.609917 
L 161.565815 175.490175 
L 165.266541 179.370433 
L 168.967267 183.250691 
L 172.667994 187.130949 
L 176.36872 191.011207 
L 180.069447 194.891465 
L 183.770173 198.771723 
L 187.470899 202.651981 
L 191.171626 206.532239 
L 194.872352 210.412497 
L 198.573078 214.292755 
L 202.273805 218.173013 
L 205.974531 222.053271 
L 209.675257 225.933529 
L 213.375984 229.813787 
L 217.07671 233.694045 
L 220.777437 237.574303 
L 224.478163 241.454561 
L 228.178889 245.33482 
L 231.879616 249.215078 
L 235.580342 253.095336 
L 239.281068 256.975594 
L 242.981795 260.855852 
L 246.682521 264.73611 
L 250.383247 268.616368 
L 254.083974 272.496626 
L 257.7847 276.376884 
L 261.485427 280.257142 
L 265.186153 284.1374 
L 268.886879 288.017658 
L 272.587606 291.897916 
L 276.288332 295.778174 
L 278.064015 297.64 
" clip-path="url(#p91e56f3d42)" style="fill: none; stroke-dasharray: 5.55,2.4; stroke-dashoffset: 0; stroke: #000000; stroke-width: 1.5"/>
   </g>
   <g id="line2d_46">
    <path d="M 166.135102 171.609917 
L 169.835828 175.490175 
L 173.536554 179.370433 
L 177.237281 183.250691 
L 180.938007 187.130949 
L 184.638733 191.011207 
L 188.33946 194.891465 
L 192.040186 198.771723 
L 195.740912 202.651981 
L 199.441639 206.532239 
L 203.142365 210.412497 
L 206.843092 214.292755 
L 210.543818 218.173013 
L 214.244544 222.053271 
L 217.945271 225.933529 
L 221.645997 229.813787 
L 225.346723 233.694045 
L 229.04745 237.574303 
L 232.748176 241.454561 
L 236.448902 245.33482 
L 240.149629 249.215078 
L 243.850355 253.095336 
L 247.551082 256.975594 
L 251.251808 260.855852 
L 254.952534 264.73611 
L 258.653261 268.616368 
L 262.353987 272.496626 
L 266.054713 276.376884 
L 269.75544 280.257142 
L 273.456166 284.1374 
L 277.156892 288.017658 
L 280.857619 291.897916 
L 284.558345 295.778174 
L 286.334029 297.64 
" clip-path="url(#p91e56f3d42)" style="fill: none; stroke-dasharray: 5.55,2.4; stroke-dashoffset: 0; stroke: #000000; stroke-width: 1.5"/>
   </g>
   <g id="line2d_47">
    <path d="M 56.7216 171.609917 
L 209.4336 171.609917 
" clip-path="url(#p91e56f3d42)" style="fill: none; stroke: #000000; stroke-width: 1.5; stroke-linecap: square"/>
   </g>
   <g id="line2d_48">
    <path d="M 166.135102 252.144 
L 166.135102 153.713455 
" clip-path="url(#p91e56f3d42)" style="fill: none; stroke: #000000; stroke-width: 1.5; stroke-linecap: square"/>
   </g>
   <g id="patch_15">
    <path d="M 56.7216 252.144 
L 56.7216 153.713455 
" style="fill: none; stroke: #000000; stroke-width: 0.8; stroke-linejoin: miter; stroke-linecap: square"/>
   </g>
   <g id="patch_16">
    <path d="M 209.4336 252.144 
L 209.4336 153.713455 
" style="fill: none; stroke: #000000; stroke-width: 0.8; stroke-linejoin: miter; stroke-linecap: square"/>
   </g>
   <g id="patch_17">
    <path d="M 56.7216 252.144 
L 209.4336 252.144 
" style="fill: none; stroke: #000000; stroke-width: 0.8; stroke-linejoin: miter; stroke-linecap: square"/>
   </g>
   <g id="patch_18">
    <path d="M 56.7216 153.713455 
L 209.4336 153.713455 
" style="fill: none; stroke: #000000; stroke-width: 0.8; stroke-linejoin: miter; stroke-linecap: square"/>
   </g>
   <g id="legend_3">
    <g id="patch_19">
     <path d="M 63.0216 247.644 
L 137.347776 247.644 
Q 139.147776 247.644 139.147776 245.844 
L 139.147776 233.945727 
Q 139.147776 232.145727 137.347776 232.145727 
L 63.0216 232.145727 
Q 61.2216 232.145727 61.2216 233.945727 
L 61.2216 245.844 
Q 61.2216 247.644 63.0216 247.644 
z
" style="fill: #ffffff; opacity: 0.8; stroke: #cccccc; stroke-linejoin: miter"/>
    </g>
    <g id="PathCollection_6">
     <g>
      <use xlink:href="#mb3be7e0a7b" x="73.8216" y="239.771715" style="fill: #0000ff; stroke: #0000ff"/>
     </g>
    </g>
    <g id="text_30">
     <!-- $2\theta=22.92\degree$ -->
     <g transform="translate(90.0216 242.134215) scale(0.09 -0.09)">
      <defs>
       <path id="CMR17-39" d="M 2253 1864 
C 2253 464 1670 31 1190 31 
C 1043 31 685 31 538 294 
C 704 268 826 357 826 518 
C 826 692 685 749 595 749 
C 538 749 365 723 365 506 
C 365 71 742 -128 1203 -128 
C 1939 -128 2688 674 2688 2073 
C 2688 3817 1971 4179 1485 4179 
C 851 4179 243 3628 243 2778 
C 243 1991 762 1408 1414 1408 
C 1952 1408 2189 1903 2253 2112 
L 2253 1864 
z
M 1427 1510 
C 1254 1510 1011 1542 813 1922 
C 678 2169 678 2461 678 2771 
C 678 3146 678 3405 858 3684 
C 947 3817 1114 4032 1485 4032 
C 2240 4032 2240 2885 2240 2632 
C 2240 2182 2035 1510 1427 1510 
z
" transform="scale(0.015625)"/>
      </defs>
      <use xlink:href="#CMR17-32" transform="scale(0.996264)"/>
      <use xlink:href="#CMMI12-12" transform="translate(45.690477 0) scale(0.996264)"/>
      <use xlink:href="#CMR17-3d" transform="translate(121.533994 0) scale(0.996264)"/>
      <use xlink:href="#CMR17-32" transform="translate(220.922791 0) scale(0.996264)"/>
      <use xlink:href="#CMR17-32" transform="translate(266.613268 0) scale(0.996264)"/>
      <use xlink:href="#CMMI12-3a" transform="translate(312.303745 0) scale(0.996264)"/>
      <use xlink:href="#CMR17-39" transform="translate(339.400922 0) scale(0.996264)"/>
      <use xlink:href="#CMR17-32" transform="translate(385.091399 0) scale(0.996264)"/>
      <use xlink:href="#SFRM3583-b0" transform="translate(430.781876 0) scale(0.356961)"/>
     </g>
    </g>
   </g>
  </g>
  <g id="axes_4">
   <g id="patch_20">
    <path d="M 239.976 252.144 
L 392.688 252.144 
L 392.688 153.713455 
L 239.976 153.713455 
z
" style="fill: #ffffff"/>
   </g>
   <g id="PathCollection_7">
    <g clip-path="url(#pfae075c1bd)">
     <use xlink:href="#m69ffcc354c" x="243.675857" y="183.293892" style="fill: #0000ff; stroke: #0000ff"/>
     <use xlink:href="#m69ffcc354c" x="319.45061" y="182.684696" style="fill: #0000ff; stroke: #0000ff"/>
     <use xlink:href="#m69ffcc354c" x="341.970232" y="239.069829" style="fill: #0000ff; stroke: #0000ff"/>
     <use xlink:href="#m69ffcc354c" x="349.134463" y="218.732557" style="fill: #0000ff; stroke: #0000ff"/>
     <use xlink:href="#m69ffcc354c" x="355.499677" y="208.611123" style="fill: #0000ff; stroke: #0000ff"/>
     <use xlink:href="#m69ffcc354c" x="368.944438" y="231.946321" style="fill: #0000ff; stroke: #0000ff"/>
     <use xlink:href="#m69ffcc354c" x="371.346459" y="221.455325" style="fill: #0000ff; stroke: #0000ff"/>
    </g>
   </g>
   <g id="matplotlib.axis_7">
    <g id="xtick_16">
     <g id="line2d_49">
      <g>
       <use xlink:href="#m6e82707938" x="241.143255" y="252.144" style="stroke: #000000; stroke-width: 0.8"/>
      </g>
     </g>
     <g id="text_31">
      <!-- $\mathdefault{−30}$ -->
      <g transform="translate(231.401984 266.952152) scale(0.11 -0.11)">
       <use xlink:href="#CMSY10-0" transform="scale(0.996264)"/>
       <use xlink:href="#CMR17-33" transform="translate(77.487468 0) scale(0.996264)"/>
       <use xlink:href="#CMR17-30" transform="translate(123.177945 0) scale(0.996264)"/>
      </g>
     </g>
    </g>
    <g id="xtick_17">
     <g id="line2d_50">
      <g>
       <use xlink:href="#m6e82707938" x="277.225337" y="252.144" style="stroke: #000000; stroke-width: 0.8"/>
      </g>
     </g>
     <g id="text_32">
      <!-- $\mathdefault{−20}$ -->
      <g transform="translate(267.484066 266.952152) scale(0.11 -0.11)">
       <use xlink:href="#CMSY10-0" transform="scale(0.996264)"/>
       <use xlink:href="#CMR17-32" transform="translate(77.487468 0) scale(0.996264)"/>
       <use xlink:href="#CMR17-30" transform="translate(123.177945 0) scale(0.996264)"/>
      </g>
     </g>
    </g>
    <g id="xtick_18">
     <g id="line2d_51">
      <g>
       <use xlink:href="#m6e82707938" x="313.307419" y="252.144" style="stroke: #000000; stroke-width: 0.8"/>
      </g>
     </g>
     <g id="text_33">
      <!-- $\mathdefault{−10}$ -->
      <g transform="translate(303.566148 266.952152) scale(0.11 -0.11)">
       <use xlink:href="#CMSY10-0" transform="scale(0.996264)"/>
       <use xlink:href="#CMR17-31" transform="translate(77.487468 0) scale(0.996264)"/>
       <use xlink:href="#CMR17-30" transform="translate(123.177945 0) scale(0.996264)"/>
      </g>
     </g>
    </g>
    <g id="xtick_19">
     <g id="line2d_52">
      <g>
       <use xlink:href="#m6e82707938" x="349.389502" y="252.144" style="stroke: #000000; stroke-width: 0.8"/>
      </g>
     </g>
     <g id="text_34">
      <!-- $\mathdefault{0}$ -->
      <g transform="translate(346.649768 266.952152) scale(0.11 -0.11)">
       <use xlink:href="#CMR17-30" transform="scale(0.996264)"/>
      </g>
     </g>
    </g>
    <g id="xtick_20">
     <g id="line2d_53">
      <g>
       <use xlink:href="#m6e82707938" x="385.471584" y="252.144" style="stroke: #000000; stroke-width: 0.8"/>
      </g>
     </g>
     <g id="text_35">
      <!-- $\mathdefault{10}$ -->
      <g transform="translate(379.992116 266.952152) scale(0.11 -0.11)">
       <use xlink:href="#CMR17-31" transform="scale(0.996264)"/>
       <use xlink:href="#CMR17-30" transform="translate(45.690477 0) scale(0.996264)"/>
      </g>
     </g>
    </g>
   </g>
   <g id="matplotlib.axis_8">
    <g id="ytick_13">
     <g id="line2d_54">
      <g>
       <use xlink:href="#mc286d0aa77" x="239.976" y="238.721653" style="stroke: #000000; stroke-width: 0.8"/>
      </g>
     </g>
     <g id="text_36">
      <!-- $\mathdefault{−7.5}$ -->
      <g transform="translate(210.449315 242.625729) scale(0.11 -0.11)">
       <use xlink:href="#CMSY10-0" transform="scale(0.996264)"/>
       <use xlink:href="#CMR17-37" transform="translate(77.487468 0) scale(0.996264)"/>
       <use xlink:href="#CMMI12-3a" transform="translate(123.177945 0) scale(0.996264)"/>
       <use xlink:href="#CMR17-35" transform="translate(150.275122 0) scale(0.996264)"/>
      </g>
     </g>
    </g>
    <g id="ytick_14">
     <g id="line2d_55">
      <g>
       <use xlink:href="#mc286d0aa77" x="239.976" y="216.351074" style="stroke: #000000; stroke-width: 0.8"/>
      </g>
     </g>
     <g id="text_37">
      <!-- $\mathdefault{−5.0}$ -->
      <g transform="translate(210.449315 220.255151) scale(0.11 -0.11)">
       <use xlink:href="#CMSY10-0" transform="scale(0.996264)"/>
       <use xlink:href="#CMR17-35" transform="translate(77.487468 0) scale(0.996264)"/>
       <use xlink:href="#CMMI12-3a" transform="translate(123.177945 0) scale(0.996264)"/>
       <use xlink:href="#CMR17-30" transform="translate(150.275122 0) scale(0.996264)"/>
      </g>
     </g>
    </g>
    <g id="ytick_15">
     <g id="line2d_56">
      <g>
       <use xlink:href="#mc286d0aa77" x="239.976" y="193.980496" style="stroke: #000000; stroke-width: 0.8"/>
      </g>
     </g>
     <g id="text_38">
      <!-- $\mathdefault{−2.5}$ -->
      <g transform="translate(210.449315 197.884572) scale(0.11 -0.11)">
       <use xlink:href="#CMSY10-0" transform="scale(0.996264)"/>
       <use xlink:href="#CMR17-32" transform="translate(77.487468 0) scale(0.996264)"/>
       <use xlink:href="#CMMI12-3a" transform="translate(123.177945 0) scale(0.996264)"/>
       <use xlink:href="#CMR17-35" transform="translate(150.275122 0) scale(0.996264)"/>
      </g>
     </g>
    </g>
    <g id="ytick_16">
     <g id="line2d_57">
      <g>
       <use xlink:href="#mc286d0aa77" x="239.976" y="171.609917" style="stroke: #000000; stroke-width: 0.8"/>
      </g>
     </g>
     <g id="text_39">
      <!-- $\mathdefault{0.0}$ -->
      <g transform="translate(218.972924 175.513994) scale(0.11 -0.11)">
       <use xlink:href="#CMR17-30" transform="scale(0.996264)"/>
       <use xlink:href="#CMMI12-3a" transform="translate(45.690477 0) scale(0.996264)"/>
       <use xlink:href="#CMR17-30" transform="translate(72.787654 0) scale(0.996264)"/>
      </g>
     </g>
    </g>
   </g>
   <g id="line2d_58">
    <path d="M 320.41559 171.609917 
L 324.116316 177.888701 
L 327.817042 184.167486 
L 331.517769 190.44627 
L 335.218495 196.725054 
L 338.919221 203.003838 
L 342.619948 209.282622 
L 346.320674 215.561406 
L 350.021401 221.84019 
L 353.722127 228.118974 
L 357.422853 234.397758 
L 361.12358 240.676542 
L 364.824306 246.955326 
L 368.525032 253.23411 
L 372.225759 259.512894 
L 375.926485 265.791678 
L 379.627211 272.070463 
L 383.327938 278.349247 
L 387.028664 284.628031 
L 390.729391 290.906815 
L 394.430117 297.185599 
L 394.697942 297.64 
" clip-path="url(#pfae075c1bd)" style="fill: none; stroke-dasharray: 5.55,2.4; stroke-dashoffset: 0; stroke: #000000; stroke-width: 1.5"/>
   </g>
   <g id="line2d_59">
    <path d="M 322.436186 171.609917 
L 326.136913 177.888701 
L 329.837639 184.167486 
L 333.538365 190.44627 
L 337.239092 196.725054 
L 340.939818 203.003838 
L 344.640544 209.282622 
L 348.341271 215.561406 
L 352.041997 221.84019 
L 355.742724 228.118974 
L 359.44345 234.397758 
L 363.144176 240.676542 
L 366.844903 246.955326 
L 370.545629 253.23411 
L 374.246355 259.512894 
L 377.947082 265.791678 
L 381.647808 272.070463 
L 385.348534 278.349247 
L 389.049261 284.628031 
L 392.749987 290.906815 
L 396.450714 297.185599 
L 396.718538 297.64 
" clip-path="url(#pfae075c1bd)" style="fill: none; stroke-dasharray: 5.55,2.4; stroke-dashoffset: 0; stroke: #000000; stroke-width: 1.5"/>
   </g>
   <g id="line2d_60">
    <path d="M 332.849475 171.609917 
L 336.550201 177.888701 
L 340.250928 184.167486 
L 343.951654 190.44627 
L 347.652381 196.725054 
L 351.353107 203.003838 
L 355.053833 209.282622 
L 358.75456 215.561406 
L 362.455286 221.84019 
L 366.156012 228.118974 
L 369.856739 234.397758 
L 373.557465 240.676542 
L 377.258191 246.955326 
L 380.958918 253.23411 
L 384.659644 259.512894 
L 388.360371 265.791678 
L 392.061097 272.070463 
L 395.761823 278.349247 
L 399.46255 284.628031 
L 403.163276 290.906815 
L 406.864002 297.185599 
L 407.131827 297.64 
" clip-path="url(#pfae075c1bd)" style="fill: none; stroke-dasharray: 5.55,2.4; stroke-dashoffset: 0; stroke: #000000; stroke-width: 1.5"/>
   </g>
   <g id="line2d_61">
    <path d="M 341.119488 171.609917 
L 344.820215 177.888701 
L 348.520941 184.167486 
L 352.221667 190.44627 
L 355.922394 196.725054 
L 359.62312 203.003838 
L 363.323847 209.282622 
L 367.024573 215.561406 
L 370.725299 221.84019 
L 374.426026 228.118974 
L 378.126752 234.397758 
L 381.827478 240.676542 
L 385.528205 246.955326 
L 389.228931 253.23411 
L 392.929657 259.512894 
L 396.630384 265.791678 
L 400.33111 272.070463 
L 404.031837 278.349247 
L 407.732563 284.628031 
L 411.433289 290.906815 
L 415.134016 297.185599 
L 415.40184 297.64 
" clip-path="url(#pfae075c1bd)" style="fill: none; stroke-dasharray: 5.55,2.4; stroke-dashoffset: 0; stroke: #000000; stroke-width: 1.5"/>
   </g>
   <g id="line2d_62">
    <path d="M 349.389502 171.609917 
L 353.090228 177.888701 
L 356.790954 184.167486 
L 360.491681 190.44627 
L 364.192407 196.725054 
L 367.893133 203.003838 
L 371.59386 209.282622 
L 375.294586 215.561406 
L 378.995312 221.84019 
L 382.696039 228.118974 
L 386.396765 234.397758 
L 390.097492 240.676542 
L 393.798218 246.955326 
L 397.498944 253.23411 
L 401.199671 259.512894 
L 404.900397 265.791678 
L 408.601123 272.070463 
L 412.30185 278.349247 
L 416.002576 284.628031 
L 419.703302 290.906815 
L 423.404029 297.185599 
L 423.671854 297.64 
" clip-path="url(#pfae075c1bd)" style="fill: none; stroke-dasharray: 5.55,2.4; stroke-dashoffset: 0; stroke: #000000; stroke-width: 1.5"/>
   </g>
   <g id="line2d_63">
    <path d="M 239.976 171.609917 
L 392.688 171.609917 
" clip-path="url(#pfae075c1bd)" style="fill: none; stroke: #000000; stroke-width: 1.5; stroke-linecap: square"/>
   </g>
   <g id="line2d_64">
    <path d="M 349.389502 252.144 
L 349.389502 153.713455 
" clip-path="url(#pfae075c1bd)" style="fill: none; stroke: #000000; stroke-width: 1.5; stroke-linecap: square"/>
   </g>
   <g id="patch_21">
    <path d="M 239.976 252.144 
L 239.976 153.713455 
" style="fill: none; stroke: #000000; stroke-width: 0.8; stroke-linejoin: miter; stroke-linecap: square"/>
   </g>
   <g id="patch_22">
    <path d="M 392.688 252.144 
L 392.688 153.713455 
" style="fill: none; stroke: #000000; stroke-width: 0.8; stroke-linejoin: miter; stroke-linecap: square"/>
   </g>
   <g id="patch_23">
    <path d="M 239.976 252.144 
L 392.688 252.144 
" style="fill: none; stroke: #000000; stroke-width: 0.8; stroke-linejoin: miter; stroke-linecap: square"/>
   </g>
   <g id="patch_24">
    <path d="M 239.976 153.713455 
L 392.688 153.713455 
" style="fill: none; stroke: #000000; stroke-width: 0.8; stroke-linejoin: miter; stroke-linecap: square"/>
   </g>
   <g id="legend_4">
    <g id="patch_25">
     <path d="M 246.276 247.644 
L 320.602176 247.644 
Q 322.402176 247.644 322.402176 245.844 
L 322.402176 233.945727 
Q 322.402176 232.145727 320.602176 232.145727 
L 246.276 232.145727 
Q 244.476 232.145727 244.476 233.945727 
L 244.476 245.844 
Q 244.476 247.644 246.276 247.644 
z
" style="fill: #ffffff; opacity: 0.8; stroke: #cccccc; stroke-linejoin: miter"/>
    </g>
    <g id="PathCollection_8">
     <g>
      <use xlink:href="#mb3be7e0a7b" x="257.076" y="239.771715" style="fill: #0000ff; stroke: #0000ff"/>
     </g>
    </g>
    <g id="text_40">
     <!-- $2\theta=34.38\degree$ -->
     <g transform="translate(273.276 242.134215) scale(0.09 -0.09)">
      <defs>
       <path id="CMR17-38" d="M 1741 2264 
C 2144 2467 2554 2773 2554 3263 
C 2554 3841 1990 4179 1472 4179 
C 890 4179 378 3759 378 3180 
C 378 3021 416 2747 666 2505 
C 730 2442 998 2251 1171 2130 
C 883 1983 211 1634 211 934 
C 211 279 838 -128 1459 -128 
C 2144 -128 2720 362 2720 1010 
C 2720 1590 2330 1857 2074 2029 
L 1741 2264 
z
M 902 2822 
C 851 2854 595 3051 595 3351 
C 595 3739 998 4032 1459 4032 
C 1965 4032 2336 3676 2336 3262 
C 2336 2669 1670 2331 1638 2331 
C 1632 2331 1626 2331 1574 2370 
L 902 2822 
z
M 2080 1519 
C 2176 1449 2483 1240 2483 851 
C 2483 381 2010 25 1472 25 
C 890 25 448 438 448 940 
C 448 1443 838 1862 1280 2060 
L 2080 1519 
z
" transform="scale(0.015625)"/>
      </defs>
      <use xlink:href="#CMR17-32" transform="scale(0.996264)"/>
      <use xlink:href="#CMMI12-12" transform="translate(45.690477 0) scale(0.996264)"/>
      <use xlink:href="#CMR17-3d" transform="translate(121.533994 0) scale(0.996264)"/>
      <use xlink:href="#CMR17-33" transform="translate(220.922791 0) scale(0.996264)"/>
      <use xlink:href="#CMR17-34" transform="translate(266.613268 0) scale(0.996264)"/>
      <use xlink:href="#CMMI12-3a" transform="translate(312.303745 0) scale(0.996264)"/>
      <use xlink:href="#CMR17-33" transform="translate(339.400922 0) scale(0.996264)"/>
      <use xlink:href="#CMR17-38" transform="translate(385.091399 0) scale(0.996264)"/>
      <use xlink:href="#SFRM3583-b0" transform="translate(430.781876 0) scale(0.356961)"/>
     </g>
    </g>
   </g>
  </g>
  <g id="text_41">
   <!-- $\mathrm{\Re}\left(\mathrm{E^{0^{+}0}}\right)[\SI[]{}{\mega\eV}]$ -->
   <g transform="translate(177.515709 284.796784) scale(0.12 -0.12)">
    <defs>
     <path id="CMSY10-3c" d="M 3667 4500 
C 3615 4590 3609 4596 3519 4596 
C 3078 4596 2296 4413 1963 3855 
C 1867 4039 1554 4502 1068 4502 
C 633 4502 352 4099 352 3734 
C 352 3491 500 3331 679 3145 
C 1038 2787 1038 2684 1038 2448 
C 1038 2070 1000 1686 724 1686 
C 550 1686 518 1923 512 2038 
C 512 2089 505 2140 429 2140 
C 352 2140 352 2070 352 2044 
C 352 1929 410 1545 724 1545 
C 1243 1545 1243 2364 1243 2512 
C 1243 2704 1230 2947 794 3350 
C 615 3510 544 3606 544 3747 
C 544 4022 729 4361 1062 4361 
C 1394 4361 1650 3863 1650 3116 
L 1650 1233 
C 1650 1176 1650 1 1234 1 
C 998 1 762 197 627 598 
C 647 598 775 642 775 700 
C 775 738 724 769 704 769 
C 678 769 595 738 569 726 
C 563 764 530 833 485 833 
C 447 833 402 782 402 750 
C 402 726 415 687 427 668 
C 389 662 293 623 293 573 
C 293 541 331 503 363 503 
C 382 503 459 528 478 541 
C 683 -13 1010 -140 1234 -140 
C 1688 -140 2194 446 2194 1752 
L 2194 2222 
L 2931 2222 
L 3014 801 
C 3014 757 2989 713 2989 591 
C 2989 210 3303 -140 3731 -140 
C 3814 -140 3827 -140 3949 -50 
L 4410 308 
C 4486 372 4493 379 4493 404 
C 4493 455 4390 494 4371 494 
C 4339 494 4109 308 3821 71 
C 3603 211 3526 420 3526 592 
C 3526 713 3552 732 3552 801 
C 3552 986 3520 1316 3514 1513 
C 3501 1643 3475 2162 3469 2253 
C 3827 2369 4525 2785 4538 2791 
C 4557 2810 4570 2824 4570 2856 
C 4570 2869 4531 2946 4525 2952 
L 3667 4500 
z
M 4030 2743 
C 3442 2420 3307 2420 3122 2420 
L 2194 2420 
L 2194 2730 
C 2194 3167 2136 3412 2066 3609 
C 2290 4223 3115 4338 3122 4338 
C 3134 4338 3173 4274 3179 4268 
L 4030 2743 
z
" transform="scale(0.015625)"/>
     <path id="CMEX10-10" d="M 3296 -11187 
C 3309 -11194 3366 -11258 3373 -11258 
L 3514 -11258 
C 3533 -11258 3584 -11251 3584 -11194 
C 3584 -11168 3571 -11155 3558 -11136 
C 3328 -10906 2982 -10554 2586 -9850 
C 1894 -8621 1638 -7040 1638 -5504 
C 1638 -2662 2445 -992 3565 141 
C 3584 160 3584 179 3584 192 
C 3584 256 3539 256 3462 256 
C 3379 256 3366 256 3309 205 
C 2701 -320 2016 -1210 1574 -2560 
C 1299 -3405 1152 -4435 1152 -5498 
C 1152 -7014 1427 -8730 2432 -10214 
C 2605 -10464 2842 -10726 2842 -10733 
C 2906 -10810 2995 -10912 3046 -10957 
L 3296 -11187 
z
" transform="scale(0.015625)"/>
     <path id="CMR17-45" d="M 3885 1615 
L 3770 1615 
C 3629 676 3546 166 2419 166 
L 1530 166 
C 1274 166 1261 197 1261 414 
L 1261 2176 
L 1862 2176 
C 2464 2176 2522 1960 2522 1430 
L 2637 1430 
L 2637 3081 
L 2522 3081 
C 2522 2557 2464 2342 1862 2342 
L 1261 2342 
L 1261 3913 
C 1261 4128 1274 4160 1530 4160 
L 2406 4160 
C 3398 4160 3514 3769 3603 2929 
L 3718 2929 
L 3565 4325 
L 326 4325 
L 326 4160 
C 768 4160 838 4160 838 3874 
L 838 451 
C 838 166 768 166 326 166 
L 326 0 
L 3654 0 
L 3885 1615 
z
" transform="scale(0.015625)"/>
     <path id="CMR17-2b" d="M 2413 1472 
L 4109 1472 
C 4198 1472 4307 1472 4307 1580 
C 4307 1695 4205 1695 4109 1695 
L 2413 1695 
L 2413 3386 
C 2413 3475 2413 3584 2304 3584 
C 2189 3584 2189 3482 2189 3386 
L 2189 1695 
L 493 1695 
C 403 1695 294 1695 294 1587 
C 294 1472 397 1472 493 1472 
L 2189 1472 
L 2189 -218 
C 2189 -307 2189 -416 2298 -416 
C 2413 -416 2413 -314 2413 -218 
L 2413 1472 
z
" transform="scale(0.015625)"/>
     <path id="CMEX10-11" d="M 2662 -5498 
C 2662 -3661 2234 -1709 973 -269 
C 883 -166 646 83 493 218 
C 448 256 435 256 352 256 
C 288 256 230 256 230 192 
C 230 166 256 141 269 128 
C 486 -96 832 -448 1229 -1152 
C 1920 -2381 2176 -3962 2176 -5498 
C 2176 -8275 1408 -9971 256 -11142 
C 243 -11155 230 -11174 230 -11194 
C 230 -11258 288 -11258 352 -11258 
C 435 -11258 448 -11258 506 -11206 
C 1114 -10682 1798 -9792 2240 -8442 
C 2522 -7565 2662 -6528 2662 -5498 
z
" transform="scale(0.015625)"/>
     <path id="CMR17-5b" d="M 1504 -1600 
L 1504 -1377 
L 902 -1377 
L 902 4544 
L 1504 4544 
L 1504 4767 
L 678 4767 
L 678 -1600 
L 1504 -1600 
z
" transform="scale(0.015625)"/>
     <path id="CMR17-4d" d="M 1338 4224 
C 1299 4320 1293 4320 1158 4320 
L 339 4320 
L 339 4160 
C 781 4160 851 4160 851 3875 
L 851 610 
C 851 451 851 153 339 153 
L 339 -13 
C 486 0 755 0 915 0 
C 1075 0 1344 0 1491 -13 
L 1491 153 
C 979 153 979 451 979 610 
L 979 4135 
L 986 4135 
L 2490 89 
C 2515 25 2528 -13 2579 -13 
C 2630 -13 2643 25 2669 89 
L 4186 4166 
L 4192 4166 
L 4192 438 
C 4192 153 4122 153 3680 153 
L 3680 -13 
C 3853 0 4198 0 4384 0 
C 4570 0 4922 0 5094 -13 
L 5094 153 
C 4653 153 4582 153 4582 438 
L 4582 3875 
C 4582 4160 4653 4160 5094 4160 
L 5094 4320 
L 4282 4320 
C 4147 4320 4141 4314 4102 4218 
L 2720 502 
L 1338 4224 
z
" transform="scale(0.015625)"/>
     <path id="CMR17-65" d="M 2438 1472 
C 2464 1498 2464 1511 2464 1576 
C 2464 2238 2118 2816 1389 2816 
C 710 2816 173 2169 173 1383 
C 173 551 781 -64 1459 -64 
C 2176 -64 2458 607 2458 740 
C 2458 784 2419 784 2406 784 
C 2362 784 2355 771 2330 696 
C 2189 265 1837 51 1504 51 
C 1229 51 954 203 781 480 
C 582 803 582 1176 582 1472 
L 2438 1472 
z
M 589 1568 
C 634 2505 1126 2714 1382 2714 
C 1818 2714 2112 2297 2118 1568 
L 589 1568 
z
" transform="scale(0.015625)"/>
     <path id="CMR17-56" d="M 3776 3745 
C 3834 3886 3936 4160 4365 4160 
L 4365 4332 
C 4218 4319 4051 4319 3891 4319 
C 3738 4319 3475 4319 3328 4332 
L 3328 4160 
C 3648 4160 3661 3936 3661 3898 
C 3661 3827 3642 3783 3622 3732 
L 2362 446 
L 1043 3886 
C 1024 3931 1011 3963 1011 3994 
C 1011 4160 1267 4160 1402 4160 
L 1402 4319 
C 1197 4319 896 4319 685 4319 
C 518 4319 218 4319 64 4332 
L 64 4160 
C 435 4160 506 4135 582 3931 
L 2106 -26 
C 2138 -115 2144 -128 2214 -128 
C 2285 -128 2291 -115 2323 -26 
L 3776 3745 
z
" transform="scale(0.015625)"/>
     <path id="CMR17-5d" d="M 915 4767 
L 90 4767 
L 90 4544 
L 691 4544 
L 691 -1377 
L 90 -1377 
L 90 -1600 
L 915 -1600 
L 915 4767 
z
" transform="scale(0.015625)"/>
    </defs>
    <use xlink:href="#CMSY10-3c" transform="scale(0.996264)"/>
    <use xlink:href="#CMEX10-10" transform="translate(88.556995 110.586308) scale(0.996264)"/>
    <use xlink:href="#CMR17-45" transform="translate(148.056285 0) scale(0.996264)"/>
    <use xlink:href="#CMR17-30" transform="translate(210.642585 36.153639) scale(0.697382)"/>
    <use xlink:href="#CMR17-2b" transform="translate(242.625767 61.461065) scale(0.498132)"/>
    <use xlink:href="#CMR17-30" transform="translate(278.981286 36.153639) scale(0.697382)"/>
    <use xlink:href="#CMEX10-11" transform="translate(311.4626 110.586308) scale(0.996264)"/>
    <use xlink:href="#CMR17-5b" transform="translate(387.566295 0) scale(0.996264)"/>
    <use xlink:href="#CMR17-4d" transform="translate(412.437353 0) scale(0.996264)"/>
    <use xlink:href="#CMR17-65" transform="translate(497.124294 0) scale(0.996264)"/>
    <use xlink:href="#CMR17-56" transform="translate(537.609954 0) scale(0.996264)"/>
    <use xlink:href="#CMR17-5d" transform="translate(607.98355 0) scale(0.996264)"/>
   </g>
  </g>
  <g id="text_42">
   <!-- $\mathrm{\Im}\left(\mathrm{E^{0^{+}0}}\right)\ [\SI[]{}{\mega\eV}]$ -->
   <g transform="translate(24.804784 190.625998) rotate(-90) scale(0.12 -0.12)">
    <defs>
     <path id="CMSY10-3d" d="M 1837 2150 
C 1837 2195 1798 2214 1773 2221 
C 806 2278 550 2918 550 3296 
C 550 3936 1133 4371 1715 4371 
C 2080 4371 2285 4143 2560 3799 
C 2848 3437 3155 3050 3706 3050 
C 4154 3050 4435 3254 4435 3495 
C 4435 3578 4371 3578 4333 3578 
C 4250 3578 4243 3546 4237 3490 
C 4186 3191 3731 3191 3718 3191 
C 3629 3191 3590 3210 3488 3394 
C 2918 4448 2010 4512 1741 4512 
C 966 4512 352 3974 352 3296 
C 352 2509 1139 2080 1728 2080 
C 1766 2080 1837 2080 1837 2150 
z
M 525 1171 
C 410 1171 352 1171 352 1101 
C 352 1088 352 1037 410 1030 
C 634 1018 838 998 1338 550 
C 2016 -70 2157 -70 2669 -70 
C 3002 -70 3270 -70 3584 147 
C 3808 301 3994 557 3994 883 
C 3994 1114 3904 1248 3667 1504 
C 3418 1786 3398 1894 3398 2042 
C 3398 2317 3469 2618 3706 2618 
C 3712 2618 4179 2618 4237 2170 
C 4243 2131 4250 2086 4333 2086 
C 4416 2086 4435 2118 4435 2176 
C 4435 2451 4147 2758 3693 2758 
C 3232 2758 2861 2426 2861 2022 
C 2861 1766 3008 1606 3200 1389 
C 3437 1120 3456 1018 3456 883 
C 3456 288 2797 77 2682 77 
C 2643 77 2464 128 2259 275 
C 2144 358 1965 525 1939 544 
C 1472 986 1229 1171 781 1171 
L 525 1171 
z
" transform="scale(0.015625)"/>
    </defs>
    <use xlink:href="#CMSY10-3d" transform="scale(0.996264)"/>
    <use xlink:href="#CMEX10-10" transform="translate(88.556995 110.586308) scale(0.996264)"/>
    <use xlink:href="#CMR17-45" transform="translate(148.056285 0) scale(0.996264)"/>
    <use xlink:href="#CMR17-30" transform="translate(210.642585 36.153639) scale(0.697382)"/>
    <use xlink:href="#CMR17-2b" transform="translate(242.625767 61.461065) scale(0.498132)"/>
    <use xlink:href="#CMR17-30" transform="translate(278.981286 36.153639) scale(0.697382)"/>
    <use xlink:href="#CMEX10-11" transform="translate(311.4626 110.586308) scale(0.996264)"/>
    <use xlink:href="#CMR17-5b" transform="translate(415.261465 0) scale(0.996264)"/>
    <use xlink:href="#CMR17-4d" transform="translate(440.132523 0) scale(0.996264)"/>
    <use xlink:href="#CMR17-65" transform="translate(524.819464 0) scale(0.996264)"/>
    <use xlink:href="#CMR17-56" transform="translate(565.305124 0) scale(0.996264)"/>
    <use xlink:href="#CMR17-5d" transform="translate(635.67872 0) scale(0.996264)"/>
   </g>
  </g>
 </g>
 <defs>
  <clipPath id="p3ace819035">
   <rect x="56.7216" y="35.5968" width="152.712" height="98.430545"/>
  </clipPath>
  <clipPath id="pa7c78be980">
   <rect x="239.976" y="35.5968" width="152.712" height="98.430545"/>
  </clipPath>
  <clipPath id="p91e56f3d42">
   <rect x="56.7216" y="153.713455" width="152.712" height="98.430545"/>
  </clipPath>
  <clipPath id="pfae075c1bd">
   <rect x="239.976" y="153.713455" width="152.712" height="98.430545"/>
  </clipPath>
 </defs>
</svg>
