<?xml version="1.0" encoding="utf-8" standalone="no"?>
<!DOCTYPE svg PUBLIC "-//W3C//DTD SVG 1.1//EN"
  "http://www.w3.org/Graphics/SVG/1.1/DTD/svg11.dtd">
<svg xmlns:xlink="http://www.w3.org/1999/xlink" width="436.32pt" height="296.64pt" viewBox="0 0 436.32 296.64" xmlns="http://www.w3.org/2000/svg" version="1.1">
 <metadata>
  <rdf:RDF xmlns:dc="http://purl.org/dc/elements/1.1/" xmlns:cc="http://creativecommons.org/ns#" xmlns:rdf="http://www.w3.org/1999/02/22-rdf-syntax-ns#">
   <cc:Work>
    <dc:type rdf:resource="http://purl.org/dc/dcmitype/StillImage"/>
    <dc:date>2024-08-21T15:16:43.771127</dc:date>
    <dc:format>image/svg+xml</dc:format>
    <dc:creator>
     <cc:Agent>
      <dc:title>Matplotlib v3.8.0, https://matplotlib.org/</dc:title>
     </cc:Agent>
    </dc:creator>
   </cc:Work>
  </rdf:RDF>
 </metadata>
 <defs>
  <style type="text/css">*{stroke-linejoin: round; stroke-linecap: butt}</style>
 </defs>
 <g id="figure_1">
  <g id="patch_1">
   <path d="M 0 296.64 
L 436.32 296.64 
L 436.32 0 
L 0 0 
z
" style="fill: #ffffff"/>
  </g>
  <g id="axes_1">
   <g id="patch_2">
    <path d="M 56.7216 134.027345 
L 209.4336 134.027345 
L 209.4336 35.5968 
L 56.7216 35.5968 
z
" style="fill: #ffffff"/>
   </g>
   <g id="PathCollection_1">
    <defs>
     <path id="ma033614880" d="M -5 5 
L 5 -5 
M -5 -5 
L 5 5 
" style="stroke: #0000ff"/>
    </defs>
    <g clip-path="url(#p31429112b6)">
     <use xlink:href="#ma033614880" x="61.369205" y="53.479903" style="fill: #0000ff; stroke: #0000ff"/>
     <use xlink:href="#ma033614880" x="137.301909" y="53.945573" style="fill: #0000ff; stroke: #0000ff"/>
     <use xlink:href="#ma033614880" x="170.393444" y="55.347444" style="fill: #0000ff; stroke: #0000ff"/>
     <use xlink:href="#ma033614880" x="175.289874" y="54.857063" style="fill: #0000ff; stroke: #0000ff"/>
     <use xlink:href="#ma033614880" x="178.336659" y="55.836116" style="fill: #0000ff; stroke: #0000ff"/>
     <use xlink:href="#ma033614880" x="193.65226" y="55.278569" style="fill: #0000ff; stroke: #0000ff"/>
     <use xlink:href="#ma033614880" x="196.247636" y="55.805405" style="fill: #0000ff; stroke: #0000ff"/>
    </g>
   </g>
   <g id="matplotlib.axis_1">
    <g id="xtick_1">
     <g id="line2d_1">
      <defs>
       <path id="m8ca48a04c1" d="M 0 0 
L 0 3.5 
" style="stroke: #000000; stroke-width: 0.8"/>
      </defs>
      <g>
       <use xlink:href="#m8ca48a04c1" x="84.14012" y="134.027345" style="stroke: #000000; stroke-width: 0.8"/>
      </g>
     </g>
     <g id="text_1">
      <!-- $\mathdefault{−20}$ -->
      <g transform="translate(74.398849 148.835498) scale(0.11 -0.11)">
       <defs>
        <path id="CMSY10-0" d="M 4218 1472 
C 4326 1472 4442 1472 4442 1600 
C 4442 1728 4326 1728 4218 1728 
L 755 1728 
C 646 1728 531 1728 531 1600 
C 531 1472 646 1472 755 1472 
L 4218 1472 
z
" transform="scale(0.015625)"/>
        <path id="CMR17-32" d="M 2669 989 
L 2554 989 
C 2490 536 2438 459 2413 420 
C 2381 369 1920 369 1830 369 
L 602 369 
C 832 619 1280 1072 1824 1597 
C 2214 1967 2669 2402 2669 3035 
C 2669 3790 2067 4224 1395 4224 
C 691 4224 262 3604 262 3030 
C 262 2780 448 2748 525 2748 
C 589 2748 781 2787 781 3010 
C 781 3207 614 3264 525 3264 
C 486 3264 448 3258 422 3245 
C 544 3790 915 4058 1306 4058 
C 1862 4058 2227 3617 2227 3035 
C 2227 2479 1901 2000 1536 1584 
L 262 146 
L 262 0 
L 2515 0 
L 2669 989 
z
" transform="scale(0.015625)"/>
        <path id="CMR17-30" d="M 2688 2025 
C 2688 2416 2682 3080 2413 3591 
C 2176 4039 1798 4198 1466 4198 
C 1158 4198 768 4058 525 3597 
C 269 3118 243 2524 243 2025 
C 243 1661 250 1106 448 619 
C 723 -39 1216 -128 1466 -128 
C 1760 -128 2208 -7 2470 600 
C 2662 1042 2688 1559 2688 2025 
z
M 1466 -26 
C 1056 -26 813 325 723 812 
C 653 1188 653 1738 653 2096 
C 653 2588 653 2997 736 3387 
C 858 3929 1216 4096 1466 4096 
C 1728 4096 2067 3923 2189 3400 
C 2272 3036 2278 2607 2278 2096 
C 2278 1680 2278 1169 2202 792 
C 2067 95 1690 -26 1466 -26 
z
" transform="scale(0.015625)"/>
       </defs>
       <use xlink:href="#CMSY10-0" transform="scale(0.996264)"/>
       <use xlink:href="#CMR17-32" transform="translate(77.487468 0) scale(0.996264)"/>
       <use xlink:href="#CMR17-30" transform="translate(123.177945 0) scale(0.996264)"/>
      </g>
     </g>
    </g>
    <g id="xtick_2">
     <g id="line2d_2">
      <g>
       <use xlink:href="#m8ca48a04c1" x="123.294333" y="134.027345" style="stroke: #000000; stroke-width: 0.8"/>
      </g>
     </g>
     <g id="text_2">
      <!-- $\mathdefault{−10}$ -->
      <g transform="translate(113.553061 148.835498) scale(0.11 -0.11)">
       <defs>
        <path id="CMR17-31" d="M 1702 4058 
C 1702 4192 1696 4192 1606 4192 
C 1357 3916 979 3827 621 3827 
C 602 3827 570 3827 563 3808 
C 557 3795 557 3782 557 3648 
C 755 3648 1088 3686 1344 3839 
L 1344 461 
C 1344 236 1331 160 781 160 
L 589 160 
L 589 0 
C 896 0 1216 0 1523 0 
C 1830 0 2150 0 2458 0 
L 2458 160 
L 2266 160 
C 1715 160 1702 230 1702 458 
L 1702 4058 
z
" transform="scale(0.015625)"/>
       </defs>
       <use xlink:href="#CMSY10-0" transform="scale(0.996264)"/>
       <use xlink:href="#CMR17-31" transform="translate(77.487468 0) scale(0.996264)"/>
       <use xlink:href="#CMR17-30" transform="translate(123.177945 0) scale(0.996264)"/>
      </g>
     </g>
    </g>
    <g id="xtick_3">
     <g id="line2d_3">
      <g>
       <use xlink:href="#m8ca48a04c1" x="162.448545" y="134.027345" style="stroke: #000000; stroke-width: 0.8"/>
      </g>
     </g>
     <g id="text_3">
      <!-- $\mathdefault{0}$ -->
      <g transform="translate(159.708811 148.835498) scale(0.11 -0.11)">
       <use xlink:href="#CMR17-30" transform="scale(0.996264)"/>
      </g>
     </g>
    </g>
    <g id="xtick_4">
     <g id="line2d_4">
      <g>
       <use xlink:href="#m8ca48a04c1" x="201.602758" y="134.027345" style="stroke: #000000; stroke-width: 0.8"/>
      </g>
     </g>
     <g id="text_4">
      <!-- $\mathdefault{10}$ -->
      <g transform="translate(196.12329 148.835498) scale(0.11 -0.11)">
       <use xlink:href="#CMR17-31" transform="scale(0.996264)"/>
       <use xlink:href="#CMR17-30" transform="translate(45.690477 0) scale(0.996264)"/>
      </g>
     </g>
    </g>
   </g>
   <g id="matplotlib.axis_2">
    <g id="ytick_1">
     <g id="line2d_5">
      <defs>
       <path id="mfcf4652a6a" d="M 0 0 
L -3.5 0 
" style="stroke: #000000; stroke-width: 0.8"/>
      </defs>
      <g>
       <use xlink:href="#mfcf4652a6a" x="56.7216" y="120.604998" style="stroke: #000000; stroke-width: 0.8"/>
      </g>
     </g>
     <g id="text_5">
      <!-- $\mathdefault{−7.5}$ -->
      <g transform="translate(27.194915 124.509074) scale(0.11 -0.11)">
       <defs>
        <path id="CMR17-37" d="M 2886 3941 
L 2886 4081 
L 1382 4081 
C 634 4081 621 4165 595 4288 
L 480 4288 
L 294 3094 
L 410 3094 
C 429 3215 474 3540 550 3661 
C 589 3712 1062 3712 1171 3712 
L 2579 3712 
L 1869 2661 
C 1395 1954 1069 999 1069 165 
C 1069 89 1069 -128 1299 -128 
C 1530 -128 1530 89 1530 171 
L 1530 465 
C 1530 1508 1709 2196 2003 2636 
L 2886 3941 
z
" transform="scale(0.015625)"/>
        <path id="CMMI12-3a" d="M 1178 307 
C 1178 492 1024 619 870 619 
C 685 619 557 466 557 313 
C 557 128 710 0 864 0 
C 1050 0 1178 153 1178 307 
z
" transform="scale(0.015625)"/>
        <path id="CMR17-35" d="M 730 3692 
C 794 3666 1056 3584 1325 3584 
C 1920 3584 2246 3911 2432 4100 
C 2432 4157 2432 4192 2394 4192 
C 2387 4192 2374 4192 2323 4163 
C 2099 4058 1837 3973 1517 3973 
C 1325 3973 1037 3999 723 4139 
C 653 4171 640 4171 634 4171 
C 602 4171 595 4164 595 4037 
L 595 2203 
C 595 2089 595 2057 659 2057 
C 691 2057 704 2070 736 2114 
C 941 2401 1222 2522 1542 2522 
C 1766 2522 2246 2382 2246 1289 
C 2246 1085 2246 715 2054 421 
C 1894 159 1645 25 1370 25 
C 947 25 518 320 403 814 
C 429 807 480 795 506 795 
C 589 795 749 840 749 1038 
C 749 1210 627 1280 506 1280 
C 358 1280 262 1190 262 1011 
C 262 454 704 -128 1382 -128 
C 2042 -128 2669 440 2669 1264 
C 2669 2030 2170 2624 1549 2624 
C 1222 2624 947 2503 730 2274 
L 730 3692 
z
" transform="scale(0.015625)"/>
       </defs>
       <use xlink:href="#CMSY10-0" transform="scale(0.996264)"/>
       <use xlink:href="#CMR17-37" transform="translate(77.487468 0) scale(0.996264)"/>
       <use xlink:href="#CMMI12-3a" transform="translate(123.177945 0) scale(0.996264)"/>
       <use xlink:href="#CMR17-35" transform="translate(150.275122 0) scale(0.996264)"/>
      </g>
     </g>
    </g>
    <g id="ytick_2">
     <g id="line2d_6">
      <g>
       <use xlink:href="#mfcf4652a6a" x="56.7216" y="98.23442" style="stroke: #000000; stroke-width: 0.8"/>
      </g>
     </g>
     <g id="text_6">
      <!-- $\mathdefault{−5.0}$ -->
      <g transform="translate(27.194915 102.138496) scale(0.11 -0.11)">
       <use xlink:href="#CMSY10-0" transform="scale(0.996264)"/>
       <use xlink:href="#CMR17-35" transform="translate(77.487468 0) scale(0.996264)"/>
       <use xlink:href="#CMMI12-3a" transform="translate(123.177945 0) scale(0.996264)"/>
       <use xlink:href="#CMR17-30" transform="translate(150.275122 0) scale(0.996264)"/>
      </g>
     </g>
    </g>
    <g id="ytick_3">
     <g id="line2d_7">
      <g>
       <use xlink:href="#mfcf4652a6a" x="56.7216" y="75.863841" style="stroke: #000000; stroke-width: 0.8"/>
      </g>
     </g>
     <g id="text_7">
      <!-- $\mathdefault{−2.5}$ -->
      <g transform="translate(27.194915 79.767917) scale(0.11 -0.11)">
       <use xlink:href="#CMSY10-0" transform="scale(0.996264)"/>
       <use xlink:href="#CMR17-32" transform="translate(77.487468 0) scale(0.996264)"/>
       <use xlink:href="#CMMI12-3a" transform="translate(123.177945 0) scale(0.996264)"/>
       <use xlink:href="#CMR17-35" transform="translate(150.275122 0) scale(0.996264)"/>
      </g>
     </g>
    </g>
    <g id="ytick_4">
     <g id="line2d_8">
      <g>
       <use xlink:href="#mfcf4652a6a" x="56.7216" y="53.493263" style="stroke: #000000; stroke-width: 0.8"/>
      </g>
     </g>
     <g id="text_8">
      <!-- $\mathdefault{0.0}$ -->
      <g transform="translate(35.718524 57.397339) scale(0.11 -0.11)">
       <use xlink:href="#CMR17-30" transform="scale(0.996264)"/>
       <use xlink:href="#CMMI12-3a" transform="translate(45.690477 0) scale(0.996264)"/>
       <use xlink:href="#CMR17-30" transform="translate(72.787654 0) scale(0.996264)"/>
      </g>
     </g>
    </g>
   </g>
   <g id="line2d_9">
    <path d="M 131.007713 53.493263 
L 135.023529 53.676841 
L 139.039346 53.860419 
L 143.055163 54.043997 
L 147.070979 54.227575 
L 151.086796 54.411153 
L 155.102613 54.59473 
L 159.118429 54.778308 
L 163.134246 54.961886 
L 167.150062 55.145464 
L 171.165879 55.329042 
L 175.181696 55.51262 
L 179.197512 55.696198 
L 183.213329 55.879776 
L 187.229146 56.063354 
L 191.244962 56.246932 
L 195.260779 56.43051 
L 199.276596 56.614088 
L 203.292412 56.797666 
L 207.308229 56.981244 
L 211.324046 57.164822 
L 215.339862 57.3484 
L 219.355679 57.531978 
L 223.371496 57.715555 
L 227.387312 57.899133 
L 231.403129 58.082711 
L 235.418946 58.266289 
L 239.434762 58.449867 
L 243.450579 58.633445 
L 247.466396 58.817023 
L 251.482212 59.000601 
L 255.498029 59.184179 
L 259.513846 59.367757 
L 263.529662 59.551335 
L 267.545479 59.734913 
L 271.561296 59.918491 
L 275.577112 60.102069 
L 279.592929 60.285647 
L 283.608746 60.469225 
L 287.624562 60.652803 
" clip-path="url(#p31429112b6)" style="fill: none; stroke-dasharray: 5.55,2.4; stroke-dashoffset: 0; stroke: #000000; stroke-width: 1.5"/>
   </g>
   <g id="line2d_10">
    <path d="M 133.200348 53.493263 
L 137.216165 53.676841 
L 141.231982 53.860419 
L 145.247798 54.043997 
L 149.263615 54.227575 
L 153.279432 54.411153 
L 157.295248 54.59473 
L 161.311065 54.778308 
L 165.326882 54.961886 
L 169.342698 55.145464 
L 173.358515 55.329042 
L 177.374332 55.51262 
L 181.390148 55.696198 
L 185.405965 55.879776 
L 189.421782 56.063354 
L 193.437598 56.246932 
L 197.453415 56.43051 
L 201.469232 56.614088 
L 205.485048 56.797666 
L 209.500865 56.981244 
L 213.516682 57.164822 
L 217.532498 57.3484 
L 221.548315 57.531978 
L 225.564132 57.715555 
L 229.579948 57.899133 
L 233.595765 58.082711 
L 237.611582 58.266289 
L 241.627398 58.449867 
L 245.643215 58.633445 
L 249.659031 58.817023 
L 253.674848 59.000601 
L 257.690665 59.184179 
L 261.706481 59.367757 
L 265.722298 59.551335 
L 269.738115 59.734913 
L 273.753931 59.918491 
L 277.769748 60.102069 
L 281.785565 60.285647 
L 285.801381 60.469225 
L 289.817198 60.652803 
" clip-path="url(#p31429112b6)" style="fill: none; stroke-dasharray: 5.55,2.4; stroke-dashoffset: 0; stroke: #000000; stroke-width: 1.5"/>
   </g>
   <g id="line2d_11">
    <path d="M 144.500254 53.493263 
L 148.516071 53.676841 
L 152.531887 53.860419 
L 156.547704 54.043997 
L 160.563521 54.227575 
L 164.579337 54.411153 
L 168.595154 54.59473 
L 172.610971 54.778308 
L 176.626787 54.961886 
L 180.642604 55.145464 
L 184.658421 55.329042 
L 188.674237 55.51262 
L 192.690054 55.696198 
L 196.705871 55.879776 
L 200.721687 56.063354 
L 204.737504 56.246932 
L 208.753321 56.43051 
L 212.769137 56.614088 
L 216.784954 56.797666 
L 220.800771 56.981244 
L 224.816587 57.164822 
L 228.832404 57.3484 
L 232.848221 57.531978 
L 236.864037 57.715555 
L 240.879854 57.899133 
L 244.895671 58.082711 
L 248.911487 58.266289 
L 252.927304 58.449867 
L 256.943121 58.633445 
L 260.958937 58.817023 
L 264.974754 59.000601 
L 268.990571 59.184179 
L 273.006387 59.367757 
L 277.022204 59.551335 
L 281.03802 59.734913 
L 285.053837 59.918491 
L 289.069654 60.102069 
L 293.08547 60.285647 
L 297.101287 60.469225 
L 301.117104 60.652803 
" clip-path="url(#p31429112b6)" style="fill: none; stroke-dasharray: 5.55,2.4; stroke-dashoffset: 0; stroke: #000000; stroke-width: 1.5"/>
   </g>
   <g id="line2d_12">
    <path d="M 153.4744 53.493263 
L 157.490216 53.676841 
L 161.506033 53.860419 
L 165.52185 54.043997 
L 169.537666 54.227575 
L 173.553483 54.411153 
L 177.5693 54.59473 
L 181.585116 54.778308 
L 185.600933 54.961886 
L 189.61675 55.145464 
L 193.632566 55.329042 
L 197.648383 55.51262 
L 201.6642 55.696198 
L 205.680016 55.879776 
L 209.695833 56.063354 
L 213.711649 56.246932 
L 217.727466 56.43051 
L 221.743283 56.614088 
L 225.759099 56.797666 
L 229.774916 56.981244 
L 233.790733 57.164822 
L 237.806549 57.3484 
L 241.822366 57.531978 
L 245.838183 57.715555 
L 249.853999 57.899133 
L 253.869816 58.082711 
L 257.885633 58.266289 
L 261.901449 58.449867 
L 265.917266 58.633445 
L 269.933083 58.817023 
L 273.948899 59.000601 
L 277.964716 59.184179 
L 281.980533 59.367757 
L 285.996349 59.551335 
L 290.012166 59.734913 
L 294.027983 59.918491 
L 298.043799 60.102069 
L 302.059616 60.285647 
L 306.075433 60.469225 
L 310.091249 60.652803 
" clip-path="url(#p31429112b6)" style="fill: none; stroke-dasharray: 5.55,2.4; stroke-dashoffset: 0; stroke: #000000; stroke-width: 1.5"/>
   </g>
   <g id="line2d_13">
    <path d="M 162.448545 53.493263 
L 166.464362 53.676841 
L 170.480178 53.860419 
L 174.495995 54.043997 
L 178.511812 54.227575 
L 182.527628 54.411153 
L 186.543445 54.59473 
L 190.559262 54.778308 
L 194.575078 54.961886 
L 198.590895 55.145464 
L 202.606712 55.329042 
L 206.622528 55.51262 
L 210.638345 55.696198 
L 214.654162 55.879776 
L 218.669978 56.063354 
L 222.685795 56.246932 
L 226.701612 56.43051 
L 230.717428 56.614088 
L 234.733245 56.797666 
L 238.749062 56.981244 
L 242.764878 57.164822 
L 246.780695 57.3484 
L 250.796512 57.531978 
L 254.812328 57.715555 
L 258.828145 57.899133 
L 262.843962 58.082711 
L 266.859778 58.266289 
L 270.875595 58.449867 
L 274.891412 58.633445 
L 278.907228 58.817023 
L 282.923045 59.000601 
L 286.938861 59.184179 
L 290.954678 59.367757 
L 294.970495 59.551335 
L 298.986311 59.734913 
L 303.002128 59.918491 
L 307.017945 60.102069 
L 311.033761 60.285647 
L 315.049578 60.469225 
L 319.065395 60.652803 
" clip-path="url(#p31429112b6)" style="fill: none; stroke-dasharray: 5.55,2.4; stroke-dashoffset: 0; stroke: #000000; stroke-width: 1.5"/>
   </g>
   <g id="line2d_14">
    <path d="M 56.7216 53.493263 
L 209.4336 53.493263 
" clip-path="url(#p31429112b6)" style="fill: none; stroke: #000000; stroke-width: 1.5; stroke-linecap: square"/>
   </g>
   <g id="line2d_15">
    <path d="M 162.448545 134.027345 
L 162.448545 35.5968 
" clip-path="url(#p31429112b6)" style="fill: none; stroke: #000000; stroke-width: 1.5; stroke-linecap: square"/>
   </g>
   <g id="patch_3">
    <path d="M 56.7216 134.027345 
L 56.7216 35.5968 
" style="fill: none; stroke: #000000; stroke-width: 0.8; stroke-linejoin: miter; stroke-linecap: square"/>
   </g>
   <g id="patch_4">
    <path d="M 209.4336 134.027345 
L 209.4336 35.5968 
" style="fill: none; stroke: #000000; stroke-width: 0.8; stroke-linejoin: miter; stroke-linecap: square"/>
   </g>
   <g id="patch_5">
    <path d="M 56.7216 134.027345 
L 209.4336 134.027345 
" style="fill: none; stroke: #000000; stroke-width: 0.8; stroke-linejoin: miter; stroke-linecap: square"/>
   </g>
   <g id="patch_6">
    <path d="M 56.7216 35.5968 
L 209.4336 35.5968 
" style="fill: none; stroke: #000000; stroke-width: 0.8; stroke-linejoin: miter; stroke-linecap: square"/>
   </g>
   <g id="legend_1">
    <g id="patch_7">
     <path d="M 63.0216 129.527345 
L 132.740086 129.527345 
Q 134.540086 129.527345 134.540086 127.727345 
L 134.540086 115.829072 
Q 134.540086 114.029072 132.740086 114.029072 
L 63.0216 114.029072 
Q 61.2216 114.029072 61.2216 115.829072 
L 61.2216 127.727345 
Q 61.2216 129.527345 63.0216 129.527345 
z
" style="fill: #ffffff; opacity: 0.8; stroke: #cccccc; stroke-linejoin: miter"/>
    </g>
    <g id="PathCollection_2">
     <defs>
      <path id="m9066d77b5f" d="M -3.5 3.5 
L 3.5 -3.5 
M -3.5 -3.5 
L 3.5 3.5 
" style="stroke: #0000ff"/>
     </defs>
     <g>
      <use xlink:href="#m9066d77b5f" x="73.8216" y="121.655061" style="fill: #0000ff; stroke: #0000ff"/>
     </g>
    </g>
    <g id="text_9">
     <!-- $2\theta=1.15\degree$ -->
     <g transform="translate(90.0216 124.017561) scale(0.09 -0.09)">
      <defs>
       <path id="CMMI12-12" d="M 2835 3200 
C 2835 3850 2630 4480 2106 4480 
C 1210 4480 256 2615 256 1216 
C 256 923 320 -64 992 -64 
C 1862 -64 2835 1756 2835 3200 
z
M 896 2304 
C 992 2679 1126 3214 1382 3665 
C 1594 4047 1818 4352 2099 4352 
C 2310 4352 2451 4174 2451 3564 
C 2451 3334 2432 3017 2246 2304 
L 896 2304 
z
M 2202 2113 
C 2042 1490 1907 1088 1677 687 
C 1491 363 1267 64 998 64 
C 800 64 640 217 640 846 
C 640 1260 742 1693 845 2113 
L 2202 2113 
z
" transform="scale(0.015625)"/>
       <path id="CMR17-3d" d="M 4115 2017 
C 4211 2017 4307 2017 4307 2125 
C 4307 2240 4198 2240 4090 2240 
L 512 2240 
C 403 2240 294 2240 294 2125 
C 294 2017 390 2017 486 2017 
L 4115 2017 
z
M 4090 896 
C 4198 896 4307 896 4307 1011 
C 4307 1119 4211 1119 4115 1119 
L 486 1119 
C 390 1119 294 1119 294 1011 
C 294 896 403 896 512 896 
L 4090 896 
z
" transform="scale(0.015625)"/>
       <path id="SFRM3583-b0" d="M 890 4416 
C 544 4371 326 4080 326 3776 
C 326 3453 576 3136 960 3136 
L 1018 3136 
C 1357 3181 1587 3472 1587 3776 
C 1587 4105 1312 4416 947 4416 
L 890 4416 
z
M 525 3737 
L 525 3776 
C 525 4003 723 4204 947 4204 
C 1178 4204 1338 4026 1382 3815 
L 1382 3776 
C 1382 3545 1184 3341 960 3341 
C 730 3341 570 3522 525 3737 
z
" transform="scale(0.015625)"/>
      </defs>
      <use xlink:href="#CMR17-32" transform="scale(0.996264)"/>
      <use xlink:href="#CMMI12-12" transform="translate(45.690477 0) scale(0.996264)"/>
      <use xlink:href="#CMR17-3d" transform="translate(121.533994 0) scale(0.996264)"/>
      <use xlink:href="#CMR17-31" transform="translate(220.922791 0) scale(0.996264)"/>
      <use xlink:href="#CMMI12-3a" transform="translate(266.613268 0) scale(0.996264)"/>
      <use xlink:href="#CMR17-31" transform="translate(293.710445 0) scale(0.996264)"/>
      <use xlink:href="#CMR17-35" transform="translate(339.400922 0) scale(0.996264)"/>
      <use xlink:href="#SFRM3583-b0" transform="translate(385.091399 0) scale(0.356961)"/>
     </g>
    </g>
   </g>
  </g>
  <g id="axes_2">
   <g id="patch_8">
    <path d="M 239.976 134.027345 
L 392.688 134.027345 
L 392.688 35.5968 
L 239.976 35.5968 
z
" style="fill: #ffffff"/>
   </g>
   <g id="PathCollection_3">
    <g clip-path="url(#p0566ee4a86)">
     <use xlink:href="#ma033614880" x="244.585234" y="53.400089" style="fill: #0000ff; stroke: #0000ff"/>
     <use xlink:href="#ma033614880" x="320.086615" y="57.886451" style="fill: #0000ff; stroke: #0000ff"/>
     <use xlink:href="#ma033614880" x="353.108769" y="72.05449" style="fill: #0000ff; stroke: #0000ff"/>
     <use xlink:href="#ma033614880" x="357.959701" y="66.544258" style="fill: #0000ff; stroke: #0000ff"/>
     <use xlink:href="#ma033614880" x="359.296113" y="76.955526" style="fill: #0000ff; stroke: #0000ff"/>
     <use xlink:href="#ma033614880" x="376.081093" y="71.196175" style="fill: #0000ff; stroke: #0000ff"/>
     <use xlink:href="#ma033614880" x="378.112101" y="76.302931" style="fill: #0000ff; stroke: #0000ff"/>
    </g>
   </g>
   <g id="matplotlib.axis_3">
    <g id="xtick_5">
     <g id="line2d_16">
      <g>
       <use xlink:href="#m8ca48a04c1" x="267.39452" y="134.027345" style="stroke: #000000; stroke-width: 0.8"/>
      </g>
     </g>
     <g id="text_10">
      <!-- $\mathdefault{−20}$ -->
      <g transform="translate(257.653249 148.835498) scale(0.11 -0.11)">
       <use xlink:href="#CMSY10-0" transform="scale(0.996264)"/>
       <use xlink:href="#CMR17-32" transform="translate(77.487468 0) scale(0.996264)"/>
       <use xlink:href="#CMR17-30" transform="translate(123.177945 0) scale(0.996264)"/>
      </g>
     </g>
    </g>
    <g id="xtick_6">
     <g id="line2d_17">
      <g>
       <use xlink:href="#m8ca48a04c1" x="306.548733" y="134.027345" style="stroke: #000000; stroke-width: 0.8"/>
      </g>
     </g>
     <g id="text_11">
      <!-- $\mathdefault{−10}$ -->
      <g transform="translate(296.807461 148.835498) scale(0.11 -0.11)">
       <use xlink:href="#CMSY10-0" transform="scale(0.996264)"/>
       <use xlink:href="#CMR17-31" transform="translate(77.487468 0) scale(0.996264)"/>
       <use xlink:href="#CMR17-30" transform="translate(123.177945 0) scale(0.996264)"/>
      </g>
     </g>
    </g>
    <g id="xtick_7">
     <g id="line2d_18">
      <g>
       <use xlink:href="#m8ca48a04c1" x="345.702945" y="134.027345" style="stroke: #000000; stroke-width: 0.8"/>
      </g>
     </g>
     <g id="text_12">
      <!-- $\mathdefault{0}$ -->
      <g transform="translate(342.963211 148.835498) scale(0.11 -0.11)">
       <use xlink:href="#CMR17-30" transform="scale(0.996264)"/>
      </g>
     </g>
    </g>
    <g id="xtick_8">
     <g id="line2d_19">
      <g>
       <use xlink:href="#m8ca48a04c1" x="384.857158" y="134.027345" style="stroke: #000000; stroke-width: 0.8"/>
      </g>
     </g>
     <g id="text_13">
      <!-- $\mathdefault{10}$ -->
      <g transform="translate(379.37769 148.835498) scale(0.11 -0.11)">
       <use xlink:href="#CMR17-31" transform="scale(0.996264)"/>
       <use xlink:href="#CMR17-30" transform="translate(45.690477 0) scale(0.996264)"/>
      </g>
     </g>
    </g>
   </g>
   <g id="matplotlib.axis_4">
    <g id="ytick_5">
     <g id="line2d_20">
      <g>
       <use xlink:href="#mfcf4652a6a" x="239.976" y="120.604998" style="stroke: #000000; stroke-width: 0.8"/>
      </g>
     </g>
     <g id="text_14">
      <!-- $\mathdefault{−7.5}$ -->
      <g transform="translate(210.449315 124.509074) scale(0.11 -0.11)">
       <use xlink:href="#CMSY10-0" transform="scale(0.996264)"/>
       <use xlink:href="#CMR17-37" transform="translate(77.487468 0) scale(0.996264)"/>
       <use xlink:href="#CMMI12-3a" transform="translate(123.177945 0) scale(0.996264)"/>
       <use xlink:href="#CMR17-35" transform="translate(150.275122 0) scale(0.996264)"/>
      </g>
     </g>
    </g>
    <g id="ytick_6">
     <g id="line2d_21">
      <g>
       <use xlink:href="#mfcf4652a6a" x="239.976" y="98.23442" style="stroke: #000000; stroke-width: 0.8"/>
      </g>
     </g>
     <g id="text_15">
      <!-- $\mathdefault{−5.0}$ -->
      <g transform="translate(210.449315 102.138496) scale(0.11 -0.11)">
       <use xlink:href="#CMSY10-0" transform="scale(0.996264)"/>
       <use xlink:href="#CMR17-35" transform="translate(77.487468 0) scale(0.996264)"/>
       <use xlink:href="#CMMI12-3a" transform="translate(123.177945 0) scale(0.996264)"/>
       <use xlink:href="#CMR17-30" transform="translate(150.275122 0) scale(0.996264)"/>
      </g>
     </g>
    </g>
    <g id="ytick_7">
     <g id="line2d_22">
      <g>
       <use xlink:href="#mfcf4652a6a" x="239.976" y="75.863841" style="stroke: #000000; stroke-width: 0.8"/>
      </g>
     </g>
     <g id="text_16">
      <!-- $\mathdefault{−2.5}$ -->
      <g transform="translate(210.449315 79.767917) scale(0.11 -0.11)">
       <use xlink:href="#CMSY10-0" transform="scale(0.996264)"/>
       <use xlink:href="#CMR17-32" transform="translate(77.487468 0) scale(0.996264)"/>
       <use xlink:href="#CMMI12-3a" transform="translate(123.177945 0) scale(0.996264)"/>
       <use xlink:href="#CMR17-35" transform="translate(150.275122 0) scale(0.996264)"/>
      </g>
     </g>
    </g>
    <g id="ytick_8">
     <g id="line2d_23">
      <g>
       <use xlink:href="#mfcf4652a6a" x="239.976" y="53.493263" style="stroke: #000000; stroke-width: 0.8"/>
      </g>
     </g>
     <g id="text_17">
      <!-- $\mathdefault{0.0}$ -->
      <g transform="translate(218.972924 57.397339) scale(0.11 -0.11)">
       <use xlink:href="#CMR17-30" transform="scale(0.996264)"/>
       <use xlink:href="#CMMI12-3a" transform="translate(45.690477 0) scale(0.996264)"/>
       <use xlink:href="#CMR17-30" transform="translate(72.787654 0) scale(0.996264)"/>
      </g>
     </g>
    </g>
   </g>
   <g id="line2d_24">
    <path d="M 314.262113 53.493263 
L 318.277929 55.353669 
L 322.293746 57.214076 
L 326.309563 59.074482 
L 330.325379 60.934889 
L 334.341196 62.795295 
L 338.357013 64.655702 
L 342.372829 66.516108 
L 346.388646 68.376515 
L 350.404462 70.236921 
L 354.420279 72.097327 
L 358.436096 73.957734 
L 362.451912 75.81814 
L 366.467729 77.678547 
L 370.483546 79.538953 
L 374.499362 81.39936 
L 378.515179 83.259766 
L 382.530996 85.120173 
L 386.546812 86.980579 
L 390.562629 88.840986 
L 394.578446 90.701392 
L 398.594262 92.561799 
L 402.610079 94.422205 
L 406.625896 96.282612 
L 410.641712 98.143018 
L 414.657529 100.003424 
L 418.673346 101.863831 
L 422.689162 103.724237 
L 426.704979 105.584644 
L 430.720796 107.44505 
L 434.736612 109.305457 
L 437.32 110.502262 
" clip-path="url(#p0566ee4a86)" style="fill: none; stroke-dasharray: 5.55,2.4; stroke-dashoffset: 0; stroke: #000000; stroke-width: 1.5"/>
   </g>
   <g id="line2d_25">
    <path d="M 316.454748 53.493263 
L 320.470565 55.353669 
L 324.486382 57.214076 
L 328.502198 59.074482 
L 332.518015 60.934889 
L 336.533832 62.795295 
L 340.549648 64.655702 
L 344.565465 66.516108 
L 348.581282 68.376515 
L 352.597098 70.236921 
L 356.612915 72.097327 
L 360.628732 73.957734 
L 364.644548 75.81814 
L 368.660365 77.678547 
L 372.676182 79.538953 
L 376.691998 81.39936 
L 380.707815 83.259766 
L 384.723632 85.120173 
L 388.739448 86.980579 
L 392.755265 88.840986 
L 396.771082 90.701392 
L 400.786898 92.561799 
L 404.802715 94.422205 
L 408.818532 96.282612 
L 412.834348 98.143018 
L 416.850165 100.003424 
L 420.865982 101.863831 
L 424.881798 103.724237 
L 428.897615 105.584644 
L 432.913431 107.44505 
L 436.929248 109.305457 
L 437.32 109.48648 
" clip-path="url(#p0566ee4a86)" style="fill: none; stroke-dasharray: 5.55,2.4; stroke-dashoffset: 0; stroke: #000000; stroke-width: 1.5"/>
   </g>
   <g id="line2d_26">
    <path d="M 327.754654 53.493263 
L 331.770471 55.353669 
L 335.786287 57.214076 
L 339.802104 59.074482 
L 343.817921 60.934889 
L 347.833737 62.795295 
L 351.849554 64.655702 
L 355.865371 66.516108 
L 359.881187 68.376515 
L 363.897004 70.236921 
L 367.912821 72.097327 
L 371.928637 73.957734 
L 375.944454 75.81814 
L 379.960271 77.678547 
L 383.976087 79.538953 
L 387.991904 81.39936 
L 392.007721 83.259766 
L 396.023537 85.120173 
L 400.039354 86.980579 
L 404.055171 88.840986 
L 408.070987 90.701392 
L 412.086804 92.561799 
L 416.102621 94.422205 
L 420.118437 96.282612 
L 424.134254 98.143018 
L 428.150071 100.003424 
L 432.165887 101.863831 
L 436.181704 103.724237 
L 437.32 104.251576 
" clip-path="url(#p0566ee4a86)" style="fill: none; stroke-dasharray: 5.55,2.4; stroke-dashoffset: 0; stroke: #000000; stroke-width: 1.5"/>
   </g>
   <g id="line2d_27">
    <path d="M 336.7288 53.493263 
L 340.744616 55.353669 
L 344.760433 57.214076 
L 348.77625 59.074482 
L 352.792066 60.934889 
L 356.807883 62.795295 
L 360.8237 64.655702 
L 364.839516 66.516108 
L 368.855333 68.376515 
L 372.87115 70.236921 
L 376.886966 72.097327 
L 380.902783 73.957734 
L 384.9186 75.81814 
L 388.934416 77.678547 
L 392.950233 79.538953 
L 396.966049 81.39936 
L 400.981866 83.259766 
L 404.997683 85.120173 
L 409.013499 86.980579 
L 413.029316 88.840986 
L 417.045133 90.701392 
L 421.060949 92.561799 
L 425.076766 94.422205 
L 429.092583 96.282612 
L 433.108399 98.143018 
L 437.124216 100.003424 
L 437.32 100.094125 
" clip-path="url(#p0566ee4a86)" style="fill: none; stroke-dasharray: 5.55,2.4; stroke-dashoffset: 0; stroke: #000000; stroke-width: 1.5"/>
   </g>
   <g id="line2d_28">
    <path d="M 345.702945 53.493263 
L 349.718762 55.353669 
L 353.734578 57.214076 
L 357.750395 59.074482 
L 361.766212 60.934889 
L 365.782028 62.795295 
L 369.797845 64.655702 
L 373.813662 66.516108 
L 377.829478 68.376515 
L 381.845295 70.236921 
L 385.861112 72.097327 
L 389.876928 73.957734 
L 393.892745 75.81814 
L 397.908562 77.678547 
L 401.924378 79.538953 
L 405.940195 81.39936 
L 409.956012 83.259766 
L 413.971828 85.120173 
L 417.987645 86.980579 
L 422.003462 88.840986 
L 426.019278 90.701392 
L 430.035095 92.561799 
L 434.050912 94.422205 
L 437.32 95.936675 
" clip-path="url(#p0566ee4a86)" style="fill: none; stroke-dasharray: 5.55,2.4; stroke-dashoffset: 0; stroke: #000000; stroke-width: 1.5"/>
   </g>
   <g id="line2d_29">
    <path d="M 239.976 53.493263 
L 392.688 53.493263 
" clip-path="url(#p0566ee4a86)" style="fill: none; stroke: #000000; stroke-width: 1.5; stroke-linecap: square"/>
   </g>
   <g id="line2d_30">
    <path d="M 345.702945 134.027345 
L 345.702945 35.5968 
" clip-path="url(#p0566ee4a86)" style="fill: none; stroke: #000000; stroke-width: 1.5; stroke-linecap: square"/>
   </g>
   <g id="patch_9">
    <path d="M 239.976 134.027345 
L 239.976 35.5968 
" style="fill: none; stroke: #000000; stroke-width: 0.8; stroke-linejoin: miter; stroke-linecap: square"/>
   </g>
   <g id="patch_10">
    <path d="M 392.688 134.027345 
L 392.688 35.5968 
" style="fill: none; stroke: #000000; stroke-width: 0.8; stroke-linejoin: miter; stroke-linecap: square"/>
   </g>
   <g id="patch_11">
    <path d="M 239.976 134.027345 
L 392.688 134.027345 
" style="fill: none; stroke: #000000; stroke-width: 0.8; stroke-linejoin: miter; stroke-linecap: square"/>
   </g>
   <g id="patch_12">
    <path d="M 239.976 35.5968 
L 392.688 35.5968 
" style="fill: none; stroke: #000000; stroke-width: 0.8; stroke-linejoin: miter; stroke-linecap: square"/>
   </g>
   <g id="legend_2">
    <g id="patch_13">
     <path d="M 246.276 129.527345 
L 320.602176 129.527345 
Q 322.402176 129.527345 322.402176 127.727345 
L 322.402176 115.829072 
Q 322.402176 114.029072 320.602176 114.029072 
L 246.276 114.029072 
Q 244.476 114.029072 244.476 115.829072 
L 244.476 127.727345 
Q 244.476 129.527345 246.276 129.527345 
z
" style="fill: #ffffff; opacity: 0.8; stroke: #cccccc; stroke-linejoin: miter"/>
    </g>
    <g id="PathCollection_4">
     <g>
      <use xlink:href="#m9066d77b5f" x="257.076" y="121.655061" style="fill: #0000ff; stroke: #0000ff"/>
     </g>
    </g>
    <g id="text_18">
     <!-- $2\theta=11.46\degree$ -->
     <g transform="translate(273.276 124.017561) scale(0.09 -0.09)">
      <defs>
       <path id="CMR17-34" d="M 2150 4122 
C 2150 4256 2144 4256 2029 4256 
L 128 1254 
L 128 1088 
L 1779 1088 
L 1779 457 
C 1779 224 1766 160 1318 160 
L 1197 160 
L 1197 0 
C 1402 0 1747 0 1965 0 
C 2182 0 2528 0 2733 0 
L 2733 160 
L 2611 160 
C 2163 160 2150 224 2150 457 
L 2150 1088 
L 2803 1088 
L 2803 1254 
L 2150 1254 
L 2150 4122 
z
M 1798 3703 
L 1798 1254 
L 256 1254 
L 1798 3703 
z
" transform="scale(0.015625)"/>
       <path id="CMR17-36" d="M 678 2176 
C 678 3690 1395 4032 1811 4032 
C 1946 4032 2272 4009 2400 3776 
C 2298 3776 2106 3776 2106 3553 
C 2106 3381 2246 3323 2336 3323 
C 2394 3323 2566 3348 2566 3560 
C 2566 3954 2246 4179 1805 4179 
C 1043 4179 243 3390 243 1984 
C 243 253 966 -128 1478 -128 
C 2099 -128 2688 427 2688 1283 
C 2688 2081 2170 2662 1517 2662 
C 1126 2662 838 2407 678 1960 
L 678 2176 
z
M 1478 25 
C 691 25 691 1200 691 1436 
C 691 1896 909 2560 1504 2560 
C 1613 2560 1926 2560 2138 2120 
C 2253 1870 2253 1609 2253 1289 
C 2253 944 2253 690 2118 434 
C 1978 171 1773 25 1478 25 
z
" transform="scale(0.015625)"/>
      </defs>
      <use xlink:href="#CMR17-32" transform="scale(0.996264)"/>
      <use xlink:href="#CMMI12-12" transform="translate(45.690477 0) scale(0.996264)"/>
      <use xlink:href="#CMR17-3d" transform="translate(121.533994 0) scale(0.996264)"/>
      <use xlink:href="#CMR17-31" transform="translate(220.922791 0) scale(0.996264)"/>
      <use xlink:href="#CMR17-31" transform="translate(266.613268 0) scale(0.996264)"/>
      <use xlink:href="#CMMI12-3a" transform="translate(312.303745 0) scale(0.996264)"/>
      <use xlink:href="#CMR17-34" transform="translate(339.400922 0) scale(0.996264)"/>
      <use xlink:href="#CMR17-36" transform="translate(385.091399 0) scale(0.996264)"/>
      <use xlink:href="#SFRM3583-b0" transform="translate(430.781876 0) scale(0.356961)"/>
     </g>
    </g>
   </g>
  </g>
  <g id="axes_3">
   <g id="patch_14">
    <path d="M 56.7216 252.144 
L 209.4336 252.144 
L 209.4336 153.713455 
L 56.7216 153.713455 
z
" style="fill: #ffffff"/>
   </g>
   <g id="PathCollection_5">
    <g clip-path="url(#pbf5fd81d27)">
     <use xlink:href="#ma033614880" x="61.327702" y="171.363037" style="fill: #0000ff; stroke: #0000ff"/>
     <use xlink:href="#ma033614880" x="135.565615" y="179.512235" style="fill: #0000ff; stroke: #0000ff"/>
     <use xlink:href="#ma033614880" x="168.477824" y="206.1398" style="fill: #0000ff; stroke: #0000ff"/>
     <use xlink:href="#ma033614880" x="169.294033" y="218.789467" style="fill: #0000ff; stroke: #0000ff"/>
     <use xlink:href="#ma033614880" x="172.815054" y="196.41522" style="fill: #0000ff; stroke: #0000ff"/>
     <use xlink:href="#ma033614880" x="190.352969" y="206.155281" style="fill: #0000ff; stroke: #0000ff"/>
     <use xlink:href="#ma033614880" x="190.852577" y="215.290619" style="fill: #0000ff; stroke: #0000ff"/>
    </g>
   </g>
   <g id="matplotlib.axis_5">
    <g id="xtick_9">
     <g id="line2d_31">
      <g>
       <use xlink:href="#m8ca48a04c1" x="84.14012" y="252.144" style="stroke: #000000; stroke-width: 0.8"/>
      </g>
     </g>
     <g id="text_19">
      <!-- $\mathdefault{−20}$ -->
      <g transform="translate(74.398849 266.952152) scale(0.11 -0.11)">
       <use xlink:href="#CMSY10-0" transform="scale(0.996264)"/>
       <use xlink:href="#CMR17-32" transform="translate(77.487468 0) scale(0.996264)"/>
       <use xlink:href="#CMR17-30" transform="translate(123.177945 0) scale(0.996264)"/>
      </g>
     </g>
    </g>
    <g id="xtick_10">
     <g id="line2d_32">
      <g>
       <use xlink:href="#m8ca48a04c1" x="123.294333" y="252.144" style="stroke: #000000; stroke-width: 0.8"/>
      </g>
     </g>
     <g id="text_20">
      <!-- $\mathdefault{−10}$ -->
      <g transform="translate(113.553061 266.952152) scale(0.11 -0.11)">
       <use xlink:href="#CMSY10-0" transform="scale(0.996264)"/>
       <use xlink:href="#CMR17-31" transform="translate(77.487468 0) scale(0.996264)"/>
       <use xlink:href="#CMR17-30" transform="translate(123.177945 0) scale(0.996264)"/>
      </g>
     </g>
    </g>
    <g id="xtick_11">
     <g id="line2d_33">
      <g>
       <use xlink:href="#m8ca48a04c1" x="162.448545" y="252.144" style="stroke: #000000; stroke-width: 0.8"/>
      </g>
     </g>
     <g id="text_21">
      <!-- $\mathdefault{0}$ -->
      <g transform="translate(159.708811 266.952152) scale(0.11 -0.11)">
       <use xlink:href="#CMR17-30" transform="scale(0.996264)"/>
      </g>
     </g>
    </g>
    <g id="xtick_12">
     <g id="line2d_34">
      <g>
       <use xlink:href="#m8ca48a04c1" x="201.602758" y="252.144" style="stroke: #000000; stroke-width: 0.8"/>
      </g>
     </g>
     <g id="text_22">
      <!-- $\mathdefault{10}$ -->
      <g transform="translate(196.12329 266.952152) scale(0.11 -0.11)">
       <use xlink:href="#CMR17-31" transform="scale(0.996264)"/>
       <use xlink:href="#CMR17-30" transform="translate(45.690477 0) scale(0.996264)"/>
      </g>
     </g>
    </g>
   </g>
   <g id="matplotlib.axis_6">
    <g id="ytick_9">
     <g id="line2d_35">
      <g>
       <use xlink:href="#mfcf4652a6a" x="56.7216" y="238.721653" style="stroke: #000000; stroke-width: 0.8"/>
      </g>
     </g>
     <g id="text_23">
      <!-- $\mathdefault{−7.5}$ -->
      <g transform="translate(27.194915 242.625729) scale(0.11 -0.11)">
       <use xlink:href="#CMSY10-0" transform="scale(0.996264)"/>
       <use xlink:href="#CMR17-37" transform="translate(77.487468 0) scale(0.996264)"/>
       <use xlink:href="#CMMI12-3a" transform="translate(123.177945 0) scale(0.996264)"/>
       <use xlink:href="#CMR17-35" transform="translate(150.275122 0) scale(0.996264)"/>
      </g>
     </g>
    </g>
    <g id="ytick_10">
     <g id="line2d_36">
      <g>
       <use xlink:href="#mfcf4652a6a" x="56.7216" y="216.351074" style="stroke: #000000; stroke-width: 0.8"/>
      </g>
     </g>
     <g id="text_24">
      <!-- $\mathdefault{−5.0}$ -->
      <g transform="translate(27.194915 220.255151) scale(0.11 -0.11)">
       <use xlink:href="#CMSY10-0" transform="scale(0.996264)"/>
       <use xlink:href="#CMR17-35" transform="translate(77.487468 0) scale(0.996264)"/>
       <use xlink:href="#CMMI12-3a" transform="translate(123.177945 0) scale(0.996264)"/>
       <use xlink:href="#CMR17-30" transform="translate(150.275122 0) scale(0.996264)"/>
      </g>
     </g>
    </g>
    <g id="ytick_11">
     <g id="line2d_37">
      <g>
       <use xlink:href="#mfcf4652a6a" x="56.7216" y="193.980496" style="stroke: #000000; stroke-width: 0.8"/>
      </g>
     </g>
     <g id="text_25">
      <!-- $\mathdefault{−2.5}$ -->
      <g transform="translate(27.194915 197.884572) scale(0.11 -0.11)">
       <use xlink:href="#CMSY10-0" transform="scale(0.996264)"/>
       <use xlink:href="#CMR17-32" transform="translate(77.487468 0) scale(0.996264)"/>
       <use xlink:href="#CMMI12-3a" transform="translate(123.177945 0) scale(0.996264)"/>
       <use xlink:href="#CMR17-35" transform="translate(150.275122 0) scale(0.996264)"/>
      </g>
     </g>
    </g>
    <g id="ytick_12">
     <g id="line2d_38">
      <g>
       <use xlink:href="#mfcf4652a6a" x="56.7216" y="171.609917" style="stroke: #000000; stroke-width: 0.8"/>
      </g>
     </g>
     <g id="text_26">
      <!-- $\mathdefault{0.0}$ -->
      <g transform="translate(35.718524 175.513994) scale(0.11 -0.11)">
       <use xlink:href="#CMR17-30" transform="scale(0.996264)"/>
       <use xlink:href="#CMMI12-3a" transform="translate(45.690477 0) scale(0.996264)"/>
       <use xlink:href="#CMR17-30" transform="translate(72.787654 0) scale(0.996264)"/>
      </g>
     </g>
    </g>
   </g>
   <g id="line2d_39">
    <path d="M 131.007713 171.609917 
L 135.023529 175.490175 
L 139.039346 179.370433 
L 143.055163 183.250691 
L 147.070979 187.130949 
L 151.086796 191.011207 
L 155.102613 194.891465 
L 159.118429 198.771723 
L 163.134246 202.651981 
L 167.150062 206.532239 
L 171.165879 210.412497 
L 175.181696 214.292755 
L 179.197512 218.173013 
L 183.213329 222.053271 
L 187.229146 225.933529 
L 191.244962 229.813787 
L 195.260779 233.694045 
L 199.276596 237.574303 
L 203.292412 241.454561 
L 207.308229 245.33482 
L 211.324046 249.215078 
L 215.339862 253.095336 
L 219.355679 256.975594 
L 223.371496 260.855852 
L 227.387312 264.73611 
L 231.403129 268.616368 
L 235.418946 272.496626 
L 239.434762 276.376884 
L 243.450579 280.257142 
L 247.466396 284.1374 
L 251.482212 288.017658 
L 255.498029 291.897916 
L 259.513846 295.778174 
L 261.440716 297.64 
" clip-path="url(#pbf5fd81d27)" style="fill: none; stroke-dasharray: 5.55,2.4; stroke-dashoffset: 0; stroke: #000000; stroke-width: 1.5"/>
   </g>
   <g id="line2d_40">
    <path d="M 133.200348 171.609917 
L 137.216165 175.490175 
L 141.231982 179.370433 
L 145.247798 183.250691 
L 149.263615 187.130949 
L 153.279432 191.011207 
L 157.295248 194.891465 
L 161.311065 198.771723 
L 165.326882 202.651981 
L 169.342698 206.532239 
L 173.358515 210.412497 
L 177.374332 214.292755 
L 181.390148 218.173013 
L 185.405965 222.053271 
L 189.421782 225.933529 
L 193.437598 229.813787 
L 197.453415 233.694045 
L 201.469232 237.574303 
L 205.485048 241.454561 
L 209.500865 245.33482 
L 213.516682 249.215078 
L 217.532498 253.095336 
L 221.548315 256.975594 
L 225.564132 260.855852 
L 229.579948 264.73611 
L 233.595765 268.616368 
L 237.611582 272.496626 
L 241.627398 276.376884 
L 245.643215 280.257142 
L 249.659031 284.1374 
L 253.674848 288.017658 
L 257.690665 291.897916 
L 261.706481 295.778174 
L 263.633352 297.64 
" clip-path="url(#pbf5fd81d27)" style="fill: none; stroke-dasharray: 5.55,2.4; stroke-dashoffset: 0; stroke: #000000; stroke-width: 1.5"/>
   </g>
   <g id="line2d_41">
    <path d="M 144.500254 171.609917 
L 148.516071 175.490175 
L 152.531887 179.370433 
L 156.547704 183.250691 
L 160.563521 187.130949 
L 164.579337 191.011207 
L 168.595154 194.891465 
L 172.610971 198.771723 
L 176.626787 202.651981 
L 180.642604 206.532239 
L 184.658421 210.412497 
L 188.674237 214.292755 
L 192.690054 218.173013 
L 196.705871 222.053271 
L 200.721687 225.933529 
L 204.737504 229.813787 
L 208.753321 233.694045 
L 212.769137 237.574303 
L 216.784954 241.454561 
L 220.800771 245.33482 
L 224.816587 249.215078 
L 228.832404 253.095336 
L 232.848221 256.975594 
L 236.864037 260.855852 
L 240.879854 264.73611 
L 244.895671 268.616368 
L 248.911487 272.496626 
L 252.927304 276.376884 
L 256.943121 280.257142 
L 260.958937 284.1374 
L 264.974754 288.017658 
L 268.990571 291.897916 
L 273.006387 295.778174 
L 274.933257 297.64 
" clip-path="url(#pbf5fd81d27)" style="fill: none; stroke-dasharray: 5.55,2.4; stroke-dashoffset: 0; stroke: #000000; stroke-width: 1.5"/>
   </g>
   <g id="line2d_42">
    <path d="M 153.4744 171.609917 
L 157.490216 175.490175 
L 161.506033 179.370433 
L 165.52185 183.250691 
L 169.537666 187.130949 
L 173.553483 191.011207 
L 177.5693 194.891465 
L 181.585116 198.771723 
L 185.600933 202.651981 
L 189.61675 206.532239 
L 193.632566 210.412497 
L 197.648383 214.292755 
L 201.6642 218.173013 
L 205.680016 222.053271 
L 209.695833 225.933529 
L 213.711649 229.813787 
L 217.727466 233.694045 
L 221.743283 237.574303 
L 225.759099 241.454561 
L 229.774916 245.33482 
L 233.790733 249.215078 
L 237.806549 253.095336 
L 241.822366 256.975594 
L 245.838183 260.855852 
L 249.853999 264.73611 
L 253.869816 268.616368 
L 257.885633 272.496626 
L 261.901449 276.376884 
L 265.917266 280.257142 
L 269.933083 284.1374 
L 273.948899 288.017658 
L 277.964716 291.897916 
L 281.980533 295.778174 
L 283.907403 297.64 
" clip-path="url(#pbf5fd81d27)" style="fill: none; stroke-dasharray: 5.55,2.4; stroke-dashoffset: 0; stroke: #000000; stroke-width: 1.5"/>
   </g>
   <g id="line2d_43">
    <path d="M 162.448545 171.609917 
L 166.464362 175.490175 
L 170.480178 179.370433 
L 174.495995 183.250691 
L 178.511812 187.130949 
L 182.527628 191.011207 
L 186.543445 194.891465 
L 190.559262 198.771723 
L 194.575078 202.651981 
L 198.590895 206.532239 
L 202.606712 210.412497 
L 206.622528 214.292755 
L 210.638345 218.173013 
L 214.654162 222.053271 
L 218.669978 225.933529 
L 222.685795 229.813787 
L 226.701612 233.694045 
L 230.717428 237.574303 
L 234.733245 241.454561 
L 238.749062 245.33482 
L 242.764878 249.215078 
L 246.780695 253.095336 
L 250.796512 256.975594 
L 254.812328 260.855852 
L 258.828145 264.73611 
L 262.843962 268.616368 
L 266.859778 272.496626 
L 270.875595 276.376884 
L 274.891412 280.257142 
L 278.907228 284.1374 
L 282.923045 288.017658 
L 286.938861 291.897916 
L 290.954678 295.778174 
L 292.881548 297.64 
" clip-path="url(#pbf5fd81d27)" style="fill: none; stroke-dasharray: 5.55,2.4; stroke-dashoffset: 0; stroke: #000000; stroke-width: 1.5"/>
   </g>
   <g id="line2d_44">
    <path d="M 56.7216 171.609917 
L 209.4336 171.609917 
" clip-path="url(#pbf5fd81d27)" style="fill: none; stroke: #000000; stroke-width: 1.5; stroke-linecap: square"/>
   </g>
   <g id="line2d_45">
    <path d="M 162.448545 252.144 
L 162.448545 153.713455 
" clip-path="url(#pbf5fd81d27)" style="fill: none; stroke: #000000; stroke-width: 1.5; stroke-linecap: square"/>
   </g>
   <g id="patch_15">
    <path d="M 56.7216 252.144 
L 56.7216 153.713455 
" style="fill: none; stroke: #000000; stroke-width: 0.8; stroke-linejoin: miter; stroke-linecap: square"/>
   </g>
   <g id="patch_16">
    <path d="M 209.4336 252.144 
L 209.4336 153.713455 
" style="fill: none; stroke: #000000; stroke-width: 0.8; stroke-linejoin: miter; stroke-linecap: square"/>
   </g>
   <g id="patch_17">
    <path d="M 56.7216 252.144 
L 209.4336 252.144 
" style="fill: none; stroke: #000000; stroke-width: 0.8; stroke-linejoin: miter; stroke-linecap: square"/>
   </g>
   <g id="patch_18">
    <path d="M 56.7216 153.713455 
L 209.4336 153.713455 
" style="fill: none; stroke: #000000; stroke-width: 0.8; stroke-linejoin: miter; stroke-linecap: square"/>
   </g>
   <g id="legend_3">
    <g id="patch_19">
     <path d="M 63.0216 247.644 
L 137.347776 247.644 
Q 139.147776 247.644 139.147776 245.844 
L 139.147776 233.945727 
Q 139.147776 232.145727 137.347776 232.145727 
L 63.0216 232.145727 
Q 61.2216 232.145727 61.2216 233.945727 
L 61.2216 245.844 
Q 61.2216 247.644 63.0216 247.644 
z
" style="fill: #ffffff; opacity: 0.8; stroke: #cccccc; stroke-linejoin: miter"/>
    </g>
    <g id="PathCollection_6">
     <g>
      <use xlink:href="#m9066d77b5f" x="73.8216" y="239.771715" style="fill: #0000ff; stroke: #0000ff"/>
     </g>
    </g>
    <g id="text_27">
     <!-- $2\theta=22.92\degree$ -->
     <g transform="translate(90.0216 242.134215) scale(0.09 -0.09)">
      <defs>
       <path id="CMR17-39" d="M 2253 1864 
C 2253 464 1670 31 1190 31 
C 1043 31 685 31 538 294 
C 704 268 826 357 826 518 
C 826 692 685 749 595 749 
C 538 749 365 723 365 506 
C 365 71 742 -128 1203 -128 
C 1939 -128 2688 674 2688 2073 
C 2688 3817 1971 4179 1485 4179 
C 851 4179 243 3628 243 2778 
C 243 1991 762 1408 1414 1408 
C 1952 1408 2189 1903 2253 2112 
L 2253 1864 
z
M 1427 1510 
C 1254 1510 1011 1542 813 1922 
C 678 2169 678 2461 678 2771 
C 678 3146 678 3405 858 3684 
C 947 3817 1114 4032 1485 4032 
C 2240 4032 2240 2885 2240 2632 
C 2240 2182 2035 1510 1427 1510 
z
" transform="scale(0.015625)"/>
      </defs>
      <use xlink:href="#CMR17-32" transform="scale(0.996264)"/>
      <use xlink:href="#CMMI12-12" transform="translate(45.690477 0) scale(0.996264)"/>
      <use xlink:href="#CMR17-3d" transform="translate(121.533994 0) scale(0.996264)"/>
      <use xlink:href="#CMR17-32" transform="translate(220.922791 0) scale(0.996264)"/>
      <use xlink:href="#CMR17-32" transform="translate(266.613268 0) scale(0.996264)"/>
      <use xlink:href="#CMMI12-3a" transform="translate(312.303745 0) scale(0.996264)"/>
      <use xlink:href="#CMR17-39" transform="translate(339.400922 0) scale(0.996264)"/>
      <use xlink:href="#CMR17-32" transform="translate(385.091399 0) scale(0.996264)"/>
      <use xlink:href="#SFRM3583-b0" transform="translate(430.781876 0) scale(0.356961)"/>
     </g>
    </g>
   </g>
  </g>
  <g id="axes_4">
   <g id="patch_20">
    <path d="M 239.976 252.144 
L 392.688 252.144 
L 392.688 153.713455 
L 239.976 153.713455 
z
" style="fill: #ffffff"/>
   </g>
   <g id="PathCollection_7">
    <g clip-path="url(#pb6c1b4497c)">
     <use xlink:href="#ma033614880" x="243.891421" y="171.374046" style="fill: #0000ff; stroke: #0000ff"/>
     <use xlink:href="#ma033614880" x="316.852046" y="181.151864" style="fill: #0000ff; stroke: #0000ff"/>
     <use xlink:href="#ma033614880" x="343.614268" y="239.463819" style="fill: #0000ff; stroke: #0000ff"/>
     <use xlink:href="#ma033614880" x="346.889944" y="217.438195" style="fill: #0000ff; stroke: #0000ff"/>
     <use xlink:href="#ma033614880" x="352.908534" y="206.853064" style="fill: #0000ff; stroke: #0000ff"/>
     <use xlink:href="#ma033614880" x="367.945474" y="231.817645" style="fill: #0000ff; stroke: #0000ff"/>
     <use xlink:href="#ma033614880" x="369.551384" y="221.834282" style="fill: #0000ff; stroke: #0000ff"/>
    </g>
   </g>
   <g id="matplotlib.axis_7">
    <g id="xtick_13">
     <g id="line2d_46">
      <g>
       <use xlink:href="#m8ca48a04c1" x="267.39452" y="252.144" style="stroke: #000000; stroke-width: 0.8"/>
      </g>
     </g>
     <g id="text_28">
      <!-- $\mathdefault{−20}$ -->
      <g transform="translate(257.653249 266.952152) scale(0.11 -0.11)">
       <use xlink:href="#CMSY10-0" transform="scale(0.996264)"/>
       <use xlink:href="#CMR17-32" transform="translate(77.487468 0) scale(0.996264)"/>
       <use xlink:href="#CMR17-30" transform="translate(123.177945 0) scale(0.996264)"/>
      </g>
     </g>
    </g>
    <g id="xtick_14">
     <g id="line2d_47">
      <g>
       <use xlink:href="#m8ca48a04c1" x="306.548733" y="252.144" style="stroke: #000000; stroke-width: 0.8"/>
      </g>
     </g>
     <g id="text_29">
      <!-- $\mathdefault{−10}$ -->
      <g transform="translate(296.807461 266.952152) scale(0.11 -0.11)">
       <use xlink:href="#CMSY10-0" transform="scale(0.996264)"/>
       <use xlink:href="#CMR17-31" transform="translate(77.487468 0) scale(0.996264)"/>
       <use xlink:href="#CMR17-30" transform="translate(123.177945 0) scale(0.996264)"/>
      </g>
     </g>
    </g>
    <g id="xtick_15">
     <g id="line2d_48">
      <g>
       <use xlink:href="#m8ca48a04c1" x="345.702945" y="252.144" style="stroke: #000000; stroke-width: 0.8"/>
      </g>
     </g>
     <g id="text_30">
      <!-- $\mathdefault{0}$ -->
      <g transform="translate(342.963211 266.952152) scale(0.11 -0.11)">
       <use xlink:href="#CMR17-30" transform="scale(0.996264)"/>
      </g>
     </g>
    </g>
    <g id="xtick_16">
     <g id="line2d_49">
      <g>
       <use xlink:href="#m8ca48a04c1" x="384.857158" y="252.144" style="stroke: #000000; stroke-width: 0.8"/>
      </g>
     </g>
     <g id="text_31">
      <!-- $\mathdefault{10}$ -->
      <g transform="translate(379.37769 266.952152) scale(0.11 -0.11)">
       <use xlink:href="#CMR17-31" transform="scale(0.996264)"/>
       <use xlink:href="#CMR17-30" transform="translate(45.690477 0) scale(0.996264)"/>
      </g>
     </g>
    </g>
   </g>
   <g id="matplotlib.axis_8">
    <g id="ytick_13">
     <g id="line2d_50">
      <g>
       <use xlink:href="#mfcf4652a6a" x="239.976" y="238.721653" style="stroke: #000000; stroke-width: 0.8"/>
      </g>
     </g>
     <g id="text_32">
      <!-- $\mathdefault{−7.5}$ -->
      <g transform="translate(210.449315 242.625729) scale(0.11 -0.11)">
       <use xlink:href="#CMSY10-0" transform="scale(0.996264)"/>
       <use xlink:href="#CMR17-37" transform="translate(77.487468 0) scale(0.996264)"/>
       <use xlink:href="#CMMI12-3a" transform="translate(123.177945 0) scale(0.996264)"/>
       <use xlink:href="#CMR17-35" transform="translate(150.275122 0) scale(0.996264)"/>
      </g>
     </g>
    </g>
    <g id="ytick_14">
     <g id="line2d_51">
      <g>
       <use xlink:href="#mfcf4652a6a" x="239.976" y="216.351074" style="stroke: #000000; stroke-width: 0.8"/>
      </g>
     </g>
     <g id="text_33">
      <!-- $\mathdefault{−5.0}$ -->
      <g transform="translate(210.449315 220.255151) scale(0.11 -0.11)">
       <use xlink:href="#CMSY10-0" transform="scale(0.996264)"/>
       <use xlink:href="#CMR17-35" transform="translate(77.487468 0) scale(0.996264)"/>
       <use xlink:href="#CMMI12-3a" transform="translate(123.177945 0) scale(0.996264)"/>
       <use xlink:href="#CMR17-30" transform="translate(150.275122 0) scale(0.996264)"/>
      </g>
     </g>
    </g>
    <g id="ytick_15">
     <g id="line2d_52">
      <g>
       <use xlink:href="#mfcf4652a6a" x="239.976" y="193.980496" style="stroke: #000000; stroke-width: 0.8"/>
      </g>
     </g>
     <g id="text_34">
      <!-- $\mathdefault{−2.5}$ -->
      <g transform="translate(210.449315 197.884572) scale(0.11 -0.11)">
       <use xlink:href="#CMSY10-0" transform="scale(0.996264)"/>
       <use xlink:href="#CMR17-32" transform="translate(77.487468 0) scale(0.996264)"/>
       <use xlink:href="#CMMI12-3a" transform="translate(123.177945 0) scale(0.996264)"/>
       <use xlink:href="#CMR17-35" transform="translate(150.275122 0) scale(0.996264)"/>
      </g>
     </g>
    </g>
    <g id="ytick_16">
     <g id="line2d_53">
      <g>
       <use xlink:href="#mfcf4652a6a" x="239.976" y="171.609917" style="stroke: #000000; stroke-width: 0.8"/>
      </g>
     </g>
     <g id="text_35">
      <!-- $\mathdefault{0.0}$ -->
      <g transform="translate(218.972924 175.513994) scale(0.11 -0.11)">
       <use xlink:href="#CMR17-30" transform="scale(0.996264)"/>
       <use xlink:href="#CMMI12-3a" transform="translate(45.690477 0) scale(0.996264)"/>
       <use xlink:href="#CMR17-30" transform="translate(72.787654 0) scale(0.996264)"/>
      </g>
     </g>
    </g>
   </g>
   <g id="line2d_54">
    <path d="M 314.262113 171.609917 
L 318.277929 177.888701 
L 322.293746 184.167486 
L 326.309563 190.44627 
L 330.325379 196.725054 
L 334.341196 203.003838 
L 338.357013 209.282622 
L 342.372829 215.561406 
L 346.388646 221.84019 
L 350.404462 228.118974 
L 354.420279 234.397758 
L 358.436096 240.676542 
L 362.451912 246.955326 
L 366.467729 253.23411 
L 370.483546 259.512894 
L 374.499362 265.791678 
L 378.515179 272.070463 
L 382.530996 278.349247 
L 386.546812 284.628031 
L 390.562629 290.906815 
L 394.578446 297.185599 
L 394.869074 297.64 
" clip-path="url(#pb6c1b4497c)" style="fill: none; stroke-dasharray: 5.55,2.4; stroke-dashoffset: 0; stroke: #000000; stroke-width: 1.5"/>
   </g>
   <g id="line2d_55">
    <path d="M 316.454748 171.609917 
L 320.470565 177.888701 
L 324.486382 184.167486 
L 328.502198 190.44627 
L 332.518015 196.725054 
L 336.533832 203.003838 
L 340.549648 209.282622 
L 344.565465 215.561406 
L 348.581282 221.84019 
L 352.597098 228.118974 
L 356.612915 234.397758 
L 360.628732 240.676542 
L 364.644548 246.955326 
L 368.660365 253.23411 
L 372.676182 259.512894 
L 376.691998 265.791678 
L 380.707815 272.070463 
L 384.723632 278.349247 
L 388.739448 284.628031 
L 392.755265 290.906815 
L 396.771082 297.185599 
L 397.06171 297.64 
" clip-path="url(#pb6c1b4497c)" style="fill: none; stroke-dasharray: 5.55,2.4; stroke-dashoffset: 0; stroke: #000000; stroke-width: 1.5"/>
   </g>
   <g id="line2d_56">
    <path d="M 327.754654 171.609917 
L 331.770471 177.888701 
L 335.786287 184.167486 
L 339.802104 190.44627 
L 343.817921 196.725054 
L 347.833737 203.003838 
L 351.849554 209.282622 
L 355.865371 215.561406 
L 359.881187 221.84019 
L 363.897004 228.118974 
L 367.912821 234.397758 
L 371.928637 240.676542 
L 375.944454 246.955326 
L 379.960271 253.23411 
L 383.976087 259.512894 
L 387.991904 265.791678 
L 392.007721 272.070463 
L 396.023537 278.349247 
L 400.039354 284.628031 
L 404.055171 290.906815 
L 408.070987 297.185599 
L 408.361615 297.64 
" clip-path="url(#pb6c1b4497c)" style="fill: none; stroke-dasharray: 5.55,2.4; stroke-dashoffset: 0; stroke: #000000; stroke-width: 1.5"/>
   </g>
   <g id="line2d_57">
    <path d="M 336.7288 171.609917 
L 340.744616 177.888701 
L 344.760433 184.167486 
L 348.77625 190.44627 
L 352.792066 196.725054 
L 356.807883 203.003838 
L 360.8237 209.282622 
L 364.839516 215.561406 
L 368.855333 221.84019 
L 372.87115 228.118974 
L 376.886966 234.397758 
L 380.902783 240.676542 
L 384.9186 246.955326 
L 388.934416 253.23411 
L 392.950233 259.512894 
L 396.966049 265.791678 
L 400.981866 272.070463 
L 404.997683 278.349247 
L 409.013499 284.628031 
L 413.029316 290.906815 
L 417.045133 297.185599 
L 417.335761 297.64 
" clip-path="url(#pb6c1b4497c)" style="fill: none; stroke-dasharray: 5.55,2.4; stroke-dashoffset: 0; stroke: #000000; stroke-width: 1.5"/>
   </g>
   <g id="line2d_58">
    <path d="M 345.702945 171.609917 
L 349.718762 177.888701 
L 353.734578 184.167486 
L 357.750395 190.44627 
L 361.766212 196.725054 
L 365.782028 203.003838 
L 369.797845 209.282622 
L 373.813662 215.561406 
L 377.829478 221.84019 
L 381.845295 228.118974 
L 385.861112 234.397758 
L 389.876928 240.676542 
L 393.892745 246.955326 
L 397.908562 253.23411 
L 401.924378 259.512894 
L 405.940195 265.791678 
L 409.956012 272.070463 
L 413.971828 278.349247 
L 417.987645 284.628031 
L 422.003462 290.906815 
L 426.019278 297.185599 
L 426.309906 297.64 
" clip-path="url(#pb6c1b4497c)" style="fill: none; stroke-dasharray: 5.55,2.4; stroke-dashoffset: 0; stroke: #000000; stroke-width: 1.5"/>
   </g>
   <g id="line2d_59">
    <path d="M 239.976 171.609917 
L 392.688 171.609917 
" clip-path="url(#pb6c1b4497c)" style="fill: none; stroke: #000000; stroke-width: 1.5; stroke-linecap: square"/>
   </g>
   <g id="line2d_60">
    <path d="M 345.702945 252.144 
L 345.702945 153.713455 
" clip-path="url(#pb6c1b4497c)" style="fill: none; stroke: #000000; stroke-width: 1.5; stroke-linecap: square"/>
   </g>
   <g id="patch_21">
    <path d="M 239.976 252.144 
L 239.976 153.713455 
" style="fill: none; stroke: #000000; stroke-width: 0.8; stroke-linejoin: miter; stroke-linecap: square"/>
   </g>
   <g id="patch_22">
    <path d="M 392.688 252.144 
L 392.688 153.713455 
" style="fill: none; stroke: #000000; stroke-width: 0.8; stroke-linejoin: miter; stroke-linecap: square"/>
   </g>
   <g id="patch_23">
    <path d="M 239.976 252.144 
L 392.688 252.144 
" style="fill: none; stroke: #000000; stroke-width: 0.8; stroke-linejoin: miter; stroke-linecap: square"/>
   </g>
   <g id="patch_24">
    <path d="M 239.976 153.713455 
L 392.688 153.713455 
" style="fill: none; stroke: #000000; stroke-width: 0.8; stroke-linejoin: miter; stroke-linecap: square"/>
   </g>
   <g id="legend_4">
    <g id="patch_25">
     <path d="M 246.276 247.644 
L 320.602176 247.644 
Q 322.402176 247.644 322.402176 245.844 
L 322.402176 233.945727 
Q 322.402176 232.145727 320.602176 232.145727 
L 246.276 232.145727 
Q 244.476 232.145727 244.476 233.945727 
L 244.476 245.844 
Q 244.476 247.644 246.276 247.644 
z
" style="fill: #ffffff; opacity: 0.8; stroke: #cccccc; stroke-linejoin: miter"/>
    </g>
    <g id="PathCollection_8">
     <g>
      <use xlink:href="#m9066d77b5f" x="257.076" y="239.771715" style="fill: #0000ff; stroke: #0000ff"/>
     </g>
    </g>
    <g id="text_36">
     <!-- $2\theta=34.38\degree$ -->
     <g transform="translate(273.276 242.134215) scale(0.09 -0.09)">
      <defs>
       <path id="CMR17-33" d="M 1414 2157 
C 1984 2157 2234 1662 2234 1090 
C 2234 320 1824 25 1453 25 
C 1114 25 563 194 390 693 
C 422 680 454 680 486 680 
C 640 680 755 782 755 948 
C 755 1133 614 1216 486 1216 
C 378 1216 211 1165 211 926 
C 211 335 787 -128 1466 -128 
C 2176 -128 2720 430 2720 1085 
C 2720 1707 2208 2157 1600 2227 
C 2086 2328 2554 2756 2554 3329 
C 2554 3820 2048 4179 1472 4179 
C 890 4179 378 3829 378 3329 
C 378 3110 544 3072 627 3072 
C 762 3072 877 3155 877 3321 
C 877 3486 762 3569 627 3569 
C 602 3569 570 3569 544 3557 
C 730 3959 1235 4032 1459 4032 
C 1683 4032 2106 3925 2106 3320 
C 2106 3143 2080 2828 1862 2550 
C 1670 2304 1453 2304 1242 2284 
C 1210 2284 1062 2269 1037 2269 
C 992 2263 966 2257 966 2208 
C 966 2163 973 2157 1101 2157 
L 1414 2157 
z
" transform="scale(0.015625)"/>
       <path id="CMR17-38" d="M 1741 2264 
C 2144 2467 2554 2773 2554 3263 
C 2554 3841 1990 4179 1472 4179 
C 890 4179 378 3759 378 3180 
C 378 3021 416 2747 666 2505 
C 730 2442 998 2251 1171 2130 
C 883 1983 211 1634 211 934 
C 211 279 838 -128 1459 -128 
C 2144 -128 2720 362 2720 1010 
C 2720 1590 2330 1857 2074 2029 
L 1741 2264 
z
M 902 2822 
C 851 2854 595 3051 595 3351 
C 595 3739 998 4032 1459 4032 
C 1965 4032 2336 3676 2336 3262 
C 2336 2669 1670 2331 1638 2331 
C 1632 2331 1626 2331 1574 2370 
L 902 2822 
z
M 2080 1519 
C 2176 1449 2483 1240 2483 851 
C 2483 381 2010 25 1472 25 
C 890 25 448 438 448 940 
C 448 1443 838 1862 1280 2060 
L 2080 1519 
z
" transform="scale(0.015625)"/>
      </defs>
      <use xlink:href="#CMR17-32" transform="scale(0.996264)"/>
      <use xlink:href="#CMMI12-12" transform="translate(45.690477 0) scale(0.996264)"/>
      <use xlink:href="#CMR17-3d" transform="translate(121.533994 0) scale(0.996264)"/>
      <use xlink:href="#CMR17-33" transform="translate(220.922791 0) scale(0.996264)"/>
      <use xlink:href="#CMR17-34" transform="translate(266.613268 0) scale(0.996264)"/>
      <use xlink:href="#CMMI12-3a" transform="translate(312.303745 0) scale(0.996264)"/>
      <use xlink:href="#CMR17-33" transform="translate(339.400922 0) scale(0.996264)"/>
      <use xlink:href="#CMR17-38" transform="translate(385.091399 0) scale(0.996264)"/>
      <use xlink:href="#SFRM3583-b0" transform="translate(430.781876 0) scale(0.356961)"/>
     </g>
    </g>
   </g>
  </g>
  <g id="text_37">
   <!-- $\mathrm{\Re}\left(\mathrm{E^{0^{+}0}}\right)[\SI[]{}{\mega\eV}]$ -->
   <g transform="translate(177.515709 284.796784) scale(0.12 -0.12)">
    <defs>
     <path id="CMSY10-3c" d="M 3667 4500 
C 3615 4590 3609 4596 3519 4596 
C 3078 4596 2296 4413 1963 3855 
C 1867 4039 1554 4502 1068 4502 
C 633 4502 352 4099 352 3734 
C 352 3491 500 3331 679 3145 
C 1038 2787 1038 2684 1038 2448 
C 1038 2070 1000 1686 724 1686 
C 550 1686 518 1923 512 2038 
C 512 2089 505 2140 429 2140 
C 352 2140 352 2070 352 2044 
C 352 1929 410 1545 724 1545 
C 1243 1545 1243 2364 1243 2512 
C 1243 2704 1230 2947 794 3350 
C 615 3510 544 3606 544 3747 
C 544 4022 729 4361 1062 4361 
C 1394 4361 1650 3863 1650 3116 
L 1650 1233 
C 1650 1176 1650 1 1234 1 
C 998 1 762 197 627 598 
C 647 598 775 642 775 700 
C 775 738 724 769 704 769 
C 678 769 595 738 569 726 
C 563 764 530 833 485 833 
C 447 833 402 782 402 750 
C 402 726 415 687 427 668 
C 389 662 293 623 293 573 
C 293 541 331 503 363 503 
C 382 503 459 528 478 541 
C 683 -13 1010 -140 1234 -140 
C 1688 -140 2194 446 2194 1752 
L 2194 2222 
L 2931 2222 
L 3014 801 
C 3014 757 2989 713 2989 591 
C 2989 210 3303 -140 3731 -140 
C 3814 -140 3827 -140 3949 -50 
L 4410 308 
C 4486 372 4493 379 4493 404 
C 4493 455 4390 494 4371 494 
C 4339 494 4109 308 3821 71 
C 3603 211 3526 420 3526 592 
C 3526 713 3552 732 3552 801 
C 3552 986 3520 1316 3514 1513 
C 3501 1643 3475 2162 3469 2253 
C 3827 2369 4525 2785 4538 2791 
C 4557 2810 4570 2824 4570 2856 
C 4570 2869 4531 2946 4525 2952 
L 3667 4500 
z
M 4030 2743 
C 3442 2420 3307 2420 3122 2420 
L 2194 2420 
L 2194 2730 
C 2194 3167 2136 3412 2066 3609 
C 2290 4223 3115 4338 3122 4338 
C 3134 4338 3173 4274 3179 4268 
L 4030 2743 
z
" transform="scale(0.015625)"/>
     <path id="CMEX10-10" d="M 3296 -11187 
C 3309 -11194 3366 -11258 3373 -11258 
L 3514 -11258 
C 3533 -11258 3584 -11251 3584 -11194 
C 3584 -11168 3571 -11155 3558 -11136 
C 3328 -10906 2982 -10554 2586 -9850 
C 1894 -8621 1638 -7040 1638 -5504 
C 1638 -2662 2445 -992 3565 141 
C 3584 160 3584 179 3584 192 
C 3584 256 3539 256 3462 256 
C 3379 256 3366 256 3309 205 
C 2701 -320 2016 -1210 1574 -2560 
C 1299 -3405 1152 -4435 1152 -5498 
C 1152 -7014 1427 -8730 2432 -10214 
C 2605 -10464 2842 -10726 2842 -10733 
C 2906 -10810 2995 -10912 3046 -10957 
L 3296 -11187 
z
" transform="scale(0.015625)"/>
     <path id="CMR17-45" d="M 3885 1615 
L 3770 1615 
C 3629 676 3546 166 2419 166 
L 1530 166 
C 1274 166 1261 197 1261 414 
L 1261 2176 
L 1862 2176 
C 2464 2176 2522 1960 2522 1430 
L 2637 1430 
L 2637 3081 
L 2522 3081 
C 2522 2557 2464 2342 1862 2342 
L 1261 2342 
L 1261 3913 
C 1261 4128 1274 4160 1530 4160 
L 2406 4160 
C 3398 4160 3514 3769 3603 2929 
L 3718 2929 
L 3565 4325 
L 326 4325 
L 326 4160 
C 768 4160 838 4160 838 3874 
L 838 451 
C 838 166 768 166 326 166 
L 326 0 
L 3654 0 
L 3885 1615 
z
" transform="scale(0.015625)"/>
     <path id="CMR17-2b" d="M 2413 1472 
L 4109 1472 
C 4198 1472 4307 1472 4307 1580 
C 4307 1695 4205 1695 4109 1695 
L 2413 1695 
L 2413 3386 
C 2413 3475 2413 3584 2304 3584 
C 2189 3584 2189 3482 2189 3386 
L 2189 1695 
L 493 1695 
C 403 1695 294 1695 294 1587 
C 294 1472 397 1472 493 1472 
L 2189 1472 
L 2189 -218 
C 2189 -307 2189 -416 2298 -416 
C 2413 -416 2413 -314 2413 -218 
L 2413 1472 
z
" transform="scale(0.015625)"/>
     <path id="CMEX10-11" d="M 2662 -5498 
C 2662 -3661 2234 -1709 973 -269 
C 883 -166 646 83 493 218 
C 448 256 435 256 352 256 
C 288 256 230 256 230 192 
C 230 166 256 141 269 128 
C 486 -96 832 -448 1229 -1152 
C 1920 -2381 2176 -3962 2176 -5498 
C 2176 -8275 1408 -9971 256 -11142 
C 243 -11155 230 -11174 230 -11194 
C 230 -11258 288 -11258 352 -11258 
C 435 -11258 448 -11258 506 -11206 
C 1114 -10682 1798 -9792 2240 -8442 
C 2522 -7565 2662 -6528 2662 -5498 
z
" transform="scale(0.015625)"/>
     <path id="CMR17-5b" d="M 1504 -1600 
L 1504 -1377 
L 902 -1377 
L 902 4544 
L 1504 4544 
L 1504 4767 
L 678 4767 
L 678 -1600 
L 1504 -1600 
z
" transform="scale(0.015625)"/>
     <path id="CMR17-4d" d="M 1338 4224 
C 1299 4320 1293 4320 1158 4320 
L 339 4320 
L 339 4160 
C 781 4160 851 4160 851 3875 
L 851 610 
C 851 451 851 153 339 153 
L 339 -13 
C 486 0 755 0 915 0 
C 1075 0 1344 0 1491 -13 
L 1491 153 
C 979 153 979 451 979 610 
L 979 4135 
L 986 4135 
L 2490 89 
C 2515 25 2528 -13 2579 -13 
C 2630 -13 2643 25 2669 89 
L 4186 4166 
L 4192 4166 
L 4192 438 
C 4192 153 4122 153 3680 153 
L 3680 -13 
C 3853 0 4198 0 4384 0 
C 4570 0 4922 0 5094 -13 
L 5094 153 
C 4653 153 4582 153 4582 438 
L 4582 3875 
C 4582 4160 4653 4160 5094 4160 
L 5094 4320 
L 4282 4320 
C 4147 4320 4141 4314 4102 4218 
L 2720 502 
L 1338 4224 
z
" transform="scale(0.015625)"/>
     <path id="CMR17-65" d="M 2438 1472 
C 2464 1498 2464 1511 2464 1576 
C 2464 2238 2118 2816 1389 2816 
C 710 2816 173 2169 173 1383 
C 173 551 781 -64 1459 -64 
C 2176 -64 2458 607 2458 740 
C 2458 784 2419 784 2406 784 
C 2362 784 2355 771 2330 696 
C 2189 265 1837 51 1504 51 
C 1229 51 954 203 781 480 
C 582 803 582 1176 582 1472 
L 2438 1472 
z
M 589 1568 
C 634 2505 1126 2714 1382 2714 
C 1818 2714 2112 2297 2118 1568 
L 589 1568 
z
" transform="scale(0.015625)"/>
     <path id="CMR17-56" d="M 3776 3745 
C 3834 3886 3936 4160 4365 4160 
L 4365 4332 
C 4218 4319 4051 4319 3891 4319 
C 3738 4319 3475 4319 3328 4332 
L 3328 4160 
C 3648 4160 3661 3936 3661 3898 
C 3661 3827 3642 3783 3622 3732 
L 2362 446 
L 1043 3886 
C 1024 3931 1011 3963 1011 3994 
C 1011 4160 1267 4160 1402 4160 
L 1402 4319 
C 1197 4319 896 4319 685 4319 
C 518 4319 218 4319 64 4332 
L 64 4160 
C 435 4160 506 4135 582 3931 
L 2106 -26 
C 2138 -115 2144 -128 2214 -128 
C 2285 -128 2291 -115 2323 -26 
L 3776 3745 
z
" transform="scale(0.015625)"/>
     <path id="CMR17-5d" d="M 915 4767 
L 90 4767 
L 90 4544 
L 691 4544 
L 691 -1377 
L 90 -1377 
L 90 -1600 
L 915 -1600 
L 915 4767 
z
" transform="scale(0.015625)"/>
    </defs>
    <use xlink:href="#CMSY10-3c" transform="scale(0.996264)"/>
    <use xlink:href="#CMEX10-10" transform="translate(88.556995 110.586308) scale(0.996264)"/>
    <use xlink:href="#CMR17-45" transform="translate(148.056285 0) scale(0.996264)"/>
    <use xlink:href="#CMR17-30" transform="translate(210.642585 36.153639) scale(0.697382)"/>
    <use xlink:href="#CMR17-2b" transform="translate(242.625767 61.461065) scale(0.498132)"/>
    <use xlink:href="#CMR17-30" transform="translate(278.981286 36.153639) scale(0.697382)"/>
    <use xlink:href="#CMEX10-11" transform="translate(311.4626 110.586308) scale(0.996264)"/>
    <use xlink:href="#CMR17-5b" transform="translate(387.566295 0) scale(0.996264)"/>
    <use xlink:href="#CMR17-4d" transform="translate(412.437353 0) scale(0.996264)"/>
    <use xlink:href="#CMR17-65" transform="translate(497.124294 0) scale(0.996264)"/>
    <use xlink:href="#CMR17-56" transform="translate(537.609954 0) scale(0.996264)"/>
    <use xlink:href="#CMR17-5d" transform="translate(607.98355 0) scale(0.996264)"/>
   </g>
  </g>
  <g id="text_38">
   <!-- $\mathrm{\Im}\left(\mathrm{E^{0^{+}0}}\right)\ [\SI[]{}{\mega\eV}]$ -->
   <g transform="translate(24.804784 190.625998) rotate(-90) scale(0.12 -0.12)">
    <defs>
     <path id="CMSY10-3d" d="M 1837 2150 
C 1837 2195 1798 2214 1773 2221 
C 806 2278 550 2918 550 3296 
C 550 3936 1133 4371 1715 4371 
C 2080 4371 2285 4143 2560 3799 
C 2848 3437 3155 3050 3706 3050 
C 4154 3050 4435 3254 4435 3495 
C 4435 3578 4371 3578 4333 3578 
C 4250 3578 4243 3546 4237 3490 
C 4186 3191 3731 3191 3718 3191 
C 3629 3191 3590 3210 3488 3394 
C 2918 4448 2010 4512 1741 4512 
C 966 4512 352 3974 352 3296 
C 352 2509 1139 2080 1728 2080 
C 1766 2080 1837 2080 1837 2150 
z
M 525 1171 
C 410 1171 352 1171 352 1101 
C 352 1088 352 1037 410 1030 
C 634 1018 838 998 1338 550 
C 2016 -70 2157 -70 2669 -70 
C 3002 -70 3270 -70 3584 147 
C 3808 301 3994 557 3994 883 
C 3994 1114 3904 1248 3667 1504 
C 3418 1786 3398 1894 3398 2042 
C 3398 2317 3469 2618 3706 2618 
C 3712 2618 4179 2618 4237 2170 
C 4243 2131 4250 2086 4333 2086 
C 4416 2086 4435 2118 4435 2176 
C 4435 2451 4147 2758 3693 2758 
C 3232 2758 2861 2426 2861 2022 
C 2861 1766 3008 1606 3200 1389 
C 3437 1120 3456 1018 3456 883 
C 3456 288 2797 77 2682 77 
C 2643 77 2464 128 2259 275 
C 2144 358 1965 525 1939 544 
C 1472 986 1229 1171 781 1171 
L 525 1171 
z
" transform="scale(0.015625)"/>
    </defs>
    <use xlink:href="#CMSY10-3d" transform="scale(0.996264)"/>
    <use xlink:href="#CMEX10-10" transform="translate(88.556995 110.586308) scale(0.996264)"/>
    <use xlink:href="#CMR17-45" transform="translate(148.056285 0) scale(0.996264)"/>
    <use xlink:href="#CMR17-30" transform="translate(210.642585 36.153639) scale(0.697382)"/>
    <use xlink:href="#CMR17-2b" transform="translate(242.625767 61.461065) scale(0.498132)"/>
    <use xlink:href="#CMR17-30" transform="translate(278.981286 36.153639) scale(0.697382)"/>
    <use xlink:href="#CMEX10-11" transform="translate(311.4626 110.586308) scale(0.996264)"/>
    <use xlink:href="#CMR17-5b" transform="translate(415.261465 0) scale(0.996264)"/>
    <use xlink:href="#CMR17-4d" transform="translate(440.132523 0) scale(0.996264)"/>
    <use xlink:href="#CMR17-65" transform="translate(524.819464 0) scale(0.996264)"/>
    <use xlink:href="#CMR17-56" transform="translate(565.305124 0) scale(0.996264)"/>
    <use xlink:href="#CMR17-5d" transform="translate(635.67872 0) scale(0.996264)"/>
   </g>
  </g>
 </g>
 <defs>
  <clipPath id="p31429112b6">
   <rect x="56.7216" y="35.5968" width="152.712" height="98.430545"/>
  </clipPath>
  <clipPath id="p0566ee4a86">
   <rect x="239.976" y="35.5968" width="152.712" height="98.430545"/>
  </clipPath>
  <clipPath id="pbf5fd81d27">
   <rect x="56.7216" y="153.713455" width="152.712" height="98.430545"/>
  </clipPath>
  <clipPath id="pb6c1b4497c">
   <rect x="239.976" y="153.713455" width="152.712" height="98.430545"/>
  </clipPath>
 </defs>
</svg>
