<?xml version="1.0" encoding="utf-8" standalone="no"?>
<!DOCTYPE svg PUBLIC "-//W3C//DTD SVG 1.1//EN"
  "http://www.w3.org/Graphics/SVG/1.1/DTD/svg11.dtd">
<svg xmlns:xlink="http://www.w3.org/1999/xlink" width="349.2pt" height="236.88pt" viewBox="0 0 349.2 236.88" xmlns="http://www.w3.org/2000/svg" version="1.1">
 <metadata>
  <rdf:RDF xmlns:dc="http://purl.org/dc/elements/1.1/" xmlns:cc="http://creativecommons.org/ns#" xmlns:rdf="http://www.w3.org/1999/02/22-rdf-syntax-ns#">
   <cc:Work>
    <dc:type rdf:resource="http://purl.org/dc/dcmitype/StillImage"/>
    <dc:date>2025-02-03T11:17:44.636643</dc:date>
    <dc:format>image/svg+xml</dc:format>
    <dc:creator>
     <cc:Agent>
      <dc:title>Matplotlib v3.8.0, https://matplotlib.org/</dc:title>
     </cc:Agent>
    </dc:creator>
   </cc:Work>
  </rdf:RDF>
 </metadata>
 <defs>
  <style type="text/css">*{stroke-linejoin: round; stroke-linecap: butt}</style>
 </defs>
 <g id="figure_1">
  <g id="patch_1">
   <path d="M 0 236.88 
L 349.2 236.88 
L 349.2 0 
L 0 0 
z
" style="fill: #ffffff"/>
  </g>
  <g id="axes_1">
   <g id="patch_2">
    <path d="M 49.977963 190.007009 
L 336.241047 190.007009 
L 336.241047 12.930611 
L 49.977963 12.930611 
z
" style="fill: #ffffff"/>
   </g>
   <g id="matplotlib.axis_1">
    <g id="xtick_1">
     <g id="line2d_1">
      <defs>
       <path id="mcd95b64bbb" d="M 0 0 
L 0 3.5 
" style="stroke: #000000; stroke-width: 0.8"/>
      </defs>
      <g>
       <use xlink:href="#mcd95b64bbb" x="86.366259" y="190.007009" style="stroke: #000000; stroke-width: 0.8"/>
      </g>
     </g>
     <g id="text_1">
      <!-- $\mathdefault{−8}$ -->
      <g transform="translate(78.790519 205.524993) scale(0.12 -0.12)">
       <defs>
        <path id="CMSY10-0" d="M 4218 1472 
C 4326 1472 4442 1472 4442 1600 
C 4442 1728 4326 1728 4218 1728 
L 755 1728 
C 646 1728 531 1728 531 1600 
C 531 1472 646 1472 755 1472 
L 4218 1472 
z
" transform="scale(0.015625)"/>
        <path id="CMR17-38" d="M 1741 2264 
C 2144 2467 2554 2773 2554 3263 
C 2554 3841 1990 4179 1472 4179 
C 890 4179 378 3759 378 3180 
C 378 3021 416 2747 666 2505 
C 730 2442 998 2251 1171 2130 
C 883 1983 211 1634 211 934 
C 211 279 838 -128 1459 -128 
C 2144 -128 2720 362 2720 1010 
C 2720 1590 2330 1857 2074 2029 
L 1741 2264 
z
M 902 2822 
C 851 2854 595 3051 595 3351 
C 595 3739 998 4032 1459 4032 
C 1965 4032 2336 3676 2336 3262 
C 2336 2669 1670 2331 1638 2331 
C 1632 2331 1626 2331 1574 2370 
L 902 2822 
z
M 2080 1519 
C 2176 1449 2483 1240 2483 851 
C 2483 381 2010 25 1472 25 
C 890 25 448 438 448 940 
C 448 1443 838 1862 1280 2060 
L 2080 1519 
z
" transform="scale(0.015625)"/>
       </defs>
       <use xlink:href="#CMSY10-0" transform="scale(0.996264)"/>
       <use xlink:href="#CMR17-38" transform="translate(77.487468 0) scale(0.996264)"/>
      </g>
     </g>
    </g>
    <g id="xtick_2">
     <g id="line2d_2">
      <g>
       <use xlink:href="#mcd95b64bbb" x="140.497942" y="190.007009" style="stroke: #000000; stroke-width: 0.8"/>
      </g>
     </g>
     <g id="text_2">
      <!-- $\mathdefault{−6}$ -->
      <g transform="translate(132.922202 205.524993) scale(0.12 -0.12)">
       <defs>
        <path id="CMR17-36" d="M 678 2176 
C 678 3690 1395 4032 1811 4032 
C 1946 4032 2272 4009 2400 3776 
C 2298 3776 2106 3776 2106 3553 
C 2106 3381 2246 3323 2336 3323 
C 2394 3323 2566 3348 2566 3560 
C 2566 3954 2246 4179 1805 4179 
C 1043 4179 243 3390 243 1984 
C 243 253 966 -128 1478 -128 
C 2099 -128 2688 427 2688 1283 
C 2688 2081 2170 2662 1517 2662 
C 1126 2662 838 2407 678 1960 
L 678 2176 
z
M 1478 25 
C 691 25 691 1200 691 1436 
C 691 1896 909 2560 1504 2560 
C 1613 2560 1926 2560 2138 2120 
C 2253 1870 2253 1609 2253 1289 
C 2253 944 2253 690 2118 434 
C 1978 171 1773 25 1478 25 
z
" transform="scale(0.015625)"/>
       </defs>
       <use xlink:href="#CMSY10-0" transform="scale(0.996264)"/>
       <use xlink:href="#CMR17-36" transform="translate(77.487468 0) scale(0.996264)"/>
      </g>
     </g>
    </g>
    <g id="xtick_3">
     <g id="line2d_3">
      <g>
       <use xlink:href="#mcd95b64bbb" x="194.629624" y="190.007009" style="stroke: #000000; stroke-width: 0.8"/>
      </g>
     </g>
     <g id="text_3">
      <!-- $\mathdefault{−4}$ -->
      <g transform="translate(187.053884 205.524993) scale(0.12 -0.12)">
       <defs>
        <path id="CMR17-34" d="M 2150 4122 
C 2150 4256 2144 4256 2029 4256 
L 128 1254 
L 128 1088 
L 1779 1088 
L 1779 457 
C 1779 224 1766 160 1318 160 
L 1197 160 
L 1197 0 
C 1402 0 1747 0 1965 0 
C 2182 0 2528 0 2733 0 
L 2733 160 
L 2611 160 
C 2163 160 2150 224 2150 457 
L 2150 1088 
L 2803 1088 
L 2803 1254 
L 2150 1254 
L 2150 4122 
z
M 1798 3703 
L 1798 1254 
L 256 1254 
L 1798 3703 
z
" transform="scale(0.015625)"/>
       </defs>
       <use xlink:href="#CMSY10-0" transform="scale(0.996264)"/>
       <use xlink:href="#CMR17-34" transform="translate(77.487468 0) scale(0.996264)"/>
      </g>
     </g>
    </g>
    <g id="xtick_4">
     <g id="line2d_4">
      <g>
       <use xlink:href="#mcd95b64bbb" x="248.761307" y="190.007009" style="stroke: #000000; stroke-width: 0.8"/>
      </g>
     </g>
     <g id="text_4">
      <!-- $\mathdefault{−2}$ -->
      <g transform="translate(241.185567 205.524993) scale(0.12 -0.12)">
       <defs>
        <path id="CMR17-32" d="M 2669 989 
L 2554 989 
C 2490 536 2438 459 2413 420 
C 2381 369 1920 369 1830 369 
L 602 369 
C 832 619 1280 1072 1824 1597 
C 2214 1967 2669 2402 2669 3035 
C 2669 3790 2067 4224 1395 4224 
C 691 4224 262 3604 262 3030 
C 262 2780 448 2748 525 2748 
C 589 2748 781 2787 781 3010 
C 781 3207 614 3264 525 3264 
C 486 3264 448 3258 422 3245 
C 544 3790 915 4058 1306 4058 
C 1862 4058 2227 3617 2227 3035 
C 2227 2479 1901 2000 1536 1584 
L 262 146 
L 262 0 
L 2515 0 
L 2669 989 
z
" transform="scale(0.015625)"/>
       </defs>
       <use xlink:href="#CMSY10-0" transform="scale(0.996264)"/>
       <use xlink:href="#CMR17-32" transform="translate(77.487468 0) scale(0.996264)"/>
      </g>
     </g>
    </g>
    <g id="xtick_5">
     <g id="line2d_5">
      <g>
       <use xlink:href="#mcd95b64bbb" x="302.892989" y="190.007009" style="stroke: #000000; stroke-width: 0.8"/>
      </g>
     </g>
     <g id="text_5">
      <!-- $\mathdefault{0}$ -->
      <g transform="translate(299.966494 205.524993) scale(0.12 -0.12)">
       <defs>
        <path id="CMR17-30" d="M 2688 2025 
C 2688 2416 2682 3080 2413 3591 
C 2176 4039 1798 4198 1466 4198 
C 1158 4198 768 4058 525 3597 
C 269 3118 243 2524 243 2025 
C 243 1661 250 1106 448 619 
C 723 -39 1216 -128 1466 -128 
C 1760 -128 2208 -7 2470 600 
C 2662 1042 2688 1559 2688 2025 
z
M 1466 -26 
C 1056 -26 813 325 723 812 
C 653 1188 653 1738 653 2096 
C 653 2588 653 2997 736 3387 
C 858 3929 1216 4096 1466 4096 
C 1728 4096 2067 3923 2189 3400 
C 2272 3036 2278 2607 2278 2096 
C 2278 1680 2278 1169 2202 792 
C 2067 95 1690 -26 1466 -26 
z
" transform="scale(0.015625)"/>
       </defs>
       <use xlink:href="#CMR17-30" transform="scale(0.996264)"/>
      </g>
     </g>
    </g>
    <g id="text_6">
     <!-- $\mathrm{E\ [MeV]}$ -->
     <g transform="translate(171.861723 221.037744) scale(0.12 -0.12)">
      <defs>
       <path id="CMR17-45" d="M 3885 1615 
L 3770 1615 
C 3629 676 3546 166 2419 166 
L 1530 166 
C 1274 166 1261 197 1261 414 
L 1261 2176 
L 1862 2176 
C 2464 2176 2522 1960 2522 1430 
L 2637 1430 
L 2637 3081 
L 2522 3081 
C 2522 2557 2464 2342 1862 2342 
L 1261 2342 
L 1261 3913 
C 1261 4128 1274 4160 1530 4160 
L 2406 4160 
C 3398 4160 3514 3769 3603 2929 
L 3718 2929 
L 3565 4325 
L 326 4325 
L 326 4160 
C 768 4160 838 4160 838 3874 
L 838 451 
C 838 166 768 166 326 166 
L 326 0 
L 3654 0 
L 3885 1615 
z
" transform="scale(0.015625)"/>
       <path id="CMR17-5b" d="M 1504 -1600 
L 1504 -1377 
L 902 -1377 
L 902 4544 
L 1504 4544 
L 1504 4767 
L 678 4767 
L 678 -1600 
L 1504 -1600 
z
" transform="scale(0.015625)"/>
       <path id="CMR17-4d" d="M 1338 4224 
C 1299 4320 1293 4320 1158 4320 
L 339 4320 
L 339 4160 
C 781 4160 851 4160 851 3875 
L 851 610 
C 851 451 851 153 339 153 
L 339 -13 
C 486 0 755 0 915 0 
C 1075 0 1344 0 1491 -13 
L 1491 153 
C 979 153 979 451 979 610 
L 979 4135 
L 986 4135 
L 2490 89 
C 2515 25 2528 -13 2579 -13 
C 2630 -13 2643 25 2669 89 
L 4186 4166 
L 4192 4166 
L 4192 438 
C 4192 153 4122 153 3680 153 
L 3680 -13 
C 3853 0 4198 0 4384 0 
C 4570 0 4922 0 5094 -13 
L 5094 153 
C 4653 153 4582 153 4582 438 
L 4582 3875 
C 4582 4160 4653 4160 5094 4160 
L 5094 4320 
L 4282 4320 
C 4147 4320 4141 4314 4102 4218 
L 2720 502 
L 1338 4224 
z
" transform="scale(0.015625)"/>
       <path id="CMR17-65" d="M 2438 1472 
C 2464 1498 2464 1511 2464 1576 
C 2464 2238 2118 2816 1389 2816 
C 710 2816 173 2169 173 1383 
C 173 551 781 -64 1459 -64 
C 2176 -64 2458 607 2458 740 
C 2458 784 2419 784 2406 784 
C 2362 784 2355 771 2330 696 
C 2189 265 1837 51 1504 51 
C 1229 51 954 203 781 480 
C 582 803 582 1176 582 1472 
L 2438 1472 
z
M 589 1568 
C 634 2505 1126 2714 1382 2714 
C 1818 2714 2112 2297 2118 1568 
L 589 1568 
z
" transform="scale(0.015625)"/>
       <path id="CMR17-56" d="M 3776 3745 
C 3834 3886 3936 4160 4365 4160 
L 4365 4332 
C 4218 4319 4051 4319 3891 4319 
C 3738 4319 3475 4319 3328 4332 
L 3328 4160 
C 3648 4160 3661 3936 3661 3898 
C 3661 3827 3642 3783 3622 3732 
L 2362 446 
L 1043 3886 
C 1024 3931 1011 3963 1011 3994 
C 1011 4160 1267 4160 1402 4160 
L 1402 4319 
C 1197 4319 896 4319 685 4319 
C 518 4319 218 4319 64 4332 
L 64 4160 
C 435 4160 506 4135 582 3931 
L 2106 -26 
C 2138 -115 2144 -128 2214 -128 
C 2285 -128 2291 -115 2323 -26 
L 3776 3745 
z
" transform="scale(0.015625)"/>
       <path id="CMR17-5d" d="M 915 4767 
L 90 4767 
L 90 4544 
L 691 4544 
L 691 -1377 
L 90 -1377 
L 90 -1600 
L 915 -1600 
L 915 4767 
z
" transform="scale(0.015625)"/>
      </defs>
      <use xlink:href="#CMR17-45" transform="scale(0.996264)"/>
      <use xlink:href="#CMR17-5b" transform="translate(90.28147 0) scale(0.996264)"/>
      <use xlink:href="#CMR17-4d" transform="translate(115.152529 0) scale(0.996264)"/>
      <use xlink:href="#CMR17-65" transform="translate(199.839469 0) scale(0.996264)"/>
      <use xlink:href="#CMR17-56" transform="translate(240.32513 0) scale(0.996264)"/>
      <use xlink:href="#CMR17-5d" transform="translate(309.397559 0) scale(0.996264)"/>
     </g>
    </g>
   </g>
   <g id="matplotlib.axis_2">
    <g id="ytick_1">
     <g id="line2d_6">
      <defs>
       <path id="mb6ef42e1fd" d="M 0 0 
L -3.5 0 
" style="stroke: #000000; stroke-width: 0.8"/>
      </defs>
      <g>
       <use xlink:href="#mb6ef42e1fd" x="49.977963" y="190.007009" style="stroke: #000000; stroke-width: 0.8"/>
      </g>
     </g>
     <g id="text_7">
      <!-- $\mathdefault{0.0}$ -->
      <g transform="translate(28.020321 194.266001) scale(0.12 -0.12)">
       <defs>
        <path id="CMMI12-3a" d="M 1178 307 
C 1178 492 1024 619 870 619 
C 685 619 557 466 557 313 
C 557 128 710 0 864 0 
C 1050 0 1178 153 1178 307 
z
" transform="scale(0.015625)"/>
       </defs>
       <use xlink:href="#CMR17-30" transform="scale(0.996264)"/>
       <use xlink:href="#CMMI12-3a" transform="translate(45.690477 0) scale(0.996264)"/>
       <use xlink:href="#CMR17-30" transform="translate(72.787654 0) scale(0.996264)"/>
      </g>
     </g>
    </g>
    <g id="ytick_2">
     <g id="line2d_7">
      <g>
       <use xlink:href="#mb6ef42e1fd" x="49.977963" y="150.265723" style="stroke: #000000; stroke-width: 0.8"/>
      </g>
     </g>
     <g id="text_8">
      <!-- $\mathdefault{0.1}$ -->
      <g transform="translate(28.020321 154.524715) scale(0.12 -0.12)">
       <defs>
        <path id="CMR17-31" d="M 1702 4058 
C 1702 4192 1696 4192 1606 4192 
C 1357 3916 979 3827 621 3827 
C 602 3827 570 3827 563 3808 
C 557 3795 557 3782 557 3648 
C 755 3648 1088 3686 1344 3839 
L 1344 461 
C 1344 236 1331 160 781 160 
L 589 160 
L 589 0 
C 896 0 1216 0 1523 0 
C 1830 0 2150 0 2458 0 
L 2458 160 
L 2266 160 
C 1715 160 1702 230 1702 458 
L 1702 4058 
z
" transform="scale(0.015625)"/>
       </defs>
       <use xlink:href="#CMR17-30" transform="scale(0.996264)"/>
       <use xlink:href="#CMMI12-3a" transform="translate(45.690477 0) scale(0.996264)"/>
       <use xlink:href="#CMR17-31" transform="translate(72.787654 0) scale(0.996264)"/>
      </g>
     </g>
    </g>
    <g id="ytick_3">
     <g id="line2d_8">
      <g>
       <use xlink:href="#mb6ef42e1fd" x="49.977963" y="110.524436" style="stroke: #000000; stroke-width: 0.8"/>
      </g>
     </g>
     <g id="text_9">
      <!-- $\mathdefault{0.2}$ -->
      <g transform="translate(28.020321 114.783429) scale(0.12 -0.12)">
       <use xlink:href="#CMR17-30" transform="scale(0.996264)"/>
       <use xlink:href="#CMMI12-3a" transform="translate(45.690477 0) scale(0.996264)"/>
       <use xlink:href="#CMR17-32" transform="translate(72.787654 0) scale(0.996264)"/>
      </g>
     </g>
    </g>
    <g id="ytick_4">
     <g id="line2d_9">
      <g>
       <use xlink:href="#mb6ef42e1fd" x="49.977963" y="70.78315" style="stroke: #000000; stroke-width: 0.8"/>
      </g>
     </g>
     <g id="text_10">
      <!-- $\mathdefault{0.3}$ -->
      <g transform="translate(28.020321 75.042143) scale(0.12 -0.12)">
       <defs>
        <path id="CMR17-33" d="M 1414 2157 
C 1984 2157 2234 1662 2234 1090 
C 2234 320 1824 25 1453 25 
C 1114 25 563 194 390 693 
C 422 680 454 680 486 680 
C 640 680 755 782 755 948 
C 755 1133 614 1216 486 1216 
C 378 1216 211 1165 211 926 
C 211 335 787 -128 1466 -128 
C 2176 -128 2720 430 2720 1085 
C 2720 1707 2208 2157 1600 2227 
C 2086 2328 2554 2756 2554 3329 
C 2554 3820 2048 4179 1472 4179 
C 890 4179 378 3829 378 3329 
C 378 3110 544 3072 627 3072 
C 762 3072 877 3155 877 3321 
C 877 3486 762 3569 627 3569 
C 602 3569 570 3569 544 3557 
C 730 3959 1235 4032 1459 4032 
C 1683 4032 2106 3925 2106 3320 
C 2106 3143 2080 2828 1862 2550 
C 1670 2304 1453 2304 1242 2284 
C 1210 2284 1062 2269 1037 2269 
C 992 2263 966 2257 966 2208 
C 966 2163 973 2157 1101 2157 
L 1414 2157 
z
" transform="scale(0.015625)"/>
       </defs>
       <use xlink:href="#CMR17-30" transform="scale(0.996264)"/>
       <use xlink:href="#CMMI12-3a" transform="translate(45.690477 0) scale(0.996264)"/>
       <use xlink:href="#CMR17-33" transform="translate(72.787654 0) scale(0.996264)"/>
      </g>
     </g>
    </g>
    <g id="ytick_5">
     <g id="line2d_10">
      <g>
       <use xlink:href="#mb6ef42e1fd" x="49.977963" y="31.041864" style="stroke: #000000; stroke-width: 0.8"/>
      </g>
     </g>
     <g id="text_11">
      <!-- $\mathdefault{0.4}$ -->
      <g transform="translate(28.020321 35.300856) scale(0.12 -0.12)">
       <use xlink:href="#CMR17-30" transform="scale(0.996264)"/>
       <use xlink:href="#CMMI12-3a" transform="translate(45.690477 0) scale(0.996264)"/>
       <use xlink:href="#CMR17-34" transform="translate(72.787654 0) scale(0.996264)"/>
      </g>
     </g>
    </g>
    <g id="text_12">
     <!-- $\mathrm{Probability\ density}$ -->
     <g transform="translate(21.473947 150.148504) rotate(-90) scale(0.12 -0.12)">
      <defs>
       <path id="CMR17-50" d="M 1267 2042 
L 2291 2042 
C 3117 2042 3718 2578 3718 3184 
C 3718 3791 3130 4352 2291 4352 
L 333 4352 
L 333 4186 
C 774 4186 845 4186 845 3899 
L 845 446 
C 845 160 774 160 333 160 
L 333 0 
C 518 0 858 0 1056 0 
C 1254 0 1594 0 1779 0 
L 1779 160 
C 1338 160 1267 160 1267 446 
L 1267 2042 
z
M 1254 2176 
L 1254 3938 
C 1254 4155 1267 4186 1523 4186 
L 2170 4186 
C 2995 4186 3232 3714 3232 3184 
C 3232 2604 2950 2176 2170 2176 
L 1254 2176 
z
" transform="scale(0.015625)"/>
       <path id="CMR17-72" d="M 960 1497 
C 960 2112 1222 2688 1702 2688 
C 1747 2688 1792 2682 1837 2662 
C 1837 2662 1696 2617 1696 2452 
C 1696 2298 1818 2234 1914 2234 
C 1990 2234 2131 2279 2131 2458 
C 2131 2663 1926 2790 1709 2790 
C 1222 2790 1011 2317 947 2093 
L 941 2093 
L 941 2790 
L 198 2720 
L 198 2554 
C 576 2554 634 2515 634 2208 
L 634 428 
C 634 184 608 153 198 153 
L 198 -13 
C 352 0 646 0 813 0 
C 998 0 1325 0 1498 -13 
L 1498 153 
C 1037 153 960 153 960 440 
L 960 1497 
z
" transform="scale(0.015625)"/>
       <path id="CMR17-6f" d="M 2758 1356 
C 2758 2176 2163 2816 1466 2816 
C 768 2816 173 2176 173 1356 
C 173 551 768 -64 1466 -64 
C 2163 -64 2758 551 2758 1356 
z
M 1466 51 
C 1165 51 909 230 762 480 
C 602 767 582 1126 582 1408 
C 582 1677 595 2010 762 2298 
C 890 2509 1139 2714 1466 2714 
C 1754 2714 1997 2554 2150 2330 
C 2349 2029 2349 1607 2349 1408 
C 2349 1158 2336 775 2163 467 
C 1984 173 1709 51 1466 51 
z
" transform="scale(0.015625)"/>
       <path id="CMR17-62" d="M 960 4396 
L 198 4326 
L 198 4160 
C 576 4160 634 4122 634 3817 
L 634 -13 
L 749 -13 
L 934 441 
C 1120 141 1395 -64 1766 -64 
C 2406 -64 3053 500 3053 1370 
C 3053 2188 2477 2790 1830 2790 
C 1434 2790 1152 2579 960 2330 
L 960 4396 
z
M 973 2004 
C 973 2118 973 2138 1062 2272 
C 1312 2657 1670 2688 1792 2688 
C 1984 2688 2643 2585 2643 1376 
C 2643 108 1888 38 1734 38 
C 1536 38 1248 114 1043 486 
C 973 608 973 621 973 735 
L 973 2004 
z
" transform="scale(0.015625)"/>
       <path id="CMR17-61" d="M 2304 1653 
C 2304 2072 2304 2294 2035 2543 
C 1798 2752 1523 2816 1306 2816 
C 800 2816 435 2407 435 1971 
C 435 1728 627 1728 666 1728 
C 749 1728 896 1778 896 1954 
C 896 2112 774 2181 666 2181 
C 640 2181 608 2174 589 2168 
C 723 2592 1069 2714 1293 2714 
C 1613 2714 1965 2429 1965 1885 
L 1965 1600 
C 1587 1600 1133 1549 774 1357 
C 371 1133 256 813 256 570 
C 256 77 832 -64 1171 -64 
C 1523 -64 1850 139 1990 511 
C 2003 233 2182 -18 2464 -18 
C 2598 -18 2938 70 2938 567 
L 2938 920 
L 2822 920 
L 2822 562 
C 2822 178 2650 128 2566 128 
C 2304 128 2304 458 2304 738 
L 2304 1653 
z
M 1965 870 
C 1965 317 1568 38 1216 38 
C 896 38 646 275 646 570 
C 646 761 730 1100 1101 1305 
C 1408 1478 1760 1504 1965 1504 
L 1965 870 
z
" transform="scale(0.015625)"/>
       <path id="CMR17-69" d="M 992 3909 
C 992 4049 877 4170 730 4170 
C 589 4170 467 4056 467 3909 
C 467 3769 582 3648 730 3648 
C 870 3648 992 3763 992 3909 
z
M 243 2706 
L 243 2541 
C 602 2541 653 2502 653 2197 
L 653 427 
C 653 184 627 153 218 153 
L 218 -13 
C 371 0 646 0 806 0 
C 960 0 1222 0 1370 -13 
L 1370 153 
C 992 153 979 191 979 420 
L 979 2776 
L 243 2706 
z
" transform="scale(0.015625)"/>
       <path id="CMR17-6c" d="M 979 4396 
L 218 4326 
L 218 4160 
C 595 4160 653 4122 653 3817 
L 653 426 
C 653 184 627 153 218 153 
L 218 -13 
C 371 0 653 0 813 0 
C 979 0 1261 0 1414 -13 
L 1414 153 
C 1005 153 979 178 979 426 
L 979 4396 
z
" transform="scale(0.015625)"/>
       <path id="CMR17-74" d="M 966 2560 
L 1862 2560 
L 1862 2725 
L 966 2725 
L 966 3904 
L 851 3904 
C 838 3245 614 2668 70 2668 
L 70 2560 
L 627 2560 
L 627 771 
C 627 650 627 -64 1370 -64 
C 1747 -64 1965 306 1965 777 
L 1965 1140 
L 1850 1140 
L 1850 783 
C 1850 344 1677 51 1408 51 
C 1222 51 966 178 966 758 
L 966 2560 
z
" transform="scale(0.015625)"/>
       <path id="CMR17-79" d="M 2496 2197 
C 2656 2586 2944 2586 3034 2586 
L 3034 2752 
C 2912 2752 2752 2752 2630 2752 
C 2496 2752 2285 2752 2157 2758 
L 2157 2592 
C 2400 2573 2406 2394 2406 2343 
C 2406 2280 2394 2248 2362 2171 
L 1664 449 
L 902 2306 
C 870 2382 870 2426 870 2433 
C 870 2573 1018 2586 1171 2586 
L 1171 2758 
C 1018 2752 742 2752 582 2752 
C 410 2752 205 2752 64 2758 
L 64 2586 
C 410 2586 448 2554 531 2350 
L 1485 15 
C 1197 -738 1030 -1178 627 -1178 
C 557 -1178 397 -1159 282 -1044 
C 429 -1031 493 -942 493 -833 
C 493 -725 416 -629 288 -629 
C 147 -629 77 -725 77 -840 
C 77 -1095 339 -1280 627 -1280 
C 998 -1280 1229 -922 1357 -604 
L 2496 2197 
z
" transform="scale(0.015625)"/>
       <path id="CMR17-64" d="M 1869 4326 
L 1869 4160 
C 2246 4160 2304 4122 2304 3820 
L 2304 2345 
C 2278 2377 2016 2790 1498 2790 
C 845 2790 211 2208 211 1364 
C 211 525 806 -64 1434 -64 
C 1978 -64 2259 337 2291 380 
L 2291 -63 
L 3066 -63 
L 3066 128 
C 2688 128 2630 166 2630 473 
L 2630 4396 
L 1869 4326 
z
M 2291 755 
C 2291 563 2176 390 2029 262 
C 1811 70 1594 38 1472 38 
C 1286 38 621 134 621 1356 
C 621 2612 1363 2688 1530 2688 
C 1824 2688 2061 2522 2208 2291 
C 2291 2157 2291 2138 2291 2023 
L 2291 755 
z
" transform="scale(0.015625)"/>
       <path id="CMR17-6e" d="M 2656 1933 
C 2656 2259 2592 2790 1837 2790 
C 1331 2790 1069 2400 973 2144 
L 966 2144 
L 966 2790 
L 211 2720 
L 211 2554 
C 589 2554 646 2515 646 2208 
L 646 428 
C 646 184 621 153 211 153 
L 211 -13 
C 365 0 646 0 813 0 
C 979 0 1267 0 1421 -13 
L 1421 153 
C 1011 153 986 178 986 428 
L 986 1658 
C 986 2247 1344 2688 1792 2688 
C 2266 2688 2317 2266 2317 1958 
L 2317 428 
C 2317 184 2291 153 1882 153 
L 1882 -13 
C 2035 0 2317 0 2483 0 
C 2650 0 2938 0 3091 -13 
L 3091 153 
C 2682 153 2656 178 2656 428 
L 2656 1933 
z
" transform="scale(0.015625)"/>
       <path id="CMR17-73" d="M 1978 2697 
C 1978 2813 1971 2819 1933 2819 
C 1907 2819 1901 2813 1824 2717 
C 1805 2691 1747 2626 1728 2601 
C 1523 2819 1235 2819 1126 2819 
C 416 2819 160 2447 160 2076 
C 160 1498 813 1365 998 1325 
C 1402 1243 1542 1217 1677 1101 
C 1760 1025 1901 884 1901 654 
C 1901 384 1747 38 1158 38 
C 602 38 403 460 288 1021 
C 269 1110 269 1117 218 1117 
C 166 1117 160 1110 160 983 
L 160 63 
C 160 -51 166 -58 205 -58 
C 237 -58 243 -51 275 0 
C 314 57 410 211 448 276 
C 576 103 800 -64 1158 -64 
C 1792 -64 2131 283 2131 784 
C 2131 1112 1958 1285 1875 1362 
C 1683 1561 1459 1606 1190 1657 
C 838 1735 390 1825 390 2217 
C 390 2383 480 2737 1126 2737 
C 1811 2737 1850 2094 1862 1888 
C 1869 1856 1901 1849 1920 1849 
C 1978 1849 1978 1869 1978 1978 
L 1978 2697 
z
" transform="scale(0.015625)"/>
      </defs>
      <use xlink:href="#CMR17-50" transform="scale(0.996264)"/>
      <use xlink:href="#CMR17-72" transform="translate(62.586301 0) scale(0.996264)"/>
      <use xlink:href="#CMR17-6f" transform="translate(97.867068 0) scale(0.996264)"/>
      <use xlink:href="#CMR17-62" transform="translate(143.557545 0) scale(0.996264)"/>
      <use xlink:href="#CMR17-61" transform="translate(194.452915 0) scale(0.996264)"/>
      <use xlink:href="#CMR17-62" transform="translate(240.143392 0) scale(0.996264)"/>
      <use xlink:href="#CMR17-69" transform="translate(291.038762 0) scale(0.996264)"/>
      <use xlink:href="#CMR17-6c" transform="translate(315.909821 0) scale(0.996264)"/>
      <use xlink:href="#CMR17-69" transform="translate(340.780879 0) scale(0.996264)"/>
      <use xlink:href="#CMR17-74" transform="translate(365.651938 0) scale(0.996264)"/>
      <use xlink:href="#CMR17-79" transform="translate(398.330251 0) scale(0.996264)"/>
      <use xlink:href="#CMR17-64" transform="translate(475.619503 0) scale(0.996264)"/>
      <use xlink:href="#CMR17-65" transform="translate(526.514873 0) scale(0.996264)"/>
      <use xlink:href="#CMR17-6e" transform="translate(567.000533 0) scale(0.996264)"/>
      <use xlink:href="#CMR17-73" transform="translate(617.895903 0) scale(0.996264)"/>
      <use xlink:href="#CMR17-69" transform="translate(653.697241 0) scale(0.996264)"/>
      <use xlink:href="#CMR17-74" transform="translate(678.568299 0) scale(0.996264)"/>
      <use xlink:href="#CMR17-79" transform="translate(711.246613 0) scale(0.996264)"/>
     </g>
    </g>
   </g>
   <g id="line2d_11">
    <path d="M 62.989921 189.530873 
L 64.297656 189.143737 
L 65.605391 188.499077 
L 66.913125 187.469046 
L 68.22086 185.89065 
L 69.528594 183.572389 
L 70.836329 180.311447 
L 72.144063 175.923099 
L 73.451798 170.281232 
L 74.759532 163.36508 
L 76.067267 155.303227 
L 81.298205 120.263457 
L 82.605939 114.063309 
L 83.913674 110.200779 
L 85.221408 109.066425 
L 86.529143 110.774494 
L 87.836877 115.143118 
L 89.144612 121.724164 
L 90.452346 129.875199 
L 94.37555 156.453383 
L 95.683284 163.912715 
L 96.991019 169.963295 
L 98.298753 174.408113 
L 99.606488 177.171277 
L 100.914222 178.264978 
L 102.221957 177.764446 
L 103.529691 175.798033 
L 104.837426 172.552606 
L 106.14516 168.287912 
L 110.068364 153.22846 
L 111.376098 149.043692 
L 112.683833 146.068615 
L 113.991567 144.64429 
L 115.299302 144.940612 
L 116.607036 146.928731 
L 117.914771 150.388807 
L 119.222505 154.951767 
L 124.453443 175.407126 
L 125.761178 179.358576 
L 127.068912 182.535014 
L 128.376647 184.962696 
L 129.684381 186.730722 
L 130.992116 187.959733 
L 132.29985 188.776215 
L 133.607585 189.295125 
L 134.915319 189.610869 
L 137.530788 189.897761 
L 141.453992 189.994917 
L 149.300399 189.964739 
L 151.915868 189.836591 
L 153.223603 189.683929 
L 154.531337 189.417718 
L 155.839072 188.972902 
L 157.146806 188.261123 
L 158.454541 187.171175 
L 159.762275 185.575411 
L 161.07001 183.344244 
L 162.377744 180.369539 
L 163.685479 176.59524 
L 164.993213 172.050429 
L 167.608682 161.342653 
L 168.916417 155.830854 
L 170.224151 150.804062 
L 171.531886 146.742804 
L 172.83962 144.071001 
L 174.147355 143.083298 
L 175.455089 143.891588 
L 176.762824 146.404131 
L 178.070558 150.342638 
L 179.378293 155.292895 
L 183.301496 171.540358 
L 184.609231 176.141256 
L 185.916965 179.964421 
L 187.2247 182.956749 
L 188.532434 185.144187 
L 189.840169 186.594608 
L 191.147903 187.382034 
L 192.455638 187.558407 
L 193.763372 187.136636 
L 195.071107 186.08663 
L 196.378841 184.344675 
L 197.686576 181.835292 
L 198.99431 178.50313 
L 200.302045 174.350196 
L 201.609779 169.471177 
L 205.532983 153.17742 
L 206.840717 148.583435 
L 208.148452 145.182412 
L 209.456186 143.340968 
L 210.763921 143.265745 
L 212.071655 144.965328 
L 213.37939 148.248665 
L 214.687124 152.760424 
L 219.918062 173.989162 
L 221.225797 178.230413 
L 222.533531 181.676915 
L 223.841266 184.338164 
L 225.149 186.295473 
L 226.456735 187.669101 
L 227.764469 188.590186 
L 229.072204 189.180934 
L 230.379938 189.543623 
L 232.995408 189.8771 
L 236.918611 189.991362 
L 243.457284 189.932998 
L 246.072753 189.714201 
L 247.380487 189.454962 
L 248.688222 189.002981 
L 249.995956 188.244994 
L 251.303691 187.02226 
L 252.611425 185.125042 
L 253.91916 182.293819 
L 255.226894 178.230997 
L 256.534629 172.62627 
L 257.842363 165.196666 
L 259.150098 155.739008 
L 260.457832 144.188339 
L 261.765567 130.67186 
L 264.381036 99.399866 
L 266.996505 67.350426 
L 268.304239 53.306018 
L 269.611974 41.723857 
L 270.919708 33.197133 
L 272.227443 27.983525 
L 273.535177 25.952511 
L 274.842912 26.592795 
L 276.150646 29.082721 
L 278.766115 35.560838 
L 280.07385 37.63775 
L 281.381584 38.067137 
L 282.689319 36.674973 
L 283.997053 33.72084 
L 286.612522 25.903229 
L 287.920257 22.825993 
L 289.227991 21.362637 
L 290.535726 21.945273 
L 291.84346 24.606504 
L 293.151195 29.009838 
L 294.458929 34.578772 
L 300.997602 65.010545 
L 302.305336 72.020085 
L 303.613071 80.221539 
L 304.920805 89.832585 
L 306.22854 100.787889 
L 311.459478 148.667628 
L 312.767212 158.722027 
L 314.074947 167.185618 
L 315.382681 173.969652 
L 316.690416 179.154414 
L 317.998151 182.936947 
L 319.305885 185.573808 
L 320.61362 187.331799 
L 321.921354 188.453535 
L 323.229089 189.138992 
L 323.229089 189.138992 
" clip-path="url(#p2f2f605c52)" style="fill: none; stroke: #1f77b4; stroke-width: 1.5; stroke-linecap: square"/>
   </g>
   <g id="line2d_12">
    <path d="M 62.989921 189.530873 
L 64.297656 189.143737 
L 65.605391 188.499077 
L 66.913125 187.469046 
L 68.22086 185.89065 
L 69.528594 183.572389 
L 70.836329 180.311447 
L 72.144063 175.923099 
L 73.451798 170.281232 
L 74.759532 163.36508 
L 76.067267 155.303227 
L 81.298205 120.263457 
L 82.605939 114.063309 
L 83.913674 110.200779 
L 85.221408 109.066425 
L 86.529143 110.774494 
L 87.836877 115.143118 
L 89.144612 121.724164 
L 90.452346 129.875199 
L 94.37555 156.453383 
L 95.683284 163.912715 
L 96.991019 169.963295 
L 98.298753 174.408113 
L 99.606488 177.171277 
L 100.914222 178.264978 
L 102.221957 177.764446 
L 103.529691 175.798033 
L 104.837426 172.552606 
L 106.14516 168.287912 
L 110.068364 153.22846 
L 111.376098 149.043692 
L 112.683833 146.068615 
L 113.991567 144.64429 
L 115.299302 144.940612 
L 116.607036 146.928731 
L 117.914771 150.388807 
L 119.222505 154.951767 
L 124.453443 175.407126 
L 125.761178 179.358576 
L 127.068912 182.535014 
L 128.376647 184.962696 
L 129.684381 186.730722 
L 130.992116 187.959733 
L 132.29985 188.776215 
L 133.607585 189.295125 
L 134.915319 189.610869 
L 137.530788 189.897761 
L 141.453992 189.994917 
L 149.300399 189.964739 
L 151.915868 189.836591 
L 153.223603 189.683929 
L 154.531337 189.417718 
L 155.839072 188.972902 
L 157.146806 188.261123 
L 158.454541 187.171175 
L 159.762275 185.575411 
L 161.07001 183.344244 
L 162.377744 180.369539 
L 163.685479 176.59524 
L 164.993213 172.050429 
L 167.608682 161.342653 
L 168.916417 155.830854 
L 170.224151 150.804062 
L 171.531886 146.742804 
L 172.83962 144.071001 
L 174.147355 143.083298 
L 175.455089 143.891588 
L 176.762824 146.404131 
L 178.070558 150.342638 
L 179.378293 155.292895 
L 183.301496 171.540358 
L 184.609231 176.141256 
L 185.916965 179.964421 
L 187.2247 182.956749 
L 188.532434 185.144187 
L 189.840169 186.594608 
L 191.147903 187.382034 
L 192.455638 187.558407 
L 193.763372 187.136636 
L 195.071107 186.08663 
L 196.378841 184.344675 
L 197.686576 181.835292 
L 198.99431 178.50313 
L 200.302045 174.350196 
L 201.609779 169.471177 
L 205.532983 153.17742 
L 206.840717 148.583435 
L 208.148452 145.182412 
L 209.456186 143.340968 
L 210.763921 143.265745 
L 212.071655 144.965328 
L 213.37939 148.248665 
L 214.687124 152.760424 
L 219.918062 173.989162 
L 221.225797 178.230413 
L 222.533531 181.676915 
L 223.841266 184.338164 
L 225.149 186.295473 
L 226.456735 187.669101 
L 227.764469 188.590186 
L 229.072204 189.180934 
L 230.379938 189.543623 
L 232.995408 189.8771 
L 236.918611 189.991362 
L 243.457284 189.932998 
L 246.072753 189.714201 
L 247.380487 189.454962 
L 248.688222 189.002981 
L 249.995956 188.244994 
L 251.303691 187.02226 
L 252.611425 185.125042 
L 253.91916 182.293819 
L 255.226894 178.230997 
L 256.534629 172.62627 
L 257.842363 165.196666 
L 259.150098 155.739008 
L 260.457832 144.188339 
L 261.765567 130.67186 
L 264.381036 99.399866 
L 266.996505 67.350426 
L 268.304239 53.306018 
L 269.611974 41.723857 
L 270.919708 33.197133 
L 272.227443 27.983525 
L 273.535177 25.952511 
L 274.842912 26.592795 
L 276.150646 29.082721 
L 278.766115 35.560838 
L 280.07385 37.63775 
L 281.381584 38.067137 
L 282.689319 36.674973 
L 283.997053 33.72084 
L 286.612522 25.903229 
L 287.920257 22.825993 
L 289.227991 21.362637 
L 290.535726 21.945273 
L 291.84346 24.606504 
L 293.151195 29.009838 
L 294.458929 34.578772 
L 300.997602 65.010545 
L 302.305336 72.020085 
L 303.613071 80.221539 
L 304.920805 89.832585 
L 306.22854 100.787889 
L 311.459478 148.667628 
L 312.767212 158.722027 
L 314.074947 167.185618 
L 315.382681 173.969652 
L 316.690416 179.154414 
L 317.998151 182.936947 
L 319.305885 185.573808 
L 320.61362 187.331799 
L 321.921354 188.453535 
L 323.229089 189.138992 
L 323.229089 189.138992 
" clip-path="url(#p2f2f605c52)" style="fill: none; stroke: #ff7f0e; stroke-width: 1.5; stroke-linecap: square"/>
   </g>
   <g id="line2d_13">
    <defs>
     <path id="m4e98666a49" d="M -3 3 
L 3 -3 
M -3 -3 
L 3 3 
" style="stroke: #2ca02c"/>
    </defs>
    <g clip-path="url(#p2f2f605c52)">
     <use xlink:href="#m4e98666a49" x="85.221408" y="109.066425" style="fill: #2ca02c; stroke: #2ca02c"/>
     <use xlink:href="#m4e98666a49" x="113.991567" y="144.64429" style="fill: #2ca02c; stroke: #2ca02c"/>
     <use xlink:href="#m4e98666a49" x="174.147355" y="143.083298" style="fill: #2ca02c; stroke: #2ca02c"/>
     <use xlink:href="#m4e98666a49" x="210.763921" y="143.265745" style="fill: #2ca02c; stroke: #2ca02c"/>
     <use xlink:href="#m4e98666a49" x="273.535177" y="25.952511" style="fill: #2ca02c; stroke: #2ca02c"/>
     <use xlink:href="#m4e98666a49" x="289.227991" y="21.362637" style="fill: #2ca02c; stroke: #2ca02c"/>
    </g>
   </g>
   <g id="LineCollection_1">
    <path d="M 77.375001 149.298649 
L 93.067815 149.298649 
" clip-path="url(#p2f2f605c52)" style="fill: none; stroke: #2ca02c; stroke-width: 1.5"/>
    <path d="M 107.452895 161.454634 
L 120.53024 161.454634 
" clip-path="url(#p2f2f605c52)" style="fill: none; stroke: #2ca02c; stroke-width: 1.5"/>
    <path d="M 166.300948 166.54044 
L 181.993762 166.54044 
" clip-path="url(#p2f2f605c52)" style="fill: none; stroke: #2ca02c; stroke-width: 1.5"/>
    <path d="M 202.917514 165.412076 
L 217.302593 165.412076 
" clip-path="url(#p2f2f605c52)" style="fill: none; stroke: #2ca02c; stroke-width: 1.5"/>
    <path d="M 270.919708 32.009824 
L 277.458381 32.009824 
" clip-path="url(#p2f2f605c52)" style="fill: none; stroke: #2ca02c; stroke-width: 1.5"/>
    <path d="M 264.381036 105.250815 
L 306.22854 105.250815 
" clip-path="url(#p2f2f605c52)" style="fill: none; stroke: #2ca02c; stroke-width: 1.5"/>
   </g>
   <g id="patch_3">
    <path d="M 49.977963 190.007009 
L 49.977963 12.930611 
" style="fill: none; stroke: #000000; stroke-width: 0.8; stroke-linejoin: miter; stroke-linecap: square"/>
   </g>
   <g id="patch_4">
    <path d="M 336.241047 190.007009 
L 336.241047 12.930611 
" style="fill: none; stroke: #000000; stroke-width: 0.8; stroke-linejoin: miter; stroke-linecap: square"/>
   </g>
   <g id="patch_5">
    <path d="M 49.977963 190.007009 
L 336.241047 190.007009 
" style="fill: none; stroke: #000000; stroke-width: 0.8; stroke-linejoin: miter; stroke-linecap: square"/>
   </g>
   <g id="patch_6">
    <path d="M 49.977963 12.930611 
L 336.241047 12.930611 
" style="fill: none; stroke: #000000; stroke-width: 0.8; stroke-linejoin: miter; stroke-linecap: square"/>
   </g>
   <g id="text_13">
    <!-- $\mathrm{^3H\text{-}p}$ -->
    <g transform="translate(90.221408 105.066425) scale(0.12 -0.12)">
     <defs>
      <path id="CMR17-48" d="M 3590 3905 
C 3590 4192 3661 4192 4102 4192 
L 4102 4352 
C 3917 4352 3578 4352 3379 4352 
C 3181 4352 2842 4352 2656 4352 
L 2656 4192 
C 3098 4192 3168 4192 3168 3904 
L 3168 2341 
L 1261 2341 
L 1261 3904 
C 1261 4192 1331 4192 1773 4192 
L 1773 4352 
C 1587 4352 1248 4352 1050 4352 
C 851 4352 512 4352 326 4352 
L 326 4192 
C 768 4192 838 4192 838 3905 
L 838 447 
C 838 160 768 160 326 160 
L 326 0 
C 512 0 851 0 1050 0 
C 1248 0 1587 0 1773 0 
L 1773 160 
C 1331 160 1261 160 1261 446 
L 1261 2176 
L 3168 2176 
L 3168 446 
C 3168 160 3098 160 2656 160 
L 2656 0 
C 2842 0 3181 0 3379 0 
C 3578 0 3917 0 4102 0 
L 4102 160 
C 3661 160 3590 160 3590 447 
L 3590 3905 
z
" transform="scale(0.015625)"/>
      <path id="NimbusSanL-Regu-2d" d="M 1818 1997 
L 294 1997 
L 294 1536 
L 1818 1536 
L 1818 1997 
z
" transform="scale(0.015625)"/>
      <path id="CMR17-70" d="M 1408 -1063 
C 998 -1063 973 -1037 973 -789 
L 973 402 
C 1158 134 1427 -38 1766 -38 
C 2406 -38 3053 523 3053 1388 
C 3053 2191 2496 2802 1837 2802 
C 1453 2802 1139 2592 960 2338 
L 960 2802 
L 198 2732 
L 198 2567 
C 576 2567 634 2528 634 2223 
L 634 -789 
C 634 -1031 608 -1063 198 -1063 
L 198 -1228 
C 352 -1216 634 -1216 800 -1216 
C 966 -1216 1254 -1216 1408 -1228 
L 1408 -1063 
z
M 973 2012 
C 973 2102 973 2235 1222 2471 
C 1254 2497 1472 2688 1792 2688 
C 2259 2688 2643 2108 2643 1382 
C 2643 656 2234 64 1728 64 
C 1498 64 1248 172 1056 472 
C 973 612 973 650 973 752 
L 973 2012 
z
" transform="scale(0.015625)"/>
     </defs>
     <use xlink:href="#CMR17-33" transform="translate(0 36.153639) scale(0.697382)"/>
     <use xlink:href="#CMR17-48" transform="translate(32.481314 0) scale(0.996264)"/>
     <use xlink:href="#NimbusSanL-Regu-2d" transform="translate(101.553744 0) scale(0.996264)"/>
     <use xlink:href="#CMR17-70" transform="translate(134.728974 0) scale(0.996264)"/>
    </g>
   </g>
   <g id="text_14">
    <!-- $\mathrm{^3He\text{-}n}$ -->
    <g transform="translate(118.991567 140.64429) scale(0.12 -0.12)">
     <use xlink:href="#CMR17-33" transform="translate(0 36.153639) scale(0.697382)"/>
     <use xlink:href="#CMR17-48" transform="translate(32.481314 0) scale(0.996264)"/>
     <use xlink:href="#CMR17-65" transform="translate(101.553744 0) scale(0.996264)"/>
     <use xlink:href="#NimbusSanL-Regu-2d" transform="translate(142.039404 0) scale(0.996264)"/>
     <use xlink:href="#CMR17-6e" transform="translate(175.214634 0) scale(0.996264)"/>
    </g>
   </g>
   <g id="text_15">
    <!-- $\mathrm{D\text{-}D}$ -->
    <g transform="translate(179.147355 139.083298) scale(0.12 -0.12)">
     <defs>
      <path id="CMR17-44" d="M 333 4352 
L 333 4186 
C 774 4186 845 4186 845 3900 
L 845 452 
C 845 166 774 166 333 166 
L 333 0 
L 2368 0 
C 3398 0 4224 943 4224 2141 
C 4224 3346 3411 4352 2368 4352 
L 333 4352 
z
M 1523 166 
C 1267 166 1254 197 1254 414 
L 1254 3938 
C 1254 4155 1267 4186 1523 4186 
L 2240 4186 
C 2771 4186 3750 3874 3750 2141 
C 3750 1242 3488 879 3366 707 
C 3213 510 2848 166 2240 166 
L 1523 166 
z
" transform="scale(0.015625)"/>
     </defs>
     <use xlink:href="#CMR17-44" transform="scale(0.996264)"/>
     <use xlink:href="#NimbusSanL-Regu-2d" transform="translate(70.393556 0) scale(0.996264)"/>
     <use xlink:href="#CMR17-44" transform="translate(103.568786 0) scale(0.996264)"/>
    </g>
   </g>
   <g id="text_16">
    <!-- $\mathrm{D\text{-}np}$ -->
    <g transform="translate(215.763921 139.265745) scale(0.12 -0.12)">
     <use xlink:href="#CMR17-44" transform="scale(0.996264)"/>
     <use xlink:href="#NimbusSanL-Regu-2d" transform="translate(70.393556 0) scale(0.996264)"/>
     <use xlink:href="#CMR17-6e" transform="translate(103.568786 0) scale(0.996264)"/>
     <use xlink:href="#CMR17-70" transform="translate(154.464155 0) scale(0.996264)"/>
    </g>
   </g>
   <g id="text_17">
    <!-- $\mathrm{2n2p}$ -->
    <g transform="translate(278.535177 21.952511) scale(0.12 -0.12)">
     <use xlink:href="#CMR17-32" transform="scale(0.996264)"/>
     <use xlink:href="#CMR17-6e" transform="translate(45.690477 0) scale(0.996264)"/>
     <use xlink:href="#CMR17-32" transform="translate(96.585847 0) scale(0.996264)"/>
     <use xlink:href="#CMR17-70" transform="translate(142.276324 0) scale(0.996264)"/>
    </g>
   </g>
  </g>
 </g>
 <defs>
  <clipPath id="p2f2f605c52">
   <rect x="49.977963" y="12.930611" width="286.263084" height="177.076398"/>
  </clipPath>
 </defs>
</svg>
