<?xml version="1.0" encoding="utf-8" standalone="no"?>
<!DOCTYPE svg PUBLIC "-//W3C//DTD SVG 1.1//EN"
  "http://www.w3.org/Graphics/SVG/1.1/DTD/svg11.dtd">
<svg xmlns:xlink="http://www.w3.org/1999/xlink" width="463.68pt" height="174.96pt" viewBox="0 0 463.68 174.96" xmlns="http://www.w3.org/2000/svg" version="1.1">
 <metadata>
  <rdf:RDF xmlns:dc="http://purl.org/dc/elements/1.1/" xmlns:cc="http://creativecommons.org/ns#" xmlns:rdf="http://www.w3.org/1999/02/22-rdf-syntax-ns#">
   <cc:Work>
    <dc:type rdf:resource="http://purl.org/dc/dcmitype/StillImage"/>
    <dc:date>2024-09-16T15:35:54.154009</dc:date>
    <dc:format>image/svg+xml</dc:format>
    <dc:creator>
     <cc:Agent>
      <dc:title>Matplotlib v3.8.0, https://matplotlib.org/</dc:title>
     </cc:Agent>
    </dc:creator>
   </cc:Work>
  </rdf:RDF>
 </metadata>
 <defs>
  <style type="text/css">*{stroke-linejoin: round; stroke-linecap: butt}</style>
 </defs>
 <g id="figure_1">
  <g id="patch_1">
   <path d="M 0 174.96 
L 463.68 174.96 
L 463.68 0 
L 0 0 
z
" style="fill: #ffffff"/>
  </g>
  <g id="axes_1">
   <g id="patch_2">
    <path d="M 60.2784 148.716 
L 222.5664 148.716 
L 222.5664 20.9952 
L 60.2784 20.9952 
z
" style="fill: #ffffff"/>
   </g>
   <g id="PathCollection_1">
    <defs>
     <path id="m918ea1fd0e" d="M -2.738613 0 
L 2.738613 0 
M 0 2.738613 
L 0 -2.738613 
" style="stroke: #1f77b4"/>
    </defs>
    <g clip-path="url(#pc7c38ccdc7)">
     <use xlink:href="#m918ea1fd0e" x="66.854261" y="42.273521" style="fill: #1f77b4; stroke: #1f77b4"/>
     <use xlink:href="#m918ea1fd0e" x="145.834616" y="42.70895" style="fill: #1f77b4; stroke: #1f77b4"/>
     <use xlink:href="#m918ea1fd0e" x="177.57922" y="44.33888" style="fill: #1f77b4; stroke: #1f77b4"/>
     <use xlink:href="#m918ea1fd0e" x="183.715799" y="43.912111" style="fill: #1f77b4; stroke: #1f77b4"/>
     <use xlink:href="#m918ea1fd0e" x="185.258619" y="44.304863" style="fill: #1f77b4; stroke: #1f77b4"/>
     <use xlink:href="#m918ea1fd0e" x="202.05197" y="44.183507" style="fill: #1f77b4; stroke: #1f77b4"/>
     <use xlink:href="#m918ea1fd0e" x="203.6495" y="44.6603" style="fill: #1f77b4; stroke: #1f77b4"/>
    </g>
   </g>
   <g id="PathCollection_2">
    <defs>
     <path id="m00305d72fd" d="M -2.738613 0 
L 2.738613 0 
M 0 2.738613 
L 0 -2.738613 
" style="stroke: #ff7f0e"/>
    </defs>
    <g clip-path="url(#pc7c38ccdc7)">
     <use xlink:href="#m00305d72fd" x="66.894192" y="42.26611" style="fill: #ff7f0e; stroke: #ff7f0e"/>
     <use xlink:href="#m00305d72fd" x="146.728454" y="42.819996" style="fill: #ff7f0e; stroke: #ff7f0e"/>
     <use xlink:href="#m00305d72fd" x="181.520291" y="44.48744" style="fill: #ff7f0e; stroke: #ff7f0e"/>
     <use xlink:href="#m00305d72fd" x="186.668308" y="43.904161" style="fill: #ff7f0e; stroke: #ff7f0e"/>
     <use xlink:href="#m00305d72fd" x="189.871643" y="45.068687" style="fill: #ff7f0e; stroke: #ff7f0e"/>
     <use xlink:href="#m00305d72fd" x="205.974186" y="44.405518" style="fill: #ff7f0e; stroke: #ff7f0e"/>
     <use xlink:href="#m00305d72fd" x="208.702918" y="45.032159" style="fill: #ff7f0e; stroke: #ff7f0e"/>
    </g>
   </g>
   <g id="PathCollection_3">
    <defs>
     <path id="m671166169f" d="M -2.738613 0 
L 2.738613 0 
M 0 2.738613 
L 0 -2.738613 
" style="stroke: #2ca02c"/>
    </defs>
    <g clip-path="url(#pc7c38ccdc7)">
     <use xlink:href="#m671166169f" x="66.827503" y="42.279075" style="fill: #2ca02c; stroke: #2ca02c"/>
     <use xlink:href="#m671166169f" x="147.730435" y="42.954204" style="fill: #2ca02c; stroke: #2ca02c"/>
     <use xlink:href="#m671166169f" x="185.334447" y="44.625655" style="fill: #2ca02c; stroke: #2ca02c"/>
     <use xlink:href="#m671166169f" x="189.558122" y="44.081522" style="fill: #2ca02c; stroke: #2ca02c"/>
     <use xlink:href="#m671166169f" x="195.263569" y="45.680342" style="fill: #2ca02c; stroke: #2ca02c"/>
     <use xlink:href="#m671166169f" x="209.944855" y="44.635501" style="fill: #2ca02c; stroke: #2ca02c"/>
     <use xlink:href="#m671166169f" x="213.973939" y="45.424176" style="fill: #2ca02c; stroke: #2ca02c"/>
    </g>
   </g>
   <g id="PathCollection_4">
    <defs>
     <path id="mc64ee69043" d="M -2.738613 0 
L 2.738613 0 
M 0 2.738613 
L 0 -2.738613 
" style="stroke: #d62728"/>
    </defs>
    <g clip-path="url(#pc7c38ccdc7)">
     <use xlink:href="#mc64ee69043" x="66.771106" y="42.293135" style="fill: #d62728; stroke: #d62728"/>
     <use xlink:href="#mc64ee69043" x="148.887324" y="43.103841" style="fill: #d62728; stroke: #d62728"/>
     <use xlink:href="#mc64ee69043" x="189.086936" y="44.73392" style="fill: #d62728; stroke: #d62728"/>
     <use xlink:href="#mc64ee69043" x="192.567811" y="44.341509" style="fill: #d62728; stroke: #d62728"/>
     <use xlink:href="#mc64ee69043" x="201.196622" y="46.253042" style="fill: #d62728; stroke: #d62728"/>
     <use xlink:href="#mc64ee69043" x="213.994645" y="44.865398" style="fill: #d62728; stroke: #d62728"/>
     <use xlink:href="#mc64ee69043" x="219.482241" y="45.835629" style="fill: #d62728; stroke: #d62728"/>
    </g>
   </g>
   <g id="matplotlib.axis_1">
    <g id="xtick_1">
     <g id="line2d_1">
      <defs>
       <path id="md11f044a79" d="M 0 0 
L 0 3.5 
" style="stroke: #000000; stroke-width: 0.8"/>
      </defs>
      <g>
       <use xlink:href="#md11f044a79" x="90.835118" y="148.716" style="stroke: #000000; stroke-width: 0.8"/>
      </g>
     </g>
     <g id="text_1">
      <!-- $\mathdefault{−20}$ -->
      <g transform="translate(81.093846 163.524152) scale(0.11 -0.11)">
       <defs>
        <path id="CMSY10-0" d="M 4218 1472 
C 4326 1472 4442 1472 4442 1600 
C 4442 1728 4326 1728 4218 1728 
L 755 1728 
C 646 1728 531 1728 531 1600 
C 531 1472 646 1472 755 1472 
L 4218 1472 
z
" transform="scale(0.015625)"/>
        <path id="CMR17-32" d="M 2669 989 
L 2554 989 
C 2490 536 2438 459 2413 420 
C 2381 369 1920 369 1830 369 
L 602 369 
C 832 619 1280 1072 1824 1597 
C 2214 1967 2669 2402 2669 3035 
C 2669 3790 2067 4224 1395 4224 
C 691 4224 262 3604 262 3030 
C 262 2780 448 2748 525 2748 
C 589 2748 781 2787 781 3010 
C 781 3207 614 3264 525 3264 
C 486 3264 448 3258 422 3245 
C 544 3790 915 4058 1306 4058 
C 1862 4058 2227 3617 2227 3035 
C 2227 2479 1901 2000 1536 1584 
L 262 146 
L 262 0 
L 2515 0 
L 2669 989 
z
" transform="scale(0.015625)"/>
        <path id="CMR17-30" d="M 2688 2025 
C 2688 2416 2682 3080 2413 3591 
C 2176 4039 1798 4198 1466 4198 
C 1158 4198 768 4058 525 3597 
C 269 3118 243 2524 243 2025 
C 243 1661 250 1106 448 619 
C 723 -39 1216 -128 1466 -128 
C 1760 -128 2208 -7 2470 600 
C 2662 1042 2688 1559 2688 2025 
z
M 1466 -26 
C 1056 -26 813 325 723 812 
C 653 1188 653 1738 653 2096 
C 653 2588 653 2997 736 3387 
C 858 3929 1216 4096 1466 4096 
C 1728 4096 2067 3923 2189 3400 
C 2272 3036 2278 2607 2278 2096 
C 2278 1680 2278 1169 2202 792 
C 2067 95 1690 -26 1466 -26 
z
" transform="scale(0.015625)"/>
       </defs>
       <use xlink:href="#CMSY10-0" transform="scale(0.996264)"/>
       <use xlink:href="#CMR17-32" transform="translate(77.487468 0) scale(0.996264)"/>
       <use xlink:href="#CMR17-30" transform="translate(123.177945 0) scale(0.996264)"/>
      </g>
     </g>
    </g>
    <g id="xtick_2">
     <g id="line2d_2">
      <g>
       <use xlink:href="#md11f044a79" x="132.001143" y="148.716" style="stroke: #000000; stroke-width: 0.8"/>
      </g>
     </g>
     <g id="text_2">
      <!-- $\mathdefault{−10}$ -->
      <g transform="translate(122.259872 163.524152) scale(0.11 -0.11)">
       <defs>
        <path id="CMR17-31" d="M 1702 4058 
C 1702 4192 1696 4192 1606 4192 
C 1357 3916 979 3827 621 3827 
C 602 3827 570 3827 563 3808 
C 557 3795 557 3782 557 3648 
C 755 3648 1088 3686 1344 3839 
L 1344 461 
C 1344 236 1331 160 781 160 
L 589 160 
L 589 0 
C 896 0 1216 0 1523 0 
C 1830 0 2150 0 2458 0 
L 2458 160 
L 2266 160 
C 1715 160 1702 230 1702 458 
L 1702 4058 
z
" transform="scale(0.015625)"/>
       </defs>
       <use xlink:href="#CMSY10-0" transform="scale(0.996264)"/>
       <use xlink:href="#CMR17-31" transform="translate(77.487468 0) scale(0.996264)"/>
       <use xlink:href="#CMR17-30" transform="translate(123.177945 0) scale(0.996264)"/>
      </g>
     </g>
    </g>
    <g id="xtick_3">
     <g id="line2d_3">
      <g>
       <use xlink:href="#md11f044a79" x="173.167169" y="148.716" style="stroke: #000000; stroke-width: 0.8"/>
      </g>
     </g>
     <g id="text_3">
      <!-- $\mathdefault{0}$ -->
      <g transform="translate(170.427435 163.524152) scale(0.11 -0.11)">
       <use xlink:href="#CMR17-30" transform="scale(0.996264)"/>
      </g>
     </g>
    </g>
    <g id="xtick_4">
     <g id="line2d_4">
      <g>
       <use xlink:href="#md11f044a79" x="214.333195" y="148.716" style="stroke: #000000; stroke-width: 0.8"/>
      </g>
     </g>
     <g id="text_4">
      <!-- $\mathdefault{10}$ -->
      <g transform="translate(208.853728 163.524152) scale(0.11 -0.11)">
       <use xlink:href="#CMR17-31" transform="scale(0.996264)"/>
       <use xlink:href="#CMR17-30" transform="translate(45.690477 0) scale(0.996264)"/>
      </g>
     </g>
    </g>
   </g>
   <g id="matplotlib.axis_2">
    <g id="ytick_1">
     <g id="line2d_5">
      <defs>
       <path id="mb201574d9e" d="M 0 0 
L -3.5 0 
" style="stroke: #000000; stroke-width: 0.8"/>
      </defs>
      <g>
       <use xlink:href="#mb201574d9e" x="60.2784" y="148.716" style="stroke: #000000; stroke-width: 0.8"/>
      </g>
     </g>
     <g id="text_5">
      <!-- $\mathdefault{−10.0}$ -->
      <g transform="translate(25.272248 152.620076) scale(0.11 -0.11)">
       <defs>
        <path id="CMMI12-3a" d="M 1178 307 
C 1178 492 1024 619 870 619 
C 685 619 557 466 557 313 
C 557 128 710 0 864 0 
C 1050 0 1178 153 1178 307 
z
" transform="scale(0.015625)"/>
       </defs>
       <use xlink:href="#CMSY10-0" transform="scale(0.996264)"/>
       <use xlink:href="#CMR17-31" transform="translate(77.487468 0) scale(0.996264)"/>
       <use xlink:href="#CMR17-30" transform="translate(123.177945 0) scale(0.996264)"/>
       <use xlink:href="#CMMI12-3a" transform="translate(168.868422 0) scale(0.996264)"/>
       <use xlink:href="#CMR17-30" transform="translate(195.965599 0) scale(0.996264)"/>
      </g>
     </g>
    </g>
    <g id="ytick_2">
     <g id="line2d_6">
      <g>
       <use xlink:href="#mb201574d9e" x="60.2784" y="122.1075" style="stroke: #000000; stroke-width: 0.8"/>
      </g>
     </g>
     <g id="text_6">
      <!-- $\mathdefault{−7.5}$ -->
      <g transform="translate(30.751715 126.011576) scale(0.11 -0.11)">
       <defs>
        <path id="CMR17-37" d="M 2886 3941 
L 2886 4081 
L 1382 4081 
C 634 4081 621 4165 595 4288 
L 480 4288 
L 294 3094 
L 410 3094 
C 429 3215 474 3540 550 3661 
C 589 3712 1062 3712 1171 3712 
L 2579 3712 
L 1869 2661 
C 1395 1954 1069 999 1069 165 
C 1069 89 1069 -128 1299 -128 
C 1530 -128 1530 89 1530 171 
L 1530 465 
C 1530 1508 1709 2196 2003 2636 
L 2886 3941 
z
" transform="scale(0.015625)"/>
        <path id="CMR17-35" d="M 730 3692 
C 794 3666 1056 3584 1325 3584 
C 1920 3584 2246 3911 2432 4100 
C 2432 4157 2432 4192 2394 4192 
C 2387 4192 2374 4192 2323 4163 
C 2099 4058 1837 3973 1517 3973 
C 1325 3973 1037 3999 723 4139 
C 653 4171 640 4171 634 4171 
C 602 4171 595 4164 595 4037 
L 595 2203 
C 595 2089 595 2057 659 2057 
C 691 2057 704 2070 736 2114 
C 941 2401 1222 2522 1542 2522 
C 1766 2522 2246 2382 2246 1289 
C 2246 1085 2246 715 2054 421 
C 1894 159 1645 25 1370 25 
C 947 25 518 320 403 814 
C 429 807 480 795 506 795 
C 589 795 749 840 749 1038 
C 749 1210 627 1280 506 1280 
C 358 1280 262 1190 262 1011 
C 262 454 704 -128 1382 -128 
C 2042 -128 2669 440 2669 1264 
C 2669 2030 2170 2624 1549 2624 
C 1222 2624 947 2503 730 2274 
L 730 3692 
z
" transform="scale(0.015625)"/>
       </defs>
       <use xlink:href="#CMSY10-0" transform="scale(0.996264)"/>
       <use xlink:href="#CMR17-37" transform="translate(77.487468 0) scale(0.996264)"/>
       <use xlink:href="#CMMI12-3a" transform="translate(123.177945 0) scale(0.996264)"/>
       <use xlink:href="#CMR17-35" transform="translate(150.275122 0) scale(0.996264)"/>
      </g>
     </g>
    </g>
    <g id="ytick_3">
     <g id="line2d_7">
      <g>
       <use xlink:href="#mb201574d9e" x="60.2784" y="95.499" style="stroke: #000000; stroke-width: 0.8"/>
      </g>
     </g>
     <g id="text_7">
      <!-- $\mathdefault{−5.0}$ -->
      <g transform="translate(30.751715 99.403076) scale(0.11 -0.11)">
       <use xlink:href="#CMSY10-0" transform="scale(0.996264)"/>
       <use xlink:href="#CMR17-35" transform="translate(77.487468 0) scale(0.996264)"/>
       <use xlink:href="#CMMI12-3a" transform="translate(123.177945 0) scale(0.996264)"/>
       <use xlink:href="#CMR17-30" transform="translate(150.275122 0) scale(0.996264)"/>
      </g>
     </g>
    </g>
    <g id="ytick_4">
     <g id="line2d_8">
      <g>
       <use xlink:href="#mb201574d9e" x="60.2784" y="68.8905" style="stroke: #000000; stroke-width: 0.8"/>
      </g>
     </g>
     <g id="text_8">
      <!-- $\mathdefault{−2.5}$ -->
      <g transform="translate(30.751715 72.794576) scale(0.11 -0.11)">
       <use xlink:href="#CMSY10-0" transform="scale(0.996264)"/>
       <use xlink:href="#CMR17-32" transform="translate(77.487468 0) scale(0.996264)"/>
       <use xlink:href="#CMMI12-3a" transform="translate(123.177945 0) scale(0.996264)"/>
       <use xlink:href="#CMR17-35" transform="translate(150.275122 0) scale(0.996264)"/>
      </g>
     </g>
    </g>
    <g id="ytick_5">
     <g id="line2d_9">
      <g>
       <use xlink:href="#mb201574d9e" x="60.2784" y="42.282" style="stroke: #000000; stroke-width: 0.8"/>
      </g>
     </g>
     <g id="text_9">
      <!-- $\mathdefault{0.0}$ -->
      <g transform="translate(39.275324 46.186076) scale(0.11 -0.11)">
       <use xlink:href="#CMR17-30" transform="scale(0.996264)"/>
       <use xlink:href="#CMMI12-3a" transform="translate(45.690477 0) scale(0.996264)"/>
       <use xlink:href="#CMR17-30" transform="translate(72.787654 0) scale(0.996264)"/>
      </g>
     </g>
    </g>
   </g>
   <g id="line2d_10">
    <path d="M 110.100818 42.282 
L 114.322974 42.500355 
L 118.545131 42.718711 
L 122.767287 42.937066 
L 126.989444 43.155421 
L 131.2116 43.373776 
L 135.433757 43.592132 
L 139.655913 43.810487 
L 143.87807 44.028842 
L 148.100226 44.247197 
L 152.322383 44.465553 
L 156.544539 44.683908 
L 160.766695 44.902263 
L 164.988852 45.120618 
L 169.211008 45.338974 
L 173.433165 45.557329 
L 177.655321 45.775684 
L 181.877478 45.99404 
L 186.099634 46.212395 
L 190.321791 46.43075 
L 194.543947 46.649105 
L 198.766104 46.867461 
L 202.98826 47.085816 
L 207.210417 47.304171 
L 211.432573 47.522526 
L 215.65473 47.740882 
L 219.876886 47.959237 
L 224.099043 48.177592 
L 228.321199 48.395948 
L 232.543356 48.614303 
L 236.765512 48.832658 
L 240.987669 49.051013 
L 245.209825 49.269369 
L 249.431982 49.487724 
L 253.654138 49.706079 
L 257.876295 49.924434 
L 262.098451 50.14279 
L 266.320608 50.361145 
L 270.542764 50.5795 
L 274.764921 50.797855 
" clip-path="url(#pc7c38ccdc7)" style="fill: none; stroke-dasharray: 1.85,0.8; stroke-dashoffset: 0; stroke: #000000; stroke-width: 0.5"/>
   </g>
   <g id="line2d_11">
    <path d="M 112.776609 42.282 
L 116.998766 42.500355 
L 121.220922 42.718711 
L 125.443079 42.937066 
L 129.665235 43.155421 
L 133.887392 43.373776 
L 138.109548 43.592132 
L 142.331705 43.810487 
L 146.553861 44.028842 
L 150.776018 44.247197 
L 154.998174 44.465553 
L 159.220331 44.683908 
L 163.442487 44.902263 
L 167.664644 45.120618 
L 171.8868 45.338974 
L 176.108957 45.557329 
L 180.331113 45.775684 
L 184.55327 45.99404 
L 188.775426 46.212395 
L 192.997583 46.43075 
L 197.219739 46.649105 
L 201.441896 46.867461 
L 205.664052 47.085816 
L 209.886209 47.304171 
L 214.108365 47.522526 
L 218.330522 47.740882 
L 222.552678 47.959237 
L 226.774834 48.177592 
L 230.996991 48.395948 
L 235.219147 48.614303 
L 239.441304 48.832658 
L 243.66346 49.051013 
L 247.885617 49.269369 
L 252.107773 49.487724 
L 256.32993 49.706079 
L 260.552086 49.924434 
L 264.774243 50.14279 
L 268.996399 50.361145 
L 273.218556 50.5795 
L 277.440712 50.797855 
" clip-path="url(#pc7c38ccdc7)" style="fill: none; stroke-dasharray: 1.85,0.8; stroke-dashoffset: 0; stroke: #000000; stroke-width: 0.5"/>
   </g>
   <g id="line2d_12">
    <path d="M 133.94418 42.282 
L 138.166336 42.500355 
L 142.388493 42.718711 
L 146.610649 42.937066 
L 150.832806 43.155421 
L 155.054962 43.373776 
L 159.277119 43.592132 
L 163.499275 43.810487 
L 167.721432 44.028842 
L 171.943588 44.247197 
L 176.165745 44.465553 
L 180.387901 44.683908 
L 184.610058 44.902263 
L 188.832214 45.120618 
L 193.054371 45.338974 
L 197.276527 45.557329 
L 201.498684 45.775684 
L 205.72084 45.99404 
L 209.942997 46.212395 
L 214.165153 46.43075 
L 218.38731 46.649105 
L 222.609466 46.867461 
L 226.831622 47.085816 
L 231.053779 47.304171 
L 235.275935 47.522526 
L 239.498092 47.740882 
L 243.720248 47.959237 
L 247.942405 48.177592 
L 252.164561 48.395948 
L 256.386718 48.614303 
L 260.608874 48.832658 
L 264.831031 49.051013 
L 269.053187 49.269369 
L 273.275344 49.487724 
L 277.4975 49.706079 
L 281.719657 49.924434 
L 285.941813 50.14279 
L 290.16397 50.361145 
L 294.386126 50.5795 
L 298.608283 50.797855 
" clip-path="url(#pc7c38ccdc7)" style="fill: none; stroke-dasharray: 1.85,0.8; stroke-dashoffset: 0; stroke: #000000; stroke-width: 0.5"/>
   </g>
   <g id="line2d_13">
    <path d="M 153.555674 42.282 
L 157.777831 42.500355 
L 161.999987 42.718711 
L 166.222144 42.937066 
L 170.4443 43.155421 
L 174.666457 43.373776 
L 178.888613 43.592132 
L 183.11077 43.810487 
L 187.332926 44.028842 
L 191.555083 44.247197 
L 195.777239 44.465553 
L 199.999396 44.683908 
L 204.221552 44.902263 
L 208.443709 45.120618 
L 212.665865 45.338974 
L 216.888022 45.557329 
L 221.110178 45.775684 
L 225.332335 45.99404 
L 229.554491 46.212395 
L 233.776648 46.43075 
L 237.998804 46.649105 
L 242.220961 46.867461 
L 246.443117 47.085816 
L 250.665274 47.304171 
L 254.88743 47.522526 
L 259.109587 47.740882 
L 263.331743 47.959237 
L 267.5539 48.177592 
L 271.776056 48.395948 
L 275.998213 48.614303 
L 280.220369 48.832658 
L 284.442526 49.051013 
L 288.664682 49.269369 
L 292.886839 49.487724 
L 297.108995 49.706079 
L 301.331151 49.924434 
L 305.553308 50.14279 
L 309.775464 50.361145 
L 313.997621 50.5795 
L 318.219777 50.797855 
" clip-path="url(#pc7c38ccdc7)" style="fill: none; stroke-dasharray: 1.85,0.8; stroke-dashoffset: 0; stroke: #000000; stroke-width: 0.5"/>
   </g>
   <g id="line2d_14">
    <path d="M 173.167169 42.282 
L 177.389326 42.500355 
L 181.611482 42.718711 
L 185.833639 42.937066 
L 190.055795 43.155421 
L 194.277952 43.373776 
L 198.500108 43.592132 
L 202.722265 43.810487 
L 206.944421 44.028842 
L 211.166577 44.247197 
L 215.388734 44.465553 
L 219.61089 44.683908 
L 223.833047 44.902263 
L 228.055203 45.120618 
L 232.27736 45.338974 
L 236.499516 45.557329 
L 240.721673 45.775684 
L 244.943829 45.99404 
L 249.165986 46.212395 
L 253.388142 46.43075 
L 257.610299 46.649105 
L 261.832455 46.867461 
L 266.054612 47.085816 
L 270.276768 47.304171 
L 274.498925 47.522526 
L 278.721081 47.740882 
L 282.943238 47.959237 
L 287.165394 48.177592 
L 291.387551 48.395948 
L 295.609707 48.614303 
L 299.831864 48.832658 
L 304.05402 49.051013 
L 308.276177 49.269369 
L 312.498333 49.487724 
L 316.72049 49.706079 
L 320.942646 49.924434 
L 325.164803 50.14279 
L 329.386959 50.361145 
L 333.609116 50.5795 
L 337.831272 50.797855 
" clip-path="url(#pc7c38ccdc7)" style="fill: none; stroke-dasharray: 1.85,0.8; stroke-dashoffset: 0; stroke: #000000; stroke-width: 0.5"/>
   </g>
   <g id="line2d_15">
    <path d="M 60.2784 42.282 
L 222.5664 42.282 
" clip-path="url(#pc7c38ccdc7)" style="fill: none; stroke: #000000; stroke-width: 1.5; stroke-linecap: square"/>
   </g>
   <g id="line2d_16">
    <path d="M 173.167169 148.716 
L 173.167169 20.9952 
" clip-path="url(#pc7c38ccdc7)" style="fill: none; stroke: #000000; stroke-width: 1.5; stroke-linecap: square"/>
   </g>
   <g id="patch_3">
    <path d="M 60.2784 148.716 
L 60.2784 20.9952 
" style="fill: none; stroke: #000000; stroke-width: 0.8; stroke-linejoin: miter; stroke-linecap: square"/>
   </g>
   <g id="patch_4">
    <path d="M 222.5664 148.716 
L 222.5664 20.9952 
" style="fill: none; stroke: #000000; stroke-width: 0.8; stroke-linejoin: miter; stroke-linecap: square"/>
   </g>
   <g id="patch_5">
    <path d="M 60.2784 148.716 
L 222.5664 148.716 
" style="fill: none; stroke: #000000; stroke-width: 0.8; stroke-linejoin: miter; stroke-linecap: square"/>
   </g>
   <g id="patch_6">
    <path d="M 60.2784 20.9952 
L 222.5664 20.9952 
" style="fill: none; stroke: #000000; stroke-width: 0.8; stroke-linejoin: miter; stroke-linecap: square"/>
   </g>
   <g id="text_10">
    <!-- $\theta$$ =1.15\degree$ -->
    <g transform="translate(115.73775 14.9952) scale(0.144 -0.144)">
     <defs>
      <path id="CMMI12-12" d="M 2835 3200 
C 2835 3850 2630 4480 2106 4480 
C 1210 4480 256 2615 256 1216 
C 256 923 320 -64 992 -64 
C 1862 -64 2835 1756 2835 3200 
z
M 896 2304 
C 992 2679 1126 3214 1382 3665 
C 1594 4047 1818 4352 2099 4352 
C 2310 4352 2451 4174 2451 3564 
C 2451 3334 2432 3017 2246 2304 
L 896 2304 
z
M 2202 2113 
C 2042 1490 1907 1088 1677 687 
C 1491 363 1267 64 998 64 
C 800 64 640 217 640 846 
C 640 1260 742 1693 845 2113 
L 2202 2113 
z
" transform="scale(0.015625)"/>
      <path id="CMR17-3d" d="M 4115 2017 
C 4211 2017 4307 2017 4307 2125 
C 4307 2240 4198 2240 4090 2240 
L 512 2240 
C 403 2240 294 2240 294 2125 
C 294 2017 390 2017 486 2017 
L 4115 2017 
z
M 4090 896 
C 4198 896 4307 896 4307 1011 
C 4307 1119 4211 1119 4115 1119 
L 486 1119 
C 390 1119 294 1119 294 1011 
C 294 896 403 896 512 896 
L 4090 896 
z
" transform="scale(0.015625)"/>
      <path id="SFRM3583-b0" d="M 890 4416 
C 544 4371 326 4080 326 3776 
C 326 3453 576 3136 960 3136 
L 1018 3136 
C 1357 3181 1587 3472 1587 3776 
C 1587 4105 1312 4416 947 4416 
L 890 4416 
z
M 525 3737 
L 525 3776 
C 525 4003 723 4204 947 4204 
C 1178 4204 1338 4026 1382 3815 
L 1382 3776 
C 1382 3545 1184 3341 960 3341 
C 730 3341 570 3522 525 3737 
z
" transform="scale(0.015625)"/>
     </defs>
     <use xlink:href="#CMMI12-12" transform="scale(0.996264)"/>
     <use xlink:href="#CMR17-3d" transform="translate(48.169508 0) scale(0.996264)"/>
     <use xlink:href="#CMR17-31" transform="translate(147.558305 0) scale(0.996264)"/>
     <use xlink:href="#CMMI12-3a" transform="translate(193.248782 0) scale(0.996264)"/>
     <use xlink:href="#CMR17-31" transform="translate(220.345959 0) scale(0.996264)"/>
     <use xlink:href="#CMR17-35" transform="translate(266.036436 0) scale(0.996264)"/>
     <use xlink:href="#SFRM3583-b0" transform="translate(311.726913 0) scale(0.356961)"/>
    </g>
   </g>
   <g id="legend_1">
    <g id="patch_7">
     <path d="M 66.5784 144.216 
L 133.218829 144.216 
Q 135.018829 144.216 135.018829 142.416 
L 135.018829 92.122908 
Q 135.018829 90.322908 133.218829 90.322908 
L 66.5784 90.322908 
Q 64.7784 90.322908 64.7784 92.122908 
L 64.7784 142.416 
Q 64.7784 144.216 66.5784 144.216 
z
" style="fill: #ffffff; opacity: 0.8; stroke: #cccccc; stroke-linejoin: miter"/>
    </g>
    <g id="PathCollection_5">
     <defs>
      <path id="md07b7fa9cf" d="M -1.917029 0 
L 1.917029 0 
M 0 1.917029 
L 0 -1.917029 
" style="stroke: #1f77b4"/>
     </defs>
     <g>
      <use xlink:href="#md07b7fa9cf" x="77.3784" y="97.948896" style="fill: #1f77b4; stroke: #1f77b4"/>
     </g>
    </g>
    <g id="text_11">
     <!-- $\hbar\omega$$ =18.0$ -->
     <g transform="translate(93.5784 100.311396) scale(0.09 -0.09)">
      <defs>
       <path id="MSBM10-7e" d="M 1632 3520 
L 2874 3520 
C 2982 3520 3053 3520 3053 3597 
C 3053 3680 2976 3680 2854 3680 
L 1670 3680 
C 1715 3840 1715 3853 1754 4013 
C 1786 4128 1843 4352 1843 4365 
C 1843 4422 1805 4442 1754 4442 
C 1632 4442 1126 4390 973 4378 
C 922 4371 851 4365 851 4243 
C 851 4173 915 4173 1005 4173 
C 1312 4173 1325 4128 1325 4064 
C 1325 4019 1267 3808 1235 3680 
L 877 3680 
C 749 3680 678 3680 678 3597 
C 678 3520 736 3520 858 3520 
L 1197 3520 
L 378 256 
C 352 160 352 147 352 109 
C 352 -32 461 -70 538 -70 
C 659 -70 749 19 774 102 
C 787 134 858 422 896 582 
L 1043 1152 
C 1062 1248 1126 1491 1146 1587 
C 1178 1690 1222 1888 1229 1907 
C 1280 2016 1626 2688 2266 2688 
C 2547 2688 2611 2458 2611 2246 
C 2611 1850 2317 1069 2202 774 
C 2163 672 2131 582 2131 461 
C 2131 128 2368 -70 2656 -70 
C 3270 -70 3494 877 3494 915 
C 3494 979 3437 979 3418 979 
C 3354 979 3354 960 3322 864 
C 3136 211 2848 70 2675 70 
C 2554 70 2515 147 2515 282 
C 2515 442 2586 621 2624 730 
C 2733 1011 3021 1779 3021 2138 
C 3021 2605 2726 2829 2285 2829 
C 2086 2829 1702 2784 1338 2342 
L 1632 3520 
z
" transform="scale(0.015625)"/>
       <path id="CMMI12-21" d="M 3802 2395 
C 3802 2580 3750 2816 3526 2816 
C 3398 2816 3251 2657 3251 2529 
C 3251 2472 3277 2434 3328 2376 
C 3424 2268 3546 2096 3546 1797 
C 3546 1567 3405 1204 3302 1007 
C 3123 656 2829 357 2496 357 
C 2093 357 1939 615 1869 975 
C 1939 1143 2086 1560 2086 1728 
C 2086 1798 2061 1856 1978 1856 
C 1933 1856 1882 1831 1850 1779 
C 1760 1638 1677 1129 1683 994 
C 1562 756 1216 357 806 357 
C 378 357 262 733 262 1096 
C 262 1758 678 2338 794 2497 
C 858 2593 902 2657 902 2669 
C 902 2714 877 2784 819 2784 
C 717 2784 685 2701 634 2625 
C 307 2121 77 1414 77 803 
C 77 408 224 -64 704 -64 
C 1235 -64 1568 391 1702 634 
C 1754 275 1946 -64 2413 -64 
C 2899 -64 3206 363 3437 879 
C 3603 1249 3802 2045 3802 2395 
z
" transform="scale(0.015625)"/>
       <path id="CMR17-38" d="M 1741 2264 
C 2144 2467 2554 2773 2554 3263 
C 2554 3841 1990 4179 1472 4179 
C 890 4179 378 3759 378 3180 
C 378 3021 416 2747 666 2505 
C 730 2442 998 2251 1171 2130 
C 883 1983 211 1634 211 934 
C 211 279 838 -128 1459 -128 
C 2144 -128 2720 362 2720 1010 
C 2720 1590 2330 1857 2074 2029 
L 1741 2264 
z
M 902 2822 
C 851 2854 595 3051 595 3351 
C 595 3739 998 4032 1459 4032 
C 1965 4032 2336 3676 2336 3262 
C 2336 2669 1670 2331 1638 2331 
C 1632 2331 1626 2331 1574 2370 
L 902 2822 
z
M 2080 1519 
C 2176 1449 2483 1240 2483 851 
C 2483 381 2010 25 1472 25 
C 890 25 448 438 448 940 
C 448 1443 838 1862 1280 2060 
L 2080 1519 
z
" transform="scale(0.015625)"/>
      </defs>
      <use xlink:href="#MSBM10-7e" transform="scale(0.996264)"/>
      <use xlink:href="#CMMI12-21" transform="translate(53.826182 0) scale(0.996264)"/>
      <use xlink:href="#CMR17-3d" transform="translate(118.144528 0) scale(0.996264)"/>
      <use xlink:href="#CMR17-31" transform="translate(217.533325 0) scale(0.996264)"/>
      <use xlink:href="#CMR17-38" transform="translate(263.223802 0) scale(0.996264)"/>
      <use xlink:href="#CMMI12-3a" transform="translate(308.91428 0) scale(0.996264)"/>
      <use xlink:href="#CMR17-30" transform="translate(336.011457 0) scale(0.996264)"/>
     </g>
    </g>
    <g id="PathCollection_6">
     <defs>
      <path id="m26926883b9" d="M -1.917029 0 
L 1.917029 0 
M 0 1.917029 
L 0 -1.917029 
" style="stroke: #ff7f0e"/>
     </defs>
     <g>
      <use xlink:href="#m26926883b9" x="77.3784" y="110.747169" style="fill: #ff7f0e; stroke: #ff7f0e"/>
     </g>
    </g>
    <g id="text_12">
     <!-- $\hbar\omega$$ =20.0$ -->
     <g transform="translate(93.5784 113.109669) scale(0.09 -0.09)">
      <use xlink:href="#MSBM10-7e" transform="scale(0.996264)"/>
      <use xlink:href="#CMMI12-21" transform="translate(53.826182 0) scale(0.996264)"/>
      <use xlink:href="#CMR17-3d" transform="translate(118.144528 0) scale(0.996264)"/>
      <use xlink:href="#CMR17-32" transform="translate(217.533325 0) scale(0.996264)"/>
      <use xlink:href="#CMR17-30" transform="translate(263.223802 0) scale(0.996264)"/>
      <use xlink:href="#CMMI12-3a" transform="translate(308.91428 0) scale(0.996264)"/>
      <use xlink:href="#CMR17-30" transform="translate(336.011457 0) scale(0.996264)"/>
     </g>
    </g>
    <g id="PathCollection_7">
     <defs>
      <path id="ma3f37f8848" d="M -1.917029 0 
L 1.917029 0 
M 0 1.917029 
L 0 -1.917029 
" style="stroke: #2ca02c"/>
     </defs>
     <g>
      <use xlink:href="#ma3f37f8848" x="77.3784" y="123.545442" style="fill: #2ca02c; stroke: #2ca02c"/>
     </g>
    </g>
    <g id="text_13">
     <!-- $\hbar\omega$$ =22.0$ -->
     <g transform="translate(93.5784 125.907942) scale(0.09 -0.09)">
      <use xlink:href="#MSBM10-7e" transform="scale(0.996264)"/>
      <use xlink:href="#CMMI12-21" transform="translate(53.826182 0) scale(0.996264)"/>
      <use xlink:href="#CMR17-3d" transform="translate(118.144528 0) scale(0.996264)"/>
      <use xlink:href="#CMR17-32" transform="translate(217.533325 0) scale(0.996264)"/>
      <use xlink:href="#CMR17-32" transform="translate(263.223802 0) scale(0.996264)"/>
      <use xlink:href="#CMMI12-3a" transform="translate(308.91428 0) scale(0.996264)"/>
      <use xlink:href="#CMR17-30" transform="translate(336.011457 0) scale(0.996264)"/>
     </g>
    </g>
    <g id="PathCollection_8">
     <defs>
      <path id="m45ad7bc2ea" d="M -1.917029 0 
L 1.917029 0 
M 0 1.917029 
L 0 -1.917029 
" style="stroke: #d62728"/>
     </defs>
     <g>
      <use xlink:href="#m45ad7bc2ea" x="77.3784" y="136.343715" style="fill: #d62728; stroke: #d62728"/>
     </g>
    </g>
    <g id="text_14">
     <!-- $\hbar\omega$$ =24.0$ -->
     <g transform="translate(93.5784 138.706215) scale(0.09 -0.09)">
      <defs>
       <path id="CMR17-34" d="M 2150 4122 
C 2150 4256 2144 4256 2029 4256 
L 128 1254 
L 128 1088 
L 1779 1088 
L 1779 457 
C 1779 224 1766 160 1318 160 
L 1197 160 
L 1197 0 
C 1402 0 1747 0 1965 0 
C 2182 0 2528 0 2733 0 
L 2733 160 
L 2611 160 
C 2163 160 2150 224 2150 457 
L 2150 1088 
L 2803 1088 
L 2803 1254 
L 2150 1254 
L 2150 4122 
z
M 1798 3703 
L 1798 1254 
L 256 1254 
L 1798 3703 
z
" transform="scale(0.015625)"/>
      </defs>
      <use xlink:href="#MSBM10-7e" transform="scale(0.996264)"/>
      <use xlink:href="#CMMI12-21" transform="translate(53.826182 0) scale(0.996264)"/>
      <use xlink:href="#CMR17-3d" transform="translate(118.144528 0) scale(0.996264)"/>
      <use xlink:href="#CMR17-32" transform="translate(217.533325 0) scale(0.996264)"/>
      <use xlink:href="#CMR17-34" transform="translate(263.223802 0) scale(0.996264)"/>
      <use xlink:href="#CMMI12-3a" transform="translate(308.91428 0) scale(0.996264)"/>
      <use xlink:href="#CMR17-30" transform="translate(336.011457 0) scale(0.996264)"/>
     </g>
    </g>
   </g>
  </g>
  <g id="axes_2">
   <g id="patch_8">
    <path d="M 255.024 148.716 
L 417.312 148.716 
L 417.312 20.9952 
L 255.024 20.9952 
z
" style="fill: #ffffff"/>
   </g>
   <g id="PathCollection_9">
    <g clip-path="url(#pc77f157f4b)">
     <use xlink:href="#m918ea1fd0e" x="263.348182" y="38.108946" style="fill: #1f77b4; stroke: #1f77b4"/>
     <use xlink:href="#m918ea1fd0e" x="338.283646" y="51.212909" style="fill: #1f77b4; stroke: #1f77b4"/>
     <use xlink:href="#m918ea1fd0e" x="363.621499" y="111.756155" style="fill: #1f77b4; stroke: #1f77b4"/>
     <use xlink:href="#m918ea1fd0e" x="367.956295" y="87.955916" style="fill: #1f77b4; stroke: #1f77b4"/>
     <use xlink:href="#m918ea1fd0e" x="373.873074" y="78.897425" style="fill: #1f77b4; stroke: #1f77b4"/>
     <use xlink:href="#m918ea1fd0e" x="388.587418" y="105.392253" style="fill: #1f77b4; stroke: #1f77b4"/>
     <use xlink:href="#m918ea1fd0e" x="389.631594" y="95.030052" style="fill: #1f77b4; stroke: #1f77b4"/>
    </g>
   </g>
   <g id="PathCollection_10">
    <g clip-path="url(#pc77f157f4b)">
     <use xlink:href="#m00305d72fd" x="260.869987" y="42.001445" style="fill: #ff7f0e; stroke: #ff7f0e"/>
     <use xlink:href="#m00305d72fd" x="337.57946" y="53.63159" style="fill: #ff7f0e; stroke: #ff7f0e"/>
     <use xlink:href="#m00305d72fd" x="365.716772" y="122.990264" style="fill: #ff7f0e; stroke: #ff7f0e"/>
     <use xlink:href="#m00305d72fd" x="369.160758" y="96.792067" style="fill: #ff7f0e; stroke: #ff7f0e"/>
     <use xlink:href="#m00305d72fd" x="375.488594" y="84.20167" style="fill: #ff7f0e; stroke: #ff7f0e"/>
     <use xlink:href="#m00305d72fd" x="391.298159" y="113.895585" style="fill: #ff7f0e; stroke: #ff7f0e"/>
     <use xlink:href="#m00305d72fd" x="392.986584" y="102.020956" style="fill: #ff7f0e; stroke: #ff7f0e"/>
    </g>
   </g>
   <g id="PathCollection_11">
    <g clip-path="url(#pc77f157f4b)">
     <use xlink:href="#m671166169f" x="261.805279" y="41.987535" style="fill: #2ca02c; stroke: #2ca02c"/>
     <use xlink:href="#m671166169f" x="337.802044" y="56.601205" style="fill: #2ca02c; stroke: #2ca02c"/>
     <use xlink:href="#m671166169f" x="369.896469" y="137.503497" style="fill: #2ca02c; stroke: #2ca02c"/>
     <use xlink:href="#m671166169f" x="371.575277" y="104.928627" style="fill: #2ca02c; stroke: #2ca02c"/>
     <use xlink:href="#m671166169f" x="377.643306" y="89.172244" style="fill: #2ca02c; stroke: #2ca02c"/>
     <use xlink:href="#m671166169f" x="394.433817" y="123.986592" style="fill: #2ca02c; stroke: #2ca02c"/>
     <use xlink:href="#m671166169f" x="396.26237" y="107.974981" style="fill: #2ca02c; stroke: #2ca02c"/>
    </g>
   </g>
   <g id="PathCollection_12">
    <g clip-path="url(#pc77f157f4b)">
     <use xlink:href="#mc64ee69043" x="261.589981" y="41.57597" style="fill: #d62728; stroke: #d62728"/>
     <use xlink:href="#mc64ee69043" x="337.919285" y="59.871176" style="fill: #d62728; stroke: #d62728"/>
     <use xlink:href="#mc64ee69043" x="374.273496" y="151.014974" style="fill: #d62728; stroke: #d62728"/>
     <use xlink:href="#mc64ee69043" x="374.325366" y="112.080779" style="fill: #d62728; stroke: #d62728"/>
     <use xlink:href="#mc64ee69043" x="379.805757" y="93.504108" style="fill: #d62728; stroke: #d62728"/>
     <use xlink:href="#mc64ee69043" x="397.781479" y="134.398285" style="fill: #d62728; stroke: #d62728"/>
     <use xlink:href="#mc64ee69043" x="399.469945" y="113.839068" style="fill: #d62728; stroke: #d62728"/>
    </g>
   </g>
   <g id="matplotlib.axis_3">
    <g id="xtick_5">
     <g id="line2d_17">
      <g>
       <use xlink:href="#md11f044a79" x="285.580718" y="148.716" style="stroke: #000000; stroke-width: 0.8"/>
      </g>
     </g>
     <g id="text_15">
      <!-- $\mathdefault{−20}$ -->
      <g transform="translate(275.839446 163.524152) scale(0.11 -0.11)">
       <use xlink:href="#CMSY10-0" transform="scale(0.996264)"/>
       <use xlink:href="#CMR17-32" transform="translate(77.487468 0) scale(0.996264)"/>
       <use xlink:href="#CMR17-30" transform="translate(123.177945 0) scale(0.996264)"/>
      </g>
     </g>
    </g>
    <g id="xtick_6">
     <g id="line2d_18">
      <g>
       <use xlink:href="#md11f044a79" x="326.746743" y="148.716" style="stroke: #000000; stroke-width: 0.8"/>
      </g>
     </g>
     <g id="text_16">
      <!-- $\mathdefault{−10}$ -->
      <g transform="translate(317.005472 163.524152) scale(0.11 -0.11)">
       <use xlink:href="#CMSY10-0" transform="scale(0.996264)"/>
       <use xlink:href="#CMR17-31" transform="translate(77.487468 0) scale(0.996264)"/>
       <use xlink:href="#CMR17-30" transform="translate(123.177945 0) scale(0.996264)"/>
      </g>
     </g>
    </g>
    <g id="xtick_7">
     <g id="line2d_19">
      <g>
       <use xlink:href="#md11f044a79" x="367.912769" y="148.716" style="stroke: #000000; stroke-width: 0.8"/>
      </g>
     </g>
     <g id="text_17">
      <!-- $\mathdefault{0}$ -->
      <g transform="translate(365.173035 163.524152) scale(0.11 -0.11)">
       <use xlink:href="#CMR17-30" transform="scale(0.996264)"/>
      </g>
     </g>
    </g>
    <g id="xtick_8">
     <g id="line2d_20">
      <g>
       <use xlink:href="#md11f044a79" x="409.078795" y="148.716" style="stroke: #000000; stroke-width: 0.8"/>
      </g>
     </g>
     <g id="text_18">
      <!-- $\mathdefault{10}$ -->
      <g transform="translate(403.599328 163.524152) scale(0.11 -0.11)">
       <use xlink:href="#CMR17-31" transform="scale(0.996264)"/>
       <use xlink:href="#CMR17-30" transform="translate(45.690477 0) scale(0.996264)"/>
      </g>
     </g>
    </g>
   </g>
   <g id="matplotlib.axis_4">
    <g id="ytick_6">
     <g id="line2d_21">
      <g>
       <use xlink:href="#mb201574d9e" x="255.024" y="148.716" style="stroke: #000000; stroke-width: 0.8"/>
      </g>
     </g>
     <g id="text_19">
      <!-- $\mathdefault{−10.0}$ -->
      <g transform="translate(220.017848 152.620076) scale(0.11 -0.11)">
       <use xlink:href="#CMSY10-0" transform="scale(0.996264)"/>
       <use xlink:href="#CMR17-31" transform="translate(77.487468 0) scale(0.996264)"/>
       <use xlink:href="#CMR17-30" transform="translate(123.177945 0) scale(0.996264)"/>
       <use xlink:href="#CMMI12-3a" transform="translate(168.868422 0) scale(0.996264)"/>
       <use xlink:href="#CMR17-30" transform="translate(195.965599 0) scale(0.996264)"/>
      </g>
     </g>
    </g>
    <g id="ytick_7">
     <g id="line2d_22">
      <g>
       <use xlink:href="#mb201574d9e" x="255.024" y="122.1075" style="stroke: #000000; stroke-width: 0.8"/>
      </g>
     </g>
     <g id="text_20">
      <!-- $\mathdefault{−7.5}$ -->
      <g transform="translate(225.497315 126.011576) scale(0.11 -0.11)">
       <use xlink:href="#CMSY10-0" transform="scale(0.996264)"/>
       <use xlink:href="#CMR17-37" transform="translate(77.487468 0) scale(0.996264)"/>
       <use xlink:href="#CMMI12-3a" transform="translate(123.177945 0) scale(0.996264)"/>
       <use xlink:href="#CMR17-35" transform="translate(150.275122 0) scale(0.996264)"/>
      </g>
     </g>
    </g>
    <g id="ytick_8">
     <g id="line2d_23">
      <g>
       <use xlink:href="#mb201574d9e" x="255.024" y="95.499" style="stroke: #000000; stroke-width: 0.8"/>
      </g>
     </g>
     <g id="text_21">
      <!-- $\mathdefault{−5.0}$ -->
      <g transform="translate(225.497315 99.403076) scale(0.11 -0.11)">
       <use xlink:href="#CMSY10-0" transform="scale(0.996264)"/>
       <use xlink:href="#CMR17-35" transform="translate(77.487468 0) scale(0.996264)"/>
       <use xlink:href="#CMMI12-3a" transform="translate(123.177945 0) scale(0.996264)"/>
       <use xlink:href="#CMR17-30" transform="translate(150.275122 0) scale(0.996264)"/>
      </g>
     </g>
    </g>
    <g id="ytick_9">
     <g id="line2d_24">
      <g>
       <use xlink:href="#mb201574d9e" x="255.024" y="68.8905" style="stroke: #000000; stroke-width: 0.8"/>
      </g>
     </g>
     <g id="text_22">
      <!-- $\mathdefault{−2.5}$ -->
      <g transform="translate(225.497315 72.794576) scale(0.11 -0.11)">
       <use xlink:href="#CMSY10-0" transform="scale(0.996264)"/>
       <use xlink:href="#CMR17-32" transform="translate(77.487468 0) scale(0.996264)"/>
       <use xlink:href="#CMMI12-3a" transform="translate(123.177945 0) scale(0.996264)"/>
       <use xlink:href="#CMR17-35" transform="translate(150.275122 0) scale(0.996264)"/>
      </g>
     </g>
    </g>
    <g id="ytick_10">
     <g id="line2d_25">
      <g>
       <use xlink:href="#mb201574d9e" x="255.024" y="42.282" style="stroke: #000000; stroke-width: 0.8"/>
      </g>
     </g>
     <g id="text_23">
      <!-- $\mathdefault{0.0}$ -->
      <g transform="translate(234.020924 46.186076) scale(0.11 -0.11)">
       <use xlink:href="#CMR17-30" transform="scale(0.996264)"/>
       <use xlink:href="#CMMI12-3a" transform="translate(45.690477 0) scale(0.996264)"/>
       <use xlink:href="#CMR17-30" transform="translate(72.787654 0) scale(0.996264)"/>
      </g>
     </g>
    </g>
   </g>
   <g id="line2d_26">
    <path d="M 304.846418 42.282 
L 309.068574 49.750248 
L 313.290731 57.218496 
L 317.512887 64.686744 
L 321.735044 72.154992 
L 325.9572 79.62324 
L 330.179357 87.091487 
L 334.401513 94.559735 
L 338.62367 102.027983 
L 342.845826 109.496231 
L 347.067983 116.964479 
L 351.290139 124.432727 
L 355.512295 131.900975 
L 359.734452 139.369223 
L 363.956608 146.837471 
L 368.178765 154.305719 
L 372.400921 161.773966 
L 376.623078 169.242214 
L 380.420962 175.96 
" clip-path="url(#pc77f157f4b)" style="fill: none; stroke-dasharray: 1.85,0.8; stroke-dashoffset: 0; stroke: #000000; stroke-width: 0.5"/>
   </g>
   <g id="line2d_27">
    <path d="M 307.522209 42.282 
L 311.744366 49.750248 
L 315.966522 57.218496 
L 320.188679 64.686744 
L 324.410835 72.154992 
L 328.632992 79.62324 
L 332.855148 87.091487 
L 337.077305 94.559735 
L 341.299461 102.027983 
L 345.521618 109.496231 
L 349.743774 116.964479 
L 353.965931 124.432727 
L 358.188087 131.900975 
L 362.410244 139.369223 
L 366.6324 146.837471 
L 370.854557 154.305719 
L 375.076713 161.773966 
L 379.29887 169.242214 
L 383.096754 175.96 
" clip-path="url(#pc77f157f4b)" style="fill: none; stroke-dasharray: 1.85,0.8; stroke-dashoffset: 0; stroke: #000000; stroke-width: 0.5"/>
   </g>
   <g id="line2d_28">
    <path d="M 328.68978 42.282 
L 332.911936 49.750248 
L 337.134093 57.218496 
L 341.356249 64.686744 
L 345.578406 72.154992 
L 349.800562 79.62324 
L 354.022719 87.091487 
L 358.244875 94.559735 
L 362.467032 102.027983 
L 366.689188 109.496231 
L 370.911345 116.964479 
L 375.133501 124.432727 
L 379.355658 131.900975 
L 383.577814 139.369223 
L 387.799971 146.837471 
L 392.022127 154.305719 
L 396.244284 161.773966 
L 400.46644 169.242214 
L 404.264324 175.96 
" clip-path="url(#pc77f157f4b)" style="fill: none; stroke-dasharray: 1.85,0.8; stroke-dashoffset: 0; stroke: #000000; stroke-width: 0.5"/>
   </g>
   <g id="line2d_29">
    <path d="M 348.301274 42.282 
L 352.523431 49.750248 
L 356.745587 57.218496 
L 360.967744 64.686744 
L 365.1899 72.154992 
L 369.412057 79.62324 
L 373.634213 87.091487 
L 377.85637 94.559735 
L 382.078526 102.027983 
L 386.300683 109.496231 
L 390.522839 116.964479 
L 394.744996 124.432727 
L 398.967152 131.900975 
L 403.189309 139.369223 
L 407.411465 146.837471 
L 411.633622 154.305719 
L 415.855778 161.773966 
L 420.077935 169.242214 
L 423.875819 175.96 
" clip-path="url(#pc77f157f4b)" style="fill: none; stroke-dasharray: 1.85,0.8; stroke-dashoffset: 0; stroke: #000000; stroke-width: 0.5"/>
   </g>
   <g id="line2d_30">
    <path d="M 367.912769 42.282 
L 372.134926 49.750248 
L 376.357082 57.218496 
L 380.579239 64.686744 
L 384.801395 72.154992 
L 389.023552 79.62324 
L 393.245708 87.091487 
L 397.467865 94.559735 
L 401.690021 102.027983 
L 405.912177 109.496231 
L 410.134334 116.964479 
L 414.35649 124.432727 
L 418.578647 131.900975 
L 422.800803 139.369223 
L 427.02296 146.837471 
L 431.245116 154.305719 
L 435.467273 161.773966 
L 439.689429 169.242214 
L 443.487314 175.96 
" clip-path="url(#pc77f157f4b)" style="fill: none; stroke-dasharray: 1.85,0.8; stroke-dashoffset: 0; stroke: #000000; stroke-width: 0.5"/>
   </g>
   <g id="line2d_31">
    <path d="M 255.024 42.282 
L 417.312 42.282 
" clip-path="url(#pc77f157f4b)" style="fill: none; stroke: #000000; stroke-width: 1.5; stroke-linecap: square"/>
   </g>
   <g id="line2d_32">
    <path d="M 367.912769 148.716 
L 367.912769 20.9952 
" clip-path="url(#pc77f157f4b)" style="fill: none; stroke: #000000; stroke-width: 1.5; stroke-linecap: square"/>
   </g>
   <g id="patch_9">
    <path d="M 255.024 148.716 
L 255.024 20.9952 
" style="fill: none; stroke: #000000; stroke-width: 0.8; stroke-linejoin: miter; stroke-linecap: square"/>
   </g>
   <g id="patch_10">
    <path d="M 417.312 148.716 
L 417.312 20.9952 
" style="fill: none; stroke: #000000; stroke-width: 0.8; stroke-linejoin: miter; stroke-linecap: square"/>
   </g>
   <g id="patch_11">
    <path d="M 255.024 148.716 
L 417.312 148.716 
" style="fill: none; stroke: #000000; stroke-width: 0.8; stroke-linejoin: miter; stroke-linecap: square"/>
   </g>
   <g id="patch_12">
    <path d="M 255.024 20.9952 
L 417.312 20.9952 
" style="fill: none; stroke: #000000; stroke-width: 0.8; stroke-linejoin: miter; stroke-linecap: square"/>
   </g>
   <g id="text_24">
    <!-- $\theta$$ =34.38\degree$ -->
    <g transform="translate(306.971563 14.9952) scale(0.144 -0.144)">
     <defs>
      <path id="CMR17-33" d="M 1414 2157 
C 1984 2157 2234 1662 2234 1090 
C 2234 320 1824 25 1453 25 
C 1114 25 563 194 390 693 
C 422 680 454 680 486 680 
C 640 680 755 782 755 948 
C 755 1133 614 1216 486 1216 
C 378 1216 211 1165 211 926 
C 211 335 787 -128 1466 -128 
C 2176 -128 2720 430 2720 1085 
C 2720 1707 2208 2157 1600 2227 
C 2086 2328 2554 2756 2554 3329 
C 2554 3820 2048 4179 1472 4179 
C 890 4179 378 3829 378 3329 
C 378 3110 544 3072 627 3072 
C 762 3072 877 3155 877 3321 
C 877 3486 762 3569 627 3569 
C 602 3569 570 3569 544 3557 
C 730 3959 1235 4032 1459 4032 
C 1683 4032 2106 3925 2106 3320 
C 2106 3143 2080 2828 1862 2550 
C 1670 2304 1453 2304 1242 2284 
C 1210 2284 1062 2269 1037 2269 
C 992 2263 966 2257 966 2208 
C 966 2163 973 2157 1101 2157 
L 1414 2157 
z
" transform="scale(0.015625)"/>
     </defs>
     <use xlink:href="#CMMI12-12" transform="scale(0.996264)"/>
     <use xlink:href="#CMR17-3d" transform="translate(48.169508 0) scale(0.996264)"/>
     <use xlink:href="#CMR17-33" transform="translate(147.558305 0) scale(0.996264)"/>
     <use xlink:href="#CMR17-34" transform="translate(193.248782 0) scale(0.996264)"/>
     <use xlink:href="#CMMI12-3a" transform="translate(238.939259 0) scale(0.996264)"/>
     <use xlink:href="#CMR17-33" transform="translate(266.036436 0) scale(0.996264)"/>
     <use xlink:href="#CMR17-38" transform="translate(311.726913 0) scale(0.996264)"/>
     <use xlink:href="#SFRM3583-b0" transform="translate(357.41739 0) scale(0.356961)"/>
    </g>
   </g>
   <g id="legend_2">
    <g id="patch_13">
     <path d="M 261.324 144.216 
L 327.964429 144.216 
Q 329.764429 144.216 329.764429 142.416 
L 329.764429 92.122908 
Q 329.764429 90.322908 327.964429 90.322908 
L 261.324 90.322908 
Q 259.524 90.322908 259.524 92.122908 
L 259.524 142.416 
Q 259.524 144.216 261.324 144.216 
z
" style="fill: #ffffff; opacity: 0.8; stroke: #cccccc; stroke-linejoin: miter"/>
    </g>
    <g id="PathCollection_13">
     <g>
      <use xlink:href="#md07b7fa9cf" x="272.124" y="97.948896" style="fill: #1f77b4; stroke: #1f77b4"/>
     </g>
    </g>
    <g id="text_25">
     <!-- $\hbar\omega$$ =18.0$ -->
     <g transform="translate(288.324 100.311396) scale(0.09 -0.09)">
      <use xlink:href="#MSBM10-7e" transform="scale(0.996264)"/>
      <use xlink:href="#CMMI12-21" transform="translate(53.826182 0) scale(0.996264)"/>
      <use xlink:href="#CMR17-3d" transform="translate(118.144528 0) scale(0.996264)"/>
      <use xlink:href="#CMR17-31" transform="translate(217.533325 0) scale(0.996264)"/>
      <use xlink:href="#CMR17-38" transform="translate(263.223802 0) scale(0.996264)"/>
      <use xlink:href="#CMMI12-3a" transform="translate(308.91428 0) scale(0.996264)"/>
      <use xlink:href="#CMR17-30" transform="translate(336.011457 0) scale(0.996264)"/>
     </g>
    </g>
    <g id="PathCollection_14">
     <g>
      <use xlink:href="#m26926883b9" x="272.124" y="110.747169" style="fill: #ff7f0e; stroke: #ff7f0e"/>
     </g>
    </g>
    <g id="text_26">
     <!-- $\hbar\omega$$ =20.0$ -->
     <g transform="translate(288.324 113.109669) scale(0.09 -0.09)">
      <use xlink:href="#MSBM10-7e" transform="scale(0.996264)"/>
      <use xlink:href="#CMMI12-21" transform="translate(53.826182 0) scale(0.996264)"/>
      <use xlink:href="#CMR17-3d" transform="translate(118.144528 0) scale(0.996264)"/>
      <use xlink:href="#CMR17-32" transform="translate(217.533325 0) scale(0.996264)"/>
      <use xlink:href="#CMR17-30" transform="translate(263.223802 0) scale(0.996264)"/>
      <use xlink:href="#CMMI12-3a" transform="translate(308.91428 0) scale(0.996264)"/>
      <use xlink:href="#CMR17-30" transform="translate(336.011457 0) scale(0.996264)"/>
     </g>
    </g>
    <g id="PathCollection_15">
     <g>
      <use xlink:href="#ma3f37f8848" x="272.124" y="123.545442" style="fill: #2ca02c; stroke: #2ca02c"/>
     </g>
    </g>
    <g id="text_27">
     <!-- $\hbar\omega$$ =22.0$ -->
     <g transform="translate(288.324 125.907942) scale(0.09 -0.09)">
      <use xlink:href="#MSBM10-7e" transform="scale(0.996264)"/>
      <use xlink:href="#CMMI12-21" transform="translate(53.826182 0) scale(0.996264)"/>
      <use xlink:href="#CMR17-3d" transform="translate(118.144528 0) scale(0.996264)"/>
      <use xlink:href="#CMR17-32" transform="translate(217.533325 0) scale(0.996264)"/>
      <use xlink:href="#CMR17-32" transform="translate(263.223802 0) scale(0.996264)"/>
      <use xlink:href="#CMMI12-3a" transform="translate(308.91428 0) scale(0.996264)"/>
      <use xlink:href="#CMR17-30" transform="translate(336.011457 0) scale(0.996264)"/>
     </g>
    </g>
    <g id="PathCollection_16">
     <g>
      <use xlink:href="#m45ad7bc2ea" x="272.124" y="136.343715" style="fill: #d62728; stroke: #d62728"/>
     </g>
    </g>
    <g id="text_28">
     <!-- $\hbar\omega$$ =24.0$ -->
     <g transform="translate(288.324 138.706215) scale(0.09 -0.09)">
      <use xlink:href="#MSBM10-7e" transform="scale(0.996264)"/>
      <use xlink:href="#CMMI12-21" transform="translate(53.826182 0) scale(0.996264)"/>
      <use xlink:href="#CMR17-3d" transform="translate(118.144528 0) scale(0.996264)"/>
      <use xlink:href="#CMR17-32" transform="translate(217.533325 0) scale(0.996264)"/>
      <use xlink:href="#CMR17-34" transform="translate(263.223802 0) scale(0.996264)"/>
      <use xlink:href="#CMMI12-3a" transform="translate(308.91428 0) scale(0.996264)"/>
      <use xlink:href="#CMR17-30" transform="translate(336.011457 0) scale(0.996264)"/>
     </g>
    </g>
   </g>
  </g>
  <g id="text_29">
   <!-- $\mathrm{\Re}\left(\mathrm{E^{0^{+}0}}\right)[\SI[]{}{\mega\eV}]$ -->
   <g transform="translate(191.195709 169.200784) scale(0.12 -0.12)">
    <defs>
     <path id="CMSY10-3c" d="M 3667 4500 
C 3615 4590 3609 4596 3519 4596 
C 3078 4596 2296 4413 1963 3855 
C 1867 4039 1554 4502 1068 4502 
C 633 4502 352 4099 352 3734 
C 352 3491 500 3331 679 3145 
C 1038 2787 1038 2684 1038 2448 
C 1038 2070 1000 1686 724 1686 
C 550 1686 518 1923 512 2038 
C 512 2089 505 2140 429 2140 
C 352 2140 352 2070 352 2044 
C 352 1929 410 1545 724 1545 
C 1243 1545 1243 2364 1243 2512 
C 1243 2704 1230 2947 794 3350 
C 615 3510 544 3606 544 3747 
C 544 4022 729 4361 1062 4361 
C 1394 4361 1650 3863 1650 3116 
L 1650 1233 
C 1650 1176 1650 1 1234 1 
C 998 1 762 197 627 598 
C 647 598 775 642 775 700 
C 775 738 724 769 704 769 
C 678 769 595 738 569 726 
C 563 764 530 833 485 833 
C 447 833 402 782 402 750 
C 402 726 415 687 427 668 
C 389 662 293 623 293 573 
C 293 541 331 503 363 503 
C 382 503 459 528 478 541 
C 683 -13 1010 -140 1234 -140 
C 1688 -140 2194 446 2194 1752 
L 2194 2222 
L 2931 2222 
L 3014 801 
C 3014 757 2989 713 2989 591 
C 2989 210 3303 -140 3731 -140 
C 3814 -140 3827 -140 3949 -50 
L 4410 308 
C 4486 372 4493 379 4493 404 
C 4493 455 4390 494 4371 494 
C 4339 494 4109 308 3821 71 
C 3603 211 3526 420 3526 592 
C 3526 713 3552 732 3552 801 
C 3552 986 3520 1316 3514 1513 
C 3501 1643 3475 2162 3469 2253 
C 3827 2369 4525 2785 4538 2791 
C 4557 2810 4570 2824 4570 2856 
C 4570 2869 4531 2946 4525 2952 
L 3667 4500 
z
M 4030 2743 
C 3442 2420 3307 2420 3122 2420 
L 2194 2420 
L 2194 2730 
C 2194 3167 2136 3412 2066 3609 
C 2290 4223 3115 4338 3122 4338 
C 3134 4338 3173 4274 3179 4268 
L 4030 2743 
z
" transform="scale(0.015625)"/>
     <path id="CMEX10-10" d="M 3296 -11187 
C 3309 -11194 3366 -11258 3373 -11258 
L 3514 -11258 
C 3533 -11258 3584 -11251 3584 -11194 
C 3584 -11168 3571 -11155 3558 -11136 
C 3328 -10906 2982 -10554 2586 -9850 
C 1894 -8621 1638 -7040 1638 -5504 
C 1638 -2662 2445 -992 3565 141 
C 3584 160 3584 179 3584 192 
C 3584 256 3539 256 3462 256 
C 3379 256 3366 256 3309 205 
C 2701 -320 2016 -1210 1574 -2560 
C 1299 -3405 1152 -4435 1152 -5498 
C 1152 -7014 1427 -8730 2432 -10214 
C 2605 -10464 2842 -10726 2842 -10733 
C 2906 -10810 2995 -10912 3046 -10957 
L 3296 -11187 
z
" transform="scale(0.015625)"/>
     <path id="CMR17-45" d="M 3885 1615 
L 3770 1615 
C 3629 676 3546 166 2419 166 
L 1530 166 
C 1274 166 1261 197 1261 414 
L 1261 2176 
L 1862 2176 
C 2464 2176 2522 1960 2522 1430 
L 2637 1430 
L 2637 3081 
L 2522 3081 
C 2522 2557 2464 2342 1862 2342 
L 1261 2342 
L 1261 3913 
C 1261 4128 1274 4160 1530 4160 
L 2406 4160 
C 3398 4160 3514 3769 3603 2929 
L 3718 2929 
L 3565 4325 
L 326 4325 
L 326 4160 
C 768 4160 838 4160 838 3874 
L 838 451 
C 838 166 768 166 326 166 
L 326 0 
L 3654 0 
L 3885 1615 
z
" transform="scale(0.015625)"/>
     <path id="CMR17-2b" d="M 2413 1472 
L 4109 1472 
C 4198 1472 4307 1472 4307 1580 
C 4307 1695 4205 1695 4109 1695 
L 2413 1695 
L 2413 3386 
C 2413 3475 2413 3584 2304 3584 
C 2189 3584 2189 3482 2189 3386 
L 2189 1695 
L 493 1695 
C 403 1695 294 1695 294 1587 
C 294 1472 397 1472 493 1472 
L 2189 1472 
L 2189 -218 
C 2189 -307 2189 -416 2298 -416 
C 2413 -416 2413 -314 2413 -218 
L 2413 1472 
z
" transform="scale(0.015625)"/>
     <path id="CMEX10-11" d="M 2662 -5498 
C 2662 -3661 2234 -1709 973 -269 
C 883 -166 646 83 493 218 
C 448 256 435 256 352 256 
C 288 256 230 256 230 192 
C 230 166 256 141 269 128 
C 486 -96 832 -448 1229 -1152 
C 1920 -2381 2176 -3962 2176 -5498 
C 2176 -8275 1408 -9971 256 -11142 
C 243 -11155 230 -11174 230 -11194 
C 230 -11258 288 -11258 352 -11258 
C 435 -11258 448 -11258 506 -11206 
C 1114 -10682 1798 -9792 2240 -8442 
C 2522 -7565 2662 -6528 2662 -5498 
z
" transform="scale(0.015625)"/>
     <path id="CMR17-5b" d="M 1504 -1600 
L 1504 -1377 
L 902 -1377 
L 902 4544 
L 1504 4544 
L 1504 4767 
L 678 4767 
L 678 -1600 
L 1504 -1600 
z
" transform="scale(0.015625)"/>
     <path id="CMR17-4d" d="M 1338 4224 
C 1299 4320 1293 4320 1158 4320 
L 339 4320 
L 339 4160 
C 781 4160 851 4160 851 3875 
L 851 610 
C 851 451 851 153 339 153 
L 339 -13 
C 486 0 755 0 915 0 
C 1075 0 1344 0 1491 -13 
L 1491 153 
C 979 153 979 451 979 610 
L 979 4135 
L 986 4135 
L 2490 89 
C 2515 25 2528 -13 2579 -13 
C 2630 -13 2643 25 2669 89 
L 4186 4166 
L 4192 4166 
L 4192 438 
C 4192 153 4122 153 3680 153 
L 3680 -13 
C 3853 0 4198 0 4384 0 
C 4570 0 4922 0 5094 -13 
L 5094 153 
C 4653 153 4582 153 4582 438 
L 4582 3875 
C 4582 4160 4653 4160 5094 4160 
L 5094 4320 
L 4282 4320 
C 4147 4320 4141 4314 4102 4218 
L 2720 502 
L 1338 4224 
z
" transform="scale(0.015625)"/>
     <path id="CMR17-65" d="M 2438 1472 
C 2464 1498 2464 1511 2464 1576 
C 2464 2238 2118 2816 1389 2816 
C 710 2816 173 2169 173 1383 
C 173 551 781 -64 1459 -64 
C 2176 -64 2458 607 2458 740 
C 2458 784 2419 784 2406 784 
C 2362 784 2355 771 2330 696 
C 2189 265 1837 51 1504 51 
C 1229 51 954 203 781 480 
C 582 803 582 1176 582 1472 
L 2438 1472 
z
M 589 1568 
C 634 2505 1126 2714 1382 2714 
C 1818 2714 2112 2297 2118 1568 
L 589 1568 
z
" transform="scale(0.015625)"/>
     <path id="CMR17-56" d="M 3776 3745 
C 3834 3886 3936 4160 4365 4160 
L 4365 4332 
C 4218 4319 4051 4319 3891 4319 
C 3738 4319 3475 4319 3328 4332 
L 3328 4160 
C 3648 4160 3661 3936 3661 3898 
C 3661 3827 3642 3783 3622 3732 
L 2362 446 
L 1043 3886 
C 1024 3931 1011 3963 1011 3994 
C 1011 4160 1267 4160 1402 4160 
L 1402 4319 
C 1197 4319 896 4319 685 4319 
C 518 4319 218 4319 64 4332 
L 64 4160 
C 435 4160 506 4135 582 3931 
L 2106 -26 
C 2138 -115 2144 -128 2214 -128 
C 2285 -128 2291 -115 2323 -26 
L 3776 3745 
z
" transform="scale(0.015625)"/>
     <path id="CMR17-5d" d="M 915 4767 
L 90 4767 
L 90 4544 
L 691 4544 
L 691 -1377 
L 90 -1377 
L 90 -1600 
L 915 -1600 
L 915 4767 
z
" transform="scale(0.015625)"/>
    </defs>
    <use xlink:href="#CMSY10-3c" transform="scale(0.996264)"/>
    <use xlink:href="#CMEX10-10" transform="translate(88.556995 110.586308) scale(0.996264)"/>
    <use xlink:href="#CMR17-45" transform="translate(148.056285 0) scale(0.996264)"/>
    <use xlink:href="#CMR17-30" transform="translate(210.642585 36.153639) scale(0.697382)"/>
    <use xlink:href="#CMR17-2b" transform="translate(242.625767 61.461065) scale(0.498132)"/>
    <use xlink:href="#CMR17-30" transform="translate(278.981286 36.153639) scale(0.697382)"/>
    <use xlink:href="#CMEX10-11" transform="translate(311.4626 110.586308) scale(0.996264)"/>
    <use xlink:href="#CMR17-5b" transform="translate(387.566295 0) scale(0.996264)"/>
    <use xlink:href="#CMR17-4d" transform="translate(412.437353 0) scale(0.996264)"/>
    <use xlink:href="#CMR17-65" transform="translate(497.124294 0) scale(0.996264)"/>
    <use xlink:href="#CMR17-56" transform="translate(537.609954 0) scale(0.996264)"/>
    <use xlink:href="#CMR17-5d" transform="translate(607.98355 0) scale(0.996264)"/>
   </g>
  </g>
  <g id="text_30">
   <!-- $\mathrm{\Im}\left(\mathrm{E^{0^{+}0}}\right)\ [\SI[]{}{\mega\eV}]$ -->
   <g transform="translate(26.172784 129.785998) rotate(-90) scale(0.12 -0.12)">
    <defs>
     <path id="CMSY10-3d" d="M 1837 2150 
C 1837 2195 1798 2214 1773 2221 
C 806 2278 550 2918 550 3296 
C 550 3936 1133 4371 1715 4371 
C 2080 4371 2285 4143 2560 3799 
C 2848 3437 3155 3050 3706 3050 
C 4154 3050 4435 3254 4435 3495 
C 4435 3578 4371 3578 4333 3578 
C 4250 3578 4243 3546 4237 3490 
C 4186 3191 3731 3191 3718 3191 
C 3629 3191 3590 3210 3488 3394 
C 2918 4448 2010 4512 1741 4512 
C 966 4512 352 3974 352 3296 
C 352 2509 1139 2080 1728 2080 
C 1766 2080 1837 2080 1837 2150 
z
M 525 1171 
C 410 1171 352 1171 352 1101 
C 352 1088 352 1037 410 1030 
C 634 1018 838 998 1338 550 
C 2016 -70 2157 -70 2669 -70 
C 3002 -70 3270 -70 3584 147 
C 3808 301 3994 557 3994 883 
C 3994 1114 3904 1248 3667 1504 
C 3418 1786 3398 1894 3398 2042 
C 3398 2317 3469 2618 3706 2618 
C 3712 2618 4179 2618 4237 2170 
C 4243 2131 4250 2086 4333 2086 
C 4416 2086 4435 2118 4435 2176 
C 4435 2451 4147 2758 3693 2758 
C 3232 2758 2861 2426 2861 2022 
C 2861 1766 3008 1606 3200 1389 
C 3437 1120 3456 1018 3456 883 
C 3456 288 2797 77 2682 77 
C 2643 77 2464 128 2259 275 
C 2144 358 1965 525 1939 544 
C 1472 986 1229 1171 781 1171 
L 525 1171 
z
" transform="scale(0.015625)"/>
    </defs>
    <use xlink:href="#CMSY10-3d" transform="scale(0.996264)"/>
    <use xlink:href="#CMEX10-10" transform="translate(88.556995 110.586308) scale(0.996264)"/>
    <use xlink:href="#CMR17-45" transform="translate(148.056285 0) scale(0.996264)"/>
    <use xlink:href="#CMR17-30" transform="translate(210.642585 36.153639) scale(0.697382)"/>
    <use xlink:href="#CMR17-2b" transform="translate(242.625767 61.461065) scale(0.498132)"/>
    <use xlink:href="#CMR17-30" transform="translate(278.981286 36.153639) scale(0.697382)"/>
    <use xlink:href="#CMEX10-11" transform="translate(311.4626 110.586308) scale(0.996264)"/>
    <use xlink:href="#CMR17-5b" transform="translate(415.261465 0) scale(0.996264)"/>
    <use xlink:href="#CMR17-4d" transform="translate(440.132523 0) scale(0.996264)"/>
    <use xlink:href="#CMR17-65" transform="translate(524.819464 0) scale(0.996264)"/>
    <use xlink:href="#CMR17-56" transform="translate(565.305124 0) scale(0.996264)"/>
    <use xlink:href="#CMR17-5d" transform="translate(635.67872 0) scale(0.996264)"/>
   </g>
  </g>
 </g>
 <defs>
  <clipPath id="pc7c38ccdc7">
   <rect x="60.2784" y="20.9952" width="162.288" height="127.7208"/>
  </clipPath>
  <clipPath id="pc77f157f4b">
   <rect x="255.024" y="20.9952" width="162.288" height="127.7208"/>
  </clipPath>
 </defs>
</svg>
