<?xml version="1.0" encoding="utf-8" standalone="no"?>
<!DOCTYPE svg PUBLIC "-//W3C//DTD SVG 1.1//EN"
  "http://www.w3.org/Graphics/SVG/1.1/DTD/svg11.dtd">
<svg xmlns:xlink="http://www.w3.org/1999/xlink" width="305.28pt" height="207.36pt" viewBox="0 0 305.28 207.36" xmlns="http://www.w3.org/2000/svg" version="1.1">
 <metadata>
  <rdf:RDF xmlns:dc="http://purl.org/dc/elements/1.1/" xmlns:cc="http://creativecommons.org/ns#" xmlns:rdf="http://www.w3.org/1999/02/22-rdf-syntax-ns#">
   <cc:Work>
    <dc:type rdf:resource="http://purl.org/dc/dcmitype/StillImage"/>
    <dc:date>2024-11-20T17:19:07.324189</dc:date>
    <dc:format>image/svg+xml</dc:format>
    <dc:creator>
     <cc:Agent>
      <dc:title>Matplotlib v3.8.0, https://matplotlib.org/</dc:title>
     </cc:Agent>
    </dc:creator>
   </cc:Work>
  </rdf:RDF>
 </metadata>
 <defs>
  <style type="text/css">*{stroke-linejoin: round; stroke-linecap: butt}</style>
 </defs>
 <g id="figure_1">
  <g id="patch_1">
   <path d="M 0 207.36 
L 305.28 207.36 
L 305.28 0 
L 0 0 
z
" style="fill: #ffffff"/>
  </g>
  <g id="axes_1">
   <g id="patch_2">
    <path d="M 39.404507 177.312897 
L 292.332498 177.312897 
L 292.332498 26.010517 
L 39.404507 26.010517 
z
" style="fill: #ffffff"/>
   </g>
   <g id="PathCollection_1">
    <defs>
     <path id="m9ac76f49f2" d="M -2.738613 0 
L 2.738613 0 
M 0 2.738613 
L 0 -2.738613 
" style="stroke: #1f77b4"/>
    </defs>
    <g clip-path="url(#p6204432c04)">
     <use xlink:href="#m9ac76f49f2" x="45.885121" y="47.498013" style="fill: #1f77b4; stroke: #1f77b4"/>
     <use xlink:href="#m9ac76f49f2" x="167.011553" y="59.509728" style="fill: #1f77b4; stroke: #1f77b4"/>
     <use xlink:href="#m9ac76f49f2" x="211.338861" y="129.937636" style="fill: #1f77b4; stroke: #1f77b4"/>
     <use xlink:href="#m9ac76f49f2" x="217.371464" y="103.742547" style="fill: #1f77b4; stroke: #1f77b4"/>
     <use xlink:href="#m9ac76f49f2" x="227.072587" y="90.500671" style="fill: #1f77b4; stroke: #1f77b4"/>
     <use xlink:href="#m9ac76f49f2" x="251.488688" y="120.549107" style="fill: #1f77b4; stroke: #1f77b4"/>
     <use xlink:href="#m9ac76f49f2" x="254.386819" y="108.513651" style="fill: #1f77b4; stroke: #1f77b4"/>
     <use xlink:href="#m9ac76f49f2" x="267.071065" y="137.968658" style="fill: #1f77b4; stroke: #1f77b4"/>
     <use xlink:href="#m9ac76f49f2" x="276.368219" y="143.582625" style="fill: #1f77b4; stroke: #1f77b4"/>
     <use xlink:href="#m9ac76f49f2" x="281.841032" y="159.070153" style="fill: #1f77b4; stroke: #1f77b4"/>
     <use xlink:href="#m9ac76f49f2" x="284.653619" y="190.452428" style="fill: #1f77b4; stroke: #1f77b4"/>
     <use xlink:href="#m9ac76f49f2" x="292.817896" y="242.264847" style="fill: #1f77b4; stroke: #1f77b4"/>
     <use xlink:href="#m9ac76f49f2" x="293.07388" y="163.870761" style="fill: #1f77b4; stroke: #1f77b4"/>
     <use xlink:href="#m9ac76f49f2" x="298.273277" y="165.724215" style="fill: #1f77b4; stroke: #1f77b4"/>
     <use xlink:href="#m9ac76f49f2" x="303.302233" y="170.910645" style="fill: #1f77b4; stroke: #1f77b4"/>
     <use xlink:href="#m9ac76f49f2" x="313.728245" y="181.380769" style="fill: #1f77b4; stroke: #1f77b4"/>
     <use xlink:href="#m9ac76f49f2" x="313.912942" y="193.865377" style="fill: #1f77b4; stroke: #1f77b4"/>
     <use xlink:href="#m9ac76f49f2" x="318.274396" y="186.286208" style="fill: #1f77b4; stroke: #1f77b4"/>
     <use xlink:href="#m9ac76f49f2" x="318.940603" y="183.832948" style="fill: #1f77b4; stroke: #1f77b4"/>
     <use xlink:href="#m9ac76f49f2" x="323.151706" y="227.872748" style="fill: #1f77b4; stroke: #1f77b4"/>
    </g>
   </g>
   <g id="PathCollection_2">
    <defs>
     <path id="m197261adbc" d="M -2.738613 0 
L 2.738613 0 
M 0 2.738613 
L 0 -2.738613 
" style="stroke: #ff7f0e"/>
    </defs>
    <g clip-path="url(#p6204432c04)">
     <use xlink:href="#m197261adbc" x="47.43982" y="47.446474" style="fill: #ff7f0e; stroke: #ff7f0e"/>
     <use xlink:href="#m197261adbc" x="167.407324" y="62.423164" style="fill: #ff7f0e; stroke: #ff7f0e"/>
     <use xlink:href="#m197261adbc" x="218.130227" y="145.256786" style="fill: #ff7f0e; stroke: #ff7f0e"/>
     <use xlink:href="#m197261adbc" x="221.119559" y="111.959023" style="fill: #ff7f0e; stroke: #ff7f0e"/>
     <use xlink:href="#m197261adbc" x="230.381847" y="95.459066" style="fill: #ff7f0e; stroke: #ff7f0e"/>
     <use xlink:href="#m197261adbc" x="256.459514" y="130.993618" style="fill: #ff7f0e; stroke: #ff7f0e"/>
     <use xlink:href="#m197261adbc" x="259.480192" y="114.51452" style="fill: #ff7f0e; stroke: #ff7f0e"/>
     <use xlink:href="#m197261adbc" x="273.580842" y="149.724313" style="fill: #ff7f0e; stroke: #ff7f0e"/>
     <use xlink:href="#m197261adbc" x="283.158541" y="157.149693" style="fill: #ff7f0e; stroke: #ff7f0e"/>
     <use xlink:href="#m197261adbc" x="290.525703" y="171.28782" style="fill: #ff7f0e; stroke: #ff7f0e"/>
     <use xlink:href="#m197261adbc" x="295.939608" y="207.27401" style="fill: #ff7f0e; stroke: #ff7f0e"/>
     <use xlink:href="#m197261adbc" x="302.519375" y="176.77145" style="fill: #ff7f0e; stroke: #ff7f0e"/>
     <use xlink:href="#m197261adbc" x="308.366185" y="179.239841" style="fill: #ff7f0e; stroke: #ff7f0e"/>
     <use xlink:href="#m197261adbc" x="308.617633" y="268.539586" style="fill: #ff7f0e; stroke: #ff7f0e"/>
     <use xlink:href="#m197261adbc" x="313.152766" y="184.861805" style="fill: #ff7f0e; stroke: #ff7f0e"/>
     <use xlink:href="#m197261adbc" x="324.39728" y="198.260711" style="fill: #ff7f0e; stroke: #ff7f0e"/>
     <use xlink:href="#m197261adbc" x="325.917632" y="210.683717" style="fill: #ff7f0e; stroke: #ff7f0e"/>
     <use xlink:href="#m197261adbc" x="329.495578" y="201.061967" style="fill: #ff7f0e; stroke: #ff7f0e"/>
     <use xlink:href="#m197261adbc" x="329.701662" y="198.293133" style="fill: #ff7f0e; stroke: #ff7f0e"/>
     <use xlink:href="#m197261adbc" x="337.014387" y="252.33402" style="fill: #ff7f0e; stroke: #ff7f0e"/>
    </g>
   </g>
   <g id="PathCollection_3">
    <defs>
     <path id="m05b0151859" d="M -2.738613 0 
L 2.738613 0 
M 0 2.738613 
L 0 -2.738613 
" style="stroke: #2ca02c"/>
    </defs>
    <g clip-path="url(#p6204432c04)">
     <use xlink:href="#m05b0151859" x="47.019876" y="47.052627" style="fill: #2ca02c; stroke: #2ca02c"/>
     <use xlink:href="#m05b0151859" x="167.519244" y="65.538264" style="fill: #2ca02c; stroke: #2ca02c"/>
     <use xlink:href="#m05b0151859" x="225.104683" y="158.647587" style="fill: #2ca02c; stroke: #2ca02c"/>
     <use xlink:href="#m05b0151859" x="225.381146" y="119.08677" style="fill: #2ca02c; stroke: #2ca02c"/>
     <use xlink:href="#m05b0151859" x="233.723057" y="99.804902" style="fill: #2ca02c; stroke: #2ca02c"/>
     <use xlink:href="#m05b0151859" x="261.85767" y="141.61645" style="fill: #2ca02c; stroke: #2ca02c"/>
     <use xlink:href="#m05b0151859" x="264.478431" y="120.47994" style="fill: #2ca02c; stroke: #2ca02c"/>
     <use xlink:href="#m05b0151859" x="280.690075" y="161.146237" style="fill: #2ca02c; stroke: #2ca02c"/>
     <use xlink:href="#m05b0151859" x="291.362998" y="170.108742" style="fill: #2ca02c; stroke: #2ca02c"/>
     <use xlink:href="#m05b0151859" x="299.181211" y="183.921568" style="fill: #2ca02c; stroke: #2ca02c"/>
     <use xlink:href="#m05b0151859" x="308.339614" y="224.084785" style="fill: #2ca02c; stroke: #2ca02c"/>
     <use xlink:href="#m05b0151859" x="312.340097" y="189.612699" style="fill: #2ca02c; stroke: #2ca02c"/>
     <use xlink:href="#m05b0151859" x="317.921202" y="191.648797" style="fill: #2ca02c; stroke: #2ca02c"/>
     <use xlink:href="#m05b0151859" x="323.608589" y="198.549266" style="fill: #2ca02c; stroke: #2ca02c"/>
     <use xlink:href="#m05b0151859" x="325.073208" y="294.124818" style="fill: #2ca02c; stroke: #2ca02c"/>
     <use xlink:href="#m05b0151859" x="336.214031" y="213.387707" style="fill: #2ca02c; stroke: #2ca02c"/>
     <use xlink:href="#m05b0151859" x="338.394757" y="226.838488" style="fill: #2ca02c; stroke: #2ca02c"/>
     <use xlink:href="#m05b0151859" x="340.863223" y="213.02242" style="fill: #2ca02c; stroke: #2ca02c"/>
     <use xlink:href="#m05b0151859" x="340.981171" y="215.955524" style="fill: #2ca02c; stroke: #2ca02c"/>
     <use xlink:href="#m05b0151859" x="349.660009" y="238.764358" style="fill: #2ca02c; stroke: #2ca02c"/>
    </g>
   </g>
   <g id="PathCollection_4">
    <defs>
     <path id="mf9fd466fd5" d="M -2.738613 0 
L 2.738613 0 
M 0 2.738613 
L 0 -2.738613 
" style="stroke: #d62728"/>
    </defs>
    <g clip-path="url(#p6204432c04)">
     <use xlink:href="#mf9fd466fd5" x="47.096995" y="47.198961" style="fill: #d62728; stroke: #d62728"/>
     <use xlink:href="#mf9fd466fd5" x="167.851505" y="69.323633" style="fill: #d62728; stroke: #d62728"/>
     <use xlink:href="#mf9fd466fd5" x="229.518241" y="125.97708" style="fill: #d62728; stroke: #d62728"/>
     <use xlink:href="#mf9fd466fd5" x="232.088128" y="172.621442" style="fill: #d62728; stroke: #d62728"/>
     <use xlink:href="#mf9fd466fd5" x="236.89966" y="104.29037" style="fill: #d62728; stroke: #d62728"/>
     <use xlink:href="#mf9fd466fd5" x="267.260623" y="152.842871" style="fill: #d62728; stroke: #d62728"/>
     <use xlink:href="#mf9fd466fd5" x="269.257948" y="126.817673" style="fill: #d62728; stroke: #d62728"/>
     <use xlink:href="#mf9fd466fd5" x="287.910775" y="172.865687" style="fill: #d62728; stroke: #d62728"/>
     <use xlink:href="#mf9fd466fd5" x="299.884357" y="182.525264" style="fill: #d62728; stroke: #d62728"/>
     <use xlink:href="#mf9fd466fd5" x="307.801075" y="197.050292" style="fill: #d62728; stroke: #d62728"/>
     <use xlink:href="#mf9fd466fd5" x="320.37217" y="239.582472" style="fill: #d62728; stroke: #d62728"/>
     <use xlink:href="#mf9fd466fd5" x="322.177021" y="202.385862" style="fill: #d62728; stroke: #d62728"/>
     <use xlink:href="#mf9fd466fd5" x="327.116545" y="205.240074" style="fill: #d62728; stroke: #d62728"/>
     <use xlink:href="#mf9fd466fd5" x="333.66715" y="212.821404" style="fill: #d62728; stroke: #d62728"/>
     <use xlink:href="#mf9fd466fd5" x="341.689502" y="320.189895" style="fill: #d62728; stroke: #d62728"/>
     <use xlink:href="#mf9fd466fd5" x="347.767669" y="228.962125" style="fill: #d62728; stroke: #d62728"/>
     <use xlink:href="#mf9fd466fd5" x="350.736439" y="244.433874" style="fill: #d62728; stroke: #d62728"/>
     <use xlink:href="#mf9fd466fd5" x="351.980068" y="231.564526" style="fill: #d62728; stroke: #d62728"/>
     <use xlink:href="#mf9fd466fd5" x="352.062372" y="227.612292" style="fill: #d62728; stroke: #d62728"/>
     <use xlink:href="#mf9fd466fd5" x="362.395063" y="257.89114" style="fill: #d62728; stroke: #d62728"/>
    </g>
   </g>
   <g id="matplotlib.axis_1">
    <g id="xtick_1">
     <g id="line2d_1">
      <defs>
       <path id="meaa861cd84" d="M 0 0 
L 0 3.5 
" style="stroke: #000000; stroke-width: 0.8"/>
      </defs>
      <g>
       <use xlink:href="#meaa861cd84" x="84.952853" y="177.312897" style="stroke: #000000; stroke-width: 0.8"/>
      </g>
     </g>
     <g id="text_1">
      <!-- $\mathdefault{−20}$ -->
      <g transform="translate(75.211582 192.121049) scale(0.11 -0.11)">
       <defs>
        <path id="CMSY10-0" d="M 4218 1472 
C 4326 1472 4442 1472 4442 1600 
C 4442 1728 4326 1728 4218 1728 
L 755 1728 
C 646 1728 531 1728 531 1600 
C 531 1472 646 1472 755 1472 
L 4218 1472 
z
" transform="scale(0.015625)"/>
        <path id="CMR17-32" d="M 2669 989 
L 2554 989 
C 2490 536 2438 459 2413 420 
C 2381 369 1920 369 1830 369 
L 602 369 
C 832 619 1280 1072 1824 1597 
C 2214 1967 2669 2402 2669 3035 
C 2669 3790 2067 4224 1395 4224 
C 691 4224 262 3604 262 3030 
C 262 2780 448 2748 525 2748 
C 589 2748 781 2787 781 3010 
C 781 3207 614 3264 525 3264 
C 486 3264 448 3258 422 3245 
C 544 3790 915 4058 1306 4058 
C 1862 4058 2227 3617 2227 3035 
C 2227 2479 1901 2000 1536 1584 
L 262 146 
L 262 0 
L 2515 0 
L 2669 989 
z
" transform="scale(0.015625)"/>
        <path id="CMR17-30" d="M 2688 2025 
C 2688 2416 2682 3080 2413 3591 
C 2176 4039 1798 4198 1466 4198 
C 1158 4198 768 4058 525 3597 
C 269 3118 243 2524 243 2025 
C 243 1661 250 1106 448 619 
C 723 -39 1216 -128 1466 -128 
C 1760 -128 2208 -7 2470 600 
C 2662 1042 2688 1559 2688 2025 
z
M 1466 -26 
C 1056 -26 813 325 723 812 
C 653 1188 653 1738 653 2096 
C 653 2588 653 2997 736 3387 
C 858 3929 1216 4096 1466 4096 
C 1728 4096 2067 3923 2189 3400 
C 2272 3036 2278 2607 2278 2096 
C 2278 1680 2278 1169 2202 792 
C 2067 95 1690 -26 1466 -26 
z
" transform="scale(0.015625)"/>
       </defs>
       <use xlink:href="#CMSY10-0" transform="scale(0.996264)"/>
       <use xlink:href="#CMR17-32" transform="translate(77.487468 0) scale(0.996264)"/>
       <use xlink:href="#CMR17-30" transform="translate(123.177945 0) scale(0.996264)"/>
      </g>
     </g>
    </g>
    <g id="xtick_2">
     <g id="line2d_2">
      <g>
       <use xlink:href="#meaa861cd84" x="149.758992" y="177.312897" style="stroke: #000000; stroke-width: 0.8"/>
      </g>
     </g>
     <g id="text_2">
      <!-- $\mathdefault{−10}$ -->
      <g transform="translate(140.017721 192.121049) scale(0.11 -0.11)">
       <defs>
        <path id="CMR17-31" d="M 1702 4058 
C 1702 4192 1696 4192 1606 4192 
C 1357 3916 979 3827 621 3827 
C 602 3827 570 3827 563 3808 
C 557 3795 557 3782 557 3648 
C 755 3648 1088 3686 1344 3839 
L 1344 461 
C 1344 236 1331 160 781 160 
L 589 160 
L 589 0 
C 896 0 1216 0 1523 0 
C 1830 0 2150 0 2458 0 
L 2458 160 
L 2266 160 
C 1715 160 1702 230 1702 458 
L 1702 4058 
z
" transform="scale(0.015625)"/>
       </defs>
       <use xlink:href="#CMSY10-0" transform="scale(0.996264)"/>
       <use xlink:href="#CMR17-31" transform="translate(77.487468 0) scale(0.996264)"/>
       <use xlink:href="#CMR17-30" transform="translate(123.177945 0) scale(0.996264)"/>
      </g>
     </g>
    </g>
    <g id="xtick_3">
     <g id="line2d_3">
      <g>
       <use xlink:href="#meaa861cd84" x="214.565131" y="177.312897" style="stroke: #000000; stroke-width: 0.8"/>
      </g>
     </g>
     <g id="text_3">
      <!-- $\mathdefault{0}$ -->
      <g transform="translate(211.825398 192.121049) scale(0.11 -0.11)">
       <use xlink:href="#CMR17-30" transform="scale(0.996264)"/>
      </g>
     </g>
    </g>
    <g id="xtick_4">
     <g id="line2d_4">
      <g>
       <use xlink:href="#meaa861cd84" x="279.37127" y="177.312897" style="stroke: #000000; stroke-width: 0.8"/>
      </g>
     </g>
     <g id="text_4">
      <!-- $\mathdefault{10}$ -->
      <g transform="translate(273.891803 192.121049) scale(0.11 -0.11)">
       <use xlink:href="#CMR17-31" transform="scale(0.996264)"/>
       <use xlink:href="#CMR17-30" transform="translate(45.690477 0) scale(0.996264)"/>
      </g>
     </g>
    </g>
   </g>
   <g id="matplotlib.axis_2">
    <g id="ytick_1">
     <g id="line2d_5">
      <defs>
       <path id="m4f7f86fdc3" d="M 0 0 
L -3.5 0 
" style="stroke: #000000; stroke-width: 0.8"/>
      </defs>
      <g>
       <use xlink:href="#m4f7f86fdc3" x="39.404507" y="155.698271" style="stroke: #000000; stroke-width: 0.8"/>
      </g>
     </g>
     <g id="text_5">
      <!-- $\mathdefault{−10}$ -->
      <g transform="translate(12.921963 159.602347) scale(0.11 -0.11)">
       <use xlink:href="#CMSY10-0" transform="scale(0.996264)"/>
       <use xlink:href="#CMR17-31" transform="translate(77.487468 0) scale(0.996264)"/>
       <use xlink:href="#CMR17-30" transform="translate(123.177945 0) scale(0.996264)"/>
      </g>
     </g>
    </g>
    <g id="ytick_2">
     <g id="line2d_6">
      <g>
       <use xlink:href="#m4f7f86fdc3" x="39.404507" y="101.661707" style="stroke: #000000; stroke-width: 0.8"/>
      </g>
     </g>
     <g id="text_6">
      <!-- $\mathdefault{−5}$ -->
      <g transform="translate(18.40143 105.565783) scale(0.11 -0.11)">
       <defs>
        <path id="CMR17-35" d="M 730 3692 
C 794 3666 1056 3584 1325 3584 
C 1920 3584 2246 3911 2432 4100 
C 2432 4157 2432 4192 2394 4192 
C 2387 4192 2374 4192 2323 4163 
C 2099 4058 1837 3973 1517 3973 
C 1325 3973 1037 3999 723 4139 
C 653 4171 640 4171 634 4171 
C 602 4171 595 4164 595 4037 
L 595 2203 
C 595 2089 595 2057 659 2057 
C 691 2057 704 2070 736 2114 
C 941 2401 1222 2522 1542 2522 
C 1766 2522 2246 2382 2246 1289 
C 2246 1085 2246 715 2054 421 
C 1894 159 1645 25 1370 25 
C 947 25 518 320 403 814 
C 429 807 480 795 506 795 
C 589 795 749 840 749 1038 
C 749 1210 627 1280 506 1280 
C 358 1280 262 1190 262 1011 
C 262 454 704 -128 1382 -128 
C 2042 -128 2669 440 2669 1264 
C 2669 2030 2170 2624 1549 2624 
C 1222 2624 947 2503 730 2274 
L 730 3692 
z
" transform="scale(0.015625)"/>
       </defs>
       <use xlink:href="#CMSY10-0" transform="scale(0.996264)"/>
       <use xlink:href="#CMR17-35" transform="translate(77.487468 0) scale(0.996264)"/>
      </g>
     </g>
    </g>
    <g id="ytick_3">
     <g id="line2d_7">
      <g>
       <use xlink:href="#m4f7f86fdc3" x="39.404507" y="47.625143" style="stroke: #000000; stroke-width: 0.8"/>
      </g>
     </g>
     <g id="text_7">
      <!-- $\mathdefault{0}$ -->
      <g transform="translate(26.925039 51.529219) scale(0.11 -0.11)">
       <use xlink:href="#CMR17-30" transform="scale(0.996264)"/>
      </g>
     </g>
    </g>
   </g>
   <g id="line2d_8">
    <path d="M 167.904711 47.625143 
L 174.551495 60.137525 
L 181.198278 72.649907 
L 187.845062 85.16229 
L 194.491845 97.674672 
L 201.138629 110.187055 
L 207.785412 122.699437 
L 214.432196 135.211819 
L 221.078979 147.724202 
L 227.725763 160.236584 
L 234.372546 172.748967 
L 241.01933 185.261349 
L 247.666113 197.773731 
L 253.289713 208.36 
" clip-path="url(#p6204432c04)" style="fill: none; stroke-dasharray: 1.85,0.8; stroke-dashoffset: 0; stroke: #000000; stroke-width: 0.5"/>
   </g>
   <g id="line2d_9">
    <path d="M 186.05043 47.625143 
L 192.697214 59.758362 
L 199.343997 71.891581 
L 205.990781 84.024801 
L 212.637564 96.15802 
L 219.284348 108.291239 
L 225.931131 120.424458 
L 232.577915 132.557678 
L 239.224698 144.690897 
L 245.871482 156.824116 
L 252.518265 168.957336 
L 259.165049 181.090555 
L 265.811832 193.223774 
L 272.458615 205.356993 
L 274.103713 208.36 
" clip-path="url(#p6204432c04)" style="fill: none; stroke-dasharray: 1.85,0.8; stroke-dashoffset: 0; stroke: #000000; stroke-width: 0.5"/>
   </g>
   <g id="line2d_10">
    <path d="M 199.724526 47.625143 
L 206.371309 57.862546 
L 213.018092 68.09995 
L 219.664876 78.337354 
L 226.311659 88.574758 
L 232.958443 98.812162 
L 239.605226 109.049565 
L 246.25201 119.286969 
L 252.898793 129.524373 
L 259.545577 139.761777 
L 266.19236 149.99918 
L 272.839144 160.236584 
L 279.485927 170.473988 
L 286.132711 180.711392 
L 292.779494 190.948796 
L 299.426278 201.186199 
L 304.083972 208.36 
" clip-path="url(#p6204432c04)" style="fill: none; stroke-dasharray: 1.85,0.8; stroke-dashoffset: 0; stroke: #000000; stroke-width: 0.5"/>
   </g>
   <g id="line2d_11">
    <path d="M 211.972886 47.625143 
L 218.619669 59.758362 
L 225.266453 71.891581 
L 231.913236 84.024801 
L 238.56002 96.15802 
L 245.206803 108.291239 
L 251.853587 120.424458 
L 258.50037 132.557678 
L 265.147154 144.690897 
L 271.793937 156.824116 
L 278.440721 168.957336 
L 285.087504 181.090555 
L 291.734288 193.223774 
L 298.381071 205.356993 
L 300.026169 208.36 
" clip-path="url(#p6204432c04)" style="fill: none; stroke-dasharray: 1.85,0.8; stroke-dashoffset: 0; stroke: #000000; stroke-width: 0.5"/>
   </g>
   <g id="line2d_12">
    <path d="M 204.196149 47.625143 
L 210.842933 55.880282 
L 217.489716 64.135421 
L 224.1365 72.39056 
L 230.783283 80.645699 
L 237.430067 88.900838 
L 244.07685 97.155977 
L 250.723633 105.411116 
L 257.370417 113.666255 
L 264.0172 121.921394 
L 270.663984 130.176533 
L 277.310767 138.431673 
L 283.957551 146.686812 
L 290.604334 154.941951 
L 297.251118 163.19709 
L 303.897901 171.452229 
L 306.28 174.410736 
" clip-path="url(#p6204432c04)" style="fill: none; stroke-dasharray: 1.85,0.8; stroke-dashoffset: 0; stroke: #000000; stroke-width: 0.5"/>
   </g>
   <g id="line2d_13">
    <path d="M 39.404507 47.625143 
L 292.332498 47.625143 
" clip-path="url(#p6204432c04)" style="fill: none; stroke: #000000; stroke-width: 1.5; stroke-linecap: square"/>
   </g>
   <g id="line2d_14">
    <path d="M 214.565131 177.312897 
L 214.565131 26.010517 
" clip-path="url(#p6204432c04)" style="fill: none; stroke: #000000; stroke-width: 1.5; stroke-linecap: square"/>
   </g>
   <g id="patch_3">
    <path d="M 39.404507 177.312897 
L 39.404507 26.010517 
" style="fill: none; stroke: #000000; stroke-width: 0.8; stroke-linejoin: miter; stroke-linecap: square"/>
   </g>
   <g id="patch_4">
    <path d="M 292.332498 177.312897 
L 292.332498 26.010517 
" style="fill: none; stroke: #000000; stroke-width: 0.8; stroke-linejoin: miter; stroke-linecap: square"/>
   </g>
   <g id="patch_5">
    <path d="M 39.404507 177.312897 
L 292.332498 177.312897 
" style="fill: none; stroke: #000000; stroke-width: 0.8; stroke-linejoin: miter; stroke-linecap: square"/>
   </g>
   <g id="patch_6">
    <path d="M 39.404507 26.010517 
L 292.332498 26.010517 
" style="fill: none; stroke: #000000; stroke-width: 0.8; stroke-linejoin: miter; stroke-linecap: square"/>
   </g>
   <g id="text_8">
    <!-- $2$$\theta$$=34.38^\circ$ -->
    <g transform="translate(142.255635 20.010517) scale(0.1 -0.1)">
     <defs>
      <path id="CMMI12-12" d="M 2835 3200 
C 2835 3850 2630 4480 2106 4480 
C 1210 4480 256 2615 256 1216 
C 256 923 320 -64 992 -64 
C 1862 -64 2835 1756 2835 3200 
z
M 896 2304 
C 992 2679 1126 3214 1382 3665 
C 1594 4047 1818 4352 2099 4352 
C 2310 4352 2451 4174 2451 3564 
C 2451 3334 2432 3017 2246 2304 
L 896 2304 
z
M 2202 2113 
C 2042 1490 1907 1088 1677 687 
C 1491 363 1267 64 998 64 
C 800 64 640 217 640 846 
C 640 1260 742 1693 845 2113 
L 2202 2113 
z
" transform="scale(0.015625)"/>
      <path id="CMR17-3d" d="M 4115 2017 
C 4211 2017 4307 2017 4307 2125 
C 4307 2240 4198 2240 4090 2240 
L 512 2240 
C 403 2240 294 2240 294 2125 
C 294 2017 390 2017 486 2017 
L 4115 2017 
z
M 4090 896 
C 4198 896 4307 896 4307 1011 
C 4307 1119 4211 1119 4115 1119 
L 486 1119 
C 390 1119 294 1119 294 1011 
C 294 896 403 896 512 896 
L 4090 896 
z
" transform="scale(0.015625)"/>
      <path id="CMR17-33" d="M 1414 2157 
C 1984 2157 2234 1662 2234 1090 
C 2234 320 1824 25 1453 25 
C 1114 25 563 194 390 693 
C 422 680 454 680 486 680 
C 640 680 755 782 755 948 
C 755 1133 614 1216 486 1216 
C 378 1216 211 1165 211 926 
C 211 335 787 -128 1466 -128 
C 2176 -128 2720 430 2720 1085 
C 2720 1707 2208 2157 1600 2227 
C 2086 2328 2554 2756 2554 3329 
C 2554 3820 2048 4179 1472 4179 
C 890 4179 378 3829 378 3329 
C 378 3110 544 3072 627 3072 
C 762 3072 877 3155 877 3321 
C 877 3486 762 3569 627 3569 
C 602 3569 570 3569 544 3557 
C 730 3959 1235 4032 1459 4032 
C 1683 4032 2106 3925 2106 3320 
C 2106 3143 2080 2828 1862 2550 
C 1670 2304 1453 2304 1242 2284 
C 1210 2284 1062 2269 1037 2269 
C 992 2263 966 2257 966 2208 
C 966 2163 973 2157 1101 2157 
L 1414 2157 
z
" transform="scale(0.015625)"/>
      <path id="CMR17-34" d="M 2150 4122 
C 2150 4256 2144 4256 2029 4256 
L 128 1254 
L 128 1088 
L 1779 1088 
L 1779 457 
C 1779 224 1766 160 1318 160 
L 1197 160 
L 1197 0 
C 1402 0 1747 0 1965 0 
C 2182 0 2528 0 2733 0 
L 2733 160 
L 2611 160 
C 2163 160 2150 224 2150 457 
L 2150 1088 
L 2803 1088 
L 2803 1254 
L 2150 1254 
L 2150 4122 
z
M 1798 3703 
L 1798 1254 
L 256 1254 
L 1798 3703 
z
" transform="scale(0.015625)"/>
      <path id="CMMI12-3a" d="M 1178 307 
C 1178 492 1024 619 870 619 
C 685 619 557 466 557 313 
C 557 128 710 0 864 0 
C 1050 0 1178 153 1178 307 
z
" transform="scale(0.015625)"/>
      <path id="CMR17-38" d="M 1741 2264 
C 2144 2467 2554 2773 2554 3263 
C 2554 3841 1990 4179 1472 4179 
C 890 4179 378 3759 378 3180 
C 378 3021 416 2747 666 2505 
C 730 2442 998 2251 1171 2130 
C 883 1983 211 1634 211 934 
C 211 279 838 -128 1459 -128 
C 2144 -128 2720 362 2720 1010 
C 2720 1590 2330 1857 2074 2029 
L 1741 2264 
z
M 902 2822 
C 851 2854 595 3051 595 3351 
C 595 3739 998 4032 1459 4032 
C 1965 4032 2336 3676 2336 3262 
C 2336 2669 1670 2331 1638 2331 
C 1632 2331 1626 2331 1574 2370 
L 902 2822 
z
M 2080 1519 
C 2176 1449 2483 1240 2483 851 
C 2483 381 2010 25 1472 25 
C 890 25 448 438 448 940 
C 448 1443 838 1862 1280 2060 
L 2080 1519 
z
" transform="scale(0.015625)"/>
      <path id="CMSY10-e" d="M 2842 1600 
C 2842 2277 2272 2828 1600 2828 
C 909 2828 352 2264 352 1600 
C 352 930 909 372 1600 372 
C 2272 372 2842 923 2842 1600 
z
M 1600 628 
C 1043 628 608 1070 608 1600 
C 608 2130 1050 2572 1600 2572 
C 2131 2572 2586 2142 2586 1600 
C 2586 1058 2131 628 1600 628 
z
" transform="scale(0.015625)"/>
     </defs>
     <use xlink:href="#CMR17-32" transform="scale(0.996264)"/>
     <use xlink:href="#CMMI12-12" transform="translate(45.690477 0) scale(0.996264)"/>
     <use xlink:href="#CMR17-3d" transform="translate(93.859985 0) scale(0.996264)"/>
     <use xlink:href="#CMR17-33" transform="translate(193.248782 0) scale(0.996264)"/>
     <use xlink:href="#CMR17-34" transform="translate(238.939259 0) scale(0.996264)"/>
     <use xlink:href="#CMMI12-3a" transform="translate(284.629736 0) scale(0.996264)"/>
     <use xlink:href="#CMR17-33" transform="translate(311.726913 0) scale(0.996264)"/>
     <use xlink:href="#CMR17-38" transform="translate(357.41739 0) scale(0.996264)"/>
     <use xlink:href="#CMSY10-e" transform="translate(403.107868 36.153639) scale(0.697382)"/>
    </g>
   </g>
   <g id="legend_1">
    <g id="patch_7">
     <path d="M 45.704507 172.812897 
L 112.344935 172.812897 
Q 114.144935 172.812897 114.144935 171.012897 
L 114.144935 120.719805 
Q 114.144935 118.919805 112.344935 118.919805 
L 45.704507 118.919805 
Q 43.904507 118.919805 43.904507 120.719805 
L 43.904507 171.012897 
Q 43.904507 172.812897 45.704507 172.812897 
z
" style="fill: #ffffff; opacity: 0.8; stroke: #cccccc; stroke-linejoin: miter"/>
    </g>
    <g id="PathCollection_5">
     <defs>
      <path id="m5f984b0976" d="M -1.917029 0 
L 1.917029 0 
M 0 1.917029 
L 0 -1.917029 
" style="stroke: #1f77b4"/>
     </defs>
     <g>
      <use xlink:href="#m5f984b0976" x="56.504507" y="126.545793" style="fill: #1f77b4; stroke: #1f77b4"/>
     </g>
    </g>
    <g id="text_9">
     <!-- $\hbar\omega$$ =20.0$ -->
     <g transform="translate(72.704507 128.908293) scale(0.09 -0.09)">
      <defs>
       <path id="MSBM10-7e" d="M 1632 3520 
L 2874 3520 
C 2982 3520 3053 3520 3053 3597 
C 3053 3680 2976 3680 2854 3680 
L 1670 3680 
C 1715 3840 1715 3853 1754 4013 
C 1786 4128 1843 4352 1843 4365 
C 1843 4422 1805 4442 1754 4442 
C 1632 4442 1126 4390 973 4378 
C 922 4371 851 4365 851 4243 
C 851 4173 915 4173 1005 4173 
C 1312 4173 1325 4128 1325 4064 
C 1325 4019 1267 3808 1235 3680 
L 877 3680 
C 749 3680 678 3680 678 3597 
C 678 3520 736 3520 858 3520 
L 1197 3520 
L 378 256 
C 352 160 352 147 352 109 
C 352 -32 461 -70 538 -70 
C 659 -70 749 19 774 102 
C 787 134 858 422 896 582 
L 1043 1152 
C 1062 1248 1126 1491 1146 1587 
C 1178 1690 1222 1888 1229 1907 
C 1280 2016 1626 2688 2266 2688 
C 2547 2688 2611 2458 2611 2246 
C 2611 1850 2317 1069 2202 774 
C 2163 672 2131 582 2131 461 
C 2131 128 2368 -70 2656 -70 
C 3270 -70 3494 877 3494 915 
C 3494 979 3437 979 3418 979 
C 3354 979 3354 960 3322 864 
C 3136 211 2848 70 2675 70 
C 2554 70 2515 147 2515 282 
C 2515 442 2586 621 2624 730 
C 2733 1011 3021 1779 3021 2138 
C 3021 2605 2726 2829 2285 2829 
C 2086 2829 1702 2784 1338 2342 
L 1632 3520 
z
" transform="scale(0.015625)"/>
       <path id="CMMI12-21" d="M 3802 2395 
C 3802 2580 3750 2816 3526 2816 
C 3398 2816 3251 2657 3251 2529 
C 3251 2472 3277 2434 3328 2376 
C 3424 2268 3546 2096 3546 1797 
C 3546 1567 3405 1204 3302 1007 
C 3123 656 2829 357 2496 357 
C 2093 357 1939 615 1869 975 
C 1939 1143 2086 1560 2086 1728 
C 2086 1798 2061 1856 1978 1856 
C 1933 1856 1882 1831 1850 1779 
C 1760 1638 1677 1129 1683 994 
C 1562 756 1216 357 806 357 
C 378 357 262 733 262 1096 
C 262 1758 678 2338 794 2497 
C 858 2593 902 2657 902 2669 
C 902 2714 877 2784 819 2784 
C 717 2784 685 2701 634 2625 
C 307 2121 77 1414 77 803 
C 77 408 224 -64 704 -64 
C 1235 -64 1568 391 1702 634 
C 1754 275 1946 -64 2413 -64 
C 2899 -64 3206 363 3437 879 
C 3603 1249 3802 2045 3802 2395 
z
" transform="scale(0.015625)"/>
      </defs>
      <use xlink:href="#MSBM10-7e" transform="scale(0.996264)"/>
      <use xlink:href="#CMMI12-21" transform="translate(53.826182 0) scale(0.996264)"/>
      <use xlink:href="#CMR17-3d" transform="translate(118.144528 0) scale(0.996264)"/>
      <use xlink:href="#CMR17-32" transform="translate(217.533325 0) scale(0.996264)"/>
      <use xlink:href="#CMR17-30" transform="translate(263.223802 0) scale(0.996264)"/>
      <use xlink:href="#CMMI12-3a" transform="translate(308.91428 0) scale(0.996264)"/>
      <use xlink:href="#CMR17-30" transform="translate(336.011457 0) scale(0.996264)"/>
     </g>
    </g>
    <g id="PathCollection_6">
     <defs>
      <path id="m6ad950ec1e" d="M -1.917029 0 
L 1.917029 0 
M 0 1.917029 
L 0 -1.917029 
" style="stroke: #ff7f0e"/>
     </defs>
     <g>
      <use xlink:href="#m6ad950ec1e" x="56.504507" y="139.344066" style="fill: #ff7f0e; stroke: #ff7f0e"/>
     </g>
    </g>
    <g id="text_10">
     <!-- $\hbar\omega$$ =22.0$ -->
     <g transform="translate(72.704507 141.706566) scale(0.09 -0.09)">
      <use xlink:href="#MSBM10-7e" transform="scale(0.996264)"/>
      <use xlink:href="#CMMI12-21" transform="translate(53.826182 0) scale(0.996264)"/>
      <use xlink:href="#CMR17-3d" transform="translate(118.144528 0) scale(0.996264)"/>
      <use xlink:href="#CMR17-32" transform="translate(217.533325 0) scale(0.996264)"/>
      <use xlink:href="#CMR17-32" transform="translate(263.223802 0) scale(0.996264)"/>
      <use xlink:href="#CMMI12-3a" transform="translate(308.91428 0) scale(0.996264)"/>
      <use xlink:href="#CMR17-30" transform="translate(336.011457 0) scale(0.996264)"/>
     </g>
    </g>
    <g id="PathCollection_7">
     <defs>
      <path id="ma56e84cca1" d="M -1.917029 0 
L 1.917029 0 
M 0 1.917029 
L 0 -1.917029 
" style="stroke: #2ca02c"/>
     </defs>
     <g>
      <use xlink:href="#ma56e84cca1" x="56.504507" y="152.142339" style="fill: #2ca02c; stroke: #2ca02c"/>
     </g>
    </g>
    <g id="text_11">
     <!-- $\hbar\omega$$ =24.0$ -->
     <g transform="translate(72.704507 154.504839) scale(0.09 -0.09)">
      <use xlink:href="#MSBM10-7e" transform="scale(0.996264)"/>
      <use xlink:href="#CMMI12-21" transform="translate(53.826182 0) scale(0.996264)"/>
      <use xlink:href="#CMR17-3d" transform="translate(118.144528 0) scale(0.996264)"/>
      <use xlink:href="#CMR17-32" transform="translate(217.533325 0) scale(0.996264)"/>
      <use xlink:href="#CMR17-34" transform="translate(263.223802 0) scale(0.996264)"/>
      <use xlink:href="#CMMI12-3a" transform="translate(308.91428 0) scale(0.996264)"/>
      <use xlink:href="#CMR17-30" transform="translate(336.011457 0) scale(0.996264)"/>
     </g>
    </g>
    <g id="PathCollection_8">
     <defs>
      <path id="mf13eba4341" d="M -1.917029 0 
L 1.917029 0 
M 0 1.917029 
L 0 -1.917029 
" style="stroke: #d62728"/>
     </defs>
     <g>
      <use xlink:href="#mf13eba4341" x="56.504507" y="164.940612" style="fill: #d62728; stroke: #d62728"/>
     </g>
    </g>
    <g id="text_12">
     <!-- $\hbar\omega$$ =26.0$ -->
     <g transform="translate(72.704507 167.303112) scale(0.09 -0.09)">
      <defs>
       <path id="CMR17-36" d="M 678 2176 
C 678 3690 1395 4032 1811 4032 
C 1946 4032 2272 4009 2400 3776 
C 2298 3776 2106 3776 2106 3553 
C 2106 3381 2246 3323 2336 3323 
C 2394 3323 2566 3348 2566 3560 
C 2566 3954 2246 4179 1805 4179 
C 1043 4179 243 3390 243 1984 
C 243 253 966 -128 1478 -128 
C 2099 -128 2688 427 2688 1283 
C 2688 2081 2170 2662 1517 2662 
C 1126 2662 838 2407 678 1960 
L 678 2176 
z
M 1478 25 
C 691 25 691 1200 691 1436 
C 691 1896 909 2560 1504 2560 
C 1613 2560 1926 2560 2138 2120 
C 2253 1870 2253 1609 2253 1289 
C 2253 944 2253 690 2118 434 
C 1978 171 1773 25 1478 25 
z
" transform="scale(0.015625)"/>
      </defs>
      <use xlink:href="#MSBM10-7e" transform="scale(0.996264)"/>
      <use xlink:href="#CMMI12-21" transform="translate(53.826182 0) scale(0.996264)"/>
      <use xlink:href="#CMR17-3d" transform="translate(118.144528 0) scale(0.996264)"/>
      <use xlink:href="#CMR17-32" transform="translate(217.533325 0) scale(0.996264)"/>
      <use xlink:href="#CMR17-36" transform="translate(263.223802 0) scale(0.996264)"/>
      <use xlink:href="#CMMI12-3a" transform="translate(308.91428 0) scale(0.996264)"/>
      <use xlink:href="#CMR17-30" transform="translate(336.011457 0) scale(0.996264)"/>
     </g>
    </g>
   </g>
  </g>
  <g id="text_13">
   <!-- $\mathcal{R}e\left(\mathrm{E^{0^{+}0}}\right)[\SI[]{}{\mega\eV}]$ -->
   <g transform="translate(108.534119 204.127984) scale(0.12 -0.12)">
    <defs>
     <path id="CMSY10-52" d="M 2592 4032 
C 3821 4032 4141 3727 4141 3299 
C 4141 2904 3834 2125 2778 2125 
C 2464 2125 2246 1881 2246 1805 
C 2246 1767 2272 1767 2278 1767 
C 2547 1722 2675 1594 3008 839 
C 3302 167 3469 -128 3846 -128 
C 4621 -128 5357 659 5357 800 
C 5357 845 5306 845 5286 845 
C 5210 845 4960 755 4826 570 
C 4723 423 4582 224 4269 224 
C 3942 224 3744 679 3526 1178 
C 3392 1498 3277 1735 3130 1907 
C 4058 2247 4685 2919 4685 3584 
C 4685 4384 3610 4384 2643 4384 
C 2003 4384 1645 4384 1107 4154 
C 250 3776 134 3245 134 3194 
C 134 3155 160 3143 198 3143 
C 301 3143 448 3234 499 3267 
C 634 3359 653 3398 691 3522 
C 781 3784 960 4013 1766 4013 
C 1734 3625 1677 3033 1459 2102 
C 1286 1388 1050 687 768 6 
C 736 -64 736 -77 736 -83 
C 736 -128 787 -128 800 -128 
C 928 -128 1197 26 1267 147 
C 1280 179 2093 1984 2291 4032 
L 2592 4032 
z
" transform="scale(0.015625)"/>
     <path id="CMMI12-65" d="M 1146 1479 
C 1318 1479 1754 1479 2061 1595 
C 2547 1783 2592 2158 2592 2274 
C 2592 2558 2349 2816 1926 2816 
C 1254 2816 288 2210 288 1073 
C 288 402 672 -64 1254 -64 
C 2125 -64 2675 609 2675 692 
C 2675 730 2637 762 2611 762 
C 2592 762 2586 756 2528 699 
C 2118 159 1510 64 1267 64 
C 902 64 710 350 710 822 
C 710 911 710 1071 806 1479 
L 1146 1479 
z
M 838 1600 
C 1114 2592 1722 2689 1926 2689 
C 2208 2689 2400 2522 2400 2277 
C 2400 1600 1376 1600 1107 1600 
L 838 1600 
z
" transform="scale(0.015625)"/>
     <path id="CMEX10-10" d="M 3296 -11187 
C 3309 -11194 3366 -11258 3373 -11258 
L 3514 -11258 
C 3533 -11258 3584 -11251 3584 -11194 
C 3584 -11168 3571 -11155 3558 -11136 
C 3328 -10906 2982 -10554 2586 -9850 
C 1894 -8621 1638 -7040 1638 -5504 
C 1638 -2662 2445 -992 3565 141 
C 3584 160 3584 179 3584 192 
C 3584 256 3539 256 3462 256 
C 3379 256 3366 256 3309 205 
C 2701 -320 2016 -1210 1574 -2560 
C 1299 -3405 1152 -4435 1152 -5498 
C 1152 -7014 1427 -8730 2432 -10214 
C 2605 -10464 2842 -10726 2842 -10733 
C 2906 -10810 2995 -10912 3046 -10957 
L 3296 -11187 
z
" transform="scale(0.015625)"/>
     <path id="CMR17-45" d="M 3885 1615 
L 3770 1615 
C 3629 676 3546 166 2419 166 
L 1530 166 
C 1274 166 1261 197 1261 414 
L 1261 2176 
L 1862 2176 
C 2464 2176 2522 1960 2522 1430 
L 2637 1430 
L 2637 3081 
L 2522 3081 
C 2522 2557 2464 2342 1862 2342 
L 1261 2342 
L 1261 3913 
C 1261 4128 1274 4160 1530 4160 
L 2406 4160 
C 3398 4160 3514 3769 3603 2929 
L 3718 2929 
L 3565 4325 
L 326 4325 
L 326 4160 
C 768 4160 838 4160 838 3874 
L 838 451 
C 838 166 768 166 326 166 
L 326 0 
L 3654 0 
L 3885 1615 
z
" transform="scale(0.015625)"/>
     <path id="CMR17-2b" d="M 2413 1472 
L 4109 1472 
C 4198 1472 4307 1472 4307 1580 
C 4307 1695 4205 1695 4109 1695 
L 2413 1695 
L 2413 3386 
C 2413 3475 2413 3584 2304 3584 
C 2189 3584 2189 3482 2189 3386 
L 2189 1695 
L 493 1695 
C 403 1695 294 1695 294 1587 
C 294 1472 397 1472 493 1472 
L 2189 1472 
L 2189 -218 
C 2189 -307 2189 -416 2298 -416 
C 2413 -416 2413 -314 2413 -218 
L 2413 1472 
z
" transform="scale(0.015625)"/>
     <path id="CMEX10-11" d="M 2662 -5498 
C 2662 -3661 2234 -1709 973 -269 
C 883 -166 646 83 493 218 
C 448 256 435 256 352 256 
C 288 256 230 256 230 192 
C 230 166 256 141 269 128 
C 486 -96 832 -448 1229 -1152 
C 1920 -2381 2176 -3962 2176 -5498 
C 2176 -8275 1408 -9971 256 -11142 
C 243 -11155 230 -11174 230 -11194 
C 230 -11258 288 -11258 352 -11258 
C 435 -11258 448 -11258 506 -11206 
C 1114 -10682 1798 -9792 2240 -8442 
C 2522 -7565 2662 -6528 2662 -5498 
z
" transform="scale(0.015625)"/>
     <path id="CMR17-5b" d="M 1504 -1600 
L 1504 -1377 
L 902 -1377 
L 902 4544 
L 1504 4544 
L 1504 4767 
L 678 4767 
L 678 -1600 
L 1504 -1600 
z
" transform="scale(0.015625)"/>
     <path id="CMR17-4d" d="M 1338 4224 
C 1299 4320 1293 4320 1158 4320 
L 339 4320 
L 339 4160 
C 781 4160 851 4160 851 3875 
L 851 610 
C 851 451 851 153 339 153 
L 339 -13 
C 486 0 755 0 915 0 
C 1075 0 1344 0 1491 -13 
L 1491 153 
C 979 153 979 451 979 610 
L 979 4135 
L 986 4135 
L 2490 89 
C 2515 25 2528 -13 2579 -13 
C 2630 -13 2643 25 2669 89 
L 4186 4166 
L 4192 4166 
L 4192 438 
C 4192 153 4122 153 3680 153 
L 3680 -13 
C 3853 0 4198 0 4384 0 
C 4570 0 4922 0 5094 -13 
L 5094 153 
C 4653 153 4582 153 4582 438 
L 4582 3875 
C 4582 4160 4653 4160 5094 4160 
L 5094 4320 
L 4282 4320 
C 4147 4320 4141 4314 4102 4218 
L 2720 502 
L 1338 4224 
z
" transform="scale(0.015625)"/>
     <path id="CMR17-65" d="M 2438 1472 
C 2464 1498 2464 1511 2464 1576 
C 2464 2238 2118 2816 1389 2816 
C 710 2816 173 2169 173 1383 
C 173 551 781 -64 1459 -64 
C 2176 -64 2458 607 2458 740 
C 2458 784 2419 784 2406 784 
C 2362 784 2355 771 2330 696 
C 2189 265 1837 51 1504 51 
C 1229 51 954 203 781 480 
C 582 803 582 1176 582 1472 
L 2438 1472 
z
M 589 1568 
C 634 2505 1126 2714 1382 2714 
C 1818 2714 2112 2297 2118 1568 
L 589 1568 
z
" transform="scale(0.015625)"/>
     <path id="CMR17-56" d="M 3776 3745 
C 3834 3886 3936 4160 4365 4160 
L 4365 4332 
C 4218 4319 4051 4319 3891 4319 
C 3738 4319 3475 4319 3328 4332 
L 3328 4160 
C 3648 4160 3661 3936 3661 3898 
C 3661 3827 3642 3783 3622 3732 
L 2362 446 
L 1043 3886 
C 1024 3931 1011 3963 1011 3994 
C 1011 4160 1267 4160 1402 4160 
L 1402 4319 
C 1197 4319 896 4319 685 4319 
C 518 4319 218 4319 64 4332 
L 64 4160 
C 435 4160 506 4135 582 3931 
L 2106 -26 
C 2138 -115 2144 -128 2214 -128 
C 2285 -128 2291 -115 2323 -26 
L 3776 3745 
z
" transform="scale(0.015625)"/>
     <path id="CMR17-5d" d="M 915 4767 
L 90 4767 
L 90 4544 
L 691 4544 
L 691 -1377 
L 90 -1377 
L 90 -1600 
L 915 -1600 
L 915 4767 
z
" transform="scale(0.015625)"/>
    </defs>
    <use xlink:href="#CMSY10-52" transform="scale(0.996264)"/>
    <use xlink:href="#CMMI12-65" transform="translate(84.43374 0) scale(0.996264)"/>
    <use xlink:href="#CMEX10-10" transform="translate(146.250146 110.586308) scale(0.996264)"/>
    <use xlink:href="#CMR17-45" transform="translate(205.749436 0) scale(0.996264)"/>
    <use xlink:href="#CMR17-30" transform="translate(268.335736 36.153639) scale(0.697382)"/>
    <use xlink:href="#CMR17-2b" transform="translate(300.318918 61.461065) scale(0.498132)"/>
    <use xlink:href="#CMR17-30" transform="translate(336.674437 36.153639) scale(0.697382)"/>
    <use xlink:href="#CMEX10-11" transform="translate(369.155751 110.586308) scale(0.996264)"/>
    <use xlink:href="#CMR17-5b" transform="translate(445.259446 0) scale(0.996264)"/>
    <use xlink:href="#CMR17-4d" transform="translate(470.130504 0) scale(0.996264)"/>
    <use xlink:href="#CMR17-65" transform="translate(554.817445 0) scale(0.996264)"/>
    <use xlink:href="#CMR17-56" transform="translate(595.303105 0) scale(0.996264)"/>
    <use xlink:href="#CMR17-5d" transform="translate(665.676701 0) scale(0.996264)"/>
   </g>
  </g>
  <g id="text_14">
   <!-- $\mathcal{I}m\left(\mathrm{E^{0^{+}0}}\right)\ [\SI[]{}{\mega\eV}]$ -->
   <g transform="translate(18.252784 150.484639) rotate(-90) scale(0.12 -0.12)">
    <defs>
     <path id="CMSY10-49" d="M 2272 4352 
C 1478 4352 1133 4206 979 4148 
C 326 3874 179 3441 179 3358 
C 179 3313 211 3307 250 3307 
C 365 3307 672 3468 723 3608 
C 800 3853 819 3911 1248 3969 
C 1466 3994 1677 3994 1894 3994 
L 2477 3994 
C 2074 3606 1888 2925 1658 2007 
C 1472 1256 1325 760 1062 423 
C 998 352 992 352 819 352 
L 410 352 
C 288 352 218 352 58 256 
C -13 218 -154 109 -154 45 
C -154 6 -147 0 -6 0 
L 2182 0 
C 2931 0 3488 556 3488 785 
C 3488 830 3437 830 3418 830 
C 3309 830 3008 684 2944 524 
C 2899 390 2880 352 2560 352 
L 1338 352 
C 1792 740 1984 1371 2202 2236 
C 2374 2931 2528 3548 2790 3936 
C 2829 3994 2835 3994 2963 3994 
L 3507 3994 
C 3635 3994 3693 3994 3859 4092 
C 3917 4125 4064 4230 4064 4307 
C 4064 4346 4058 4352 3917 4352 
L 2272 4352 
z
" transform="scale(0.015625)"/>
     <path id="CMMI12-6d" d="M 1318 1871 
C 1331 1910 1491 2229 1728 2433 
C 1894 2586 2112 2689 2362 2689 
C 2618 2689 2707 2497 2707 2242 
C 2707 2203 2707 2076 2630 1775 
L 2470 1118 
C 2419 926 2298 453 2285 383 
C 2259 287 2221 121 2221 96 
C 2221 6 2291 -64 2387 -64 
C 2579 -64 2611 83 2669 313 
L 3053 1839 
C 3066 1890 3398 2689 4102 2689 
C 4358 2689 4448 2497 4448 2242 
C 4448 1884 4198 1188 4058 805 
C 4000 651 3968 568 3968 453 
C 3968 166 4166 -64 4474 -64 
C 5069 -64 5293 875 5293 913 
C 5293 945 5267 971 5229 971 
C 5171 971 5165 952 5133 843 
C 4986 332 4749 64 4493 64 
C 4429 64 4326 64 4326 269 
C 4326 436 4403 640 4429 710 
C 4544 1018 4832 1773 4832 2145 
C 4832 2528 4608 2816 4122 2816 
C 3693 2816 3347 2574 3091 2197 
C 3072 2542 2861 2816 2381 2816 
C 1811 2816 1510 2415 1395 2255 
C 1376 2618 1114 2816 832 2816 
C 646 2816 499 2727 378 2484 
C 262 2254 173 1865 173 1839 
C 173 1814 198 1782 243 1782 
C 294 1782 301 1788 339 1935 
C 435 2312 557 2689 813 2689 
C 960 2689 1011 2586 1011 2395 
C 1011 2254 947 2005 902 1807 
L 723 1118 
C 698 996 627 709 595 594 
C 550 428 480 128 480 96 
C 480 6 550 -64 646 -64 
C 723 -64 813 -26 864 70 
C 877 102 934 326 966 453 
L 1107 1028 
L 1318 1871 
z
" transform="scale(0.015625)"/>
    </defs>
    <use xlink:href="#CMSY10-49" transform="scale(0.996264)"/>
    <use xlink:href="#CMMI12-6d" transform="translate(61.602745 0) scale(0.996264)"/>
    <use xlink:href="#CMEX10-10" transform="translate(163.534375 110.586308) scale(0.996264)"/>
    <use xlink:href="#CMR17-45" transform="translate(223.033665 0) scale(0.996264)"/>
    <use xlink:href="#CMR17-30" transform="translate(285.619965 36.153639) scale(0.697382)"/>
    <use xlink:href="#CMR17-2b" transform="translate(317.603147 61.461065) scale(0.498132)"/>
    <use xlink:href="#CMR17-30" transform="translate(353.958666 36.153639) scale(0.697382)"/>
    <use xlink:href="#CMEX10-11" transform="translate(386.43998 110.586308) scale(0.996264)"/>
    <use xlink:href="#CMR17-5b" transform="translate(490.238844 0) scale(0.996264)"/>
    <use xlink:href="#CMR17-4d" transform="translate(515.109903 0) scale(0.996264)"/>
    <use xlink:href="#CMR17-65" transform="translate(599.796843 0) scale(0.996264)"/>
    <use xlink:href="#CMR17-56" transform="translate(640.282504 0) scale(0.996264)"/>
    <use xlink:href="#CMR17-5d" transform="translate(710.6561 0) scale(0.996264)"/>
   </g>
  </g>
 </g>
 <defs>
  <clipPath id="p6204432c04">
   <rect x="39.404507" y="26.010517" width="252.927991" height="151.30238"/>
  </clipPath>
 </defs>
</svg>
