<?xml version="1.0" encoding="utf-8" standalone="no"?>
<!DOCTYPE svg PUBLIC "-//W3C//DTD SVG 1.1//EN"
  "http://www.w3.org/Graphics/SVG/1.1/DTD/svg11.dtd">
<svg xmlns:xlink="http://www.w3.org/1999/xlink" width="305.574684pt" height="207.741095pt" viewBox="0 0 305.574684 207.741095" xmlns="http://www.w3.org/2000/svg" version="1.1">
 <metadata>
  <rdf:RDF xmlns:dc="http://purl.org/dc/elements/1.1/" xmlns:cc="http://creativecommons.org/ns#" xmlns:rdf="http://www.w3.org/1999/02/22-rdf-syntax-ns#">
   <cc:Work>
    <dc:type rdf:resource="http://purl.org/dc/dcmitype/StillImage"/>
    <dc:date>2025-04-14T16:18:23.711609</dc:date>
    <dc:format>image/svg+xml</dc:format>
    <dc:creator>
     <cc:Agent>
      <dc:title>Matplotlib v3.8.0, https://matplotlib.org/</dc:title>
     </cc:Agent>
    </dc:creator>
   </cc:Work>
  </rdf:RDF>
 </metadata>
 <defs>
  <style type="text/css">*{stroke-linejoin: round; stroke-linecap: butt}</style>
 </defs>
 <g id="figure_1">
  <g id="patch_1">
   <path d="M 0 207.741095 
L 305.574684 207.741095 
L 305.574684 0 
L 0 0 
z
" style="fill: #ffffff"/>
  </g>
  <g id="axes_1">
   <g id="patch_2">
    <path d="M 40.729031 163.812362 
L 289.793349 163.812362 
L 289.793349 14.34916 
L 40.729031 14.34916 
z
" style="fill: #ffffff"/>
   </g>
   <g id="matplotlib.axis_1">
    <g id="xtick_1">
     <g id="line2d_1">
      <defs>
       <path id="m30f0cff54f" d="M 0 0 
L 0 3.5 
" style="stroke: #000000; stroke-width: 0.8"/>
      </defs>
      <g>
       <use xlink:href="#m30f0cff54f" x="40.729031" y="163.812362" style="stroke: #000000; stroke-width: 0.8"/>
      </g>
     </g>
     <g id="text_1">
      <!-- $\mathdefault{0}$ -->
      <g transform="translate(38.238364 177.910682) scale(0.1 -0.1)">
       <defs>
        <path id="CMR17-30" d="M 2688 2025 
C 2688 2416 2682 3080 2413 3591 
C 2176 4039 1798 4198 1466 4198 
C 1158 4198 768 4058 525 3597 
C 269 3118 243 2524 243 2025 
C 243 1661 250 1106 448 619 
C 723 -39 1216 -128 1466 -128 
C 1760 -128 2208 -7 2470 600 
C 2662 1042 2688 1559 2688 2025 
z
M 1466 -26 
C 1056 -26 813 325 723 812 
C 653 1188 653 1738 653 2096 
C 653 2588 653 2997 736 3387 
C 858 3929 1216 4096 1466 4096 
C 1728 4096 2067 3923 2189 3400 
C 2272 3036 2278 2607 2278 2096 
C 2278 1680 2278 1169 2202 792 
C 2067 95 1690 -26 1466 -26 
z
" transform="scale(0.015625)"/>
       </defs>
       <use xlink:href="#CMR17-30" transform="scale(0.996264)"/>
      </g>
     </g>
    </g>
    <g id="xtick_2">
     <g id="line2d_2">
      <g>
       <use xlink:href="#m30f0cff54f" x="90.541895" y="163.812362" style="stroke: #000000; stroke-width: 0.8"/>
      </g>
     </g>
     <g id="text_2">
      <!-- $\mathdefault{2}$ -->
      <g transform="translate(88.051227 177.910682) scale(0.1 -0.1)">
       <defs>
        <path id="CMR17-32" d="M 2669 989 
L 2554 989 
C 2490 536 2438 459 2413 420 
C 2381 369 1920 369 1830 369 
L 602 369 
C 832 619 1280 1072 1824 1597 
C 2214 1967 2669 2402 2669 3035 
C 2669 3790 2067 4224 1395 4224 
C 691 4224 262 3604 262 3030 
C 262 2780 448 2748 525 2748 
C 589 2748 781 2787 781 3010 
C 781 3207 614 3264 525 3264 
C 486 3264 448 3258 422 3245 
C 544 3790 915 4058 1306 4058 
C 1862 4058 2227 3617 2227 3035 
C 2227 2479 1901 2000 1536 1584 
L 262 146 
L 262 0 
L 2515 0 
L 2669 989 
z
" transform="scale(0.015625)"/>
       </defs>
       <use xlink:href="#CMR17-32" transform="scale(0.996264)"/>
      </g>
     </g>
    </g>
    <g id="xtick_3">
     <g id="line2d_3">
      <g>
       <use xlink:href="#m30f0cff54f" x="140.354758" y="163.812362" style="stroke: #000000; stroke-width: 0.8"/>
      </g>
     </g>
     <g id="text_3">
      <!-- $\mathdefault{4}$ -->
      <g transform="translate(137.864091 177.910682) scale(0.1 -0.1)">
       <defs>
        <path id="CMR17-34" d="M 2150 4122 
C 2150 4256 2144 4256 2029 4256 
L 128 1254 
L 128 1088 
L 1779 1088 
L 1779 457 
C 1779 224 1766 160 1318 160 
L 1197 160 
L 1197 0 
C 1402 0 1747 0 1965 0 
C 2182 0 2528 0 2733 0 
L 2733 160 
L 2611 160 
C 2163 160 2150 224 2150 457 
L 2150 1088 
L 2803 1088 
L 2803 1254 
L 2150 1254 
L 2150 4122 
z
M 1798 3703 
L 1798 1254 
L 256 1254 
L 1798 3703 
z
" transform="scale(0.015625)"/>
       </defs>
       <use xlink:href="#CMR17-34" transform="scale(0.996264)"/>
      </g>
     </g>
    </g>
    <g id="xtick_4">
     <g id="line2d_4">
      <g>
       <use xlink:href="#m30f0cff54f" x="190.167622" y="163.812362" style="stroke: #000000; stroke-width: 0.8"/>
      </g>
     </g>
     <g id="text_4">
      <!-- $\mathdefault{6}$ -->
      <g transform="translate(187.676954 177.910682) scale(0.1 -0.1)">
       <defs>
        <path id="CMR17-36" d="M 678 2176 
C 678 3690 1395 4032 1811 4032 
C 1946 4032 2272 4009 2400 3776 
C 2298 3776 2106 3776 2106 3553 
C 2106 3381 2246 3323 2336 3323 
C 2394 3323 2566 3348 2566 3560 
C 2566 3954 2246 4179 1805 4179 
C 1043 4179 243 3390 243 1984 
C 243 253 966 -128 1478 -128 
C 2099 -128 2688 427 2688 1283 
C 2688 2081 2170 2662 1517 2662 
C 1126 2662 838 2407 678 1960 
L 678 2176 
z
M 1478 25 
C 691 25 691 1200 691 1436 
C 691 1896 909 2560 1504 2560 
C 1613 2560 1926 2560 2138 2120 
C 2253 1870 2253 1609 2253 1289 
C 2253 944 2253 690 2118 434 
C 1978 171 1773 25 1478 25 
z
" transform="scale(0.015625)"/>
       </defs>
       <use xlink:href="#CMR17-36" transform="scale(0.996264)"/>
      </g>
     </g>
    </g>
    <g id="xtick_5">
     <g id="line2d_5">
      <g>
       <use xlink:href="#m30f0cff54f" x="239.980485" y="163.812362" style="stroke: #000000; stroke-width: 0.8"/>
      </g>
     </g>
     <g id="text_5">
      <!-- $\mathdefault{8}$ -->
      <g transform="translate(237.489818 177.910682) scale(0.1 -0.1)">
       <defs>
        <path id="CMR17-38" d="M 1741 2264 
C 2144 2467 2554 2773 2554 3263 
C 2554 3841 1990 4179 1472 4179 
C 890 4179 378 3759 378 3180 
C 378 3021 416 2747 666 2505 
C 730 2442 998 2251 1171 2130 
C 883 1983 211 1634 211 934 
C 211 279 838 -128 1459 -128 
C 2144 -128 2720 362 2720 1010 
C 2720 1590 2330 1857 2074 2029 
L 1741 2264 
z
M 902 2822 
C 851 2854 595 3051 595 3351 
C 595 3739 998 4032 1459 4032 
C 1965 4032 2336 3676 2336 3262 
C 2336 2669 1670 2331 1638 2331 
C 1632 2331 1626 2331 1574 2370 
L 902 2822 
z
M 2080 1519 
C 2176 1449 2483 1240 2483 851 
C 2483 381 2010 25 1472 25 
C 890 25 448 438 448 940 
C 448 1443 838 1862 1280 2060 
L 2080 1519 
z
" transform="scale(0.015625)"/>
       </defs>
       <use xlink:href="#CMR17-38" transform="scale(0.996264)"/>
      </g>
     </g>
    </g>
    <g id="xtick_6">
     <g id="line2d_6">
      <g>
       <use xlink:href="#m30f0cff54f" x="289.793349" y="163.812362" style="stroke: #000000; stroke-width: 0.8"/>
      </g>
     </g>
     <g id="text_6">
      <!-- $\mathdefault{10}$ -->
      <g transform="translate(284.812013 177.910682) scale(0.1 -0.1)">
       <defs>
        <path id="CMR17-31" d="M 1702 4058 
C 1702 4192 1696 4192 1606 4192 
C 1357 3916 979 3827 621 3827 
C 602 3827 570 3827 563 3808 
C 557 3795 557 3782 557 3648 
C 755 3648 1088 3686 1344 3839 
L 1344 461 
C 1344 236 1331 160 781 160 
L 589 160 
L 589 0 
C 896 0 1216 0 1523 0 
C 1830 0 2150 0 2458 0 
L 2458 160 
L 2266 160 
C 1715 160 1702 230 1702 458 
L 1702 4058 
z
" transform="scale(0.015625)"/>
       </defs>
       <use xlink:href="#CMR17-31" transform="scale(0.996264)"/>
       <use xlink:href="#CMR17-30" transform="translate(45.690477 0) scale(0.996264)"/>
      </g>
     </g>
    </g>
    <g id="text_7">
     <!-- $E$ -->
     <g transform="translate(160.206407 193.970317) scale(0.14 -0.14)">
      <defs>
       <path id="CMMI12-45" d="M 4448 1489 
C 4454 1508 4474 1554 4474 1579 
C 4474 1611 4448 1643 4410 1643 
C 4384 1643 4371 1637 4352 1617 
C 4339 1611 4339 1598 4282 1469 
C 3904 570 3629 185 2605 185 
L 1670 185 
C 1581 185 1568 185 1530 192 
C 1459 198 1453 211 1453 262 
C 1453 307 1466 345 1478 403 
L 1920 2176 
L 2554 2176 
C 3053 2176 3091 2066 3091 1874 
C 3091 1810 3091 1752 3046 1560 
C 3034 1534 3027 1508 3027 1489 
C 3027 1444 3059 1425 3098 1425 
C 3155 1425 3162 1469 3187 1559 
L 3552 3042 
C 3552 3073 3526 3105 3488 3105 
C 3430 3105 3424 3080 3398 2990 
C 3270 2501 3142 2361 2573 2361 
L 1965 2361 
L 2362 3930 
C 2419 4154 2432 4154 2694 4154 
L 3610 4154 
C 4397 4154 4557 3943 4557 3458 
C 4557 3451 4557 3273 4531 3062 
C 4525 3036 4518 2998 4518 2985 
C 4518 2934 4550 2915 4589 2915 
C 4634 2915 4659 2941 4672 3055 
L 4806 4174 
C 4806 4195 4819 4263 4819 4277 
C 4819 4352 4762 4352 4646 4352 
L 1523 4352 
C 1402 4352 1338 4352 1338 4229 
C 1338 4154 1382 4154 1491 4154 
C 1888 4154 1888 4114 1888 4052 
C 1888 4020 1882 3994 1862 3924 
L 998 473 
C 941 249 928 185 480 185 
C 358 185 294 185 294 70 
C 294 0 333 0 461 0 
L 3674 0 
C 3814 0 3821 6 3866 110 
L 4448 1489 
z
" transform="scale(0.015625)"/>
      </defs>
      <use xlink:href="#CMMI12-45" transform="scale(0.996264)"/>
     </g>
    </g>
   </g>
   <g id="matplotlib.axis_2">
    <g id="ytick_1">
     <g id="line2d_7">
      <defs>
       <path id="m058d2d9624" d="M 0 0 
L -3.5 0 
" style="stroke: #000000; stroke-width: 0.8"/>
      </defs>
      <g>
       <use xlink:href="#m058d2d9624" x="40.729031" y="163.812362" style="stroke: #000000; stroke-width: 0.8"/>
      </g>
     </g>
     <g id="text_8">
      <!-- $\mathdefault{0}$ -->
      <g transform="translate(28.747696 167.361522) scale(0.1 -0.1)">
       <use xlink:href="#CMR17-30" transform="scale(0.996264)"/>
      </g>
     </g>
    </g>
    <g id="ytick_2">
     <g id="line2d_8">
      <g>
       <use xlink:href="#m058d2d9624" x="40.729031" y="126.446561" style="stroke: #000000; stroke-width: 0.8"/>
      </g>
     </g>
     <g id="text_9">
      <!-- $\mathdefault{1}$ -->
      <g transform="translate(28.747696 129.995722) scale(0.1 -0.1)">
       <use xlink:href="#CMR17-31" transform="scale(0.996264)"/>
      </g>
     </g>
    </g>
    <g id="ytick_3">
     <g id="line2d_9">
      <g>
       <use xlink:href="#m058d2d9624" x="40.729031" y="89.080761" style="stroke: #000000; stroke-width: 0.8"/>
      </g>
     </g>
     <g id="text_10">
      <!-- $\mathdefault{2}$ -->
      <g transform="translate(28.747696 92.629921) scale(0.1 -0.1)">
       <use xlink:href="#CMR17-32" transform="scale(0.996264)"/>
      </g>
     </g>
    </g>
    <g id="ytick_4">
     <g id="line2d_10">
      <g>
       <use xlink:href="#m058d2d9624" x="40.729031" y="51.714961" style="stroke: #000000; stroke-width: 0.8"/>
      </g>
     </g>
     <g id="text_11">
      <!-- $\mathdefault{3}$ -->
      <g transform="translate(28.747696 55.264121) scale(0.1 -0.1)">
       <defs>
        <path id="CMR17-33" d="M 1414 2157 
C 1984 2157 2234 1662 2234 1090 
C 2234 320 1824 25 1453 25 
C 1114 25 563 194 390 693 
C 422 680 454 680 486 680 
C 640 680 755 782 755 948 
C 755 1133 614 1216 486 1216 
C 378 1216 211 1165 211 926 
C 211 335 787 -128 1466 -128 
C 2176 -128 2720 430 2720 1085 
C 2720 1707 2208 2157 1600 2227 
C 2086 2328 2554 2756 2554 3329 
C 2554 3820 2048 4179 1472 4179 
C 890 4179 378 3829 378 3329 
C 378 3110 544 3072 627 3072 
C 762 3072 877 3155 877 3321 
C 877 3486 762 3569 627 3569 
C 602 3569 570 3569 544 3557 
C 730 3959 1235 4032 1459 4032 
C 1683 4032 2106 3925 2106 3320 
C 2106 3143 2080 2828 1862 2550 
C 1670 2304 1453 2304 1242 2284 
C 1210 2284 1062 2269 1037 2269 
C 992 2263 966 2257 966 2208 
C 966 2163 973 2157 1101 2157 
L 1414 2157 
z
" transform="scale(0.015625)"/>
       </defs>
       <use xlink:href="#CMR17-33" transform="scale(0.996264)"/>
      </g>
     </g>
    </g>
    <g id="ytick_5">
     <g id="line2d_11">
      <g>
       <use xlink:href="#m058d2d9624" x="40.729031" y="14.34916" style="stroke: #000000; stroke-width: 0.8"/>
      </g>
     </g>
     <g id="text_12">
      <!-- $\mathdefault{4}$ -->
      <g transform="translate(28.747696 17.89832) scale(0.1 -0.1)">
       <use xlink:href="#CMR17-34" transform="scale(0.996264)"/>
      </g>
     </g>
    </g>
    <g id="text_13">
     <!-- $\sigma(E)$ -->
     <g transform="translate(21.260772 103.986823) rotate(-90) scale(0.14 -0.14)">
      <defs>
       <path id="CMMI12-1b" d="M 3251 2408 
C 3334 2408 3546 2408 3546 2612 
C 3546 2752 3424 2752 3309 2752 
L 1894 2752 
C 934 2752 243 1686 243 932 
C 243 390 595 -64 1171 -64 
C 1926 -64 2752 747 2752 1705 
C 2752 1954 2694 2196 2541 2408 
L 3251 2408 
z
M 1178 64 
C 851 64 614 313 614 754 
C 614 1137 845 2408 1786 2408 
C 2061 2408 2368 2274 2368 1781 
C 2368 1558 2266 1021 2042 652 
C 1811 275 1466 64 1178 64 
z
" transform="scale(0.015625)"/>
       <path id="CMR17-28" d="M 1958 -1561 
C 1958 -1555 1958 -1542 1939 -1523 
C 1645 -1224 858 -407 858 1581 
C 858 3569 1632 4379 1946 4697 
C 1946 4704 1958 4717 1958 4736 
C 1958 4755 1939 4768 1914 4768 
C 1843 4768 1299 4296 986 3594 
C 666 2887 576 2199 576 1588 
C 576 1128 621 351 1005 -471 
C 1312 -1135 1837 -1600 1914 -1600 
C 1946 -1600 1958 -1587 1958 -1561 
z
" transform="scale(0.015625)"/>
       <path id="CMR17-29" d="M 1683 1581 
C 1683 2040 1638 2817 1254 3639 
C 947 4303 422 4768 346 4768 
C 326 4768 301 4761 301 4729 
C 301 4717 307 4710 314 4697 
C 621 4378 1402 3568 1402 1584 
C 1402 -407 627 -1217 314 -1537 
C 307 -1549 301 -1556 301 -1568 
C 301 -1600 326 -1600 346 -1600 
C 416 -1600 960 -1128 1274 -426 
C 1594 281 1683 969 1683 1581 
z
" transform="scale(0.015625)"/>
      </defs>
      <use xlink:href="#CMMI12-1b" transform="scale(0.996264)"/>
      <use xlink:href="#CMR17-28" transform="translate(59.020054 0) scale(0.996264)"/>
      <use xlink:href="#CMMI12-45" transform="translate(94.300821 0) scale(0.996264)"/>
      <use xlink:href="#CMR17-29" transform="translate(172.352458 0) scale(0.996264)"/>
     </g>
    </g>
   </g>
   <g id="line2d_12">
    <path d="M 40.729031 67.883796 
L 41.228158 73.170443 
L 41.727285 68.856043 
L 42.226412 76.066934 
L 42.725539 72.353092 
L 43.224666 74.000515 
L 43.723793 72.659657 
L 44.22292 69.85987 
L 44.722046 73.712875 
L 45.221173 72.194657 
L 45.7203 77.445523 
L 46.219427 74.312782 
L 46.718554 75.404344 
L 47.217681 76.153842 
L 47.716808 73.567257 
L 48.215935 79.29264 
L 48.715062 69.91178 
L 49.214188 76.133257 
L 49.713315 76.792225 
L 50.212442 76.848781 
L 50.711569 74.389843 
L 51.210696 76.808596 
L 51.709823 76.669539 
L 52.20895 79.321722 
L 52.708077 77.104056 
L 53.207204 76.780473 
L 53.70633 75.193052 
L 54.205457 78.520496 
L 54.704584 80.604325 
L 55.203711 78.251439 
L 55.702838 82.141663 
L 56.201965 84.635145 
L 56.701092 82.893132 
L 57.200219 82.356891 
L 57.699346 83.771866 
L 58.198472 88.376833 
L 58.697599 81.325306 
L 59.196726 83.918486 
L 59.695853 85.088331 
L 60.19498 88.215474 
L 60.694107 82.996147 
L 61.193234 87.375771 
L 61.692361 85.538909 
L 62.191488 83.218373 
L 62.690614 86.087084 
L 63.189741 84.442004 
L 63.688868 88.018104 
L 64.187995 82.852457 
L 64.687122 90.460542 
L 65.186249 87.072837 
L 65.685376 84.514635 
L 66.184503 89.41726 
L 66.68363 86.107572 
L 67.182756 89.803016 
L 67.681883 87.4673 
L 68.18101 87.656212 
L 68.680137 83.402322 
L 69.179264 93.14797 
L 69.678391 91.144884 
L 70.177518 86.942448 
L 70.676645 90.244154 
L 71.175772 87.290278 
L 71.674898 91.933577 
L 72.174025 90.845258 
L 72.673152 87.904481 
L 73.172279 89.98201 
L 73.671406 90.603291 
L 74.170533 89.245618 
L 74.66966 92.898166 
L 75.168787 89.737517 
L 75.667914 90.533707 
L 76.16704 95.268265 
L 76.666167 93.158303 
L 77.165294 92.728013 
L 77.664421 91.652016 
L 78.163548 94.432709 
L 79.161802 92.505003 
L 79.660929 96.673041 
L 80.160056 95.678714 
L 80.659182 97.039894 
L 81.158309 91.318336 
L 81.657436 92.182823 
L 82.156563 95.52979 
L 82.65569 95.041289 
L 83.154817 95.112446 
L 83.653944 96.734249 
L 84.153071 92.276786 
L 84.652198 96.605682 
L 85.151324 98.409157 
L 85.650451 93.916066 
L 86.149578 100.455112 
L 87.147832 94.849199 
L 87.646959 102.753489 
L 88.645213 97.234129 
L 89.14434 95.271503 
L 89.643466 101.54154 
L 90.142593 96.005537 
L 90.64172 97.097656 
L 91.140847 95.991739 
L 91.639974 97.724744 
L 92.139101 103.230561 
L 92.638228 99.021147 
L 93.137355 101.126771 
L 93.636482 101.288603 
L 94.135608 101.819759 
L 94.634735 98.317615 
L 95.133862 99.774365 
L 95.632989 101.671676 
L 96.132116 101.868493 
L 96.631243 103.483744 
L 97.13037 102.774596 
L 97.629497 101.807462 
L 98.128624 105.736429 
L 98.62775 105.212566 
L 99.126877 98.819885 
L 99.626004 100.310242 
L 100.125131 107.231905 
L 100.624258 98.91821 
L 101.123385 100.454852 
L 101.622512 100.145148 
L 102.121639 100.127056 
L 102.620766 110.23379 
L 103.119892 103.164893 
L 103.619019 102.686595 
L 104.118146 104.039795 
L 104.617273 98.405847 
L 105.1164 102.853523 
L 105.615527 105.623776 
L 106.114654 102.792489 
L 106.613781 104.0839 
L 107.112908 105.91583 
L 107.612034 107.027158 
L 108.111161 107.362347 
L 108.610288 109.172282 
L 109.109415 110.252747 
L 109.608542 104.726624 
L 110.107669 103.38249 
L 111.105923 109.511651 
L 111.60505 106.854544 
L 112.104176 106.397055 
L 112.603303 110.308365 
L 113.10243 103.885135 
L 113.601557 106.026369 
L 114.100684 102.621717 
L 114.599811 103.536767 
L 115.098938 108.915884 
L 115.598065 107.770867 
L 116.097192 106.082209 
L 116.596318 109.600861 
L 117.594572 105.523781 
L 118.093699 105.478959 
L 118.592826 105.17713 
L 119.091953 108.608428 
L 119.59108 107.4436 
L 120.090207 107.078067 
L 120.589334 107.090092 
L 121.08846 104.533166 
L 121.587587 103.909789 
L 122.086714 106.090923 
L 122.585841 102.141764 
L 123.084968 106.949346 
L 123.584095 106.965767 
L 124.083222 104.85269 
L 124.582349 106.11386 
L 125.081476 105.787966 
L 126.079729 101.941004 
L 126.578856 105.259341 
L 127.077983 101.203802 
L 127.57711 102.668414 
L 128.076237 105.568831 
L 128.575364 103.267376 
L 129.074491 102.303929 
L 129.573618 104.547743 
L 130.072744 98.836996 
L 130.571871 98.42377 
L 131.070998 97.088888 
L 131.570125 97.526843 
L 132.069252 96.89374 
L 133.067506 89.977652 
L 133.566633 90.221208 
L 134.06576 88.41386 
L 134.564886 82.144367 
L 135.064013 77.541384 
L 135.56314 78.284591 
L 136.062267 72.628626 
L 136.561394 68.605317 
L 137.060521 66.53321 
L 137.559648 56.683143 
L 138.058775 55.736732 
L 139.057028 44.568216 
L 139.556155 44.239597 
L 140.055282 44.917956 
L 140.554409 43.3823 
L 141.053536 43.020495 
L 141.552663 47.226653 
L 142.05179 46.775981 
L 143.050044 60.242478 
L 145.545678 85.955903 
L 146.044805 83.49217 
L 146.543932 90.474003 
L 147.043059 92.362226 
L 147.542186 97.256378 
L 148.041312 97.559886 
L 148.540439 104.050589 
L 149.039566 102.762848 
L 149.538693 100.526149 
L 150.03782 103.715877 
L 150.536947 105.54357 
L 151.036074 104.052267 
L 151.535201 107.172832 
L 152.034327 106.385919 
L 152.533454 111.905866 
L 153.032581 108.816257 
L 153.531708 115.463299 
L 154.030835 110.161268 
L 154.529962 117.101924 
L 155.029089 114.993642 
L 155.528216 116.495598 
L 156.027343 114.047145 
L 156.526469 117.87652 
L 157.025596 114.989774 
L 157.524723 114.791948 
L 158.02385 117.130304 
L 158.522977 114.850233 
L 159.022104 119.04784 
L 159.521231 118.765487 
L 160.020358 117.281644 
L 160.519485 113.867742 
L 161.018611 117.655283 
L 161.517738 117.514368 
L 162.016865 119.349817 
L 162.515992 126.101188 
L 163.015119 121.758169 
L 163.514246 119.300771 
L 164.013373 120.198468 
L 164.5125 123.549859 
L 165.011627 123.403558 
L 165.510753 120.288156 
L 166.00988 122.263366 
L 166.509007 121.272129 
L 167.008134 122.02105 
L 167.507261 125.596788 
L 168.006388 123.038747 
L 169.004642 124.191081 
L 169.503769 120.857281 
L 170.002895 120.632332 
L 170.502022 124.595685 
L 171.001149 126.598523 
L 171.500276 124.047589 
L 171.999403 120.455056 
L 172.49853 123.652439 
L 172.997657 118.813379 
L 173.496784 123.385232 
L 173.995911 120.480682 
L 174.495037 124.436978 
L 174.994164 121.63622 
L 175.493291 128.09975 
L 175.992418 128.182362 
L 176.491545 123.527458 
L 176.990672 124.430843 
L 177.489799 129.641622 
L 177.988926 120.490764 
L 178.488053 125.165667 
L 178.987179 127.67902 
L 179.486306 125.877745 
L 179.985433 124.761306 
L 180.48456 127.361506 
L 180.983687 124.133859 
L 181.482814 129.191499 
L 181.981941 125.633751 
L 182.481068 125.760707 
L 182.980195 128.793198 
L 183.479321 127.464033 
L 183.978448 125.716471 
L 184.477575 125.873827 
L 184.976702 133.496112 
L 185.475829 128.500861 
L 185.974956 129.875681 
L 186.474083 123.27412 
L 186.97321 129.664688 
L 187.472337 127.968301 
L 187.971463 128.995851 
L 188.47059 125.186622 
L 188.969717 128.177894 
L 189.468844 127.74609 
L 189.967971 128.250368 
L 190.467098 127.633726 
L 190.966225 128.889627 
L 191.465352 126.509113 
L 191.964479 131.111762 
L 192.463605 128.785295 
L 192.962732 130.342974 
L 193.461859 127.647733 
L 193.960986 130.415801 
L 194.460113 128.508586 
L 194.95924 127.943284 
L 195.458367 128.868844 
L 195.957494 126.540873 
L 196.456621 127.632013 
L 196.955747 127.547009 
L 197.454874 127.279006 
L 197.954001 130.091402 
L 198.453128 130.83902 
L 198.952255 130.572905 
L 199.451382 131.526284 
L 199.950509 132.104904 
L 200.449636 131.196517 
L 200.948763 129.436049 
L 201.447889 129.465686 
L 201.947016 133.698163 
L 202.446143 128.400795 
L 202.94527 128.991565 
L 203.444397 125.063236 
L 203.943524 129.827179 
L 204.442651 128.987831 
L 204.941778 128.668059 
L 205.440905 130.913037 
L 205.940031 129.039137 
L 206.439158 133.112531 
L 206.938285 131.77745 
L 207.437412 131.556461 
L 207.936539 129.502678 
L 208.435666 129.512257 
L 208.934793 128.033975 
L 209.43392 130.249545 
L 209.933047 125.530095 
L 210.432173 130.081428 
L 210.9313 131.210557 
L 211.430427 134.743606 
L 211.929554 129.821436 
L 212.428681 134.108854 
L 212.927808 133.308458 
L 213.426935 129.371867 
L 213.926062 133.05046 
L 214.425189 126.378769 
L 214.924315 131.425117 
L 215.423442 130.695288 
L 215.922569 130.477639 
L 216.421696 132.523697 
L 216.920823 129.319154 
L 217.41995 133.00738 
L 217.919077 133.826672 
L 218.418204 130.516893 
L 218.917331 134.503227 
L 219.416457 127.958709 
L 219.915584 131.793059 
L 220.414711 129.440701 
L 220.913838 130.323363 
L 221.412965 134.060455 
L 221.912092 135.363318 
L 222.411219 130.949935 
L 223.409473 134.897296 
L 223.908599 133.186618 
L 224.407726 135.683439 
L 224.906853 133.23772 
L 225.40598 136.388919 
L 225.905107 132.841608 
L 226.404234 134.093939 
L 226.903361 130.655811 
L 227.402488 129.94112 
L 227.901615 133.493508 
L 228.400741 127.739092 
L 228.899868 133.301394 
L 229.398995 133.842897 
L 229.898122 137.771177 
L 230.397249 133.67895 
L 230.896376 132.377683 
L 231.395503 135.207308 
L 231.89463 129.145987 
L 232.393757 136.059932 
L 232.892883 135.552072 
L 233.39201 132.947891 
L 233.891137 134.587305 
L 234.390264 134.364208 
L 234.889391 132.648764 
L 235.388518 134.715237 
L 235.887645 137.263736 
L 236.386772 132.629939 
L 236.885899 133.236896 
L 237.385025 136.150512 
L 237.884152 135.056095 
L 238.383279 135.226325 
L 238.882406 133.540805 
L 239.381533 137.567659 
L 239.88066 135.588839 
L 240.379787 137.315101 
L 240.878914 131.986605 
L 241.378041 135.722947 
L 241.877167 133.993244 
L 242.376294 132.766106 
L 242.875421 130.351794 
L 243.374548 136.11491 
L 243.873675 133.946828 
L 244.372802 136.998437 
L 244.871929 135.394232 
L 245.371056 135.842337 
L 245.870183 134.1931 
L 246.369309 134.521355 
L 246.868436 135.195092 
L 247.367563 134.857726 
L 247.86669 131.752879 
L 248.365817 138.298602 
L 248.864944 135.963026 
L 249.364071 136.831001 
L 249.863198 131.210743 
L 250.362325 135.006381 
L 250.861451 132.84324 
L 251.360578 140.188451 
L 251.859705 138.923185 
L 252.358832 133.634289 
L 252.857959 136.340465 
L 253.357086 137.361941 
L 253.856213 133.912965 
L 254.35534 128.283168 
L 254.854466 141.300076 
L 255.353593 135.823491 
L 255.85272 137.426267 
L 256.351847 137.687052 
L 256.850974 137.315426 
L 257.350101 132.501399 
L 257.849228 136.382052 
L 258.348355 139.37109 
L 258.847482 135.478173 
L 259.346608 139.252277 
L 259.845735 135.08676 
L 260.344862 138.687994 
L 260.843989 135.461661 
L 261.343116 138.302776 
L 261.842243 135.442313 
L 262.34137 136.656971 
L 262.840497 135.6295 
L 263.339624 135.417477 
L 263.83875 137.687002 
L 264.837004 135.494633 
L 265.336131 135.979152 
L 265.835258 134.414592 
L 266.334385 138.876184 
L 266.833512 139.384847 
L 267.332639 136.033679 
L 267.831766 134.380568 
L 268.330892 138.580251 
L 268.830019 137.252015 
L 269.329146 139.320262 
L 269.828273 136.262076 
L 270.3274 136.88981 
L 270.826527 134.915577 
L 271.325654 135.051775 
L 271.824781 137.004489 
L 272.323908 134.036804 
L 272.823034 138.085109 
L 273.322161 134.523856 
L 273.821288 142.222671 
L 274.320415 140.281508 
L 274.819542 137.805682 
L 275.318669 139.378216 
L 275.817796 135.893878 
L 276.316923 140.092831 
L 276.81605 142.002847 
L 277.814303 135.700485 
L 278.31343 135.00092 
L 278.812557 137.23424 
L 279.311684 137.155927 
L 279.810811 137.255077 
L 280.309938 139.944759 
L 280.809065 139.83754 
L 281.308192 136.715868 
L 281.807318 137.389742 
L 282.306445 138.436492 
L 282.805572 137.214629 
L 283.304699 139.63974 
L 283.803826 143.099191 
L 284.302953 139.075189 
L 284.80208 133.866231 
L 285.301207 138.368214 
L 285.800334 138.279212 
L 286.29946 137.784921 
L 286.798587 138.124057 
L 287.297714 141.809806 
L 287.796841 138.427264 
L 288.295968 140.045191 
L 288.795095 143.103391 
L 289.294222 141.633736 
L 289.793349 137.985547 
L 289.793349 137.985547 
" clip-path="url(#pc9039fdd2c)" style="fill: none; stroke: #000000; stroke-width: 1.5; stroke-linecap: square"/>
   </g>
   <g id="patch_3">
    <path d="M 40.729031 163.812362 
L 40.729031 14.34916 
" style="fill: none; stroke: #000000; stroke-width: 0.8; stroke-linejoin: miter; stroke-linecap: square"/>
   </g>
   <g id="patch_4">
    <path d="M 289.793349 163.812362 
L 289.793349 14.34916 
" style="fill: none; stroke: #000000; stroke-width: 0.8; stroke-linejoin: miter; stroke-linecap: square"/>
   </g>
   <g id="patch_5">
    <path d="M 40.729031 163.812362 
L 289.793349 163.812362 
" style="fill: none; stroke: #000000; stroke-width: 0.8; stroke-linejoin: miter; stroke-linecap: square"/>
   </g>
   <g id="patch_6">
    <path d="M 40.729031 14.34916 
L 289.793349 14.34916 
" style="fill: none; stroke: #000000; stroke-width: 0.8; stroke-linejoin: miter; stroke-linecap: square"/>
   </g>
  </g>
 </g>
 <defs>
  <clipPath id="pc9039fdd2c">
   <rect x="40.729031" y="14.34916" width="249.064317" height="149.463202"/>
  </clipPath>
 </defs>
</svg>
