<?xml version="1.0" encoding="utf-8" standalone="no"?>
<!DOCTYPE svg PUBLIC "-//W3C//DTD SVG 1.1//EN"
  "http://www.w3.org/Graphics/SVG/1.1/DTD/svg11.dtd">
<svg xmlns:xlink="http://www.w3.org/1999/xlink" width="371.52pt" height="403.2pt" viewBox="0 0 371.52 403.2" xmlns="http://www.w3.org/2000/svg" version="1.1">
 <metadata>
  <rdf:RDF xmlns:dc="http://purl.org/dc/elements/1.1/" xmlns:cc="http://creativecommons.org/ns#" xmlns:rdf="http://www.w3.org/1999/02/22-rdf-syntax-ns#">
   <cc:Work>
    <dc:type rdf:resource="http://purl.org/dc/dcmitype/StillImage"/>
    <dc:date>2025-04-14T17:12:32.553207</dc:date>
    <dc:format>image/svg+xml</dc:format>
    <dc:creator>
     <cc:Agent>
      <dc:title>Matplotlib v3.8.0, https://matplotlib.org/</dc:title>
     </cc:Agent>
    </dc:creator>
   </cc:Work>
  </rdf:RDF>
 </metadata>
 <defs>
  <style type="text/css">*{stroke-linejoin: round; stroke-linecap: butt}</style>
 </defs>
 <g id="figure_1">
  <g id="patch_1">
   <path d="M 0 403.2 
L 371.52 403.2 
L 371.52 0 
L 0 0 
z
" style="fill: #ffffff"/>
  </g>
  <g id="axes_1">
   <g id="patch_2">
    <path d="M 53.204572 308.151244 
L 355.763134 308.151244 
L 355.763134 25.153771 
L 53.204572 25.153771 
z
" style="fill: #ffffff"/>
   </g>
   <g id="PathCollection_1">
    <defs>
     <path id="md033f8e883" d="M 0 -7.071068 
L -1.587554 -2.18508 
L -6.724985 -2.18508 
L -2.568716 0.834626 
L -4.156269 5.720614 
L -0 2.700907 
L 4.156269 5.720614 
L 2.568716 0.834626 
L 6.724985 -2.18508 
L 1.587554 -2.18508 
z
" style="stroke: #0000ff"/>
    </defs>
    <g clip-path="url(#p3d1561d749)">
     <use xlink:href="#md033f8e883" x="163.225867" y="250.042474" style="fill: #0000ff; stroke: #0000ff"/>
     <use xlink:href="#md033f8e883" x="125.406047" y="266.555338" style="fill: #0000ff; stroke: #0000ff"/>
     <use xlink:href="#md033f8e883" x="156.349536" y="250.042474" style="fill: #0000ff; stroke: #0000ff"/>
    </g>
   </g>
   <g id="PathCollection_2">
    <path d="M 230.613911 182.204064 
L 229.026357 187.090052 
L 223.888926 187.090052 
L 228.045195 190.109759 
L 226.457641 194.995746 
L 230.613911 191.97604 
L 234.77018 194.995746 
L 233.182626 190.109759 
L 237.338896 187.090052 
L 232.201464 187.090052 
L 230.613911 182.204064 
z
" clip-path="url(#p3d1561d749)" style="fill: none; stroke: #0000ff"/>
   </g>
   <g id="PathCollection_3">
    <defs>
     <path id="m417bd5e74f" d="M -7.071068 7.071068 
L 7.071068 -7.071068 
M -7.071068 -7.071068 
L 7.071068 7.071068 
" style="stroke: #0000ff; stroke-width: 2"/>
    </defs>
    <g clip-path="url(#p3d1561d749)">
     <use xlink:href="#m417bd5e74f" x="321.38148" y="38.017293" style="fill: #0000ff; stroke: #0000ff; stroke-width: 2"/>
    </g>
   </g>
   <g id="PolyCollection_1">
    <defs>
     <path id="m5f30a58a2a" d="M 342.010473 -189.485828 
L 66.957234 -189.485828 
L 66.957234 -202.69612 
L 342.010473 -202.69612 
L 342.010473 -202.69612 
L 342.010473 -189.485828 
z
" style="stroke: #808080; stroke-opacity: 0.3"/>
    </defs>
    <g clip-path="url(#p3d1561d749)">
     <use xlink:href="#m5f30a58a2a" x="0" y="403.2" style="fill: #808080; fill-opacity: 0.3; stroke: #808080; stroke-opacity: 0.3"/>
    </g>
   </g>
   <g id="matplotlib.axis_1">
    <g id="xtick_1">
     <g id="line2d_1">
      <defs>
       <path id="m32c8ecb3ad" d="M 0 0 
L 0 3.5 
" style="stroke: #000000; stroke-width: 0.8"/>
      </defs>
      <g>
       <use xlink:href="#m32c8ecb3ad" x="66.957234" y="308.151244" style="stroke: #000000; stroke-width: 0.8"/>
      </g>
     </g>
     <g id="text_1">
      <!-- $\mathdefault{0}$ -->
      <g transform="translate(64.030739 323.669229) scale(0.12 -0.12)">
       <defs>
        <path id="CMR17-30" d="M 2688 2025 
C 2688 2416 2682 3080 2413 3591 
C 2176 4039 1798 4198 1466 4198 
C 1158 4198 768 4058 525 3597 
C 269 3118 243 2524 243 2025 
C 243 1661 250 1106 448 619 
C 723 -39 1216 -128 1466 -128 
C 1760 -128 2208 -7 2470 600 
C 2662 1042 2688 1559 2688 2025 
z
M 1466 -26 
C 1056 -26 813 325 723 812 
C 653 1188 653 1738 653 2096 
C 653 2588 653 2997 736 3387 
C 858 3929 1216 4096 1466 4096 
C 1728 4096 2067 3923 2189 3400 
C 2272 3036 2278 2607 2278 2096 
C 2278 1680 2278 1169 2202 792 
C 2067 95 1690 -26 1466 -26 
z
" transform="scale(0.015625)"/>
       </defs>
       <use xlink:href="#CMR17-30" transform="scale(0.996264)"/>
      </g>
     </g>
    </g>
    <g id="xtick_2">
     <g id="line2d_2">
      <g>
       <use xlink:href="#m32c8ecb3ad" x="135.720543" y="308.151244" style="stroke: #000000; stroke-width: 0.8"/>
      </g>
     </g>
     <g id="text_2">
      <!-- $\mathdefault{1}$ -->
      <g transform="translate(132.794048 323.669229) scale(0.12 -0.12)">
       <defs>
        <path id="CMR17-31" d="M 1702 4058 
C 1702 4192 1696 4192 1606 4192 
C 1357 3916 979 3827 621 3827 
C 602 3827 570 3827 563 3808 
C 557 3795 557 3782 557 3648 
C 755 3648 1088 3686 1344 3839 
L 1344 461 
C 1344 236 1331 160 781 160 
L 589 160 
L 589 0 
C 896 0 1216 0 1523 0 
C 1830 0 2150 0 2458 0 
L 2458 160 
L 2266 160 
C 1715 160 1702 230 1702 458 
L 1702 4058 
z
" transform="scale(0.015625)"/>
       </defs>
       <use xlink:href="#CMR17-31" transform="scale(0.996264)"/>
      </g>
     </g>
    </g>
    <g id="xtick_3">
     <g id="line2d_3">
      <g>
       <use xlink:href="#m32c8ecb3ad" x="204.483853" y="308.151244" style="stroke: #000000; stroke-width: 0.8"/>
      </g>
     </g>
     <g id="text_3">
      <!-- $\mathdefault{2}$ -->
      <g transform="translate(201.557358 323.669229) scale(0.12 -0.12)">
       <defs>
        <path id="CMR17-32" d="M 2669 989 
L 2554 989 
C 2490 536 2438 459 2413 420 
C 2381 369 1920 369 1830 369 
L 602 369 
C 832 619 1280 1072 1824 1597 
C 2214 1967 2669 2402 2669 3035 
C 2669 3790 2067 4224 1395 4224 
C 691 4224 262 3604 262 3030 
C 262 2780 448 2748 525 2748 
C 589 2748 781 2787 781 3010 
C 781 3207 614 3264 525 3264 
C 486 3264 448 3258 422 3245 
C 544 3790 915 4058 1306 4058 
C 1862 4058 2227 3617 2227 3035 
C 2227 2479 1901 2000 1536 1584 
L 262 146 
L 262 0 
L 2515 0 
L 2669 989 
z
" transform="scale(0.015625)"/>
       </defs>
       <use xlink:href="#CMR17-32" transform="scale(0.996264)"/>
      </g>
     </g>
    </g>
    <g id="xtick_4">
     <g id="line2d_4">
      <g>
       <use xlink:href="#m32c8ecb3ad" x="273.247163" y="308.151244" style="stroke: #000000; stroke-width: 0.8"/>
      </g>
     </g>
     <g id="text_4">
      <!-- $\mathdefault{3}$ -->
      <g transform="translate(270.320668 323.669229) scale(0.12 -0.12)">
       <defs>
        <path id="CMR17-33" d="M 1414 2157 
C 1984 2157 2234 1662 2234 1090 
C 2234 320 1824 25 1453 25 
C 1114 25 563 194 390 693 
C 422 680 454 680 486 680 
C 640 680 755 782 755 948 
C 755 1133 614 1216 486 1216 
C 378 1216 211 1165 211 926 
C 211 335 787 -128 1466 -128 
C 2176 -128 2720 430 2720 1085 
C 2720 1707 2208 2157 1600 2227 
C 2086 2328 2554 2756 2554 3329 
C 2554 3820 2048 4179 1472 4179 
C 890 4179 378 3829 378 3329 
C 378 3110 544 3072 627 3072 
C 762 3072 877 3155 877 3321 
C 877 3486 762 3569 627 3569 
C 602 3569 570 3569 544 3557 
C 730 3959 1235 4032 1459 4032 
C 1683 4032 2106 3925 2106 3320 
C 2106 3143 2080 2828 1862 2550 
C 1670 2304 1453 2304 1242 2284 
C 1210 2284 1062 2269 1037 2269 
C 992 2263 966 2257 966 2208 
C 966 2163 973 2157 1101 2157 
L 1414 2157 
z
" transform="scale(0.015625)"/>
       </defs>
       <use xlink:href="#CMR17-33" transform="scale(0.996264)"/>
      </g>
     </g>
    </g>
    <g id="xtick_5">
     <g id="line2d_5">
      <g>
       <use xlink:href="#m32c8ecb3ad" x="342.010473" y="308.151244" style="stroke: #000000; stroke-width: 0.8"/>
      </g>
     </g>
     <g id="text_5">
      <!-- $\mathdefault{4}$ -->
      <g transform="translate(339.083977 323.669229) scale(0.12 -0.12)">
       <defs>
        <path id="CMR17-34" d="M 2150 4122 
C 2150 4256 2144 4256 2029 4256 
L 128 1254 
L 128 1088 
L 1779 1088 
L 1779 457 
C 1779 224 1766 160 1318 160 
L 1197 160 
L 1197 0 
C 1402 0 1747 0 1965 0 
C 2182 0 2528 0 2733 0 
L 2733 160 
L 2611 160 
C 2163 160 2150 224 2150 457 
L 2150 1088 
L 2803 1088 
L 2803 1254 
L 2150 1254 
L 2150 4122 
z
M 1798 3703 
L 1798 1254 
L 256 1254 
L 1798 3703 
z
" transform="scale(0.015625)"/>
       </defs>
       <use xlink:href="#CMR17-34" transform="scale(0.996264)"/>
      </g>
     </g>
    </g>
    <g id="text_6">
     <!-- $\mathrm{Width\ [MeV]}$ -->
     <g transform="translate(165.185437 340.676375) scale(0.14 -0.14)">
      <defs>
       <path id="CMR17-57" d="M 5523 3764 
C 5581 3936 5677 4160 6048 4160 
L 6048 4326 
C 5939 4326 5715 4326 5600 4326 
C 5440 4326 5158 4326 5005 4332 
L 5005 4160 
C 5293 4160 5414 4000 5414 3847 
C 5414 3802 5408 3777 5382 3707 
L 4390 555 
L 3347 3873 
C 3328 3937 3322 3963 3322 3988 
C 3322 4160 3603 4160 3725 4160 
L 3725 4326 
C 3539 4326 3219 4326 3021 4326 
C 2861 4326 2573 4326 2426 4332 
L 2426 4160 
C 2720 4160 2797 4141 2861 4027 
C 2886 3969 2989 3638 2989 3619 
C 2989 3593 2976 3555 2970 3536 
L 2029 561 
L 986 3867 
C 954 3957 954 3969 954 3982 
C 954 4160 1235 4160 1363 4160 
L 1363 4326 
C 1178 4326 858 4326 659 4326 
C 493 4326 211 4326 58 4332 
L 58 4160 
C 442 4160 467 4122 531 3918 
L 1779 -20 
C 1811 -115 1811 -128 1869 -128 
C 1920 -128 1939 -115 1965 -26 
L 3053 3433 
L 4141 -26 
C 4166 -115 4186 -128 4237 -128 
C 4294 -128 4294 -115 4326 -20 
L 5523 3764 
z
" transform="scale(0.015625)"/>
       <path id="CMR17-69" d="M 992 3909 
C 992 4049 877 4170 730 4170 
C 589 4170 467 4056 467 3909 
C 467 3769 582 3648 730 3648 
C 870 3648 992 3763 992 3909 
z
M 243 2706 
L 243 2541 
C 602 2541 653 2502 653 2197 
L 653 427 
C 653 184 627 153 218 153 
L 218 -13 
C 371 0 646 0 806 0 
C 960 0 1222 0 1370 -13 
L 1370 153 
C 992 153 979 191 979 420 
L 979 2776 
L 243 2706 
z
" transform="scale(0.015625)"/>
       <path id="CMR17-64" d="M 1869 4326 
L 1869 4160 
C 2246 4160 2304 4122 2304 3820 
L 2304 2345 
C 2278 2377 2016 2790 1498 2790 
C 845 2790 211 2208 211 1364 
C 211 525 806 -64 1434 -64 
C 1978 -64 2259 337 2291 380 
L 2291 -63 
L 3066 -63 
L 3066 128 
C 2688 128 2630 166 2630 473 
L 2630 4396 
L 1869 4326 
z
M 2291 755 
C 2291 563 2176 390 2029 262 
C 1811 70 1594 38 1472 38 
C 1286 38 621 134 621 1356 
C 621 2612 1363 2688 1530 2688 
C 1824 2688 2061 2522 2208 2291 
C 2291 2157 2291 2138 2291 2023 
L 2291 755 
z
" transform="scale(0.015625)"/>
       <path id="CMR17-74" d="M 966 2560 
L 1862 2560 
L 1862 2725 
L 966 2725 
L 966 3904 
L 851 3904 
C 838 3245 614 2668 70 2668 
L 70 2560 
L 627 2560 
L 627 771 
C 627 650 627 -64 1370 -64 
C 1747 -64 1965 306 1965 777 
L 1965 1140 
L 1850 1140 
L 1850 783 
C 1850 344 1677 51 1408 51 
C 1222 51 966 178 966 758 
L 966 2560 
z
" transform="scale(0.015625)"/>
       <path id="CMR17-68" d="M 2656 1933 
C 2656 2259 2592 2790 1837 2790 
C 1312 2790 1056 2368 979 2157 
L 973 2157 
L 973 4396 
L 211 4326 
L 211 4160 
C 589 4160 646 4122 646 3817 
L 646 426 
C 646 184 621 153 211 153 
L 211 -13 
C 365 0 646 0 813 0 
C 979 0 1267 0 1421 -13 
L 1421 153 
C 1011 153 986 178 986 428 
L 986 1658 
C 986 2247 1344 2688 1792 2688 
C 2266 2688 2317 2266 2317 1958 
L 2317 428 
C 2317 184 2291 153 1882 153 
L 1882 -13 
C 2035 0 2317 0 2483 0 
C 2650 0 2938 0 3091 -13 
L 3091 153 
C 2682 153 2656 178 2656 428 
L 2656 1933 
z
" transform="scale(0.015625)"/>
       <path id="CMR17-5b" d="M 1504 -1600 
L 1504 -1377 
L 902 -1377 
L 902 4544 
L 1504 4544 
L 1504 4767 
L 678 4767 
L 678 -1600 
L 1504 -1600 
z
" transform="scale(0.015625)"/>
       <path id="CMR17-4d" d="M 1338 4224 
C 1299 4320 1293 4320 1158 4320 
L 339 4320 
L 339 4160 
C 781 4160 851 4160 851 3875 
L 851 610 
C 851 451 851 153 339 153 
L 339 -13 
C 486 0 755 0 915 0 
C 1075 0 1344 0 1491 -13 
L 1491 153 
C 979 153 979 451 979 610 
L 979 4135 
L 986 4135 
L 2490 89 
C 2515 25 2528 -13 2579 -13 
C 2630 -13 2643 25 2669 89 
L 4186 4166 
L 4192 4166 
L 4192 438 
C 4192 153 4122 153 3680 153 
L 3680 -13 
C 3853 0 4198 0 4384 0 
C 4570 0 4922 0 5094 -13 
L 5094 153 
C 4653 153 4582 153 4582 438 
L 4582 3875 
C 4582 4160 4653 4160 5094 4160 
L 5094 4320 
L 4282 4320 
C 4147 4320 4141 4314 4102 4218 
L 2720 502 
L 1338 4224 
z
" transform="scale(0.015625)"/>
       <path id="CMR17-65" d="M 2438 1472 
C 2464 1498 2464 1511 2464 1576 
C 2464 2238 2118 2816 1389 2816 
C 710 2816 173 2169 173 1383 
C 173 551 781 -64 1459 -64 
C 2176 -64 2458 607 2458 740 
C 2458 784 2419 784 2406 784 
C 2362 784 2355 771 2330 696 
C 2189 265 1837 51 1504 51 
C 1229 51 954 203 781 480 
C 582 803 582 1176 582 1472 
L 2438 1472 
z
M 589 1568 
C 634 2505 1126 2714 1382 2714 
C 1818 2714 2112 2297 2118 1568 
L 589 1568 
z
" transform="scale(0.015625)"/>
       <path id="CMR17-56" d="M 3776 3745 
C 3834 3886 3936 4160 4365 4160 
L 4365 4332 
C 4218 4319 4051 4319 3891 4319 
C 3738 4319 3475 4319 3328 4332 
L 3328 4160 
C 3648 4160 3661 3936 3661 3898 
C 3661 3827 3642 3783 3622 3732 
L 2362 446 
L 1043 3886 
C 1024 3931 1011 3963 1011 3994 
C 1011 4160 1267 4160 1402 4160 
L 1402 4319 
C 1197 4319 896 4319 685 4319 
C 518 4319 218 4319 64 4332 
L 64 4160 
C 435 4160 506 4135 582 3931 
L 2106 -26 
C 2138 -115 2144 -128 2214 -128 
C 2285 -128 2291 -115 2323 -26 
L 3776 3745 
z
" transform="scale(0.015625)"/>
       <path id="CMR17-5d" d="M 915 4767 
L 90 4767 
L 90 4544 
L 691 4544 
L 691 -1377 
L 90 -1377 
L 90 -1600 
L 915 -1600 
L 915 4767 
z
" transform="scale(0.015625)"/>
      </defs>
      <use xlink:href="#CMR17-57" transform="scale(0.996264)"/>
      <use xlink:href="#CMR17-69" transform="translate(95.09665 0) scale(0.996264)"/>
      <use xlink:href="#CMR17-64" transform="translate(119.967708 0) scale(0.996264)"/>
      <use xlink:href="#CMR17-74" transform="translate(170.863078 0) scale(0.996264)"/>
      <use xlink:href="#CMR17-68" transform="translate(206.143846 0) scale(0.996264)"/>
      <use xlink:href="#CMR17-5b" transform="translate(284.734385 0) scale(0.996264)"/>
      <use xlink:href="#CMR17-4d" transform="translate(309.605444 0) scale(0.996264)"/>
      <use xlink:href="#CMR17-65" transform="translate(394.292384 0) scale(0.996264)"/>
      <use xlink:href="#CMR17-56" transform="translate(434.778045 0) scale(0.996264)"/>
      <use xlink:href="#CMR17-5d" transform="translate(503.850475 0) scale(0.996264)"/>
     </g>
    </g>
   </g>
   <g id="matplotlib.axis_2">
    <g id="ytick_1">
     <g id="line2d_6">
      <defs>
       <path id="m02f9c1611f" d="M 0 0 
L -3.5 0 
" style="stroke: #000000; stroke-width: 0.8"/>
      </defs>
      <g>
       <use xlink:href="#m02f9c1611f" x="53.204572" y="276.463057" style="stroke: #000000; stroke-width: 0.8"/>
      </g>
     </g>
     <g id="text_7">
      <!-- $\mathdefault{0}$ -->
      <g transform="translate(40.351582 280.722049) scale(0.12 -0.12)">
       <use xlink:href="#CMR17-30" transform="scale(0.996264)"/>
      </g>
     </g>
    </g>
    <g id="ytick_2">
     <g id="line2d_7">
      <g>
       <use xlink:href="#m02f9c1611f" x="53.204572" y="243.437328" style="stroke: #000000; stroke-width: 0.8"/>
      </g>
     </g>
     <g id="text_8">
      <!-- $\mathdefault{1}$ -->
      <g transform="translate(40.351582 247.69632) scale(0.12 -0.12)">
       <use xlink:href="#CMR17-31" transform="scale(0.996264)"/>
      </g>
     </g>
    </g>
    <g id="ytick_3">
     <g id="line2d_8">
      <g>
       <use xlink:href="#m02f9c1611f" x="53.204572" y="210.411599" style="stroke: #000000; stroke-width: 0.8"/>
      </g>
     </g>
     <g id="text_9">
      <!-- $\mathdefault{2}$ -->
      <g transform="translate(40.351582 214.670591) scale(0.12 -0.12)">
       <use xlink:href="#CMR17-32" transform="scale(0.996264)"/>
      </g>
     </g>
    </g>
    <g id="ytick_4">
     <g id="line2d_9">
      <g>
       <use xlink:href="#m02f9c1611f" x="53.204572" y="177.38587" style="stroke: #000000; stroke-width: 0.8"/>
      </g>
     </g>
     <g id="text_10">
      <!-- $\mathdefault{3}$ -->
      <g transform="translate(40.351582 181.644862) scale(0.12 -0.12)">
       <use xlink:href="#CMR17-33" transform="scale(0.996264)"/>
      </g>
     </g>
    </g>
    <g id="ytick_5">
     <g id="line2d_10">
      <g>
       <use xlink:href="#m02f9c1611f" x="53.204572" y="144.360141" style="stroke: #000000; stroke-width: 0.8"/>
      </g>
     </g>
     <g id="text_11">
      <!-- $\mathdefault{4}$ -->
      <g transform="translate(40.351582 148.619133) scale(0.12 -0.12)">
       <use xlink:href="#CMR17-34" transform="scale(0.996264)"/>
      </g>
     </g>
    </g>
    <g id="ytick_6">
     <g id="line2d_11">
      <g>
       <use xlink:href="#m02f9c1611f" x="53.204572" y="111.334412" style="stroke: #000000; stroke-width: 0.8"/>
      </g>
     </g>
     <g id="text_12">
      <!-- $\mathdefault{5}$ -->
      <g transform="translate(40.351582 115.593404) scale(0.12 -0.12)">
       <defs>
        <path id="CMR17-35" d="M 730 3692 
C 794 3666 1056 3584 1325 3584 
C 1920 3584 2246 3911 2432 4100 
C 2432 4157 2432 4192 2394 4192 
C 2387 4192 2374 4192 2323 4163 
C 2099 4058 1837 3973 1517 3973 
C 1325 3973 1037 3999 723 4139 
C 653 4171 640 4171 634 4171 
C 602 4171 595 4164 595 4037 
L 595 2203 
C 595 2089 595 2057 659 2057 
C 691 2057 704 2070 736 2114 
C 941 2401 1222 2522 1542 2522 
C 1766 2522 2246 2382 2246 1289 
C 2246 1085 2246 715 2054 421 
C 1894 159 1645 25 1370 25 
C 947 25 518 320 403 814 
C 429 807 480 795 506 795 
C 589 795 749 840 749 1038 
C 749 1210 627 1280 506 1280 
C 358 1280 262 1190 262 1011 
C 262 454 704 -128 1382 -128 
C 2042 -128 2669 440 2669 1264 
C 2669 2030 2170 2624 1549 2624 
C 1222 2624 947 2503 730 2274 
L 730 3692 
z
" transform="scale(0.015625)"/>
       </defs>
       <use xlink:href="#CMR17-35" transform="scale(0.996264)"/>
      </g>
     </g>
    </g>
    <g id="ytick_7">
     <g id="line2d_12">
      <g>
       <use xlink:href="#m02f9c1611f" x="53.204572" y="78.308682" style="stroke: #000000; stroke-width: 0.8"/>
      </g>
     </g>
     <g id="text_13">
      <!-- $\mathdefault{6}$ -->
      <g transform="translate(40.351582 82.567675) scale(0.12 -0.12)">
       <defs>
        <path id="CMR17-36" d="M 678 2176 
C 678 3690 1395 4032 1811 4032 
C 1946 4032 2272 4009 2400 3776 
C 2298 3776 2106 3776 2106 3553 
C 2106 3381 2246 3323 2336 3323 
C 2394 3323 2566 3348 2566 3560 
C 2566 3954 2246 4179 1805 4179 
C 1043 4179 243 3390 243 1984 
C 243 253 966 -128 1478 -128 
C 2099 -128 2688 427 2688 1283 
C 2688 2081 2170 2662 1517 2662 
C 1126 2662 838 2407 678 1960 
L 678 2176 
z
M 1478 25 
C 691 25 691 1200 691 1436 
C 691 1896 909 2560 1504 2560 
C 1613 2560 1926 2560 2138 2120 
C 2253 1870 2253 1609 2253 1289 
C 2253 944 2253 690 2118 434 
C 1978 171 1773 25 1478 25 
z
" transform="scale(0.015625)"/>
       </defs>
       <use xlink:href="#CMR17-36" transform="scale(0.996264)"/>
      </g>
     </g>
    </g>
    <g id="ytick_8">
     <g id="line2d_13">
      <g>
       <use xlink:href="#m02f9c1611f" x="53.204572" y="45.282953" style="stroke: #000000; stroke-width: 0.8"/>
      </g>
     </g>
     <g id="text_14">
      <!-- $\mathdefault{7}$ -->
      <g transform="translate(40.351582 49.541945) scale(0.12 -0.12)">
       <defs>
        <path id="CMR17-37" d="M 2886 3941 
L 2886 4081 
L 1382 4081 
C 634 4081 621 4165 595 4288 
L 480 4288 
L 294 3094 
L 410 3094 
C 429 3215 474 3540 550 3661 
C 589 3712 1062 3712 1171 3712 
L 2579 3712 
L 1869 2661 
C 1395 1954 1069 999 1069 165 
C 1069 89 1069 -128 1299 -128 
C 1530 -128 1530 89 1530 171 
L 1530 465 
C 1530 1508 1709 2196 2003 2636 
L 2886 3941 
z
" transform="scale(0.015625)"/>
       </defs>
       <use xlink:href="#CMR17-37" transform="scale(0.996264)"/>
      </g>
     </g>
    </g>
    <g id="text_15">
     <!-- $\mathrm{Energy\ [MeV]}$ -->
     <g transform="translate(32.864658 208.038615) rotate(-90) scale(0.14 -0.14)">
      <defs>
       <path id="CMR17-45" d="M 3885 1615 
L 3770 1615 
C 3629 676 3546 166 2419 166 
L 1530 166 
C 1274 166 1261 197 1261 414 
L 1261 2176 
L 1862 2176 
C 2464 2176 2522 1960 2522 1430 
L 2637 1430 
L 2637 3081 
L 2522 3081 
C 2522 2557 2464 2342 1862 2342 
L 1261 2342 
L 1261 3913 
C 1261 4128 1274 4160 1530 4160 
L 2406 4160 
C 3398 4160 3514 3769 3603 2929 
L 3718 2929 
L 3565 4325 
L 326 4325 
L 326 4160 
C 768 4160 838 4160 838 3874 
L 838 451 
C 838 166 768 166 326 166 
L 326 0 
L 3654 0 
L 3885 1615 
z
" transform="scale(0.015625)"/>
       <path id="CMR17-6e" d="M 2656 1933 
C 2656 2259 2592 2790 1837 2790 
C 1331 2790 1069 2400 973 2144 
L 966 2144 
L 966 2790 
L 211 2720 
L 211 2554 
C 589 2554 646 2515 646 2208 
L 646 428 
C 646 184 621 153 211 153 
L 211 -13 
C 365 0 646 0 813 0 
C 979 0 1267 0 1421 -13 
L 1421 153 
C 1011 153 986 178 986 428 
L 986 1658 
C 986 2247 1344 2688 1792 2688 
C 2266 2688 2317 2266 2317 1958 
L 2317 428 
C 2317 184 2291 153 1882 153 
L 1882 -13 
C 2035 0 2317 0 2483 0 
C 2650 0 2938 0 3091 -13 
L 3091 153 
C 2682 153 2656 178 2656 428 
L 2656 1933 
z
" transform="scale(0.015625)"/>
       <path id="CMR17-72" d="M 960 1497 
C 960 2112 1222 2688 1702 2688 
C 1747 2688 1792 2682 1837 2662 
C 1837 2662 1696 2617 1696 2452 
C 1696 2298 1818 2234 1914 2234 
C 1990 2234 2131 2279 2131 2458 
C 2131 2663 1926 2790 1709 2790 
C 1222 2790 1011 2317 947 2093 
L 941 2093 
L 941 2790 
L 198 2720 
L 198 2554 
C 576 2554 634 2515 634 2208 
L 634 428 
C 634 184 608 153 198 153 
L 198 -13 
C 352 0 646 0 813 0 
C 998 0 1325 0 1498 -13 
L 1498 153 
C 1037 153 960 153 960 440 
L 960 1497 
z
" transform="scale(0.015625)"/>
       <path id="CMR17-67" d="M 710 1164 
C 832 1068 1043 960 1299 960 
C 1805 960 2240 1357 2240 1888 
C 2240 2054 2189 2310 1997 2509 
C 2176 2692 2438 2752 2586 2752 
C 2611 2752 2650 2752 2682 2734 
C 2656 2728 2598 2703 2598 2605 
C 2598 2527 2656 2471 2739 2471 
C 2835 2471 2886 2533 2886 2614 
C 2886 2731 2790 2854 2586 2854 
C 2330 2854 2106 2738 1926 2580 
C 1734 2753 1504 2816 1299 2816 
C 794 2816 358 2419 358 1888 
C 358 1522 570 1292 634 1228 
C 442 1004 442 743 442 711 
C 442 545 506 302 723 168 
C 390 85 128 -169 128 -486 
C 128 -943 736 -1280 1466 -1280 
C 2170 -1280 2803 -956 2803 -479 
C 2803 384 1856 384 1363 384 
C 1216 384 954 384 922 391 
C 723 423 589 602 589 826 
C 589 883 589 1024 710 1164 
z
M 1299 1068 
C 736 1068 736 1760 736 1889 
C 736 2016 736 2708 1299 2708 
C 1862 2708 1862 2016 1862 1889 
C 1862 1760 1862 1068 1299 1068 
z
M 1466 -1171 
C 826 -1171 384 -835 384 -486 
C 384 -289 493 -105 634 -4 
C 794 104 858 104 1293 104 
C 1818 104 2547 104 2547 -486 
C 2547 -835 2106 -1171 1466 -1171 
z
" transform="scale(0.015625)"/>
       <path id="CMR17-79" d="M 2496 2197 
C 2656 2586 2944 2586 3034 2586 
L 3034 2752 
C 2912 2752 2752 2752 2630 2752 
C 2496 2752 2285 2752 2157 2758 
L 2157 2592 
C 2400 2573 2406 2394 2406 2343 
C 2406 2280 2394 2248 2362 2171 
L 1664 449 
L 902 2306 
C 870 2382 870 2426 870 2433 
C 870 2573 1018 2586 1171 2586 
L 1171 2758 
C 1018 2752 742 2752 582 2752 
C 410 2752 205 2752 64 2758 
L 64 2586 
C 410 2586 448 2554 531 2350 
L 1485 15 
C 1197 -738 1030 -1178 627 -1178 
C 557 -1178 397 -1159 282 -1044 
C 429 -1031 493 -942 493 -833 
C 493 -725 416 -629 288 -629 
C 147 -629 77 -725 77 -840 
C 77 -1095 339 -1280 627 -1280 
C 998 -1280 1229 -922 1357 -604 
L 2496 2197 
z
" transform="scale(0.015625)"/>
      </defs>
      <use xlink:href="#CMR17-45" transform="scale(0.996264)"/>
      <use xlink:href="#CMR17-6e" transform="translate(62.586301 0) scale(0.996264)"/>
      <use xlink:href="#CMR17-65" transform="translate(113.48167 0) scale(0.996264)"/>
      <use xlink:href="#CMR17-72" transform="translate(153.967331 0) scale(0.996264)"/>
      <use xlink:href="#CMR17-67" transform="translate(189.248099 0) scale(0.996264)"/>
      <use xlink:href="#CMR17-79" transform="translate(234.938576 0) scale(0.996264)"/>
      <use xlink:href="#CMR17-5b" transform="translate(312.227827 0) scale(0.996264)"/>
      <use xlink:href="#CMR17-4d" transform="translate(337.098886 0) scale(0.996264)"/>
      <use xlink:href="#CMR17-65" transform="translate(421.785826 0) scale(0.996264)"/>
      <use xlink:href="#CMR17-56" transform="translate(462.271487 0) scale(0.996264)"/>
      <use xlink:href="#CMR17-5d" transform="translate(531.343917 0) scale(0.996264)"/>
     </g>
    </g>
   </g>
   <g id="LineCollection_1">
    <path d="M 161.850601 198.192079 
L 212.73545 198.192079 
" clip-path="url(#p3d1561d749)" style="fill: none; stroke: #ff0000; stroke-width: 1.5"/>
   </g>
   <g id="LineCollection_2">
    <path d="M 187.293026 217.347002 
L 187.293026 179.037156 
" clip-path="url(#p3d1561d749)" style="fill: none; stroke: #ff0000; stroke-width: 1.5"/>
   </g>
   <g id="line2d_14">
    <defs>
     <path id="m4e57f0c10b" d="M 0 3 
L 0 -3 
" style="stroke: #ff0000"/>
    </defs>
    <g clip-path="url(#p3d1561d749)">
     <use xlink:href="#m4e57f0c10b" x="161.850601" y="198.192079" style="fill: #ff0000; stroke: #ff0000"/>
    </g>
   </g>
   <g id="line2d_15">
    <g clip-path="url(#p3d1561d749)">
     <use xlink:href="#m4e57f0c10b" x="212.73545" y="198.192079" style="fill: #ff0000; stroke: #ff0000"/>
    </g>
   </g>
   <g id="line2d_16">
    <defs>
     <path id="m4d5fc1f215" d="M 3 0 
L -3 -0 
" style="stroke: #ff0000"/>
    </defs>
    <g clip-path="url(#p3d1561d749)">
     <use xlink:href="#m4d5fc1f215" x="187.293026" y="217.347002" style="fill: #ff0000; stroke: #ff0000"/>
    </g>
   </g>
   <g id="line2d_17">
    <g clip-path="url(#p3d1561d749)">
     <use xlink:href="#m4d5fc1f215" x="187.293026" y="179.037156" style="fill: #ff0000; stroke: #ff0000"/>
    </g>
   </g>
   <g id="LineCollection_3">
    <path d="M 245.741839 249.051702 
L 245.741839 249.051702 
" clip-path="url(#p3d1561d749)" style="fill: none; stroke: #ff0000; stroke-width: 1.5"/>
   </g>
   <g id="LineCollection_4">
    <path d="M 245.741839 295.287723 
L 245.741839 202.815681 
" clip-path="url(#p3d1561d749)" style="fill: none; stroke: #ff0000; stroke-width: 1.5"/>
   </g>
   <g id="line2d_18">
    <g clip-path="url(#p3d1561d749)">
     <use xlink:href="#m4e57f0c10b" x="245.741839" y="249.051702" style="fill: #ff0000; stroke: #ff0000"/>
    </g>
   </g>
   <g id="line2d_19">
    <g clip-path="url(#p3d1561d749)">
     <use xlink:href="#m4e57f0c10b" x="245.741839" y="249.051702" style="fill: #ff0000; stroke: #ff0000"/>
    </g>
   </g>
   <g id="line2d_20">
    <g clip-path="url(#p3d1561d749)">
     <use xlink:href="#m4d5fc1f215" x="245.741839" y="295.287723" style="fill: #ff0000; stroke: #ff0000"/>
    </g>
   </g>
   <g id="line2d_21">
    <g clip-path="url(#p3d1561d749)">
     <use xlink:href="#m4d5fc1f215" x="245.741839" y="202.815681" style="fill: #ff0000; stroke: #ff0000"/>
    </g>
   </g>
   <g id="line2d_22">
    <defs>
     <path id="m28bdd04e82" d="M 0 4 
C 1.060812 4 2.078319 3.578535 2.828427 2.828427 
C 3.578535 2.078319 4 1.060812 4 0 
C 4 -1.060812 3.578535 -2.078319 2.828427 -2.828427 
C 2.078319 -3.578535 1.060812 -4 0 -4 
C -1.060812 -4 -2.078319 -3.578535 -2.828427 -2.828427 
C -3.578535 -2.078319 -4 -1.060812 -4 0 
C -4 1.060812 -3.578535 2.078319 -2.828427 2.828427 
C -2.078319 3.578535 -1.060812 4 0 4 
z
" style="stroke: #ff0000"/>
    </defs>
    <g clip-path="url(#p3d1561d749)">
     <use xlink:href="#m28bdd04e82" x="187.293026" y="198.192079" style="fill: #ff0000; stroke: #ff0000"/>
    </g>
   </g>
   <g id="line2d_23">
    <defs>
     <path id="m8818dc92d0" d="M 0 4 
C 1.060812 4 2.078319 3.578535 2.828427 2.828427 
C 3.578535 2.078319 4 1.060812 4 0 
C 4 -1.060812 3.578535 -2.078319 2.828427 -2.828427 
C 2.078319 -3.578535 1.060812 -4 0 -4 
C -1.060812 -4 -2.078319 -3.578535 -2.828427 -2.828427 
C -3.578535 -2.078319 -4 -1.060812 -4 0 
C -4 1.060812 -3.578535 2.078319 -2.828427 2.828427 
C -2.078319 3.578535 -1.060812 4 0 4 
z
" style="stroke: #ff0000"/>
    </defs>
    <g clip-path="url(#p3d1561d749)">
     <use xlink:href="#m8818dc92d0" x="245.741839" y="249.051702" style="fill-opacity: 0; stroke: #ff0000"/>
    </g>
   </g>
   <g id="patch_3">
    <path d="M 53.204572 308.151244 
L 53.204572 25.153771 
" style="fill: none; stroke: #000000; stroke-width: 0.8; stroke-linejoin: miter; stroke-linecap: square"/>
   </g>
   <g id="patch_4">
    <path d="M 355.763134 308.151244 
L 355.763134 25.153771 
" style="fill: none; stroke: #000000; stroke-width: 0.8; stroke-linejoin: miter; stroke-linecap: square"/>
   </g>
   <g id="patch_5">
    <path d="M 53.204572 308.151244 
L 355.763134 308.151244 
" style="fill: none; stroke: #000000; stroke-width: 0.8; stroke-linejoin: miter; stroke-linecap: square"/>
   </g>
   <g id="patch_6">
    <path d="M 53.204572 25.153771 
L 355.763134 25.153771 
" style="fill: none; stroke: #000000; stroke-width: 0.8; stroke-linejoin: miter; stroke-linecap: square"/>
   </g>
   <g id="legend_1">
    <g id="patch_7">
     <path d="M 60.204572 118.475611 
L 157.396275 118.475611 
Q 159.396275 118.475611 159.396275 116.475611 
L 159.396275 32.153771 
Q 159.396275 30.153771 157.396275 30.153771 
L 60.204572 30.153771 
Q 58.204572 30.153771 58.204572 32.153771 
L 58.204572 116.475611 
Q 58.204572 118.475611 60.204572 118.475611 
z
" style="fill: #ffffff; stroke: #cccccc; stroke-linejoin: miter"/>
    </g>
    <g id="PathCollection_4">
     <defs>
      <path id="mf51f0a011a" d="M 0 -3.535534 
L -0.793777 -1.09254 
L -3.362493 -1.09254 
L -1.284358 0.417313 
L -2.078135 2.860307 
L -0 1.350454 
L 2.078135 2.860307 
L 1.284358 0.417313 
L 3.362493 -1.09254 
L 0.793777 -1.09254 
z
" style="stroke: #0000ff"/>
     </defs>
     <g>
      <use xlink:href="#mf51f0a011a" x="72.204572" y="38.627092" style="fill: #0000ff; stroke: #0000ff"/>
     </g>
    </g>
    <g id="text_16">
     <!-- $\mathrm{NCSM}$ -->
     <g transform="translate(90.204572 41.252092) scale(0.1 -0.1)">
      <defs>
       <path id="CMR17-4e" d="M 1312 4250 
C 1267 4320 1261 4320 1139 4320 
L 326 4320 
L 326 4160 
L 448 4160 
C 704 4160 819 4129 838 4122 
L 838 610 
C 838 451 838 153 326 153 
L 326 -13 
C 474 0 742 0 902 0 
C 1062 0 1331 0 1478 -13 
L 1478 153 
C 966 153 966 451 966 610 
L 966 4033 
C 1011 3995 1011 3982 1056 3919 
L 3430 76 
C 3475 0 3494 0 3526 0 
C 3590 0 3590 19 3590 139 
L 3590 3705 
C 3590 3863 3590 4160 4102 4160 
L 4102 4326 
C 3955 4320 3686 4320 3526 4320 
C 3366 4320 3098 4320 2950 4326 
L 2950 4160 
C 3462 4160 3462 3862 3462 3703 
L 3462 763 
L 1312 4250 
z
" transform="scale(0.015625)"/>
       <path id="CMR17-43" d="M 3974 4289 
C 3974 4403 3968 4410 3930 4410 
C 3904 4410 3898 4403 3853 4327 
L 3571 3792 
C 3258 4187 2874 4416 2381 4416 
C 1286 4416 294 3456 294 2148 
C 294 826 1286 -128 2387 -128 
C 3366 -128 3974 730 3974 1461 
C 3974 1524 3974 1550 3917 1550 
C 3866 1550 3866 1531 3859 1474 
C 3808 585 3168 38 2477 38 
C 1824 38 781 495 781 2147 
C 781 3805 1843 4250 2464 4250 
C 3187 4250 3712 3628 3834 2745 
C 3846 2668 3846 2655 3904 2655 
C 3974 2655 3974 2668 3974 2783 
L 3974 4289 
z
" transform="scale(0.015625)"/>
       <path id="CMR17-53" d="M 2803 4290 
C 2803 4404 2797 4411 2758 4411 
C 2720 4411 2707 4385 2682 4328 
L 2490 3907 
C 2246 4257 1875 4416 1472 4416 
C 819 4416 294 3901 294 3253 
C 294 3056 339 2776 557 2510 
C 794 2218 1018 2167 1530 2033 
C 1722 1982 2042 1899 2106 1874 
C 2470 1722 2662 1341 2662 985 
C 2662 527 2336 38 1779 38 
C 1094 38 454 419 410 1311 
C 403 1413 397 1419 352 1419 
C 301 1419 294 1413 294 1285 
L 294 -1 
C 294 -115 301 -122 339 -122 
C 384 -122 397 -90 486 108 
C 493 127 493 140 614 381 
C 934 -39 1472 -128 1779 -128 
C 2477 -128 2970 451 2970 1124 
C 2970 1454 2848 1708 2778 1823 
C 2509 2230 2221 2306 1914 2382 
C 1869 2402 1856 2402 1498 2490 
C 1152 2579 1005 2624 845 2796 
C 666 2992 602 3196 602 3399 
C 602 3812 934 4263 1478 4263 
C 2157 4263 2579 3786 2675 2993 
C 2694 2878 2701 2872 2746 2872 
C 2803 2872 2803 2891 2803 2999 
L 2803 4290 
z
" transform="scale(0.015625)"/>
      </defs>
      <use xlink:href="#CMR17-4e" transform="scale(0.996264)"/>
      <use xlink:href="#CMR17-43" transform="translate(69.07243 0) scale(0.996264)"/>
      <use xlink:href="#CMR17-53" transform="translate(135.58231 0) scale(0.996264)"/>
      <use xlink:href="#CMR17-4d" transform="translate(186.47768 0) scale(0.996264)"/>
     </g>
    </g>
    <g id="PathCollection_5">
     <path d="M 72.204572 49.311864 
L 71.410795 51.754858 
L 68.842079 51.754858 
L 70.920214 53.264711 
L 70.126437 55.707705 
L 72.204572 54.197852 
L 74.282706 55.707705 
L 73.48893 53.264711 
L 75.567064 51.754858 
L 72.998349 51.754858 
L 72.204572 49.311864 
z
" style="fill: none; stroke: #0000ff"/>
    </g>
    <g id="text_17">
     <!-- $\mathrm{NCGSM}$ -->
     <g transform="translate(90.204572 55.472398) scale(0.1 -0.1)">
      <defs>
       <path id="CMR17-47" d="M 3974 1233 
C 3974 1473 3994 1505 4390 1505 
L 4390 1670 
C 4237 1664 3891 1664 3718 1664 
C 3539 1664 3040 1664 2797 1664 
L 2797 1505 
L 2989 1505 
C 3539 1505 3552 1434 3552 1201 
L 3552 774 
C 3552 63 2720 63 2522 63 
C 1862 63 781 511 781 2160 
C 781 3808 1843 4250 2464 4250 
C 3187 4250 3712 3626 3834 2741 
C 3846 2664 3846 2651 3904 2651 
C 3974 2651 3974 2664 3974 2779 
L 3974 4288 
C 3974 4402 3968 4409 3930 4409 
C 3904 4409 3898 4402 3853 4326 
L 3571 3791 
C 3258 4187 2874 4416 2381 4416 
C 1286 4416 294 3456 294 2148 
C 294 845 1267 -128 2394 -128 
C 2912 -128 3418 56 3616 417 
C 3725 158 3904 -20 3936 -20 
C 3968 -20 3974 -13 3974 100 
L 3974 1233 
z
" transform="scale(0.015625)"/>
      </defs>
      <use xlink:href="#CMR17-4e" transform="scale(0.996264)"/>
      <use xlink:href="#CMR17-43" transform="translate(69.07243 0) scale(0.996264)"/>
      <use xlink:href="#CMR17-47" transform="translate(135.58231 0) scale(0.996264)"/>
      <use xlink:href="#CMR17-53" transform="translate(207.937656 0) scale(0.996264)"/>
      <use xlink:href="#CMR17-4d" transform="translate(258.833026 0) scale(0.996264)"/>
     </g>
    </g>
    <g id="PathCollection_6">
     <defs>
      <path id="me0d05dc2fc" d="M -3.535534 3.535534 
L 3.535534 -3.535534 
M -3.535534 -3.535534 
L 3.535534 3.535534 
" style="stroke: #0000ff; stroke-width: 2"/>
     </defs>
     <g>
      <use xlink:href="#me0d05dc2fc" x="72.204572" y="67.067705" style="fill: #0000ff; stroke: #0000ff; stroke-width: 2"/>
     </g>
    </g>
    <g id="text_18">
     <!-- $\mathrm{NCGSM}$ -->
     <g transform="translate(90.204572 69.692705) scale(0.1 -0.1)">
      <use xlink:href="#CMR17-4e" transform="scale(0.996264)"/>
      <use xlink:href="#CMR17-43" transform="translate(69.07243 0) scale(0.996264)"/>
      <use xlink:href="#CMR17-47" transform="translate(135.58231 0) scale(0.996264)"/>
      <use xlink:href="#CMR17-53" transform="translate(207.937656 0) scale(0.996264)"/>
      <use xlink:href="#CMR17-4d" transform="translate(258.833026 0) scale(0.996264)"/>
     </g>
    </g>
    <g id="patch_8">
     <path d="M 62.204572 83.913012 
L 82.204572 83.913012 
L 82.204572 76.913012 
L 62.204572 76.913012 
z
" style="fill: #808080; fill-opacity: 0.3; stroke: #808080; stroke-opacity: 0.3; stroke-linejoin: miter"/>
    </g>
    <g id="text_19">
     <!-- $\mathrm{QMC}$ -->
     <g transform="translate(90.204572 83.913012) scale(0.1 -0.1)">
      <defs>
       <path id="CMR17-51" d="M 3027 83 
C 3789 408 4307 1236 4307 2193 
C 4307 3499 3366 4480 2304 4480 
C 1216 4480 294 3488 294 2199 
C 294 928 1216 -64 2304 -64 
C 2451 -64 2656 -45 2899 38 
C 3008 -747 3078 -1216 3629 -1216 
C 4307 -1216 4339 -213 4339 -33 
C 4339 32 4339 76 4294 76 
C 4262 76 4256 31 4256 18 
C 4211 -603 3866 -732 3661 -732 
C 3283 -732 3149 -394 3027 83 
z
M 1958 100 
C 1293 310 768 1017 768 2199 
C 768 3711 1606 4365 2298 4365 
C 3014 4365 3834 3686 3834 2198 
C 3834 1124 3405 527 2976 254 
C 2880 579 2726 960 2310 960 
C 2003 960 1830 692 1830 450 
C 1830 304 1888 183 1958 100 
z
M 2874 192 
C 2618 57 2413 57 2304 57 
C 2016 57 1933 315 1933 454 
C 1933 650 2067 858 2310 858 
C 2720 858 2822 493 2874 192 
z
" transform="scale(0.015625)"/>
      </defs>
      <use xlink:href="#CMR17-51" transform="scale(0.996264)"/>
      <use xlink:href="#CMR17-4d" transform="translate(71.714788 0) scale(0.996264)"/>
      <use xlink:href="#CMR17-43" transform="translate(156.401729 0) scale(0.996264)"/>
     </g>
    </g>
    <g id="LineCollection_5">
     <path d="M 67.204572 94.633318 
L 77.204572 94.633318 
" style="fill: none; stroke: #ff0000; stroke-width: 1.5"/>
    </g>
    <g id="LineCollection_6">
     <path d="M 72.204572 99.633318 
L 72.204572 89.633318 
" style="fill: none; stroke: #ff0000; stroke-width: 1.5"/>
    </g>
    <g id="line2d_24">
     <g>
      <use xlink:href="#m4e57f0c10b" x="67.204572" y="94.633318" style="fill: #ff0000; stroke: #ff0000"/>
     </g>
    </g>
    <g id="line2d_25">
     <g>
      <use xlink:href="#m4e57f0c10b" x="77.204572" y="94.633318" style="fill: #ff0000; stroke: #ff0000"/>
     </g>
    </g>
    <g id="line2d_26">
     <g>
      <use xlink:href="#m4d5fc1f215" x="72.204572" y="99.633318" style="fill: #ff0000; stroke: #ff0000"/>
     </g>
    </g>
    <g id="line2d_27">
     <g>
      <use xlink:href="#m4d5fc1f215" x="72.204572" y="89.633318" style="fill: #ff0000; stroke: #ff0000"/>
     </g>
    </g>
    <g id="line2d_28"/>
    <g id="line2d_29">
     <defs>
      <path id="m3dff44ae55" d="M 0 2 
C 0.530406 2 1.03916 1.789267 1.414214 1.414214 
C 1.789267 1.03916 2 0.530406 2 0 
C 2 -0.530406 1.789267 -1.03916 1.414214 -1.414214 
C 1.03916 -1.789267 0.530406 -2 0 -2 
C -0.530406 -2 -1.03916 -1.789267 -1.414214 -1.414214 
C -1.789267 -1.03916 -2 -0.530406 -2 0 
C -2 0.530406 -1.789267 1.03916 -1.414214 1.414214 
C -1.03916 1.789267 -0.530406 2 0 2 
z
" style="stroke: #ff0000"/>
     </defs>
     <g>
      <use xlink:href="#m3dff44ae55" x="72.204572" y="94.633318" style="fill: #ff0000; stroke: #ff0000"/>
     </g>
    </g>
    <g id="text_20">
     <!-- $\mathrm{Duer}\ \mathit{et\ al.}$ -->
     <g transform="translate(90.204572 98.133318) scale(0.1 -0.1)">
      <defs>
       <path id="CMR17-44" d="M 333 4352 
L 333 4186 
C 774 4186 845 4186 845 3900 
L 845 452 
C 845 166 774 166 333 166 
L 333 0 
L 2368 0 
C 3398 0 4224 943 4224 2141 
C 4224 3346 3411 4352 2368 4352 
L 333 4352 
z
M 1523 166 
C 1267 166 1254 197 1254 414 
L 1254 3938 
C 1254 4155 1267 4186 1523 4186 
L 2240 4186 
C 2771 4186 3750 3874 3750 2141 
C 3750 1242 3488 879 3366 707 
C 3213 510 2848 166 2240 166 
L 1523 166 
z
" transform="scale(0.015625)"/>
       <path id="CMR17-75" d="M 1882 2693 
L 1882 2528 
C 2259 2528 2317 2489 2317 2186 
L 2317 1032 
C 2317 500 2029 38 1555 38 
C 1030 38 986 348 986 678 
L 986 2763 
L 211 2693 
L 211 2528 
C 467 2528 640 2528 646 2274 
L 646 1058 
C 646 633 646 361 813 183 
C 896 101 1056 -64 1517 -64 
C 2061 -64 2272 377 2323 506 
L 2330 506 
L 2330 -63 
L 3091 -63 
L 3091 128 
C 2714 128 2656 166 2656 473 
L 2656 2763 
L 1882 2693 
z
" transform="scale(0.015625)"/>
       <path id="CMTI12-65" d="M 1472 1473 
C 1696 1473 2899 1473 2899 2282 
C 2899 2572 2662 2816 2285 2816 
C 1619 2816 730 2165 730 1041 
C 730 396 1062 -64 1606 -64 
C 2400 -64 2925 577 2925 667 
C 2925 711 2874 762 2835 762 
C 2816 762 2810 756 2758 699 
C 2419 242 1939 64 1613 64 
C 1190 64 1133 565 1133 768 
C 1133 1048 1178 1226 1242 1473 
L 1472 1473 
z
M 1280 1600 
C 1536 2624 2163 2689 2278 2689 
C 2534 2689 2682 2509 2682 2290 
C 2682 1600 1619 1600 1414 1600 
L 1280 1600 
z
" transform="scale(0.015625)"/>
       <path id="CMTI12-74" d="M 1638 2566 
L 2170 2566 
C 2278 2566 2342 2566 2342 2681 
C 2342 2752 2298 2752 2189 2752 
L 1683 2752 
L 1939 3762 
C 1946 3775 1952 3833 1952 3846 
C 1952 3904 1907 4000 1786 4000 
C 1626 4000 1568 3859 1542 3762 
L 1293 2752 
L 749 2752 
C 634 2752 576 2752 576 2630 
C 576 2566 627 2566 730 2566 
L 1248 2566 
L 787 728 
C 755 600 755 524 755 498 
C 755 204 928 -64 1280 -64 
C 1907 -64 2227 881 2227 913 
C 2227 971 2170 971 2144 971 
C 2074 971 2067 958 2035 888 
C 1958 690 1709 64 1293 64 
C 1197 64 1107 109 1107 319 
C 1107 415 1133 562 1158 658 
L 1638 2566 
z
" transform="scale(0.015625)"/>
       <path id="CMTI12-61" d="M 3040 2440 
C 3059 2510 3059 2529 3059 2542 
C 3059 2612 3008 2695 2893 2695 
C 2688 2695 2643 2446 2643 2446 
L 2637 2440 
C 2515 2740 2298 2816 2125 2816 
C 1427 2816 691 1839 691 907 
C 691 338 992 -64 1427 -64 
C 1690 -64 1952 102 2195 390 
C 2266 0 2554 -64 2701 -64 
C 2950 -64 3078 121 3162 307 
C 3270 530 3347 894 3347 913 
C 3347 971 3290 971 3264 971 
C 3187 971 3181 964 3142 817 
C 3014 287 2893 64 2714 64 
C 2573 64 2541 198 2541 319 
C 2541 415 2566 562 2592 658 
L 3040 2440 
z
M 2234 773 
C 2195 607 1811 64 1440 64 
C 1101 64 1088 562 1088 639 
C 1088 958 1293 1712 1395 1967 
C 1562 2363 1850 2689 2125 2689 
C 2509 2689 2554 2120 2554 2076 
C 2554 2069 2534 1999 2534 1986 
L 2234 773 
z
" transform="scale(0.015625)"/>
       <path id="CMTI12-6c" d="M 1907 4275 
C 1914 4314 1926 4339 1926 4358 
C 1926 4416 1882 4416 1779 4416 
L 1139 4358 
C 1050 4352 992 4346 992 4232 
C 992 4168 1043 4168 1133 4168 
C 1453 4168 1453 4110 1453 4047 
C 1453 4022 1440 3958 1434 3932 
L 627 720 
C 614 663 595 593 595 497 
C 595 160 813 -64 1107 -64 
C 1325 -64 1453 83 1542 261 
C 1658 472 1747 886 1747 905 
C 1747 969 1696 969 1664 969 
C 1638 969 1594 969 1581 930 
C 1574 911 1549 815 1530 758 
C 1446 446 1338 64 1120 64 
C 979 64 947 198 947 318 
C 947 401 979 580 998 663 
L 1907 4275 
z
" transform="scale(0.015625)"/>
       <path id="CMMI12-3a" d="M 1178 307 
C 1178 492 1024 619 870 619 
C 685 619 557 466 557 313 
C 557 128 710 0 864 0 
C 1050 0 1178 153 1178 307 
z
" transform="scale(0.015625)"/>
      </defs>
      <use xlink:href="#CMR17-44" transform="scale(0.996264)"/>
      <use xlink:href="#CMR17-75" transform="translate(70.393556 0) scale(0.996264)"/>
      <use xlink:href="#CMR17-65" transform="translate(121.288926 0) scale(0.996264)"/>
      <use xlink:href="#CMR17-72" transform="translate(161.774586 0) scale(0.996264)"/>
      <use xlink:href="#CMTI12-65" transform="translate(224.750524 0) scale(0.996264)"/>
      <use xlink:href="#CMTI12-74" transform="translate(269.58286 0) scale(0.996264)"/>
      <use xlink:href="#CMTI12-61" transform="translate(339.135271 0) scale(0.996264)"/>
      <use xlink:href="#CMTI12-6c" transform="translate(388.948943 0) scale(0.996264)"/>
      <use xlink:href="#CMMI12-3a" transform="translate(424.187328 0) scale(0.996264)"/>
     </g>
    </g>
    <g id="LineCollection_7">
     <path d="M 67.204572 108.853625 
L 77.204572 108.853625 
" style="fill: none; stroke: #ff0000; stroke-width: 1.5"/>
    </g>
    <g id="LineCollection_8">
     <path d="M 72.204572 113.853625 
L 72.204572 103.853625 
" style="fill: none; stroke: #ff0000; stroke-width: 1.5"/>
    </g>
    <g id="line2d_30">
     <g>
      <use xlink:href="#m4e57f0c10b" x="67.204572" y="108.853625" style="fill: #ff0000; stroke: #ff0000"/>
     </g>
    </g>
    <g id="line2d_31">
     <g>
      <use xlink:href="#m4e57f0c10b" x="77.204572" y="108.853625" style="fill: #ff0000; stroke: #ff0000"/>
     </g>
    </g>
    <g id="line2d_32">
     <g>
      <use xlink:href="#m4d5fc1f215" x="72.204572" y="113.853625" style="fill: #ff0000; stroke: #ff0000"/>
     </g>
    </g>
    <g id="line2d_33">
     <g>
      <use xlink:href="#m4d5fc1f215" x="72.204572" y="103.853625" style="fill: #ff0000; stroke: #ff0000"/>
     </g>
    </g>
    <g id="line2d_34"/>
    <g id="line2d_35">
     <defs>
      <path id="m6243f0fb2d" d="M 0 2 
C 0.530406 2 1.03916 1.789267 1.414214 1.414214 
C 1.789267 1.03916 2 0.530406 2 0 
C 2 -0.530406 1.789267 -1.03916 1.414214 -1.414214 
C 1.03916 -1.789267 0.530406 -2 0 -2 
C -0.530406 -2 -1.03916 -1.789267 -1.414214 -1.414214 
C -1.789267 -1.03916 -2 -0.530406 -2 0 
C -2 0.530406 -1.789267 1.03916 -1.414214 1.414214 
C -1.03916 1.789267 -0.530406 2 0 2 
z
" style="stroke: #ff0000"/>
     </defs>
     <g>
      <use xlink:href="#m6243f0fb2d" x="72.204572" y="108.853625" style="fill-opacity: 0; stroke: #ff0000"/>
     </g>
    </g>
    <g id="text_21">
     <!-- $\mathrm{Kisamori}\ \mathit{et\ al.}$ -->
     <g transform="translate(90.204572 112.353625) scale(0.1 -0.1)">
      <defs>
       <path id="CMR17-4b" d="M 2362 2675 
L 3469 3782 
C 3699 4006 3942 4186 4301 4186 
L 4301 4352 
C 4173 4352 4013 4352 3885 4352 
C 3712 4352 3411 4352 3245 4358 
L 3245 4192 
C 3411 4180 3437 4065 3437 4019 
C 3437 3975 3411 3905 3386 3867 
L 1261 1738 
L 1261 3900 
C 1261 4186 1331 4186 1773 4186 
L 1773 4352 
C 1587 4352 1248 4352 1050 4352 
C 851 4352 512 4352 326 4352 
L 326 4186 
C 768 4186 838 4186 838 3899 
L 838 446 
C 838 160 768 160 326 160 
L 326 0 
C 512 0 851 0 1050 0 
C 1248 0 1587 0 1773 0 
L 1773 160 
C 1331 160 1261 160 1261 447 
L 1261 1579 
L 2080 2390 
L 3290 537 
C 3328 473 3373 390 3373 326 
C 3373 160 3194 160 3110 160 
L 3110 0 
C 3315 0 3610 0 3821 0 
C 3974 0 4237 0 4384 -6 
L 4384 160 
C 4077 160 3981 198 3789 493 
L 2362 2675 
z
" transform="scale(0.015625)"/>
       <path id="CMR17-73" d="M 1978 2697 
C 1978 2813 1971 2819 1933 2819 
C 1907 2819 1901 2813 1824 2717 
C 1805 2691 1747 2626 1728 2601 
C 1523 2819 1235 2819 1126 2819 
C 416 2819 160 2447 160 2076 
C 160 1498 813 1365 998 1325 
C 1402 1243 1542 1217 1677 1101 
C 1760 1025 1901 884 1901 654 
C 1901 384 1747 38 1158 38 
C 602 38 403 460 288 1021 
C 269 1110 269 1117 218 1117 
C 166 1117 160 1110 160 983 
L 160 63 
C 160 -51 166 -58 205 -58 
C 237 -58 243 -51 275 0 
C 314 57 410 211 448 276 
C 576 103 800 -64 1158 -64 
C 1792 -64 2131 283 2131 784 
C 2131 1112 1958 1285 1875 1362 
C 1683 1561 1459 1606 1190 1657 
C 838 1735 390 1825 390 2217 
C 390 2383 480 2737 1126 2737 
C 1811 2737 1850 2094 1862 1888 
C 1869 1856 1901 1849 1920 1849 
C 1978 1849 1978 1869 1978 1978 
L 1978 2697 
z
" transform="scale(0.015625)"/>
       <path id="CMR17-61" d="M 2304 1653 
C 2304 2072 2304 2294 2035 2543 
C 1798 2752 1523 2816 1306 2816 
C 800 2816 435 2407 435 1971 
C 435 1728 627 1728 666 1728 
C 749 1728 896 1778 896 1954 
C 896 2112 774 2181 666 2181 
C 640 2181 608 2174 589 2168 
C 723 2592 1069 2714 1293 2714 
C 1613 2714 1965 2429 1965 1885 
L 1965 1600 
C 1587 1600 1133 1549 774 1357 
C 371 1133 256 813 256 570 
C 256 77 832 -64 1171 -64 
C 1523 -64 1850 139 1990 511 
C 2003 233 2182 -18 2464 -18 
C 2598 -18 2938 70 2938 567 
L 2938 920 
L 2822 920 
L 2822 562 
C 2822 178 2650 128 2566 128 
C 2304 128 2304 458 2304 738 
L 2304 1653 
z
M 1965 870 
C 1965 317 1568 38 1216 38 
C 896 38 646 275 646 570 
C 646 761 730 1100 1101 1305 
C 1408 1478 1760 1504 1965 1504 
L 1965 870 
z
" transform="scale(0.015625)"/>
       <path id="CMR17-6d" d="M 4326 1933 
C 4326 2252 4269 2790 3507 2790 
C 3072 2790 2771 2496 2656 2151 
L 2650 2151 
C 2573 2676 2195 2790 1837 2790 
C 1331 2790 1069 2400 973 2144 
L 966 2144 
L 966 2790 
L 211 2720 
L 211 2554 
C 589 2554 646 2515 646 2208 
L 646 428 
C 646 184 621 153 211 153 
L 211 -13 
C 365 0 646 0 813 0 
C 979 0 1267 0 1421 -13 
L 1421 153 
C 1011 153 986 178 986 428 
L 986 1658 
C 986 2247 1344 2688 1792 2688 
C 2266 2688 2317 2266 2317 1958 
L 2317 428 
C 2317 184 2291 153 1882 153 
L 1882 -13 
C 2035 0 2317 0 2483 0 
C 2650 0 2938 0 3091 -13 
L 3091 153 
C 2682 153 2656 178 2656 428 
L 2656 1658 
C 2656 2247 3014 2688 3462 2688 
C 3936 2688 3987 2266 3987 1958 
L 3987 428 
C 3987 184 3962 153 3552 153 
L 3552 -13 
C 3706 0 3987 0 4154 0 
C 4320 0 4608 0 4762 -13 
L 4762 153 
C 4352 153 4326 178 4326 428 
L 4326 1933 
z
" transform="scale(0.015625)"/>
       <path id="CMR17-6f" d="M 2758 1356 
C 2758 2176 2163 2816 1466 2816 
C 768 2816 173 2176 173 1356 
C 173 551 768 -64 1466 -64 
C 2163 -64 2758 551 2758 1356 
z
M 1466 51 
C 1165 51 909 230 762 480 
C 602 767 582 1126 582 1408 
C 582 1677 595 2010 762 2298 
C 890 2509 1139 2714 1466 2714 
C 1754 2714 1997 2554 2150 2330 
C 2349 2029 2349 1607 2349 1408 
C 2349 1158 2336 775 2163 467 
C 1984 173 1709 51 1466 51 
z
" transform="scale(0.015625)"/>
      </defs>
      <use xlink:href="#CMR17-4b" transform="scale(0.996264)"/>
      <use xlink:href="#CMR17-69" transform="translate(71.674777 0) scale(0.996264)"/>
      <use xlink:href="#CMR17-73" transform="translate(96.545836 0) scale(0.996264)"/>
      <use xlink:href="#CMR17-61" transform="translate(132.347173 0) scale(0.996264)"/>
      <use xlink:href="#CMR17-6d" transform="translate(178.037651 0) scale(0.996264)"/>
      <use xlink:href="#CMR17-6f" transform="translate(254.95724 0) scale(0.996264)"/>
      <use xlink:href="#CMR17-72" transform="translate(300.647718 0) scale(0.996264)"/>
      <use xlink:href="#CMR17-69" transform="translate(335.928485 0) scale(0.996264)"/>
      <use xlink:href="#CMTI12-65" transform="translate(388.494713 0) scale(0.996264)"/>
      <use xlink:href="#CMTI12-74" transform="translate(433.32705 0) scale(0.996264)"/>
      <use xlink:href="#CMTI12-61" transform="translate(502.879461 0) scale(0.996264)"/>
      <use xlink:href="#CMTI12-6c" transform="translate(552.693133 0) scale(0.996264)"/>
      <use xlink:href="#CMMI12-3a" transform="translate(587.931518 0) scale(0.996264)"/>
     </g>
    </g>
   </g>
  </g>
 </g>
 <defs>
  <clipPath id="p3d1561d749">
   <rect x="53.204572" y="25.153771" width="302.558563" height="282.997473"/>
  </clipPath>
 </defs>
</svg>
