<?xml version="1.0" encoding="utf-8" standalone="no"?>
<!DOCTYPE svg PUBLIC "-//W3C//DTD SVG 1.1//EN"
  "http://www.w3.org/Graphics/SVG/1.1/DTD/svg11.dtd">
<svg xmlns:xlink="http://www.w3.org/1999/xlink" width="367.2pt" height="238.32pt" viewBox="0 0 367.2 238.32" xmlns="http://www.w3.org/2000/svg" version="1.1">
 <metadata>
  <rdf:RDF xmlns:dc="http://purl.org/dc/elements/1.1/" xmlns:cc="http://creativecommons.org/ns#" xmlns:rdf="http://www.w3.org/1999/02/22-rdf-syntax-ns#">
   <cc:Work>
    <dc:type rdf:resource="http://purl.org/dc/dcmitype/StillImage"/>
    <dc:date>2024-08-14T11:11:35.272011</dc:date>
    <dc:format>image/svg+xml</dc:format>
    <dc:creator>
     <cc:Agent>
      <dc:title>Matplotlib v3.8.0, https://matplotlib.org/</dc:title>
     </cc:Agent>
    </dc:creator>
   </cc:Work>
  </rdf:RDF>
 </metadata>
 <defs>
  <style type="text/css">*{stroke-linejoin: round; stroke-linecap: butt}</style>
 </defs>
 <g id="figure_1">
  <g id="patch_1">
   <path d="M 0 238.32 
L 367.2 238.32 
L 367.2 0 
L 0 0 
z
" style="fill: #ffffff"/>
  </g>
  <g id="axes_1">
   <g id="patch_2">
    <path d="M 45.9 212.1048 
L 330.48 212.1048 
L 330.48 28.5984 
L 45.9 28.5984 
z
" style="fill: #ffffff"/>
   </g>
   <g id="matplotlib.axis_1">
    <g id="xtick_1">
     <g id="line2d_1">
      <defs>
       <path id="m1f443a54dd" d="M 0 0 
L 0 3.5 
" style="stroke: #000000; stroke-width: 0.8"/>
      </defs>
      <g>
       <use xlink:href="#m1f443a54dd" x="58.835455" y="212.1048" style="stroke: #000000; stroke-width: 0.8"/>
      </g>
     </g>
     <g id="text_1">
      <!-- $\mathdefault{0}$ -->
      <g transform="translate(55.908959 227.622784) scale(0.12 -0.12)">
       <defs>
        <path id="CMR17-30" d="M 2688 2025 
C 2688 2416 2682 3080 2413 3591 
C 2176 4039 1798 4198 1466 4198 
C 1158 4198 768 4058 525 3597 
C 269 3118 243 2524 243 2025 
C 243 1661 250 1106 448 619 
C 723 -39 1216 -128 1466 -128 
C 1760 -128 2208 -7 2470 600 
C 2662 1042 2688 1559 2688 2025 
z
M 1466 -26 
C 1056 -26 813 325 723 812 
C 653 1188 653 1738 653 2096 
C 653 2588 653 2997 736 3387 
C 858 3929 1216 4096 1466 4096 
C 1728 4096 2067 3923 2189 3400 
C 2272 3036 2278 2607 2278 2096 
C 2278 1680 2278 1169 2202 792 
C 2067 95 1690 -26 1466 -26 
z
" transform="scale(0.015625)"/>
       </defs>
       <use xlink:href="#CMR17-30" transform="scale(0.996264)"/>
      </g>
     </g>
    </g>
    <g id="xtick_2">
     <g id="line2d_2">
      <g>
       <use xlink:href="#m1f443a54dd" x="132.857183" y="212.1048" style="stroke: #000000; stroke-width: 0.8"/>
      </g>
     </g>
     <g id="text_2">
      <!-- $\mathdefault{5}$ -->
      <g transform="translate(129.930688 227.622784) scale(0.12 -0.12)">
       <defs>
        <path id="CMR17-35" d="M 730 3692 
C 794 3666 1056 3584 1325 3584 
C 1920 3584 2246 3911 2432 4100 
C 2432 4157 2432 4192 2394 4192 
C 2387 4192 2374 4192 2323 4163 
C 2099 4058 1837 3973 1517 3973 
C 1325 3973 1037 3999 723 4139 
C 653 4171 640 4171 634 4171 
C 602 4171 595 4164 595 4037 
L 595 2203 
C 595 2089 595 2057 659 2057 
C 691 2057 704 2070 736 2114 
C 941 2401 1222 2522 1542 2522 
C 1766 2522 2246 2382 2246 1289 
C 2246 1085 2246 715 2054 421 
C 1894 159 1645 25 1370 25 
C 947 25 518 320 403 814 
C 429 807 480 795 506 795 
C 589 795 749 840 749 1038 
C 749 1210 627 1280 506 1280 
C 358 1280 262 1190 262 1011 
C 262 454 704 -128 1382 -128 
C 2042 -128 2669 440 2669 1264 
C 2669 2030 2170 2624 1549 2624 
C 1222 2624 947 2503 730 2274 
L 730 3692 
z
" transform="scale(0.015625)"/>
       </defs>
       <use xlink:href="#CMR17-35" transform="scale(0.996264)"/>
      </g>
     </g>
    </g>
    <g id="xtick_3">
     <g id="line2d_3">
      <g>
       <use xlink:href="#m1f443a54dd" x="206.878912" y="212.1048" style="stroke: #000000; stroke-width: 0.8"/>
      </g>
     </g>
     <g id="text_3">
      <!-- $\mathdefault{10}$ -->
      <g transform="translate(201.025921 227.622784) scale(0.12 -0.12)">
       <defs>
        <path id="CMR17-31" d="M 1702 4058 
C 1702 4192 1696 4192 1606 4192 
C 1357 3916 979 3827 621 3827 
C 602 3827 570 3827 563 3808 
C 557 3795 557 3782 557 3648 
C 755 3648 1088 3686 1344 3839 
L 1344 461 
C 1344 236 1331 160 781 160 
L 589 160 
L 589 0 
C 896 0 1216 0 1523 0 
C 1830 0 2150 0 2458 0 
L 2458 160 
L 2266 160 
C 1715 160 1702 230 1702 458 
L 1702 4058 
z
" transform="scale(0.015625)"/>
       </defs>
       <use xlink:href="#CMR17-31" transform="scale(0.996264)"/>
       <use xlink:href="#CMR17-30" transform="translate(45.690477 0) scale(0.996264)"/>
      </g>
     </g>
    </g>
    <g id="xtick_4">
     <g id="line2d_4">
      <g>
       <use xlink:href="#m1f443a54dd" x="280.90064" y="212.1048" style="stroke: #000000; stroke-width: 0.8"/>
      </g>
     </g>
     <g id="text_4">
      <!-- $\mathdefault{15}$ -->
      <g transform="translate(275.04765 227.622784) scale(0.12 -0.12)">
       <use xlink:href="#CMR17-31" transform="scale(0.996264)"/>
       <use xlink:href="#CMR17-35" transform="translate(45.690477 0) scale(0.996264)"/>
      </g>
     </g>
    </g>
   </g>
   <g id="matplotlib.axis_2">
    <g id="ytick_1">
     <g id="line2d_5">
      <defs>
       <path id="m428c696252" d="M 0 0 
L -3.5 0 
" style="stroke: #000000; stroke-width: 0.8"/>
      </defs>
      <g>
       <use xlink:href="#m428c696252" x="45.9" y="212.1048" style="stroke: #000000; stroke-width: 0.8"/>
      </g>
     </g>
     <g id="text_5">
      <!-- $\mathdefault{0}$ -->
      <g transform="translate(33.04701 216.363792) scale(0.12 -0.12)">
       <use xlink:href="#CMR17-30" transform="scale(0.996264)"/>
      </g>
     </g>
    </g>
    <g id="ytick_2">
     <g id="line2d_6">
      <g>
       <use xlink:href="#m428c696252" x="45.9" y="175.40352" style="stroke: #000000; stroke-width: 0.8"/>
      </g>
     </g>
     <g id="text_6">
      <!-- $\mathdefault{2}$ -->
      <g transform="translate(33.04701 179.662512) scale(0.12 -0.12)">
       <defs>
        <path id="CMR17-32" d="M 2669 989 
L 2554 989 
C 2490 536 2438 459 2413 420 
C 2381 369 1920 369 1830 369 
L 602 369 
C 832 619 1280 1072 1824 1597 
C 2214 1967 2669 2402 2669 3035 
C 2669 3790 2067 4224 1395 4224 
C 691 4224 262 3604 262 3030 
C 262 2780 448 2748 525 2748 
C 589 2748 781 2787 781 3010 
C 781 3207 614 3264 525 3264 
C 486 3264 448 3258 422 3245 
C 544 3790 915 4058 1306 4058 
C 1862 4058 2227 3617 2227 3035 
C 2227 2479 1901 2000 1536 1584 
L 262 146 
L 262 0 
L 2515 0 
L 2669 989 
z
" transform="scale(0.015625)"/>
       </defs>
       <use xlink:href="#CMR17-32" transform="scale(0.996264)"/>
      </g>
     </g>
    </g>
    <g id="ytick_3">
     <g id="line2d_7">
      <g>
       <use xlink:href="#m428c696252" x="45.9" y="138.70224" style="stroke: #000000; stroke-width: 0.8"/>
      </g>
     </g>
     <g id="text_7">
      <!-- $\mathdefault{4}$ -->
      <g transform="translate(33.04701 142.961232) scale(0.12 -0.12)">
       <defs>
        <path id="CMR17-34" d="M 2150 4122 
C 2150 4256 2144 4256 2029 4256 
L 128 1254 
L 128 1088 
L 1779 1088 
L 1779 457 
C 1779 224 1766 160 1318 160 
L 1197 160 
L 1197 0 
C 1402 0 1747 0 1965 0 
C 2182 0 2528 0 2733 0 
L 2733 160 
L 2611 160 
C 2163 160 2150 224 2150 457 
L 2150 1088 
L 2803 1088 
L 2803 1254 
L 2150 1254 
L 2150 4122 
z
M 1798 3703 
L 1798 1254 
L 256 1254 
L 1798 3703 
z
" transform="scale(0.015625)"/>
       </defs>
       <use xlink:href="#CMR17-34" transform="scale(0.996264)"/>
      </g>
     </g>
    </g>
    <g id="ytick_4">
     <g id="line2d_8">
      <g>
       <use xlink:href="#m428c696252" x="45.9" y="102.00096" style="stroke: #000000; stroke-width: 0.8"/>
      </g>
     </g>
     <g id="text_8">
      <!-- $\mathdefault{6}$ -->
      <g transform="translate(33.04701 106.259952) scale(0.12 -0.12)">
       <defs>
        <path id="CMR17-36" d="M 678 2176 
C 678 3690 1395 4032 1811 4032 
C 1946 4032 2272 4009 2400 3776 
C 2298 3776 2106 3776 2106 3553 
C 2106 3381 2246 3323 2336 3323 
C 2394 3323 2566 3348 2566 3560 
C 2566 3954 2246 4179 1805 4179 
C 1043 4179 243 3390 243 1984 
C 243 253 966 -128 1478 -128 
C 2099 -128 2688 427 2688 1283 
C 2688 2081 2170 2662 1517 2662 
C 1126 2662 838 2407 678 1960 
L 678 2176 
z
M 1478 25 
C 691 25 691 1200 691 1436 
C 691 1896 909 2560 1504 2560 
C 1613 2560 1926 2560 2138 2120 
C 2253 1870 2253 1609 2253 1289 
C 2253 944 2253 690 2118 434 
C 1978 171 1773 25 1478 25 
z
" transform="scale(0.015625)"/>
       </defs>
       <use xlink:href="#CMR17-36" transform="scale(0.996264)"/>
      </g>
     </g>
    </g>
    <g id="ytick_5">
     <g id="line2d_9">
      <g>
       <use xlink:href="#m428c696252" x="45.9" y="65.29968" style="stroke: #000000; stroke-width: 0.8"/>
      </g>
     </g>
     <g id="text_9">
      <!-- $\mathdefault{8}$ -->
      <g transform="translate(33.04701 69.558672) scale(0.12 -0.12)">
       <defs>
        <path id="CMR17-38" d="M 1741 2264 
C 2144 2467 2554 2773 2554 3263 
C 2554 3841 1990 4179 1472 4179 
C 890 4179 378 3759 378 3180 
C 378 3021 416 2747 666 2505 
C 730 2442 998 2251 1171 2130 
C 883 1983 211 1634 211 934 
C 211 279 838 -128 1459 -128 
C 2144 -128 2720 362 2720 1010 
C 2720 1590 2330 1857 2074 2029 
L 1741 2264 
z
M 902 2822 
C 851 2854 595 3051 595 3351 
C 595 3739 998 4032 1459 4032 
C 1965 4032 2336 3676 2336 3262 
C 2336 2669 1670 2331 1638 2331 
C 1632 2331 1626 2331 1574 2370 
L 902 2822 
z
M 2080 1519 
C 2176 1449 2483 1240 2483 851 
C 2483 381 2010 25 1472 25 
C 890 25 448 438 448 940 
C 448 1443 838 1862 1280 2060 
L 2080 1519 
z
" transform="scale(0.015625)"/>
       </defs>
       <use xlink:href="#CMR17-38" transform="scale(0.996264)"/>
      </g>
     </g>
    </g>
    <g id="ytick_6">
     <g id="line2d_10">
      <g>
       <use xlink:href="#m428c696252" x="45.9" y="28.5984" style="stroke: #000000; stroke-width: 0.8"/>
      </g>
     </g>
     <g id="text_10">
      <!-- $\mathdefault{10}$ -->
      <g transform="translate(27.194019 32.857392) scale(0.12 -0.12)">
       <use xlink:href="#CMR17-31" transform="scale(0.996264)"/>
       <use xlink:href="#CMR17-30" transform="translate(45.690477 0) scale(0.996264)"/>
      </g>
     </g>
    </g>
   </g>
   <g id="line2d_11">
    <path d="M 71.558852 181.09034 
L 88.523383 182.580568 
L 122.452444 188.614249 
L 147.89924 189.610847 
L 169.104903 189.134249 
L 207.275097 188.651225 
L 232.721893 188.494809 
L 253.927556 188.355996 
L 292.09775 188.204373 
L 317.544545 188.426477 
" clip-path="url(#p5fb9471397)" style="fill: none; stroke: #1f77b4; stroke-width: 1.5; stroke-linecap: square"/>
    <defs>
     <path id="ma84290ce64" d="M -3 0 
L 3 0 
M 0 3 
L 0 -3 
" style="stroke: #1f77b4"/>
    </defs>
    <g clip-path="url(#p5fb9471397)">
     <use xlink:href="#ma84290ce64" x="71.558852" y="181.09034" style="fill: #1f77b4; stroke: #1f77b4"/>
     <use xlink:href="#ma84290ce64" x="88.523383" y="182.580568" style="fill: #1f77b4; stroke: #1f77b4"/>
     <use xlink:href="#ma84290ce64" x="122.452444" y="188.614249" style="fill: #1f77b4; stroke: #1f77b4"/>
     <use xlink:href="#ma84290ce64" x="147.89924" y="189.610847" style="fill: #1f77b4; stroke: #1f77b4"/>
     <use xlink:href="#ma84290ce64" x="169.104903" y="189.134249" style="fill: #1f77b4; stroke: #1f77b4"/>
     <use xlink:href="#ma84290ce64" x="207.275097" y="188.651225" style="fill: #1f77b4; stroke: #1f77b4"/>
     <use xlink:href="#ma84290ce64" x="232.721893" y="188.494809" style="fill: #1f77b4; stroke: #1f77b4"/>
     <use xlink:href="#ma84290ce64" x="253.927556" y="188.355996" style="fill: #1f77b4; stroke: #1f77b4"/>
     <use xlink:href="#ma84290ce64" x="292.09775" y="188.204373" style="fill: #1f77b4; stroke: #1f77b4"/>
     <use xlink:href="#ma84290ce64" x="317.544545" y="188.426477" style="fill: #1f77b4; stroke: #1f77b4"/>
    </g>
   </g>
   <g id="line2d_12">
    <path d="M 71.558852 179.479003 
L 88.523383 181.026824 
L 122.452444 187.341165 
L 147.89924 188.389789 
L 169.104903 187.888034 
L 207.275097 187.368636 
L 232.721893 187.197369 
L 253.927556 187.045493 
L 292.09775 186.880078 
L 317.544545 187.117085 
" clip-path="url(#p5fb9471397)" style="fill: none; stroke: #ff7f0e; stroke-width: 1.5; stroke-linecap: square"/>
    <defs>
     <path id="m4be1c3c8eb" d="M -3 0 
L 3 0 
M 0 3 
L 0 -3 
" style="stroke: #ff7f0e"/>
    </defs>
    <g clip-path="url(#p5fb9471397)">
     <use xlink:href="#m4be1c3c8eb" x="71.558852" y="179.479003" style="fill: #ff7f0e; stroke: #ff7f0e"/>
     <use xlink:href="#m4be1c3c8eb" x="88.523383" y="181.026824" style="fill: #ff7f0e; stroke: #ff7f0e"/>
     <use xlink:href="#m4be1c3c8eb" x="122.452444" y="187.341165" style="fill: #ff7f0e; stroke: #ff7f0e"/>
     <use xlink:href="#m4be1c3c8eb" x="147.89924" y="188.389789" style="fill: #ff7f0e; stroke: #ff7f0e"/>
     <use xlink:href="#m4be1c3c8eb" x="169.104903" y="187.888034" style="fill: #ff7f0e; stroke: #ff7f0e"/>
     <use xlink:href="#m4be1c3c8eb" x="207.275097" y="187.368636" style="fill: #ff7f0e; stroke: #ff7f0e"/>
     <use xlink:href="#m4be1c3c8eb" x="232.721893" y="187.197369" style="fill: #ff7f0e; stroke: #ff7f0e"/>
     <use xlink:href="#m4be1c3c8eb" x="253.927556" y="187.045493" style="fill: #ff7f0e; stroke: #ff7f0e"/>
     <use xlink:href="#m4be1c3c8eb" x="292.09775" y="186.880078" style="fill: #ff7f0e; stroke: #ff7f0e"/>
     <use xlink:href="#m4be1c3c8eb" x="317.544545" y="187.117085" style="fill: #ff7f0e; stroke: #ff7f0e"/>
    </g>
   </g>
   <g id="line2d_13">
    <path d="M 71.558852 167.554069 
L 88.523383 169.486418 
L 122.452444 177.827408 
L 147.89924 179.318305 
L 169.104903 178.695075 
L 207.275097 178.025728 
L 232.721893 177.851737 
L 253.927556 177.708951 
L 292.09775 177.679151 
L 317.544545 178.213853 
" clip-path="url(#p5fb9471397)" style="fill: none; stroke: #2ca02c; stroke-width: 1.5; stroke-linecap: square"/>
    <defs>
     <path id="m9f261cd6df" d="M -3 0 
L 3 0 
M 0 3 
L 0 -3 
" style="stroke: #2ca02c"/>
    </defs>
    <g clip-path="url(#p5fb9471397)">
     <use xlink:href="#m9f261cd6df" x="71.558852" y="167.554069" style="fill: #2ca02c; stroke: #2ca02c"/>
     <use xlink:href="#m9f261cd6df" x="88.523383" y="169.486418" style="fill: #2ca02c; stroke: #2ca02c"/>
     <use xlink:href="#m9f261cd6df" x="122.452444" y="177.827408" style="fill: #2ca02c; stroke: #2ca02c"/>
     <use xlink:href="#m9f261cd6df" x="147.89924" y="179.318305" style="fill: #2ca02c; stroke: #2ca02c"/>
     <use xlink:href="#m9f261cd6df" x="169.104903" y="178.695075" style="fill: #2ca02c; stroke: #2ca02c"/>
     <use xlink:href="#m9f261cd6df" x="207.275097" y="178.025728" style="fill: #2ca02c; stroke: #2ca02c"/>
     <use xlink:href="#m9f261cd6df" x="232.721893" y="177.851737" style="fill: #2ca02c; stroke: #2ca02c"/>
     <use xlink:href="#m9f261cd6df" x="253.927556" y="177.708951" style="fill: #2ca02c; stroke: #2ca02c"/>
     <use xlink:href="#m9f261cd6df" x="292.09775" y="177.679151" style="fill: #2ca02c; stroke: #2ca02c"/>
     <use xlink:href="#m9f261cd6df" x="317.544545" y="178.213853" style="fill: #2ca02c; stroke: #2ca02c"/>
    </g>
   </g>
   <g id="line2d_14">
    <path d="M 71.558852 149.355958 
L 88.523383 151.781208 
L 122.452444 163.180215 
L 147.89924 165.686111 
L 169.104903 165.253083 
L 207.275097 165.08858 
L 232.721893 165.499227 
L 253.927556 165.915563 
L 292.09775 167.160806 
L 317.544545 168.840936 
" clip-path="url(#p5fb9471397)" style="fill: none; stroke: #d62728; stroke-width: 1.5; stroke-linecap: square"/>
    <defs>
     <path id="m996b3c1e33" d="M -3 0 
L 3 0 
M 0 3 
L 0 -3 
" style="stroke: #d62728"/>
    </defs>
    <g clip-path="url(#p5fb9471397)">
     <use xlink:href="#m996b3c1e33" x="71.558852" y="149.355958" style="fill: #d62728; stroke: #d62728"/>
     <use xlink:href="#m996b3c1e33" x="88.523383" y="151.781208" style="fill: #d62728; stroke: #d62728"/>
     <use xlink:href="#m996b3c1e33" x="122.452444" y="163.180215" style="fill: #d62728; stroke: #d62728"/>
     <use xlink:href="#m996b3c1e33" x="147.89924" y="165.686111" style="fill: #d62728; stroke: #d62728"/>
     <use xlink:href="#m996b3c1e33" x="169.104903" y="165.253083" style="fill: #d62728; stroke: #d62728"/>
     <use xlink:href="#m996b3c1e33" x="207.275097" y="165.08858" style="fill: #d62728; stroke: #d62728"/>
     <use xlink:href="#m996b3c1e33" x="232.721893" y="165.499227" style="fill: #d62728; stroke: #d62728"/>
     <use xlink:href="#m996b3c1e33" x="253.927556" y="165.915563" style="fill: #d62728; stroke: #d62728"/>
     <use xlink:href="#m996b3c1e33" x="292.09775" y="167.160806" style="fill: #d62728; stroke: #d62728"/>
     <use xlink:href="#m996b3c1e33" x="317.544545" y="168.840936" style="fill: #d62728; stroke: #d62728"/>
    </g>
   </g>
   <g id="line2d_15">
    <path d="M 71.558852 106.21307 
L 88.523383 109.893257 
L 122.452444 129.899314 
L 147.89924 137.730666 
L 169.104903 140.537819 
L 207.275097 146.126555 
L 232.721893 150.491628 
L 253.927556 154.05819 
L 292.09775 160.457617 
L 317.544545 165.153629 
" clip-path="url(#p5fb9471397)" style="fill: none; stroke: #9467bd; stroke-width: 1.5; stroke-linecap: square"/>
    <defs>
     <path id="m4b66e52ac5" d="M -3 0 
L 3 0 
M 0 3 
L 0 -3 
" style="stroke: #9467bd"/>
    </defs>
    <g clip-path="url(#p5fb9471397)">
     <use xlink:href="#m4b66e52ac5" x="71.558852" y="106.21307" style="fill: #9467bd; stroke: #9467bd"/>
     <use xlink:href="#m4b66e52ac5" x="88.523383" y="109.893257" style="fill: #9467bd; stroke: #9467bd"/>
     <use xlink:href="#m4b66e52ac5" x="122.452444" y="129.899314" style="fill: #9467bd; stroke: #9467bd"/>
     <use xlink:href="#m4b66e52ac5" x="147.89924" y="137.730666" style="fill: #9467bd; stroke: #9467bd"/>
     <use xlink:href="#m4b66e52ac5" x="169.104903" y="140.537819" style="fill: #9467bd; stroke: #9467bd"/>
     <use xlink:href="#m4b66e52ac5" x="207.275097" y="146.126555" style="fill: #9467bd; stroke: #9467bd"/>
     <use xlink:href="#m4b66e52ac5" x="232.721893" y="150.491628" style="fill: #9467bd; stroke: #9467bd"/>
     <use xlink:href="#m4b66e52ac5" x="253.927556" y="154.05819" style="fill: #9467bd; stroke: #9467bd"/>
     <use xlink:href="#m4b66e52ac5" x="292.09775" y="160.457617" style="fill: #9467bd; stroke: #9467bd"/>
     <use xlink:href="#m4b66e52ac5" x="317.544545" y="165.153629" style="fill: #9467bd; stroke: #9467bd"/>
    </g>
   </g>
   <g id="line2d_16">
    <path d="M 45.9 212.1048 
L 330.48 212.1048 
" clip-path="url(#p5fb9471397)" style="fill: none; stroke: #000000; stroke-width: 1.5; stroke-linecap: square"/>
   </g>
   <g id="line2d_17">
    <path d="M 58.835455 212.1048 
L 58.835455 28.5984 
" clip-path="url(#p5fb9471397)" style="fill: none; stroke: #000000; stroke-width: 1.5; stroke-linecap: square"/>
   </g>
   <g id="line2d_18">
    <path d="M 45.9 175.40352 
L 330.48 175.40352 
" clip-path="url(#p5fb9471397)" style="fill: none; stroke: #ff0000; stroke-width: 1.5; stroke-linecap: square"/>
   </g>
   <g id="patch_3">
    <path d="M 45.9 212.1048 
L 45.9 28.5984 
" style="fill: none; stroke: #000000; stroke-width: 0.8; stroke-linejoin: miter; stroke-linecap: square"/>
   </g>
   <g id="patch_4">
    <path d="M 330.48 212.1048 
L 330.48 28.5984 
" style="fill: none; stroke: #000000; stroke-width: 0.8; stroke-linejoin: miter; stroke-linecap: square"/>
   </g>
   <g id="patch_5">
    <path d="M 45.9 212.1048 
L 330.48 212.1048 
" style="fill: none; stroke: #000000; stroke-width: 0.8; stroke-linejoin: miter; stroke-linecap: square"/>
   </g>
   <g id="patch_6">
    <path d="M 45.9 28.5984 
L 330.48 28.5984 
" style="fill: none; stroke: #000000; stroke-width: 0.8; stroke-linejoin: miter; stroke-linecap: square"/>
   </g>
   <g id="legend_1">
    <g id="patch_7">
     <path d="M 190.285281 123.520194 
L 322.08 123.520194 
Q 324.48 123.520194 324.48 121.120194 
L 324.48 36.9984 
Q 324.48 34.5984 322.08 34.5984 
L 190.285281 34.5984 
Q 187.885281 34.5984 187.885281 36.9984 
L 187.885281 121.120194 
Q 187.885281 123.520194 190.285281 123.520194 
z
" style="fill: #ffffff; opacity: 0.8; stroke: #cccccc; stroke-linejoin: miter"/>
    </g>
    <g id="line2d_19">
     <path d="M 192.685281 43.716384 
L 204.685281 43.716384 
L 216.685281 43.716384 
" style="fill: none; stroke: #1f77b4; stroke-width: 1.5; stroke-linecap: square"/>
     <g>
      <use xlink:href="#ma84290ce64" x="204.685281" y="43.716384" style="fill: #1f77b4; stroke: #1f77b4"/>
     </g>
    </g>
    <g id="text_11">
     <!-- $\mathrm{threshold=-8.03}$ -->
     <g transform="translate(226.285281 47.916384) scale(0.12 -0.12)">
      <defs>
       <path id="CMR17-74" d="M 966 2560 
L 1862 2560 
L 1862 2725 
L 966 2725 
L 966 3904 
L 851 3904 
C 838 3245 614 2668 70 2668 
L 70 2560 
L 627 2560 
L 627 771 
C 627 650 627 -64 1370 -64 
C 1747 -64 1965 306 1965 777 
L 1965 1140 
L 1850 1140 
L 1850 783 
C 1850 344 1677 51 1408 51 
C 1222 51 966 178 966 758 
L 966 2560 
z
" transform="scale(0.015625)"/>
       <path id="CMR17-68" d="M 2656 1933 
C 2656 2259 2592 2790 1837 2790 
C 1312 2790 1056 2368 979 2157 
L 973 2157 
L 973 4396 
L 211 4326 
L 211 4160 
C 589 4160 646 4122 646 3817 
L 646 426 
C 646 184 621 153 211 153 
L 211 -13 
C 365 0 646 0 813 0 
C 979 0 1267 0 1421 -13 
L 1421 153 
C 1011 153 986 178 986 428 
L 986 1658 
C 986 2247 1344 2688 1792 2688 
C 2266 2688 2317 2266 2317 1958 
L 2317 428 
C 2317 184 2291 153 1882 153 
L 1882 -13 
C 2035 0 2317 0 2483 0 
C 2650 0 2938 0 3091 -13 
L 3091 153 
C 2682 153 2656 178 2656 428 
L 2656 1933 
z
" transform="scale(0.015625)"/>
       <path id="CMR17-72" d="M 960 1497 
C 960 2112 1222 2688 1702 2688 
C 1747 2688 1792 2682 1837 2662 
C 1837 2662 1696 2617 1696 2452 
C 1696 2298 1818 2234 1914 2234 
C 1990 2234 2131 2279 2131 2458 
C 2131 2663 1926 2790 1709 2790 
C 1222 2790 1011 2317 947 2093 
L 941 2093 
L 941 2790 
L 198 2720 
L 198 2554 
C 576 2554 634 2515 634 2208 
L 634 428 
C 634 184 608 153 198 153 
L 198 -13 
C 352 0 646 0 813 0 
C 998 0 1325 0 1498 -13 
L 1498 153 
C 1037 153 960 153 960 440 
L 960 1497 
z
" transform="scale(0.015625)"/>
       <path id="CMR17-65" d="M 2438 1472 
C 2464 1498 2464 1511 2464 1576 
C 2464 2238 2118 2816 1389 2816 
C 710 2816 173 2169 173 1383 
C 173 551 781 -64 1459 -64 
C 2176 -64 2458 607 2458 740 
C 2458 784 2419 784 2406 784 
C 2362 784 2355 771 2330 696 
C 2189 265 1837 51 1504 51 
C 1229 51 954 203 781 480 
C 582 803 582 1176 582 1472 
L 2438 1472 
z
M 589 1568 
C 634 2505 1126 2714 1382 2714 
C 1818 2714 2112 2297 2118 1568 
L 589 1568 
z
" transform="scale(0.015625)"/>
       <path id="CMR17-73" d="M 1978 2697 
C 1978 2813 1971 2819 1933 2819 
C 1907 2819 1901 2813 1824 2717 
C 1805 2691 1747 2626 1728 2601 
C 1523 2819 1235 2819 1126 2819 
C 416 2819 160 2447 160 2076 
C 160 1498 813 1365 998 1325 
C 1402 1243 1542 1217 1677 1101 
C 1760 1025 1901 884 1901 654 
C 1901 384 1747 38 1158 38 
C 602 38 403 460 288 1021 
C 269 1110 269 1117 218 1117 
C 166 1117 160 1110 160 983 
L 160 63 
C 160 -51 166 -58 205 -58 
C 237 -58 243 -51 275 0 
C 314 57 410 211 448 276 
C 576 103 800 -64 1158 -64 
C 1792 -64 2131 283 2131 784 
C 2131 1112 1958 1285 1875 1362 
C 1683 1561 1459 1606 1190 1657 
C 838 1735 390 1825 390 2217 
C 390 2383 480 2737 1126 2737 
C 1811 2737 1850 2094 1862 1888 
C 1869 1856 1901 1849 1920 1849 
C 1978 1849 1978 1869 1978 1978 
L 1978 2697 
z
" transform="scale(0.015625)"/>
       <path id="CMR17-6f" d="M 2758 1356 
C 2758 2176 2163 2816 1466 2816 
C 768 2816 173 2176 173 1356 
C 173 551 768 -64 1466 -64 
C 2163 -64 2758 551 2758 1356 
z
M 1466 51 
C 1165 51 909 230 762 480 
C 602 767 582 1126 582 1408 
C 582 1677 595 2010 762 2298 
C 890 2509 1139 2714 1466 2714 
C 1754 2714 1997 2554 2150 2330 
C 2349 2029 2349 1607 2349 1408 
C 2349 1158 2336 775 2163 467 
C 1984 173 1709 51 1466 51 
z
" transform="scale(0.015625)"/>
       <path id="CMR17-6c" d="M 979 4396 
L 218 4326 
L 218 4160 
C 595 4160 653 4122 653 3817 
L 653 426 
C 653 184 627 153 218 153 
L 218 -13 
C 371 0 653 0 813 0 
C 979 0 1261 0 1414 -13 
L 1414 153 
C 1005 153 979 178 979 426 
L 979 4396 
z
" transform="scale(0.015625)"/>
       <path id="CMR17-64" d="M 1869 4326 
L 1869 4160 
C 2246 4160 2304 4122 2304 3820 
L 2304 2345 
C 2278 2377 2016 2790 1498 2790 
C 845 2790 211 2208 211 1364 
C 211 525 806 -64 1434 -64 
C 1978 -64 2259 337 2291 380 
L 2291 -63 
L 3066 -63 
L 3066 128 
C 2688 128 2630 166 2630 473 
L 2630 4396 
L 1869 4326 
z
M 2291 755 
C 2291 563 2176 390 2029 262 
C 1811 70 1594 38 1472 38 
C 1286 38 621 134 621 1356 
C 621 2612 1363 2688 1530 2688 
C 1824 2688 2061 2522 2208 2291 
C 2291 2157 2291 2138 2291 2023 
L 2291 755 
z
" transform="scale(0.015625)"/>
       <path id="CMR17-3d" d="M 4115 2017 
C 4211 2017 4307 2017 4307 2125 
C 4307 2240 4198 2240 4090 2240 
L 512 2240 
C 403 2240 294 2240 294 2125 
C 294 2017 390 2017 486 2017 
L 4115 2017 
z
M 4090 896 
C 4198 896 4307 896 4307 1011 
C 4307 1119 4211 1119 4115 1119 
L 486 1119 
C 390 1119 294 1119 294 1011 
C 294 896 403 896 512 896 
L 4090 896 
z
" transform="scale(0.015625)"/>
       <path id="CMSY10-0" d="M 4218 1472 
C 4326 1472 4442 1472 4442 1600 
C 4442 1728 4326 1728 4218 1728 
L 755 1728 
C 646 1728 531 1728 531 1600 
C 531 1472 646 1472 755 1472 
L 4218 1472 
z
" transform="scale(0.015625)"/>
       <path id="CMMI12-3a" d="M 1178 307 
C 1178 492 1024 619 870 619 
C 685 619 557 466 557 313 
C 557 128 710 0 864 0 
C 1050 0 1178 153 1178 307 
z
" transform="scale(0.015625)"/>
       <path id="CMR17-33" d="M 1414 2157 
C 1984 2157 2234 1662 2234 1090 
C 2234 320 1824 25 1453 25 
C 1114 25 563 194 390 693 
C 422 680 454 680 486 680 
C 640 680 755 782 755 948 
C 755 1133 614 1216 486 1216 
C 378 1216 211 1165 211 926 
C 211 335 787 -128 1466 -128 
C 2176 -128 2720 430 2720 1085 
C 2720 1707 2208 2157 1600 2227 
C 2086 2328 2554 2756 2554 3329 
C 2554 3820 2048 4179 1472 4179 
C 890 4179 378 3829 378 3329 
C 378 3110 544 3072 627 3072 
C 762 3072 877 3155 877 3321 
C 877 3486 762 3569 627 3569 
C 602 3569 570 3569 544 3557 
C 730 3959 1235 4032 1459 4032 
C 1683 4032 2106 3925 2106 3320 
C 2106 3143 2080 2828 1862 2550 
C 1670 2304 1453 2304 1242 2284 
C 1210 2284 1062 2269 1037 2269 
C 992 2263 966 2257 966 2208 
C 966 2163 973 2157 1101 2157 
L 1414 2157 
z
" transform="scale(0.015625)"/>
      </defs>
      <use xlink:href="#CMR17-74" transform="scale(0.996264)"/>
      <use xlink:href="#CMR17-68" transform="translate(35.280768 0) scale(0.996264)"/>
      <use xlink:href="#CMR17-72" transform="translate(86.176138 0) scale(0.996264)"/>
      <use xlink:href="#CMR17-65" transform="translate(121.456905 0) scale(0.996264)"/>
      <use xlink:href="#CMR17-73" transform="translate(161.942566 0) scale(0.996264)"/>
      <use xlink:href="#CMR17-68" transform="translate(197.743903 0) scale(0.996264)"/>
      <use xlink:href="#CMR17-6f" transform="translate(248.639273 0) scale(0.996264)"/>
      <use xlink:href="#CMR17-6c" transform="translate(294.32975 0) scale(0.996264)"/>
      <use xlink:href="#CMR17-64" transform="translate(319.200809 0) scale(0.996264)"/>
      <use xlink:href="#CMR17-3d" transform="translate(397.770187 0) scale(0.996264)"/>
      <use xlink:href="#CMSY10-0" transform="translate(497.158984 0) scale(0.996264)"/>
      <use xlink:href="#CMR17-38" transform="translate(574.646452 0) scale(0.996264)"/>
      <use xlink:href="#CMMI12-3a" transform="translate(620.336929 0) scale(0.996264)"/>
      <use xlink:href="#CMR17-30" transform="translate(647.434106 0) scale(0.996264)"/>
      <use xlink:href="#CMR17-33" transform="translate(693.124583 0) scale(0.996264)"/>
     </g>
    </g>
    <g id="line2d_20">
     <path d="M 192.685281 60.780743 
L 204.685281 60.780743 
L 216.685281 60.780743 
" style="fill: none; stroke: #ff7f0e; stroke-width: 1.5; stroke-linecap: square"/>
     <g>
      <use xlink:href="#m4be1c3c8eb" x="204.685281" y="60.780743" style="fill: #ff7f0e; stroke: #ff7f0e"/>
     </g>
    </g>
    <g id="text_12">
     <!-- $\mathrm{threshold=-7.47}$ -->
     <g transform="translate(226.285281 64.980743) scale(0.12 -0.12)">
      <defs>
       <path id="CMR17-37" d="M 2886 3941 
L 2886 4081 
L 1382 4081 
C 634 4081 621 4165 595 4288 
L 480 4288 
L 294 3094 
L 410 3094 
C 429 3215 474 3540 550 3661 
C 589 3712 1062 3712 1171 3712 
L 2579 3712 
L 1869 2661 
C 1395 1954 1069 999 1069 165 
C 1069 89 1069 -128 1299 -128 
C 1530 -128 1530 89 1530 171 
L 1530 465 
C 1530 1508 1709 2196 2003 2636 
L 2886 3941 
z
" transform="scale(0.015625)"/>
      </defs>
      <use xlink:href="#CMR17-74" transform="scale(0.996264)"/>
      <use xlink:href="#CMR17-68" transform="translate(35.280768 0) scale(0.996264)"/>
      <use xlink:href="#CMR17-72" transform="translate(86.176138 0) scale(0.996264)"/>
      <use xlink:href="#CMR17-65" transform="translate(121.456905 0) scale(0.996264)"/>
      <use xlink:href="#CMR17-73" transform="translate(161.942566 0) scale(0.996264)"/>
      <use xlink:href="#CMR17-68" transform="translate(197.743903 0) scale(0.996264)"/>
      <use xlink:href="#CMR17-6f" transform="translate(248.639273 0) scale(0.996264)"/>
      <use xlink:href="#CMR17-6c" transform="translate(294.32975 0) scale(0.996264)"/>
      <use xlink:href="#CMR17-64" transform="translate(319.200809 0) scale(0.996264)"/>
      <use xlink:href="#CMR17-3d" transform="translate(397.770187 0) scale(0.996264)"/>
      <use xlink:href="#CMSY10-0" transform="translate(497.158984 0) scale(0.996264)"/>
      <use xlink:href="#CMR17-37" transform="translate(574.646452 0) scale(0.996264)"/>
      <use xlink:href="#CMMI12-3a" transform="translate(620.336929 0) scale(0.996264)"/>
      <use xlink:href="#CMR17-34" transform="translate(647.434106 0) scale(0.996264)"/>
      <use xlink:href="#CMR17-37" transform="translate(693.124583 0) scale(0.996264)"/>
     </g>
    </g>
    <g id="line2d_21">
     <path d="M 192.685281 77.845102 
L 204.685281 77.845102 
L 216.685281 77.845102 
" style="fill: none; stroke: #2ca02c; stroke-width: 1.5; stroke-linecap: square"/>
     <g>
      <use xlink:href="#m9f261cd6df" x="204.685281" y="77.845102" style="fill: #2ca02c; stroke: #2ca02c"/>
     </g>
    </g>
    <g id="text_13">
     <!-- $\mathrm{threshold=-4.58}$ -->
     <g transform="translate(226.285281 82.045102) scale(0.12 -0.12)">
      <use xlink:href="#CMR17-74" transform="scale(0.996264)"/>
      <use xlink:href="#CMR17-68" transform="translate(35.280768 0) scale(0.996264)"/>
      <use xlink:href="#CMR17-72" transform="translate(86.176138 0) scale(0.996264)"/>
      <use xlink:href="#CMR17-65" transform="translate(121.456905 0) scale(0.996264)"/>
      <use xlink:href="#CMR17-73" transform="translate(161.942566 0) scale(0.996264)"/>
      <use xlink:href="#CMR17-68" transform="translate(197.743903 0) scale(0.996264)"/>
      <use xlink:href="#CMR17-6f" transform="translate(248.639273 0) scale(0.996264)"/>
      <use xlink:href="#CMR17-6c" transform="translate(294.32975 0) scale(0.996264)"/>
      <use xlink:href="#CMR17-64" transform="translate(319.200809 0) scale(0.996264)"/>
      <use xlink:href="#CMR17-3d" transform="translate(397.770187 0) scale(0.996264)"/>
      <use xlink:href="#CMSY10-0" transform="translate(497.158984 0) scale(0.996264)"/>
      <use xlink:href="#CMR17-34" transform="translate(574.646452 0) scale(0.996264)"/>
      <use xlink:href="#CMMI12-3a" transform="translate(620.336929 0) scale(0.996264)"/>
      <use xlink:href="#CMR17-35" transform="translate(647.434106 0) scale(0.996264)"/>
      <use xlink:href="#CMR17-38" transform="translate(693.124583 0) scale(0.996264)"/>
     </g>
    </g>
    <g id="line2d_22">
     <path d="M 192.685281 94.909461 
L 204.685281 94.909461 
L 216.685281 94.909461 
" style="fill: none; stroke: #d62728; stroke-width: 1.5; stroke-linecap: square"/>
     <g>
      <use xlink:href="#m996b3c1e33" x="204.685281" y="94.909461" style="fill: #d62728; stroke: #d62728"/>
     </g>
    </g>
    <g id="text_14">
     <!-- $\mathrm{threshold=-2.29}$ -->
     <g transform="translate(226.285281 99.109461) scale(0.12 -0.12)">
      <defs>
       <path id="CMR17-39" d="M 2253 1864 
C 2253 464 1670 31 1190 31 
C 1043 31 685 31 538 294 
C 704 268 826 357 826 518 
C 826 692 685 749 595 749 
C 538 749 365 723 365 506 
C 365 71 742 -128 1203 -128 
C 1939 -128 2688 674 2688 2073 
C 2688 3817 1971 4179 1485 4179 
C 851 4179 243 3628 243 2778 
C 243 1991 762 1408 1414 1408 
C 1952 1408 2189 1903 2253 2112 
L 2253 1864 
z
M 1427 1510 
C 1254 1510 1011 1542 813 1922 
C 678 2169 678 2461 678 2771 
C 678 3146 678 3405 858 3684 
C 947 3817 1114 4032 1485 4032 
C 2240 4032 2240 2885 2240 2632 
C 2240 2182 2035 1510 1427 1510 
z
" transform="scale(0.015625)"/>
      </defs>
      <use xlink:href="#CMR17-74" transform="scale(0.996264)"/>
      <use xlink:href="#CMR17-68" transform="translate(35.280768 0) scale(0.996264)"/>
      <use xlink:href="#CMR17-72" transform="translate(86.176138 0) scale(0.996264)"/>
      <use xlink:href="#CMR17-65" transform="translate(121.456905 0) scale(0.996264)"/>
      <use xlink:href="#CMR17-73" transform="translate(161.942566 0) scale(0.996264)"/>
      <use xlink:href="#CMR17-68" transform="translate(197.743903 0) scale(0.996264)"/>
      <use xlink:href="#CMR17-6f" transform="translate(248.639273 0) scale(0.996264)"/>
      <use xlink:href="#CMR17-6c" transform="translate(294.32975 0) scale(0.996264)"/>
      <use xlink:href="#CMR17-64" transform="translate(319.200809 0) scale(0.996264)"/>
      <use xlink:href="#CMR17-3d" transform="translate(397.770187 0) scale(0.996264)"/>
      <use xlink:href="#CMSY10-0" transform="translate(497.158984 0) scale(0.996264)"/>
      <use xlink:href="#CMR17-32" transform="translate(574.646452 0) scale(0.996264)"/>
      <use xlink:href="#CMMI12-3a" transform="translate(620.336929 0) scale(0.996264)"/>
      <use xlink:href="#CMR17-32" transform="translate(647.434106 0) scale(0.996264)"/>
      <use xlink:href="#CMR17-39" transform="translate(693.124583 0) scale(0.996264)"/>
     </g>
    </g>
    <g id="line2d_23">
     <path d="M 192.685281 111.97382 
L 204.685281 111.97382 
L 216.685281 111.97382 
" style="fill: none; stroke: #9467bd; stroke-width: 1.5; stroke-linecap: square"/>
     <g>
      <use xlink:href="#m4b66e52ac5" x="204.685281" y="111.97382" style="fill: #9467bd; stroke: #9467bd"/>
     </g>
    </g>
    <g id="text_15">
     <!-- $\mathrm{threshold=0.00}$ -->
     <g transform="translate(226.285281 116.17382) scale(0.12 -0.12)">
      <use xlink:href="#CMR17-74" transform="scale(0.996264)"/>
      <use xlink:href="#CMR17-68" transform="translate(35.280768 0) scale(0.996264)"/>
      <use xlink:href="#CMR17-72" transform="translate(86.176138 0) scale(0.996264)"/>
      <use xlink:href="#CMR17-65" transform="translate(121.456905 0) scale(0.996264)"/>
      <use xlink:href="#CMR17-73" transform="translate(161.942566 0) scale(0.996264)"/>
      <use xlink:href="#CMR17-68" transform="translate(197.743903 0) scale(0.996264)"/>
      <use xlink:href="#CMR17-6f" transform="translate(248.639273 0) scale(0.996264)"/>
      <use xlink:href="#CMR17-6c" transform="translate(294.32975 0) scale(0.996264)"/>
      <use xlink:href="#CMR17-64" transform="translate(319.200809 0) scale(0.996264)"/>
      <use xlink:href="#CMR17-3d" transform="translate(397.770187 0) scale(0.996264)"/>
      <use xlink:href="#CMR17-30" transform="translate(497.158984 0) scale(0.996264)"/>
      <use xlink:href="#CMMI12-3a" transform="translate(542.849462 0) scale(0.996264)"/>
      <use xlink:href="#CMR17-30" transform="translate(569.946639 0) scale(0.996264)"/>
      <use xlink:href="#CMR17-30" transform="translate(615.637116 0) scale(0.996264)"/>
     </g>
    </g>
   </g>
  </g>
  <g id="text_16">
   <!-- $\mathrm{Complex-Scaling\ angle}\ [\SI[]{}{\degree}]$ -->
   <g transform="translate(113.547025 234.159192) scale(0.12 -0.12)">
    <defs>
     <path id="CMR17-43" d="M 3974 4289 
C 3974 4403 3968 4410 3930 4410 
C 3904 4410 3898 4403 3853 4327 
L 3571 3792 
C 3258 4187 2874 4416 2381 4416 
C 1286 4416 294 3456 294 2148 
C 294 826 1286 -128 2387 -128 
C 3366 -128 3974 730 3974 1461 
C 3974 1524 3974 1550 3917 1550 
C 3866 1550 3866 1531 3859 1474 
C 3808 585 3168 38 2477 38 
C 1824 38 781 495 781 2147 
C 781 3805 1843 4250 2464 4250 
C 3187 4250 3712 3628 3834 2745 
C 3846 2668 3846 2655 3904 2655 
C 3974 2655 3974 2668 3974 2783 
L 3974 4289 
z
" transform="scale(0.015625)"/>
     <path id="CMR17-6d" d="M 4326 1933 
C 4326 2252 4269 2790 3507 2790 
C 3072 2790 2771 2496 2656 2151 
L 2650 2151 
C 2573 2676 2195 2790 1837 2790 
C 1331 2790 1069 2400 973 2144 
L 966 2144 
L 966 2790 
L 211 2720 
L 211 2554 
C 589 2554 646 2515 646 2208 
L 646 428 
C 646 184 621 153 211 153 
L 211 -13 
C 365 0 646 0 813 0 
C 979 0 1267 0 1421 -13 
L 1421 153 
C 1011 153 986 178 986 428 
L 986 1658 
C 986 2247 1344 2688 1792 2688 
C 2266 2688 2317 2266 2317 1958 
L 2317 428 
C 2317 184 2291 153 1882 153 
L 1882 -13 
C 2035 0 2317 0 2483 0 
C 2650 0 2938 0 3091 -13 
L 3091 153 
C 2682 153 2656 178 2656 428 
L 2656 1658 
C 2656 2247 3014 2688 3462 2688 
C 3936 2688 3987 2266 3987 1958 
L 3987 428 
C 3987 184 3962 153 3552 153 
L 3552 -13 
C 3706 0 3987 0 4154 0 
C 4320 0 4608 0 4762 -13 
L 4762 153 
C 4352 153 4326 178 4326 428 
L 4326 1933 
z
" transform="scale(0.015625)"/>
     <path id="CMR17-70" d="M 1408 -1063 
C 998 -1063 973 -1037 973 -789 
L 973 402 
C 1158 134 1427 -38 1766 -38 
C 2406 -38 3053 523 3053 1388 
C 3053 2191 2496 2802 1837 2802 
C 1453 2802 1139 2592 960 2338 
L 960 2802 
L 198 2732 
L 198 2567 
C 576 2567 634 2528 634 2223 
L 634 -789 
C 634 -1031 608 -1063 198 -1063 
L 198 -1228 
C 352 -1216 634 -1216 800 -1216 
C 966 -1216 1254 -1216 1408 -1228 
L 1408 -1063 
z
M 973 2012 
C 973 2102 973 2235 1222 2471 
C 1254 2497 1472 2688 1792 2688 
C 2259 2688 2643 2108 2643 1382 
C 2643 656 2234 64 1728 64 
C 1498 64 1248 172 1056 472 
C 973 612 973 650 973 752 
L 973 2012 
z
" transform="scale(0.015625)"/>
     <path id="CMR17-78" d="M 1664 1477 
C 1856 1726 2074 2006 2253 2216 
C 2464 2458 2707 2560 2989 2560 
L 2989 2726 
C 2880 2726 2656 2726 2541 2726 
C 2368 2726 2170 2726 2022 2732 
L 2022 2566 
C 2112 2553 2163 2489 2163 2400 
C 2163 2285 2099 2215 2067 2171 
L 1594 1573 
L 1030 2306 
C 973 2376 973 2388 973 2420 
C 973 2497 1037 2560 1146 2560 
L 1146 2732 
C 992 2726 717 2726 557 2726 
C 384 2726 179 2726 38 2732 
L 38 2560 
C 384 2560 461 2534 614 2343 
L 1350 1395 
C 1363 1382 1395 1344 1395 1325 
C 1395 1299 838 619 768 530 
C 480 185 179 160 6 160 
L 6 0 
C 115 0 339 0 454 0 
C 582 0 864 0 979 -6 
L 979 160 
C 941 166 838 179 838 325 
C 838 440 890 510 947 586 
L 1478 1236 
L 2035 512 
C 2086 442 2163 346 2163 301 
C 2163 211 2086 160 1984 160 
L 1984 -6 
C 2138 0 2413 0 2573 0 
C 2746 0 2950 0 3091 -6 
L 3091 160 
C 2771 160 2675 172 2522 370 
L 1664 1477 
z
" transform="scale(0.015625)"/>
     <path id="CMR17-53" d="M 2803 4290 
C 2803 4404 2797 4411 2758 4411 
C 2720 4411 2707 4385 2682 4328 
L 2490 3907 
C 2246 4257 1875 4416 1472 4416 
C 819 4416 294 3901 294 3253 
C 294 3056 339 2776 557 2510 
C 794 2218 1018 2167 1530 2033 
C 1722 1982 2042 1899 2106 1874 
C 2470 1722 2662 1341 2662 985 
C 2662 527 2336 38 1779 38 
C 1094 38 454 419 410 1311 
C 403 1413 397 1419 352 1419 
C 301 1419 294 1413 294 1285 
L 294 -1 
C 294 -115 301 -122 339 -122 
C 384 -122 397 -90 486 108 
C 493 127 493 140 614 381 
C 934 -39 1472 -128 1779 -128 
C 2477 -128 2970 451 2970 1124 
C 2970 1454 2848 1708 2778 1823 
C 2509 2230 2221 2306 1914 2382 
C 1869 2402 1856 2402 1498 2490 
C 1152 2579 1005 2624 845 2796 
C 666 2992 602 3196 602 3399 
C 602 3812 934 4263 1478 4263 
C 2157 4263 2579 3786 2675 2993 
C 2694 2878 2701 2872 2746 2872 
C 2803 2872 2803 2891 2803 2999 
L 2803 4290 
z
" transform="scale(0.015625)"/>
     <path id="CMR17-63" d="M 2234 2240 
C 2112 2240 1933 2240 1933 2017 
C 1933 1838 2080 1787 2163 1787 
C 2208 1787 2394 1807 2394 2024 
C 2394 2467 1958 2803 1466 2803 
C 787 2803 211 2178 211 1363 
C 211 516 813 -64 1466 -64 
C 2259 -64 2458 677 2458 748 
C 2458 774 2451 793 2406 793 
C 2362 793 2355 787 2330 703 
C 2163 180 1798 51 1523 51 
C 1114 51 621 427 621 1369 
C 621 2338 1094 2688 1472 2688 
C 1722 2688 2093 2573 2234 2240 
z
" transform="scale(0.015625)"/>
     <path id="CMR17-61" d="M 2304 1653 
C 2304 2072 2304 2294 2035 2543 
C 1798 2752 1523 2816 1306 2816 
C 800 2816 435 2407 435 1971 
C 435 1728 627 1728 666 1728 
C 749 1728 896 1778 896 1954 
C 896 2112 774 2181 666 2181 
C 640 2181 608 2174 589 2168 
C 723 2592 1069 2714 1293 2714 
C 1613 2714 1965 2429 1965 1885 
L 1965 1600 
C 1587 1600 1133 1549 774 1357 
C 371 1133 256 813 256 570 
C 256 77 832 -64 1171 -64 
C 1523 -64 1850 139 1990 511 
C 2003 233 2182 -18 2464 -18 
C 2598 -18 2938 70 2938 567 
L 2938 920 
L 2822 920 
L 2822 562 
C 2822 178 2650 128 2566 128 
C 2304 128 2304 458 2304 738 
L 2304 1653 
z
M 1965 870 
C 1965 317 1568 38 1216 38 
C 896 38 646 275 646 570 
C 646 761 730 1100 1101 1305 
C 1408 1478 1760 1504 1965 1504 
L 1965 870 
z
" transform="scale(0.015625)"/>
     <path id="CMR17-69" d="M 992 3909 
C 992 4049 877 4170 730 4170 
C 589 4170 467 4056 467 3909 
C 467 3769 582 3648 730 3648 
C 870 3648 992 3763 992 3909 
z
M 243 2706 
L 243 2541 
C 602 2541 653 2502 653 2197 
L 653 427 
C 653 184 627 153 218 153 
L 218 -13 
C 371 0 646 0 806 0 
C 960 0 1222 0 1370 -13 
L 1370 153 
C 992 153 979 191 979 420 
L 979 2776 
L 243 2706 
z
" transform="scale(0.015625)"/>
     <path id="CMR17-6e" d="M 2656 1933 
C 2656 2259 2592 2790 1837 2790 
C 1331 2790 1069 2400 973 2144 
L 966 2144 
L 966 2790 
L 211 2720 
L 211 2554 
C 589 2554 646 2515 646 2208 
L 646 428 
C 646 184 621 153 211 153 
L 211 -13 
C 365 0 646 0 813 0 
C 979 0 1267 0 1421 -13 
L 1421 153 
C 1011 153 986 178 986 428 
L 986 1658 
C 986 2247 1344 2688 1792 2688 
C 2266 2688 2317 2266 2317 1958 
L 2317 428 
C 2317 184 2291 153 1882 153 
L 1882 -13 
C 2035 0 2317 0 2483 0 
C 2650 0 2938 0 3091 -13 
L 3091 153 
C 2682 153 2656 178 2656 428 
L 2656 1933 
z
" transform="scale(0.015625)"/>
     <path id="CMR17-67" d="M 710 1164 
C 832 1068 1043 960 1299 960 
C 1805 960 2240 1357 2240 1888 
C 2240 2054 2189 2310 1997 2509 
C 2176 2692 2438 2752 2586 2752 
C 2611 2752 2650 2752 2682 2734 
C 2656 2728 2598 2703 2598 2605 
C 2598 2527 2656 2471 2739 2471 
C 2835 2471 2886 2533 2886 2614 
C 2886 2731 2790 2854 2586 2854 
C 2330 2854 2106 2738 1926 2580 
C 1734 2753 1504 2816 1299 2816 
C 794 2816 358 2419 358 1888 
C 358 1522 570 1292 634 1228 
C 442 1004 442 743 442 711 
C 442 545 506 302 723 168 
C 390 85 128 -169 128 -486 
C 128 -943 736 -1280 1466 -1280 
C 2170 -1280 2803 -956 2803 -479 
C 2803 384 1856 384 1363 384 
C 1216 384 954 384 922 391 
C 723 423 589 602 589 826 
C 589 883 589 1024 710 1164 
z
M 1299 1068 
C 736 1068 736 1760 736 1889 
C 736 2016 736 2708 1299 2708 
C 1862 2708 1862 2016 1862 1889 
C 1862 1760 1862 1068 1299 1068 
z
M 1466 -1171 
C 826 -1171 384 -835 384 -486 
C 384 -289 493 -105 634 -4 
C 794 104 858 104 1293 104 
C 1818 104 2547 104 2547 -486 
C 2547 -835 2106 -1171 1466 -1171 
z
" transform="scale(0.015625)"/>
     <path id="CMR17-5b" d="M 1504 -1600 
L 1504 -1377 
L 902 -1377 
L 902 4544 
L 1504 4544 
L 1504 4767 
L 678 4767 
L 678 -1600 
L 1504 -1600 
z
" transform="scale(0.015625)"/>
     <path id="SFRM3583-b0" d="M 890 4416 
C 544 4371 326 4080 326 3776 
C 326 3453 576 3136 960 3136 
L 1018 3136 
C 1357 3181 1587 3472 1587 3776 
C 1587 4105 1312 4416 947 4416 
L 890 4416 
z
M 525 3737 
L 525 3776 
C 525 4003 723 4204 947 4204 
C 1178 4204 1338 4026 1382 3815 
L 1382 3776 
C 1382 3545 1184 3341 960 3341 
C 730 3341 570 3522 525 3737 
z
" transform="scale(0.015625)"/>
     <path id="CMR17-5d" d="M 915 4767 
L 90 4767 
L 90 4544 
L 691 4544 
L 691 -1377 
L 90 -1377 
L 90 -1600 
L 915 -1600 
L 915 4767 
z
" transform="scale(0.015625)"/>
    </defs>
    <use xlink:href="#CMR17-43" transform="scale(0.996264)"/>
    <use xlink:href="#CMR17-6f" transform="translate(66.509881 0) scale(0.996264)"/>
    <use xlink:href="#CMR17-6d" transform="translate(112.200358 0) scale(0.996264)"/>
    <use xlink:href="#CMR17-70" transform="translate(189.119948 0) scale(0.996264)"/>
    <use xlink:href="#CMR17-6c" transform="translate(240.015317 0) scale(0.996264)"/>
    <use xlink:href="#CMR17-65" transform="translate(264.886376 0) scale(0.996264)"/>
    <use xlink:href="#CMR17-78" transform="translate(305.372036 0) scale(0.996264)"/>
    <use xlink:href="#CMSY10-0" transform="translate(375.804159 0) scale(0.996264)"/>
    <use xlink:href="#CMR17-53" transform="translate(475.430834 0) scale(0.996264)"/>
    <use xlink:href="#CMR17-63" transform="translate(526.326203 0) scale(0.996264)"/>
    <use xlink:href="#CMR17-61" transform="translate(566.811864 0) scale(0.996264)"/>
    <use xlink:href="#CMR17-6c" transform="translate(612.502341 0) scale(0.996264)"/>
    <use xlink:href="#CMR17-69" transform="translate(637.3734 0) scale(0.996264)"/>
    <use xlink:href="#CMR17-6e" transform="translate(662.244458 0) scale(0.996264)"/>
    <use xlink:href="#CMR17-67" transform="translate(713.139828 0) scale(0.996264)"/>
    <use xlink:href="#CMR17-61" transform="translate(787.826641 0) scale(0.996264)"/>
    <use xlink:href="#CMR17-6e" transform="translate(833.517118 0) scale(0.996264)"/>
    <use xlink:href="#CMR17-67" transform="translate(884.412488 0) scale(0.996264)"/>
    <use xlink:href="#CMR17-6c" transform="translate(930.102965 0) scale(0.996264)"/>
    <use xlink:href="#CMR17-65" transform="translate(954.974023 0) scale(0.996264)"/>
    <use xlink:href="#CMR17-5b" transform="translate(1023.154853 0) scale(0.996264)"/>
    <use xlink:href="#SFRM3583-b0" transform="translate(1048.025912 0) scale(0.356961)"/>
    <use xlink:href="#CMR17-5d" transform="translate(1058.66681 0) scale(0.996264)"/>
   </g>
  </g>
  <g id="text_17">
   <!-- $\mathrm{Rotation\ rate\ in}\ $$\mathrm{E^{0^{+}0}}$ -->
   <g transform="translate(32.361805 172.880028) rotate(-90) scale(0.12 -0.12)">
    <defs>
     <path id="CMR17-52" d="M 2509 2146 
C 3117 2268 3629 2676 3629 3186 
C 3629 3785 2950 4326 2054 4326 
L 333 4326 
L 333 4160 
C 774 4160 845 4160 845 3873 
L 845 415 
C 845 128 774 128 333 128 
L 333 -26 
C 518 -26 851 -26 1050 -26 
C 1248 -26 1581 -26 1766 -26 
L 1766 128 
C 1325 128 1254 128 1254 417 
L 1254 2112 
L 2003 2112 
C 2368 2112 2573 1964 2662 1881 
C 2918 1632 2918 1459 2918 1024 
C 2918 595 2918 377 3110 160 
C 3354 -102 3680 -128 3821 -128 
C 4294 -128 4365 396 4365 503 
C 4365 540 4365 585 4307 585 
C 4256 585 4250 547 4250 522 
C 4218 112 4032 -26 3834 -26 
C 3482 -26 3443 375 3405 764 
C 3386 898 3373 993 3360 1133 
C 3322 1452 3270 1917 2509 2146 
z
M 1984 2214 
L 1254 2214 
L 1254 3913 
C 1254 4129 1267 4160 1523 4160 
L 1990 4160 
C 2522 4160 3142 3977 3142 3190 
C 3142 2372 2464 2214 1984 2214 
z
" transform="scale(0.015625)"/>
     <path id="CMR17-45" d="M 3885 1615 
L 3770 1615 
C 3629 676 3546 166 2419 166 
L 1530 166 
C 1274 166 1261 197 1261 414 
L 1261 2176 
L 1862 2176 
C 2464 2176 2522 1960 2522 1430 
L 2637 1430 
L 2637 3081 
L 2522 3081 
C 2522 2557 2464 2342 1862 2342 
L 1261 2342 
L 1261 3913 
C 1261 4128 1274 4160 1530 4160 
L 2406 4160 
C 3398 4160 3514 3769 3603 2929 
L 3718 2929 
L 3565 4325 
L 326 4325 
L 326 4160 
C 768 4160 838 4160 838 3874 
L 838 451 
C 838 166 768 166 326 166 
L 326 0 
L 3654 0 
L 3885 1615 
z
" transform="scale(0.015625)"/>
     <path id="CMR17-2b" d="M 2413 1472 
L 4109 1472 
C 4198 1472 4307 1472 4307 1580 
C 4307 1695 4205 1695 4109 1695 
L 2413 1695 
L 2413 3386 
C 2413 3475 2413 3584 2304 3584 
C 2189 3584 2189 3482 2189 3386 
L 2189 1695 
L 493 1695 
C 403 1695 294 1695 294 1587 
C 294 1472 397 1472 493 1472 
L 2189 1472 
L 2189 -218 
C 2189 -307 2189 -416 2298 -416 
C 2413 -416 2413 -314 2413 -218 
L 2413 1472 
z
" transform="scale(0.015625)"/>
    </defs>
    <use xlink:href="#CMR17-52" transform="scale(0.996264)"/>
    <use xlink:href="#CMR17-6f" transform="translate(67.791102 0) scale(0.996264)"/>
    <use xlink:href="#CMR17-74" transform="translate(113.481579 0) scale(0.996264)"/>
    <use xlink:href="#CMR17-61" transform="translate(148.762347 0) scale(0.996264)"/>
    <use xlink:href="#CMR17-74" transform="translate(194.452824 0) scale(0.996264)"/>
    <use xlink:href="#CMR17-69" transform="translate(229.733592 0) scale(0.996264)"/>
    <use xlink:href="#CMR17-6f" transform="translate(254.60465 0) scale(0.996264)"/>
    <use xlink:href="#CMR17-6e" transform="translate(300.295127 0) scale(0.996264)"/>
    <use xlink:href="#CMR17-72" transform="translate(378.885667 0) scale(0.996264)"/>
    <use xlink:href="#CMR17-61" transform="translate(414.166435 0) scale(0.996264)"/>
    <use xlink:href="#CMR17-74" transform="translate(459.856912 0) scale(0.996264)"/>
    <use xlink:href="#CMR17-65" transform="translate(495.13768 0) scale(0.996264)"/>
    <use xlink:href="#CMR17-69" transform="translate(563.31851 0) scale(0.996264)"/>
    <use xlink:href="#CMR17-6e" transform="translate(588.189568 0) scale(0.996264)"/>
    <use xlink:href="#CMR17-45" transform="translate(666.780107 0) scale(0.996264)"/>
    <use xlink:href="#CMR17-30" transform="translate(729.366408 36.153639) scale(0.697382)"/>
    <use xlink:href="#CMR17-2b" transform="translate(761.34959 61.461065) scale(0.498132)"/>
    <use xlink:href="#CMR17-30" transform="translate(797.705109 36.153639) scale(0.697382)"/>
   </g>
  </g>
 </g>
 <defs>
  <clipPath id="p5fb9471397">
   <rect x="45.9" y="28.5984" width="284.58" height="183.5064"/>
  </clipPath>
 </defs>
</svg>
