<?xml version="1.0" encoding="utf-8" standalone="no"?>
<!DOCTYPE svg PUBLIC "-//W3C//DTD SVG 1.1//EN"
  "http://www.w3.org/Graphics/SVG/1.1/DTD/svg11.dtd">
<svg xmlns:xlink="http://www.w3.org/1999/xlink" width="436.32pt" height="296.64pt" viewBox="0 0 436.32 296.64" xmlns="http://www.w3.org/2000/svg" version="1.1">
 <metadata>
  <rdf:RDF xmlns:dc="http://purl.org/dc/elements/1.1/" xmlns:cc="http://creativecommons.org/ns#" xmlns:rdf="http://www.w3.org/1999/02/22-rdf-syntax-ns#">
   <cc:Work>
    <dc:type rdf:resource="http://purl.org/dc/dcmitype/StillImage"/>
    <dc:date>2024-11-11T10:40:22.031721</dc:date>
    <dc:format>image/svg+xml</dc:format>
    <dc:creator>
     <cc:Agent>
      <dc:title>Matplotlib v3.8.0, https://matplotlib.org/</dc:title>
     </cc:Agent>
    </dc:creator>
   </cc:Work>
  </rdf:RDF>
 </metadata>
 <defs>
  <style type="text/css">*{stroke-linejoin: round; stroke-linecap: butt}</style>
 </defs>
 <g id="figure_1">
  <g id="patch_1">
   <path d="M 0 296.64 
L 436.32 296.64 
L 436.32 0 
L 0 0 
z
" style="fill: #ffffff"/>
  </g>
  <g id="axes_1">
   <g id="patch_2">
    <path d="M 30.903688 124.708261 
L 211.683195 124.708261 
L 211.683195 16.856519 
L 30.903688 16.856519 
z
" style="fill: #ffffff"/>
   </g>
   <g id="matplotlib.axis_1">
    <g id="xtick_1">
     <g id="line2d_1">
      <defs>
       <path id="m0403a584cc" d="M 0 0 
L 0 3.5 
" style="stroke: #000000; stroke-width: 0.8"/>
      </defs>
      <g>
       <use xlink:href="#m0403a584cc" x="39.120938" y="124.708261" style="stroke: #000000; stroke-width: 0.8"/>
      </g>
     </g>
     <g id="text_1">
      <!-- $\mathdefault{0}$ -->
      <g transform="translate(36.381205 139.516413) scale(0.11 -0.11)">
       <defs>
        <path id="CMR17-30" d="M 2688 2025 
C 2688 2416 2682 3080 2413 3591 
C 2176 4039 1798 4198 1466 4198 
C 1158 4198 768 4058 525 3597 
C 269 3118 243 2524 243 2025 
C 243 1661 250 1106 448 619 
C 723 -39 1216 -128 1466 -128 
C 1760 -128 2208 -7 2470 600 
C 2662 1042 2688 1559 2688 2025 
z
M 1466 -26 
C 1056 -26 813 325 723 812 
C 653 1188 653 1738 653 2096 
C 653 2588 653 2997 736 3387 
C 858 3929 1216 4096 1466 4096 
C 1728 4096 2067 3923 2189 3400 
C 2272 3036 2278 2607 2278 2096 
C 2278 1680 2278 1169 2202 792 
C 2067 95 1690 -26 1466 -26 
z
" transform="scale(0.015625)"/>
       </defs>
       <use xlink:href="#CMR17-30" transform="scale(0.996264)"/>
      </g>
     </g>
    </g>
    <g id="xtick_2">
     <g id="line2d_2">
      <g>
       <use xlink:href="#m0403a584cc" x="116.644221" y="124.708261" style="stroke: #000000; stroke-width: 0.8"/>
      </g>
     </g>
     <g id="text_2">
      <!-- $\mathdefault{10}$ -->
      <g transform="translate(111.164754 139.516413) scale(0.11 -0.11)">
       <defs>
        <path id="CMR17-31" d="M 1702 4058 
C 1702 4192 1696 4192 1606 4192 
C 1357 3916 979 3827 621 3827 
C 602 3827 570 3827 563 3808 
C 557 3795 557 3782 557 3648 
C 755 3648 1088 3686 1344 3839 
L 1344 461 
C 1344 236 1331 160 781 160 
L 589 160 
L 589 0 
C 896 0 1216 0 1523 0 
C 1830 0 2150 0 2458 0 
L 2458 160 
L 2266 160 
C 1715 160 1702 230 1702 458 
L 1702 4058 
z
" transform="scale(0.015625)"/>
       </defs>
       <use xlink:href="#CMR17-31" transform="scale(0.996264)"/>
       <use xlink:href="#CMR17-30" transform="translate(45.690477 0) scale(0.996264)"/>
      </g>
     </g>
    </g>
    <g id="xtick_3">
     <g id="line2d_3">
      <g>
       <use xlink:href="#m0403a584cc" x="194.167505" y="124.708261" style="stroke: #000000; stroke-width: 0.8"/>
      </g>
     </g>
     <g id="text_3">
      <!-- $\mathdefault{20}$ -->
      <g transform="translate(188.688037 139.516413) scale(0.11 -0.11)">
       <defs>
        <path id="CMR17-32" d="M 2669 989 
L 2554 989 
C 2490 536 2438 459 2413 420 
C 2381 369 1920 369 1830 369 
L 602 369 
C 832 619 1280 1072 1824 1597 
C 2214 1967 2669 2402 2669 3035 
C 2669 3790 2067 4224 1395 4224 
C 691 4224 262 3604 262 3030 
C 262 2780 448 2748 525 2748 
C 589 2748 781 2787 781 3010 
C 781 3207 614 3264 525 3264 
C 486 3264 448 3258 422 3245 
C 544 3790 915 4058 1306 4058 
C 1862 4058 2227 3617 2227 3035 
C 2227 2479 1901 2000 1536 1584 
L 262 146 
L 262 0 
L 2515 0 
L 2669 989 
z
" transform="scale(0.015625)"/>
       </defs>
       <use xlink:href="#CMR17-32" transform="scale(0.996264)"/>
       <use xlink:href="#CMR17-30" transform="translate(45.690477 0) scale(0.996264)"/>
      </g>
     </g>
    </g>
   </g>
   <g id="matplotlib.axis_2">
    <g id="ytick_1">
     <g id="line2d_4">
      <defs>
       <path id="mc4d38b7492" d="M 0 0 
L -3.5 0 
" style="stroke: #000000; stroke-width: 0.8"/>
      </defs>
      <g>
       <use xlink:href="#mc4d38b7492" x="30.903688" y="119.572463" style="stroke: #000000; stroke-width: 0.8"/>
      </g>
     </g>
     <g id="text_4">
      <!-- $\mathdefault{0}$ -->
      <g transform="translate(18.424221 123.47654) scale(0.11 -0.11)">
       <use xlink:href="#CMR17-30" transform="scale(0.996264)"/>
      </g>
     </g>
    </g>
    <g id="ytick_2">
     <g id="line2d_5">
      <g>
       <use xlink:href="#mc4d38b7492" x="30.903688" y="68.214491" style="stroke: #000000; stroke-width: 0.8"/>
      </g>
     </g>
     <g id="text_5">
      <!-- $\mathdefault{5}$ -->
      <g transform="translate(18.424221 72.118567) scale(0.11 -0.11)">
       <defs>
        <path id="CMR17-35" d="M 730 3692 
C 794 3666 1056 3584 1325 3584 
C 1920 3584 2246 3911 2432 4100 
C 2432 4157 2432 4192 2394 4192 
C 2387 4192 2374 4192 2323 4163 
C 2099 4058 1837 3973 1517 3973 
C 1325 3973 1037 3999 723 4139 
C 653 4171 640 4171 634 4171 
C 602 4171 595 4164 595 4037 
L 595 2203 
C 595 2089 595 2057 659 2057 
C 691 2057 704 2070 736 2114 
C 941 2401 1222 2522 1542 2522 
C 1766 2522 2246 2382 2246 1289 
C 2246 1085 2246 715 2054 421 
C 1894 159 1645 25 1370 25 
C 947 25 518 320 403 814 
C 429 807 480 795 506 795 
C 589 795 749 840 749 1038 
C 749 1210 627 1280 506 1280 
C 358 1280 262 1190 262 1011 
C 262 454 704 -128 1382 -128 
C 2042 -128 2669 440 2669 1264 
C 2669 2030 2170 2624 1549 2624 
C 1222 2624 947 2503 730 2274 
L 730 3692 
z
" transform="scale(0.015625)"/>
       </defs>
       <use xlink:href="#CMR17-35" transform="scale(0.996264)"/>
      </g>
     </g>
    </g>
    <g id="ytick_3">
     <g id="line2d_6">
      <g>
       <use xlink:href="#mc4d38b7492" x="30.903688" y="16.856519" style="stroke: #000000; stroke-width: 0.8"/>
      </g>
     </g>
     <g id="text_6">
      <!-- $\mathdefault{10}$ -->
      <g transform="translate(12.944753 20.760595) scale(0.11 -0.11)">
       <use xlink:href="#CMR17-31" transform="scale(0.996264)"/>
       <use xlink:href="#CMR17-30" transform="translate(45.690477 0) scale(0.996264)"/>
      </g>
     </g>
    </g>
   </g>
   <g id="line2d_7">
    <path d="M 45.783574 99.032042 
L 54.667088 98.96241 
L 72.434115 99.047248 
L 94.6429 99.2348 
L 116.851685 99.618542 
L 139.060469 100.53869 
L 161.269254 102.794561 
L 176.815403 106.149003 
L 185.698917 109.184492 
L 194.582431 113.145574 
L 203.465945 117.776217 
" clip-path="url(#pba37b8f72e)" style="fill: none; stroke: #1f77b4; stroke-width: 1.5; stroke-linecap: square"/>
    <defs>
     <path id="m0d6b8d380b" d="M -3 0 
L 3 0 
M 0 3 
L 0 -3 
" style="stroke: #1f77b4"/>
    </defs>
    <g clip-path="url(#pba37b8f72e)">
     <use xlink:href="#m0d6b8d380b" x="45.783574" y="99.032042" style="fill: #1f77b4; stroke: #1f77b4"/>
     <use xlink:href="#m0d6b8d380b" x="54.667088" y="98.96241" style="fill: #1f77b4; stroke: #1f77b4"/>
     <use xlink:href="#m0d6b8d380b" x="72.434115" y="99.047248" style="fill: #1f77b4; stroke: #1f77b4"/>
     <use xlink:href="#m0d6b8d380b" x="94.6429" y="99.2348" style="fill: #1f77b4; stroke: #1f77b4"/>
     <use xlink:href="#m0d6b8d380b" x="116.851685" y="99.618542" style="fill: #1f77b4; stroke: #1f77b4"/>
     <use xlink:href="#m0d6b8d380b" x="139.060469" y="100.53869" style="fill: #1f77b4; stroke: #1f77b4"/>
     <use xlink:href="#m0d6b8d380b" x="161.269254" y="102.794561" style="fill: #1f77b4; stroke: #1f77b4"/>
     <use xlink:href="#m0d6b8d380b" x="176.815403" y="106.149003" style="fill: #1f77b4; stroke: #1f77b4"/>
     <use xlink:href="#m0d6b8d380b" x="185.698917" y="109.184492" style="fill: #1f77b4; stroke: #1f77b4"/>
     <use xlink:href="#m0d6b8d380b" x="194.582431" y="113.145574" style="fill: #1f77b4; stroke: #1f77b4"/>
     <use xlink:href="#m0d6b8d380b" x="203.465945" y="117.776217" style="fill: #1f77b4; stroke: #1f77b4"/>
    </g>
   </g>
   <g id="line2d_8">
    <path d="M 30.903688 119.572463 
L 211.683195 119.572463 
" clip-path="url(#pba37b8f72e)" style="fill: none; stroke: #000000; stroke-width: 1.5; stroke-linecap: square"/>
   </g>
   <g id="line2d_9">
    <path d="M 39.120938 124.708261 
L 39.120938 16.856519 
" clip-path="url(#pba37b8f72e)" style="fill: none; stroke: #000000; stroke-width: 1.5; stroke-linecap: square"/>
   </g>
   <g id="line2d_10">
    <path d="M 30.903688 99.029275 
L 211.683195 99.029275 
" clip-path="url(#pba37b8f72e)" style="fill: none; stroke: #ff0000; stroke-width: 1.5; stroke-linecap: square"/>
   </g>
   <g id="patch_3">
    <path d="M 30.903688 124.708261 
L 30.903688 16.856519 
" style="fill: none; stroke: #000000; stroke-width: 0.8; stroke-linejoin: miter; stroke-linecap: square"/>
   </g>
   <g id="patch_4">
    <path d="M 211.683195 124.708261 
L 211.683195 16.856519 
" style="fill: none; stroke: #000000; stroke-width: 0.8; stroke-linejoin: miter; stroke-linecap: square"/>
   </g>
   <g id="patch_5">
    <path d="M 30.903688 124.708261 
L 211.683195 124.708261 
" style="fill: none; stroke: #000000; stroke-width: 0.8; stroke-linejoin: miter; stroke-linecap: square"/>
   </g>
   <g id="patch_6">
    <path d="M 30.903688 16.856519 
L 211.683195 16.856519 
" style="fill: none; stroke: #000000; stroke-width: 0.8; stroke-linejoin: miter; stroke-linecap: square"/>
   </g>
  </g>
  <g id="axes_2">
   <g id="patch_7">
    <path d="M 242.586883 124.708261 
L 423.366391 124.708261 
L 423.366391 16.856519 
L 242.586883 16.856519 
z
" style="fill: #ffffff"/>
   </g>
   <g id="matplotlib.axis_3">
    <g id="xtick_4">
     <g id="line2d_11">
      <g>
       <use xlink:href="#m0403a584cc" x="250.804134" y="124.708261" style="stroke: #000000; stroke-width: 0.8"/>
      </g>
     </g>
     <g id="text_7">
      <!-- $\mathdefault{0}$ -->
      <g transform="translate(248.0644 139.516413) scale(0.11 -0.11)">
       <use xlink:href="#CMR17-30" transform="scale(0.996264)"/>
      </g>
     </g>
    </g>
    <g id="xtick_5">
     <g id="line2d_12">
      <g>
       <use xlink:href="#m0403a584cc" x="328.327417" y="124.708261" style="stroke: #000000; stroke-width: 0.8"/>
      </g>
     </g>
     <g id="text_8">
      <!-- $\mathdefault{10}$ -->
      <g transform="translate(322.84795 139.516413) scale(0.11 -0.11)">
       <use xlink:href="#CMR17-31" transform="scale(0.996264)"/>
       <use xlink:href="#CMR17-30" transform="translate(45.690477 0) scale(0.996264)"/>
      </g>
     </g>
    </g>
    <g id="xtick_6">
     <g id="line2d_13">
      <g>
       <use xlink:href="#m0403a584cc" x="405.8507" y="124.708261" style="stroke: #000000; stroke-width: 0.8"/>
      </g>
     </g>
     <g id="text_9">
      <!-- $\mathdefault{20}$ -->
      <g transform="translate(400.371233 139.516413) scale(0.11 -0.11)">
       <use xlink:href="#CMR17-32" transform="scale(0.996264)"/>
       <use xlink:href="#CMR17-30" transform="translate(45.690477 0) scale(0.996264)"/>
      </g>
     </g>
    </g>
   </g>
   <g id="matplotlib.axis_4">
    <g id="ytick_4">
     <g id="line2d_14">
      <g>
       <use xlink:href="#mc4d38b7492" x="242.586883" y="119.572463" style="stroke: #000000; stroke-width: 0.8"/>
      </g>
     </g>
     <g id="text_10">
      <!-- $\mathdefault{0}$ -->
      <g transform="translate(230.107416 123.47654) scale(0.11 -0.11)">
       <use xlink:href="#CMR17-30" transform="scale(0.996264)"/>
      </g>
     </g>
    </g>
    <g id="ytick_5">
     <g id="line2d_15">
      <g>
       <use xlink:href="#mc4d38b7492" x="242.586883" y="68.214491" style="stroke: #000000; stroke-width: 0.8"/>
      </g>
     </g>
     <g id="text_11">
      <!-- $\mathdefault{5}$ -->
      <g transform="translate(230.107416 72.118567) scale(0.11 -0.11)">
       <use xlink:href="#CMR17-35" transform="scale(0.996264)"/>
      </g>
     </g>
    </g>
    <g id="ytick_6">
     <g id="line2d_16">
      <g>
       <use xlink:href="#mc4d38b7492" x="242.586883" y="16.856519" style="stroke: #000000; stroke-width: 0.8"/>
      </g>
     </g>
     <g id="text_12">
      <!-- $\mathdefault{10}$ -->
      <g transform="translate(224.627949 20.760595) scale(0.11 -0.11)">
       <use xlink:href="#CMR17-31" transform="scale(0.996264)"/>
       <use xlink:href="#CMR17-30" transform="translate(45.690477 0) scale(0.996264)"/>
      </g>
     </g>
    </g>
   </g>
   <g id="line2d_17">
    <path d="M 257.466769 99.032006 
L 266.350283 99.003127 
L 284.117311 98.947804 
L 306.326095 98.836952 
L 328.53488 98.657886 
L 350.743665 98.403918 
L 372.95245 98.045291 
L 388.498599 97.754916 
L 397.382113 97.5288 
L 406.265627 97.276222 
L 415.14914 97.043303 
" clip-path="url(#pb374a01948)" style="fill: none; stroke: #1f77b4; stroke-width: 1.5; stroke-linecap: square"/>
    <g clip-path="url(#pb374a01948)">
     <use xlink:href="#m0d6b8d380b" x="257.466769" y="99.032006" style="fill: #1f77b4; stroke: #1f77b4"/>
     <use xlink:href="#m0d6b8d380b" x="266.350283" y="99.003127" style="fill: #1f77b4; stroke: #1f77b4"/>
     <use xlink:href="#m0d6b8d380b" x="284.117311" y="98.947804" style="fill: #1f77b4; stroke: #1f77b4"/>
     <use xlink:href="#m0d6b8d380b" x="306.326095" y="98.836952" style="fill: #1f77b4; stroke: #1f77b4"/>
     <use xlink:href="#m0d6b8d380b" x="328.53488" y="98.657886" style="fill: #1f77b4; stroke: #1f77b4"/>
     <use xlink:href="#m0d6b8d380b" x="350.743665" y="98.403918" style="fill: #1f77b4; stroke: #1f77b4"/>
     <use xlink:href="#m0d6b8d380b" x="372.95245" y="98.045291" style="fill: #1f77b4; stroke: #1f77b4"/>
     <use xlink:href="#m0d6b8d380b" x="388.498599" y="97.754916" style="fill: #1f77b4; stroke: #1f77b4"/>
     <use xlink:href="#m0d6b8d380b" x="397.382113" y="97.5288" style="fill: #1f77b4; stroke: #1f77b4"/>
     <use xlink:href="#m0d6b8d380b" x="406.265627" y="97.276222" style="fill: #1f77b4; stroke: #1f77b4"/>
     <use xlink:href="#m0d6b8d380b" x="415.14914" y="97.043303" style="fill: #1f77b4; stroke: #1f77b4"/>
    </g>
   </g>
   <g id="line2d_18">
    <path d="M 242.586883 119.572463 
L 423.366391 119.572463 
" clip-path="url(#pb374a01948)" style="fill: none; stroke: #000000; stroke-width: 1.5; stroke-linecap: square"/>
   </g>
   <g id="line2d_19">
    <path d="M 250.804134 124.708261 
L 250.804134 16.856519 
" clip-path="url(#pb374a01948)" style="fill: none; stroke: #000000; stroke-width: 1.5; stroke-linecap: square"/>
   </g>
   <g id="line2d_20">
    <path d="M 242.586883 99.029275 
L 423.366391 99.029275 
" clip-path="url(#pb374a01948)" style="fill: none; stroke: #ff0000; stroke-width: 1.5; stroke-linecap: square"/>
   </g>
   <g id="patch_8">
    <path d="M 242.586883 124.708261 
L 242.586883 16.856519 
" style="fill: none; stroke: #000000; stroke-width: 0.8; stroke-linejoin: miter; stroke-linecap: square"/>
   </g>
   <g id="patch_9">
    <path d="M 423.366391 124.708261 
L 423.366391 16.856519 
" style="fill: none; stroke: #000000; stroke-width: 0.8; stroke-linejoin: miter; stroke-linecap: square"/>
   </g>
   <g id="patch_10">
    <path d="M 242.586883 124.708261 
L 423.366391 124.708261 
" style="fill: none; stroke: #000000; stroke-width: 0.8; stroke-linejoin: miter; stroke-linecap: square"/>
   </g>
   <g id="patch_11">
    <path d="M 242.586883 16.856519 
L 423.366391 16.856519 
" style="fill: none; stroke: #000000; stroke-width: 0.8; stroke-linejoin: miter; stroke-linecap: square"/>
   </g>
  </g>
  <g id="axes_3">
   <g id="patch_12">
    <path d="M 30.903688 266.551165 
L 211.683195 266.551165 
L 211.683195 158.699423 
L 30.903688 158.699423 
z
" style="fill: #ffffff"/>
   </g>
   <g id="matplotlib.axis_5">
    <g id="xtick_7">
     <g id="line2d_21">
      <g>
       <use xlink:href="#m0403a584cc" x="39.120938" y="266.551165" style="stroke: #000000; stroke-width: 0.8"/>
      </g>
     </g>
     <g id="text_13">
      <!-- $\mathdefault{0}$ -->
      <g transform="translate(36.381205 281.359317) scale(0.11 -0.11)">
       <use xlink:href="#CMR17-30" transform="scale(0.996264)"/>
      </g>
     </g>
    </g>
    <g id="xtick_8">
     <g id="line2d_22">
      <g>
       <use xlink:href="#m0403a584cc" x="116.644221" y="266.551165" style="stroke: #000000; stroke-width: 0.8"/>
      </g>
     </g>
     <g id="text_14">
      <!-- $\mathdefault{10}$ -->
      <g transform="translate(111.164754 281.359317) scale(0.11 -0.11)">
       <use xlink:href="#CMR17-31" transform="scale(0.996264)"/>
       <use xlink:href="#CMR17-30" transform="translate(45.690477 0) scale(0.996264)"/>
      </g>
     </g>
    </g>
    <g id="xtick_9">
     <g id="line2d_23">
      <g>
       <use xlink:href="#m0403a584cc" x="194.167505" y="266.551165" style="stroke: #000000; stroke-width: 0.8"/>
      </g>
     </g>
     <g id="text_15">
      <!-- $\mathdefault{20}$ -->
      <g transform="translate(188.688037 281.359317) scale(0.11 -0.11)">
       <use xlink:href="#CMR17-32" transform="scale(0.996264)"/>
       <use xlink:href="#CMR17-30" transform="translate(45.690477 0) scale(0.996264)"/>
      </g>
     </g>
    </g>
   </g>
   <g id="matplotlib.axis_6">
    <g id="ytick_7">
     <g id="line2d_24">
      <g>
       <use xlink:href="#mc4d38b7492" x="30.903688" y="261.415367" style="stroke: #000000; stroke-width: 0.8"/>
      </g>
     </g>
     <g id="text_16">
      <!-- $\mathdefault{0}$ -->
      <g transform="translate(18.424221 265.319443) scale(0.11 -0.11)">
       <use xlink:href="#CMR17-30" transform="scale(0.996264)"/>
      </g>
     </g>
    </g>
    <g id="ytick_8">
     <g id="line2d_25">
      <g>
       <use xlink:href="#mc4d38b7492" x="30.903688" y="210.057395" style="stroke: #000000; stroke-width: 0.8"/>
      </g>
     </g>
     <g id="text_17">
      <!-- $\mathdefault{5}$ -->
      <g transform="translate(18.424221 213.961471) scale(0.11 -0.11)">
       <use xlink:href="#CMR17-35" transform="scale(0.996264)"/>
      </g>
     </g>
    </g>
    <g id="ytick_9">
     <g id="line2d_26">
      <g>
       <use xlink:href="#mc4d38b7492" x="30.903688" y="158.699423" style="stroke: #000000; stroke-width: 0.8"/>
      </g>
     </g>
     <g id="text_18">
      <!-- $\mathdefault{10}$ -->
      <g transform="translate(12.944753 162.603499) scale(0.11 -0.11)">
       <use xlink:href="#CMR17-31" transform="scale(0.996264)"/>
       <use xlink:href="#CMR17-30" transform="translate(45.690477 0) scale(0.996264)"/>
      </g>
     </g>
    </g>
   </g>
   <g id="line2d_27">
    <path d="M 45.783574 240.874873 
L 54.667088 240.845125 
L 72.434115 240.762107 
L 94.6429 240.579269 
L 116.851685 240.268436 
L 139.060469 239.81123 
L 161.269254 239.181847 
L 176.815403 238.669969 
L 185.698917 238.315044 
L 194.582431 237.939644 
L 203.465945 237.578999 
" clip-path="url(#pc0113e3499)" style="fill: none; stroke: #1f77b4; stroke-width: 1.5; stroke-linecap: square"/>
    <g clip-path="url(#pc0113e3499)">
     <use xlink:href="#m0d6b8d380b" x="45.783574" y="240.874873" style="fill: #1f77b4; stroke: #1f77b4"/>
     <use xlink:href="#m0d6b8d380b" x="54.667088" y="240.845125" style="fill: #1f77b4; stroke: #1f77b4"/>
     <use xlink:href="#m0d6b8d380b" x="72.434115" y="240.762107" style="fill: #1f77b4; stroke: #1f77b4"/>
     <use xlink:href="#m0d6b8d380b" x="94.6429" y="240.579269" style="fill: #1f77b4; stroke: #1f77b4"/>
     <use xlink:href="#m0d6b8d380b" x="116.851685" y="240.268436" style="fill: #1f77b4; stroke: #1f77b4"/>
     <use xlink:href="#m0d6b8d380b" x="139.060469" y="239.81123" style="fill: #1f77b4; stroke: #1f77b4"/>
     <use xlink:href="#m0d6b8d380b" x="161.269254" y="239.181847" style="fill: #1f77b4; stroke: #1f77b4"/>
     <use xlink:href="#m0d6b8d380b" x="176.815403" y="238.669969" style="fill: #1f77b4; stroke: #1f77b4"/>
     <use xlink:href="#m0d6b8d380b" x="185.698917" y="238.315044" style="fill: #1f77b4; stroke: #1f77b4"/>
     <use xlink:href="#m0d6b8d380b" x="194.582431" y="237.939644" style="fill: #1f77b4; stroke: #1f77b4"/>
     <use xlink:href="#m0d6b8d380b" x="203.465945" y="237.578999" style="fill: #1f77b4; stroke: #1f77b4"/>
    </g>
   </g>
   <g id="line2d_28">
    <path d="M 30.903688 261.415367 
L 211.683195 261.415367 
" clip-path="url(#pc0113e3499)" style="fill: none; stroke: #000000; stroke-width: 1.5; stroke-linecap: square"/>
   </g>
   <g id="line2d_29">
    <path d="M 39.120938 266.551165 
L 39.120938 158.699423 
" clip-path="url(#pc0113e3499)" style="fill: none; stroke: #000000; stroke-width: 1.5; stroke-linecap: square"/>
   </g>
   <g id="line2d_30">
    <path d="M 30.903688 240.872178 
L 211.683195 240.872178 
" clip-path="url(#pc0113e3499)" style="fill: none; stroke: #ff0000; stroke-width: 1.5; stroke-linecap: square"/>
   </g>
   <g id="patch_13">
    <path d="M 30.903688 266.551165 
L 30.903688 158.699423 
" style="fill: none; stroke: #000000; stroke-width: 0.8; stroke-linejoin: miter; stroke-linecap: square"/>
   </g>
   <g id="patch_14">
    <path d="M 211.683195 266.551165 
L 211.683195 158.699423 
" style="fill: none; stroke: #000000; stroke-width: 0.8; stroke-linejoin: miter; stroke-linecap: square"/>
   </g>
   <g id="patch_15">
    <path d="M 30.903688 266.551165 
L 211.683195 266.551165 
" style="fill: none; stroke: #000000; stroke-width: 0.8; stroke-linejoin: miter; stroke-linecap: square"/>
   </g>
   <g id="patch_16">
    <path d="M 30.903688 158.699423 
L 211.683195 158.699423 
" style="fill: none; stroke: #000000; stroke-width: 0.8; stroke-linejoin: miter; stroke-linecap: square"/>
   </g>
  </g>
  <g id="axes_4">
   <g id="patch_17">
    <path d="M 242.586883 266.551165 
L 423.366391 266.551165 
L 423.366391 158.699423 
L 242.586883 158.699423 
z
" style="fill: #ffffff"/>
   </g>
   <g id="matplotlib.axis_7">
    <g id="xtick_10">
     <g id="line2d_31">
      <g>
       <use xlink:href="#m0403a584cc" x="250.804134" y="266.551165" style="stroke: #000000; stroke-width: 0.8"/>
      </g>
     </g>
     <g id="text_19">
      <!-- $\mathdefault{0}$ -->
      <g transform="translate(248.0644 281.359317) scale(0.11 -0.11)">
       <use xlink:href="#CMR17-30" transform="scale(0.996264)"/>
      </g>
     </g>
    </g>
    <g id="xtick_11">
     <g id="line2d_32">
      <g>
       <use xlink:href="#m0403a584cc" x="328.327417" y="266.551165" style="stroke: #000000; stroke-width: 0.8"/>
      </g>
     </g>
     <g id="text_20">
      <!-- $\mathdefault{10}$ -->
      <g transform="translate(322.84795 281.359317) scale(0.11 -0.11)">
       <use xlink:href="#CMR17-31" transform="scale(0.996264)"/>
       <use xlink:href="#CMR17-30" transform="translate(45.690477 0) scale(0.996264)"/>
      </g>
     </g>
    </g>
    <g id="xtick_12">
     <g id="line2d_33">
      <g>
       <use xlink:href="#m0403a584cc" x="405.8507" y="266.551165" style="stroke: #000000; stroke-width: 0.8"/>
      </g>
     </g>
     <g id="text_21">
      <!-- $\mathdefault{20}$ -->
      <g transform="translate(400.371233 281.359317) scale(0.11 -0.11)">
       <use xlink:href="#CMR17-32" transform="scale(0.996264)"/>
       <use xlink:href="#CMR17-30" transform="translate(45.690477 0) scale(0.996264)"/>
      </g>
     </g>
    </g>
   </g>
   <g id="matplotlib.axis_8">
    <g id="ytick_10">
     <g id="line2d_34">
      <g>
       <use xlink:href="#mc4d38b7492" x="242.586883" y="261.415367" style="stroke: #000000; stroke-width: 0.8"/>
      </g>
     </g>
     <g id="text_22">
      <!-- $\mathdefault{0}$ -->
      <g transform="translate(230.107416 265.319443) scale(0.11 -0.11)">
       <use xlink:href="#CMR17-30" transform="scale(0.996264)"/>
      </g>
     </g>
    </g>
    <g id="ytick_11">
     <g id="line2d_35">
      <g>
       <use xlink:href="#mc4d38b7492" x="242.586883" y="210.057395" style="stroke: #000000; stroke-width: 0.8"/>
      </g>
     </g>
     <g id="text_23">
      <!-- $\mathdefault{5}$ -->
      <g transform="translate(230.107416 213.961471) scale(0.11 -0.11)">
       <use xlink:href="#CMR17-35" transform="scale(0.996264)"/>
      </g>
     </g>
    </g>
    <g id="ytick_12">
     <g id="line2d_36">
      <g>
       <use xlink:href="#mc4d38b7492" x="242.586883" y="158.699423" style="stroke: #000000; stroke-width: 0.8"/>
      </g>
     </g>
     <g id="text_24">
      <!-- $\mathdefault{10}$ -->
      <g transform="translate(224.627949 162.603499) scale(0.11 -0.11)">
       <use xlink:href="#CMR17-31" transform="scale(0.996264)"/>
       <use xlink:href="#CMR17-30" transform="translate(45.690477 0) scale(0.996264)"/>
      </g>
     </g>
    </g>
   </g>
   <g id="line2d_37">
    <path d="M 257.466769 240.875196 
L 266.350283 240.876289 
L 284.117311 240.923024 
L 306.326095 240.985359 
L 328.53488 241.012963 
L 350.743665 241.01688 
L 372.95245 240.999948 
L 388.498599 241.020613 
L 397.382113 241.028551 
L 406.265627 241.06311 
L 415.14914 241.166584 
" clip-path="url(#p932b91d505)" style="fill: none; stroke: #1f77b4; stroke-width: 1.5; stroke-linecap: square"/>
    <g clip-path="url(#p932b91d505)">
     <use xlink:href="#m0d6b8d380b" x="257.466769" y="240.875196" style="fill: #1f77b4; stroke: #1f77b4"/>
     <use xlink:href="#m0d6b8d380b" x="266.350283" y="240.876289" style="fill: #1f77b4; stroke: #1f77b4"/>
     <use xlink:href="#m0d6b8d380b" x="284.117311" y="240.923024" style="fill: #1f77b4; stroke: #1f77b4"/>
     <use xlink:href="#m0d6b8d380b" x="306.326095" y="240.985359" style="fill: #1f77b4; stroke: #1f77b4"/>
     <use xlink:href="#m0d6b8d380b" x="328.53488" y="241.012963" style="fill: #1f77b4; stroke: #1f77b4"/>
     <use xlink:href="#m0d6b8d380b" x="350.743665" y="241.01688" style="fill: #1f77b4; stroke: #1f77b4"/>
     <use xlink:href="#m0d6b8d380b" x="372.95245" y="240.999948" style="fill: #1f77b4; stroke: #1f77b4"/>
     <use xlink:href="#m0d6b8d380b" x="388.498599" y="241.020613" style="fill: #1f77b4; stroke: #1f77b4"/>
     <use xlink:href="#m0d6b8d380b" x="397.382113" y="241.028551" style="fill: #1f77b4; stroke: #1f77b4"/>
     <use xlink:href="#m0d6b8d380b" x="406.265627" y="241.06311" style="fill: #1f77b4; stroke: #1f77b4"/>
     <use xlink:href="#m0d6b8d380b" x="415.14914" y="241.166584" style="fill: #1f77b4; stroke: #1f77b4"/>
    </g>
   </g>
   <g id="line2d_38">
    <path d="M 242.586883 261.415367 
L 423.366391 261.415367 
" clip-path="url(#p932b91d505)" style="fill: none; stroke: #000000; stroke-width: 1.5; stroke-linecap: square"/>
   </g>
   <g id="line2d_39">
    <path d="M 250.804134 266.551165 
L 250.804134 158.699423 
" clip-path="url(#p932b91d505)" style="fill: none; stroke: #000000; stroke-width: 1.5; stroke-linecap: square"/>
   </g>
   <g id="line2d_40">
    <path d="M 242.586883 240.872178 
L 423.366391 240.872178 
" clip-path="url(#p932b91d505)" style="fill: none; stroke: #ff0000; stroke-width: 1.5; stroke-linecap: square"/>
   </g>
   <g id="patch_18">
    <path d="M 242.586883 266.551165 
L 242.586883 158.699423 
" style="fill: none; stroke: #000000; stroke-width: 0.8; stroke-linejoin: miter; stroke-linecap: square"/>
   </g>
   <g id="patch_19">
    <path d="M 423.366391 266.551165 
L 423.366391 158.699423 
" style="fill: none; stroke: #000000; stroke-width: 0.8; stroke-linejoin: miter; stroke-linecap: square"/>
   </g>
   <g id="patch_20">
    <path d="M 242.586883 266.551165 
L 423.366391 266.551165 
" style="fill: none; stroke: #000000; stroke-width: 0.8; stroke-linejoin: miter; stroke-linecap: square"/>
   </g>
   <g id="patch_21">
    <path d="M 242.586883 158.699423 
L 423.366391 158.699423 
" style="fill: none; stroke: #000000; stroke-width: 0.8; stroke-linejoin: miter; stroke-linecap: square"/>
   </g>
  </g>
  <g id="text_25">
   <!-- $\mathrm{\theta}\ [^\circ]$ -->
   <g transform="translate(207.990304 284.796792) scale(0.12 -0.12)">
    <defs>
     <path id="CMMI12-12" d="M 2835 3200 
C 2835 3850 2630 4480 2106 4480 
C 1210 4480 256 2615 256 1216 
C 256 923 320 -64 992 -64 
C 1862 -64 2835 1756 2835 3200 
z
M 896 2304 
C 992 2679 1126 3214 1382 3665 
C 1594 4047 1818 4352 2099 4352 
C 2310 4352 2451 4174 2451 3564 
C 2451 3334 2432 3017 2246 2304 
L 896 2304 
z
M 2202 2113 
C 2042 1490 1907 1088 1677 687 
C 1491 363 1267 64 998 64 
C 800 64 640 217 640 846 
C 640 1260 742 1693 845 2113 
L 2202 2113 
z
" transform="scale(0.015625)"/>
     <path id="CMR17-5b" d="M 1504 -1600 
L 1504 -1377 
L 902 -1377 
L 902 4544 
L 1504 4544 
L 1504 4767 
L 678 4767 
L 678 -1600 
L 1504 -1600 
z
" transform="scale(0.015625)"/>
     <path id="CMSY10-e" d="M 2842 1600 
C 2842 2277 2272 2828 1600 2828 
C 909 2828 352 2264 352 1600 
C 352 930 909 372 1600 372 
C 2272 372 2842 923 2842 1600 
z
M 1600 628 
C 1043 628 608 1070 608 1600 
C 608 2130 1050 2572 1600 2572 
C 2131 2572 2586 2142 2586 1600 
C 2586 1058 2131 628 1600 628 
z
" transform="scale(0.015625)"/>
     <path id="CMR17-5d" d="M 915 4767 
L 90 4767 
L 90 4544 
L 691 4544 
L 691 -1377 
L 90 -1377 
L 90 -1600 
L 915 -1600 
L 915 4767 
z
" transform="scale(0.015625)"/>
    </defs>
    <use xlink:href="#CMMI12-12" transform="scale(0.996264)"/>
    <use xlink:href="#CMR17-5b" transform="translate(75.864677 0) scale(0.996264)"/>
    <use xlink:href="#CMSY10-e" transform="translate(100.735736 36.153639) scale(0.697382)"/>
    <use xlink:href="#CMR17-5d" transform="translate(136.103078 0) scale(0.996264)"/>
   </g>
  </g>
  <g id="text_26">
   <!-- $\mathrm{\omega_{th}}\ $ -->
   <g transform="translate(7.349005 155.96357) rotate(-90) scale(0.12 -0.12)">
    <defs>
     <path id="CMMI12-21" d="M 3802 2395 
C 3802 2580 3750 2816 3526 2816 
C 3398 2816 3251 2657 3251 2529 
C 3251 2472 3277 2434 3328 2376 
C 3424 2268 3546 2096 3546 1797 
C 3546 1567 3405 1204 3302 1007 
C 3123 656 2829 357 2496 357 
C 2093 357 1939 615 1869 975 
C 1939 1143 2086 1560 2086 1728 
C 2086 1798 2061 1856 1978 1856 
C 1933 1856 1882 1831 1850 1779 
C 1760 1638 1677 1129 1683 994 
C 1562 756 1216 357 806 357 
C 378 357 262 733 262 1096 
C 262 1758 678 2338 794 2497 
C 858 2593 902 2657 902 2669 
C 902 2714 877 2784 819 2784 
C 717 2784 685 2701 634 2625 
C 307 2121 77 1414 77 803 
C 77 408 224 -64 704 -64 
C 1235 -64 1568 391 1702 634 
C 1754 275 1946 -64 2413 -64 
C 2899 -64 3206 363 3437 879 
C 3603 1249 3802 2045 3802 2395 
z
" transform="scale(0.015625)"/>
     <path id="CMR17-74" d="M 966 2560 
L 1862 2560 
L 1862 2725 
L 966 2725 
L 966 3904 
L 851 3904 
C 838 3245 614 2668 70 2668 
L 70 2560 
L 627 2560 
L 627 771 
C 627 650 627 -64 1370 -64 
C 1747 -64 1965 306 1965 777 
L 1965 1140 
L 1850 1140 
L 1850 783 
C 1850 344 1677 51 1408 51 
C 1222 51 966 178 966 758 
L 966 2560 
z
" transform="scale(0.015625)"/>
     <path id="CMR17-68" d="M 2656 1933 
C 2656 2259 2592 2790 1837 2790 
C 1312 2790 1056 2368 979 2157 
L 973 2157 
L 973 4396 
L 211 4326 
L 211 4160 
C 589 4160 646 4122 646 3817 
L 646 426 
C 646 184 621 153 211 153 
L 211 -13 
C 365 0 646 0 813 0 
C 979 0 1267 0 1421 -13 
L 1421 153 
C 1011 153 986 178 986 428 
L 986 1658 
C 986 2247 1344 2688 1792 2688 
C 2266 2688 2317 2266 2317 1958 
L 2317 428 
C 2317 184 2291 153 1882 153 
L 1882 -13 
C 2035 0 2317 0 2483 0 
C 2650 0 2938 0 3091 -13 
L 3091 153 
C 2682 153 2656 178 2656 428 
L 2656 1933 
z
" transform="scale(0.015625)"/>
    </defs>
    <use xlink:href="#CMMI12-21" transform="scale(0.996264)"/>
    <use xlink:href="#CMR17-74" transform="translate(60.743753 -14.943915) scale(0.697382)"/>
    <use xlink:href="#CMR17-68" transform="translate(85.440174 -14.943915) scale(0.697382)"/>
   </g>
  </g>
 </g>
 <defs>
  <clipPath id="pba37b8f72e">
   <rect x="30.903688" y="16.856519" width="180.779508" height="107.851742"/>
  </clipPath>
  <clipPath id="pb374a01948">
   <rect x="242.586883" y="16.856519" width="180.779508" height="107.851742"/>
  </clipPath>
  <clipPath id="pc0113e3499">
   <rect x="30.903688" y="158.699423" width="180.779508" height="107.851742"/>
  </clipPath>
  <clipPath id="p932b91d505">
   <rect x="242.586883" y="158.699423" width="180.779508" height="107.851742"/>
  </clipPath>
 </defs>
</svg>
