<?xml version="1.0" encoding="utf-8" standalone="no"?>
<!DOCTYPE svg PUBLIC "-//W3C//DTD SVG 1.1//EN"
  "http://www.w3.org/Graphics/SVG/1.1/DTD/svg11.dtd">
<svg xmlns:xlink="http://www.w3.org/1999/xlink" width="436.32pt" height="148.32pt" viewBox="0 0 436.32 148.32" xmlns="http://www.w3.org/2000/svg" version="1.1">
 <metadata>
  <rdf:RDF xmlns:dc="http://purl.org/dc/elements/1.1/" xmlns:cc="http://creativecommons.org/ns#" xmlns:rdf="http://www.w3.org/1999/02/22-rdf-syntax-ns#">
   <cc:Work>
    <dc:type rdf:resource="http://purl.org/dc/dcmitype/StillImage"/>
    <dc:date>2024-08-21T16:43:10.203610</dc:date>
    <dc:format>image/svg+xml</dc:format>
    <dc:creator>
     <cc:Agent>
      <dc:title>Matplotlib v3.8.0, https://matplotlib.org/</dc:title>
     </cc:Agent>
    </dc:creator>
   </cc:Work>
  </rdf:RDF>
 </metadata>
 <defs>
  <style type="text/css">*{stroke-linejoin: round; stroke-linecap: butt}</style>
 </defs>
 <g id="figure_1">
  <g id="patch_1">
   <path d="M 0 148.32 
L 436.32 148.32 
L 436.32 0 
L 0 0 
z
" style="fill: #ffffff"/>
  </g>
  <g id="axes_1">
   <g id="patch_2">
    <path d="M 39.423094 118.231165 
L 211.683195 118.231165 
L 211.683195 16.856519 
L 39.423094 16.856519 
z
" style="fill: #ffffff"/>
   </g>
   <g id="matplotlib.axis_1">
    <g id="xtick_1">
     <g id="line2d_1">
      <defs>
       <path id="md9b85b1941" d="M 0 0 
L 0 3.5 
" style="stroke: #000000; stroke-width: 0.8"/>
      </defs>
      <g>
       <use xlink:href="#md9b85b1941" x="47.253098" y="118.231165" style="stroke: #000000; stroke-width: 0.8"/>
      </g>
     </g>
     <g id="text_1">
      <!-- $\mathdefault{0}$ -->
      <g transform="translate(44.513365 133.039317) scale(0.11 -0.11)">
       <defs>
        <path id="CMR17-30" d="M 2688 2025 
C 2688 2416 2682 3080 2413 3591 
C 2176 4039 1798 4198 1466 4198 
C 1158 4198 768 4058 525 3597 
C 269 3118 243 2524 243 2025 
C 243 1661 250 1106 448 619 
C 723 -39 1216 -128 1466 -128 
C 1760 -128 2208 -7 2470 600 
C 2662 1042 2688 1559 2688 2025 
z
M 1466 -26 
C 1056 -26 813 325 723 812 
C 653 1188 653 1738 653 2096 
C 653 2588 653 2997 736 3387 
C 858 3929 1216 4096 1466 4096 
C 1728 4096 2067 3923 2189 3400 
C 2272 3036 2278 2607 2278 2096 
C 2278 1680 2278 1169 2202 792 
C 2067 95 1690 -26 1466 -26 
z
" transform="scale(0.015625)"/>
       </defs>
       <use xlink:href="#CMR17-30" transform="scale(0.996264)"/>
      </g>
     </g>
    </g>
    <g id="xtick_2">
     <g id="line2d_2">
      <g>
       <use xlink:href="#md9b85b1941" x="92.059446" y="118.231165" style="stroke: #000000; stroke-width: 0.8"/>
      </g>
     </g>
     <g id="text_2">
      <!-- $\mathdefault{5}$ -->
      <g transform="translate(89.319713 133.039317) scale(0.11 -0.11)">
       <defs>
        <path id="CMR17-35" d="M 730 3692 
C 794 3666 1056 3584 1325 3584 
C 1920 3584 2246 3911 2432 4100 
C 2432 4157 2432 4192 2394 4192 
C 2387 4192 2374 4192 2323 4163 
C 2099 4058 1837 3973 1517 3973 
C 1325 3973 1037 3999 723 4139 
C 653 4171 640 4171 634 4171 
C 602 4171 595 4164 595 4037 
L 595 2203 
C 595 2089 595 2057 659 2057 
C 691 2057 704 2070 736 2114 
C 941 2401 1222 2522 1542 2522 
C 1766 2522 2246 2382 2246 1289 
C 2246 1085 2246 715 2054 421 
C 1894 159 1645 25 1370 25 
C 947 25 518 320 403 814 
C 429 807 480 795 506 795 
C 589 795 749 840 749 1038 
C 749 1210 627 1280 506 1280 
C 358 1280 262 1190 262 1011 
C 262 454 704 -128 1382 -128 
C 2042 -128 2669 440 2669 1264 
C 2669 2030 2170 2624 1549 2624 
C 1222 2624 947 2503 730 2274 
L 730 3692 
z
" transform="scale(0.015625)"/>
       </defs>
       <use xlink:href="#CMR17-35" transform="scale(0.996264)"/>
      </g>
     </g>
    </g>
    <g id="xtick_3">
     <g id="line2d_3">
      <g>
       <use xlink:href="#md9b85b1941" x="136.865794" y="118.231165" style="stroke: #000000; stroke-width: 0.8"/>
      </g>
     </g>
     <g id="text_3">
      <!-- $\mathdefault{10}$ -->
      <g transform="translate(131.386327 133.039317) scale(0.11 -0.11)">
       <defs>
        <path id="CMR17-31" d="M 1702 4058 
C 1702 4192 1696 4192 1606 4192 
C 1357 3916 979 3827 621 3827 
C 602 3827 570 3827 563 3808 
C 557 3795 557 3782 557 3648 
C 755 3648 1088 3686 1344 3839 
L 1344 461 
C 1344 236 1331 160 781 160 
L 589 160 
L 589 0 
C 896 0 1216 0 1523 0 
C 1830 0 2150 0 2458 0 
L 2458 160 
L 2266 160 
C 1715 160 1702 230 1702 458 
L 1702 4058 
z
" transform="scale(0.015625)"/>
       </defs>
       <use xlink:href="#CMR17-31" transform="scale(0.996264)"/>
       <use xlink:href="#CMR17-30" transform="translate(45.690477 0) scale(0.996264)"/>
      </g>
     </g>
    </g>
    <g id="xtick_4">
     <g id="line2d_4">
      <g>
       <use xlink:href="#md9b85b1941" x="181.672142" y="118.231165" style="stroke: #000000; stroke-width: 0.8"/>
      </g>
     </g>
     <g id="text_4">
      <!-- $\mathdefault{15}$ -->
      <g transform="translate(176.192675 133.039317) scale(0.11 -0.11)">
       <use xlink:href="#CMR17-31" transform="scale(0.996264)"/>
       <use xlink:href="#CMR17-35" transform="translate(45.690477 0) scale(0.996264)"/>
      </g>
     </g>
    </g>
   </g>
   <g id="matplotlib.axis_2">
    <g id="ytick_1">
     <g id="line2d_5">
      <defs>
       <path id="m18b52448f0" d="M 0 0 
L -3.5 0 
" style="stroke: #000000; stroke-width: 0.8"/>
      </defs>
      <g>
       <use xlink:href="#m18b52448f0" x="39.423094" y="118.231165" style="stroke: #000000; stroke-width: 0.8"/>
      </g>
     </g>
     <g id="text_5">
      <!-- $\mathdefault{0.0}$ -->
      <g transform="translate(18.420017 122.135241) scale(0.11 -0.11)">
       <defs>
        <path id="CMMI12-3a" d="M 1178 307 
C 1178 492 1024 619 870 619 
C 685 619 557 466 557 313 
C 557 128 710 0 864 0 
C 1050 0 1178 153 1178 307 
z
" transform="scale(0.015625)"/>
       </defs>
       <use xlink:href="#CMR17-30" transform="scale(0.996264)"/>
       <use xlink:href="#CMMI12-3a" transform="translate(45.690477 0) scale(0.996264)"/>
       <use xlink:href="#CMR17-30" transform="translate(72.787654 0) scale(0.996264)"/>
      </g>
     </g>
    </g>
    <g id="ytick_2">
     <g id="line2d_6">
      <g>
       <use xlink:href="#m18b52448f0" x="39.423094" y="92.887503" style="stroke: #000000; stroke-width: 0.8"/>
      </g>
     </g>
     <g id="text_6">
      <!-- $\mathdefault{2.5}$ -->
      <g transform="translate(18.420017 96.791579) scale(0.11 -0.11)">
       <defs>
        <path id="CMR17-32" d="M 2669 989 
L 2554 989 
C 2490 536 2438 459 2413 420 
C 2381 369 1920 369 1830 369 
L 602 369 
C 832 619 1280 1072 1824 1597 
C 2214 1967 2669 2402 2669 3035 
C 2669 3790 2067 4224 1395 4224 
C 691 4224 262 3604 262 3030 
C 262 2780 448 2748 525 2748 
C 589 2748 781 2787 781 3010 
C 781 3207 614 3264 525 3264 
C 486 3264 448 3258 422 3245 
C 544 3790 915 4058 1306 4058 
C 1862 4058 2227 3617 2227 3035 
C 2227 2479 1901 2000 1536 1584 
L 262 146 
L 262 0 
L 2515 0 
L 2669 989 
z
" transform="scale(0.015625)"/>
       </defs>
       <use xlink:href="#CMR17-32" transform="scale(0.996264)"/>
       <use xlink:href="#CMMI12-3a" transform="translate(45.690477 0) scale(0.996264)"/>
       <use xlink:href="#CMR17-35" transform="translate(72.787654 0) scale(0.996264)"/>
      </g>
     </g>
    </g>
    <g id="ytick_3">
     <g id="line2d_7">
      <g>
       <use xlink:href="#m18b52448f0" x="39.423094" y="67.543842" style="stroke: #000000; stroke-width: 0.8"/>
      </g>
     </g>
     <g id="text_7">
      <!-- $\mathdefault{5.0}$ -->
      <g transform="translate(18.420017 71.447918) scale(0.11 -0.11)">
       <use xlink:href="#CMR17-35" transform="scale(0.996264)"/>
       <use xlink:href="#CMMI12-3a" transform="translate(45.690477 0) scale(0.996264)"/>
       <use xlink:href="#CMR17-30" transform="translate(72.787654 0) scale(0.996264)"/>
      </g>
     </g>
    </g>
    <g id="ytick_4">
     <g id="line2d_8">
      <g>
       <use xlink:href="#m18b52448f0" x="39.423094" y="42.20018" style="stroke: #000000; stroke-width: 0.8"/>
      </g>
     </g>
     <g id="text_8">
      <!-- $\mathdefault{7.5}$ -->
      <g transform="translate(18.420017 46.104256) scale(0.11 -0.11)">
       <defs>
        <path id="CMR17-37" d="M 2886 3941 
L 2886 4081 
L 1382 4081 
C 634 4081 621 4165 595 4288 
L 480 4288 
L 294 3094 
L 410 3094 
C 429 3215 474 3540 550 3661 
C 589 3712 1062 3712 1171 3712 
L 2579 3712 
L 1869 2661 
C 1395 1954 1069 999 1069 165 
C 1069 89 1069 -128 1299 -128 
C 1530 -128 1530 89 1530 171 
L 1530 465 
C 1530 1508 1709 2196 2003 2636 
L 2886 3941 
z
" transform="scale(0.015625)"/>
       </defs>
       <use xlink:href="#CMR17-37" transform="scale(0.996264)"/>
       <use xlink:href="#CMMI12-3a" transform="translate(45.690477 0) scale(0.996264)"/>
       <use xlink:href="#CMR17-35" transform="translate(72.787654 0) scale(0.996264)"/>
      </g>
     </g>
    </g>
    <g id="ytick_5">
     <g id="line2d_9">
      <g>
       <use xlink:href="#m18b52448f0" x="39.423094" y="16.856519" style="stroke: #000000; stroke-width: 0.8"/>
      </g>
     </g>
     <g id="text_9">
      <!-- $\mathdefault{10.0}$ -->
      <g transform="translate(12.94055 20.760595) scale(0.11 -0.11)">
       <use xlink:href="#CMR17-31" transform="scale(0.996264)"/>
       <use xlink:href="#CMR17-30" transform="translate(45.690477 0) scale(0.996264)"/>
       <use xlink:href="#CMMI12-3a" transform="translate(91.380954 0) scale(0.996264)"/>
       <use xlink:href="#CMR17-30" transform="translate(118.478131 0) scale(0.996264)"/>
      </g>
     </g>
    </g>
   </g>
   <g id="line2d_10">
    <path d="M 54.954742 99.13859 
L 65.223601 98.403137 
L 85.761318 95.638768 
L 101.164606 96.284564 
L 114.000679 99.097765 
L 137.10561 100.759518 
L 152.508898 99.98286 
L 165.344971 99.225098 
L 188.449903 97.790021 
L 203.853191 96.707853 
" clip-path="url(#p38fc19dc9d)" style="fill: none; stroke: #1f77b4; stroke-width: 1.5; stroke-linecap: square"/>
    <defs>
     <path id="m87de64a9e9" d="M -3 0 
L 3 0 
M 0 3 
L 0 -3 
" style="stroke: #1f77b4"/>
    </defs>
    <g clip-path="url(#p38fc19dc9d)">
     <use xlink:href="#m87de64a9e9" x="54.954742" y="99.13859" style="fill: #1f77b4; stroke: #1f77b4"/>
     <use xlink:href="#m87de64a9e9" x="65.223601" y="98.403137" style="fill: #1f77b4; stroke: #1f77b4"/>
     <use xlink:href="#m87de64a9e9" x="85.761318" y="95.638768" style="fill: #1f77b4; stroke: #1f77b4"/>
     <use xlink:href="#m87de64a9e9" x="101.164606" y="96.284564" style="fill: #1f77b4; stroke: #1f77b4"/>
     <use xlink:href="#m87de64a9e9" x="114.000679" y="99.097765" style="fill: #1f77b4; stroke: #1f77b4"/>
     <use xlink:href="#m87de64a9e9" x="137.10561" y="100.759518" style="fill: #1f77b4; stroke: #1f77b4"/>
     <use xlink:href="#m87de64a9e9" x="152.508898" y="99.98286" style="fill: #1f77b4; stroke: #1f77b4"/>
     <use xlink:href="#m87de64a9e9" x="165.344971" y="99.225098" style="fill: #1f77b4; stroke: #1f77b4"/>
     <use xlink:href="#m87de64a9e9" x="188.449903" y="97.790021" style="fill: #1f77b4; stroke: #1f77b4"/>
     <use xlink:href="#m87de64a9e9" x="203.853191" y="96.707853" style="fill: #1f77b4; stroke: #1f77b4"/>
    </g>
   </g>
   <g id="line2d_11">
    <path d="M 54.954742 98.080069 
L 65.223601 97.308857 
L 85.761318 94.378581 
L 101.164606 95.009808 
L 114.000679 97.942431 
L 137.10561 99.703387 
L 152.508898 98.891897 
L 165.344971 98.090764 
L 188.449903 96.577573 
L 203.853191 95.449412 
" clip-path="url(#p38fc19dc9d)" style="fill: none; stroke: #ff7f0e; stroke-width: 1.5; stroke-linecap: square"/>
    <defs>
     <path id="m3abfbdbfb3" d="M -3 0 
L 3 0 
M 0 3 
L 0 -3 
" style="stroke: #ff7f0e"/>
    </defs>
    <g clip-path="url(#p38fc19dc9d)">
     <use xlink:href="#m3abfbdbfb3" x="54.954742" y="98.080069" style="fill: #ff7f0e; stroke: #ff7f0e"/>
     <use xlink:href="#m3abfbdbfb3" x="65.223601" y="97.308857" style="fill: #ff7f0e; stroke: #ff7f0e"/>
     <use xlink:href="#m3abfbdbfb3" x="85.761318" y="94.378581" style="fill: #ff7f0e; stroke: #ff7f0e"/>
     <use xlink:href="#m3abfbdbfb3" x="101.164606" y="95.009808" style="fill: #ff7f0e; stroke: #ff7f0e"/>
     <use xlink:href="#m3abfbdbfb3" x="114.000679" y="97.942431" style="fill: #ff7f0e; stroke: #ff7f0e"/>
     <use xlink:href="#m3abfbdbfb3" x="137.10561" y="99.703387" style="fill: #ff7f0e; stroke: #ff7f0e"/>
     <use xlink:href="#m3abfbdbfb3" x="152.508898" y="98.891897" style="fill: #ff7f0e; stroke: #ff7f0e"/>
     <use xlink:href="#m3abfbdbfb3" x="165.344971" y="98.090764" style="fill: #ff7f0e; stroke: #ff7f0e"/>
     <use xlink:href="#m3abfbdbfb3" x="188.449903" y="96.577573" style="fill: #ff7f0e; stroke: #ff7f0e"/>
     <use xlink:href="#m3abfbdbfb3" x="203.853191" y="95.449412" style="fill: #ff7f0e; stroke: #ff7f0e"/>
    </g>
   </g>
   <g id="line2d_12">
    <path d="M 54.954742 90.023854 
L 65.223601 89.019319 
L 85.761318 84.910517 
L 101.164606 85.425079 
L 114.000679 89.252937 
L 137.10561 92.043638 
L 152.508898 91.253457 
L 165.344971 90.39087 
L 188.449903 88.90049 
L 203.853191 87.951338 
" clip-path="url(#p38fc19dc9d)" style="fill: none; stroke: #2ca02c; stroke-width: 1.5; stroke-linecap: square"/>
    <defs>
     <path id="m45387aaf1f" d="M -3 0 
L 3 0 
M 0 3 
L 0 -3 
" style="stroke: #2ca02c"/>
    </defs>
    <g clip-path="url(#p38fc19dc9d)">
     <use xlink:href="#m45387aaf1f" x="54.954742" y="90.023854" style="fill: #2ca02c; stroke: #2ca02c"/>
     <use xlink:href="#m45387aaf1f" x="65.223601" y="89.019319" style="fill: #2ca02c; stroke: #2ca02c"/>
     <use xlink:href="#m45387aaf1f" x="85.761318" y="84.910517" style="fill: #2ca02c; stroke: #2ca02c"/>
     <use xlink:href="#m45387aaf1f" x="101.164606" y="85.425079" style="fill: #2ca02c; stroke: #2ca02c"/>
     <use xlink:href="#m45387aaf1f" x="114.000679" y="89.252937" style="fill: #2ca02c; stroke: #2ca02c"/>
     <use xlink:href="#m45387aaf1f" x="137.10561" y="92.043638" style="fill: #2ca02c; stroke: #2ca02c"/>
     <use xlink:href="#m45387aaf1f" x="152.508898" y="91.253457" style="fill: #2ca02c; stroke: #2ca02c"/>
     <use xlink:href="#m45387aaf1f" x="165.344971" y="90.39087" style="fill: #2ca02c; stroke: #2ca02c"/>
     <use xlink:href="#m45387aaf1f" x="188.449903" y="88.90049" style="fill: #2ca02c; stroke: #2ca02c"/>
     <use xlink:href="#m45387aaf1f" x="203.853191" y="87.951338" style="fill: #2ca02c; stroke: #2ca02c"/>
    </g>
   </g>
   <g id="line2d_13">
    <path d="M 54.954742 76.926534 
L 65.223601 75.751623 
L 85.761318 70.387644 
L 101.164606 71.120828 
L 114.000679 76.665746 
L 137.10561 82.525687 
L 152.508898 83.00436 
L 165.344971 83.094379 
L 188.449903 83.537935 
L 203.853191 84.034585 
" clip-path="url(#p38fc19dc9d)" style="fill: none; stroke: #d62728; stroke-width: 1.5; stroke-linecap: square"/>
    <defs>
     <path id="m7a00d34bae" d="M -3 0 
L 3 0 
M 0 3 
L 0 -3 
" style="stroke: #d62728"/>
    </defs>
    <g clip-path="url(#p38fc19dc9d)">
     <use xlink:href="#m7a00d34bae" x="54.954742" y="76.926534" style="fill: #d62728; stroke: #d62728"/>
     <use xlink:href="#m7a00d34bae" x="65.223601" y="75.751623" style="fill: #d62728; stroke: #d62728"/>
     <use xlink:href="#m7a00d34bae" x="85.761318" y="70.387644" style="fill: #d62728; stroke: #d62728"/>
     <use xlink:href="#m7a00d34bae" x="101.164606" y="71.120828" style="fill: #d62728; stroke: #d62728"/>
     <use xlink:href="#m7a00d34bae" x="114.000679" y="76.665746" style="fill: #d62728; stroke: #d62728"/>
     <use xlink:href="#m7a00d34bae" x="137.10561" y="82.525687" style="fill: #d62728; stroke: #d62728"/>
     <use xlink:href="#m7a00d34bae" x="152.508898" y="83.00436" style="fill: #d62728; stroke: #d62728"/>
     <use xlink:href="#m7a00d34bae" x="165.344971" y="83.094379" style="fill: #d62728; stroke: #d62728"/>
     <use xlink:href="#m7a00d34bae" x="188.449903" y="83.537935" style="fill: #d62728; stroke: #d62728"/>
     <use xlink:href="#m7a00d34bae" x="203.853191" y="84.034585" style="fill: #d62728; stroke: #d62728"/>
    </g>
   </g>
   <g id="line2d_14">
    <path d="M 54.954742 41.420202 
L 65.223601 42.009199 
L 85.761318 40.82243 
L 101.164606 46.954438 
L 114.000679 59.249907 
L 137.10561 76.387135 
L 152.508898 81.465292 
L 165.344971 84.227433 
L 188.449903 88.044871 
L 203.853191 90.021545 
" clip-path="url(#p38fc19dc9d)" style="fill: none; stroke: #9467bd; stroke-width: 1.5; stroke-linecap: square"/>
    <defs>
     <path id="m337f4ba1ce" d="M -3 0 
L 3 0 
M 0 3 
L 0 -3 
" style="stroke: #9467bd"/>
    </defs>
    <g clip-path="url(#p38fc19dc9d)">
     <use xlink:href="#m337f4ba1ce" x="54.954742" y="41.420202" style="fill: #9467bd; stroke: #9467bd"/>
     <use xlink:href="#m337f4ba1ce" x="65.223601" y="42.009199" style="fill: #9467bd; stroke: #9467bd"/>
     <use xlink:href="#m337f4ba1ce" x="85.761318" y="40.82243" style="fill: #9467bd; stroke: #9467bd"/>
     <use xlink:href="#m337f4ba1ce" x="101.164606" y="46.954438" style="fill: #9467bd; stroke: #9467bd"/>
     <use xlink:href="#m337f4ba1ce" x="114.000679" y="59.249907" style="fill: #9467bd; stroke: #9467bd"/>
     <use xlink:href="#m337f4ba1ce" x="137.10561" y="76.387135" style="fill: #9467bd; stroke: #9467bd"/>
     <use xlink:href="#m337f4ba1ce" x="152.508898" y="81.465292" style="fill: #9467bd; stroke: #9467bd"/>
     <use xlink:href="#m337f4ba1ce" x="165.344971" y="84.227433" style="fill: #9467bd; stroke: #9467bd"/>
     <use xlink:href="#m337f4ba1ce" x="188.449903" y="88.044871" style="fill: #9467bd; stroke: #9467bd"/>
     <use xlink:href="#m337f4ba1ce" x="203.853191" y="90.021545" style="fill: #9467bd; stroke: #9467bd"/>
    </g>
   </g>
   <g id="line2d_15">
    <path d="M 39.423094 118.231165 
L 211.683195 118.231165 
" clip-path="url(#p38fc19dc9d)" style="fill: none; stroke: #000000; stroke-width: 1.5; stroke-linecap: square"/>
   </g>
   <g id="line2d_16">
    <path d="M 47.253098 118.231165 
L 47.253098 16.856519 
" clip-path="url(#p38fc19dc9d)" style="fill: none; stroke: #000000; stroke-width: 1.5; stroke-linecap: square"/>
   </g>
   <g id="line2d_17">
    <path d="M 39.423094 97.956235 
L 211.683195 97.956235 
" clip-path="url(#p38fc19dc9d)" style="fill: none; stroke: #ff0000; stroke-width: 1.5; stroke-linecap: square"/>
   </g>
   <g id="patch_3">
    <path d="M 39.423094 118.231165 
L 39.423094 16.856519 
" style="fill: none; stroke: #000000; stroke-width: 0.8; stroke-linejoin: miter; stroke-linecap: square"/>
   </g>
   <g id="patch_4">
    <path d="M 211.683195 118.231165 
L 211.683195 16.856519 
" style="fill: none; stroke: #000000; stroke-width: 0.8; stroke-linejoin: miter; stroke-linecap: square"/>
   </g>
   <g id="patch_5">
    <path d="M 39.423094 118.231165 
L 211.683195 118.231165 
" style="fill: none; stroke: #000000; stroke-width: 0.8; stroke-linejoin: miter; stroke-linecap: square"/>
   </g>
   <g id="patch_6">
    <path d="M 39.423094 16.856519 
L 211.683195 16.856519 
" style="fill: none; stroke: #000000; stroke-width: 0.8; stroke-linejoin: miter; stroke-linecap: square"/>
   </g>
   <g id="legend_1">
    <g id="patch_7">
     <path d="M 132.042186 77.247884 
L 205.383195 77.247884 
Q 207.183195 77.247884 207.183195 75.447884 
L 207.183195 23.156519 
Q 207.183195 21.356519 205.383195 21.356519 
L 132.042186 21.356519 
Q 130.242186 21.356519 130.242186 23.156519 
L 130.242186 75.447884 
Q 130.242186 77.247884 132.042186 77.247884 
z
" style="fill: #ffffff; opacity: 0.8; stroke: #cccccc; stroke-linejoin: miter"/>
    </g>
    <g id="line2d_18">
     <path d="M 133.842186 28.195007 
L 142.842186 28.195007 
L 151.842186 28.195007 
" style="fill: none; stroke: #1f77b4; stroke-width: 1.5; stroke-linecap: square"/>
     <g>
      <use xlink:href="#m87de64a9e9" x="142.842186" y="28.195007" style="fill: #1f77b4; stroke: #1f77b4"/>
     </g>
    </g>
    <g id="text_10">
     <!-- $\mathrm{th=-8.03}$ -->
     <g transform="translate(159.042186 31.345007) scale(0.09 -0.09)">
      <defs>
       <path id="CMR17-74" d="M 966 2560 
L 1862 2560 
L 1862 2725 
L 966 2725 
L 966 3904 
L 851 3904 
C 838 3245 614 2668 70 2668 
L 70 2560 
L 627 2560 
L 627 771 
C 627 650 627 -64 1370 -64 
C 1747 -64 1965 306 1965 777 
L 1965 1140 
L 1850 1140 
L 1850 783 
C 1850 344 1677 51 1408 51 
C 1222 51 966 178 966 758 
L 966 2560 
z
" transform="scale(0.015625)"/>
       <path id="CMR17-68" d="M 2656 1933 
C 2656 2259 2592 2790 1837 2790 
C 1312 2790 1056 2368 979 2157 
L 973 2157 
L 973 4396 
L 211 4326 
L 211 4160 
C 589 4160 646 4122 646 3817 
L 646 426 
C 646 184 621 153 211 153 
L 211 -13 
C 365 0 646 0 813 0 
C 979 0 1267 0 1421 -13 
L 1421 153 
C 1011 153 986 178 986 428 
L 986 1658 
C 986 2247 1344 2688 1792 2688 
C 2266 2688 2317 2266 2317 1958 
L 2317 428 
C 2317 184 2291 153 1882 153 
L 1882 -13 
C 2035 0 2317 0 2483 0 
C 2650 0 2938 0 3091 -13 
L 3091 153 
C 2682 153 2656 178 2656 428 
L 2656 1933 
z
" transform="scale(0.015625)"/>
       <path id="CMR17-3d" d="M 4115 2017 
C 4211 2017 4307 2017 4307 2125 
C 4307 2240 4198 2240 4090 2240 
L 512 2240 
C 403 2240 294 2240 294 2125 
C 294 2017 390 2017 486 2017 
L 4115 2017 
z
M 4090 896 
C 4198 896 4307 896 4307 1011 
C 4307 1119 4211 1119 4115 1119 
L 486 1119 
C 390 1119 294 1119 294 1011 
C 294 896 403 896 512 896 
L 4090 896 
z
" transform="scale(0.015625)"/>
       <path id="CMSY10-0" d="M 4218 1472 
C 4326 1472 4442 1472 4442 1600 
C 4442 1728 4326 1728 4218 1728 
L 755 1728 
C 646 1728 531 1728 531 1600 
C 531 1472 646 1472 755 1472 
L 4218 1472 
z
" transform="scale(0.015625)"/>
       <path id="CMR17-38" d="M 1741 2264 
C 2144 2467 2554 2773 2554 3263 
C 2554 3841 1990 4179 1472 4179 
C 890 4179 378 3759 378 3180 
C 378 3021 416 2747 666 2505 
C 730 2442 998 2251 1171 2130 
C 883 1983 211 1634 211 934 
C 211 279 838 -128 1459 -128 
C 2144 -128 2720 362 2720 1010 
C 2720 1590 2330 1857 2074 2029 
L 1741 2264 
z
M 902 2822 
C 851 2854 595 3051 595 3351 
C 595 3739 998 4032 1459 4032 
C 1965 4032 2336 3676 2336 3262 
C 2336 2669 1670 2331 1638 2331 
C 1632 2331 1626 2331 1574 2370 
L 902 2822 
z
M 2080 1519 
C 2176 1449 2483 1240 2483 851 
C 2483 381 2010 25 1472 25 
C 890 25 448 438 448 940 
C 448 1443 838 1862 1280 2060 
L 2080 1519 
z
" transform="scale(0.015625)"/>
       <path id="CMR17-33" d="M 1414 2157 
C 1984 2157 2234 1662 2234 1090 
C 2234 320 1824 25 1453 25 
C 1114 25 563 194 390 693 
C 422 680 454 680 486 680 
C 640 680 755 782 755 948 
C 755 1133 614 1216 486 1216 
C 378 1216 211 1165 211 926 
C 211 335 787 -128 1466 -128 
C 2176 -128 2720 430 2720 1085 
C 2720 1707 2208 2157 1600 2227 
C 2086 2328 2554 2756 2554 3329 
C 2554 3820 2048 4179 1472 4179 
C 890 4179 378 3829 378 3329 
C 378 3110 544 3072 627 3072 
C 762 3072 877 3155 877 3321 
C 877 3486 762 3569 627 3569 
C 602 3569 570 3569 544 3557 
C 730 3959 1235 4032 1459 4032 
C 1683 4032 2106 3925 2106 3320 
C 2106 3143 2080 2828 1862 2550 
C 1670 2304 1453 2304 1242 2284 
C 1210 2284 1062 2269 1037 2269 
C 992 2263 966 2257 966 2208 
C 966 2163 973 2157 1101 2157 
L 1414 2157 
z
" transform="scale(0.015625)"/>
      </defs>
      <use xlink:href="#CMR17-74" transform="scale(0.996264)"/>
      <use xlink:href="#CMR17-68" transform="translate(35.280768 0) scale(0.996264)"/>
      <use xlink:href="#CMR17-3d" transform="translate(113.850146 0) scale(0.996264)"/>
      <use xlink:href="#CMSY10-0" transform="translate(213.238943 0) scale(0.996264)"/>
      <use xlink:href="#CMR17-38" transform="translate(290.726411 0) scale(0.996264)"/>
      <use xlink:href="#CMMI12-3a" transform="translate(336.416888 0) scale(0.996264)"/>
      <use xlink:href="#CMR17-30" transform="translate(363.514065 0) scale(0.996264)"/>
      <use xlink:href="#CMR17-33" transform="translate(409.204542 0) scale(0.996264)"/>
     </g>
    </g>
    <g id="line2d_19">
     <path d="M 133.842186 38.29328 
L 142.842186 38.29328 
L 151.842186 38.29328 
" style="fill: none; stroke: #ff7f0e; stroke-width: 1.5; stroke-linecap: square"/>
     <g>
      <use xlink:href="#m3abfbdbfb3" x="142.842186" y="38.29328" style="fill: #ff7f0e; stroke: #ff7f0e"/>
     </g>
    </g>
    <g id="text_11">
     <!-- $\mathrm{th=-7.47}$ -->
     <g transform="translate(159.042186 41.44328) scale(0.09 -0.09)">
      <defs>
       <path id="CMR17-34" d="M 2150 4122 
C 2150 4256 2144 4256 2029 4256 
L 128 1254 
L 128 1088 
L 1779 1088 
L 1779 457 
C 1779 224 1766 160 1318 160 
L 1197 160 
L 1197 0 
C 1402 0 1747 0 1965 0 
C 2182 0 2528 0 2733 0 
L 2733 160 
L 2611 160 
C 2163 160 2150 224 2150 457 
L 2150 1088 
L 2803 1088 
L 2803 1254 
L 2150 1254 
L 2150 4122 
z
M 1798 3703 
L 1798 1254 
L 256 1254 
L 1798 3703 
z
" transform="scale(0.015625)"/>
      </defs>
      <use xlink:href="#CMR17-74" transform="scale(0.996264)"/>
      <use xlink:href="#CMR17-68" transform="translate(35.280768 0) scale(0.996264)"/>
      <use xlink:href="#CMR17-3d" transform="translate(113.850146 0) scale(0.996264)"/>
      <use xlink:href="#CMSY10-0" transform="translate(213.238943 0) scale(0.996264)"/>
      <use xlink:href="#CMR17-37" transform="translate(290.726411 0) scale(0.996264)"/>
      <use xlink:href="#CMMI12-3a" transform="translate(336.416888 0) scale(0.996264)"/>
      <use xlink:href="#CMR17-34" transform="translate(363.514065 0) scale(0.996264)"/>
      <use xlink:href="#CMR17-37" transform="translate(409.204542 0) scale(0.996264)"/>
     </g>
    </g>
    <g id="line2d_20">
     <path d="M 133.842186 48.391553 
L 142.842186 48.391553 
L 151.842186 48.391553 
" style="fill: none; stroke: #2ca02c; stroke-width: 1.5; stroke-linecap: square"/>
     <g>
      <use xlink:href="#m45387aaf1f" x="142.842186" y="48.391553" style="fill: #2ca02c; stroke: #2ca02c"/>
     </g>
    </g>
    <g id="text_12">
     <!-- $\mathrm{th=-4.58}$ -->
     <g transform="translate(159.042186 51.541553) scale(0.09 -0.09)">
      <use xlink:href="#CMR17-74" transform="scale(0.996264)"/>
      <use xlink:href="#CMR17-68" transform="translate(35.280768 0) scale(0.996264)"/>
      <use xlink:href="#CMR17-3d" transform="translate(113.850146 0) scale(0.996264)"/>
      <use xlink:href="#CMSY10-0" transform="translate(213.238943 0) scale(0.996264)"/>
      <use xlink:href="#CMR17-34" transform="translate(290.726411 0) scale(0.996264)"/>
      <use xlink:href="#CMMI12-3a" transform="translate(336.416888 0) scale(0.996264)"/>
      <use xlink:href="#CMR17-35" transform="translate(363.514065 0) scale(0.996264)"/>
      <use xlink:href="#CMR17-38" transform="translate(409.204542 0) scale(0.996264)"/>
     </g>
    </g>
    <g id="line2d_21">
     <path d="M 133.842186 58.489826 
L 142.842186 58.489826 
L 151.842186 58.489826 
" style="fill: none; stroke: #d62728; stroke-width: 1.5; stroke-linecap: square"/>
     <g>
      <use xlink:href="#m7a00d34bae" x="142.842186" y="58.489826" style="fill: #d62728; stroke: #d62728"/>
     </g>
    </g>
    <g id="text_13">
     <!-- $\mathrm{th=-2.29}$ -->
     <g transform="translate(159.042186 61.639826) scale(0.09 -0.09)">
      <defs>
       <path id="CMR17-39" d="M 2253 1864 
C 2253 464 1670 31 1190 31 
C 1043 31 685 31 538 294 
C 704 268 826 357 826 518 
C 826 692 685 749 595 749 
C 538 749 365 723 365 506 
C 365 71 742 -128 1203 -128 
C 1939 -128 2688 674 2688 2073 
C 2688 3817 1971 4179 1485 4179 
C 851 4179 243 3628 243 2778 
C 243 1991 762 1408 1414 1408 
C 1952 1408 2189 1903 2253 2112 
L 2253 1864 
z
M 1427 1510 
C 1254 1510 1011 1542 813 1922 
C 678 2169 678 2461 678 2771 
C 678 3146 678 3405 858 3684 
C 947 3817 1114 4032 1485 4032 
C 2240 4032 2240 2885 2240 2632 
C 2240 2182 2035 1510 1427 1510 
z
" transform="scale(0.015625)"/>
      </defs>
      <use xlink:href="#CMR17-74" transform="scale(0.996264)"/>
      <use xlink:href="#CMR17-68" transform="translate(35.280768 0) scale(0.996264)"/>
      <use xlink:href="#CMR17-3d" transform="translate(113.850146 0) scale(0.996264)"/>
      <use xlink:href="#CMSY10-0" transform="translate(213.238943 0) scale(0.996264)"/>
      <use xlink:href="#CMR17-32" transform="translate(290.726411 0) scale(0.996264)"/>
      <use xlink:href="#CMMI12-3a" transform="translate(336.416888 0) scale(0.996264)"/>
      <use xlink:href="#CMR17-32" transform="translate(363.514065 0) scale(0.996264)"/>
      <use xlink:href="#CMR17-39" transform="translate(409.204542 0) scale(0.996264)"/>
     </g>
    </g>
    <g id="line2d_22">
     <path d="M 133.842186 68.588099 
L 142.842186 68.588099 
L 151.842186 68.588099 
" style="fill: none; stroke: #9467bd; stroke-width: 1.5; stroke-linecap: square"/>
     <g>
      <use xlink:href="#m337f4ba1ce" x="142.842186" y="68.588099" style="fill: #9467bd; stroke: #9467bd"/>
     </g>
    </g>
    <g id="text_14">
     <!-- $\mathrm{th=0.00}$ -->
     <g transform="translate(159.042186 71.738099) scale(0.09 -0.09)">
      <use xlink:href="#CMR17-74" transform="scale(0.996264)"/>
      <use xlink:href="#CMR17-68" transform="translate(35.280768 0) scale(0.996264)"/>
      <use xlink:href="#CMR17-3d" transform="translate(113.850146 0) scale(0.996264)"/>
      <use xlink:href="#CMR17-30" transform="translate(213.238943 0) scale(0.996264)"/>
      <use xlink:href="#CMMI12-3a" transform="translate(258.929421 0) scale(0.996264)"/>
      <use xlink:href="#CMR17-30" transform="translate(286.026598 0) scale(0.996264)"/>
      <use xlink:href="#CMR17-30" transform="translate(331.717075 0) scale(0.996264)"/>
     </g>
    </g>
   </g>
  </g>
  <g id="axes_2">
   <g id="patch_8">
    <path d="M 251.106289 118.231165 
L 423.366391 118.231165 
L 423.366391 16.856519 
L 251.106289 16.856519 
z
" style="fill: #ffffff"/>
   </g>
   <g id="matplotlib.axis_3">
    <g id="xtick_5">
     <g id="line2d_23">
      <g>
       <use xlink:href="#md9b85b1941" x="258.936294" y="118.231165" style="stroke: #000000; stroke-width: 0.8"/>
      </g>
     </g>
     <g id="text_15">
      <!-- $\mathdefault{0}$ -->
      <g transform="translate(256.19656 133.039317) scale(0.11 -0.11)">
       <use xlink:href="#CMR17-30" transform="scale(0.996264)"/>
      </g>
     </g>
    </g>
    <g id="xtick_6">
     <g id="line2d_24">
      <g>
       <use xlink:href="#md9b85b1941" x="303.742642" y="118.231165" style="stroke: #000000; stroke-width: 0.8"/>
      </g>
     </g>
     <g id="text_16">
      <!-- $\mathdefault{5}$ -->
      <g transform="translate(301.002908 133.039317) scale(0.11 -0.11)">
       <use xlink:href="#CMR17-35" transform="scale(0.996264)"/>
      </g>
     </g>
    </g>
    <g id="xtick_7">
     <g id="line2d_25">
      <g>
       <use xlink:href="#md9b85b1941" x="348.54899" y="118.231165" style="stroke: #000000; stroke-width: 0.8"/>
      </g>
     </g>
     <g id="text_17">
      <!-- $\mathdefault{10}$ -->
      <g transform="translate(343.069522 133.039317) scale(0.11 -0.11)">
       <use xlink:href="#CMR17-31" transform="scale(0.996264)"/>
       <use xlink:href="#CMR17-30" transform="translate(45.690477 0) scale(0.996264)"/>
      </g>
     </g>
    </g>
    <g id="xtick_8">
     <g id="line2d_26">
      <g>
       <use xlink:href="#md9b85b1941" x="393.355337" y="118.231165" style="stroke: #000000; stroke-width: 0.8"/>
      </g>
     </g>
     <g id="text_18">
      <!-- $\mathdefault{15}$ -->
      <g transform="translate(387.87587 133.039317) scale(0.11 -0.11)">
       <use xlink:href="#CMR17-31" transform="scale(0.996264)"/>
       <use xlink:href="#CMR17-35" transform="translate(45.690477 0) scale(0.996264)"/>
      </g>
     </g>
    </g>
   </g>
   <g id="matplotlib.axis_4">
    <g id="ytick_6">
     <g id="line2d_27">
      <g>
       <use xlink:href="#m18b52448f0" x="251.106289" y="118.231165" style="stroke: #000000; stroke-width: 0.8"/>
      </g>
     </g>
     <g id="text_19">
      <!-- $\mathdefault{0.0}$ -->
      <g transform="translate(230.103213 122.135241) scale(0.11 -0.11)">
       <use xlink:href="#CMR17-30" transform="scale(0.996264)"/>
       <use xlink:href="#CMMI12-3a" transform="translate(45.690477 0) scale(0.996264)"/>
       <use xlink:href="#CMR17-30" transform="translate(72.787654 0) scale(0.996264)"/>
      </g>
     </g>
    </g>
    <g id="ytick_7">
     <g id="line2d_28">
      <g>
       <use xlink:href="#m18b52448f0" x="251.106289" y="92.887503" style="stroke: #000000; stroke-width: 0.8"/>
      </g>
     </g>
     <g id="text_20">
      <!-- $\mathdefault{2.5}$ -->
      <g transform="translate(230.103213 96.791579) scale(0.11 -0.11)">
       <use xlink:href="#CMR17-32" transform="scale(0.996264)"/>
       <use xlink:href="#CMMI12-3a" transform="translate(45.690477 0) scale(0.996264)"/>
       <use xlink:href="#CMR17-35" transform="translate(72.787654 0) scale(0.996264)"/>
      </g>
     </g>
    </g>
    <g id="ytick_8">
     <g id="line2d_29">
      <g>
       <use xlink:href="#m18b52448f0" x="251.106289" y="67.543842" style="stroke: #000000; stroke-width: 0.8"/>
      </g>
     </g>
     <g id="text_21">
      <!-- $\mathdefault{5.0}$ -->
      <g transform="translate(230.103213 71.447918) scale(0.11 -0.11)">
       <use xlink:href="#CMR17-35" transform="scale(0.996264)"/>
       <use xlink:href="#CMMI12-3a" transform="translate(45.690477 0) scale(0.996264)"/>
       <use xlink:href="#CMR17-30" transform="translate(72.787654 0) scale(0.996264)"/>
      </g>
     </g>
    </g>
    <g id="ytick_9">
     <g id="line2d_30">
      <g>
       <use xlink:href="#m18b52448f0" x="251.106289" y="42.20018" style="stroke: #000000; stroke-width: 0.8"/>
      </g>
     </g>
     <g id="text_22">
      <!-- $\mathdefault{7.5}$ -->
      <g transform="translate(230.103213 46.104256) scale(0.11 -0.11)">
       <use xlink:href="#CMR17-37" transform="scale(0.996264)"/>
       <use xlink:href="#CMMI12-3a" transform="translate(45.690477 0) scale(0.996264)"/>
       <use xlink:href="#CMR17-35" transform="translate(72.787654 0) scale(0.996264)"/>
      </g>
     </g>
    </g>
    <g id="ytick_10">
     <g id="line2d_31">
      <g>
       <use xlink:href="#m18b52448f0" x="251.106289" y="16.856519" style="stroke: #000000; stroke-width: 0.8"/>
      </g>
     </g>
     <g id="text_23">
      <!-- $\mathdefault{10.0}$ -->
      <g transform="translate(224.623746 20.760595) scale(0.11 -0.11)">
       <use xlink:href="#CMR17-31" transform="scale(0.996264)"/>
       <use xlink:href="#CMR17-30" transform="translate(45.690477 0) scale(0.996264)"/>
       <use xlink:href="#CMMI12-3a" transform="translate(91.380954 0) scale(0.996264)"/>
       <use xlink:href="#CMR17-30" transform="translate(118.478131 0) scale(0.996264)"/>
      </g>
     </g>
    </g>
   </g>
   <g id="line2d_32">
    <path d="M 266.637938 101.097812 
L 276.906796 101.92106 
L 297.444513 105.254253 
L 312.847801 105.804805 
L 325.683874 105.541518 
L 348.788806 105.27468 
L 364.192094 105.188271 
L 377.028167 105.111586 
L 400.133098 105.027825 
L 415.536386 105.150522 
" clip-path="url(#p358d6d0496)" style="fill: none; stroke: #1f77b4; stroke-width: 1.5; stroke-linecap: square"/>
    <g clip-path="url(#p358d6d0496)">
     <use xlink:href="#m87de64a9e9" x="266.637938" y="101.097812" style="fill: #1f77b4; stroke: #1f77b4"/>
     <use xlink:href="#m87de64a9e9" x="276.906796" y="101.92106" style="fill: #1f77b4; stroke: #1f77b4"/>
     <use xlink:href="#m87de64a9e9" x="297.444513" y="105.254253" style="fill: #1f77b4; stroke: #1f77b4"/>
     <use xlink:href="#m87de64a9e9" x="312.847801" y="105.804805" style="fill: #1f77b4; stroke: #1f77b4"/>
     <use xlink:href="#m87de64a9e9" x="325.683874" y="105.541518" style="fill: #1f77b4; stroke: #1f77b4"/>
     <use xlink:href="#m87de64a9e9" x="348.788806" y="105.27468" style="fill: #1f77b4; stroke: #1f77b4"/>
     <use xlink:href="#m87de64a9e9" x="364.192094" y="105.188271" style="fill: #1f77b4; stroke: #1f77b4"/>
     <use xlink:href="#m87de64a9e9" x="377.028167" y="105.111586" style="fill: #1f77b4; stroke: #1f77b4"/>
     <use xlink:href="#m87de64a9e9" x="400.133098" y="105.027825" style="fill: #1f77b4; stroke: #1f77b4"/>
     <use xlink:href="#m87de64a9e9" x="415.536386" y="105.150522" style="fill: #1f77b4; stroke: #1f77b4"/>
    </g>
   </g>
   <g id="line2d_33">
    <path d="M 266.637938 100.207659 
L 276.906796 101.062723 
L 297.444513 104.550962 
L 312.847801 105.130255 
L 325.683874 104.853069 
L 348.788806 104.566138 
L 364.192094 104.471525 
L 377.028167 104.387624 
L 400.133098 104.296243 
L 415.536386 104.427173 
" clip-path="url(#p358d6d0496)" style="fill: none; stroke: #ff7f0e; stroke-width: 1.5; stroke-linecap: square"/>
    <g clip-path="url(#p358d6d0496)">
     <use xlink:href="#m3abfbdbfb3" x="266.637938" y="100.207659" style="fill: #ff7f0e; stroke: #ff7f0e"/>
     <use xlink:href="#m3abfbdbfb3" x="276.906796" y="101.062723" style="fill: #ff7f0e; stroke: #ff7f0e"/>
     <use xlink:href="#m3abfbdbfb3" x="297.444513" y="104.550962" style="fill: #ff7f0e; stroke: #ff7f0e"/>
     <use xlink:href="#m3abfbdbfb3" x="312.847801" y="105.130255" style="fill: #ff7f0e; stroke: #ff7f0e"/>
     <use xlink:href="#m3abfbdbfb3" x="325.683874" y="104.853069" style="fill: #ff7f0e; stroke: #ff7f0e"/>
     <use xlink:href="#m3abfbdbfb3" x="348.788806" y="104.566138" style="fill: #ff7f0e; stroke: #ff7f0e"/>
     <use xlink:href="#m3abfbdbfb3" x="364.192094" y="104.471525" style="fill: #ff7f0e; stroke: #ff7f0e"/>
     <use xlink:href="#m3abfbdbfb3" x="377.028167" y="104.387624" style="fill: #ff7f0e; stroke: #ff7f0e"/>
     <use xlink:href="#m3abfbdbfb3" x="400.133098" y="104.296243" style="fill: #ff7f0e; stroke: #ff7f0e"/>
     <use xlink:href="#m3abfbdbfb3" x="415.536386" y="104.427173" style="fill: #ff7f0e; stroke: #ff7f0e"/>
    </g>
   </g>
   <g id="line2d_34">
    <path d="M 266.637938 93.619955 
L 276.906796 94.687444 
L 297.444513 99.295266 
L 312.847801 100.118885 
L 325.683874 99.774593 
L 348.788806 99.404825 
L 364.192094 99.308707 
L 377.028167 99.229827 
L 400.133098 99.213365 
L 415.536386 99.508751 
" clip-path="url(#p358d6d0496)" style="fill: none; stroke: #2ca02c; stroke-width: 1.5; stroke-linecap: square"/>
    <g clip-path="url(#p358d6d0496)">
     <use xlink:href="#m45387aaf1f" x="266.637938" y="93.619955" style="fill: #2ca02c; stroke: #2ca02c"/>
     <use xlink:href="#m45387aaf1f" x="276.906796" y="94.687444" style="fill: #2ca02c; stroke: #2ca02c"/>
     <use xlink:href="#m45387aaf1f" x="297.444513" y="99.295266" style="fill: #2ca02c; stroke: #2ca02c"/>
     <use xlink:href="#m45387aaf1f" x="312.847801" y="100.118885" style="fill: #2ca02c; stroke: #2ca02c"/>
     <use xlink:href="#m45387aaf1f" x="325.683874" y="99.774593" style="fill: #2ca02c; stroke: #2ca02c"/>
     <use xlink:href="#m45387aaf1f" x="348.788806" y="99.404825" style="fill: #2ca02c; stroke: #2ca02c"/>
     <use xlink:href="#m45387aaf1f" x="364.192094" y="99.308707" style="fill: #2ca02c; stroke: #2ca02c"/>
     <use xlink:href="#m45387aaf1f" x="377.028167" y="99.229827" style="fill: #2ca02c; stroke: #2ca02c"/>
     <use xlink:href="#m45387aaf1f" x="400.133098" y="99.213365" style="fill: #2ca02c; stroke: #2ca02c"/>
     <use xlink:href="#m45387aaf1f" x="415.536386" y="99.508751" style="fill: #2ca02c; stroke: #2ca02c"/>
    </g>
   </g>
   <g id="line2d_35">
    <path d="M 266.637938 83.566752 
L 276.906796 84.906535 
L 297.444513 91.203701 
L 312.847801 92.588036 
L 325.683874 92.348818 
L 348.788806 92.257942 
L 364.192094 92.484796 
L 377.028167 92.714793 
L 400.133098 93.402704 
L 415.536386 94.33086 
" clip-path="url(#p358d6d0496)" style="fill: none; stroke: #d62728; stroke-width: 1.5; stroke-linecap: square"/>
    <g clip-path="url(#p358d6d0496)">
     <use xlink:href="#m7a00d34bae" x="266.637938" y="83.566752" style="fill: #d62728; stroke: #d62728"/>
     <use xlink:href="#m7a00d34bae" x="276.906796" y="84.906535" style="fill: #d62728; stroke: #d62728"/>
     <use xlink:href="#m7a00d34bae" x="297.444513" y="91.203701" style="fill: #d62728; stroke: #d62728"/>
     <use xlink:href="#m7a00d34bae" x="312.847801" y="92.588036" style="fill: #d62728; stroke: #d62728"/>
     <use xlink:href="#m7a00d34bae" x="325.683874" y="92.348818" style="fill: #d62728; stroke: #d62728"/>
     <use xlink:href="#m7a00d34bae" x="348.788806" y="92.257942" style="fill: #d62728; stroke: #d62728"/>
     <use xlink:href="#m7a00d34bae" x="364.192094" y="92.484796" style="fill: #d62728; stroke: #d62728"/>
     <use xlink:href="#m7a00d34bae" x="377.028167" y="92.714793" style="fill: #d62728; stroke: #d62728"/>
     <use xlink:href="#m7a00d34bae" x="400.133098" y="93.402704" style="fill: #d62728; stroke: #d62728"/>
     <use xlink:href="#m7a00d34bae" x="415.536386" y="94.33086" style="fill: #d62728; stroke: #d62728"/>
    </g>
   </g>
   <g id="line2d_36">
    <path d="M 266.637938 59.733278 
L 276.906796 61.766328 
L 297.444513 72.818296 
L 312.847801 77.144578 
L 325.683874 78.695337 
L 348.788806 81.782729 
L 364.192094 84.194131 
L 377.028167 86.164411 
L 400.133098 89.699654 
L 415.536386 92.293877 
" clip-path="url(#p358d6d0496)" style="fill: none; stroke: #9467bd; stroke-width: 1.5; stroke-linecap: square"/>
    <g clip-path="url(#p358d6d0496)">
     <use xlink:href="#m337f4ba1ce" x="266.637938" y="59.733278" style="fill: #9467bd; stroke: #9467bd"/>
     <use xlink:href="#m337f4ba1ce" x="276.906796" y="61.766328" style="fill: #9467bd; stroke: #9467bd"/>
     <use xlink:href="#m337f4ba1ce" x="297.444513" y="72.818296" style="fill: #9467bd; stroke: #9467bd"/>
     <use xlink:href="#m337f4ba1ce" x="312.847801" y="77.144578" style="fill: #9467bd; stroke: #9467bd"/>
     <use xlink:href="#m337f4ba1ce" x="325.683874" y="78.695337" style="fill: #9467bd; stroke: #9467bd"/>
     <use xlink:href="#m337f4ba1ce" x="348.788806" y="81.782729" style="fill: #9467bd; stroke: #9467bd"/>
     <use xlink:href="#m337f4ba1ce" x="364.192094" y="84.194131" style="fill: #9467bd; stroke: #9467bd"/>
     <use xlink:href="#m337f4ba1ce" x="377.028167" y="86.164411" style="fill: #9467bd; stroke: #9467bd"/>
     <use xlink:href="#m337f4ba1ce" x="400.133098" y="89.699654" style="fill: #9467bd; stroke: #9467bd"/>
     <use xlink:href="#m337f4ba1ce" x="415.536386" y="92.293877" style="fill: #9467bd; stroke: #9467bd"/>
    </g>
   </g>
   <g id="line2d_37">
    <path d="M 251.106289 118.231165 
L 423.366391 118.231165 
" clip-path="url(#p358d6d0496)" style="fill: none; stroke: #000000; stroke-width: 1.5; stroke-linecap: square"/>
   </g>
   <g id="line2d_38">
    <path d="M 258.936294 118.231165 
L 258.936294 16.856519 
" clip-path="url(#p358d6d0496)" style="fill: none; stroke: #000000; stroke-width: 1.5; stroke-linecap: square"/>
   </g>
   <g id="line2d_39">
    <path d="M 251.106289 97.956235 
L 423.366391 97.956235 
" clip-path="url(#p358d6d0496)" style="fill: none; stroke: #ff0000; stroke-width: 1.5; stroke-linecap: square"/>
   </g>
   <g id="patch_9">
    <path d="M 251.106289 118.231165 
L 251.106289 16.856519 
" style="fill: none; stroke: #000000; stroke-width: 0.8; stroke-linejoin: miter; stroke-linecap: square"/>
   </g>
   <g id="patch_10">
    <path d="M 423.366391 118.231165 
L 423.366391 16.856519 
" style="fill: none; stroke: #000000; stroke-width: 0.8; stroke-linejoin: miter; stroke-linecap: square"/>
   </g>
   <g id="patch_11">
    <path d="M 251.106289 118.231165 
L 423.366391 118.231165 
" style="fill: none; stroke: #000000; stroke-width: 0.8; stroke-linejoin: miter; stroke-linecap: square"/>
   </g>
   <g id="patch_12">
    <path d="M 251.106289 16.856519 
L 423.366391 16.856519 
" style="fill: none; stroke: #000000; stroke-width: 0.8; stroke-linejoin: miter; stroke-linecap: square"/>
   </g>
  </g>
  <g id="text_24">
   <!-- $\mathrm{\theta}\ [\SI[]{}{\degree}]$ -->
   <g transform="translate(208.405921 143.892792) scale(0.12 -0.12)">
    <defs>
     <path id="CMMI12-12" d="M 2835 3200 
C 2835 3850 2630 4480 2106 4480 
C 1210 4480 256 2615 256 1216 
C 256 923 320 -64 992 -64 
C 1862 -64 2835 1756 2835 3200 
z
M 896 2304 
C 992 2679 1126 3214 1382 3665 
C 1594 4047 1818 4352 2099 4352 
C 2310 4352 2451 4174 2451 3564 
C 2451 3334 2432 3017 2246 2304 
L 896 2304 
z
M 2202 2113 
C 2042 1490 1907 1088 1677 687 
C 1491 363 1267 64 998 64 
C 800 64 640 217 640 846 
C 640 1260 742 1693 845 2113 
L 2202 2113 
z
" transform="scale(0.015625)"/>
     <path id="CMR17-5b" d="M 1504 -1600 
L 1504 -1377 
L 902 -1377 
L 902 4544 
L 1504 4544 
L 1504 4767 
L 678 4767 
L 678 -1600 
L 1504 -1600 
z
" transform="scale(0.015625)"/>
     <path id="SFRM3583-b0" d="M 890 4416 
C 544 4371 326 4080 326 3776 
C 326 3453 576 3136 960 3136 
L 1018 3136 
C 1357 3181 1587 3472 1587 3776 
C 1587 4105 1312 4416 947 4416 
L 890 4416 
z
M 525 3737 
L 525 3776 
C 525 4003 723 4204 947 4204 
C 1178 4204 1338 4026 1382 3815 
L 1382 3776 
C 1382 3545 1184 3341 960 3341 
C 730 3341 570 3522 525 3737 
z
" transform="scale(0.015625)"/>
     <path id="CMR17-5d" d="M 915 4767 
L 90 4767 
L 90 4544 
L 691 4544 
L 691 -1377 
L 90 -1377 
L 90 -1600 
L 915 -1600 
L 915 4767 
z
" transform="scale(0.015625)"/>
    </defs>
    <use xlink:href="#CMMI12-12" transform="scale(0.996264)"/>
    <use xlink:href="#CMR17-5b" transform="translate(75.864677 0) scale(0.996264)"/>
    <use xlink:href="#SFRM3583-b0" transform="translate(100.735736 0) scale(0.356961)"/>
    <use xlink:href="#CMR17-5d" transform="translate(111.376634 0) scale(0.996264)"/>
   </g>
  </g>
  <g id="text_25">
   <!-- $\mathrm{\omega_{th}}\ $ -->
   <g transform="translate(7.349005 81.80357) rotate(-90) scale(0.12 -0.12)">
    <defs>
     <path id="CMMI12-21" d="M 3802 2395 
C 3802 2580 3750 2816 3526 2816 
C 3398 2816 3251 2657 3251 2529 
C 3251 2472 3277 2434 3328 2376 
C 3424 2268 3546 2096 3546 1797 
C 3546 1567 3405 1204 3302 1007 
C 3123 656 2829 357 2496 357 
C 2093 357 1939 615 1869 975 
C 1939 1143 2086 1560 2086 1728 
C 2086 1798 2061 1856 1978 1856 
C 1933 1856 1882 1831 1850 1779 
C 1760 1638 1677 1129 1683 994 
C 1562 756 1216 357 806 357 
C 378 357 262 733 262 1096 
C 262 1758 678 2338 794 2497 
C 858 2593 902 2657 902 2669 
C 902 2714 877 2784 819 2784 
C 717 2784 685 2701 634 2625 
C 307 2121 77 1414 77 803 
C 77 408 224 -64 704 -64 
C 1235 -64 1568 391 1702 634 
C 1754 275 1946 -64 2413 -64 
C 2899 -64 3206 363 3437 879 
C 3603 1249 3802 2045 3802 2395 
z
" transform="scale(0.015625)"/>
    </defs>
    <use xlink:href="#CMMI12-21" transform="scale(0.996264)"/>
    <use xlink:href="#CMR17-74" transform="translate(60.743753 -14.943915) scale(0.697382)"/>
    <use xlink:href="#CMR17-68" transform="translate(85.440174 -14.943915) scale(0.697382)"/>
   </g>
  </g>
 </g>
 <defs>
  <clipPath id="p38fc19dc9d">
   <rect x="39.423094" y="16.856519" width="172.260102" height="101.374646"/>
  </clipPath>
  <clipPath id="p358d6d0496">
   <rect x="251.106289" y="16.856519" width="172.260102" height="101.374646"/>
  </clipPath>
 </defs>
</svg>
