<?xml version="1.0" encoding="utf-8" standalone="no"?>
<!DOCTYPE svg PUBLIC "-//W3C//DTD SVG 1.1//EN"
  "http://www.w3.org/Graphics/SVG/1.1/DTD/svg11.dtd">
<svg xmlns:xlink="http://www.w3.org/1999/xlink" width="293.833086pt" height="403.930356pt" viewBox="0 0 293.833086 403.930356" xmlns="http://www.w3.org/2000/svg" version="1.1">
 <metadata>
  <rdf:RDF xmlns:dc="http://purl.org/dc/elements/1.1/" xmlns:cc="http://creativecommons.org/ns#" xmlns:rdf="http://www.w3.org/1999/02/22-rdf-syntax-ns#">
   <cc:Work>
    <dc:type rdf:resource="http://purl.org/dc/dcmitype/StillImage"/>
    <dc:date>2025-01-24T17:26:56.866198</dc:date>
    <dc:format>image/svg+xml</dc:format>
    <dc:creator>
     <cc:Agent>
      <dc:title>Matplotlib v3.8.0, https://matplotlib.org/</dc:title>
     </cc:Agent>
    </dc:creator>
   </cc:Work>
  </rdf:RDF>
 </metadata>
 <defs>
  <style type="text/css">*{stroke-linejoin: round; stroke-linecap: butt}</style>
 </defs>
 <g id="figure_1">
  <g id="patch_1">
   <path d="M 0 403.930356 
L 293.833086 403.930356 
L 293.833086 0 
L 0 0 
L 0 403.930356 
z
" style="fill: none"/>
  </g>
  <g id="axes_1">
   <g id="patch_2">
    <path d="M 40.111149 320.662326 
L 269.677106 320.662326 
L 269.677106 7.2 
L 40.111149 7.2 
L 40.111149 320.662326 
z
" style="fill: none"/>
   </g>
   <g id="patch_3">
    <path d="M 198.620976 64.030527 
L 236.881969 64.030527 
L 236.881969 64.030527 
L 198.620976 64.030527 
z
" clip-path="url(#p4bd0202f84)" style="fill: #959595; opacity: 0.7; stroke: #808080; stroke-width: 0.1; stroke-linejoin: miter"/>
   </g>
   <g id="patch_4">
    <path d="M 143.962415 293.251573 
L 149.428271 293.251573 
L 149.428271 243.714068 
L 143.962415 243.714068 
z
" clip-path="url(#p4bd0202f84)" style="fill: #fedfc0; opacity: 0.7; stroke: #ffa500; stroke-width: 0.1; stroke-linejoin: miter"/>
   </g>
   <g id="patch_5">
    <path d="M 89.303854 226.170085 
L 94.76971 226.170085 
L 94.76971 226.170085 
L 89.303854 226.170085 
z
" clip-path="url(#p4bd0202f84)" style="fill: #fedfc0; opacity: 0.7; stroke: #ffa500; stroke-width: 0.1; stroke-linejoin: miter"/>
   </g>
   <g id="axes_2">
    <g id="patch_6">
     <path d="M 269.677106 320.662326 
L 269.677106 320.662326 
L 269.677106 7.2 
L 269.677106 7.2 
L 269.677106 320.662326 
z
" style="fill: none"/>
    </g>
    <g id="matplotlib.axis_1"/>
    <g id="matplotlib.axis_2">
     <g id="ytick_1">
      <g id="line2d_1">
       <defs>
        <path id="m743ac8f81a" d="M 1.75 0 
L -1.75 -0 
" style="stroke: #000000; stroke-width: 0.8"/>
       </defs>
       <g>
        <use xlink:href="#m743ac8f81a" x="269.677106" y="306.901908" style="stroke: #000000; stroke-width: 0.8"/>
       </g>
      </g>
      <g id="text_1">
       <!-- $\mathdefault{0}$ -->
       <g transform="translate(274.927106 311.1609) scale(0.12 -0.12)">
        <defs>
         <path id="CMR17-30" d="M 2688 2025 
C 2688 2416 2682 3080 2413 3591 
C 2176 4039 1798 4198 1466 4198 
C 1158 4198 768 4058 525 3597 
C 269 3118 243 2524 243 2025 
C 243 1661 250 1106 448 619 
C 723 -39 1216 -128 1466 -128 
C 1760 -128 2208 -7 2470 600 
C 2662 1042 2688 1559 2688 2025 
z
M 1466 -26 
C 1056 -26 813 325 723 812 
C 653 1188 653 1738 653 2096 
C 653 2588 653 2997 736 3387 
C 858 3929 1216 4096 1466 4096 
C 1728 4096 2067 3923 2189 3400 
C 2272 3036 2278 2607 2278 2096 
C 2278 1680 2278 1169 2202 792 
C 2067 95 1690 -26 1466 -26 
z
" transform="scale(0.015625)"/>
        </defs>
        <use xlink:href="#CMR17-30" transform="scale(0.996264)"/>
       </g>
      </g>
     </g>
     <g id="ytick_2">
      <g id="line2d_2">
       <g>
        <use xlink:href="#m743ac8f81a" x="269.677106" y="251.860235" style="stroke: #000000; stroke-width: 0.8"/>
       </g>
      </g>
      <g id="text_2">
       <!-- $\mathdefault{2}$ -->
       <g transform="translate(274.927106 256.119227) scale(0.12 -0.12)">
        <defs>
         <path id="CMR17-32" d="M 2669 989 
L 2554 989 
C 2490 536 2438 459 2413 420 
C 2381 369 1920 369 1830 369 
L 602 369 
C 832 619 1280 1072 1824 1597 
C 2214 1967 2669 2402 2669 3035 
C 2669 3790 2067 4224 1395 4224 
C 691 4224 262 3604 262 3030 
C 262 2780 448 2748 525 2748 
C 589 2748 781 2787 781 3010 
C 781 3207 614 3264 525 3264 
C 486 3264 448 3258 422 3245 
C 544 3790 915 4058 1306 4058 
C 1862 4058 2227 3617 2227 3035 
C 2227 2479 1901 2000 1536 1584 
L 262 146 
L 262 0 
L 2515 0 
L 2669 989 
z
" transform="scale(0.015625)"/>
        </defs>
        <use xlink:href="#CMR17-32" transform="scale(0.996264)"/>
       </g>
      </g>
     </g>
     <g id="ytick_3">
      <g id="line2d_3">
       <g>
        <use xlink:href="#m743ac8f81a" x="269.677106" y="196.818562" style="stroke: #000000; stroke-width: 0.8"/>
       </g>
      </g>
      <g id="text_3">
       <!-- $\mathdefault{4}$ -->
       <g transform="translate(274.927106 201.077555) scale(0.12 -0.12)">
        <defs>
         <path id="CMR17-34" d="M 2150 4122 
C 2150 4256 2144 4256 2029 4256 
L 128 1254 
L 128 1088 
L 1779 1088 
L 1779 457 
C 1779 224 1766 160 1318 160 
L 1197 160 
L 1197 0 
C 1402 0 1747 0 1965 0 
C 2182 0 2528 0 2733 0 
L 2733 160 
L 2611 160 
C 2163 160 2150 224 2150 457 
L 2150 1088 
L 2803 1088 
L 2803 1254 
L 2150 1254 
L 2150 4122 
z
M 1798 3703 
L 1798 1254 
L 256 1254 
L 1798 3703 
z
" transform="scale(0.015625)"/>
        </defs>
        <use xlink:href="#CMR17-34" transform="scale(0.996264)"/>
       </g>
      </g>
     </g>
     <g id="ytick_4">
      <g id="line2d_4">
       <g>
        <use xlink:href="#m743ac8f81a" x="269.677106" y="141.77689" style="stroke: #000000; stroke-width: 0.8"/>
       </g>
      </g>
      <g id="text_4">
       <!-- $\mathdefault{6}$ -->
       <g transform="translate(274.927106 146.035882) scale(0.12 -0.12)">
        <defs>
         <path id="CMR17-36" d="M 678 2176 
C 678 3690 1395 4032 1811 4032 
C 1946 4032 2272 4009 2400 3776 
C 2298 3776 2106 3776 2106 3553 
C 2106 3381 2246 3323 2336 3323 
C 2394 3323 2566 3348 2566 3560 
C 2566 3954 2246 4179 1805 4179 
C 1043 4179 243 3390 243 1984 
C 243 253 966 -128 1478 -128 
C 2099 -128 2688 427 2688 1283 
C 2688 2081 2170 2662 1517 2662 
C 1126 2662 838 2407 678 1960 
L 678 2176 
z
M 1478 25 
C 691 25 691 1200 691 1436 
C 691 1896 909 2560 1504 2560 
C 1613 2560 1926 2560 2138 2120 
C 2253 1870 2253 1609 2253 1289 
C 2253 944 2253 690 2118 434 
C 1978 171 1773 25 1478 25 
z
" transform="scale(0.015625)"/>
        </defs>
        <use xlink:href="#CMR17-36" transform="scale(0.996264)"/>
       </g>
      </g>
     </g>
     <g id="ytick_5">
      <g id="line2d_5">
       <g>
        <use xlink:href="#m743ac8f81a" x="269.677106" y="86.735217" style="stroke: #000000; stroke-width: 0.8"/>
       </g>
      </g>
      <g id="text_5">
       <!-- $\mathdefault{8}$ -->
       <g transform="translate(274.927106 90.994209) scale(0.12 -0.12)">
        <defs>
         <path id="CMR17-38" d="M 1741 2264 
C 2144 2467 2554 2773 2554 3263 
C 2554 3841 1990 4179 1472 4179 
C 890 4179 378 3759 378 3180 
C 378 3021 416 2747 666 2505 
C 730 2442 998 2251 1171 2130 
C 883 1983 211 1634 211 934 
C 211 279 838 -128 1459 -128 
C 2144 -128 2720 362 2720 1010 
C 2720 1590 2330 1857 2074 2029 
L 1741 2264 
z
M 902 2822 
C 851 2854 595 3051 595 3351 
C 595 3739 998 4032 1459 4032 
C 1965 4032 2336 3676 2336 3262 
C 2336 2669 1670 2331 1638 2331 
C 1632 2331 1626 2331 1574 2370 
L 902 2822 
z
M 2080 1519 
C 2176 1449 2483 1240 2483 851 
C 2483 381 2010 25 1472 25 
C 890 25 448 438 448 940 
C 448 1443 838 1862 1280 2060 
L 2080 1519 
z
" transform="scale(0.015625)"/>
        </defs>
        <use xlink:href="#CMR17-38" transform="scale(0.996264)"/>
       </g>
      </g>
     </g>
     <g id="ytick_6">
      <g id="line2d_6">
       <g>
        <use xlink:href="#m743ac8f81a" x="269.677106" y="31.693544" style="stroke: #000000; stroke-width: 0.8"/>
       </g>
      </g>
      <g id="text_6">
       <!-- $\mathdefault{10}$ -->
       <g transform="translate(274.927106 35.952537) scale(0.12 -0.12)">
        <defs>
         <path id="CMR17-31" d="M 1702 4058 
C 1702 4192 1696 4192 1606 4192 
C 1357 3916 979 3827 621 3827 
C 602 3827 570 3827 563 3808 
C 557 3795 557 3782 557 3648 
C 755 3648 1088 3686 1344 3839 
L 1344 461 
C 1344 236 1331 160 781 160 
L 589 160 
L 589 0 
C 896 0 1216 0 1523 0 
C 1830 0 2150 0 2458 0 
L 2458 160 
L 2266 160 
C 1715 160 1702 230 1702 458 
L 1702 4058 
z
" transform="scale(0.015625)"/>
        </defs>
        <use xlink:href="#CMR17-31" transform="scale(0.996264)"/>
        <use xlink:href="#CMR17-30" transform="translate(45.690477 0) scale(0.996264)"/>
       </g>
      </g>
     </g>
     <g id="ytick_7">
      <g id="line2d_7">
       <defs>
        <path id="mbc01916590" d="M 1 0 
L -1 -0 
" style="stroke: #000000; stroke-width: 0.6"/>
       </defs>
       <g>
        <use xlink:href="#mbc01916590" x="269.677106" y="169.297726" style="stroke: #000000; stroke-width: 0.6"/>
       </g>
      </g>
     </g>
    </g>
    <g id="patch_7">
     <path d="M 269.677106 320.662326 
L 269.677106 7.2 
" style="fill: none; stroke: #000000; stroke-width: 0.8; stroke-linejoin: miter; stroke-linecap: square"/>
    </g>
   </g>
   <g id="patch_8">
    <path d="M 198.620976 156.500537 
L 220.4844 156.500537 
L 220.4844 156.500537 
L 198.620976 156.500537 
z
" clip-path="url(#p4bd0202f84)" style="fill: #dadaeb; opacity: 0.7; stroke: #800080; stroke-width: 0.1; stroke-linejoin: miter"/>
   </g>
   <g id="patch_9">
    <path d="M 143.962415 264.962905 
L 174.9356 264.962905 
L 174.9356 241.294986 
L 143.962415 241.294986 
z
" clip-path="url(#p4bd0202f84)" style="fill: #fd8c3b; opacity: 0.7; stroke: #ffa500; stroke-width: 0.1; stroke-linejoin: miter"/>
   </g>
   <g id="patch_10">
    <path d="M 89.303854 212.031806 
L 133.030703 212.031806 
L 133.030703 212.031806 
L 89.303854 212.031806 
z
" clip-path="url(#p4bd0202f84)" style="fill: #fd8c3b; opacity: 0.7; stroke: #ffa500; stroke-width: 0.1; stroke-linejoin: miter"/>
   </g>
   <g id="LineCollection_1">
    <path d="M 198.620976 7.2 
L 242.347825 7.2 
" clip-path="url(#p4bd0202f84)" style="fill: none; stroke: #00ffff; stroke-width: 1.2"/>
   </g>
   <g id="matplotlib.axis_3">
    <g id="xtick_1">
     <g id="text_7">
      <!-- $\mathrm{Exp}$ -->
      <g transform="translate(199.894163 335.039117) rotate(-330) scale(0.12 -0.12)">
       <defs>
        <path id="CMR17-45" d="M 3885 1615 
L 3770 1615 
C 3629 676 3546 166 2419 166 
L 1530 166 
C 1274 166 1261 197 1261 414 
L 1261 2176 
L 1862 2176 
C 2464 2176 2522 1960 2522 1430 
L 2637 1430 
L 2637 3081 
L 2522 3081 
C 2522 2557 2464 2342 1862 2342 
L 1261 2342 
L 1261 3913 
C 1261 4128 1274 4160 1530 4160 
L 2406 4160 
C 3398 4160 3514 3769 3603 2929 
L 3718 2929 
L 3565 4325 
L 326 4325 
L 326 4160 
C 768 4160 838 4160 838 3874 
L 838 451 
C 838 166 768 166 326 166 
L 326 0 
L 3654 0 
L 3885 1615 
z
" transform="scale(0.015625)"/>
        <path id="CMR17-78" d="M 1664 1477 
C 1856 1726 2074 2006 2253 2216 
C 2464 2458 2707 2560 2989 2560 
L 2989 2726 
C 2880 2726 2656 2726 2541 2726 
C 2368 2726 2170 2726 2022 2732 
L 2022 2566 
C 2112 2553 2163 2489 2163 2400 
C 2163 2285 2099 2215 2067 2171 
L 1594 1573 
L 1030 2306 
C 973 2376 973 2388 973 2420 
C 973 2497 1037 2560 1146 2560 
L 1146 2732 
C 992 2726 717 2726 557 2726 
C 384 2726 179 2726 38 2732 
L 38 2560 
C 384 2560 461 2534 614 2343 
L 1350 1395 
C 1363 1382 1395 1344 1395 1325 
C 1395 1299 838 619 768 530 
C 480 185 179 160 6 160 
L 6 0 
C 115 0 339 0 454 0 
C 582 0 864 0 979 -6 
L 979 160 
C 941 166 838 179 838 325 
C 838 440 890 510 947 586 
L 1478 1236 
L 2035 512 
C 2086 442 2163 346 2163 301 
C 2163 211 2086 160 1984 160 
L 1984 -6 
C 2138 0 2413 0 2573 0 
C 2746 0 2950 0 3091 -6 
L 3091 160 
C 2771 160 2675 172 2522 370 
L 1664 1477 
z
" transform="scale(0.015625)"/>
        <path id="CMR17-70" d="M 1408 -1063 
C 998 -1063 973 -1037 973 -789 
L 973 402 
C 1158 134 1427 -38 1766 -38 
C 2406 -38 3053 523 3053 1388 
C 3053 2191 2496 2802 1837 2802 
C 1453 2802 1139 2592 960 2338 
L 960 2802 
L 198 2732 
L 198 2567 
C 576 2567 634 2528 634 2223 
L 634 -789 
C 634 -1031 608 -1063 198 -1063 
L 198 -1228 
C 352 -1216 634 -1216 800 -1216 
C 966 -1216 1254 -1216 1408 -1228 
L 1408 -1063 
z
M 973 2012 
C 973 2102 973 2235 1222 2471 
C 1254 2497 1472 2688 1792 2688 
C 2259 2688 2643 2108 2643 1382 
C 2643 656 2234 64 1728 64 
C 1498 64 1248 172 1056 472 
C 973 612 973 650 973 752 
L 973 2012 
z
" transform="scale(0.015625)"/>
       </defs>
       <use xlink:href="#CMR17-45" transform="scale(0.996264)"/>
       <use xlink:href="#CMR17-78" transform="translate(62.586301 0) scale(0.996264)"/>
       <use xlink:href="#CMR17-70" transform="translate(110.879216 0) scale(0.996264)"/>
      </g>
     </g>
    </g>
    <g id="xtick_2">
     <g id="text_8">
      <!-- $\mathrm{(\theta,N_{max})\text{-}extrapolation}$ -->
      <g transform="translate(145.456811 335.427435) rotate(-330) scale(0.12 -0.12)">
       <defs>
        <path id="CMR17-28" d="M 1958 -1561 
C 1958 -1555 1958 -1542 1939 -1523 
C 1645 -1224 858 -407 858 1581 
C 858 3569 1632 4379 1946 4697 
C 1946 4704 1958 4717 1958 4736 
C 1958 4755 1939 4768 1914 4768 
C 1843 4768 1299 4296 986 3594 
C 666 2887 576 2199 576 1588 
C 576 1128 621 351 1005 -471 
C 1312 -1135 1837 -1600 1914 -1600 
C 1946 -1600 1958 -1587 1958 -1561 
z
" transform="scale(0.015625)"/>
        <path id="CMMI12-12" d="M 2835 3200 
C 2835 3850 2630 4480 2106 4480 
C 1210 4480 256 2615 256 1216 
C 256 923 320 -64 992 -64 
C 1862 -64 2835 1756 2835 3200 
z
M 896 2304 
C 992 2679 1126 3214 1382 3665 
C 1594 4047 1818 4352 2099 4352 
C 2310 4352 2451 4174 2451 3564 
C 2451 3334 2432 3017 2246 2304 
L 896 2304 
z
M 2202 2113 
C 2042 1490 1907 1088 1677 687 
C 1491 363 1267 64 998 64 
C 800 64 640 217 640 846 
C 640 1260 742 1693 845 2113 
L 2202 2113 
z
" transform="scale(0.015625)"/>
        <path id="CMMI12-3b" d="M 1248 -31 
C 1248 343 1126 619 864 619 
C 659 619 557 453 557 313 
C 557 172 653 0 870 0 
C 954 0 1024 26 1082 83 
C 1094 96 1101 96 1107 96 
C 1120 96 1120 5 1120 -27 
C 1120 -240 1082 -659 710 -1080 
C 640 -1157 640 -1170 640 -1183 
C 640 -1216 672 -1248 704 -1248 
C 755 -1248 1248 -771 1248 -31 
z
" transform="scale(0.015625)"/>
        <path id="CMR17-4e" d="M 1312 4250 
C 1267 4320 1261 4320 1139 4320 
L 326 4320 
L 326 4160 
L 448 4160 
C 704 4160 819 4129 838 4122 
L 838 610 
C 838 451 838 153 326 153 
L 326 -13 
C 474 0 742 0 902 0 
C 1062 0 1331 0 1478 -13 
L 1478 153 
C 966 153 966 451 966 610 
L 966 4033 
C 1011 3995 1011 3982 1056 3919 
L 3430 76 
C 3475 0 3494 0 3526 0 
C 3590 0 3590 19 3590 139 
L 3590 3705 
C 3590 3863 3590 4160 4102 4160 
L 4102 4326 
C 3955 4320 3686 4320 3526 4320 
C 3366 4320 3098 4320 2950 4326 
L 2950 4160 
C 3462 4160 3462 3862 3462 3703 
L 3462 763 
L 1312 4250 
z
" transform="scale(0.015625)"/>
        <path id="CMR17-6d" d="M 4326 1933 
C 4326 2252 4269 2790 3507 2790 
C 3072 2790 2771 2496 2656 2151 
L 2650 2151 
C 2573 2676 2195 2790 1837 2790 
C 1331 2790 1069 2400 973 2144 
L 966 2144 
L 966 2790 
L 211 2720 
L 211 2554 
C 589 2554 646 2515 646 2208 
L 646 428 
C 646 184 621 153 211 153 
L 211 -13 
C 365 0 646 0 813 0 
C 979 0 1267 0 1421 -13 
L 1421 153 
C 1011 153 986 178 986 428 
L 986 1658 
C 986 2247 1344 2688 1792 2688 
C 2266 2688 2317 2266 2317 1958 
L 2317 428 
C 2317 184 2291 153 1882 153 
L 1882 -13 
C 2035 0 2317 0 2483 0 
C 2650 0 2938 0 3091 -13 
L 3091 153 
C 2682 153 2656 178 2656 428 
L 2656 1658 
C 2656 2247 3014 2688 3462 2688 
C 3936 2688 3987 2266 3987 1958 
L 3987 428 
C 3987 184 3962 153 3552 153 
L 3552 -13 
C 3706 0 3987 0 4154 0 
C 4320 0 4608 0 4762 -13 
L 4762 153 
C 4352 153 4326 178 4326 428 
L 4326 1933 
z
" transform="scale(0.015625)"/>
        <path id="CMR17-61" d="M 2304 1653 
C 2304 2072 2304 2294 2035 2543 
C 1798 2752 1523 2816 1306 2816 
C 800 2816 435 2407 435 1971 
C 435 1728 627 1728 666 1728 
C 749 1728 896 1778 896 1954 
C 896 2112 774 2181 666 2181 
C 640 2181 608 2174 589 2168 
C 723 2592 1069 2714 1293 2714 
C 1613 2714 1965 2429 1965 1885 
L 1965 1600 
C 1587 1600 1133 1549 774 1357 
C 371 1133 256 813 256 570 
C 256 77 832 -64 1171 -64 
C 1523 -64 1850 139 1990 511 
C 2003 233 2182 -18 2464 -18 
C 2598 -18 2938 70 2938 567 
L 2938 920 
L 2822 920 
L 2822 562 
C 2822 178 2650 128 2566 128 
C 2304 128 2304 458 2304 738 
L 2304 1653 
z
M 1965 870 
C 1965 317 1568 38 1216 38 
C 896 38 646 275 646 570 
C 646 761 730 1100 1101 1305 
C 1408 1478 1760 1504 1965 1504 
L 1965 870 
z
" transform="scale(0.015625)"/>
        <path id="CMR17-29" d="M 1683 1581 
C 1683 2040 1638 2817 1254 3639 
C 947 4303 422 4768 346 4768 
C 326 4768 301 4761 301 4729 
C 301 4717 307 4710 314 4697 
C 621 4378 1402 3568 1402 1584 
C 1402 -407 627 -1217 314 -1537 
C 307 -1549 301 -1556 301 -1568 
C 301 -1600 326 -1600 346 -1600 
C 416 -1600 960 -1128 1274 -426 
C 1594 281 1683 969 1683 1581 
z
" transform="scale(0.015625)"/>
        <path id="NimbusSanL-Regu-2d" d="M 1818 1997 
L 294 1997 
L 294 1536 
L 1818 1536 
L 1818 1997 
z
" transform="scale(0.015625)"/>
        <path id="CMR17-65" d="M 2438 1472 
C 2464 1498 2464 1511 2464 1576 
C 2464 2238 2118 2816 1389 2816 
C 710 2816 173 2169 173 1383 
C 173 551 781 -64 1459 -64 
C 2176 -64 2458 607 2458 740 
C 2458 784 2419 784 2406 784 
C 2362 784 2355 771 2330 696 
C 2189 265 1837 51 1504 51 
C 1229 51 954 203 781 480 
C 582 803 582 1176 582 1472 
L 2438 1472 
z
M 589 1568 
C 634 2505 1126 2714 1382 2714 
C 1818 2714 2112 2297 2118 1568 
L 589 1568 
z
" transform="scale(0.015625)"/>
        <path id="CMR17-74" d="M 966 2560 
L 1862 2560 
L 1862 2725 
L 966 2725 
L 966 3904 
L 851 3904 
C 838 3245 614 2668 70 2668 
L 70 2560 
L 627 2560 
L 627 771 
C 627 650 627 -64 1370 -64 
C 1747 -64 1965 306 1965 777 
L 1965 1140 
L 1850 1140 
L 1850 783 
C 1850 344 1677 51 1408 51 
C 1222 51 966 178 966 758 
L 966 2560 
z
" transform="scale(0.015625)"/>
        <path id="CMR17-72" d="M 960 1497 
C 960 2112 1222 2688 1702 2688 
C 1747 2688 1792 2682 1837 2662 
C 1837 2662 1696 2617 1696 2452 
C 1696 2298 1818 2234 1914 2234 
C 1990 2234 2131 2279 2131 2458 
C 2131 2663 1926 2790 1709 2790 
C 1222 2790 1011 2317 947 2093 
L 941 2093 
L 941 2790 
L 198 2720 
L 198 2554 
C 576 2554 634 2515 634 2208 
L 634 428 
C 634 184 608 153 198 153 
L 198 -13 
C 352 0 646 0 813 0 
C 998 0 1325 0 1498 -13 
L 1498 153 
C 1037 153 960 153 960 440 
L 960 1497 
z
" transform="scale(0.015625)"/>
        <path id="CMR17-6f" d="M 2758 1356 
C 2758 2176 2163 2816 1466 2816 
C 768 2816 173 2176 173 1356 
C 173 551 768 -64 1466 -64 
C 2163 -64 2758 551 2758 1356 
z
M 1466 51 
C 1165 51 909 230 762 480 
C 602 767 582 1126 582 1408 
C 582 1677 595 2010 762 2298 
C 890 2509 1139 2714 1466 2714 
C 1754 2714 1997 2554 2150 2330 
C 2349 2029 2349 1607 2349 1408 
C 2349 1158 2336 775 2163 467 
C 1984 173 1709 51 1466 51 
z
" transform="scale(0.015625)"/>
        <path id="CMR17-6c" d="M 979 4396 
L 218 4326 
L 218 4160 
C 595 4160 653 4122 653 3817 
L 653 426 
C 653 184 627 153 218 153 
L 218 -13 
C 371 0 653 0 813 0 
C 979 0 1261 0 1414 -13 
L 1414 153 
C 1005 153 979 178 979 426 
L 979 4396 
z
" transform="scale(0.015625)"/>
        <path id="CMR17-69" d="M 992 3909 
C 992 4049 877 4170 730 4170 
C 589 4170 467 4056 467 3909 
C 467 3769 582 3648 730 3648 
C 870 3648 992 3763 992 3909 
z
M 243 2706 
L 243 2541 
C 602 2541 653 2502 653 2197 
L 653 427 
C 653 184 627 153 218 153 
L 218 -13 
C 371 0 646 0 806 0 
C 960 0 1222 0 1370 -13 
L 1370 153 
C 992 153 979 191 979 420 
L 979 2776 
L 243 2706 
z
" transform="scale(0.015625)"/>
        <path id="CMR17-6e" d="M 2656 1933 
C 2656 2259 2592 2790 1837 2790 
C 1331 2790 1069 2400 973 2144 
L 966 2144 
L 966 2790 
L 211 2720 
L 211 2554 
C 589 2554 646 2515 646 2208 
L 646 428 
C 646 184 621 153 211 153 
L 211 -13 
C 365 0 646 0 813 0 
C 979 0 1267 0 1421 -13 
L 1421 153 
C 1011 153 986 178 986 428 
L 986 1658 
C 986 2247 1344 2688 1792 2688 
C 2266 2688 2317 2266 2317 1958 
L 2317 428 
C 2317 184 2291 153 1882 153 
L 1882 -13 
C 2035 0 2317 0 2483 0 
C 2650 0 2938 0 3091 -13 
L 3091 153 
C 2682 153 2656 178 2656 428 
L 2656 1933 
z
" transform="scale(0.015625)"/>
       </defs>
       <use xlink:href="#CMR17-28" transform="scale(0.996264)"/>
       <use xlink:href="#CMMI12-12" transform="translate(35.280768 0) scale(0.996264)"/>
       <use xlink:href="#CMMI12-3b" transform="translate(83.450276 0) scale(0.996264)"/>
       <use xlink:href="#CMR17-4e" transform="translate(127.151858 0) scale(0.996264)"/>
       <use xlink:href="#CMR17-6d" transform="translate(196.224288 -14.943915) scale(0.697382)"/>
       <use xlink:href="#CMR17-61" transform="translate(250.067754 -14.943915) scale(0.697382)"/>
       <use xlink:href="#CMR17-78" transform="translate(282.050936 -14.943915) scale(0.697382)"/>
       <use xlink:href="#CMR17-29" transform="translate(316.353956 0) scale(0.996264)"/>
       <use xlink:href="#NimbusSanL-Regu-2d" transform="translate(351.634724 0) scale(0.996264)"/>
       <use xlink:href="#CMR17-65" transform="translate(384.809953 0) scale(0.996264)"/>
       <use xlink:href="#CMR17-78" transform="translate(425.295614 0) scale(0.996264)"/>
       <use xlink:href="#CMR17-74" transform="translate(473.58853 0) scale(0.996264)"/>
       <use xlink:href="#CMR17-72" transform="translate(508.869298 0) scale(0.996264)"/>
       <use xlink:href="#CMR17-61" transform="translate(544.150065 0) scale(0.996264)"/>
       <use xlink:href="#CMR17-70" transform="translate(589.840542 0) scale(0.996264)"/>
       <use xlink:href="#CMR17-6f" transform="translate(643.338351 0) scale(0.996264)"/>
       <use xlink:href="#CMR17-6c" transform="translate(689.028828 0) scale(0.996264)"/>
       <use xlink:href="#CMR17-61" transform="translate(713.899887 0) scale(0.996264)"/>
       <use xlink:href="#CMR17-74" transform="translate(759.590364 0) scale(0.996264)"/>
       <use xlink:href="#CMR17-69" transform="translate(794.871131 0) scale(0.996264)"/>
       <use xlink:href="#CMR17-6f" transform="translate(819.74219 0) scale(0.996264)"/>
       <use xlink:href="#CMR17-6e" transform="translate(865.432667 0) scale(0.996264)"/>
      </g>
     </g>
    </g>
    <g id="xtick_3">
     <g id="text_9">
      <!-- $\mathrm{N2LO_{sat}}$ -->
      <g transform="translate(90.577041 335.039117) rotate(-330) scale(0.12 -0.12)">
       <defs>
        <path id="CMR17-4c" d="M 3469 1615 
L 3354 1615 
C 3302 983 3219 166 2125 166 
L 1530 166 
C 1274 166 1261 197 1261 414 
L 1261 3898 
C 1261 4129 1274 4192 1760 4192 
L 1901 4192 
L 1901 4352 
C 1638 4352 1331 4352 1069 4352 
C 870 4352 512 4352 326 4352 
L 326 4192 
C 768 4192 838 4192 838 3905 
L 838 452 
C 838 166 768 166 326 166 
L 326 0 
L 3315 0 
L 3469 1615 
z
" transform="scale(0.015625)"/>
        <path id="CMR17-4f" d="M 4307 2135 
C 4307 3437 3366 4416 2304 4416 
C 1216 4416 294 3424 294 2135 
C 294 845 1229 -128 2298 -128 
C 3392 -128 4307 864 4307 2135 
z
M 2304 -13 
C 1574 -13 781 711 781 2217 
C 781 3716 1651 4301 2298 4301 
C 2976 4301 3821 3698 3821 2217 
C 3821 686 3008 -13 2304 -13 
z
" transform="scale(0.015625)"/>
        <path id="CMR17-73" d="M 1978 2697 
C 1978 2813 1971 2819 1933 2819 
C 1907 2819 1901 2813 1824 2717 
C 1805 2691 1747 2626 1728 2601 
C 1523 2819 1235 2819 1126 2819 
C 416 2819 160 2447 160 2076 
C 160 1498 813 1365 998 1325 
C 1402 1243 1542 1217 1677 1101 
C 1760 1025 1901 884 1901 654 
C 1901 384 1747 38 1158 38 
C 602 38 403 460 288 1021 
C 269 1110 269 1117 218 1117 
C 166 1117 160 1110 160 983 
L 160 63 
C 160 -51 166 -58 205 -58 
C 237 -58 243 -51 275 0 
C 314 57 410 211 448 276 
C 576 103 800 -64 1158 -64 
C 1792 -64 2131 283 2131 784 
C 2131 1112 1958 1285 1875 1362 
C 1683 1561 1459 1606 1190 1657 
C 838 1735 390 1825 390 2217 
C 390 2383 480 2737 1126 2737 
C 1811 2737 1850 2094 1862 1888 
C 1869 1856 1901 1849 1920 1849 
C 1978 1849 1978 1869 1978 1978 
L 1978 2697 
z
" transform="scale(0.015625)"/>
       </defs>
       <use xlink:href="#CMR17-4e" transform="scale(0.996264)"/>
       <use xlink:href="#CMR17-32" transform="translate(69.07243 0) scale(0.996264)"/>
       <use xlink:href="#CMR17-4c" transform="translate(114.762907 0) scale(0.996264)"/>
       <use xlink:href="#CMR17-4f" transform="translate(172.144315 0) scale(0.996264)"/>
       <use xlink:href="#CMR17-73" transform="translate(243.859103 -14.943915) scale(0.697382)"/>
       <use xlink:href="#CMR17-61" transform="translate(268.919926 -14.943915) scale(0.697382)"/>
       <use xlink:href="#CMR17-74" transform="translate(300.903107 -14.943915) scale(0.697382)"/>
      </g>
     </g>
    </g>
   </g>
   <g id="matplotlib.axis_4">
    <g id="ytick_8">
     <g id="line2d_8">
      <g>
       <use xlink:href="#m743ac8f81a" x="40.111149" y="306.901908" style="stroke: #000000; stroke-width: 0.8"/>
      </g>
     </g>
     <g id="text_10">
      <!-- $\mathdefault{0}$ -->
      <g transform="translate(29.008158 311.1609) scale(0.12 -0.12)">
       <use xlink:href="#CMR17-30" transform="scale(0.996264)"/>
      </g>
     </g>
    </g>
    <g id="ytick_9">
     <g id="line2d_9">
      <g>
       <use xlink:href="#m743ac8f81a" x="40.111149" y="279.381071" style="stroke: #000000; stroke-width: 0.8"/>
      </g>
     </g>
     <g id="text_11">
      <!-- $\mathdefault{1}$ -->
      <g transform="translate(29.008158 283.640064) scale(0.12 -0.12)">
       <use xlink:href="#CMR17-31" transform="scale(0.996264)"/>
      </g>
     </g>
    </g>
    <g id="ytick_10">
     <g id="line2d_10">
      <g>
       <use xlink:href="#m743ac8f81a" x="40.111149" y="251.860235" style="stroke: #000000; stroke-width: 0.8"/>
      </g>
     </g>
     <g id="text_12">
      <!-- $\mathdefault{2}$ -->
      <g transform="translate(29.008158 256.119227) scale(0.12 -0.12)">
       <use xlink:href="#CMR17-32" transform="scale(0.996264)"/>
      </g>
     </g>
    </g>
    <g id="ytick_11">
     <g id="line2d_11">
      <g>
       <use xlink:href="#m743ac8f81a" x="40.111149" y="224.339399" style="stroke: #000000; stroke-width: 0.8"/>
      </g>
     </g>
     <g id="text_13">
      <!-- $\mathdefault{3}$ -->
      <g transform="translate(29.008158 228.598391) scale(0.12 -0.12)">
       <defs>
        <path id="CMR17-33" d="M 1414 2157 
C 1984 2157 2234 1662 2234 1090 
C 2234 320 1824 25 1453 25 
C 1114 25 563 194 390 693 
C 422 680 454 680 486 680 
C 640 680 755 782 755 948 
C 755 1133 614 1216 486 1216 
C 378 1216 211 1165 211 926 
C 211 335 787 -128 1466 -128 
C 2176 -128 2720 430 2720 1085 
C 2720 1707 2208 2157 1600 2227 
C 2086 2328 2554 2756 2554 3329 
C 2554 3820 2048 4179 1472 4179 
C 890 4179 378 3829 378 3329 
C 378 3110 544 3072 627 3072 
C 762 3072 877 3155 877 3321 
C 877 3486 762 3569 627 3569 
C 602 3569 570 3569 544 3557 
C 730 3959 1235 4032 1459 4032 
C 1683 4032 2106 3925 2106 3320 
C 2106 3143 2080 2828 1862 2550 
C 1670 2304 1453 2304 1242 2284 
C 1210 2284 1062 2269 1037 2269 
C 992 2263 966 2257 966 2208 
C 966 2163 973 2157 1101 2157 
L 1414 2157 
z
" transform="scale(0.015625)"/>
       </defs>
       <use xlink:href="#CMR17-33" transform="scale(0.996264)"/>
      </g>
     </g>
    </g>
    <g id="ytick_12">
     <g id="line2d_12">
      <g>
       <use xlink:href="#m743ac8f81a" x="40.111149" y="196.818562" style="stroke: #000000; stroke-width: 0.8"/>
      </g>
     </g>
     <g id="text_14">
      <!-- $\mathdefault{4}$ -->
      <g transform="translate(29.008158 201.077555) scale(0.12 -0.12)">
       <use xlink:href="#CMR17-34" transform="scale(0.996264)"/>
      </g>
     </g>
    </g>
    <g id="ytick_13">
     <g id="line2d_13">
      <g>
       <use xlink:href="#m743ac8f81a" x="40.111149" y="169.297726" style="stroke: #000000; stroke-width: 0.8"/>
      </g>
     </g>
     <g id="text_15">
      <!-- $\mathdefault{5}$ -->
      <g transform="translate(29.008158 173.556718) scale(0.12 -0.12)">
       <defs>
        <path id="CMR17-35" d="M 730 3692 
C 794 3666 1056 3584 1325 3584 
C 1920 3584 2246 3911 2432 4100 
C 2432 4157 2432 4192 2394 4192 
C 2387 4192 2374 4192 2323 4163 
C 2099 4058 1837 3973 1517 3973 
C 1325 3973 1037 3999 723 4139 
C 653 4171 640 4171 634 4171 
C 602 4171 595 4164 595 4037 
L 595 2203 
C 595 2089 595 2057 659 2057 
C 691 2057 704 2070 736 2114 
C 941 2401 1222 2522 1542 2522 
C 1766 2522 2246 2382 2246 1289 
C 2246 1085 2246 715 2054 421 
C 1894 159 1645 25 1370 25 
C 947 25 518 320 403 814 
C 429 807 480 795 506 795 
C 589 795 749 840 749 1038 
C 749 1210 627 1280 506 1280 
C 358 1280 262 1190 262 1011 
C 262 454 704 -128 1382 -128 
C 2042 -128 2669 440 2669 1264 
C 2669 2030 2170 2624 1549 2624 
C 1222 2624 947 2503 730 2274 
L 730 3692 
z
" transform="scale(0.015625)"/>
       </defs>
       <use xlink:href="#CMR17-35" transform="scale(0.996264)"/>
      </g>
     </g>
    </g>
    <g id="ytick_14">
     <g id="line2d_14">
      <g>
       <use xlink:href="#m743ac8f81a" x="40.111149" y="141.77689" style="stroke: #000000; stroke-width: 0.8"/>
      </g>
     </g>
     <g id="text_16">
      <!-- $\mathdefault{6}$ -->
      <g transform="translate(29.008158 146.035882) scale(0.12 -0.12)">
       <use xlink:href="#CMR17-36" transform="scale(0.996264)"/>
      </g>
     </g>
    </g>
    <g id="ytick_15">
     <g id="line2d_15">
      <g>
       <use xlink:href="#m743ac8f81a" x="40.111149" y="114.256053" style="stroke: #000000; stroke-width: 0.8"/>
      </g>
     </g>
     <g id="text_17">
      <!-- $\mathdefault{7}$ -->
      <g transform="translate(29.008158 118.515046) scale(0.12 -0.12)">
       <defs>
        <path id="CMR17-37" d="M 2886 3941 
L 2886 4081 
L 1382 4081 
C 634 4081 621 4165 595 4288 
L 480 4288 
L 294 3094 
L 410 3094 
C 429 3215 474 3540 550 3661 
C 589 3712 1062 3712 1171 3712 
L 2579 3712 
L 1869 2661 
C 1395 1954 1069 999 1069 165 
C 1069 89 1069 -128 1299 -128 
C 1530 -128 1530 89 1530 171 
L 1530 465 
C 1530 1508 1709 2196 2003 2636 
L 2886 3941 
z
" transform="scale(0.015625)"/>
       </defs>
       <use xlink:href="#CMR17-37" transform="scale(0.996264)"/>
      </g>
     </g>
    </g>
    <g id="ytick_16">
     <g id="line2d_16">
      <g>
       <use xlink:href="#m743ac8f81a" x="40.111149" y="86.735217" style="stroke: #000000; stroke-width: 0.8"/>
      </g>
     </g>
     <g id="text_18">
      <!-- $\mathdefault{8}$ -->
      <g transform="translate(29.008158 90.994209) scale(0.12 -0.12)">
       <use xlink:href="#CMR17-38" transform="scale(0.996264)"/>
      </g>
     </g>
    </g>
    <g id="ytick_17">
     <g id="line2d_17">
      <g>
       <use xlink:href="#m743ac8f81a" x="40.111149" y="59.214381" style="stroke: #000000; stroke-width: 0.8"/>
      </g>
     </g>
     <g id="text_19">
      <!-- $\mathdefault{9}$ -->
      <g transform="translate(29.008158 63.473373) scale(0.12 -0.12)">
       <defs>
        <path id="CMR17-39" d="M 2253 1864 
C 2253 464 1670 31 1190 31 
C 1043 31 685 31 538 294 
C 704 268 826 357 826 518 
C 826 692 685 749 595 749 
C 538 749 365 723 365 506 
C 365 71 742 -128 1203 -128 
C 1939 -128 2688 674 2688 2073 
C 2688 3817 1971 4179 1485 4179 
C 851 4179 243 3628 243 2778 
C 243 1991 762 1408 1414 1408 
C 1952 1408 2189 1903 2253 2112 
L 2253 1864 
z
M 1427 1510 
C 1254 1510 1011 1542 813 1922 
C 678 2169 678 2461 678 2771 
C 678 3146 678 3405 858 3684 
C 947 3817 1114 4032 1485 4032 
C 2240 4032 2240 2885 2240 2632 
C 2240 2182 2035 1510 1427 1510 
z
" transform="scale(0.015625)"/>
       </defs>
       <use xlink:href="#CMR17-39" transform="scale(0.996264)"/>
      </g>
     </g>
    </g>
    <g id="ytick_18">
     <g id="line2d_18">
      <g>
       <use xlink:href="#m743ac8f81a" x="40.111149" y="31.693544" style="stroke: #000000; stroke-width: 0.8"/>
      </g>
     </g>
     <g id="text_20">
      <!-- $\mathdefault{10}$ -->
      <g transform="translate(23.155168 35.952537) scale(0.12 -0.12)">
       <use xlink:href="#CMR17-31" transform="scale(0.996264)"/>
       <use xlink:href="#CMR17-30" transform="translate(45.690477 0) scale(0.996264)"/>
      </g>
     </g>
    </g>
    <g id="ytick_19">
     <g id="line2d_19">
      <g>
       <use xlink:href="#mbc01916590" x="40.111149" y="317.910242" style="stroke: #000000; stroke-width: 0.6"/>
      </g>
     </g>
    </g>
    <g id="ytick_20">
     <g id="line2d_20">
      <g>
       <use xlink:href="#mbc01916590" x="40.111149" y="312.406075" style="stroke: #000000; stroke-width: 0.6"/>
      </g>
     </g>
    </g>
    <g id="ytick_21">
     <g id="line2d_21">
      <g>
       <use xlink:href="#mbc01916590" x="40.111149" y="301.397741" style="stroke: #000000; stroke-width: 0.6"/>
      </g>
     </g>
    </g>
    <g id="ytick_22">
     <g id="line2d_22">
      <g>
       <use xlink:href="#mbc01916590" x="40.111149" y="295.893573" style="stroke: #000000; stroke-width: 0.6"/>
      </g>
     </g>
    </g>
    <g id="ytick_23">
     <g id="line2d_23">
      <g>
       <use xlink:href="#mbc01916590" x="40.111149" y="290.389406" style="stroke: #000000; stroke-width: 0.6"/>
      </g>
     </g>
    </g>
    <g id="ytick_24">
     <g id="line2d_24">
      <g>
       <use xlink:href="#mbc01916590" x="40.111149" y="284.885239" style="stroke: #000000; stroke-width: 0.6"/>
      </g>
     </g>
    </g>
    <g id="ytick_25">
     <g id="line2d_25">
      <g>
       <use xlink:href="#mbc01916590" x="40.111149" y="273.876904" style="stroke: #000000; stroke-width: 0.6"/>
      </g>
     </g>
    </g>
    <g id="ytick_26">
     <g id="line2d_26">
      <g>
       <use xlink:href="#mbc01916590" x="40.111149" y="268.372737" style="stroke: #000000; stroke-width: 0.6"/>
      </g>
     </g>
    </g>
    <g id="ytick_27">
     <g id="line2d_27">
      <g>
       <use xlink:href="#mbc01916590" x="40.111149" y="262.86857" style="stroke: #000000; stroke-width: 0.6"/>
      </g>
     </g>
    </g>
    <g id="ytick_28">
     <g id="line2d_28">
      <g>
       <use xlink:href="#mbc01916590" x="40.111149" y="257.364402" style="stroke: #000000; stroke-width: 0.6"/>
      </g>
     </g>
    </g>
    <g id="ytick_29">
     <g id="line2d_29">
      <g>
       <use xlink:href="#mbc01916590" x="40.111149" y="246.356068" style="stroke: #000000; stroke-width: 0.6"/>
      </g>
     </g>
    </g>
    <g id="ytick_30">
     <g id="line2d_30">
      <g>
       <use xlink:href="#mbc01916590" x="40.111149" y="240.851901" style="stroke: #000000; stroke-width: 0.6"/>
      </g>
     </g>
    </g>
    <g id="ytick_31">
     <g id="line2d_31">
      <g>
       <use xlink:href="#mbc01916590" x="40.111149" y="235.347733" style="stroke: #000000; stroke-width: 0.6"/>
      </g>
     </g>
    </g>
    <g id="ytick_32">
     <g id="line2d_32">
      <g>
       <use xlink:href="#mbc01916590" x="40.111149" y="229.843566" style="stroke: #000000; stroke-width: 0.6"/>
      </g>
     </g>
    </g>
    <g id="ytick_33">
     <g id="line2d_33">
      <g>
       <use xlink:href="#mbc01916590" x="40.111149" y="218.835232" style="stroke: #000000; stroke-width: 0.6"/>
      </g>
     </g>
    </g>
    <g id="ytick_34">
     <g id="line2d_34">
      <g>
       <use xlink:href="#mbc01916590" x="40.111149" y="213.331064" style="stroke: #000000; stroke-width: 0.6"/>
      </g>
     </g>
    </g>
    <g id="ytick_35">
     <g id="line2d_35">
      <g>
       <use xlink:href="#mbc01916590" x="40.111149" y="207.826897" style="stroke: #000000; stroke-width: 0.6"/>
      </g>
     </g>
    </g>
    <g id="ytick_36">
     <g id="line2d_36">
      <g>
       <use xlink:href="#mbc01916590" x="40.111149" y="202.32273" style="stroke: #000000; stroke-width: 0.6"/>
      </g>
     </g>
    </g>
    <g id="ytick_37">
     <g id="line2d_37">
      <g>
       <use xlink:href="#mbc01916590" x="40.111149" y="191.314395" style="stroke: #000000; stroke-width: 0.6"/>
      </g>
     </g>
    </g>
    <g id="ytick_38">
     <g id="line2d_38">
      <g>
       <use xlink:href="#mbc01916590" x="40.111149" y="185.810228" style="stroke: #000000; stroke-width: 0.6"/>
      </g>
     </g>
    </g>
    <g id="ytick_39">
     <g id="line2d_39">
      <g>
       <use xlink:href="#mbc01916590" x="40.111149" y="180.306061" style="stroke: #000000; stroke-width: 0.6"/>
      </g>
     </g>
    </g>
    <g id="ytick_40">
     <g id="line2d_40">
      <g>
       <use xlink:href="#mbc01916590" x="40.111149" y="174.801893" style="stroke: #000000; stroke-width: 0.6"/>
      </g>
     </g>
    </g>
    <g id="ytick_41">
     <g id="line2d_41">
      <g>
       <use xlink:href="#mbc01916590" x="40.111149" y="163.793559" style="stroke: #000000; stroke-width: 0.6"/>
      </g>
     </g>
    </g>
    <g id="ytick_42">
     <g id="line2d_42">
      <g>
       <use xlink:href="#mbc01916590" x="40.111149" y="158.289392" style="stroke: #000000; stroke-width: 0.6"/>
      </g>
     </g>
    </g>
    <g id="ytick_43">
     <g id="line2d_43">
      <g>
       <use xlink:href="#mbc01916590" x="40.111149" y="152.785224" style="stroke: #000000; stroke-width: 0.6"/>
      </g>
     </g>
    </g>
    <g id="ytick_44">
     <g id="line2d_44">
      <g>
       <use xlink:href="#mbc01916590" x="40.111149" y="147.281057" style="stroke: #000000; stroke-width: 0.6"/>
      </g>
     </g>
    </g>
    <g id="ytick_45">
     <g id="line2d_45">
      <g>
       <use xlink:href="#mbc01916590" x="40.111149" y="136.272722" style="stroke: #000000; stroke-width: 0.6"/>
      </g>
     </g>
    </g>
    <g id="ytick_46">
     <g id="line2d_46">
      <g>
       <use xlink:href="#mbc01916590" x="40.111149" y="130.768555" style="stroke: #000000; stroke-width: 0.6"/>
      </g>
     </g>
    </g>
    <g id="ytick_47">
     <g id="line2d_47">
      <g>
       <use xlink:href="#mbc01916590" x="40.111149" y="125.264388" style="stroke: #000000; stroke-width: 0.6"/>
      </g>
     </g>
    </g>
    <g id="ytick_48">
     <g id="line2d_48">
      <g>
       <use xlink:href="#mbc01916590" x="40.111149" y="119.760221" style="stroke: #000000; stroke-width: 0.6"/>
      </g>
     </g>
    </g>
    <g id="ytick_49">
     <g id="line2d_49">
      <g>
       <use xlink:href="#mbc01916590" x="40.111149" y="108.751886" style="stroke: #000000; stroke-width: 0.6"/>
      </g>
     </g>
    </g>
    <g id="ytick_50">
     <g id="line2d_50">
      <g>
       <use xlink:href="#mbc01916590" x="40.111149" y="103.247719" style="stroke: #000000; stroke-width: 0.6"/>
      </g>
     </g>
    </g>
    <g id="ytick_51">
     <g id="line2d_51">
      <g>
       <use xlink:href="#mbc01916590" x="40.111149" y="97.743552" style="stroke: #000000; stroke-width: 0.6"/>
      </g>
     </g>
    </g>
    <g id="ytick_52">
     <g id="line2d_52">
      <g>
       <use xlink:href="#mbc01916590" x="40.111149" y="92.239384" style="stroke: #000000; stroke-width: 0.6"/>
      </g>
     </g>
    </g>
    <g id="ytick_53">
     <g id="line2d_53">
      <g>
       <use xlink:href="#mbc01916590" x="40.111149" y="81.23105" style="stroke: #000000; stroke-width: 0.6"/>
      </g>
     </g>
    </g>
    <g id="ytick_54">
     <g id="line2d_54">
      <g>
       <use xlink:href="#mbc01916590" x="40.111149" y="75.726883" style="stroke: #000000; stroke-width: 0.6"/>
      </g>
     </g>
    </g>
    <g id="ytick_55">
     <g id="line2d_55">
      <g>
       <use xlink:href="#mbc01916590" x="40.111149" y="70.222715" style="stroke: #000000; stroke-width: 0.6"/>
      </g>
     </g>
    </g>
    <g id="ytick_56">
     <g id="line2d_56">
      <g>
       <use xlink:href="#mbc01916590" x="40.111149" y="64.718548" style="stroke: #000000; stroke-width: 0.6"/>
      </g>
     </g>
    </g>
    <g id="ytick_57">
     <g id="line2d_57">
      <g>
       <use xlink:href="#mbc01916590" x="40.111149" y="53.710213" style="stroke: #000000; stroke-width: 0.6"/>
      </g>
     </g>
    </g>
    <g id="ytick_58">
     <g id="line2d_58">
      <g>
       <use xlink:href="#mbc01916590" x="40.111149" y="48.206046" style="stroke: #000000; stroke-width: 0.6"/>
      </g>
     </g>
    </g>
    <g id="ytick_59">
     <g id="line2d_59">
      <g>
       <use xlink:href="#mbc01916590" x="40.111149" y="42.701879" style="stroke: #000000; stroke-width: 0.6"/>
      </g>
     </g>
    </g>
    <g id="ytick_60">
     <g id="line2d_60">
      <g>
       <use xlink:href="#mbc01916590" x="40.111149" y="37.197712" style="stroke: #000000; stroke-width: 0.6"/>
      </g>
     </g>
    </g>
    <g id="ytick_61">
     <g id="line2d_61">
      <g>
       <use xlink:href="#mbc01916590" x="40.111149" y="26.189377" style="stroke: #000000; stroke-width: 0.6"/>
      </g>
     </g>
    </g>
    <g id="ytick_62">
     <g id="line2d_62">
      <g>
       <use xlink:href="#mbc01916590" x="40.111149" y="20.68521" style="stroke: #000000; stroke-width: 0.6"/>
      </g>
     </g>
    </g>
    <g id="ytick_63">
     <g id="line2d_63">
      <g>
       <use xlink:href="#mbc01916590" x="40.111149" y="15.181043" style="stroke: #000000; stroke-width: 0.6"/>
      </g>
     </g>
    </g>
    <g id="ytick_64">
     <g id="line2d_64">
      <g>
       <use xlink:href="#mbc01916590" x="40.111149" y="9.676875" style="stroke: #000000; stroke-width: 0.6"/>
      </g>
     </g>
    </g>
    <g id="text_21">
     <!-- $ E \, [{\rm MeV}]$ -->
     <g transform="translate(16.166376 185.295619) rotate(-90) scale(0.12 -0.12)">
      <defs>
       <path id="CMMI12-45" d="M 4448 1489 
C 4454 1508 4474 1554 4474 1579 
C 4474 1611 4448 1643 4410 1643 
C 4384 1643 4371 1637 4352 1617 
C 4339 1611 4339 1598 4282 1469 
C 3904 570 3629 185 2605 185 
L 1670 185 
C 1581 185 1568 185 1530 192 
C 1459 198 1453 211 1453 262 
C 1453 307 1466 345 1478 403 
L 1920 2176 
L 2554 2176 
C 3053 2176 3091 2066 3091 1874 
C 3091 1810 3091 1752 3046 1560 
C 3034 1534 3027 1508 3027 1489 
C 3027 1444 3059 1425 3098 1425 
C 3155 1425 3162 1469 3187 1559 
L 3552 3042 
C 3552 3073 3526 3105 3488 3105 
C 3430 3105 3424 3080 3398 2990 
C 3270 2501 3142 2361 2573 2361 
L 1965 2361 
L 2362 3930 
C 2419 4154 2432 4154 2694 4154 
L 3610 4154 
C 4397 4154 4557 3943 4557 3458 
C 4557 3451 4557 3273 4531 3062 
C 4525 3036 4518 2998 4518 2985 
C 4518 2934 4550 2915 4589 2915 
C 4634 2915 4659 2941 4672 3055 
L 4806 4174 
C 4806 4195 4819 4263 4819 4277 
C 4819 4352 4762 4352 4646 4352 
L 1523 4352 
C 1402 4352 1338 4352 1338 4229 
C 1338 4154 1382 4154 1491 4154 
C 1888 4154 1888 4114 1888 4052 
C 1888 4020 1882 3994 1862 3924 
L 998 473 
C 941 249 928 185 480 185 
C 358 185 294 185 294 70 
C 294 0 333 0 461 0 
L 3674 0 
C 3814 0 3821 6 3866 110 
L 4448 1489 
z
" transform="scale(0.015625)"/>
       <path id="CMR17-5b" d="M 1504 -1600 
L 1504 -1377 
L 902 -1377 
L 902 4544 
L 1504 4544 
L 1504 4767 
L 678 4767 
L 678 -1600 
L 1504 -1600 
z
" transform="scale(0.015625)"/>
       <path id="CMR17-4d" d="M 1338 4224 
C 1299 4320 1293 4320 1158 4320 
L 339 4320 
L 339 4160 
C 781 4160 851 4160 851 3875 
L 851 610 
C 851 451 851 153 339 153 
L 339 -13 
C 486 0 755 0 915 0 
C 1075 0 1344 0 1491 -13 
L 1491 153 
C 979 153 979 451 979 610 
L 979 4135 
L 986 4135 
L 2490 89 
C 2515 25 2528 -13 2579 -13 
C 2630 -13 2643 25 2669 89 
L 4186 4166 
L 4192 4166 
L 4192 438 
C 4192 153 4122 153 3680 153 
L 3680 -13 
C 3853 0 4198 0 4384 0 
C 4570 0 4922 0 5094 -13 
L 5094 153 
C 4653 153 4582 153 4582 438 
L 4582 3875 
C 4582 4160 4653 4160 5094 4160 
L 5094 4320 
L 4282 4320 
C 4147 4320 4141 4314 4102 4218 
L 2720 502 
L 1338 4224 
z
" transform="scale(0.015625)"/>
       <path id="CMR17-56" d="M 3776 3745 
C 3834 3886 3936 4160 4365 4160 
L 4365 4332 
C 4218 4319 4051 4319 3891 4319 
C 3738 4319 3475 4319 3328 4332 
L 3328 4160 
C 3648 4160 3661 3936 3661 3898 
C 3661 3827 3642 3783 3622 3732 
L 2362 446 
L 1043 3886 
C 1024 3931 1011 3963 1011 3994 
C 1011 4160 1267 4160 1402 4160 
L 1402 4319 
C 1197 4319 896 4319 685 4319 
C 518 4319 218 4319 64 4332 
L 64 4160 
C 435 4160 506 4135 582 3931 
L 2106 -26 
C 2138 -115 2144 -128 2214 -128 
C 2285 -128 2291 -115 2323 -26 
L 3776 3745 
z
" transform="scale(0.015625)"/>
       <path id="CMR17-5d" d="M 915 4767 
L 90 4767 
L 90 4544 
L 691 4544 
L 691 -1377 
L 90 -1377 
L 90 -1600 
L 915 -1600 
L 915 4767 
z
" transform="scale(0.015625)"/>
      </defs>
      <use xlink:href="#CMMI12-45" transform="scale(0.996264)"/>
      <use xlink:href="#CMR17-5b" transform="translate(94.656041 0) scale(0.996264)"/>
      <use xlink:href="#CMR17-4d" transform="translate(119.5271 0) scale(0.996264)"/>
      <use xlink:href="#CMR17-65" transform="translate(204.21404 0) scale(0.996264)"/>
      <use xlink:href="#CMR17-56" transform="translate(244.699701 0) scale(0.996264)"/>
      <use xlink:href="#CMR17-5d" transform="translate(315.073297 0) scale(0.996264)"/>
     </g>
    </g>
   </g>
   <g id="patch_11">
    <path d="M 198.620976 274.014508 
L 206.81976 274.014508 
L 206.81976 274.014508 
L 198.620976 274.014508 
z
" clip-path="url(#p4bd0202f84)" style="fill: #e9e9e9; opacity: 0.7; stroke: #808080; stroke-width: 0.1; stroke-linejoin: miter"/>
   </g>
   <g id="patch_12">
    <path d="M 143.962415 240.259927 
L 187.689264 240.259927 
L 187.689264 223.197009 
L 143.962415 223.197009 
z
" clip-path="url(#p4bd0202f84)" style="fill: #dadaeb; opacity: 0.7; stroke: #800080; stroke-width: 0.1; stroke-linejoin: miter"/>
   </g>
   <g id="patch_13">
    <path d="M 89.303854 214.103299 
L 120.277038 214.103299 
L 120.277038 214.103299 
L 89.303854 214.103299 
z
" clip-path="url(#p4bd0202f84)" style="fill: #dadaeb; opacity: 0.7; stroke: #800080; stroke-width: 0.1; stroke-linejoin: miter"/>
   </g>
   <g id="LineCollection_2">
    <path d="M 198.620976 63.204902 
L 242.347825 63.204902 
" clip-path="url(#p4bd0202f84)" style="fill: none; stroke: #00ffff; stroke-width: 1.171429"/>
   </g>
   <g id="line2d_65">
    <path d="M 182.223408 306.901908 
L 258.745393 306.901908 
" clip-path="url(#p4bd0202f84)" style="fill: none; stroke-dasharray: 2.59,1.12; stroke-dashoffset: 0; stroke: #000000; stroke-width: 0.7"/>
   </g>
   <g id="line2d_66">
    <path d="M 182.223408 285.931031 
L 258.745393 285.931031 
" clip-path="url(#p4bd0202f84)" style="fill: none; stroke-dasharray: 2.59,1.12; stroke-dashoffset: 0; stroke: #000000; stroke-width: 0.7"/>
   </g>
   <g id="line2d_67">
    <path d="M 182.223408 195.937896 
L 258.745393 195.937896 
" clip-path="url(#p4bd0202f84)" style="fill: none; stroke-dasharray: 2.59,1.12; stroke-dashoffset: 0; stroke: #000000; stroke-width: 0.7"/>
   </g>
   <g id="line2d_68">
    <path d="M 182.223408 134.731556 
L 258.745393 134.731556 
" clip-path="url(#p4bd0202f84)" style="fill: none; stroke-dasharray: 2.59,1.12; stroke-dashoffset: 0; stroke: #000000; stroke-width: 0.7"/>
   </g>
   <g id="line2d_69">
    <path d="M 182.223408 73.525216 
L 258.745393 73.525216 
" clip-path="url(#p4bd0202f84)" style="fill: none; stroke-dasharray: 2.59,1.12; stroke-dashoffset: 0; stroke: #000000; stroke-width: 0.7"/>
   </g>
   <g id="line2d_70">
    <path d="M 127.564846 306.901908 
L 204.086832 306.901908 
" clip-path="url(#p4bd0202f84)" style="fill: none; stroke-dasharray: 2.59,1.12; stroke-dashoffset: 0; stroke: #000000; stroke-width: 0.7"/>
   </g>
   <g id="line2d_71">
    <path d="M 127.564846 288.085362 
L 204.086832 288.085362 
" clip-path="url(#p4bd0202f84)" style="fill: none; stroke-dasharray: 2.59,1.12; stroke-dashoffset: 0; stroke: #000000; stroke-width: 0.7"/>
   </g>
   <g id="line2d_72">
    <path d="M 127.564846 204.152865 
L 204.086832 204.152865 
" clip-path="url(#p4bd0202f84)" style="fill: none; stroke-dasharray: 2.59,1.12; stroke-dashoffset: 0; stroke: #000000; stroke-width: 0.7"/>
   </g>
   <g id="line2d_73">
    <path d="M 127.564846 142.282172 
L 204.086832 142.282172 
" clip-path="url(#p4bd0202f84)" style="fill: none; stroke-dasharray: 2.59,1.12; stroke-dashoffset: 0; stroke: #000000; stroke-width: 0.7"/>
   </g>
   <g id="line2d_74">
    <path d="M 127.564846 80.391664 
L 204.086832 80.391664 
" clip-path="url(#p4bd0202f84)" style="fill: none; stroke-dasharray: 2.59,1.12; stroke-dashoffset: 0; stroke: #000000; stroke-width: 0.7"/>
   </g>
   <g id="line2d_75">
    <path d="M 72.906285 306.901908 
L 149.428271 306.901908 
" clip-path="url(#p4bd0202f84)" style="fill: none; stroke-dasharray: 2.59,1.12; stroke-dashoffset: 0; stroke: #000000; stroke-width: 0.7"/>
   </g>
   <g id="line2d_76">
    <path d="M 72.906285 288.085362 
L 149.428271 288.085362 
" clip-path="url(#p4bd0202f84)" style="fill: none; stroke-dasharray: 2.59,1.12; stroke-dashoffset: 0; stroke: #000000; stroke-width: 0.7"/>
   </g>
   <g id="line2d_77">
    <path d="M 72.906285 204.152865 
L 149.428271 204.152865 
" clip-path="url(#p4bd0202f84)" style="fill: none; stroke-dasharray: 2.59,1.12; stroke-dashoffset: 0; stroke: #000000; stroke-width: 0.7"/>
   </g>
   <g id="line2d_78">
    <path d="M 72.906285 142.282172 
L 149.428271 142.282172 
" clip-path="url(#p4bd0202f84)" style="fill: none; stroke-dasharray: 2.59,1.12; stroke-dashoffset: 0; stroke: #000000; stroke-width: 0.7"/>
   </g>
   <g id="line2d_79">
    <path d="M 72.906285 80.391664 
L 149.428271 80.391664 
" clip-path="url(#p4bd0202f84)" style="fill: none; stroke-dasharray: 2.59,1.12; stroke-dashoffset: 0; stroke: #000000; stroke-width: 0.7"/>
   </g>
   <g id="patch_14">
    <path d="M 40.111149 320.662326 
L 40.111149 7.2 
" style="fill: none; stroke: #000000; stroke-width: 0.8; stroke-linejoin: miter; stroke-linecap: square"/>
   </g>
   <g id="patch_15">
    <path d="M 269.677106 320.662326 
L 269.677106 7.2 
" style="fill: none; stroke: #000000; stroke-width: 0.8; stroke-linejoin: miter; stroke-linecap: square"/>
   </g>
   <g id="patch_16">
    <path d="M 40.111149 320.662326 
L 269.677106 320.662326 
" style="fill: none; stroke: #000000; stroke-width: 0.8; stroke-linejoin: miter; stroke-linecap: square"/>
   </g>
   <g id="patch_17">
    <path d="M 40.111149 7.2 
L 269.677106 7.2 
" style="fill: none; stroke: #000000; stroke-width: 0.8; stroke-linejoin: miter; stroke-linecap: square"/>
   </g>
   <g id="patch_18">
    <path d="M 198.620976 296.031177 
L 204.086832 296.031177 
L 204.086832 296.031177 
L 198.620976 296.031177 
z
" clip-path="url(#p4bd0202f84)" style="fill: #c6dbef; opacity: 0.7; stroke: #0000ff; stroke-width: 0.1; stroke-linejoin: miter"/>
   </g>
   <g id="patch_19">
    <path d="M 143.962415 285.90351 
L 162.181935 285.90351 
L 162.181935 248.475172 
L 143.962415 248.475172 
z
" clip-path="url(#p4bd0202f84)" style="fill: #fcc5c0; opacity: 0.7; stroke: #ffc0cb; stroke-width: 0.1; stroke-linejoin: miter"/>
   </g>
   <g id="patch_20">
    <path d="M 89.303854 223.859711 
L 107.523374 223.859711 
L 107.523374 223.859711 
L 89.303854 223.859711 
z
" clip-path="url(#p4bd0202f84)" style="fill: #fcc5c0; opacity: 0.7; stroke: #ffc0cb; stroke-width: 0.1; stroke-linejoin: miter"/>
   </g>
   <g id="LineCollection_3">
    <path d="M 198.620976 97.605947 
L 242.347825 97.605947 
" clip-path="url(#p4bd0202f84)" style="fill: none; stroke: #00ffff; stroke-width: 1.142857"/>
   </g>
   <g id="text_22">
    <!-- $\mathrm{^3H\text{-}p}$ -->
    <g transform="translate(258.421391 304.175088) rotate(-90) scale(0.06 -0.06)">
     <defs>
      <path id="CMR17-48" d="M 3590 3905 
C 3590 4192 3661 4192 4102 4192 
L 4102 4352 
C 3917 4352 3578 4352 3379 4352 
C 3181 4352 2842 4352 2656 4352 
L 2656 4192 
C 3098 4192 3168 4192 3168 3904 
L 3168 2341 
L 1261 2341 
L 1261 3904 
C 1261 4192 1331 4192 1773 4192 
L 1773 4352 
C 1587 4352 1248 4352 1050 4352 
C 851 4352 512 4352 326 4352 
L 326 4192 
C 768 4192 838 4192 838 3905 
L 838 447 
C 838 160 768 160 326 160 
L 326 0 
C 512 0 851 0 1050 0 
C 1248 0 1587 0 1773 0 
L 1773 160 
C 1331 160 1261 160 1261 446 
L 1261 2176 
L 3168 2176 
L 3168 446 
C 3168 160 3098 160 2656 160 
L 2656 0 
C 2842 0 3181 0 3379 0 
C 3578 0 3917 0 4102 0 
L 4102 160 
C 3661 160 3590 160 3590 447 
L 3590 3905 
z
" transform="scale(0.015625)"/>
     </defs>
     <use xlink:href="#CMR17-33" transform="translate(0 36.153639) scale(0.697382)"/>
     <use xlink:href="#CMR17-48" transform="translate(32.481314 0) scale(0.996264)"/>
     <use xlink:href="#NimbusSanL-Regu-2d" transform="translate(101.553744 0) scale(0.996264)"/>
     <use xlink:href="#CMR17-70" transform="translate(134.728974 0) scale(0.996264)"/>
    </g>
   </g>
   <g id="text_23">
    <!-- $\mathrm{^3He\text{-}n}$ -->
    <g transform="translate(257.259077 283.20421) rotate(-90) scale(0.06 -0.06)">
     <use xlink:href="#CMR17-33" transform="translate(0 36.153639) scale(0.697382)"/>
     <use xlink:href="#CMR17-48" transform="translate(32.481314 0) scale(0.996264)"/>
     <use xlink:href="#CMR17-65" transform="translate(101.553744 0) scale(0.996264)"/>
     <use xlink:href="#NimbusSanL-Regu-2d" transform="translate(142.039404 0) scale(0.996264)"/>
     <use xlink:href="#CMR17-6e" transform="translate(175.214634 0) scale(0.996264)"/>
    </g>
   </g>
   <g id="text_24">
    <!-- $\mathrm{D\text{-}D}$ -->
    <g transform="translate(257.072673 193.211075) rotate(-90) scale(0.06 -0.06)">
     <defs>
      <path id="CMR17-44" d="M 333 4352 
L 333 4186 
C 774 4186 845 4186 845 3900 
L 845 452 
C 845 166 774 166 333 166 
L 333 0 
L 2368 0 
C 3398 0 4224 943 4224 2141 
C 4224 3346 3411 4352 2368 4352 
L 333 4352 
z
M 1523 166 
C 1267 166 1254 197 1254 414 
L 1254 3938 
C 1254 4155 1267 4186 1523 4186 
L 2240 4186 
C 2771 4186 3750 3874 3750 2141 
C 3750 1242 3488 879 3366 707 
C 3213 510 2848 166 2240 166 
L 1523 166 
z
" transform="scale(0.015625)"/>
     </defs>
     <use xlink:href="#CMR17-44" transform="scale(0.996264)"/>
     <use xlink:href="#NimbusSanL-Regu-2d" transform="translate(70.393556 0) scale(0.996264)"/>
     <use xlink:href="#CMR17-44" transform="translate(103.568786 0) scale(0.996264)"/>
    </g>
   </g>
   <g id="text_25">
    <!-- $\mathrm{D\text{-}np}$ -->
    <g transform="translate(257.072673 132.004735) rotate(-90) scale(0.06 -0.06)">
     <use xlink:href="#CMR17-44" transform="scale(0.996264)"/>
     <use xlink:href="#NimbusSanL-Regu-2d" transform="translate(70.393556 0) scale(0.996264)"/>
     <use xlink:href="#CMR17-6e" transform="translate(103.568786 0) scale(0.996264)"/>
     <use xlink:href="#CMR17-70" transform="translate(154.464155 0) scale(0.996264)"/>
    </g>
   </g>
   <g id="text_26">
    <!-- $\mathrm{2n2p}$ -->
    <g transform="translate(257.072673 70.798395) rotate(-90) scale(0.06 -0.06)">
     <use xlink:href="#CMR17-32" transform="scale(0.996264)"/>
     <use xlink:href="#CMR17-6e" transform="translate(45.690477 0) scale(0.996264)"/>
     <use xlink:href="#CMR17-32" transform="translate(96.585847 0) scale(0.996264)"/>
     <use xlink:href="#CMR17-70" transform="translate(142.276324 0) scale(0.996264)"/>
    </g>
   </g>
   <g id="LineCollection_4">
    <path d="M 198.620976 210.166168 
L 242.347825 210.166168 
" clip-path="url(#p4bd0202f84)" style="fill: none; stroke: #ffc0cb; stroke-width: 1.114286"/>
   </g>
   <g id="LineCollection_5">
    <path d="M 198.620976 70.910736 
L 242.347825 70.910736 
" clip-path="url(#p4bd0202f84)" style="fill: none; stroke: #8b4513; stroke-width: 1.085714"/>
   </g>
   <g id="legend_1">
    <g id="line2d_80">
     <path d="M 49.111149 20.44771 
L 59.111149 20.44771 
L 69.111149 20.44771 
" style="fill: none; stroke: #808080; stroke-linecap: square"/>
    </g>
    <g id="text_27">
     <!-- $ 0^{-}; 0$ -->
     <g transform="translate(77.111149 23.94771) scale(0.1 -0.1)">
      <defs>
       <path id="CMSY10-0" d="M 4218 1472 
C 4326 1472 4442 1472 4442 1600 
C 4442 1728 4326 1728 4218 1728 
L 755 1728 
C 646 1728 531 1728 531 1600 
C 531 1472 646 1472 755 1472 
L 4218 1472 
z
" transform="scale(0.015625)"/>
       <path id="CMR17-3b" d="M 1062 2491 
C 1062 2650 934 2752 800 2752 
C 672 2752 538 2650 538 2491 
C 538 2332 666 2230 800 2230 
C 928 2230 1062 2332 1062 2491 
z
M 979 -71 
C 979 -483 851 -817 634 -1126 
C 595 -1170 595 -1183 595 -1190 
C 595 -1222 621 -1248 646 -1248 
C 678 -1248 1082 -805 1082 -61 
C 1082 189 1062 522 800 522 
C 659 522 538 427 538 261 
C 538 96 659 0 800 0 
C 864 0 934 19 979 64 
L 979 -71 
z
" transform="scale(0.015625)"/>
      </defs>
      <use xlink:href="#CMR17-30" transform="scale(0.996264)"/>
      <use xlink:href="#CMSY10-0" transform="translate(45.690477 36.153639) scale(0.697382)"/>
      <use xlink:href="#CMR17-3b" transform="translate(100.429602 0) scale(0.996264)"/>
      <use xlink:href="#CMR17-30" transform="translate(141.905066 0) scale(0.996264)"/>
     </g>
    </g>
    <g id="line2d_81">
     <path d="M 49.111149 35.317406 
L 59.111149 35.317406 
L 69.111149 35.317406 
" style="fill: none; stroke: #800080; stroke-linecap: square"/>
    </g>
    <g id="text_28">
     <!-- $ 0^{-}; 1$ -->
     <g transform="translate(77.111149 38.817406) scale(0.1 -0.1)">
      <use xlink:href="#CMR17-30" transform="scale(0.996264)"/>
      <use xlink:href="#CMSY10-0" transform="translate(45.690477 36.153639) scale(0.697382)"/>
      <use xlink:href="#CMR17-3b" transform="translate(100.429602 0) scale(0.996264)"/>
      <use xlink:href="#CMR17-31" transform="translate(141.905066 0) scale(0.996264)"/>
     </g>
    </g>
    <g id="line2d_82">
     <path d="M 49.111149 50.187103 
L 59.111149 50.187103 
L 69.111149 50.187103 
" style="fill: none; stroke: #0000ff; stroke-linecap: square"/>
    </g>
    <g id="text_29">
     <!-- $ 0^{+}; 0$ -->
     <g transform="translate(77.111149 53.687103) scale(0.1 -0.1)">
      <defs>
       <path id="CMR17-2b" d="M 2413 1472 
L 4109 1472 
C 4198 1472 4307 1472 4307 1580 
C 4307 1695 4205 1695 4109 1695 
L 2413 1695 
L 2413 3386 
C 2413 3475 2413 3584 2304 3584 
C 2189 3584 2189 3482 2189 3386 
L 2189 1695 
L 493 1695 
C 403 1695 294 1695 294 1587 
C 294 1472 397 1472 493 1472 
L 2189 1472 
L 2189 -218 
C 2189 -307 2189 -416 2298 -416 
C 2413 -416 2413 -314 2413 -218 
L 2413 1472 
z
" transform="scale(0.015625)"/>
      </defs>
      <use xlink:href="#CMR17-30" transform="scale(0.996264)"/>
      <use xlink:href="#CMR17-2b" transform="translate(45.690477 36.153639) scale(0.697382)"/>
      <use xlink:href="#CMR17-3b" transform="translate(96.388741 0) scale(0.996264)"/>
      <use xlink:href="#CMR17-30" transform="translate(137.864204 0) scale(0.996264)"/>
     </g>
    </g>
    <g id="line2d_83">
     <path d="M 49.111149 65.056799 
L 59.111149 65.056799 
L 69.111149 65.056799 
" style="fill: none; stroke: #008000; stroke-linecap: square"/>
    </g>
    <g id="text_30">
     <!-- $ 1^{-}; 0$ -->
     <g transform="translate(77.111149 68.556799) scale(0.1 -0.1)">
      <use xlink:href="#CMR17-31" transform="scale(0.996264)"/>
      <use xlink:href="#CMSY10-0" transform="translate(45.690477 36.153639) scale(0.697382)"/>
      <use xlink:href="#CMR17-3b" transform="translate(100.429602 0) scale(0.996264)"/>
      <use xlink:href="#CMR17-30" transform="translate(141.905066 0) scale(0.996264)"/>
     </g>
    </g>
    <g id="line2d_84">
     <path d="M 49.111149 79.926496 
L 59.111149 79.926496 
L 69.111149 79.926496 
" style="fill: none; stroke: #ffa500; stroke-linecap: square"/>
    </g>
    <g id="text_31">
     <!-- $ 1^{-}; 1$ -->
     <g transform="translate(77.111149 83.426496) scale(0.1 -0.1)">
      <use xlink:href="#CMR17-31" transform="scale(0.996264)"/>
      <use xlink:href="#CMSY10-0" transform="translate(45.690477 36.153639) scale(0.697382)"/>
      <use xlink:href="#CMR17-3b" transform="translate(100.429602 0) scale(0.996264)"/>
      <use xlink:href="#CMR17-31" transform="translate(141.905066 0) scale(0.996264)"/>
     </g>
    </g>
    <g id="line2d_85">
     <path d="M 118.226424 20.44771 
L 128.226424 20.44771 
L 138.226424 20.44771 
" style="fill: none; stroke: #ff0000; stroke-linecap: square"/>
    </g>
    <g id="text_32">
     <!-- $ 1^{+}; 0$ -->
     <g transform="translate(146.226424 23.94771) scale(0.1 -0.1)">
      <use xlink:href="#CMR17-31" transform="scale(0.996264)"/>
      <use xlink:href="#CMR17-2b" transform="translate(45.690477 36.153639) scale(0.697382)"/>
      <use xlink:href="#CMR17-3b" transform="translate(96.388741 0) scale(0.996264)"/>
      <use xlink:href="#CMR17-30" transform="translate(137.864204 0) scale(0.996264)"/>
     </g>
    </g>
    <g id="line2d_86">
     <path d="M 118.226424 35.317406 
L 128.226424 35.317406 
L 138.226424 35.317406 
" style="fill: none; stroke: #8b4513; stroke-linecap: square"/>
    </g>
    <g id="text_33">
     <!-- $ 2^{-}; 0$ -->
     <g transform="translate(146.226424 38.817406) scale(0.1 -0.1)">
      <use xlink:href="#CMR17-32" transform="scale(0.996264)"/>
      <use xlink:href="#CMSY10-0" transform="translate(45.690477 36.153639) scale(0.697382)"/>
      <use xlink:href="#CMR17-3b" transform="translate(100.429602 0) scale(0.996264)"/>
      <use xlink:href="#CMR17-30" transform="translate(141.905066 0) scale(0.996264)"/>
     </g>
    </g>
    <g id="line2d_87">
     <path d="M 118.226424 50.187103 
L 128.226424 50.187103 
L 138.226424 50.187103 
" style="fill: none; stroke: #ffc0cb; stroke-linecap: square"/>
    </g>
    <g id="text_34">
     <!-- $ 2^{-}; 1$ -->
     <g transform="translate(146.226424 53.687103) scale(0.1 -0.1)">
      <use xlink:href="#CMR17-32" transform="scale(0.996264)"/>
      <use xlink:href="#CMSY10-0" transform="translate(45.690477 36.153639) scale(0.697382)"/>
      <use xlink:href="#CMR17-3b" transform="translate(100.429602 0) scale(0.996264)"/>
      <use xlink:href="#CMR17-31" transform="translate(141.905066 0) scale(0.996264)"/>
     </g>
    </g>
    <g id="line2d_88">
     <path d="M 118.226424 65.056799 
L 128.226424 65.056799 
L 138.226424 65.056799 
" style="fill: none; stroke: #00ffff; stroke-linecap: square"/>
    </g>
    <g id="text_35">
     <!-- $ 2^{+}; 0$ -->
     <g transform="translate(146.226424 68.556799) scale(0.1 -0.1)">
      <use xlink:href="#CMR17-32" transform="scale(0.996264)"/>
      <use xlink:href="#CMR17-2b" transform="translate(45.690477 36.153639) scale(0.697382)"/>
      <use xlink:href="#CMR17-3b" transform="translate(96.388741 0) scale(0.996264)"/>
      <use xlink:href="#CMR17-30" transform="translate(137.864204 0) scale(0.996264)"/>
     </g>
    </g>
   </g>
   <g id="LineCollection_6">
    <path d="M 198.620976 251.172214 
L 242.347825 251.172214 
" clip-path="url(#p4bd0202f84)" style="fill: none; stroke: #8b4513; stroke-width: 1.057143"/>
   </g>
   <g id="LineCollection_7">
    <path d="M 198.620976 73.112403 
L 242.347825 73.112403 
" clip-path="url(#p4bd0202f84)" style="fill: none; stroke: #ff0000; stroke-width: 1.028571"/>
   </g>
   <g id="LineCollection_8">
    <path d="M 198.620976 138.061577 
L 242.347825 138.061577 
" clip-path="url(#p4bd0202f84)" style="fill: none; stroke: #ffa500"/>
   </g>
   <g id="LineCollection_9">
    <path d="M 198.620976 201.634709 
L 242.347825 201.634709 
" clip-path="url(#p4bd0202f84)" style="fill: none; stroke: #ffa500; stroke-width: 0.971429"/>
   </g>
   <g id="LineCollection_10">
    <path d="M 198.620976 71.461153 
L 242.347825 71.461153 
" clip-path="url(#p4bd0202f84)" style="fill: none; stroke: #008000; stroke-width: 0.942857"/>
   </g>
   <g id="LineCollection_11">
    <path d="M 198.620976 184.846999 
L 242.347825 184.846999 
" clip-path="url(#p4bd0202f84)" style="fill: none; stroke: #008000; stroke-width: 0.914286"/>
   </g>
   <g id="LineCollection_12">
    <path d="M 198.620976 296.031177 
L 242.347825 296.031177 
" clip-path="url(#p4bd0202f84)" style="fill: none; stroke: #0000ff; stroke-width: 0.885714"/>
   </g>
   <g id="LineCollection_13">
    <path d="M 143.962415 267.189341 
L 187.689264 267.189341 
" clip-path="url(#p4bd0202f84)" style="fill: none; stroke: #ffc0cb; stroke-width: 0.885714"/>
   </g>
   <g id="LineCollection_14">
    <path d="M 89.303854 223.859711 
L 133.030703 223.859711 
" clip-path="url(#p4bd0202f84)" style="fill: none; stroke: #ffc0cb; stroke-width: 0.885714"/>
   </g>
   <g id="LineCollection_15">
    <path d="M 198.620976 156.500537 
L 242.347825 156.500537 
" clip-path="url(#p4bd0202f84)" style="fill: none; stroke: #800080; stroke-width: 0.857143"/>
   </g>
   <g id="LineCollection_16">
    <path d="M 143.962415 253.128946 
L 187.689264 253.128946 
" clip-path="url(#p4bd0202f84)" style="fill: none; stroke: #ffa500; stroke-width: 0.857143"/>
   </g>
   <g id="LineCollection_17">
    <path d="M 89.303854 212.031806 
L 133.030703 212.031806 
" clip-path="url(#p4bd0202f84)" style="fill: none; stroke: #ffa500; stroke-width: 0.857143"/>
   </g>
   <g id="LineCollection_18">
    <path d="M 198.620976 64.030527 
L 242.347825 64.030527 
" clip-path="url(#p4bd0202f84)" style="fill: none; stroke: #808080; stroke-width: 0.828571"/>
   </g>
   <g id="LineCollection_19">
    <path d="M 143.962415 268.48282 
L 187.689264 268.48282 
" clip-path="url(#p4bd0202f84)" style="fill: none; stroke: #ffa500; stroke-width: 0.828571"/>
   </g>
   <g id="LineCollection_20">
    <path d="M 89.303854 226.170085 
L 133.030703 226.170085 
" clip-path="url(#p4bd0202f84)" style="fill: none; stroke: #ffa500; stroke-width: 0.828571"/>
   </g>
   <g id="LineCollection_21">
    <path d="M 198.620976 274.014508 
L 242.347825 274.014508 
" clip-path="url(#p4bd0202f84)" style="fill: none; stroke: #808080; stroke-width: 0.8"/>
   </g>
   <g id="LineCollection_22">
    <path d="M 143.962415 231.728468 
L 187.689264 231.728468 
" clip-path="url(#p4bd0202f84)" style="fill: none; stroke: #800080; stroke-width: 0.8"/>
   </g>
   <g id="LineCollection_23">
    <path d="M 89.303854 214.103299 
L 133.030703 214.103299 
" clip-path="url(#p4bd0202f84)" style="fill: none; stroke: #800080; stroke-width: 0.8"/>
   </g>
   <g id="patch_21">
    <path d="M 198.620976 184.846999 
L 217.751472 184.846999 
L 217.751472 184.846999 
L 198.620976 184.846999 
z
" clip-path="url(#p4bd0202f84)" style="fill: #dbf1d6; opacity: 0.7; stroke: #008000; stroke-width: 0.1; stroke-linejoin: miter"/>
   </g>
   <g id="patch_22">
    <path d="M 143.962415 306.901908 
L 143.962415 306.901908 
L 143.962415 306.901908 
L 143.962415 306.901908 
z
" clip-path="url(#p4bd0202f84)" style="opacity: 0.7; stroke: #000000; stroke-width: 0.1; stroke-linejoin: miter"/>
   </g>
   <g id="patch_23">
    <path d="M 89.303854 306.901908 
L 89.303854 306.901908 
L 89.303854 306.901908 
L 89.303854 306.901908 
z
" clip-path="url(#p4bd0202f84)" style="opacity: 0.7; stroke: #000000; stroke-width: 0.1; stroke-linejoin: miter"/>
   </g>
   <g id="patch_24">
    <path d="M 198.620976 71.461153 
L 231.416113 71.461153 
L 231.416113 71.461153 
L 198.620976 71.461153 
z
" clip-path="url(#p4bd0202f84)" style="fill: #73c476; opacity: 0.7; stroke: #008000; stroke-width: 0.1; stroke-linejoin: miter"/>
   </g>
   <g id="patch_25">
    <path d="M 143.962415 306.901908 
L 143.962415 306.901908 
L 143.962415 306.901908 
L 143.962415 306.901908 
z
" clip-path="url(#p4bd0202f84)" style="opacity: 0.7; stroke: #000000; stroke-width: 0.1; stroke-linejoin: miter"/>
   </g>
   <g id="patch_26">
    <path d="M 89.303854 306.901908 
L 89.303854 306.901908 
L 89.303854 306.901908 
L 89.303854 306.901908 
z
" clip-path="url(#p4bd0202f84)" style="opacity: 0.7; stroke: #000000; stroke-width: 0.1; stroke-linejoin: miter"/>
   </g>
   <g id="patch_27">
    <path d="M 198.620976 201.634709 
L 215.018544 201.634709 
L 215.018544 201.634709 
L 198.620976 201.634709 
z
" clip-path="url(#p4bd0202f84)" style="fill: #fedfc0; opacity: 0.7; stroke: #ffa500; stroke-width: 0.1; stroke-linejoin: miter"/>
   </g>
   <g id="patch_28">
    <path d="M 143.962415 306.901908 
L 143.962415 306.901908 
L 143.962415 306.901908 
L 143.962415 306.901908 
z
" clip-path="url(#p4bd0202f84)" style="opacity: 0.7; stroke: #000000; stroke-width: 0.1; stroke-linejoin: miter"/>
   </g>
   <g id="patch_29">
    <path d="M 89.303854 306.901908 
L 89.303854 306.901908 
L 89.303854 306.901908 
L 89.303854 306.901908 
z
" clip-path="url(#p4bd0202f84)" style="opacity: 0.7; stroke: #000000; stroke-width: 0.1; stroke-linejoin: miter"/>
   </g>
   <g id="patch_30">
    <path d="M 198.620976 138.061577 
L 223.217329 138.061577 
L 223.217329 138.061577 
L 198.620976 138.061577 
z
" clip-path="url(#p4bd0202f84)" style="fill: #fd8c3b; opacity: 0.7; stroke: #ffa500; stroke-width: 0.1; stroke-linejoin: miter"/>
   </g>
   <g id="patch_31">
    <path d="M 143.962415 306.901908 
L 143.962415 306.901908 
L 143.962415 306.901908 
L 143.962415 306.901908 
z
" clip-path="url(#p4bd0202f84)" style="opacity: 0.7; stroke: #000000; stroke-width: 0.1; stroke-linejoin: miter"/>
   </g>
   <g id="patch_32">
    <path d="M 89.303854 306.901908 
L 89.303854 306.901908 
L 89.303854 306.901908 
L 89.303854 306.901908 
z
" clip-path="url(#p4bd0202f84)" style="opacity: 0.7; stroke: #000000; stroke-width: 0.1; stroke-linejoin: miter"/>
   </g>
   <g id="patch_33">
    <path d="M 198.620976 73.112403 
L 228.683185 73.112403 
L 228.683185 73.112403 
L 198.620976 73.112403 
z
" clip-path="url(#p4bd0202f84)" style="fill: #fcbba1; opacity: 0.7; stroke: #ff0000; stroke-width: 0.1; stroke-linejoin: miter"/>
   </g>
   <g id="patch_34">
    <path d="M 143.962415 306.901908 
L 143.962415 306.901908 
L 143.962415 306.901908 
L 143.962415 306.901908 
z
" clip-path="url(#p4bd0202f84)" style="opacity: 0.7; stroke: #000000; stroke-width: 0.1; stroke-linejoin: miter"/>
   </g>
   <g id="patch_35">
    <path d="M 89.303854 306.901908 
L 89.303854 306.901908 
L 89.303854 306.901908 
L 89.303854 306.901908 
z
" clip-path="url(#p4bd0202f84)" style="opacity: 0.7; stroke: #000000; stroke-width: 0.1; stroke-linejoin: miter"/>
   </g>
   <g id="patch_36">
    <path d="M 198.620976 251.172214 
L 209.552688 251.172214 
L 209.552688 251.172214 
L 198.620976 251.172214 
z
" clip-path="url(#p4bd0202f84)" style="fill: #fff1ae; opacity: 0.7; stroke: #8b4513; stroke-width: 0.1; stroke-linejoin: miter"/>
   </g>
   <g id="patch_37">
    <path d="M 143.962415 306.901908 
L 143.962415 306.901908 
L 143.962415 306.901908 
L 143.962415 306.901908 
z
" clip-path="url(#p4bd0202f84)" style="opacity: 0.7; stroke: #000000; stroke-width: 0.1; stroke-linejoin: miter"/>
   </g>
   <g id="patch_38">
    <path d="M 89.303854 306.901908 
L 89.303854 306.901908 
L 89.303854 306.901908 
L 89.303854 306.901908 
z
" clip-path="url(#p4bd0202f84)" style="opacity: 0.7; stroke: #000000; stroke-width: 0.1; stroke-linejoin: miter"/>
   </g>
   <g id="patch_39">
    <path d="M 198.620976 70.910736 
L 234.149041 70.910736 
L 234.149041 70.910736 
L 198.620976 70.910736 
z
" clip-path="url(#p4bd0202f84)" style="fill: #fe9829; opacity: 0.7; stroke: #8b4513; stroke-width: 0.1; stroke-linejoin: miter"/>
   </g>
   <g id="patch_40">
    <path d="M 143.962415 306.901908 
L 143.962415 306.901908 
L 143.962415 306.901908 
L 143.962415 306.901908 
z
" clip-path="url(#p4bd0202f84)" style="opacity: 0.7; stroke: #000000; stroke-width: 0.1; stroke-linejoin: miter"/>
   </g>
   <g id="patch_41">
    <path d="M 89.303854 306.901908 
L 89.303854 306.901908 
L 89.303854 306.901908 
L 89.303854 306.901908 
z
" clip-path="url(#p4bd0202f84)" style="opacity: 0.7; stroke: #000000; stroke-width: 0.1; stroke-linejoin: miter"/>
   </g>
   <g id="patch_42">
    <path d="M 198.620976 210.166168 
L 212.285616 210.166168 
L 212.285616 210.166168 
L 198.620976 210.166168 
z
" clip-path="url(#p4bd0202f84)" style="fill: #fcc5c0; opacity: 0.7; stroke: #ffc0cb; stroke-width: 0.1; stroke-linejoin: miter"/>
   </g>
   <g id="patch_43">
    <path d="M 143.962415 306.901908 
L 143.962415 306.901908 
L 143.962415 306.901908 
L 143.962415 306.901908 
z
" clip-path="url(#p4bd0202f84)" style="opacity: 0.7; stroke: #000000; stroke-width: 0.1; stroke-linejoin: miter"/>
   </g>
   <g id="patch_44">
    <path d="M 89.303854 306.901908 
L 89.303854 306.901908 
L 89.303854 306.901908 
L 89.303854 306.901908 
z
" clip-path="url(#p4bd0202f84)" style="opacity: 0.7; stroke: #000000; stroke-width: 0.1; stroke-linejoin: miter"/>
   </g>
   <g id="patch_45">
    <path d="M 198.620976 97.605947 
L 225.950257 97.605947 
L 225.950257 97.605947 
L 198.620976 97.605947 
z
" clip-path="url(#p4bd0202f84)" style="fill: #e5f5f9; opacity: 0.7; stroke: #00ffff; stroke-width: 0.1; stroke-linejoin: miter"/>
   </g>
   <g id="patch_46">
    <path d="M 143.962415 306.901908 
L 143.962415 306.901908 
L 143.962415 306.901908 
L 143.962415 306.901908 
z
" clip-path="url(#p4bd0202f84)" style="opacity: 0.7; stroke: #000000; stroke-width: 0.1; stroke-linejoin: miter"/>
   </g>
   <g id="patch_47">
    <path d="M 89.303854 306.901908 
L 89.303854 306.901908 
L 89.303854 306.901908 
L 89.303854 306.901908 
z
" clip-path="url(#p4bd0202f84)" style="opacity: 0.7; stroke: #000000; stroke-width: 0.1; stroke-linejoin: miter"/>
   </g>
   <g id="patch_48">
    <path d="M 198.620976 63.204902 
L 239.614897 63.204902 
L 239.614897 63.204902 
L 198.620976 63.204902 
z
" clip-path="url(#p4bd0202f84)" style="fill: #98d8c9; opacity: 0.7; stroke: #00ffff; stroke-width: 0.1; stroke-linejoin: miter"/>
   </g>
   <g id="patch_49">
    <path d="M 143.962415 306.901908 
L 143.962415 306.901908 
L 143.962415 306.901908 
L 143.962415 306.901908 
z
" clip-path="url(#p4bd0202f84)" style="opacity: 0.7; stroke: #000000; stroke-width: 0.1; stroke-linejoin: miter"/>
   </g>
   <g id="patch_50">
    <path d="M 89.303854 306.901908 
L 89.303854 306.901908 
L 89.303854 306.901908 
L 89.303854 306.901908 
z
" clip-path="url(#p4bd0202f84)" style="opacity: 0.7; stroke: #000000; stroke-width: 0.1; stroke-linejoin: miter"/>
   </g>
   <g id="patch_51">
    <path d="M 198.620976 7.2 
L 242.347825 7.2 
L 242.347825 7.2 
L 198.620976 7.2 
z
" clip-path="url(#p4bd0202f84)" style="fill: #40ad75; opacity: 0.7; stroke: #00ffff; stroke-width: 0.1; stroke-linejoin: miter"/>
   </g>
   <g id="patch_52">
    <path d="M 143.962415 306.901908 
L 143.962415 306.901908 
L 143.962415 306.901908 
L 143.962415 306.901908 
z
" clip-path="url(#p4bd0202f84)" style="opacity: 0.7; stroke: #000000; stroke-width: 0.1; stroke-linejoin: miter"/>
   </g>
   <g id="patch_53">
    <path d="M 89.303854 306.901908 
L 89.303854 306.901908 
L 89.303854 306.901908 
L 89.303854 306.901908 
z
" clip-path="url(#p4bd0202f84)" style="opacity: 0.7; stroke: #000000; stroke-width: 0.1; stroke-linejoin: miter"/>
   </g>
  </g>
 </g>
 <defs>
  <clipPath id="p4bd0202f84">
   <rect x="40.111149" y="7.2" width="229.565957" height="313.462326"/>
  </clipPath>
 </defs>
</svg>
