<?xml version="1.0" encoding="utf-8" standalone="no"?>
<!DOCTYPE svg PUBLIC "-//W3C//DTD SVG 1.1//EN"
  "http://www.w3.org/Graphics/SVG/1.1/DTD/svg11.dtd">
<svg xmlns:xlink="http://www.w3.org/1999/xlink" width="293.854117pt" height="403.927709pt" viewBox="0 0 293.854117 403.927709" xmlns="http://www.w3.org/2000/svg" version="1.1">
 <metadata>
  <rdf:RDF xmlns:dc="http://purl.org/dc/elements/1.1/" xmlns:cc="http://creativecommons.org/ns#" xmlns:rdf="http://www.w3.org/1999/02/22-rdf-syntax-ns#">
   <cc:Work>
    <dc:type rdf:resource="http://purl.org/dc/dcmitype/StillImage"/>
    <dc:date>2025-01-23T15:38:16.434182</dc:date>
    <dc:format>image/svg+xml</dc:format>
    <dc:creator>
     <cc:Agent>
      <dc:title>Matplotlib v3.8.0, https://matplotlib.org/</dc:title>
     </cc:Agent>
    </dc:creator>
   </cc:Work>
  </rdf:RDF>
 </metadata>
 <defs>
  <style type="text/css">*{stroke-linejoin: round; stroke-linecap: butt}</style>
 </defs>
 <g id="figure_1">
  <g id="patch_1">
   <path d="M 0 403.927709 
L 293.854117 403.927709 
L 293.854117 0 
L 0 0 
L 0 403.927709 
z
" style="fill: none"/>
  </g>
  <g id="axes_1">
   <g id="patch_2">
    <path d="M 40.111149 346.727539 
L 247.889978 346.727539 
L 247.889978 7.2 
L 40.111149 7.2 
L 40.111149 346.727539 
z
" style="fill: none"/>
   </g>
   <g id="patch_3">
    <path d="M 183.577483 193.457414 
L 203.365943 193.457414 
L 203.365943 171.512513 
L 183.577483 171.512513 
z
" clip-path="url(#p19092033d7)" style="fill: #dadaeb; opacity: 0.7; stroke: #800080; stroke-width: 0.1; stroke-linejoin: miter"/>
   </g>
   <g id="patch_4">
    <path d="M 134.106333 310.485467 
L 139.053448 310.485467 
L 139.053448 316.541268 
L 134.106333 316.541268 
z
" clip-path="url(#p19092033d7)" style="fill: #c6dbef; opacity: 0.7; stroke: #0000ff; stroke-width: 0.1; stroke-linejoin: miter"/>
   </g>
   <g id="patch_5">
    <path d="M 84.635184 319.352308 
L 89.582298 319.352308 
L 89.582298 326.441309 
L 84.635184 326.441309 
z
" clip-path="url(#p19092033d7)" style="fill: #c6dbef; opacity: 0.7; stroke: #0000ff; stroke-width: 0.1; stroke-linejoin: miter"/>
   </g>
   <g id="axes_2">
    <g id="patch_6">
     <path d="M 247.889978 346.727539 
L 247.889978 346.727539 
L 247.889978 7.2 
L 247.889978 7.2 
L 247.889978 346.727539 
z
" style="fill: none"/>
    </g>
    <g id="matplotlib.axis_1"/>
    <g id="matplotlib.axis_2">
     <g id="ytick_1">
      <g id="line2d_1">
       <defs>
        <path id="m8b8162e844" d="M 1.75 0 
L -1.75 -0 
" style="stroke: #000000; stroke-width: 0.8"/>
       </defs>
       <g>
        <use xlink:href="#m8b8162e844" x="247.889978" y="332.960349" style="stroke: #000000; stroke-width: 0.8"/>
       </g>
      </g>
      <g id="text_1">
       <!-- $\mathdefault{0}$ -->
       <g transform="translate(253.139978 337.219341) scale(0.12 -0.12)">
        <defs>
         <path id="CMR17-30" d="M 2688 2025 
C 2688 2416 2682 3080 2413 3591 
C 2176 4039 1798 4198 1466 4198 
C 1158 4198 768 4058 525 3597 
C 269 3118 243 2524 243 2025 
C 243 1661 250 1106 448 619 
C 723 -39 1216 -128 1466 -128 
C 1760 -128 2208 -7 2470 600 
C 2662 1042 2688 1559 2688 2025 
z
M 1466 -26 
C 1056 -26 813 325 723 812 
C 653 1188 653 1738 653 2096 
C 653 2588 653 2997 736 3387 
C 858 3929 1216 4096 1466 4096 
C 1728 4096 2067 3923 2189 3400 
C 2272 3036 2278 2607 2278 2096 
C 2278 1680 2278 1169 2202 792 
C 2067 95 1690 -26 1466 -26 
z
" transform="scale(0.015625)"/>
        </defs>
        <use xlink:href="#CMR17-30" transform="scale(0.996264)"/>
       </g>
      </g>
     </g>
     <g id="ytick_2">
      <g id="line2d_2">
       <g>
        <use xlink:href="#m8b8162e844" x="247.889978" y="277.89159" style="stroke: #000000; stroke-width: 0.8"/>
       </g>
      </g>
      <g id="text_2">
       <!-- $\mathdefault{20}$ -->
       <g transform="translate(253.139978 282.150582) scale(0.12 -0.12)">
        <defs>
         <path id="CMR17-32" d="M 2669 989 
L 2554 989 
C 2490 536 2438 459 2413 420 
C 2381 369 1920 369 1830 369 
L 602 369 
C 832 619 1280 1072 1824 1597 
C 2214 1967 2669 2402 2669 3035 
C 2669 3790 2067 4224 1395 4224 
C 691 4224 262 3604 262 3030 
C 262 2780 448 2748 525 2748 
C 589 2748 781 2787 781 3010 
C 781 3207 614 3264 525 3264 
C 486 3264 448 3258 422 3245 
C 544 3790 915 4058 1306 4058 
C 1862 4058 2227 3617 2227 3035 
C 2227 2479 1901 2000 1536 1584 
L 262 146 
L 262 0 
L 2515 0 
L 2669 989 
z
" transform="scale(0.015625)"/>
        </defs>
        <use xlink:href="#CMR17-32" transform="scale(0.996264)"/>
        <use xlink:href="#CMR17-30" transform="translate(45.690477 0) scale(0.996264)"/>
       </g>
      </g>
     </g>
     <g id="ytick_3">
      <g id="line2d_3">
       <g>
        <use xlink:href="#m8b8162e844" x="247.889978" y="222.82283" style="stroke: #000000; stroke-width: 0.8"/>
       </g>
      </g>
      <g id="text_3">
       <!-- $\mathdefault{40}$ -->
       <g transform="translate(253.139978 227.081822) scale(0.12 -0.12)">
        <defs>
         <path id="CMR17-34" d="M 2150 4122 
C 2150 4256 2144 4256 2029 4256 
L 128 1254 
L 128 1088 
L 1779 1088 
L 1779 457 
C 1779 224 1766 160 1318 160 
L 1197 160 
L 1197 0 
C 1402 0 1747 0 1965 0 
C 2182 0 2528 0 2733 0 
L 2733 160 
L 2611 160 
C 2163 160 2150 224 2150 457 
L 2150 1088 
L 2803 1088 
L 2803 1254 
L 2150 1254 
L 2150 4122 
z
M 1798 3703 
L 1798 1254 
L 256 1254 
L 1798 3703 
z
" transform="scale(0.015625)"/>
        </defs>
        <use xlink:href="#CMR17-34" transform="scale(0.996264)"/>
        <use xlink:href="#CMR17-30" transform="translate(45.690477 0) scale(0.996264)"/>
       </g>
      </g>
     </g>
     <g id="ytick_4">
      <g id="line2d_4">
       <g>
        <use xlink:href="#m8b8162e844" x="247.889978" y="167.75407" style="stroke: #000000; stroke-width: 0.8"/>
       </g>
      </g>
      <g id="text_4">
       <!-- $\mathdefault{60}$ -->
       <g transform="translate(253.139978 172.013062) scale(0.12 -0.12)">
        <defs>
         <path id="CMR17-36" d="M 678 2176 
C 678 3690 1395 4032 1811 4032 
C 1946 4032 2272 4009 2400 3776 
C 2298 3776 2106 3776 2106 3553 
C 2106 3381 2246 3323 2336 3323 
C 2394 3323 2566 3348 2566 3560 
C 2566 3954 2246 4179 1805 4179 
C 1043 4179 243 3390 243 1984 
C 243 253 966 -128 1478 -128 
C 2099 -128 2688 427 2688 1283 
C 2688 2081 2170 2662 1517 2662 
C 1126 2662 838 2407 678 1960 
L 678 2176 
z
M 1478 25 
C 691 25 691 1200 691 1436 
C 691 1896 909 2560 1504 2560 
C 1613 2560 1926 2560 2138 2120 
C 2253 1870 2253 1609 2253 1289 
C 2253 944 2253 690 2118 434 
C 1978 171 1773 25 1478 25 
z
" transform="scale(0.015625)"/>
        </defs>
        <use xlink:href="#CMR17-36" transform="scale(0.996264)"/>
        <use xlink:href="#CMR17-30" transform="translate(45.690477 0) scale(0.996264)"/>
       </g>
      </g>
     </g>
     <g id="ytick_5">
      <g id="line2d_5">
       <g>
        <use xlink:href="#m8b8162e844" x="247.889978" y="112.685311" style="stroke: #000000; stroke-width: 0.8"/>
       </g>
      </g>
      <g id="text_5">
       <!-- $\mathdefault{80}$ -->
       <g transform="translate(253.139978 116.944303) scale(0.12 -0.12)">
        <defs>
         <path id="CMR17-38" d="M 1741 2264 
C 2144 2467 2554 2773 2554 3263 
C 2554 3841 1990 4179 1472 4179 
C 890 4179 378 3759 378 3180 
C 378 3021 416 2747 666 2505 
C 730 2442 998 2251 1171 2130 
C 883 1983 211 1634 211 934 
C 211 279 838 -128 1459 -128 
C 2144 -128 2720 362 2720 1010 
C 2720 1590 2330 1857 2074 2029 
L 1741 2264 
z
M 902 2822 
C 851 2854 595 3051 595 3351 
C 595 3739 998 4032 1459 4032 
C 1965 4032 2336 3676 2336 3262 
C 2336 2669 1670 2331 1638 2331 
C 1632 2331 1626 2331 1574 2370 
L 902 2822 
z
M 2080 1519 
C 2176 1449 2483 1240 2483 851 
C 2483 381 2010 25 1472 25 
C 890 25 448 438 448 940 
C 448 1443 838 1862 1280 2060 
L 2080 1519 
z
" transform="scale(0.015625)"/>
        </defs>
        <use xlink:href="#CMR17-38" transform="scale(0.996264)"/>
        <use xlink:href="#CMR17-30" transform="translate(45.690477 0) scale(0.996264)"/>
       </g>
      </g>
     </g>
     <g id="ytick_6">
      <g id="line2d_6">
       <g>
        <use xlink:href="#m8b8162e844" x="247.889978" y="57.616551" style="stroke: #000000; stroke-width: 0.8"/>
       </g>
      </g>
      <g id="text_6">
       <!-- $\mathdefault{100}$ -->
       <g transform="translate(253.139978 61.875543) scale(0.12 -0.12)">
        <defs>
         <path id="CMR17-31" d="M 1702 4058 
C 1702 4192 1696 4192 1606 4192 
C 1357 3916 979 3827 621 3827 
C 602 3827 570 3827 563 3808 
C 557 3795 557 3782 557 3648 
C 755 3648 1088 3686 1344 3839 
L 1344 461 
C 1344 236 1331 160 781 160 
L 589 160 
L 589 0 
C 896 0 1216 0 1523 0 
C 1830 0 2150 0 2458 0 
L 2458 160 
L 2266 160 
C 1715 160 1702 230 1702 458 
L 1702 4058 
z
" transform="scale(0.015625)"/>
        </defs>
        <use xlink:href="#CMR17-31" transform="scale(0.996264)"/>
        <use xlink:href="#CMR17-30" transform="translate(45.690477 0) scale(0.996264)"/>
        <use xlink:href="#CMR17-30" transform="translate(91.380954 0) scale(0.996264)"/>
       </g>
      </g>
     </g>
     <g id="ytick_7">
      <g id="line2d_7">
       <defs>
        <path id="mae1f42d9aa" d="M 1 0 
L -1 -0 
" style="stroke: #000000; stroke-width: 0.6"/>
       </defs>
       <g>
        <use xlink:href="#mae1f42d9aa" x="247.889978" y="346.727539" style="stroke: #000000; stroke-width: 0.6"/>
       </g>
      </g>
     </g>
     <g id="ytick_8">
      <g id="line2d_8">
       <g>
        <use xlink:href="#mae1f42d9aa" x="247.889978" y="319.193159" style="stroke: #000000; stroke-width: 0.6"/>
       </g>
      </g>
     </g>
     <g id="ytick_9">
      <g id="line2d_9">
       <g>
        <use xlink:href="#mae1f42d9aa" x="247.889978" y="305.425969" style="stroke: #000000; stroke-width: 0.6"/>
       </g>
      </g>
     </g>
     <g id="ytick_10">
      <g id="line2d_10">
       <g>
        <use xlink:href="#mae1f42d9aa" x="247.889978" y="291.658779" style="stroke: #000000; stroke-width: 0.6"/>
       </g>
      </g>
     </g>
     <g id="ytick_11">
      <g id="line2d_11">
       <g>
        <use xlink:href="#mae1f42d9aa" x="247.889978" y="264.1244" style="stroke: #000000; stroke-width: 0.6"/>
       </g>
      </g>
     </g>
     <g id="ytick_12">
      <g id="line2d_12">
       <g>
        <use xlink:href="#mae1f42d9aa" x="247.889978" y="250.35721" style="stroke: #000000; stroke-width: 0.6"/>
       </g>
      </g>
     </g>
     <g id="ytick_13">
      <g id="line2d_13">
       <g>
        <use xlink:href="#mae1f42d9aa" x="247.889978" y="236.59002" style="stroke: #000000; stroke-width: 0.6"/>
       </g>
      </g>
     </g>
     <g id="ytick_14">
      <g id="line2d_14">
       <g>
        <use xlink:href="#mae1f42d9aa" x="247.889978" y="209.05564" style="stroke: #000000; stroke-width: 0.6"/>
       </g>
      </g>
     </g>
     <g id="ytick_15">
      <g id="line2d_15">
       <g>
        <use xlink:href="#mae1f42d9aa" x="247.889978" y="195.28845" style="stroke: #000000; stroke-width: 0.6"/>
       </g>
      </g>
     </g>
     <g id="ytick_16">
      <g id="line2d_16">
       <g>
        <use xlink:href="#mae1f42d9aa" x="247.889978" y="181.52126" style="stroke: #000000; stroke-width: 0.6"/>
       </g>
      </g>
     </g>
     <g id="ytick_17">
      <g id="line2d_17">
       <g>
        <use xlink:href="#mae1f42d9aa" x="247.889978" y="153.98688" style="stroke: #000000; stroke-width: 0.6"/>
       </g>
      </g>
     </g>
     <g id="ytick_18">
      <g id="line2d_18">
       <g>
        <use xlink:href="#mae1f42d9aa" x="247.889978" y="140.21969" style="stroke: #000000; stroke-width: 0.6"/>
       </g>
      </g>
     </g>
     <g id="ytick_19">
      <g id="line2d_19">
       <g>
        <use xlink:href="#mae1f42d9aa" x="247.889978" y="126.4525" style="stroke: #000000; stroke-width: 0.6"/>
       </g>
      </g>
     </g>
     <g id="ytick_20">
      <g id="line2d_20">
       <g>
        <use xlink:href="#mae1f42d9aa" x="247.889978" y="98.918121" style="stroke: #000000; stroke-width: 0.6"/>
       </g>
      </g>
     </g>
     <g id="ytick_21">
      <g id="line2d_21">
       <g>
        <use xlink:href="#mae1f42d9aa" x="247.889978" y="85.150931" style="stroke: #000000; stroke-width: 0.6"/>
       </g>
      </g>
     </g>
     <g id="ytick_22">
      <g id="line2d_22">
       <g>
        <use xlink:href="#mae1f42d9aa" x="247.889978" y="71.383741" style="stroke: #000000; stroke-width: 0.6"/>
       </g>
      </g>
     </g>
     <g id="ytick_23">
      <g id="line2d_23">
       <g>
        <use xlink:href="#mae1f42d9aa" x="247.889978" y="43.849361" style="stroke: #000000; stroke-width: 0.6"/>
       </g>
      </g>
     </g>
     <g id="ytick_24">
      <g id="line2d_24">
       <g>
        <use xlink:href="#mae1f42d9aa" x="247.889978" y="30.082171" style="stroke: #000000; stroke-width: 0.6"/>
       </g>
      </g>
     </g>
     <g id="ytick_25">
      <g id="line2d_25">
       <g>
        <use xlink:href="#mae1f42d9aa" x="247.889978" y="16.314981" style="stroke: #000000; stroke-width: 0.6"/>
       </g>
      </g>
     </g>
     <g id="text_7">
      <!-- $ \Gamma \, [ {\rm MeV}]$ -->
      <g transform="translate(283.665325 197.302219) rotate(-90) scale(0.12 -0.12)">
       <defs>
        <path id="CMR17-0" d="M 3315 4352 
L 326 4352 
L 326 4186 
C 768 4186 838 4186 838 3898 
L 838 448 
C 838 160 768 160 326 160 
L 326 0 
C 512 0 870 0 1069 0 
C 1331 0 1638 0 1901 0 
L 1901 160 
L 1760 160 
C 1274 160 1261 224 1261 455 
L 1261 3936 
C 1261 4154 1274 4186 1530 4186 
L 2234 4186 
C 3206 4186 3258 3738 3354 2938 
L 3469 2938 
L 3315 4352 
z
" transform="scale(0.015625)"/>
        <path id="CMR17-5b" d="M 1504 -1600 
L 1504 -1377 
L 902 -1377 
L 902 4544 
L 1504 4544 
L 1504 4767 
L 678 4767 
L 678 -1600 
L 1504 -1600 
z
" transform="scale(0.015625)"/>
        <path id="CMR17-4d" d="M 1338 4224 
C 1299 4320 1293 4320 1158 4320 
L 339 4320 
L 339 4160 
C 781 4160 851 4160 851 3875 
L 851 610 
C 851 451 851 153 339 153 
L 339 -13 
C 486 0 755 0 915 0 
C 1075 0 1344 0 1491 -13 
L 1491 153 
C 979 153 979 451 979 610 
L 979 4135 
L 986 4135 
L 2490 89 
C 2515 25 2528 -13 2579 -13 
C 2630 -13 2643 25 2669 89 
L 4186 4166 
L 4192 4166 
L 4192 438 
C 4192 153 4122 153 3680 153 
L 3680 -13 
C 3853 0 4198 0 4384 0 
C 4570 0 4922 0 5094 -13 
L 5094 153 
C 4653 153 4582 153 4582 438 
L 4582 3875 
C 4582 4160 4653 4160 5094 4160 
L 5094 4320 
L 4282 4320 
C 4147 4320 4141 4314 4102 4218 
L 2720 502 
L 1338 4224 
z
" transform="scale(0.015625)"/>
        <path id="CMR17-65" d="M 2438 1472 
C 2464 1498 2464 1511 2464 1576 
C 2464 2238 2118 2816 1389 2816 
C 710 2816 173 2169 173 1383 
C 173 551 781 -64 1459 -64 
C 2176 -64 2458 607 2458 740 
C 2458 784 2419 784 2406 784 
C 2362 784 2355 771 2330 696 
C 2189 265 1837 51 1504 51 
C 1229 51 954 203 781 480 
C 582 803 582 1176 582 1472 
L 2438 1472 
z
M 589 1568 
C 634 2505 1126 2714 1382 2714 
C 1818 2714 2112 2297 2118 1568 
L 589 1568 
z
" transform="scale(0.015625)"/>
        <path id="CMR17-56" d="M 3776 3745 
C 3834 3886 3936 4160 4365 4160 
L 4365 4332 
C 4218 4319 4051 4319 3891 4319 
C 3738 4319 3475 4319 3328 4332 
L 3328 4160 
C 3648 4160 3661 3936 3661 3898 
C 3661 3827 3642 3783 3622 3732 
L 2362 446 
L 1043 3886 
C 1024 3931 1011 3963 1011 3994 
C 1011 4160 1267 4160 1402 4160 
L 1402 4319 
C 1197 4319 896 4319 685 4319 
C 518 4319 218 4319 64 4332 
L 64 4160 
C 435 4160 506 4135 582 3931 
L 2106 -26 
C 2138 -115 2144 -128 2214 -128 
C 2285 -128 2291 -115 2323 -26 
L 3776 3745 
z
" transform="scale(0.015625)"/>
        <path id="CMR17-5d" d="M 915 4767 
L 90 4767 
L 90 4544 
L 691 4544 
L 691 -1377 
L 90 -1377 
L 90 -1600 
L 915 -1600 
L 915 4767 
z
" transform="scale(0.015625)"/>
       </defs>
       <use xlink:href="#CMR17-0" transform="scale(0.996264)"/>
       <use xlink:href="#CMR17-5b" transform="translate(73.985813 0) scale(0.996264)"/>
       <use xlink:href="#CMR17-4d" transform="translate(98.856872 0) scale(0.996264)"/>
       <use xlink:href="#CMR17-65" transform="translate(183.543812 0) scale(0.996264)"/>
       <use xlink:href="#CMR17-56" transform="translate(224.029473 0) scale(0.996264)"/>
       <use xlink:href="#CMR17-5d" transform="translate(294.403069 0) scale(0.996264)"/>
      </g>
     </g>
    </g>
    <g id="patch_7">
     <path d="M 247.889978 346.727539 
L 247.889978 7.2 
" style="fill: none; stroke: #000000; stroke-width: 0.8; stroke-linejoin: miter; stroke-linecap: square"/>
    </g>
   </g>
   <g id="patch_8">
    <path d="M 183.577483 102.800468 
L 213.260173 102.800468 
L 213.260173 92.006991 
L 183.577483 92.006991 
z
" clip-path="url(#p19092033d7)" style="fill: #73c476; opacity: 0.7; stroke: #008000; stroke-width: 0.1; stroke-linejoin: miter"/>
   </g>
   <g id="patch_9">
    <path d="M 134.106333 220.125232 
L 173.683253 220.125232 
L 173.683253 232.948102 
L 134.106333 232.948102 
z
" clip-path="url(#p19092033d7)" style="fill: #fd8c3b; opacity: 0.7; stroke: #ffa500; stroke-width: 0.1; stroke-linejoin: miter"/>
   </g>
   <g id="patch_10">
    <path d="M 84.635184 220.74057 
L 124.212103 220.74057 
L 124.212103 234.642348 
L 84.635184 234.642348 
z
" clip-path="url(#p19092033d7)" style="fill: #fd8c3b; opacity: 0.7; stroke: #ffa500; stroke-width: 0.1; stroke-linejoin: miter"/>
   </g>
   <g id="LineCollection_1">
    <path d="M 183.577483 33.110953 
L 223.154403 33.110953 
" clip-path="url(#p19092033d7)" style="fill: none; stroke: #00ffff; stroke-width: 1.2"/>
   </g>
   <g id="matplotlib.axis_3">
    <g id="xtick_1">
     <g id="text_8">
      <!-- $\mathrm{Exp}$ -->
      <g transform="translate(184.850671 361.10433) rotate(-330) scale(0.12 -0.12)">
       <defs>
        <path id="CMR17-45" d="M 3885 1615 
L 3770 1615 
C 3629 676 3546 166 2419 166 
L 1530 166 
C 1274 166 1261 197 1261 414 
L 1261 2176 
L 1862 2176 
C 2464 2176 2522 1960 2522 1430 
L 2637 1430 
L 2637 3081 
L 2522 3081 
C 2522 2557 2464 2342 1862 2342 
L 1261 2342 
L 1261 3913 
C 1261 4128 1274 4160 1530 4160 
L 2406 4160 
C 3398 4160 3514 3769 3603 2929 
L 3718 2929 
L 3565 4325 
L 326 4325 
L 326 4160 
C 768 4160 838 4160 838 3874 
L 838 451 
C 838 166 768 166 326 166 
L 326 0 
L 3654 0 
L 3885 1615 
z
" transform="scale(0.015625)"/>
        <path id="CMR17-78" d="M 1664 1477 
C 1856 1726 2074 2006 2253 2216 
C 2464 2458 2707 2560 2989 2560 
L 2989 2726 
C 2880 2726 2656 2726 2541 2726 
C 2368 2726 2170 2726 2022 2732 
L 2022 2566 
C 2112 2553 2163 2489 2163 2400 
C 2163 2285 2099 2215 2067 2171 
L 1594 1573 
L 1030 2306 
C 973 2376 973 2388 973 2420 
C 973 2497 1037 2560 1146 2560 
L 1146 2732 
C 992 2726 717 2726 557 2726 
C 384 2726 179 2726 38 2732 
L 38 2560 
C 384 2560 461 2534 614 2343 
L 1350 1395 
C 1363 1382 1395 1344 1395 1325 
C 1395 1299 838 619 768 530 
C 480 185 179 160 6 160 
L 6 0 
C 115 0 339 0 454 0 
C 582 0 864 0 979 -6 
L 979 160 
C 941 166 838 179 838 325 
C 838 440 890 510 947 586 
L 1478 1236 
L 2035 512 
C 2086 442 2163 346 2163 301 
C 2163 211 2086 160 1984 160 
L 1984 -6 
C 2138 0 2413 0 2573 0 
C 2746 0 2950 0 3091 -6 
L 3091 160 
C 2771 160 2675 172 2522 370 
L 1664 1477 
z
" transform="scale(0.015625)"/>
        <path id="CMR17-70" d="M 1408 -1063 
C 998 -1063 973 -1037 973 -789 
L 973 402 
C 1158 134 1427 -38 1766 -38 
C 2406 -38 3053 523 3053 1388 
C 3053 2191 2496 2802 1837 2802 
C 1453 2802 1139 2592 960 2338 
L 960 2802 
L 198 2732 
L 198 2567 
C 576 2567 634 2528 634 2223 
L 634 -789 
C 634 -1031 608 -1063 198 -1063 
L 198 -1228 
C 352 -1216 634 -1216 800 -1216 
C 966 -1216 1254 -1216 1408 -1228 
L 1408 -1063 
z
M 973 2012 
C 973 2102 973 2235 1222 2471 
C 1254 2497 1472 2688 1792 2688 
C 2259 2688 2643 2108 2643 1382 
C 2643 656 2234 64 1728 64 
C 1498 64 1248 172 1056 472 
C 973 612 973 650 973 752 
L 973 2012 
z
" transform="scale(0.015625)"/>
       </defs>
       <use xlink:href="#CMR17-45" transform="scale(0.996264)"/>
       <use xlink:href="#CMR17-78" transform="translate(62.586301 0) scale(0.996264)"/>
       <use xlink:href="#CMR17-70" transform="translate(110.879216 0) scale(0.996264)"/>
      </g>
     </g>
    </g>
    <g id="xtick_2">
     <g id="text_9">
      <!-- $\mathrm{NN+3N\text{-}ind}$ -->
      <g transform="translate(135.379521 361.10433) rotate(-330) scale(0.12 -0.12)">
       <defs>
        <path id="CMR17-4e" d="M 1312 4250 
C 1267 4320 1261 4320 1139 4320 
L 326 4320 
L 326 4160 
L 448 4160 
C 704 4160 819 4129 838 4122 
L 838 610 
C 838 451 838 153 326 153 
L 326 -13 
C 474 0 742 0 902 0 
C 1062 0 1331 0 1478 -13 
L 1478 153 
C 966 153 966 451 966 610 
L 966 4033 
C 1011 3995 1011 3982 1056 3919 
L 3430 76 
C 3475 0 3494 0 3526 0 
C 3590 0 3590 19 3590 139 
L 3590 3705 
C 3590 3863 3590 4160 4102 4160 
L 4102 4326 
C 3955 4320 3686 4320 3526 4320 
C 3366 4320 3098 4320 2950 4326 
L 2950 4160 
C 3462 4160 3462 3862 3462 3703 
L 3462 763 
L 1312 4250 
z
" transform="scale(0.015625)"/>
        <path id="CMR17-2b" d="M 2413 1472 
L 4109 1472 
C 4198 1472 4307 1472 4307 1580 
C 4307 1695 4205 1695 4109 1695 
L 2413 1695 
L 2413 3386 
C 2413 3475 2413 3584 2304 3584 
C 2189 3584 2189 3482 2189 3386 
L 2189 1695 
L 493 1695 
C 403 1695 294 1695 294 1587 
C 294 1472 397 1472 493 1472 
L 2189 1472 
L 2189 -218 
C 2189 -307 2189 -416 2298 -416 
C 2413 -416 2413 -314 2413 -218 
L 2413 1472 
z
" transform="scale(0.015625)"/>
        <path id="CMR17-33" d="M 1414 2157 
C 1984 2157 2234 1662 2234 1090 
C 2234 320 1824 25 1453 25 
C 1114 25 563 194 390 693 
C 422 680 454 680 486 680 
C 640 680 755 782 755 948 
C 755 1133 614 1216 486 1216 
C 378 1216 211 1165 211 926 
C 211 335 787 -128 1466 -128 
C 2176 -128 2720 430 2720 1085 
C 2720 1707 2208 2157 1600 2227 
C 2086 2328 2554 2756 2554 3329 
C 2554 3820 2048 4179 1472 4179 
C 890 4179 378 3829 378 3329 
C 378 3110 544 3072 627 3072 
C 762 3072 877 3155 877 3321 
C 877 3486 762 3569 627 3569 
C 602 3569 570 3569 544 3557 
C 730 3959 1235 4032 1459 4032 
C 1683 4032 2106 3925 2106 3320 
C 2106 3143 2080 2828 1862 2550 
C 1670 2304 1453 2304 1242 2284 
C 1210 2284 1062 2269 1037 2269 
C 992 2263 966 2257 966 2208 
C 966 2163 973 2157 1101 2157 
L 1414 2157 
z
" transform="scale(0.015625)"/>
        <path id="NimbusSanL-Regu-2d" d="M 1818 1997 
L 294 1997 
L 294 1536 
L 1818 1536 
L 1818 1997 
z
" transform="scale(0.015625)"/>
        <path id="CMR17-69" d="M 992 3909 
C 992 4049 877 4170 730 4170 
C 589 4170 467 4056 467 3909 
C 467 3769 582 3648 730 3648 
C 870 3648 992 3763 992 3909 
z
M 243 2706 
L 243 2541 
C 602 2541 653 2502 653 2197 
L 653 427 
C 653 184 627 153 218 153 
L 218 -13 
C 371 0 646 0 806 0 
C 960 0 1222 0 1370 -13 
L 1370 153 
C 992 153 979 191 979 420 
L 979 2776 
L 243 2706 
z
" transform="scale(0.015625)"/>
        <path id="CMR17-6e" d="M 2656 1933 
C 2656 2259 2592 2790 1837 2790 
C 1331 2790 1069 2400 973 2144 
L 966 2144 
L 966 2790 
L 211 2720 
L 211 2554 
C 589 2554 646 2515 646 2208 
L 646 428 
C 646 184 621 153 211 153 
L 211 -13 
C 365 0 646 0 813 0 
C 979 0 1267 0 1421 -13 
L 1421 153 
C 1011 153 986 178 986 428 
L 986 1658 
C 986 2247 1344 2688 1792 2688 
C 2266 2688 2317 2266 2317 1958 
L 2317 428 
C 2317 184 2291 153 1882 153 
L 1882 -13 
C 2035 0 2317 0 2483 0 
C 2650 0 2938 0 3091 -13 
L 3091 153 
C 2682 153 2656 178 2656 428 
L 2656 1933 
z
" transform="scale(0.015625)"/>
        <path id="CMR17-64" d="M 1869 4326 
L 1869 4160 
C 2246 4160 2304 4122 2304 3820 
L 2304 2345 
C 2278 2377 2016 2790 1498 2790 
C 845 2790 211 2208 211 1364 
C 211 525 806 -64 1434 -64 
C 1978 -64 2259 337 2291 380 
L 2291 -63 
L 3066 -63 
L 3066 128 
C 2688 128 2630 166 2630 473 
L 2630 4396 
L 1869 4326 
z
M 2291 755 
C 2291 563 2176 390 2029 262 
C 1811 70 1594 38 1472 38 
C 1286 38 621 134 621 1356 
C 621 2612 1363 2688 1530 2688 
C 1824 2688 2061 2522 2208 2291 
C 2291 2157 2291 2138 2291 2023 
L 2291 755 
z
" transform="scale(0.015625)"/>
       </defs>
       <use xlink:href="#CMR17-4e" transform="scale(0.996264)"/>
       <use xlink:href="#CMR17-4e" transform="translate(69.07243 0) scale(0.996264)"/>
       <use xlink:href="#CMR17-2b" transform="translate(160.284067 0) scale(0.996264)"/>
       <use xlink:href="#CMR17-33" transform="translate(254.138062 0) scale(0.996264)"/>
       <use xlink:href="#CMR17-4e" transform="translate(299.828539 0) scale(0.996264)"/>
       <use xlink:href="#NimbusSanL-Regu-2d" transform="translate(368.900969 0) scale(0.996264)"/>
       <use xlink:href="#CMR17-69" transform="translate(402.076199 0) scale(0.996264)"/>
       <use xlink:href="#CMR17-6e" transform="translate(426.947257 0) scale(0.996264)"/>
       <use xlink:href="#CMR17-64" transform="translate(477.842627 0) scale(0.996264)"/>
      </g>
     </g>
    </g>
    <g id="xtick_3">
     <g id="text_10">
      <!-- $\mathrm{NN+srg}$ -->
      <g transform="translate(85.908371 361.10433) rotate(-330) scale(0.12 -0.12)">
       <defs>
        <path id="CMR17-73" d="M 1978 2697 
C 1978 2813 1971 2819 1933 2819 
C 1907 2819 1901 2813 1824 2717 
C 1805 2691 1747 2626 1728 2601 
C 1523 2819 1235 2819 1126 2819 
C 416 2819 160 2447 160 2076 
C 160 1498 813 1365 998 1325 
C 1402 1243 1542 1217 1677 1101 
C 1760 1025 1901 884 1901 654 
C 1901 384 1747 38 1158 38 
C 602 38 403 460 288 1021 
C 269 1110 269 1117 218 1117 
C 166 1117 160 1110 160 983 
L 160 63 
C 160 -51 166 -58 205 -58 
C 237 -58 243 -51 275 0 
C 314 57 410 211 448 276 
C 576 103 800 -64 1158 -64 
C 1792 -64 2131 283 2131 784 
C 2131 1112 1958 1285 1875 1362 
C 1683 1561 1459 1606 1190 1657 
C 838 1735 390 1825 390 2217 
C 390 2383 480 2737 1126 2737 
C 1811 2737 1850 2094 1862 1888 
C 1869 1856 1901 1849 1920 1849 
C 1978 1849 1978 1869 1978 1978 
L 1978 2697 
z
" transform="scale(0.015625)"/>
        <path id="CMR17-72" d="M 960 1497 
C 960 2112 1222 2688 1702 2688 
C 1747 2688 1792 2682 1837 2662 
C 1837 2662 1696 2617 1696 2452 
C 1696 2298 1818 2234 1914 2234 
C 1990 2234 2131 2279 2131 2458 
C 2131 2663 1926 2790 1709 2790 
C 1222 2790 1011 2317 947 2093 
L 941 2093 
L 941 2790 
L 198 2720 
L 198 2554 
C 576 2554 634 2515 634 2208 
L 634 428 
C 634 184 608 153 198 153 
L 198 -13 
C 352 0 646 0 813 0 
C 998 0 1325 0 1498 -13 
L 1498 153 
C 1037 153 960 153 960 440 
L 960 1497 
z
" transform="scale(0.015625)"/>
        <path id="CMR17-67" d="M 710 1164 
C 832 1068 1043 960 1299 960 
C 1805 960 2240 1357 2240 1888 
C 2240 2054 2189 2310 1997 2509 
C 2176 2692 2438 2752 2586 2752 
C 2611 2752 2650 2752 2682 2734 
C 2656 2728 2598 2703 2598 2605 
C 2598 2527 2656 2471 2739 2471 
C 2835 2471 2886 2533 2886 2614 
C 2886 2731 2790 2854 2586 2854 
C 2330 2854 2106 2738 1926 2580 
C 1734 2753 1504 2816 1299 2816 
C 794 2816 358 2419 358 1888 
C 358 1522 570 1292 634 1228 
C 442 1004 442 743 442 711 
C 442 545 506 302 723 168 
C 390 85 128 -169 128 -486 
C 128 -943 736 -1280 1466 -1280 
C 2170 -1280 2803 -956 2803 -479 
C 2803 384 1856 384 1363 384 
C 1216 384 954 384 922 391 
C 723 423 589 602 589 826 
C 589 883 589 1024 710 1164 
z
M 1299 1068 
C 736 1068 736 1760 736 1889 
C 736 2016 736 2708 1299 2708 
C 1862 2708 1862 2016 1862 1889 
C 1862 1760 1862 1068 1299 1068 
z
M 1466 -1171 
C 826 -1171 384 -835 384 -486 
C 384 -289 493 -105 634 -4 
C 794 104 858 104 1293 104 
C 1818 104 2547 104 2547 -486 
C 2547 -835 2106 -1171 1466 -1171 
z
" transform="scale(0.015625)"/>
       </defs>
       <use xlink:href="#CMR17-4e" transform="scale(0.996264)"/>
       <use xlink:href="#CMR17-4e" transform="translate(69.07243 0) scale(0.996264)"/>
       <use xlink:href="#CMR17-2b" transform="translate(160.284067 0) scale(0.996264)"/>
       <use xlink:href="#CMR17-73" transform="translate(254.138062 0) scale(0.996264)"/>
       <use xlink:href="#CMR17-72" transform="translate(289.9394 0) scale(0.996264)"/>
       <use xlink:href="#CMR17-67" transform="translate(325.220167 0) scale(0.996264)"/>
      </g>
     </g>
    </g>
   </g>
   <g id="matplotlib.axis_4">
    <g id="ytick_26">
     <g id="line2d_26">
      <g>
       <use xlink:href="#m8b8162e844" x="40.111149" y="332.960349" style="stroke: #000000; stroke-width: 0.8"/>
      </g>
     </g>
     <g id="text_11">
      <!-- $\mathdefault{0}$ -->
      <g transform="translate(29.008158 337.219341) scale(0.12 -0.12)">
       <use xlink:href="#CMR17-30" transform="scale(0.996264)"/>
      </g>
     </g>
    </g>
    <g id="ytick_27">
     <g id="line2d_27">
      <g>
       <use xlink:href="#m8b8162e844" x="40.111149" y="305.425969" style="stroke: #000000; stroke-width: 0.8"/>
      </g>
     </g>
     <g id="text_12">
      <!-- $\mathdefault{1}$ -->
      <g transform="translate(29.008158 309.684962) scale(0.12 -0.12)">
       <use xlink:href="#CMR17-31" transform="scale(0.996264)"/>
      </g>
     </g>
    </g>
    <g id="ytick_28">
     <g id="line2d_28">
      <g>
       <use xlink:href="#m8b8162e844" x="40.111149" y="277.89159" style="stroke: #000000; stroke-width: 0.8"/>
      </g>
     </g>
     <g id="text_13">
      <!-- $\mathdefault{2}$ -->
      <g transform="translate(29.008158 282.150582) scale(0.12 -0.12)">
       <use xlink:href="#CMR17-32" transform="scale(0.996264)"/>
      </g>
     </g>
    </g>
    <g id="ytick_29">
     <g id="line2d_29">
      <g>
       <use xlink:href="#m8b8162e844" x="40.111149" y="250.35721" style="stroke: #000000; stroke-width: 0.8"/>
      </g>
     </g>
     <g id="text_14">
      <!-- $\mathdefault{3}$ -->
      <g transform="translate(29.008158 254.616202) scale(0.12 -0.12)">
       <use xlink:href="#CMR17-33" transform="scale(0.996264)"/>
      </g>
     </g>
    </g>
    <g id="ytick_30">
     <g id="line2d_30">
      <g>
       <use xlink:href="#m8b8162e844" x="40.111149" y="222.82283" style="stroke: #000000; stroke-width: 0.8"/>
      </g>
     </g>
     <g id="text_15">
      <!-- $\mathdefault{4}$ -->
      <g transform="translate(29.008158 227.081822) scale(0.12 -0.12)">
       <use xlink:href="#CMR17-34" transform="scale(0.996264)"/>
      </g>
     </g>
    </g>
    <g id="ytick_31">
     <g id="line2d_31">
      <g>
       <use xlink:href="#m8b8162e844" x="40.111149" y="195.28845" style="stroke: #000000; stroke-width: 0.8"/>
      </g>
     </g>
     <g id="text_16">
      <!-- $\mathdefault{5}$ -->
      <g transform="translate(29.008158 199.547442) scale(0.12 -0.12)">
       <defs>
        <path id="CMR17-35" d="M 730 3692 
C 794 3666 1056 3584 1325 3584 
C 1920 3584 2246 3911 2432 4100 
C 2432 4157 2432 4192 2394 4192 
C 2387 4192 2374 4192 2323 4163 
C 2099 4058 1837 3973 1517 3973 
C 1325 3973 1037 3999 723 4139 
C 653 4171 640 4171 634 4171 
C 602 4171 595 4164 595 4037 
L 595 2203 
C 595 2089 595 2057 659 2057 
C 691 2057 704 2070 736 2114 
C 941 2401 1222 2522 1542 2522 
C 1766 2522 2246 2382 2246 1289 
C 2246 1085 2246 715 2054 421 
C 1894 159 1645 25 1370 25 
C 947 25 518 320 403 814 
C 429 807 480 795 506 795 
C 589 795 749 840 749 1038 
C 749 1210 627 1280 506 1280 
C 358 1280 262 1190 262 1011 
C 262 454 704 -128 1382 -128 
C 2042 -128 2669 440 2669 1264 
C 2669 2030 2170 2624 1549 2624 
C 1222 2624 947 2503 730 2274 
L 730 3692 
z
" transform="scale(0.015625)"/>
       </defs>
       <use xlink:href="#CMR17-35" transform="scale(0.996264)"/>
      </g>
     </g>
    </g>
    <g id="ytick_32">
     <g id="line2d_32">
      <g>
       <use xlink:href="#m8b8162e844" x="40.111149" y="167.75407" style="stroke: #000000; stroke-width: 0.8"/>
      </g>
     </g>
     <g id="text_17">
      <!-- $\mathdefault{6}$ -->
      <g transform="translate(29.008158 172.013062) scale(0.12 -0.12)">
       <use xlink:href="#CMR17-36" transform="scale(0.996264)"/>
      </g>
     </g>
    </g>
    <g id="ytick_33">
     <g id="line2d_33">
      <g>
       <use xlink:href="#m8b8162e844" x="40.111149" y="140.21969" style="stroke: #000000; stroke-width: 0.8"/>
      </g>
     </g>
     <g id="text_18">
      <!-- $\mathdefault{7}$ -->
      <g transform="translate(29.008158 144.478683) scale(0.12 -0.12)">
       <defs>
        <path id="CMR17-37" d="M 2886 3941 
L 2886 4081 
L 1382 4081 
C 634 4081 621 4165 595 4288 
L 480 4288 
L 294 3094 
L 410 3094 
C 429 3215 474 3540 550 3661 
C 589 3712 1062 3712 1171 3712 
L 2579 3712 
L 1869 2661 
C 1395 1954 1069 999 1069 165 
C 1069 89 1069 -128 1299 -128 
C 1530 -128 1530 89 1530 171 
L 1530 465 
C 1530 1508 1709 2196 2003 2636 
L 2886 3941 
z
" transform="scale(0.015625)"/>
       </defs>
       <use xlink:href="#CMR17-37" transform="scale(0.996264)"/>
      </g>
     </g>
    </g>
    <g id="ytick_34">
     <g id="line2d_34">
      <g>
       <use xlink:href="#m8b8162e844" x="40.111149" y="112.685311" style="stroke: #000000; stroke-width: 0.8"/>
      </g>
     </g>
     <g id="text_19">
      <!-- $\mathdefault{8}$ -->
      <g transform="translate(29.008158 116.944303) scale(0.12 -0.12)">
       <use xlink:href="#CMR17-38" transform="scale(0.996264)"/>
      </g>
     </g>
    </g>
    <g id="ytick_35">
     <g id="line2d_35">
      <g>
       <use xlink:href="#m8b8162e844" x="40.111149" y="85.150931" style="stroke: #000000; stroke-width: 0.8"/>
      </g>
     </g>
     <g id="text_20">
      <!-- $\mathdefault{9}$ -->
      <g transform="translate(29.008158 89.409923) scale(0.12 -0.12)">
       <defs>
        <path id="CMR17-39" d="M 2253 1864 
C 2253 464 1670 31 1190 31 
C 1043 31 685 31 538 294 
C 704 268 826 357 826 518 
C 826 692 685 749 595 749 
C 538 749 365 723 365 506 
C 365 71 742 -128 1203 -128 
C 1939 -128 2688 674 2688 2073 
C 2688 3817 1971 4179 1485 4179 
C 851 4179 243 3628 243 2778 
C 243 1991 762 1408 1414 1408 
C 1952 1408 2189 1903 2253 2112 
L 2253 1864 
z
M 1427 1510 
C 1254 1510 1011 1542 813 1922 
C 678 2169 678 2461 678 2771 
C 678 3146 678 3405 858 3684 
C 947 3817 1114 4032 1485 4032 
C 2240 4032 2240 2885 2240 2632 
C 2240 2182 2035 1510 1427 1510 
z
" transform="scale(0.015625)"/>
       </defs>
       <use xlink:href="#CMR17-39" transform="scale(0.996264)"/>
      </g>
     </g>
    </g>
    <g id="ytick_36">
     <g id="line2d_36">
      <g>
       <use xlink:href="#m8b8162e844" x="40.111149" y="57.616551" style="stroke: #000000; stroke-width: 0.8"/>
      </g>
     </g>
     <g id="text_21">
      <!-- $\mathdefault{10}$ -->
      <g transform="translate(23.155168 61.875543) scale(0.12 -0.12)">
       <use xlink:href="#CMR17-31" transform="scale(0.996264)"/>
       <use xlink:href="#CMR17-30" transform="translate(45.690477 0) scale(0.996264)"/>
      </g>
     </g>
    </g>
    <g id="ytick_37">
     <g id="line2d_37">
      <g>
       <use xlink:href="#m8b8162e844" x="40.111149" y="30.082171" style="stroke: #000000; stroke-width: 0.8"/>
      </g>
     </g>
     <g id="text_22">
      <!-- $\mathdefault{11}$ -->
      <g transform="translate(23.155168 34.341163) scale(0.12 -0.12)">
       <use xlink:href="#CMR17-31" transform="scale(0.996264)"/>
       <use xlink:href="#CMR17-31" transform="translate(45.690477 0) scale(0.996264)"/>
      </g>
     </g>
    </g>
    <g id="ytick_38">
     <g id="line2d_38">
      <g>
       <use xlink:href="#mae1f42d9aa" x="40.111149" y="343.974101" style="stroke: #000000; stroke-width: 0.6"/>
      </g>
     </g>
    </g>
    <g id="ytick_39">
     <g id="line2d_39">
      <g>
       <use xlink:href="#mae1f42d9aa" x="40.111149" y="338.467225" style="stroke: #000000; stroke-width: 0.6"/>
      </g>
     </g>
    </g>
    <g id="ytick_40">
     <g id="line2d_40">
      <g>
       <use xlink:href="#mae1f42d9aa" x="40.111149" y="327.453473" style="stroke: #000000; stroke-width: 0.6"/>
      </g>
     </g>
    </g>
    <g id="ytick_41">
     <g id="line2d_41">
      <g>
       <use xlink:href="#mae1f42d9aa" x="40.111149" y="321.946597" style="stroke: #000000; stroke-width: 0.6"/>
      </g>
     </g>
    </g>
    <g id="ytick_42">
     <g id="line2d_42">
      <g>
       <use xlink:href="#mae1f42d9aa" x="40.111149" y="316.439721" style="stroke: #000000; stroke-width: 0.6"/>
      </g>
     </g>
    </g>
    <g id="ytick_43">
     <g id="line2d_43">
      <g>
       <use xlink:href="#mae1f42d9aa" x="40.111149" y="310.932845" style="stroke: #000000; stroke-width: 0.6"/>
      </g>
     </g>
    </g>
    <g id="ytick_44">
     <g id="line2d_44">
      <g>
       <use xlink:href="#mae1f42d9aa" x="40.111149" y="299.919093" style="stroke: #000000; stroke-width: 0.6"/>
      </g>
     </g>
    </g>
    <g id="ytick_45">
     <g id="line2d_45">
      <g>
       <use xlink:href="#mae1f42d9aa" x="40.111149" y="294.412217" style="stroke: #000000; stroke-width: 0.6"/>
      </g>
     </g>
    </g>
    <g id="ytick_46">
     <g id="line2d_46">
      <g>
       <use xlink:href="#mae1f42d9aa" x="40.111149" y="288.905342" style="stroke: #000000; stroke-width: 0.6"/>
      </g>
     </g>
    </g>
    <g id="ytick_47">
     <g id="line2d_47">
      <g>
       <use xlink:href="#mae1f42d9aa" x="40.111149" y="283.398466" style="stroke: #000000; stroke-width: 0.6"/>
      </g>
     </g>
    </g>
    <g id="ytick_48">
     <g id="line2d_48">
      <g>
       <use xlink:href="#mae1f42d9aa" x="40.111149" y="272.384714" style="stroke: #000000; stroke-width: 0.6"/>
      </g>
     </g>
    </g>
    <g id="ytick_49">
     <g id="line2d_49">
      <g>
       <use xlink:href="#mae1f42d9aa" x="40.111149" y="266.877838" style="stroke: #000000; stroke-width: 0.6"/>
      </g>
     </g>
    </g>
    <g id="ytick_50">
     <g id="line2d_50">
      <g>
       <use xlink:href="#mae1f42d9aa" x="40.111149" y="261.370962" style="stroke: #000000; stroke-width: 0.6"/>
      </g>
     </g>
    </g>
    <g id="ytick_51">
     <g id="line2d_51">
      <g>
       <use xlink:href="#mae1f42d9aa" x="40.111149" y="255.864086" style="stroke: #000000; stroke-width: 0.6"/>
      </g>
     </g>
    </g>
    <g id="ytick_52">
     <g id="line2d_52">
      <g>
       <use xlink:href="#mae1f42d9aa" x="40.111149" y="244.850334" style="stroke: #000000; stroke-width: 0.6"/>
      </g>
     </g>
    </g>
    <g id="ytick_53">
     <g id="line2d_53">
      <g>
       <use xlink:href="#mae1f42d9aa" x="40.111149" y="239.343458" style="stroke: #000000; stroke-width: 0.6"/>
      </g>
     </g>
    </g>
    <g id="ytick_54">
     <g id="line2d_54">
      <g>
       <use xlink:href="#mae1f42d9aa" x="40.111149" y="233.836582" style="stroke: #000000; stroke-width: 0.6"/>
      </g>
     </g>
    </g>
    <g id="ytick_55">
     <g id="line2d_55">
      <g>
       <use xlink:href="#mae1f42d9aa" x="40.111149" y="228.329706" style="stroke: #000000; stroke-width: 0.6"/>
      </g>
     </g>
    </g>
    <g id="ytick_56">
     <g id="line2d_56">
      <g>
       <use xlink:href="#mae1f42d9aa" x="40.111149" y="217.315954" style="stroke: #000000; stroke-width: 0.6"/>
      </g>
     </g>
    </g>
    <g id="ytick_57">
     <g id="line2d_57">
      <g>
       <use xlink:href="#mae1f42d9aa" x="40.111149" y="211.809078" style="stroke: #000000; stroke-width: 0.6"/>
      </g>
     </g>
    </g>
    <g id="ytick_58">
     <g id="line2d_58">
      <g>
       <use xlink:href="#mae1f42d9aa" x="40.111149" y="206.302202" style="stroke: #000000; stroke-width: 0.6"/>
      </g>
     </g>
    </g>
    <g id="ytick_59">
     <g id="line2d_59">
      <g>
       <use xlink:href="#mae1f42d9aa" x="40.111149" y="200.795326" style="stroke: #000000; stroke-width: 0.6"/>
      </g>
     </g>
    </g>
    <g id="ytick_60">
     <g id="line2d_60">
      <g>
       <use xlink:href="#mae1f42d9aa" x="40.111149" y="189.781574" style="stroke: #000000; stroke-width: 0.6"/>
      </g>
     </g>
    </g>
    <g id="ytick_61">
     <g id="line2d_61">
      <g>
       <use xlink:href="#mae1f42d9aa" x="40.111149" y="184.274698" style="stroke: #000000; stroke-width: 0.6"/>
      </g>
     </g>
    </g>
    <g id="ytick_62">
     <g id="line2d_62">
      <g>
       <use xlink:href="#mae1f42d9aa" x="40.111149" y="178.767822" style="stroke: #000000; stroke-width: 0.6"/>
      </g>
     </g>
    </g>
    <g id="ytick_63">
     <g id="line2d_63">
      <g>
       <use xlink:href="#mae1f42d9aa" x="40.111149" y="173.260946" style="stroke: #000000; stroke-width: 0.6"/>
      </g>
     </g>
    </g>
    <g id="ytick_64">
     <g id="line2d_64">
      <g>
       <use xlink:href="#mae1f42d9aa" x="40.111149" y="162.247194" style="stroke: #000000; stroke-width: 0.6"/>
      </g>
     </g>
    </g>
    <g id="ytick_65">
     <g id="line2d_65">
      <g>
       <use xlink:href="#mae1f42d9aa" x="40.111149" y="156.740318" style="stroke: #000000; stroke-width: 0.6"/>
      </g>
     </g>
    </g>
    <g id="ytick_66">
     <g id="line2d_66">
      <g>
       <use xlink:href="#mae1f42d9aa" x="40.111149" y="151.233442" style="stroke: #000000; stroke-width: 0.6"/>
      </g>
     </g>
    </g>
    <g id="ytick_67">
     <g id="line2d_67">
      <g>
       <use xlink:href="#mae1f42d9aa" x="40.111149" y="145.726566" style="stroke: #000000; stroke-width: 0.6"/>
      </g>
     </g>
    </g>
    <g id="ytick_68">
     <g id="line2d_68">
      <g>
       <use xlink:href="#mae1f42d9aa" x="40.111149" y="134.712814" style="stroke: #000000; stroke-width: 0.6"/>
      </g>
     </g>
    </g>
    <g id="ytick_69">
     <g id="line2d_69">
      <g>
       <use xlink:href="#mae1f42d9aa" x="40.111149" y="129.205938" style="stroke: #000000; stroke-width: 0.6"/>
      </g>
     </g>
    </g>
    <g id="ytick_70">
     <g id="line2d_70">
      <g>
       <use xlink:href="#mae1f42d9aa" x="40.111149" y="123.699062" style="stroke: #000000; stroke-width: 0.6"/>
      </g>
     </g>
    </g>
    <g id="ytick_71">
     <g id="line2d_71">
      <g>
       <use xlink:href="#mae1f42d9aa" x="40.111149" y="118.192187" style="stroke: #000000; stroke-width: 0.6"/>
      </g>
     </g>
    </g>
    <g id="ytick_72">
     <g id="line2d_72">
      <g>
       <use xlink:href="#mae1f42d9aa" x="40.111149" y="107.178435" style="stroke: #000000; stroke-width: 0.6"/>
      </g>
     </g>
    </g>
    <g id="ytick_73">
     <g id="line2d_73">
      <g>
       <use xlink:href="#mae1f42d9aa" x="40.111149" y="101.671559" style="stroke: #000000; stroke-width: 0.6"/>
      </g>
     </g>
    </g>
    <g id="ytick_74">
     <g id="line2d_74">
      <g>
       <use xlink:href="#mae1f42d9aa" x="40.111149" y="96.164683" style="stroke: #000000; stroke-width: 0.6"/>
      </g>
     </g>
    </g>
    <g id="ytick_75">
     <g id="line2d_75">
      <g>
       <use xlink:href="#mae1f42d9aa" x="40.111149" y="90.657807" style="stroke: #000000; stroke-width: 0.6"/>
      </g>
     </g>
    </g>
    <g id="ytick_76">
     <g id="line2d_76">
      <g>
       <use xlink:href="#mae1f42d9aa" x="40.111149" y="79.644055" style="stroke: #000000; stroke-width: 0.6"/>
      </g>
     </g>
    </g>
    <g id="ytick_77">
     <g id="line2d_77">
      <g>
       <use xlink:href="#mae1f42d9aa" x="40.111149" y="74.137179" style="stroke: #000000; stroke-width: 0.6"/>
      </g>
     </g>
    </g>
    <g id="ytick_78">
     <g id="line2d_78">
      <g>
       <use xlink:href="#mae1f42d9aa" x="40.111149" y="68.630303" style="stroke: #000000; stroke-width: 0.6"/>
      </g>
     </g>
    </g>
    <g id="ytick_79">
     <g id="line2d_79">
      <g>
       <use xlink:href="#mae1f42d9aa" x="40.111149" y="63.123427" style="stroke: #000000; stroke-width: 0.6"/>
      </g>
     </g>
    </g>
    <g id="ytick_80">
     <g id="line2d_80">
      <g>
       <use xlink:href="#mae1f42d9aa" x="40.111149" y="52.109675" style="stroke: #000000; stroke-width: 0.6"/>
      </g>
     </g>
    </g>
    <g id="ytick_81">
     <g id="line2d_81">
      <g>
       <use xlink:href="#mae1f42d9aa" x="40.111149" y="46.602799" style="stroke: #000000; stroke-width: 0.6"/>
      </g>
     </g>
    </g>
    <g id="ytick_82">
     <g id="line2d_82">
      <g>
       <use xlink:href="#mae1f42d9aa" x="40.111149" y="41.095923" style="stroke: #000000; stroke-width: 0.6"/>
      </g>
     </g>
    </g>
    <g id="ytick_83">
     <g id="line2d_83">
      <g>
       <use xlink:href="#mae1f42d9aa" x="40.111149" y="35.589047" style="stroke: #000000; stroke-width: 0.6"/>
      </g>
     </g>
    </g>
    <g id="ytick_84">
     <g id="line2d_84">
      <g>
       <use xlink:href="#mae1f42d9aa" x="40.111149" y="24.575295" style="stroke: #000000; stroke-width: 0.6"/>
      </g>
     </g>
    </g>
    <g id="ytick_85">
     <g id="line2d_85">
      <g>
       <use xlink:href="#mae1f42d9aa" x="40.111149" y="19.068419" style="stroke: #000000; stroke-width: 0.6"/>
      </g>
     </g>
    </g>
    <g id="ytick_86">
     <g id="line2d_86">
      <g>
       <use xlink:href="#mae1f42d9aa" x="40.111149" y="13.561543" style="stroke: #000000; stroke-width: 0.6"/>
      </g>
     </g>
    </g>
    <g id="ytick_87">
     <g id="line2d_87">
      <g>
       <use xlink:href="#mae1f42d9aa" x="40.111149" y="8.054667" style="stroke: #000000; stroke-width: 0.6"/>
      </g>
     </g>
    </g>
    <g id="text_23">
     <!-- $ E \, [{\rm MeV}]$ -->
     <g transform="translate(16.166376 198.328225) rotate(-90) scale(0.12 -0.12)">
      <defs>
       <path id="CMMI12-45" d="M 4448 1489 
C 4454 1508 4474 1554 4474 1579 
C 4474 1611 4448 1643 4410 1643 
C 4384 1643 4371 1637 4352 1617 
C 4339 1611 4339 1598 4282 1469 
C 3904 570 3629 185 2605 185 
L 1670 185 
C 1581 185 1568 185 1530 192 
C 1459 198 1453 211 1453 262 
C 1453 307 1466 345 1478 403 
L 1920 2176 
L 2554 2176 
C 3053 2176 3091 2066 3091 1874 
C 3091 1810 3091 1752 3046 1560 
C 3034 1534 3027 1508 3027 1489 
C 3027 1444 3059 1425 3098 1425 
C 3155 1425 3162 1469 3187 1559 
L 3552 3042 
C 3552 3073 3526 3105 3488 3105 
C 3430 3105 3424 3080 3398 2990 
C 3270 2501 3142 2361 2573 2361 
L 1965 2361 
L 2362 3930 
C 2419 4154 2432 4154 2694 4154 
L 3610 4154 
C 4397 4154 4557 3943 4557 3458 
C 4557 3451 4557 3273 4531 3062 
C 4525 3036 4518 2998 4518 2985 
C 4518 2934 4550 2915 4589 2915 
C 4634 2915 4659 2941 4672 3055 
L 4806 4174 
C 4806 4195 4819 4263 4819 4277 
C 4819 4352 4762 4352 4646 4352 
L 1523 4352 
C 1402 4352 1338 4352 1338 4229 
C 1338 4154 1382 4154 1491 4154 
C 1888 4154 1888 4114 1888 4052 
C 1888 4020 1882 3994 1862 3924 
L 998 473 
C 941 249 928 185 480 185 
C 358 185 294 185 294 70 
C 294 0 333 0 461 0 
L 3674 0 
C 3814 0 3821 6 3866 110 
L 4448 1489 
z
" transform="scale(0.015625)"/>
      </defs>
      <use xlink:href="#CMMI12-45" transform="scale(0.996264)"/>
      <use xlink:href="#CMR17-5b" transform="translate(94.656041 0) scale(0.996264)"/>
      <use xlink:href="#CMR17-4d" transform="translate(119.5271 0) scale(0.996264)"/>
      <use xlink:href="#CMR17-65" transform="translate(204.21404 0) scale(0.996264)"/>
      <use xlink:href="#CMR17-56" transform="translate(244.699701 0) scale(0.996264)"/>
      <use xlink:href="#CMR17-5d" transform="translate(315.073297 0) scale(0.996264)"/>
     </g>
    </g>
   </g>
   <g id="patch_11">
    <path d="M 183.577483 96.701603 
L 218.207288 96.701603 
L 218.207288 83.237291 
L 183.577483 83.237291 
z
" clip-path="url(#p19092033d7)" style="fill: #959595; opacity: 0.7; stroke: #808080; stroke-width: 0.1; stroke-linejoin: miter"/>
   </g>
   <g id="patch_12">
    <path d="M 134.106333 226.571113 
L 168.736138 226.571113 
L 168.736138 237.198227 
L 134.106333 237.198227 
z
" clip-path="url(#p19092033d7)" style="fill: #dadaeb; opacity: 0.7; stroke: #800080; stroke-width: 0.1; stroke-linejoin: miter"/>
   </g>
   <g id="patch_13">
    <path d="M 84.635184 227.703216 
L 119.264988 227.703216 
L 119.264988 239.332802 
L 84.635184 239.332802 
z
" clip-path="url(#p19092033d7)" style="fill: #dadaeb; opacity: 0.7; stroke: #800080; stroke-width: 0.1; stroke-linejoin: miter"/>
   </g>
   <g id="LineCollection_2">
    <path d="M 183.577483 89.143416 
L 223.154403 89.143416 
" clip-path="url(#p19092033d7)" style="fill: none; stroke: #00ffff; stroke-width: 1.171429"/>
   </g>
   <g id="line2d_88">
    <path d="M 168.736138 332.960349 
L 237.995748 332.960349 
" clip-path="url(#p19092033d7)" style="fill: none; stroke-dasharray: 2.59,1.12; stroke-dashoffset: 0; stroke: #000000; stroke-width: 0.7"/>
   </g>
   <g id="line2d_89">
    <path d="M 168.736138 311.979152 
L 237.995748 311.979152 
" clip-path="url(#p19092033d7)" style="fill: none; stroke-dasharray: 2.59,1.12; stroke-dashoffset: 0; stroke: #000000; stroke-width: 0.7"/>
   </g>
   <g id="line2d_90">
    <path d="M 168.736138 221.94173 
L 237.995748 221.94173 
" clip-path="url(#p19092033d7)" style="fill: none; stroke-dasharray: 2.59,1.12; stroke-dashoffset: 0; stroke: #000000; stroke-width: 0.7"/>
   </g>
   <g id="line2d_91">
    <path d="M 168.736138 160.705269 
L 237.995748 160.705269 
" clip-path="url(#p19092033d7)" style="fill: none; stroke-dasharray: 2.59,1.12; stroke-dashoffset: 0; stroke: #000000; stroke-width: 0.7"/>
   </g>
   <g id="line2d_92">
    <path d="M 168.736138 99.468808 
L 237.995748 99.468808 
" clip-path="url(#p19092033d7)" style="fill: none; stroke-dasharray: 2.59,1.12; stroke-dashoffset: 0; stroke: #000000; stroke-width: 0.7"/>
   </g>
   <g id="line2d_93">
    <path d="M 119.264988 332.960349 
L 188.524598 332.960349 
" clip-path="url(#p19092033d7)" style="fill: none; stroke-dasharray: 2.59,1.12; stroke-dashoffset: 0; stroke: #000000; stroke-width: 0.7"/>
   </g>
   <g id="line2d_94">
    <path d="M 119.264988 314.835293 
L 188.524598 314.835293 
" clip-path="url(#p19092033d7)" style="fill: none; stroke-dasharray: 2.59,1.12; stroke-dashoffset: 0; stroke: #000000; stroke-width: 0.7"/>
   </g>
   <g id="line2d_95">
    <path d="M 119.264988 233.364643 
L 188.524598 233.364643 
" clip-path="url(#p19092033d7)" style="fill: none; stroke-dasharray: 2.59,1.12; stroke-dashoffset: 0; stroke: #000000; stroke-width: 0.7"/>
   </g>
   <g id="line2d_96">
    <path d="M 119.264988 172.417843 
L 188.524598 172.417843 
" clip-path="url(#p19092033d7)" style="fill: none; stroke-dasharray: 2.59,1.12; stroke-dashoffset: 0; stroke: #000000; stroke-width: 0.7"/>
   </g>
   <g id="line2d_97">
    <path d="M 119.264988 111.471044 
L 188.524598 111.471044 
" clip-path="url(#p19092033d7)" style="fill: none; stroke-dasharray: 2.59,1.12; stroke-dashoffset: 0; stroke: #000000; stroke-width: 0.7"/>
   </g>
   <g id="line2d_98">
    <path d="M 69.793839 332.960349 
L 139.053448 332.960349 
" clip-path="url(#p19092033d7)" style="fill: none; stroke-dasharray: 2.59,1.12; stroke-dashoffset: 0; stroke: #000000; stroke-width: 0.7"/>
   </g>
   <g id="line2d_99">
    <path d="M 69.793839 314.473491 
L 139.053448 314.473491 
" clip-path="url(#p19092033d7)" style="fill: none; stroke-dasharray: 2.59,1.12; stroke-dashoffset: 0; stroke: #000000; stroke-width: 0.7"/>
   </g>
   <g id="line2d_100">
    <path d="M 69.793839 219.653898 
L 139.053448 219.653898 
" clip-path="url(#p19092033d7)" style="fill: none; stroke-dasharray: 2.59,1.12; stroke-dashoffset: 0; stroke: #000000; stroke-width: 0.7"/>
   </g>
   <g id="line2d_101">
    <path d="M 69.793839 158.707099 
L 139.053448 158.707099 
" clip-path="url(#p19092033d7)" style="fill: none; stroke-dasharray: 2.59,1.12; stroke-dashoffset: 0; stroke: #000000; stroke-width: 0.7"/>
   </g>
   <g id="line2d_102">
    <path d="M 69.793839 97.7603 
L 139.053448 97.7603 
" clip-path="url(#p19092033d7)" style="fill: none; stroke-dasharray: 2.59,1.12; stroke-dashoffset: 0; stroke: #000000; stroke-width: 0.7"/>
   </g>
   <g id="patch_14">
    <path d="M 40.111149 346.727539 
L 40.111149 7.2 
" style="fill: none; stroke: #000000; stroke-width: 0.8; stroke-linejoin: miter; stroke-linecap: square"/>
   </g>
   <g id="patch_15">
    <path d="M 247.889978 346.727539 
L 247.889978 7.2 
" style="fill: none; stroke: #000000; stroke-width: 0.8; stroke-linejoin: miter; stroke-linecap: square"/>
   </g>
   <g id="patch_16">
    <path d="M 40.111149 346.727539 
L 247.889978 346.727539 
" style="fill: none; stroke: #000000; stroke-width: 0.8; stroke-linejoin: miter; stroke-linecap: square"/>
   </g>
   <g id="patch_17">
    <path d="M 40.111149 7.2 
L 247.889978 7.2 
" style="fill: none; stroke: #000000; stroke-width: 0.8; stroke-linejoin: miter; stroke-linecap: square"/>
   </g>
   <g id="patch_18">
    <path d="M 183.577483 322.772629 
L 188.524598 322.772629 
L 188.524598 321.39591 
L 183.577483 321.39591 
z
" clip-path="url(#p19092033d7)" style="fill: #c6dbef; opacity: 0.7; stroke: #0000ff; stroke-width: 0.1; stroke-linejoin: miter"/>
   </g>
   <g id="patch_19">
    <path d="M 134.106333 236.64988 
L 158.841908 236.64988 
L 158.841908 246.374802 
L 134.106333 246.374802 
z
" clip-path="url(#p19092033d7)" style="fill: #c7e9c0; opacity: 0.7; stroke: #008000; stroke-width: 0.1; stroke-linejoin: miter"/>
   </g>
   <g id="patch_20">
    <path d="M 84.635184 233.007384 
L 114.317873 233.007384 
L 114.317873 243.698158 
L 84.635184 243.698158 
z
" clip-path="url(#p19092033d7)" style="fill: #c7e9c0; opacity: 0.7; stroke: #008000; stroke-width: 0.1; stroke-linejoin: miter"/>
   </g>
   <g id="LineCollection_3">
    <path d="M 183.577483 123.561391 
L 223.154403 123.561391 
" clip-path="url(#p19092033d7)" style="fill: none; stroke: #00ffff; stroke-width: 1.142857"/>
   </g>
   <g id="text_24">
    <!-- $\mathrm{^3H\text{-}p}$ -->
    <g transform="translate(238.709228 330.233529) rotate(-90) scale(0.06 -0.06)">
     <defs>
      <path id="CMR17-48" d="M 3590 3905 
C 3590 4192 3661 4192 4102 4192 
L 4102 4352 
C 3917 4352 3578 4352 3379 4352 
C 3181 4352 2842 4352 2656 4352 
L 2656 4192 
C 3098 4192 3168 4192 3168 3904 
L 3168 2341 
L 1261 2341 
L 1261 3904 
C 1261 4192 1331 4192 1773 4192 
L 1773 4352 
C 1587 4352 1248 4352 1050 4352 
C 851 4352 512 4352 326 4352 
L 326 4192 
C 768 4192 838 4192 838 3905 
L 838 447 
C 838 160 768 160 326 160 
L 326 0 
C 512 0 851 0 1050 0 
C 1248 0 1587 0 1773 0 
L 1773 160 
C 1331 160 1261 160 1261 446 
L 1261 2176 
L 3168 2176 
L 3168 446 
C 3168 160 3098 160 2656 160 
L 2656 0 
C 2842 0 3181 0 3379 0 
C 3578 0 3917 0 4102 0 
L 4102 160 
C 3661 160 3590 160 3590 447 
L 3590 3905 
z
" transform="scale(0.015625)"/>
     </defs>
     <use xlink:href="#CMR17-33" transform="translate(0 36.153639) scale(0.697382)"/>
     <use xlink:href="#CMR17-48" transform="translate(32.481314 0) scale(0.996264)"/>
     <use xlink:href="#NimbusSanL-Regu-2d" transform="translate(101.553744 0) scale(0.996264)"/>
     <use xlink:href="#CMR17-70" transform="translate(134.728974 0) scale(0.996264)"/>
    </g>
   </g>
   <g id="text_25">
    <!-- $\mathrm{^3He\text{-}n}$ -->
    <g transform="translate(237.546915 309.252331) rotate(-90) scale(0.06 -0.06)">
     <use xlink:href="#CMR17-33" transform="translate(0 36.153639) scale(0.697382)"/>
     <use xlink:href="#CMR17-48" transform="translate(32.481314 0) scale(0.996264)"/>
     <use xlink:href="#CMR17-65" transform="translate(101.553744 0) scale(0.996264)"/>
     <use xlink:href="#NimbusSanL-Regu-2d" transform="translate(142.039404 0) scale(0.996264)"/>
     <use xlink:href="#CMR17-6e" transform="translate(175.214634 0) scale(0.996264)"/>
    </g>
   </g>
   <g id="text_26">
    <!-- $\mathrm{D\text{-}D}$ -->
    <g transform="translate(237.36051 219.214909) rotate(-90) scale(0.06 -0.06)">
     <defs>
      <path id="CMR17-44" d="M 333 4352 
L 333 4186 
C 774 4186 845 4186 845 3900 
L 845 452 
C 845 166 774 166 333 166 
L 333 0 
L 2368 0 
C 3398 0 4224 943 4224 2141 
C 4224 3346 3411 4352 2368 4352 
L 333 4352 
z
M 1523 166 
C 1267 166 1254 197 1254 414 
L 1254 3938 
C 1254 4155 1267 4186 1523 4186 
L 2240 4186 
C 2771 4186 3750 3874 3750 2141 
C 3750 1242 3488 879 3366 707 
C 3213 510 2848 166 2240 166 
L 1523 166 
z
" transform="scale(0.015625)"/>
     </defs>
     <use xlink:href="#CMR17-44" transform="scale(0.996264)"/>
     <use xlink:href="#NimbusSanL-Regu-2d" transform="translate(70.393556 0) scale(0.996264)"/>
     <use xlink:href="#CMR17-44" transform="translate(103.568786 0) scale(0.996264)"/>
    </g>
   </g>
   <g id="text_27">
    <!-- $\mathrm{D\text{-}np}$ -->
    <g transform="translate(237.36051 157.978449) rotate(-90) scale(0.06 -0.06)">
     <use xlink:href="#CMR17-44" transform="scale(0.996264)"/>
     <use xlink:href="#NimbusSanL-Regu-2d" transform="translate(70.393556 0) scale(0.996264)"/>
     <use xlink:href="#CMR17-6e" transform="translate(103.568786 0) scale(0.996264)"/>
     <use xlink:href="#CMR17-70" transform="translate(154.464155 0) scale(0.996264)"/>
    </g>
   </g>
   <g id="text_28">
    <!-- $\mathrm{2n2p}$ -->
    <g transform="translate(237.36051 96.741988) rotate(-90) scale(0.06 -0.06)">
     <use xlink:href="#CMR17-32" transform="scale(0.996264)"/>
     <use xlink:href="#CMR17-6e" transform="translate(45.690477 0) scale(0.996264)"/>
     <use xlink:href="#CMR17-32" transform="translate(96.585847 0) scale(0.996264)"/>
     <use xlink:href="#CMR17-70" transform="translate(142.276324 0) scale(0.996264)"/>
    </g>
   </g>
   <g id="patch_21">
    <path d="M 183.577483 181.466191 
L 205.839501 181.466191 
L 205.839501 146.607666 
L 183.577483 146.607666 
z
" clip-path="url(#p19092033d7)" style="fill: #fd8c3b; opacity: 0.7; stroke: #ffa500; stroke-width: 0.1; stroke-linejoin: miter"/>
   </g>
   <g id="patch_22">
    <path d="M 134.106333 234.259895 
L 163.789023 234.259895 
L 163.789023 243.186872 
L 134.106333 243.186872 
z
" clip-path="url(#p19092033d7)" style="fill: #fcc5c0; opacity: 0.7; stroke: #ffc0cb; stroke-width: 0.1; stroke-linejoin: miter"/>
   </g>
   <g id="patch_23">
    <path d="M 84.635184 235.001369 
L 109.370758 235.001369 
L 109.370758 245.302366 
L 84.635184 245.302366 
z
" clip-path="url(#p19092033d7)" style="fill: #fcc5c0; opacity: 0.7; stroke: #ffc0cb; stroke-width: 0.1; stroke-linejoin: miter"/>
   </g>
   <g id="LineCollection_4">
    <path d="M 183.577483 236.177004 
L 223.154403 236.177004 
" clip-path="url(#p19092033d7)" style="fill: none; stroke: #ffc0cb; stroke-width: 1.114286"/>
   </g>
   <g id="patch_24">
    <path d="M 183.577483 219.243361 
L 200.892386 219.243361 
L 200.892386 202.447389 
L 183.577483 202.447389 
z
" clip-path="url(#p19092033d7)" style="fill: #dbf1d6; opacity: 0.7; stroke: #008000; stroke-width: 0.1; stroke-linejoin: miter"/>
   </g>
   <g id="patch_25">
    <path d="M 134.106333 237.587398 
L 153.894793 237.587398 
L 153.894793 247.065117 
L 134.106333 247.065117 
z
" clip-path="url(#p19092033d7)" style="fill: #fedfc0; opacity: 0.7; stroke: #ffa500; stroke-width: 0.1; stroke-linejoin: miter"/>
   </g>
   <g id="patch_26">
    <path d="M 84.635184 239.219608 
L 104.423643 239.219608 
L 104.423643 249.593902 
L 84.635184 249.593902 
z
" clip-path="url(#p19092033d7)" style="fill: #fedfc0; opacity: 0.7; stroke: #ffa500; stroke-width: 0.1; stroke-linejoin: miter"/>
   </g>
   <g id="LineCollection_5">
    <path d="M 183.577483 96.853042 
L 223.154403 96.853042 
" clip-path="url(#p19092033d7)" style="fill: none; stroke: #8b4513; stroke-width: 1.085714"/>
   </g>
   <g id="legend_1">
    <g id="line2d_103">
     <path d="M 49.111149 20.44771 
L 59.111149 20.44771 
L 69.111149 20.44771 
" style="fill: none; stroke: #808080; stroke-linecap: square"/>
    </g>
    <g id="text_29">
     <!-- $ 0^{-}; 0$ -->
     <g transform="translate(77.111149 23.94771) scale(0.1 -0.1)">
      <defs>
       <path id="CMSY10-0" d="M 4218 1472 
C 4326 1472 4442 1472 4442 1600 
C 4442 1728 4326 1728 4218 1728 
L 755 1728 
C 646 1728 531 1728 531 1600 
C 531 1472 646 1472 755 1472 
L 4218 1472 
z
" transform="scale(0.015625)"/>
       <path id="CMR17-3b" d="M 1062 2491 
C 1062 2650 934 2752 800 2752 
C 672 2752 538 2650 538 2491 
C 538 2332 666 2230 800 2230 
C 928 2230 1062 2332 1062 2491 
z
M 979 -71 
C 979 -483 851 -817 634 -1126 
C 595 -1170 595 -1183 595 -1190 
C 595 -1222 621 -1248 646 -1248 
C 678 -1248 1082 -805 1082 -61 
C 1082 189 1062 522 800 522 
C 659 522 538 427 538 261 
C 538 96 659 0 800 0 
C 864 0 934 19 979 64 
L 979 -71 
z
" transform="scale(0.015625)"/>
      </defs>
      <use xlink:href="#CMR17-30" transform="scale(0.996264)"/>
      <use xlink:href="#CMSY10-0" transform="translate(45.690477 36.153639) scale(0.697382)"/>
      <use xlink:href="#CMR17-3b" transform="translate(100.429602 0) scale(0.996264)"/>
      <use xlink:href="#CMR17-30" transform="translate(141.905066 0) scale(0.996264)"/>
     </g>
    </g>
    <g id="line2d_104">
     <path d="M 49.111149 35.317406 
L 59.111149 35.317406 
L 69.111149 35.317406 
" style="fill: none; stroke: #800080; stroke-linecap: square"/>
    </g>
    <g id="text_30">
     <!-- $ 0^{-}; 1$ -->
     <g transform="translate(77.111149 38.817406) scale(0.1 -0.1)">
      <use xlink:href="#CMR17-30" transform="scale(0.996264)"/>
      <use xlink:href="#CMSY10-0" transform="translate(45.690477 36.153639) scale(0.697382)"/>
      <use xlink:href="#CMR17-3b" transform="translate(100.429602 0) scale(0.996264)"/>
      <use xlink:href="#CMR17-31" transform="translate(141.905066 0) scale(0.996264)"/>
     </g>
    </g>
    <g id="line2d_105">
     <path d="M 49.111149 50.187103 
L 59.111149 50.187103 
L 69.111149 50.187103 
" style="fill: none; stroke: #0000ff; stroke-linecap: square"/>
    </g>
    <g id="text_31">
     <!-- $ 0^{+}; 0$ -->
     <g transform="translate(77.111149 53.687103) scale(0.1 -0.1)">
      <use xlink:href="#CMR17-30" transform="scale(0.996264)"/>
      <use xlink:href="#CMR17-2b" transform="translate(45.690477 36.153639) scale(0.697382)"/>
      <use xlink:href="#CMR17-3b" transform="translate(96.388741 0) scale(0.996264)"/>
      <use xlink:href="#CMR17-30" transform="translate(137.864204 0) scale(0.996264)"/>
     </g>
    </g>
    <g id="line2d_106">
     <path d="M 49.111149 65.056799 
L 59.111149 65.056799 
L 69.111149 65.056799 
" style="fill: none; stroke: #008000; stroke-linecap: square"/>
    </g>
    <g id="text_32">
     <!-- $ 1^{-}; 0$ -->
     <g transform="translate(77.111149 68.556799) scale(0.1 -0.1)">
      <use xlink:href="#CMR17-31" transform="scale(0.996264)"/>
      <use xlink:href="#CMSY10-0" transform="translate(45.690477 36.153639) scale(0.697382)"/>
      <use xlink:href="#CMR17-3b" transform="translate(100.429602 0) scale(0.996264)"/>
      <use xlink:href="#CMR17-30" transform="translate(141.905066 0) scale(0.996264)"/>
     </g>
    </g>
    <g id="line2d_107">
     <path d="M 49.111149 79.926496 
L 59.111149 79.926496 
L 69.111149 79.926496 
" style="fill: none; stroke: #ffa500; stroke-linecap: square"/>
    </g>
    <g id="text_33">
     <!-- $ 1^{-}; 1$ -->
     <g transform="translate(77.111149 83.426496) scale(0.1 -0.1)">
      <use xlink:href="#CMR17-31" transform="scale(0.996264)"/>
      <use xlink:href="#CMSY10-0" transform="translate(45.690477 36.153639) scale(0.697382)"/>
      <use xlink:href="#CMR17-3b" transform="translate(100.429602 0) scale(0.996264)"/>
      <use xlink:href="#CMR17-31" transform="translate(141.905066 0) scale(0.996264)"/>
     </g>
    </g>
    <g id="line2d_108">
     <path d="M 118.226424 20.44771 
L 128.226424 20.44771 
L 138.226424 20.44771 
" style="fill: none; stroke: #ff0000; stroke-linecap: square"/>
    </g>
    <g id="text_34">
     <!-- $ 1^{+}; 0$ -->
     <g transform="translate(146.226424 23.94771) scale(0.1 -0.1)">
      <use xlink:href="#CMR17-31" transform="scale(0.996264)"/>
      <use xlink:href="#CMR17-2b" transform="translate(45.690477 36.153639) scale(0.697382)"/>
      <use xlink:href="#CMR17-3b" transform="translate(96.388741 0) scale(0.996264)"/>
      <use xlink:href="#CMR17-30" transform="translate(137.864204 0) scale(0.996264)"/>
     </g>
    </g>
    <g id="line2d_109">
     <path d="M 118.226424 35.317406 
L 128.226424 35.317406 
L 138.226424 35.317406 
" style="fill: none; stroke: #8b4513; stroke-linecap: square"/>
    </g>
    <g id="text_35">
     <!-- $ 2^{-}; 0$ -->
     <g transform="translate(146.226424 38.817406) scale(0.1 -0.1)">
      <use xlink:href="#CMR17-32" transform="scale(0.996264)"/>
      <use xlink:href="#CMSY10-0" transform="translate(45.690477 36.153639) scale(0.697382)"/>
      <use xlink:href="#CMR17-3b" transform="translate(100.429602 0) scale(0.996264)"/>
      <use xlink:href="#CMR17-30" transform="translate(141.905066 0) scale(0.996264)"/>
     </g>
    </g>
    <g id="line2d_110">
     <path d="M 118.226424 50.187103 
L 128.226424 50.187103 
L 138.226424 50.187103 
" style="fill: none; stroke: #ffc0cb; stroke-linecap: square"/>
    </g>
    <g id="text_36">
     <!-- $ 2^{-}; 1$ -->
     <g transform="translate(146.226424 53.687103) scale(0.1 -0.1)">
      <use xlink:href="#CMR17-32" transform="scale(0.996264)"/>
      <use xlink:href="#CMSY10-0" transform="translate(45.690477 36.153639) scale(0.697382)"/>
      <use xlink:href="#CMR17-3b" transform="translate(100.429602 0) scale(0.996264)"/>
      <use xlink:href="#CMR17-31" transform="translate(141.905066 0) scale(0.996264)"/>
     </g>
    </g>
    <g id="line2d_111">
     <path d="M 118.226424 65.056799 
L 128.226424 65.056799 
L 138.226424 65.056799 
" style="fill: none; stroke: #00ffff; stroke-linecap: square"/>
    </g>
    <g id="text_37">
     <!-- $ 2^{+}; 0$ -->
     <g transform="translate(146.226424 68.556799) scale(0.1 -0.1)">
      <use xlink:href="#CMR17-32" transform="scale(0.996264)"/>
      <use xlink:href="#CMR17-2b" transform="translate(45.690477 36.153639) scale(0.697382)"/>
      <use xlink:href="#CMR17-3b" transform="translate(96.388741 0) scale(0.996264)"/>
      <use xlink:href="#CMR17-30" transform="translate(137.864204 0) scale(0.996264)"/>
     </g>
    </g>
   </g>
   <g id="patch_27">
    <path d="M 183.577483 236.177004 
L 198.418828 236.177004 
L 198.418828 219.105689 
L 183.577483 219.105689 
z
" clip-path="url(#p19092033d7)" style="fill: #fedfc0; opacity: 0.7; stroke: #ffa500; stroke-width: 0.1; stroke-linejoin: miter"/>
   </g>
   <g id="patch_28">
    <path d="M 134.106333 267.694953 
L 148.947678 267.694953 
L 148.947678 272.877684 
L 134.106333 272.877684 
z
" clip-path="url(#p19092033d7)" style="fill: #fee390; opacity: 0.7; stroke: #8b4513; stroke-width: 0.1; stroke-linejoin: miter"/>
   </g>
   <g id="patch_29">
    <path d="M 84.635184 267.810427 
L 99.476528 267.810427 
L 99.476528 274.104786 
L 84.635184 274.104786 
z
" clip-path="url(#p19092033d7)" style="fill: #fee390; opacity: 0.7; stroke: #8b4513; stroke-width: 0.1; stroke-linejoin: miter"/>
   </g>
   <g id="LineCollection_6">
    <path d="M 183.577483 277.20323 
L 223.154403 277.20323 
" clip-path="url(#p19092033d7)" style="fill: none; stroke: #8b4513; stroke-width: 1.057143"/>
   </g>
   <g id="patch_30">
    <path d="M 183.577483 301.213209 
L 190.998156 301.213209 
L 190.998156 298.900321 
L 183.577483 298.900321 
z
" clip-path="url(#p19092033d7)" style="fill: #e9e9e9; opacity: 0.7; stroke: #808080; stroke-width: 0.1; stroke-linejoin: miter"/>
   </g>
   <g id="patch_31">
    <path d="M 134.106333 297.265916 
L 144.000563 297.265916 
L 144.000563 300.229095 
L 134.106333 300.229095 
z
" clip-path="url(#p19092033d7)" style="fill: #d9d9d9; opacity: 0.7; stroke: #808080; stroke-width: 0.1; stroke-linejoin: miter"/>
   </g>
   <g id="patch_32">
    <path d="M 84.635184 302.83613 
L 94.529413 302.83613 
L 94.529413 306.979966 
L 84.635184 306.979966 
z
" clip-path="url(#p19092033d7)" style="fill: #d9d9d9; opacity: 0.7; stroke: #808080; stroke-width: 0.1; stroke-linejoin: miter"/>
   </g>
   <g id="LineCollection_7">
    <path d="M 183.577483 99.055793 
L 223.154403 99.055793 
" clip-path="url(#p19092033d7)" style="fill: none; stroke: #ff0000; stroke-width: 1.028571"/>
   </g>
   <g id="LineCollection_8">
    <path d="M 183.577483 164.036929 
L 223.154403 164.036929 
" clip-path="url(#p19092033d7)" style="fill: none; stroke: #ffa500"/>
   </g>
   <g id="LineCollection_9">
    <path d="M 134.106333 238.723384 
L 173.683253 238.723384 
" clip-path="url(#p19092033d7)" style="fill: none; stroke: #ffc0cb"/>
   </g>
   <g id="LineCollection_10">
    <path d="M 84.635184 240.151867 
L 124.212103 240.151867 
" clip-path="url(#p19092033d7)" style="fill: none; stroke: #ffc0cb"/>
   </g>
   <g id="LineCollection_11">
    <path d="M 183.577483 227.641346 
L 223.154403 227.641346 
" clip-path="url(#p19092033d7)" style="fill: none; stroke: #ffa500; stroke-width: 0.971429"/>
   </g>
   <g id="LineCollection_12">
    <path d="M 134.106333 270.286319 
L 173.683253 270.286319 
" clip-path="url(#p19092033d7)" style="fill: none; stroke: #8b4513; stroke-width: 0.971429"/>
   </g>
   <g id="LineCollection_13">
    <path d="M 84.635184 270.957607 
L 124.212103 270.957607 
" clip-path="url(#p19092033d7)" style="fill: none; stroke: #8b4513; stroke-width: 0.971429"/>
   </g>
   <g id="LineCollection_14">
    <path d="M 183.577483 97.40373 
L 223.154403 97.40373 
" clip-path="url(#p19092033d7)" style="fill: none; stroke: #008000; stroke-width: 0.942857"/>
   </g>
   <g id="LineCollection_15">
    <path d="M 134.106333 226.536667 
L 173.683253 226.536667 
" clip-path="url(#p19092033d7)" style="fill: none; stroke: #ffa500; stroke-width: 0.942857"/>
   </g>
   <g id="LineCollection_16">
    <path d="M 84.635184 227.691459 
L 124.212103 227.691459 
" clip-path="url(#p19092033d7)" style="fill: none; stroke: #ffa500; stroke-width: 0.942857"/>
   </g>
   <g id="LineCollection_17">
    <path d="M 183.577483 210.845375 
L 223.154403 210.845375 
" clip-path="url(#p19092033d7)" style="fill: none; stroke: #008000; stroke-width: 0.914286"/>
   </g>
   <g id="LineCollection_18">
    <path d="M 134.106333 242.326257 
L 173.683253 242.326257 
" clip-path="url(#p19092033d7)" style="fill: none; stroke: #ffa500; stroke-width: 0.914286"/>
   </g>
   <g id="LineCollection_19">
    <path d="M 84.635184 244.406755 
L 124.212103 244.406755 
" clip-path="url(#p19092033d7)" style="fill: none; stroke: #ffa500; stroke-width: 0.914286"/>
   </g>
   <g id="LineCollection_20">
    <path d="M 183.577483 322.084269 
L 223.154403 322.084269 
" clip-path="url(#p19092033d7)" style="fill: none; stroke: #0000ff; stroke-width: 0.885714"/>
   </g>
   <g id="LineCollection_21">
    <path d="M 134.106333 241.512341 
L 173.683253 241.512341 
" clip-path="url(#p19092033d7)" style="fill: none; stroke: #008000; stroke-width: 0.885714"/>
   </g>
   <g id="LineCollection_22">
    <path d="M 84.635184 238.352771 
L 124.212103 238.352771 
" clip-path="url(#p19092033d7)" style="fill: none; stroke: #008000; stroke-width: 0.885714"/>
   </g>
   <g id="LineCollection_23">
    <path d="M 183.577483 182.484963 
L 223.154403 182.484963 
" clip-path="url(#p19092033d7)" style="fill: none; stroke: #800080; stroke-width: 0.857143"/>
   </g>
   <g id="LineCollection_24">
    <path d="M 134.106333 313.513367 
L 173.683253 313.513367 
" clip-path="url(#p19092033d7)" style="fill: none; stroke: #0000ff; stroke-width: 0.857143"/>
   </g>
   <g id="LineCollection_25">
    <path d="M 84.635184 322.896809 
L 124.212103 322.896809 
" clip-path="url(#p19092033d7)" style="fill: none; stroke: #0000ff; stroke-width: 0.857143"/>
   </g>
   <g id="LineCollection_26">
    <path d="M 183.577483 89.969447 
L 223.154403 89.969447 
" clip-path="url(#p19092033d7)" style="fill: none; stroke: #808080; stroke-width: 0.828571"/>
   </g>
   <g id="LineCollection_27">
    <path d="M 134.106333 231.88467 
L 173.683253 231.88467 
" clip-path="url(#p19092033d7)" style="fill: none; stroke: #800080; stroke-width: 0.828571"/>
   </g>
   <g id="LineCollection_28">
    <path d="M 84.635184 233.518009 
L 124.212103 233.518009 
" clip-path="url(#p19092033d7)" style="fill: none; stroke: #800080; stroke-width: 0.828571"/>
   </g>
   <g id="LineCollection_29">
    <path d="M 183.577483 300.056765 
L 223.154403 300.056765 
" clip-path="url(#p19092033d7)" style="fill: none; stroke: #808080; stroke-width: 0.8"/>
   </g>
   <g id="LineCollection_30">
    <path d="M 134.106333 298.747506 
L 173.683253 298.747506 
" clip-path="url(#p19092033d7)" style="fill: none; stroke: #808080; stroke-width: 0.8"/>
   </g>
   <g id="LineCollection_31">
    <path d="M 84.635184 304.908048 
L 124.212103 304.908048 
" clip-path="url(#p19092033d7)" style="fill: none; stroke: #808080; stroke-width: 0.8"/>
   </g>
   <g id="patch_33">
    <path d="M 183.577483 112.671543 
L 210.786616 112.671543 
L 210.786616 85.440042 
L 183.577483 85.440042 
z
" clip-path="url(#p19092033d7)" style="fill: #fcbba1; opacity: 0.7; stroke: #ff0000; stroke-width: 0.1; stroke-linejoin: miter"/>
   </g>
   <g id="patch_34">
    <path d="M 134.106333 332.960349 
L 134.106333 332.960349 
L 134.106333 332.960349 
L 134.106333 332.960349 
z
" clip-path="url(#p19092033d7)" style="opacity: 0.7; stroke: #000000; stroke-width: 0.1; stroke-linejoin: miter"/>
   </g>
   <g id="patch_35">
    <path d="M 84.635184 332.960349 
L 84.635184 332.960349 
L 84.635184 332.960349 
L 84.635184 332.960349 
z
" clip-path="url(#p19092033d7)" style="opacity: 0.7; stroke: #000000; stroke-width: 0.1; stroke-linejoin: miter"/>
   </g>
   <g id="patch_36">
    <path d="M 183.577483 279.970435 
L 193.471713 279.970435 
L 193.471713 274.436025 
L 183.577483 274.436025 
z
" clip-path="url(#p19092033d7)" style="fill: #fff1ae; opacity: 0.7; stroke: #8b4513; stroke-width: 0.1; stroke-linejoin: miter"/>
   </g>
   <g id="patch_37">
    <path d="M 134.106333 332.960349 
L 134.106333 332.960349 
L 134.106333 332.960349 
L 134.106333 332.960349 
z
" clip-path="url(#p19092033d7)" style="opacity: 0.7; stroke: #000000; stroke-width: 0.1; stroke-linejoin: miter"/>
   </g>
   <g id="patch_38">
    <path d="M 84.635184 332.960349 
L 84.635184 332.960349 
L 84.635184 332.960349 
L 84.635184 332.960349 
z
" clip-path="url(#p19092033d7)" style="opacity: 0.7; stroke: #000000; stroke-width: 0.1; stroke-linejoin: miter"/>
   </g>
   <g id="patch_39">
    <path d="M 183.577483 108.899333 
L 215.733731 108.899333 
L 215.733731 84.806751 
L 183.577483 84.806751 
z
" clip-path="url(#p19092033d7)" style="fill: #fe9829; opacity: 0.7; stroke: #8b4513; stroke-width: 0.1; stroke-linejoin: miter"/>
   </g>
   <g id="patch_40">
    <path d="M 134.106333 332.960349 
L 134.106333 332.960349 
L 134.106333 332.960349 
L 134.106333 332.960349 
z
" clip-path="url(#p19092033d7)" style="opacity: 0.7; stroke: #000000; stroke-width: 0.1; stroke-linejoin: miter"/>
   </g>
   <g id="patch_41">
    <path d="M 84.635184 332.960349 
L 84.635184 332.960349 
L 84.635184 332.960349 
L 84.635184 332.960349 
z
" clip-path="url(#p19092033d7)" style="opacity: 0.7; stroke: #000000; stroke-width: 0.1; stroke-linejoin: miter"/>
   </g>
   <g id="patch_42">
    <path d="M 183.577483 243.074366 
L 195.945271 243.074366 
L 195.945271 229.279642 
L 183.577483 229.279642 
z
" clip-path="url(#p19092033d7)" style="fill: #fcc5c0; opacity: 0.7; stroke: #ffc0cb; stroke-width: 0.1; stroke-linejoin: miter"/>
   </g>
   <g id="patch_43">
    <path d="M 134.106333 332.960349 
L 134.106333 332.960349 
L 134.106333 332.960349 
L 134.106333 332.960349 
z
" clip-path="url(#p19092033d7)" style="opacity: 0.7; stroke: #000000; stroke-width: 0.1; stroke-linejoin: miter"/>
   </g>
   <g id="patch_44">
    <path d="M 84.635184 332.960349 
L 84.635184 332.960349 
L 84.635184 332.960349 
L 84.635184 332.960349 
z
" clip-path="url(#p19092033d7)" style="opacity: 0.7; stroke: #000000; stroke-width: 0.1; stroke-linejoin: miter"/>
   </g>
   <g id="patch_45">
    <path d="M 183.577483 135.525079 
L 208.313058 135.525079 
L 208.313058 111.597703 
L 183.577483 111.597703 
z
" clip-path="url(#p19092033d7)" style="fill: #e5f5f9; opacity: 0.7; stroke: #00ffff; stroke-width: 0.1; stroke-linejoin: miter"/>
   </g>
   <g id="patch_46">
    <path d="M 134.106333 332.960349 
L 134.106333 332.960349 
L 134.106333 332.960349 
L 134.106333 332.960349 
z
" clip-path="url(#p19092033d7)" style="opacity: 0.7; stroke: #000000; stroke-width: 0.1; stroke-linejoin: miter"/>
   </g>
   <g id="patch_47">
    <path d="M 84.635184 332.960349 
L 84.635184 332.960349 
L 84.635184 332.960349 
L 84.635184 332.960349 
z
" clip-path="url(#p19092033d7)" style="opacity: 0.7; stroke: #000000; stroke-width: 0.1; stroke-linejoin: miter"/>
   </g>
   <g id="patch_48">
    <path d="M 183.577483 94.347414 
L 220.680846 94.347414 
L 220.680846 83.939418 
L 183.577483 83.939418 
z
" clip-path="url(#p19092033d7)" style="fill: #98d8c9; opacity: 0.7; stroke: #00ffff; stroke-width: 0.1; stroke-linejoin: miter"/>
   </g>
   <g id="patch_49">
    <path d="M 134.106333 332.960349 
L 134.106333 332.960349 
L 134.106333 332.960349 
L 134.106333 332.960349 
z
" clip-path="url(#p19092033d7)" style="opacity: 0.7; stroke: #000000; stroke-width: 0.1; stroke-linejoin: miter"/>
   </g>
   <g id="patch_50">
    <path d="M 84.635184 332.960349 
L 84.635184 332.960349 
L 84.635184 332.960349 
L 84.635184 332.960349 
z
" clip-path="url(#p19092033d7)" style="opacity: 0.7; stroke: #000000; stroke-width: 0.1; stroke-linejoin: miter"/>
   </g>
   <g id="patch_51">
    <path d="M 183.577483 46.492661 
L 223.154403 46.492661 
L 223.154403 19.729244 
L 183.577483 19.729244 
z
" clip-path="url(#p19092033d7)" style="fill: #40ad75; opacity: 0.7; stroke: #00ffff; stroke-width: 0.1; stroke-linejoin: miter"/>
   </g>
   <g id="patch_52">
    <path d="M 134.106333 332.960349 
L 134.106333 332.960349 
L 134.106333 332.960349 
L 134.106333 332.960349 
z
" clip-path="url(#p19092033d7)" style="opacity: 0.7; stroke: #000000; stroke-width: 0.1; stroke-linejoin: miter"/>
   </g>
   <g id="patch_53">
    <path d="M 84.635184 332.960349 
L 84.635184 332.960349 
L 84.635184 332.960349 
L 84.635184 332.960349 
z
" clip-path="url(#p19092033d7)" style="opacity: 0.7; stroke: #000000; stroke-width: 0.1; stroke-linejoin: miter"/>
   </g>
  </g>
 </g>
 <defs>
  <clipPath id="p19092033d7">
   <rect x="40.111149" y="7.2" width="207.778829" height="339.527539"/>
  </clipPath>
 </defs>
</svg>
